<svg xmlns="http://www.w3.org/2000/svg" width="91.823" height="90.716" viewBox="0 0 91.823 90.716">
  <g id="Group_116" data-name="Group 116" transform="translate(-361 -644)">
    <g id="export_-_list" data-name="export - list" transform="matrix(0.883, 0.469, -0.469, 0.883, 392.035, 644.001)">
      <path id="Path_37" data-name="Path 37" d="M49.219,1.131C59.84,2.484,65.1,12.257,67.929,21.9a20.458,20.458,0,0,1-6.281,21.618C49.248,54.618,35.7,71.97,20.633,64.254,2.243,54.837-4.8,31.695,3.365,13.675,10.215-1.452,31.77-1.091,49.219,1.131Z" fill="#f0fcf4" fill-rule="evenodd"/>
    </g>
    <path id="carrot" d="M40.383,12.168,42.653,9.9a5.809,5.809,0,0,0,0-8.206,5.822,5.822,0,0,0-8.214,0L32.3,3.828A5.81,5.81,0,0,0,21.278,6.381v.01l.049,6.211a7.948,7.948,0,0,0-7.015,2.54,1.264,1.264,0,0,0-.355.425,8,8,0,0,0-.679,1.022L.287,39.867a1.3,1.3,0,0,0-.094.211,3.218,3.218,0,0,0,3.033,4.258,3.246,3.246,0,0,0,1.051-.176,1.305,1.305,0,0,0,.208-.092l7.871-4.354h0l9.9-5.474h0l5.577-3.085a7.928,7.928,0,0,0,4.03-7.916l6.422.155h.031a5.8,5.8,0,0,0,2.066-11.224ZM29.263,25.034a5.3,5.3,0,0,1-2.687,3.846l-4.7,2.6-3.506-3.5a1.3,1.3,0,1,0-1.835,1.838l2.976,2.971-7.532,4.166L10.392,35.37a1.3,1.3,0,0,0-1.835,1.838l1.056,1.054L3.354,41.725a.606.606,0,0,1-.557-.171.6.6,0,0,1-.17-.549L8.408,30.646a1.3,1.3,0,0,0,1.812-1.86l-.5-.5,5.615-10.062,5.019,5.01A1.3,1.3,0,1,0,22.192,21.4l-5.207-5.2a5.341,5.341,0,0,1,2.336-1.007,5.153,5.153,0,0,1,4.305,1.22c.079.07.157.144.232.218l3.959,3.952h0q.057.057.111.114a5.12,5.12,0,0,1,1.335,4.335Zm9.068-4.239-7.294-.176a7.748,7.748,0,0,0-1.221-1.7q-.081-.085-.164-.169h0l-3.959-3.952c-.11-.11-.225-.218-.342-.322a7.754,7.754,0,0,0-1.419-1l-.056-7.1a3.212,3.212,0,0,1,6.423,0,1.3,1.3,0,0,0,2.216.915l3.759-3.752a3.22,3.22,0,0,1,4.544,0,3.212,3.212,0,0,1,0,4.53l-4.112,4.105a1.3,1.3,0,0,0,.918,2.218h.694a3.2,3.2,0,1,1,.015,6.408Z" transform="translate(384.983 667)" fill="#0cc16b"/>
  </g>
</svg>
