<svg xmlns="http://www.w3.org/2000/svg" width="91.823" height="90.716" viewBox="0 0 91.823 90.716">
  <g id="Group_115" data-name="Group 115" transform="translate(-995 -644)">
    <g id="export_-_list" data-name="export - list" transform="matrix(0.883, 0.469, -0.469, 0.883, 1026.035, 644.001)">
      <path id="Path_37" data-name="Path 37" d="M49.219,1.131C59.84,2.484,65.1,12.257,67.929,21.9a20.458,20.458,0,0,1-6.281,21.618C49.248,54.618,35.7,71.97,20.633,64.254,2.243,54.837-4.8,31.695,3.365,13.675,10.215-1.452,31.77-1.091,49.219,1.131Z" fill="#f0fcf4" fill-rule="evenodd"/>
    </g>
    <g id="pressure" transform="translate(1019 667)">
      <g id="Group_14" data-name="Group 14" transform="translate(17.025 15.715)">
        <g id="Group_13" data-name="Group 13">
          <path id="Path_14" data-name="Path 14" d="M207.682,183.906a3.577,3.577,0,0,0-4.265-.593,3.571,3.571,0,0,0-4.265,5.643l4.265,4.265,4.265-4.265a3.57,3.57,0,0,0,0-5.049Zm-1.823,3.226-2.442,2.442-2.442-2.442a.992.992,0,0,1,1.4-1.4l1.039,1.039,1.038-1.039a.992.992,0,1,1,1.4,1.4Z" transform="translate(-198.106 -182.862)" fill="#0cc16b"/>
        </g>
      </g>
      <g id="Group_16" data-name="Group 16">
        <g id="Group_15" data-name="Group 15">
          <path id="Path_15" data-name="Path 15" d="M35.877,19.426V15.458a2.706,2.706,0,0,0-2.7-2.7H31.036V11.744h-14.7a2.706,2.706,0,0,0-2.7,2.7v4.8a6.846,6.846,0,0,1-5.7-6.144,6.62,6.62,0,1,0-2.586.009,9.427,9.427,0,0,0,8.287,8.739V26.8a2.706,2.706,0,0,0,2.7,2.7h14.7V28.5h2.138a2.706,2.706,0,0,0,2.7-2.7V22.039a6.844,6.844,0,0,1,5.545,6.71v.091a6.842,6.842,0,0,1-6.834,6.834H17.677a7.048,7.048,0,0,0-6.917-5.748H7.037A7.037,7.037,0,1,0,7.037,44H10.76a7.048,7.048,0,0,0,6.917-5.748H34.588A9.423,9.423,0,0,0,44,28.84v-.091A9.426,9.426,0,0,0,35.877,19.426ZM2.578,6.617a4.039,4.039,0,1,1,4.039,4.039A4.043,4.043,0,0,1,2.578,6.617ZM28.458,26.93H16.338a.125.125,0,0,1-.125-.125V14.447a.125.125,0,0,1,.124-.124h12.12ZM33.3,25.794a.125.125,0,0,1-.124.124H31.036V15.334h2.138a.125.125,0,0,1,.124.125ZM10.76,41.422H7.037a4.459,4.459,0,0,1,0-8.918H10.76a4.459,4.459,0,0,1,0,8.918Z" fill="#0cc16b"/>
        </g>
      </g>
      <g id="Group_18" data-name="Group 18" transform="translate(5.328 3.869)">
        <g id="Group_17" data-name="Group 17">
          <path id="Path_16" data-name="Path 16" d="M64.577,46.485V45.026H62v4.037h4.037V46.485Z" transform="translate(-61.999 -45.026)" fill="#0cc16b"/>
        </g>
      </g>
    </g>
  </g>
</svg>
