<svg xmlns="http://www.w3.org/2000/svg" width="84.176" height="83.162" viewBox="0 0 84.176 83.162">
    <defs>
        <style>
            .cls-2{fill:#0cc16b}
        </style>
    </defs>
    <g id="Сгруппировать_11" data-name="Сгруппировать 11" transform="translate(-435 -738.777)">
        <g id="Group_36" data-name="Group 36" transform="translate(1043.971 -254.222)">
            <g id="export_-_list" data-name="export - list" transform="rotate(28 -2283.919 -668.025)">
                <path id="Path_37" fill="#f0fcf4" fill-rule="evenodd" d="M45.122 1.037c9.737 1.24 14.558 10.2 17.152 19.039a18.754 18.754 0 0 1-5.758 19.818C45.148 50.07 32.732 65.977 18.916 58.9 2.058 50.271-4.4 29.056 3.086 12.536 9.366-1.331 29.126-1 45.122 1.037z" data-name="Path 37"/>
            </g>
        </g>
        <g id="register" transform="translate(456 753)">
            <path id="Контур_12" d="M29.708 43.25H4.792A4.8 4.8 0 0 1 0 38.458V7.792A4.8 4.8 0 0 1 4.792 3h3.833a.958.958 0 0 1 0 1.917H4.792a2.879 2.879 0 0 0-2.875 2.875v30.666a2.879 2.879 0 0 0 2.875 2.875h24.916a2.879 2.879 0 0 0 2.875-2.875V7.792a2.879 2.879 0 0 0-2.875-2.875h-3.833a.958.958 0 1 1 0-1.917h3.833A4.8 4.8 0 0 1 34.5 7.792v30.666a4.8 4.8 0 0 1-4.792 4.792z" class="cls-2" data-name="Контур 12" transform="translate(0 2.75)"/>
            <path id="Контур_13" d="M20.292 11.5H6.875A2.879 2.879 0 0 1 4 8.625V4.792a.959.959 0 0 1 .958-.958h3.929a4.793 4.793 0 0 1 9.392 0h3.929a.959.959 0 0 1 .958.958v3.833a2.879 2.879 0 0 1-2.874 2.875zM5.917 5.75v2.875a.96.96 0 0 0 .958.958h13.417a.96.96 0 0 0 .958-.958V5.75h-3.833a.959.959 0 0 1-.958-.958 2.875 2.875 0 0 0-5.75 0 .959.959 0 0 1-.958.958z" class="cls-2" data-name="Контур 13" transform="translate(3.667)"/>
            <path id="Контур_14" d="M23.833 34.75a.96.96 0 0 1-.857-.529l-2.47-4.941A4.812 4.812 0 0 1 20 27.137V9.833a3.833 3.833 0 0 1 7.667 0v17.3a4.812 4.812 0 0 1-.506 2.143l-2.471 4.945a.96.96 0 0 1-.857.529zm0-26.833a1.919 1.919 0 0 0-1.917 1.917v17.3a2.909 2.909 0 0 0 .3 1.286l1.614 3.226 1.614-3.226a2.909 2.909 0 0 0 .3-1.286V9.833a1.919 1.919 0 0 0-1.911-1.916zM26.3 28.851h.019z" class="cls-2" data-name="Контур 14" transform="translate(18.333 5.5)"/>
            <path id="Контур_15" d="M25.042 10.917H3.958a.958.958 0 1 1 0-1.917h21.084a.958.958 0 1 1 0 1.917z" class="cls-2" data-name="Контур 15" transform="translate(2.75 8.25)"/>
            <path id="Контур_16" d="M25.042 13.917H3.958a.958.958 0 1 1 0-1.917h21.084a.958.958 0 1 1 0 1.917z" class="cls-2" data-name="Контур 16" transform="translate(2.75 11)"/>
            <path id="Контур_17" d="M25.042 16.917H3.958a.958.958 0 1 1 0-1.917h21.084a.958.958 0 1 1 0 1.917z" class="cls-2" data-name="Контур 17" transform="translate(2.75 13.75)"/>
            <path id="Контур_18" d="M25.042 19.917H3.958a.958.958 0 1 1 0-1.917h21.084a.958.958 0 1 1 0 1.917z" class="cls-2" data-name="Контур 18" transform="translate(2.75 16.5)"/>
        </g>
    </g>
</svg>
