<svg xmlns="http://www.w3.org/2000/svg" width="84.176" height="83.162" viewBox="0 0 84.176 83.162">
    <defs>
        <style>
            .cls-2{fill:#0cc16b}
        </style>
    </defs>
    <g id="Сгруппировать_15" data-name="Сгруппировать 15" transform="translate(-678 -738.777)">
        <path id="Path_37" fill="#f0fcf4" fill-rule="evenodd" d="M45.122 1.037c9.737 1.24 14.558 10.2 17.152 19.039a18.754 18.754 0 0 1-5.758 19.818C45.148 50.07 32.732 65.977 18.916 58.9 2.058 50.271-4.4 29.056 3.086 12.536 9.366-1.331 29.126-1 45.122 1.037z" data-name="Path 37" transform="rotate(28 -1129.176 1787.98)"/>
        <g id="Application" transform="translate(695 753.5)">
            <path id="Контур_19" d="M25 44h10.85v1.55H25z" class="cls-2" data-name="Контур 19" transform="translate(-5.175 -9.45)"/>
            <path id="Контур_20" d="M21 44h1.55v1.55H21z" class="cls-2" data-name="Контур 20" transform="translate(-4.275 -9.45)"/>
            <path id="Контур_21" d="M47.725 5.1h-10.85v-.775A2.332 2.332 0 0 0 34.55 2h-18.6a2.332 2.332 0 0 0-2.325 2.325v3.1H2.775A.775.775 0 0 0 2 8.2v9.3a.775.775 0 0 0 .775.775h10.85v1.55A3.875 3.875 0 0 0 9.75 23.7v3.17l1.55 16.236v4.619a.775.775 0 0 0 .775.775h17.05a.775.775 0 0 0 .775-.775v-4.4l2.883-4.125h1.767a2.332 2.332 0 0 0 2.325-2.325V36.1h.775a3.088 3.088 0 0 0 2.031-5.425 3.062 3.062 0 0 0 0-4.65 3.062 3.062 0 0 0 0-4.65 3.088 3.088 0 0 0-2.031-5.425h-.775V14.4h10.85a.775.775 0 0 0 .775-.775v-7.75a.775.775 0 0 0-.775-.775zM31.233 3.55l-.24.961a.775.775 0 0 1-.752.589h-9.982a.775.775 0 0 1-.752-.589l-.24-.961zM3.55 16.725v-7.75H17.5v7.75zm24.8 30.225h-15.5v-3.1h15.5zm.372-4.65H12.78L11.3 26.8v-3.1a2.332 2.332 0 0 1 2.325-2.325h5.425a2.325 2.325 0 1 1 0 4.65H14.4a.775.775 0 0 0-.775.775v10.075A2.332 2.332 0 0 0 15.95 39.2h14.942zm6.6-5.425a.775.775 0 0 1-.775.775H15.95a.775.775 0 0 1-.775-.775v-9.3h3.875a3.875 3.875 0 0 0 0-7.75h-3.875v-1.55h3.1a.775.775 0 0 0 .775-.775V8.2a.775.775 0 0 0-.775-.775h-3.1v-3.1a.775.775 0 0 1 .775-.775h1.72L18 4.891a2.325 2.325 0 0 0 2.259 1.759h9.982A2.325 2.325 0 0 0 32.5 4.891l.333-1.341h1.717a.775.775 0 0 1 .775.775V5.1h-1.55a.775.775 0 0 0-.775.775v7.75a.775.775 0 0 0 .775.775h1.55v1.55h-.775a3.088 3.088 0 0 0-2.03 5.425 3.062 3.062 0 0 0 0 4.65 3.062 3.062 0 0 0 0 4.65 3.088 3.088 0 0 0 2.03 5.425h.775zm2.328-2.325h-3.1a1.55 1.55 0 1 1 0-3.1h3.1a1.55 1.55 0 1 1 0 3.1zm0-4.65h-3.1a1.55 1.55 0 0 1 0-3.1h3.1a1.55 1.55 0 1 1 0 3.1zm0-4.65h-3.1a1.55 1.55 0 0 1 0-3.1h3.1a1.55 1.55 0 1 1 0 3.1zm0-7.75a1.55 1.55 0 1 1 0 3.1h-3.1a1.55 1.55 0 0 1 0-3.1zm9.3-4.65h-12.4v-6.2h12.4z" class="cls-2" data-name="Контур 21"/>
            <path id="Контур_22" d="M6 13h1.55v1.55H6z" class="cls-2" data-name="Контур 22" transform="translate(-.9 -2.475)"/>
            <path id="Контур_23" d="M10 13h7.75v1.55H10z" class="cls-2" data-name="Контур 23" transform="translate(-1.8 -2.475)"/>
            <path id="Контур_24" d="M6 17h10.85v1.55H6z" class="cls-2" data-name="Контур 24" transform="translate(-.9 -3.375)"/>
            <path id="Контур_25" d="M46 11h3.1v1.55H46z" class="cls-2" data-name="Контур 25" transform="translate(-9.9 -2.025)"/>
            <path id="Контур_26" d="M52 11h4.65v1.55H52z" class="cls-2" data-name="Контур 26" transform="translate(-11.25 -2.025)"/>
        </g>
    </g>
</svg>
