<svg xmlns="http://www.w3.org/2000/svg" width="84.176" height="83.162" viewBox="0 0 84.176 83.162">
    <defs>
        <style>
            .cls-2{fill:#0cc16b}
        </style>
    </defs>
    <g id="Сгруппировать_14" data-name="Сгруппировать 14" transform="translate(-930 -738.777)">
        <path id="Path_37" fill="#f0fcf4" fill-rule="evenodd" d="M45.122 1.037c9.737 1.24 14.558 10.2 17.152 19.039a18.754 18.754 0 0 1-5.758 19.818C45.148 50.07 32.732 65.977 18.916 58.9 2.058 50.271-4.4 29.056 3.086 12.536 9.366-1.331 29.126-1 45.122 1.037z" data-name="Path 37" transform="rotate(28 -1002.987 2293.813)"/>
        <g id="dna_3_" data-name="dna (3)" transform="rotate(-45 1408.241 -740.123)">
            <g id="Сгруппировать_13" data-name="Сгруппировать 13" transform="translate(0 .001)">
                <path id="Контур_27" d="M22.887 105.2l-3.448 3.448a1.4 1.4 0 0 1-1.983-1.983l5.394-5.394a9.6 9.6 0 0 0 2.636-8.671l-2.853-14.435a12.321 12.321 0 0 1 2.9-10.664.745.745 0 1 0-1.113-.991 13.891 13.891 0 0 0-3.252 11.944l.59 2.983-2.983-.589A13.89 13.89 0 0 0 6.24 84.66L.846 90.054a2.892 2.892 0 0 0 4.09 4.09l.721-.721 11.466 11.466-.721.721a2.892 2.892 0 0 0 4.09 4.09l3.448-3.448a.745.745 0 0 0-1.054-1.054zm-1.266-4.807L10.156 88.925a8.3 8.3 0 0 1 2.834-1.948l10.579 10.58a8.5 8.5 0 0 1-1.948 2.834zm2.4-7.5a8.133 8.133 0 0 1 .023 3.036L14.62 86.5a8.133 8.133 0 0 1 3.036.023l5.317 1.051zm-20.141.2a1.4 1.4 0 0 1-1.98-1.985l5.394-5.394a12.4 12.4 0 0 1 11.194-3.4l3.585.708.588 2.974-4.716-.932A9.6 9.6 0 0 0 9.277 87.7zm2.829-.721L9.1 89.979l11.466 11.466-2.391 2.391z" class="cls-2" data-name="Контур 27" transform="translate(0 -59.677)"/>
                <path id="Контур_28" d="M278.258 16.4a2.891 2.891 0 0 0-4.091 0l-.721.721-11.465-11.464.721-.721a2.892 2.892 0 0 0-4.09-4.09l-3.45 3.45a.745.745 0 1 0 1.054 1.054l3.45-3.45a1.4 1.4 0 0 1 1.983 1.983l-5.394 5.394a9.6 9.6 0 0 0-2.635 8.668l2.853 14.437A12.325 12.325 0 0 1 253.6 43.01a.745.745 0 0 0 1.117.987 13.89 13.89 0 0 0 3.217-11.9l-.589-2.983 2.983.59a13.891 13.891 0 0 0 12.537-3.812l5.394-5.394a2.9 2.9 0 0 0 0-4.09zm-5.865 1.775L270 20.568 258.537 9.1l2.391-2.391zm-14.91-8.021l11.465 11.466a8.3 8.3 0 0 1-2.834 1.948L255.535 12.99a8.506 8.506 0 0 1 1.948-2.834zm-2.4 7.5a8.133 8.133 0 0 1-.023-3.036l9.427 9.427a8.132 8.132 0 0 1-3.036-.023l-5.317-1.051zm22.117 1.785l-5.394 5.394a12.4 12.4 0 0 1-11.194 3.4l-3.585-.708-.588-2.974 4.716.932a9.6 9.6 0 0 0 8.668-2.635l5.394-5.394a1.4 1.4 0 1 1 1.983 1.983z" class="cls-2" data-name="Контур 28" transform="translate(-228.235 -.001)"/>
            </g>
        </g>
    </g>
</svg>
