<svg xmlns="http://www.w3.org/2000/svg" width="67" height="67" viewBox="0 0 67 67">
  <g id="Сгруппировать_196" data-name="Сгруппировать 196" transform="translate(-682 -196)">
    <circle id="Эллипс_3" data-name="Эллипс 3" cx="33.5" cy="33.5" r="33.5" transform="translate(682 196)" fill="#e3fcec"/>
    <path id="Icon_awesome-check" data-name="Icon awesome-check" d="M10.869,27.971l-10.4-10.4a1.6,1.6,0,0,1,0-2.263l2.263-2.263a1.6,1.6,0,0,1,2.263,0L12,20.052,27.006,5.046a1.6,1.6,0,0,1,2.263,0l2.263,2.263a1.6,1.6,0,0,1,0,2.263l-18.4,18.4A1.6,1.6,0,0,1,10.869,27.971Z" transform="translate(700 213.423)" fill="#54c053"/>
  </g>
</svg>
