<svg xmlns="http://www.w3.org/2000/svg" width="15.907" height="15.907" viewBox="0 0 15.907 15.907">
  <path id="Icon_awesome-facebook-square" data-name="Icon awesome-facebook-square" d="M14.2,2.25H1.7A1.7,1.7,0,0,0,0,3.954v12.5a1.7,1.7,0,0,0,1.7,1.7H6.578V12.749H4.341V10.2H6.578V8.263A3.107,3.107,0,0,1,9.9,4.838a13.552,13.552,0,0,1,1.971.172V7.176h-1.11A1.273,1.273,0,0,0,9.33,8.551V10.2h2.442l-.391,2.546H9.33v5.408H14.2a1.7,1.7,0,0,0,1.7-1.7V3.954a1.7,1.7,0,0,0-1.7-1.7Z" transform="translate(0 -2.25)" fill="#4064ac"/>
</svg>
