<svg xmlns="http://www.w3.org/2000/svg" width="15.704" height="15.704" viewBox="0 0 15.704 15.704">
  <path id="Icon_awesome-twitter-square" data-name="Icon awesome-twitter-square" d="M14.021,2.25H1.683A1.683,1.683,0,0,0,0,3.933V16.271a1.683,1.683,0,0,0,1.683,1.683H14.021A1.683,1.683,0,0,0,15.7,16.271V3.933A1.683,1.683,0,0,0,14.021,2.25ZM12.307,7.816c.007.1.007.2.007.3a6.5,6.5,0,0,1-6.541,6.541,6.511,6.511,0,0,1-3.53-1.031,4.843,4.843,0,0,0,.554.028,4.609,4.609,0,0,0,2.853-.981A2.3,2.3,0,0,1,3.5,11.076a2.478,2.478,0,0,0,1.038-.042A2.3,2.3,0,0,1,2.7,8.777V8.749a2.3,2.3,0,0,0,1.038.291A2.294,2.294,0,0,1,2.713,7.126a2.27,2.27,0,0,1,.312-1.16,6.528,6.528,0,0,0,4.739,2.4,2.3,2.3,0,0,1,3.922-2.1,4.5,4.5,0,0,0,1.458-.554,2.293,2.293,0,0,1-1.01,1.265,4.575,4.575,0,0,0,1.325-.358A4.839,4.839,0,0,1,12.307,7.816Z" transform="translate(0 -2.25)" fill="#34d1f7"/>
</svg>
