<svg xmlns="http://www.w3.org/2000/svg" width="16.2" height="16.196" viewBox="0 0 16.2 16.196">
  <path id="Icon_awesome-instagram" data-name="Icon awesome-instagram" d="M8.1,6.183a4.152,4.152,0,1,0,4.152,4.152A4.146,4.146,0,0,0,8.1,6.183Zm0,6.852a2.7,2.7,0,1,1,2.7-2.7,2.7,2.7,0,0,1-2.7,2.7Zm5.291-7.022a.969.969,0,1,1-.969-.969A.966.966,0,0,1,13.387,6.013ZM16.137,7A4.793,4.793,0,0,0,14.829,3.6a4.825,4.825,0,0,0-3.394-1.308c-1.337-.076-5.345-.076-6.682,0A4.818,4.818,0,0,0,1.36,3.6,4.809,4.809,0,0,0,.052,6.993c-.076,1.337-.076,5.345,0,6.682A4.793,4.793,0,0,0,1.36,17.069a4.831,4.831,0,0,0,3.394,1.308c1.337.076,5.345.076,6.682,0a4.793,4.793,0,0,0,3.394-1.308,4.825,4.825,0,0,0,1.308-3.394c.076-1.337.076-5.341,0-6.679ZM14.41,15.11a2.733,2.733,0,0,1-1.54,1.54c-1.066.423-3.6.325-4.774.325s-3.712.094-4.774-.325a2.733,2.733,0,0,1-1.54-1.54c-.423-1.066-.325-3.6-.325-4.774s-.094-3.712.325-4.774a2.733,2.733,0,0,1,1.54-1.54C4.388,3.6,6.918,3.7,8.1,3.7s3.712-.094,4.774.325a2.733,2.733,0,0,1,1.54,1.54c.423,1.066.325,3.6.325,4.774S14.833,14.047,14.41,15.11Z" transform="translate(0.005 -2.238)" fill="#dd2a7b"/>
</svg>
