<svg xmlns="http://www.w3.org/2000/svg" xmlns:xlink="http://www.w3.org/1999/xlink" width="594.156" height="518.349" viewBox="0 0 594.156 518.349">
  <defs>
    <linearGradient id="linear-gradient" x1="0.5" x2="0.5" y2="1" gradientUnits="objectBoundingBox">
      <stop offset="0" stop-color="#158a9b"/>
      <stop offset="1" stop-color="#46d5a0"/>
    </linearGradient>
    <filter id="Path_152" x="0" y="25.667" width="502.267" height="355.159" filterUnits="userSpaceOnUse">
      <feOffset dy="3" input="SourceAlpha"/>
      <feGaussianBlur stdDeviation="7.5" result="blur"/>
      <feFlood flood-color="#dbe3ee" flood-opacity="0.812"/>
      <feComposite operator="in" in2="blur"/>
      <feComposite in="SourceGraphic"/>
    </filter>
    <filter id="Path_152-2" x="247.493" y="284.99" width="346.662" height="233.359" filterUnits="userSpaceOnUse">
      <feOffset dy="3" input="SourceAlpha"/>
      <feGaussianBlur stdDeviation="7.5" result="blur-2"/>
      <feFlood flood-color="#dbe3ee" flood-opacity="0.812"/>
      <feComposite operator="in" in2="blur-2"/>
      <feComposite in="SourceGraphic"/>
    </filter>
  </defs>
  <g id="Group_146" data-name="Group 146" transform="translate(-117.5 -1060.5)">
    <path id="Subtraction_3" data-name="Subtraction 3" d="M109.5,219a108.988,108.988,0,0,1-61.222-18.7A109.82,109.82,0,0,1,8.605,152.122,109.356,109.356,0,0,1,18.7,48.277,109.819,109.819,0,0,1,66.877,8.605,109.356,109.356,0,0,1,170.722,18.7a109.82,109.82,0,0,1,39.673,48.176,109.355,109.355,0,0,1-10.1,103.845,109.821,109.821,0,0,1-48.177,39.673A108.815,108.815,0,0,1,109.5,219Zm0-186.794A77.294,77.294,0,1,0,186.794,109.5,77.381,77.381,0,0,0,109.5,32.206Z" transform="translate(288 1294)" fill="url(#linear-gradient)"/>
    <g id="Group_145" data-name="Group 145" transform="translate(596.006 991.333) rotate(45)">
      <path id="Path_15" data-name="Path 15" d="M3.572.614a2.092,2.092,0,1,1-2.958,0A2.089,2.089,0,0,1,3.572.614Z" transform="translate(0 97.817)" fill="#ababab"/>
      <circle id="Ellipse_7" data-name="Ellipse 7" cx="2.092" cy="2.092" r="2.092" transform="translate(19.564 78.254)" fill="#ababab"/>
      <circle id="Ellipse_8" data-name="Ellipse 8" cx="2.092" cy="2.092" r="2.092" transform="translate(39.127 58.691)" fill="#ababab"/>
      <circle id="Ellipse_9" data-name="Ellipse 9" cx="2.092" cy="2.092" r="2.092" transform="translate(58.691 39.127)" fill="#ababab"/>
      <circle id="Ellipse_10" data-name="Ellipse 10" cx="2.092" cy="2.092" r="2.092" transform="translate(78.254 19.563)" fill="#ababab"/>
      <circle id="Ellipse_11" data-name="Ellipse 11" cx="2.092" cy="2.092" r="2.092" transform="translate(97.818 0)" fill="#ababab"/>
      <circle id="Ellipse_12" data-name="Ellipse 12" cx="2.092" cy="2.092" r="2.092" transform="translate(16.933 114.751)" fill="#ababab"/>
      <circle id="Ellipse_13" data-name="Ellipse 13" cx="2.092" cy="2.092" r="2.092" transform="translate(36.497 95.187)" fill="#ababab"/>
      <circle id="Ellipse_14" data-name="Ellipse 14" cx="2.092" cy="2.092" r="2.092" transform="translate(56.06 75.624)" fill="#ababab"/>
      <circle id="Ellipse_15" data-name="Ellipse 15" cx="2.092" cy="2.092" r="2.092" transform="translate(75.624 56.06)" fill="#ababab"/>
      <circle id="Ellipse_16" data-name="Ellipse 16" cx="2.092" cy="2.092" r="2.092" transform="translate(95.188 36.497)" fill="#ababab"/>
      <path id="Path_16" data-name="Path 16" d="M3.572.614a2.092,2.092,0,1,1-2.96,0A2.092,2.092,0,0,1,3.572.614Z" transform="translate(114.751 16.933)" fill="#ababab"/>
      <circle id="Ellipse_17" data-name="Ellipse 17" cx="2.092" cy="2.092" r="2.092" transform="translate(33.867 131.684)" fill="#ababab"/>
      <circle id="Ellipse_18" data-name="Ellipse 18" cx="2.092" cy="2.092" r="2.092" transform="translate(53.43 112.12)" fill="#ababab"/>
      <circle id="Ellipse_19" data-name="Ellipse 19" cx="2.092" cy="2.092" r="2.092" transform="translate(72.994 92.557)" fill="#ababab"/>
      <path id="Path_17" data-name="Path 17" d="M3.572.613a2.092,2.092,0,1,1-2.958,0A2.091,2.091,0,0,1,3.572.613Z" transform="translate(92.557 72.993)" fill="#ababab"/>
      <circle id="Ellipse_20" data-name="Ellipse 20" cx="2.092" cy="2.092" r="2.092" transform="translate(112.121 53.43)" fill="#ababab"/>
      <circle id="Ellipse_21" data-name="Ellipse 21" cx="2.092" cy="2.092" r="2.092" transform="translate(131.684 33.866)" fill="#ababab"/>
      <circle id="Ellipse_22" data-name="Ellipse 22" cx="2.092" cy="2.092" r="2.092" transform="translate(50.8 148.617)" fill="#ababab"/>
      <circle id="Ellipse_23" data-name="Ellipse 23" cx="2.092" cy="2.092" r="2.092" transform="translate(70.363 129.053)" fill="#ababab"/>
      <circle id="Ellipse_24" data-name="Ellipse 24" cx="2.092" cy="2.092" r="2.092" transform="translate(89.927 109.49)" fill="#ababab"/>
      <path id="Path_18" data-name="Path 18" d="M3.572.613a2.092,2.092,0,1,1-2.958,0A2.091,2.091,0,0,1,3.572.613Z" transform="translate(109.49 89.926)" fill="#ababab"/>
      <circle id="Ellipse_25" data-name="Ellipse 25" cx="2.092" cy="2.092" r="2.092" transform="translate(129.054 70.363)" fill="#ababab"/>
      <circle id="Ellipse_26" data-name="Ellipse 26" cx="2.092" cy="2.092" r="2.092" transform="translate(148.617 50.799)" fill="#ababab"/>
      <circle id="Ellipse_27" data-name="Ellipse 27" cx="2.092" cy="2.092" r="2.092" transform="translate(67.733 165.55)" fill="#ababab"/>
      <circle id="Ellipse_28" data-name="Ellipse 28" cx="2.092" cy="2.092" r="2.092" transform="translate(87.296 145.986)" fill="#ababab"/>
      <circle id="Ellipse_29" data-name="Ellipse 29" cx="2.092" cy="2.092" r="2.092" transform="translate(106.86 126.423)" fill="#ababab"/>
      <circle id="Ellipse_30" data-name="Ellipse 30" cx="2.092" cy="2.092" r="2.092" transform="translate(126.423 106.86)" fill="#ababab"/>
      <circle id="Ellipse_31" data-name="Ellipse 31" cx="2.092" cy="2.092" r="2.092" transform="translate(145.987 87.296)" fill="#ababab"/>
      <circle id="Ellipse_32" data-name="Ellipse 32" cx="2.092" cy="2.092" r="2.092" transform="translate(165.55 67.732)" fill="#ababab"/>
      <circle id="Ellipse_33" data-name="Ellipse 33" cx="2.092" cy="2.092" r="2.092" transform="translate(84.666 182.483)" fill="#ababab"/>
      <circle id="Ellipse_34" data-name="Ellipse 34" cx="2.092" cy="2.092" r="2.092" transform="translate(104.229 162.92)" fill="#ababab"/>
      <circle id="Ellipse_35" data-name="Ellipse 35" cx="2.092" cy="2.092" r="2.092" transform="translate(123.793 143.356)" fill="#ababab"/>
      <circle id="Ellipse_36" data-name="Ellipse 36" cx="2.092" cy="2.092" r="2.092" transform="translate(143.357 123.793)" fill="#ababab"/>
      <circle id="Ellipse_37" data-name="Ellipse 37" cx="2.092" cy="2.092" r="2.092" transform="translate(162.92 104.229)" fill="#ababab"/>
      <circle id="Ellipse_38" data-name="Ellipse 38" cx="2.092" cy="2.092" r="2.092" transform="translate(182.484 84.666)" fill="#ababab"/>
    </g>
    <g transform="matrix(1, 0, 0, 1, 117.5, 1060.5)" filter="url(#Path_152)">
      <path id="Path_152-3" data-name="Path 152" d="M3.733,0h449.8a3.807,3.807,0,0,1,3.733,3.877v302.4a3.807,3.807,0,0,1-3.733,3.877H3.733A3.807,3.807,0,0,1,0,306.282V3.877A3.807,3.807,0,0,1,3.733,0Z" transform="translate(22.5 45.17)" fill="#fff"/>
    </g>
    <path id="Path_154" data-name="Path 154" d="M4.935,0H.99V-10.005H4.935a5.389,5.389,0,0,1,3.832,1.38,4.735,4.735,0,0,1,1.478,3.63,4.723,4.723,0,0,1-1.47,3.622A5.4,5.4,0,0,1,4.935,0Zm0-1.875a2.992,2.992,0,0,0,2.287-.9,3.115,3.115,0,0,0,.847-2.22,3.163,3.163,0,0,0-.825-2.258,3.017,3.017,0,0,0-2.31-.878H3.12v6.255Zm12.93.96a3.686,3.686,0,0,1-2.79,1.1,3.649,3.649,0,0,1-2.783-1.1A3.792,3.792,0,0,1,11.25-3.63a3.766,3.766,0,0,1,1.043-2.7,3.662,3.662,0,0,1,2.783-1.1,3.686,3.686,0,0,1,2.79,1.1,3.751,3.751,0,0,1,1.05,2.7A3.8,3.8,0,0,1,17.865-.915Zm-4.14-1.2a1.657,1.657,0,0,0,1.35.6,1.67,1.67,0,0,0,1.358-.607,2.286,2.286,0,0,0,.5-1.507,2.264,2.264,0,0,0-.5-1.493,1.67,1.67,0,0,0-1.358-.607,1.648,1.648,0,0,0-1.35.607A2.286,2.286,0,0,0,13.23-3.63,2.339,2.339,0,0,0,13.725-2.115ZM23.91,2.835l.285-1.71a1.461,1.461,0,0,0,.6.12.989.989,0,0,0,1-.525l.27-.615-2.94-7.35h2.04L27.06-2.2l1.89-5.04H31L27.6,1.185a2.513,2.513,0,0,1-1.05,1.343,3.623,3.623,0,0,1-1.695.412A3.9,3.9,0,0,1,23.91,2.835Zm14.1-3.75A3.686,3.686,0,0,1,35.22.18a3.649,3.649,0,0,1-2.783-1.1A3.792,3.792,0,0,1,31.4-3.63a3.766,3.766,0,0,1,1.042-2.7,3.662,3.662,0,0,1,2.783-1.1,3.686,3.686,0,0,1,2.79,1.1,3.751,3.751,0,0,1,1.05,2.7A3.8,3.8,0,0,1,38.01-.915Zm-4.14-1.2a1.657,1.657,0,0,0,1.35.6,1.67,1.67,0,0,0,1.357-.607,2.286,2.286,0,0,0,.5-1.507,2.264,2.264,0,0,0-.5-1.493A1.67,1.67,0,0,0,35.22-5.73a1.648,1.648,0,0,0-1.35.607,2.286,2.286,0,0,0-.5,1.493A2.339,2.339,0,0,0,33.87-2.115ZM47.265,0h-1.9V-.915A3.252,3.252,0,0,1,42.81.18a2.347,2.347,0,0,1-1.755-.6A2.305,2.305,0,0,1,40.47-2.1V-7.245h1.9v4.4A1.18,1.18,0,0,0,43.71-1.515a2.005,2.005,0,0,0,1.65-.825V-7.245h1.9ZM59.79,0H57.885V-4.38A1.187,1.187,0,0,0,56.55-5.73a1.932,1.932,0,0,0-1.65.855V0h-1.9V-7.245h1.9V-6.3a3.141,3.141,0,0,1,2.535-1.125A2.339,2.339,0,0,1,59.2-6.81a2.341,2.341,0,0,1,.593,1.7Zm5.295.18A3.847,3.847,0,0,1,62.31-.87a3.649,3.649,0,0,1-1.1-2.76,3.737,3.737,0,0,1,1.057-2.7,3.582,3.582,0,0,1,2.693-1.1,3.386,3.386,0,0,1,2.625,1.1,4.12,4.12,0,0,1,1,2.887v.42H63.21a1.839,1.839,0,0,0,.645,1.2,2.123,2.123,0,0,0,1.44.48,3.2,3.2,0,0,0,1.043-.195,2.309,2.309,0,0,0,.893-.525l.84,1.23A4.245,4.245,0,0,1,65.085.18ZM66.75-4.3a1.834,1.834,0,0,0-.488-1.11,1.65,1.65,0,0,0-1.3-.495,1.629,1.629,0,0,0-1.26.487A1.955,1.955,0,0,0,63.18-4.3ZM73.38.18A3.847,3.847,0,0,1,70.6-.87,3.649,3.649,0,0,1,69.51-3.63a3.737,3.737,0,0,1,1.057-2.7,3.582,3.582,0,0,1,2.693-1.1,3.386,3.386,0,0,1,2.625,1.1,4.12,4.12,0,0,1,1,2.887v.42H71.5a1.839,1.839,0,0,0,.645,1.2,2.123,2.123,0,0,0,1.44.48,3.2,3.2,0,0,0,1.043-.195,2.309,2.309,0,0,0,.893-.525l.84,1.23A4.245,4.245,0,0,1,73.38.18ZM75.045-4.3a1.834,1.834,0,0,0-.488-1.11,1.65,1.65,0,0,0-1.3-.495A1.629,1.629,0,0,0,72-5.423,1.955,1.955,0,0,0,71.475-4.3ZM85.17,0H83.25V-.93A2.742,2.742,0,0,1,81.015.18,2.951,2.951,0,0,1,78.7-.832a4.04,4.04,0,0,1-.9-2.783,4.081,4.081,0,0,1,.9-2.775,2.922,2.922,0,0,1,2.31-1.035,2.69,2.69,0,0,1,2.235,1.11v-3.69h1.92ZM81.6-1.515a2.092,2.092,0,0,0,.945-.232,1.776,1.776,0,0,0,.705-.593V-4.9a1.776,1.776,0,0,0-.705-.593A2.092,2.092,0,0,0,81.6-5.73a1.67,1.67,0,0,0-1.32.585,2.244,2.244,0,0,0-.51,1.53A2.222,2.222,0,0,0,80.28-2.1,1.67,1.67,0,0,0,81.6-1.515ZM94.11,0H91.77l3.585-8.13h-5.04v-1.875H97.83V-8.52Zm8.61.18a4.976,4.976,0,0,1-3.855-1.5l1.185-1.485a3.522,3.522,0,0,0,2.655,1.1,2.026,2.026,0,0,0,1.358-.428,1.335,1.335,0,0,0,.5-1.057,1.342,1.342,0,0,0-.48-1.08,1.984,1.984,0,0,0-1.32-.405,2.938,2.938,0,0,0-2.1.81L99.18-4.26v-5.745h6.87V-8.13h-4.74v2.445a2.982,2.982,0,0,1,2.205-.84,3.19,3.19,0,0,1,2.272.885,3.086,3.086,0,0,1,.938,2.355,3.157,3.157,0,0,1-1.1,2.527A4.321,4.321,0,0,1,102.72.18ZM119.1,0h-1.92V-4.575q0-1.155-1.08-1.155a1.567,1.567,0,0,0-.862.255,2.331,2.331,0,0,0-.638.585V0h-1.92V-4.575q0-1.155-1.08-1.155a1.579,1.579,0,0,0-.855.255,2.2,2.2,0,0,0-.645.6V0h-1.9V-7.245h1.9V-6.3a2.7,2.7,0,0,1,.945-.758,2.937,2.937,0,0,1,1.425-.368,1.885,1.885,0,0,1,2.01,1.32,2.878,2.878,0,0,1,1.027-.93,2.9,2.9,0,0,1,1.463-.39,2.148,2.148,0,0,1,1.575.548,2.212,2.212,0,0,1,.555,1.642Zm4.845,2.94a4.591,4.591,0,0,1-3.12-1.08L121.68.48a2.891,2.891,0,0,0,2.265.9,2.333,2.333,0,0,0,1.4-.427,1.611,1.611,0,0,0,.593-1.4v-.735a2.744,2.744,0,0,1-2.235,1.14,2.99,2.99,0,0,1-2.3-.968,3.867,3.867,0,0,1-.892-2.722A3.872,3.872,0,0,1,121.4-6.45a2.979,2.979,0,0,1,2.3-.975,2.742,2.742,0,0,1,2.235,1.11v-.93h1.92V-.5a3.755,3.755,0,0,1-.353,1.695,2.512,2.512,0,0,1-.952,1.065,4.493,4.493,0,0,1-1.238.518A5.711,5.711,0,0,1,123.945,2.94Zm.36-4.68a2.012,2.012,0,0,0,.93-.24,1.891,1.891,0,0,0,.705-.585V-4.9a1.786,1.786,0,0,0-.7-.593,2.047,2.047,0,0,0-.937-.233,1.728,1.728,0,0,0-1.327.54,2.051,2.051,0,0,0-.5,1.455,2.051,2.051,0,0,0,.5,1.455A1.728,1.728,0,0,0,124.305-1.74Zm15.435.825a3.686,3.686,0,0,1-2.79,1.1,3.649,3.649,0,0,1-2.782-1.1,3.792,3.792,0,0,1-1.043-2.707,3.766,3.766,0,0,1,1.043-2.7,3.662,3.662,0,0,1,2.782-1.1,3.686,3.686,0,0,1,2.79,1.1,3.751,3.751,0,0,1,1.05,2.7A3.8,3.8,0,0,1,139.74-.915Zm-4.14-1.2a1.657,1.657,0,0,0,1.35.6,1.67,1.67,0,0,0,1.358-.607,2.286,2.286,0,0,0,.5-1.507,2.264,2.264,0,0,0-.5-1.493,1.67,1.67,0,0,0-1.358-.607,1.648,1.648,0,0,0-1.35.607,2.286,2.286,0,0,0-.495,1.493A2.339,2.339,0,0,0,135.6-2.115ZM144.105,0h-1.9V-7.245h1.9v.99a3.189,3.189,0,0,1,1.035-.84,2.722,2.722,0,0,1,1.275-.33v1.86a2.432,2.432,0,0,0-.525-.045,2.517,2.517,0,0,0-1.02.24,1.707,1.707,0,0,0-.765.585Zm10.98.18a4.976,4.976,0,0,1-3.855-1.5l1.185-1.485a3.522,3.522,0,0,0,2.655,1.1,2.026,2.026,0,0,0,1.357-.428,1.335,1.335,0,0,0,.5-1.057,1.342,1.342,0,0,0-.48-1.08,1.984,1.984,0,0,0-1.32-.405,2.938,2.938,0,0,0-2.1.81l-1.485-.39v-5.745h6.87V-8.13h-4.74v2.445a2.982,2.982,0,0,1,2.205-.84,3.19,3.19,0,0,1,2.273.885,3.086,3.086,0,0,1,.938,2.355,3.157,3.157,0,0,1-1.1,2.527A4.321,4.321,0,0,1,155.085.18ZM166.59-.585a3.614,3.614,0,0,1-2.325.765,3.622,3.622,0,0,1-2.332-.773A4.318,4.318,0,0,1,160.545-2.5a7.151,7.151,0,0,1-.42-2.49,7.151,7.151,0,0,1,.42-2.49,4.27,4.27,0,0,1,1.388-1.9,3.645,3.645,0,0,1,2.332-.765,3.614,3.614,0,0,1,2.325.765,4.346,4.346,0,0,1,1.387,1.9,7.038,7.038,0,0,1,.427,2.49,7.038,7.038,0,0,1-.427,2.49A4.448,4.448,0,0,1,166.59-.585ZM162.765-2.61a1.589,1.589,0,0,0,1.5.9,1.573,1.573,0,0,0,1.493-.9,5.144,5.144,0,0,0,.473-2.385,5.1,5.1,0,0,0-.473-2.378,1.575,1.575,0,0,0-1.493-.893,1.591,1.591,0,0,0-1.5.893,5.029,5.029,0,0,0-.48,2.378A5.076,5.076,0,0,0,162.765-2.61ZM175.89-.585a3.614,3.614,0,0,1-2.325.765,3.622,3.622,0,0,1-2.332-.773A4.318,4.318,0,0,1,169.845-2.5a7.151,7.151,0,0,1-.42-2.49,7.151,7.151,0,0,1,.42-2.49,4.27,4.27,0,0,1,1.388-1.9,3.645,3.645,0,0,1,2.332-.765,3.614,3.614,0,0,1,2.325.765,4.346,4.346,0,0,1,1.387,1.9,7.038,7.038,0,0,1,.427,2.49,7.038,7.038,0,0,1-.427,2.49A4.448,4.448,0,0,1,175.89-.585ZM172.065-2.61a1.589,1.589,0,0,0,1.5.9,1.573,1.573,0,0,0,1.493-.9,5.144,5.144,0,0,0,.473-2.385,5.1,5.1,0,0,0-.473-2.378,1.575,1.575,0,0,0-1.493-.893,1.591,1.591,0,0,0-1.5.893,5.029,5.029,0,0,0-.48,2.378A5.076,5.076,0,0,0,172.065-2.61Zm18,2.61h-1.92V-4.575q0-1.155-1.08-1.155a1.567,1.567,0,0,0-.863.255,2.331,2.331,0,0,0-.637.585V0h-1.92V-4.575q0-1.155-1.08-1.155a1.579,1.579,0,0,0-.855.255,2.2,2.2,0,0,0-.645.6V0h-1.9V-7.245h1.9V-6.3a2.7,2.7,0,0,1,.945-.758,2.937,2.937,0,0,1,1.425-.368,1.885,1.885,0,0,1,2.01,1.32,2.878,2.878,0,0,1,1.028-.93,2.9,2.9,0,0,1,1.462-.39,2.148,2.148,0,0,1,1.575.548,2.212,2.212,0,0,1,.555,1.642Zm4.845,2.94a4.591,4.591,0,0,1-3.12-1.08l.855-1.38a2.891,2.891,0,0,0,2.265.9,2.333,2.333,0,0,0,1.4-.427,1.611,1.611,0,0,0,.592-1.4v-.735a2.744,2.744,0,0,1-2.235,1.14,2.99,2.99,0,0,1-2.3-.968,3.867,3.867,0,0,1-.893-2.722,3.872,3.872,0,0,1,.893-2.715,2.979,2.979,0,0,1,2.3-.975,2.742,2.742,0,0,1,2.235,1.11v-.93h1.92V-.5a3.755,3.755,0,0,1-.353,1.695,2.512,2.512,0,0,1-.952,1.065,4.493,4.493,0,0,1-1.237.518A5.711,5.711,0,0,1,194.91,2.94Zm.36-4.68a2.012,2.012,0,0,0,.93-.24,1.891,1.891,0,0,0,.705-.585V-4.9a1.786,1.786,0,0,0-.7-.593,2.047,2.047,0,0,0-.937-.233,1.728,1.728,0,0,0-1.327.54,2.051,2.051,0,0,0-.5,1.455,2.051,2.051,0,0,0,.5,1.455A1.728,1.728,0,0,0,195.27-1.74Zm6.765-1.32a1.882,1.882,0,0,1-.495-1.32,1.806,1.806,0,0,1,.345-1.08,2.536,2.536,0,0,1,.75-.72,4.123,4.123,0,0,0,.75-.57.936.936,0,0,0,.345-.66.76.76,0,0,0-.293-.615,1.361,1.361,0,0,0-.877-.24,2.343,2.343,0,0,0-1.845.93L199.5-8.7a4.111,4.111,0,0,1,3.285-1.455,3.624,3.624,0,0,1,2.28.653,2.07,2.07,0,0,1,.84,1.717,2.266,2.266,0,0,1-.255,1.08,2.509,2.509,0,0,1-.622.78q-.368.3-.743.555a3.127,3.127,0,0,0-.63.555.979.979,0,0,0-.255.645.8.8,0,0,0,.27.63ZM203.61-.2a1.168,1.168,0,0,1-.855.36A1.168,1.168,0,0,1,201.9-.2a1.168,1.168,0,0,1-.36-.855,1.168,1.168,0,0,1,.36-.855,1.168,1.168,0,0,1,.855-.36,1.168,1.168,0,0,1,.855.36,1.168,1.168,0,0,1,.36.855A1.168,1.168,0,0,1,203.61-.2ZM5.91,23H3.78V18.9l-3.855-5.91h2.43l2.49,4.02,2.46-4.02h2.43L5.91,18.9Zm9-.915a3.686,3.686,0,0,1-2.79,1.1,3.649,3.649,0,0,1-2.783-1.1,4.027,4.027,0,0,1,0-5.407,3.662,3.662,0,0,1,2.783-1.1,3.686,3.686,0,0,1,2.79,1.1,3.751,3.751,0,0,1,1.05,2.7A3.8,3.8,0,0,1,14.91,22.085Zm-4.14-1.2a1.657,1.657,0,0,0,1.35.6,1.67,1.67,0,0,0,1.358-.608,2.49,2.49,0,0,0,0-3,1.67,1.67,0,0,0-1.358-.607,1.648,1.648,0,0,0-1.35.607,2.286,2.286,0,0,0-.5,1.493A2.339,2.339,0,0,0,10.77,20.885ZM24.165,23H22.26v-.915a3.252,3.252,0,0,1-2.55,1.1,2.347,2.347,0,0,1-1.755-.6,2.305,2.305,0,0,1-.585-1.68V15.755h1.905v4.4a1.18,1.18,0,0,0,1.335,1.335,2.005,2.005,0,0,0,1.65-.825V15.755h1.905Zm3.8,0H26.055V15.755H27.96v.99A3.189,3.189,0,0,1,29,15.905a2.722,2.722,0,0,1,1.275-.33v1.86a2.432,2.432,0,0,0-.525-.045,2.517,2.517,0,0,0-1.02.24,1.707,1.707,0,0,0-.765.585Zm11.325,0H35.34V12.995h3.945a5.389,5.389,0,0,1,3.833,1.38,4.735,4.735,0,0,1,1.478,3.63,4.723,4.723,0,0,1-1.47,3.622A5.4,5.4,0,0,1,39.285,23Zm0-1.875a2.992,2.992,0,0,0,2.287-.9,3.115,3.115,0,0,0,.847-2.22,3.163,3.163,0,0,0-.825-2.258,3.017,3.017,0,0,0-2.31-.877H37.47v6.255ZM55.065,23H53.01l-4.77-6.525V23H46.11V12.995H48.3l4.635,6.285V12.995h2.13Zm11.31,0h-2.43l-.615-1.695H59.04L58.41,23H55.98l3.87-10.005h2.67Zm-3.63-3.57-1.56-4.305-1.56,4.305ZM77.91,23H76V18.59a1.294,1.294,0,0,0-.345-1.02,1.489,1.489,0,0,0-1-.3,1.982,1.982,0,0,0-1.65.855V23H71.1V12.995H73V16.7a3.212,3.212,0,0,1,1.058-.8,3.322,3.322,0,0,1,1.493-.33,2.374,2.374,0,0,1,1.762.6,2.288,2.288,0,0,1,.592,1.68Zm8.145,0h-1.9v-.75a2.826,2.826,0,0,1-2.295.93,2.672,2.672,0,0,1-1.747-.638,2.161,2.161,0,0,1-.772-1.762,2.079,2.079,0,0,1,.757-1.755,2.8,2.8,0,0,1,1.762-.585,2.842,2.842,0,0,1,2.295.885V18.35a1.054,1.054,0,0,0-.435-.885,1.863,1.863,0,0,0-1.155-.33,3.04,3.04,0,0,0-2.115.855l-.72-1.275a4.609,4.609,0,0,1,3.165-1.14,3.776,3.776,0,0,1,2.28.645,2.423,2.423,0,0,1,.885,2.1ZM82.62,21.89a1.776,1.776,0,0,0,1.53-.63v-.9a1.776,1.776,0,0,0-1.53-.63,1.579,1.579,0,0,0-.975.292.948.948,0,0,0-.39.8.914.914,0,0,0,.39.78A1.609,1.609,0,0,0,82.62,21.89Zm7.935,1.29a5.462,5.462,0,0,1-1.808-.3,4.043,4.043,0,0,1-1.432-.825l.825-1.335a3.827,3.827,0,0,0,1.14.69,3.553,3.553,0,0,0,1.365.3,1.612,1.612,0,0,0,.908-.21.656.656,0,0,0,.308-.57.507.507,0,0,0-.323-.443,2.523,2.523,0,0,0-.795-.247,10.336,10.336,0,0,1-1.035-.225,6.967,6.967,0,0,1-1.035-.36,1.89,1.89,0,0,1-1.118-1.8,2.03,2.03,0,0,1,.795-1.62,3.3,3.3,0,0,1,2.175-.66,4.56,4.56,0,0,1,2.925.99l-.765,1.3a2.683,2.683,0,0,0-.923-.6,3.154,3.154,0,0,0-1.222-.24,1.5,1.5,0,0,0-.825.2.6.6,0,0,0-.315.517q0,.24.315.4a2.731,2.731,0,0,0,.8.233,8.775,8.775,0,0,1,1.035.232,7.4,7.4,0,0,1,1.035.375,1.864,1.864,0,0,1,.795.7,2.086,2.086,0,0,1,.315,1.17,2.033,2.033,0,0,1-.833,1.673A3.645,3.645,0,0,1,90.555,23.18Zm10.815,0a2.11,2.11,0,0,1-1.53-.51,1.956,1.956,0,0,1-.525-1.47V17.42h-1.2V15.755h1.2v-1.98h1.92v1.98h1.47V17.42h-1.47v3.27a.884.884,0,0,0,.18.57.584.584,0,0,0,.48.225.9.9,0,0,0,.66-.21l.405,1.44A2.34,2.34,0,0,1,101.37,23.18Zm9.45-.18h-1.9V18.59a1.294,1.294,0,0,0-.345-1.02,1.489,1.489,0,0,0-1-.3,1.982,1.982,0,0,0-1.65.855V23h-1.9V12.995h1.9V16.7a3.212,3.212,0,0,1,1.058-.8,3.322,3.322,0,0,1,1.493-.33,2.374,2.374,0,0,1,1.762.6,2.288,2.288,0,0,1,.592,1.68Zm5.295.18a3.847,3.847,0,0,1-2.775-1.05,3.649,3.649,0,0,1-1.095-2.76,3.737,3.737,0,0,1,1.057-2.7,3.582,3.582,0,0,1,2.693-1.1,3.386,3.386,0,0,1,2.625,1.1,4.12,4.12,0,0,1,1,2.888v.42H114.24a1.839,1.839,0,0,0,.645,1.2,2.123,2.123,0,0,0,1.44.48,3.2,3.2,0,0,0,1.043-.2,2.309,2.309,0,0,0,.893-.525l.84,1.23A4.245,4.245,0,0,1,116.115,23.18Zm1.665-4.485a1.834,1.834,0,0,0-.488-1.11,1.65,1.65,0,0,0-1.3-.495,1.629,1.629,0,0,0-1.26.487,1.955,1.955,0,0,0-.525,1.118ZM131.1,23h-1.9v-.75a2.826,2.826,0,0,1-2.3.93,2.672,2.672,0,0,1-1.747-.638,2.161,2.161,0,0,1-.772-1.762,2.079,2.079,0,0,1,.757-1.755,2.8,2.8,0,0,1,1.762-.585,2.842,2.842,0,0,1,2.3.885V18.35a1.054,1.054,0,0,0-.435-.885,1.863,1.863,0,0,0-1.155-.33,3.04,3.04,0,0,0-2.115.855l-.72-1.275a4.609,4.609,0,0,1,3.165-1.14,3.776,3.776,0,0,1,2.28.645,2.423,2.423,0,0,1,.885,2.1Zm-3.435-1.11a1.776,1.776,0,0,0,1.53-.63v-.9a1.776,1.776,0,0,0-1.53-.63,1.579,1.579,0,0,0-.975.292.948.948,0,0,0-.39.8.914.914,0,0,0,.39.78A1.609,1.609,0,0,0,127.665,21.89ZM139.785,23h-1.9V18.62a1.187,1.187,0,0,0-1.335-1.35,1.932,1.932,0,0,0-1.65.855V23h-1.9V15.755h1.9V16.7a3.141,3.141,0,0,1,2.535-1.125,2.108,2.108,0,0,1,2.355,2.31Zm4.5.18a5.462,5.462,0,0,1-1.807-.3,4.043,4.043,0,0,1-1.432-.825l.825-1.335a3.827,3.827,0,0,0,1.14.69,3.553,3.553,0,0,0,1.365.3,1.612,1.612,0,0,0,.908-.21.656.656,0,0,0,.307-.57.507.507,0,0,0-.322-.443,2.523,2.523,0,0,0-.8-.247,10.337,10.337,0,0,1-1.035-.225,6.967,6.967,0,0,1-1.035-.36,1.89,1.89,0,0,1-1.118-1.8,2.03,2.03,0,0,1,.8-1.62,3.3,3.3,0,0,1,2.175-.66,4.56,4.56,0,0,1,2.925.99l-.765,1.3a2.683,2.683,0,0,0-.923-.6,3.154,3.154,0,0,0-1.223-.24,1.5,1.5,0,0,0-.825.2.6.6,0,0,0-.315.517q0,.24.315.4a2.731,2.731,0,0,0,.795.233,8.775,8.775,0,0,1,1.035.232,7.4,7.4,0,0,1,1.035.375,1.864,1.864,0,0,1,.795.7,2.086,2.086,0,0,1,.315,1.17,2.033,2.033,0,0,1-.833,1.673A3.645,3.645,0,0,1,144.285,23.18Zm12.93-.18H155.19l-1.53-4.935L152.13,23h-2.04l-2.205-7.245h1.98l1.35,4.875,1.59-4.875h1.7l1.59,4.875,1.35-4.875h1.98Zm6.555.18a3.847,3.847,0,0,1-2.775-1.05,3.649,3.649,0,0,1-1.1-2.76,3.737,3.737,0,0,1,1.058-2.7,3.582,3.582,0,0,1,2.692-1.1,3.386,3.386,0,0,1,2.625,1.1,4.12,4.12,0,0,1,1.005,2.888v.42H161.9a1.839,1.839,0,0,0,.645,1.2,2.123,2.123,0,0,0,1.44.48,3.2,3.2,0,0,0,1.042-.2,2.309,2.309,0,0,0,.893-.525l.84,1.23A4.245,4.245,0,0,1,163.77,23.18Zm1.665-4.485a1.834,1.834,0,0,0-.488-1.11,1.65,1.65,0,0,0-1.3-.495,1.629,1.629,0,0,0-1.26.487,1.955,1.955,0,0,0-.525,1.118ZM170.565,23h-1.9V15.755h1.9v.99a3.189,3.189,0,0,1,1.035-.84,2.722,2.722,0,0,1,1.275-.33v1.86a2.432,2.432,0,0,0-.525-.045,2.517,2.517,0,0,0-1.02.24,1.707,1.707,0,0,0-.765.585Z" transform="translate(169 1145)"/>
    <rect id="Rectangle_42" data-name="Rectangle 42" width="374" height="2" transform="translate(197 1205)" fill="#f5f2f2"/>
    <rect id="Rectangle_43" data-name="Rectangle 43" width="374" height="2" transform="translate(197 1240)" fill="#f5f2f2"/>
    <rect id="Rectangle_44" data-name="Rectangle 44" width="374" height="2" transform="translate(197 1276)" fill="#f5f2f2"/>
    <rect id="Rectangle_45" data-name="Rectangle 45" width="374" height="2" transform="translate(197 1311)" fill="#f5f2f2"/>
    <rect id="Rectangle_46" data-name="Rectangle 46" width="374" height="2" transform="translate(197 1346)" fill="#f5f2f2"/>
    <rect id="Rectangle_47" data-name="Rectangle 47" width="374" height="2" transform="translate(197 1382)" fill="#f5f2f2"/>
    <path id="Path_160" data-name="Path 160" d="M-3.672.144a2.651,2.651,0,0,1-1.4-.366A2.711,2.711,0,0,1-6.03-1.2a5.009,5.009,0,0,1-.528-1.32A6.163,6.163,0,0,1-6.732-4a6.163,6.163,0,0,1,.174-1.476A4.915,4.915,0,0,1-6.03-6.786a2.726,2.726,0,0,1,.96-.972,2.651,2.651,0,0,1,1.4-.366,2.659,2.659,0,0,1,1.392.366,2.71,2.71,0,0,1,.966.972A4.915,4.915,0,0,1-.786-5.472,6.163,6.163,0,0,1-.612-4,6.163,6.163,0,0,1-.786-2.52,5.009,5.009,0,0,1-1.314-1.2a2.7,2.7,0,0,1-.966.978A2.659,2.659,0,0,1-3.672.144Zm-1.2-1.38a1.608,1.608,0,0,0,1.2.492,1.6,1.6,0,0,0,1.2-.5,2.642,2.642,0,0,0,.66-1.194A6.236,6.236,0,0,0-1.632-4a6.236,6.236,0,0,0-.18-1.56,2.6,2.6,0,0,0-.66-1.188,1.608,1.608,0,0,0-1.2-.492,1.608,1.608,0,0,0-1.2.492,2.6,2.6,0,0,0-.66,1.188A6.236,6.236,0,0,0-5.712-4a6.236,6.236,0,0,0,.18,1.56A2.683,2.683,0,0,0-4.872-1.236Z" transform="translate(188 1387)"/>
    <path id="Path_159" data-name="Path 159" d="M-16.926,0h-1.079V-7.241L-19.4-5.772l-.65-.663,2.171-2.236h.949Zm4.992.156a2.872,2.872,0,0,1-1.514-.4,2.936,2.936,0,0,1-1.04-1.06,5.426,5.426,0,0,1-.572-1.43,6.677,6.677,0,0,1-.188-1.6,6.677,6.677,0,0,1,.188-1.6,5.325,5.325,0,0,1,.572-1.424A2.953,2.953,0,0,1-13.449-8.4a2.872,2.872,0,0,1,1.514-.4,2.881,2.881,0,0,1,1.508.4A2.936,2.936,0,0,1-9.38-7.352a5.325,5.325,0,0,1,.572,1.424,6.677,6.677,0,0,1,.188,1.6,6.677,6.677,0,0,1-.188,1.6A5.426,5.426,0,0,1-9.38-1.3a2.92,2.92,0,0,1-1.046,1.06A2.881,2.881,0,0,1-11.934.156Zm-1.3-1.495a1.742,1.742,0,0,0,1.3.533,1.731,1.731,0,0,0,1.3-.539,2.862,2.862,0,0,0,.715-1.293,6.756,6.756,0,0,0,.195-1.69,6.756,6.756,0,0,0-.195-1.69,2.817,2.817,0,0,0-.715-1.287,1.742,1.742,0,0,0-1.3-.533,1.742,1.742,0,0,0-1.3.533,2.817,2.817,0,0,0-.715,1.287,6.756,6.756,0,0,0-.2,1.69,6.756,6.756,0,0,0,.2,1.69A2.907,2.907,0,0,0-13.234-1.339ZM-3.978.156a2.872,2.872,0,0,1-1.514-.4A2.936,2.936,0,0,1-6.533-1.3,5.426,5.426,0,0,1-7.1-2.73a6.677,6.677,0,0,1-.188-1.6,6.677,6.677,0,0,1,.188-1.6,5.325,5.325,0,0,1,.572-1.424A2.953,2.953,0,0,1-5.493-8.4a2.872,2.872,0,0,1,1.514-.4,2.881,2.881,0,0,1,1.508.4A2.936,2.936,0,0,1-1.424-7.352,5.325,5.325,0,0,1-.852-5.928a6.677,6.677,0,0,1,.188,1.6,6.677,6.677,0,0,1-.188,1.6A5.426,5.426,0,0,1-1.424-1.3,2.92,2.92,0,0,1-2.47-.241,2.881,2.881,0,0,1-3.978.156Zm-1.3-1.495a1.742,1.742,0,0,0,1.3.533,1.731,1.731,0,0,0,1.3-.539,2.862,2.862,0,0,0,.715-1.293,6.756,6.756,0,0,0,.2-1.69,6.756,6.756,0,0,0-.2-1.69,2.817,2.817,0,0,0-.715-1.287,1.742,1.742,0,0,0-1.3-.533,1.742,1.742,0,0,0-1.3.533,2.817,2.817,0,0,0-.715,1.287,6.756,6.756,0,0,0-.195,1.69,6.756,6.756,0,0,0,.195,1.69A2.907,2.907,0,0,0-5.278-1.339Z" transform="translate(189 1351)"/>
    <path id="Path_158" data-name="Path 158" d="M-14.3,0h-5.038V-.726q1.144-.9,1.777-1.435t1.221-1.133a4.712,4.712,0,0,0,.831-1.067,2.008,2.008,0,0,0,.242-.93,1.177,1.177,0,0,0-.451-1A1.736,1.736,0,0,0-16.8-6.633a2.394,2.394,0,0,0-1.991.924l-.561-.583a2.761,2.761,0,0,1,1.094-.852,3.529,3.529,0,0,1,1.458-.3,2.764,2.764,0,0,1,1.733.561,1.892,1.892,0,0,1,.731,1.595,3.132,3.132,0,0,1-.88,2.04A19.982,19.982,0,0,1-17.9-.814h3.6Zm4.2.132A2.43,2.43,0,0,1-11.379-.2a2.485,2.485,0,0,1-.88-.9,4.591,4.591,0,0,1-.484-1.21,5.649,5.649,0,0,1-.16-1.353,5.649,5.649,0,0,1,.16-1.353,4.506,4.506,0,0,1,.484-1.2,2.5,2.5,0,0,1,.88-.891A2.43,2.43,0,0,1-10.1-7.447a2.438,2.438,0,0,1,1.276.336,2.484,2.484,0,0,1,.885.891,4.506,4.506,0,0,1,.484,1.2,5.649,5.649,0,0,1,.159,1.353A5.649,5.649,0,0,1-7.452-2.31,4.591,4.591,0,0,1-7.936-1.1a2.471,2.471,0,0,1-.885.9A2.438,2.438,0,0,1-10.1.132Zm-1.1-1.265a1.474,1.474,0,0,0,1.1.451A1.465,1.465,0,0,0-9-1.138a2.421,2.421,0,0,0,.605-1.095,5.717,5.717,0,0,0,.165-1.43,5.717,5.717,0,0,0-.165-1.43A2.384,2.384,0,0,0-9-6.182a1.474,1.474,0,0,0-1.1-.451,1.474,1.474,0,0,0-1.1.451,2.384,2.384,0,0,0-.6,1.089,5.717,5.717,0,0,0-.165,1.43,5.717,5.717,0,0,0,.165,1.43A2.459,2.459,0,0,0-11.2-1.133ZM-3.366.132A2.43,2.43,0,0,1-4.647-.2a2.485,2.485,0,0,1-.88-.9,4.591,4.591,0,0,1-.484-1.21,5.649,5.649,0,0,1-.16-1.353,5.649,5.649,0,0,1,.16-1.353,4.506,4.506,0,0,1,.484-1.2,2.5,2.5,0,0,1,.88-.891,2.43,2.43,0,0,1,1.281-.336,2.438,2.438,0,0,1,1.276.336A2.484,2.484,0,0,1-1.2-6.22a4.506,4.506,0,0,1,.484,1.2A5.649,5.649,0,0,1-.561-3.663,5.649,5.649,0,0,1-.72-2.31,4.591,4.591,0,0,1-1.2-1.1a2.471,2.471,0,0,1-.886.9A2.438,2.438,0,0,1-3.366.132Zm-1.1-1.265a1.474,1.474,0,0,0,1.1.451,1.465,1.465,0,0,0,1.1-.456,2.421,2.421,0,0,0,.605-1.095A5.717,5.717,0,0,0-1.5-3.663a5.717,5.717,0,0,0-.165-1.43,2.384,2.384,0,0,0-.605-1.089,1.474,1.474,0,0,0-1.1-.451,1.474,1.474,0,0,0-1.1.451,2.384,2.384,0,0,0-.605,1.089,5.717,5.717,0,0,0-.165,1.43,5.717,5.717,0,0,0,.165,1.43A2.459,2.459,0,0,0-4.466-1.133Z" transform="translate(186 1315)"/>
    <path id="Path_157" data-name="Path 157" d="M-18.18.144a3.76,3.76,0,0,1-1.7-.372,2.939,2.939,0,0,1-1.14-.948l.588-.624a2.578,2.578,0,0,0,.948.768A2.879,2.879,0,0,0-18.2-.744a2.129,2.129,0,0,0,1.374-.4,1.335,1.335,0,0,0,.5-1.1,1.186,1.186,0,0,0-.534-1.068,2.647,2.647,0,0,0-1.458-.348q-.708,0-.828.012V-4.56q.132.012.828.012a2.466,2.466,0,0,0,1.338-.33,1.094,1.094,0,0,0,.522-.99,1.168,1.168,0,0,0-.51-1,2.136,2.136,0,0,0-1.278-.366,2.792,2.792,0,0,0-2.112.972l-.552-.624A3.365,3.365,0,0,1-18.18-8.124a3.168,3.168,0,0,1,1.95.57,1.849,1.849,0,0,1,.762,1.566A1.618,1.618,0,0,1-16-4.722a2.4,2.4,0,0,1-1.2.594,2.205,2.205,0,0,1,1.254.576,1.75,1.75,0,0,1,.594,1.392A2.066,2.066,0,0,1-16.116-.5,3.116,3.116,0,0,1-18.18.144Zm7.164,0a2.651,2.651,0,0,1-1.4-.366,2.711,2.711,0,0,1-.96-.978A5.009,5.009,0,0,1-13.9-2.52,6.163,6.163,0,0,1-14.076-4,6.163,6.163,0,0,1-13.9-5.472a4.915,4.915,0,0,1,.528-1.314,2.726,2.726,0,0,1,.96-.972,2.651,2.651,0,0,1,1.4-.366,2.659,2.659,0,0,1,1.392.366,2.71,2.71,0,0,1,.966.972A4.915,4.915,0,0,1-8.13-5.472,6.163,6.163,0,0,1-7.956-4,6.163,6.163,0,0,1-8.13-2.52,5.009,5.009,0,0,1-8.658-1.2a2.7,2.7,0,0,1-.966.978A2.659,2.659,0,0,1-11.016.144Zm-1.2-1.38a1.608,1.608,0,0,0,1.2.492,1.6,1.6,0,0,0,1.2-.5,2.642,2.642,0,0,0,.66-1.194A6.236,6.236,0,0,0-8.976-4a6.236,6.236,0,0,0-.18-1.56,2.6,2.6,0,0,0-.66-1.188,1.608,1.608,0,0,0-1.2-.492,1.608,1.608,0,0,0-1.2.492,2.6,2.6,0,0,0-.66,1.188A6.236,6.236,0,0,0-13.056-4a6.236,6.236,0,0,0,.18,1.56A2.683,2.683,0,0,0-12.216-1.236ZM-3.672.144a2.651,2.651,0,0,1-1.4-.366A2.711,2.711,0,0,1-6.03-1.2a5.009,5.009,0,0,1-.528-1.32A6.163,6.163,0,0,1-6.732-4a6.163,6.163,0,0,1,.174-1.476A4.915,4.915,0,0,1-6.03-6.786a2.726,2.726,0,0,1,.96-.972,2.651,2.651,0,0,1,1.4-.366,2.659,2.659,0,0,1,1.392.366,2.71,2.71,0,0,1,.966.972A4.915,4.915,0,0,1-.786-5.472,6.163,6.163,0,0,1-.612-4,6.163,6.163,0,0,1-.786-2.52,5.009,5.009,0,0,1-1.314-1.2a2.7,2.7,0,0,1-.966.978A2.659,2.659,0,0,1-3.672.144Zm-1.2-1.38a1.608,1.608,0,0,0,1.2.492,1.6,1.6,0,0,0,1.2-.5,2.642,2.642,0,0,0,.66-1.194A6.236,6.236,0,0,0-1.632-4a6.236,6.236,0,0,0-.18-1.56,2.6,2.6,0,0,0-.66-1.188,1.608,1.608,0,0,0-1.2-.492,1.608,1.608,0,0,0-1.2.492,2.6,2.6,0,0,0-.66,1.188A6.236,6.236,0,0,0-5.712-4a6.236,6.236,0,0,0,.18,1.56A2.683,2.683,0,0,0-4.872-1.236Z" transform="translate(187 1280)"/>
    <path id="Path_156" data-name="Path 156" d="M-16.2,0h-1V-2.028H-21v-.828L-17.568-8H-16.2v5.1h1.128v.876H-16.2Zm-1-2.9V-7.08L-20-2.9Zm6.18,3.048a2.651,2.651,0,0,1-1.4-.366,2.711,2.711,0,0,1-.96-.978A5.009,5.009,0,0,1-13.9-2.52,6.163,6.163,0,0,1-14.076-4,6.163,6.163,0,0,1-13.9-5.472a4.915,4.915,0,0,1,.528-1.314,2.726,2.726,0,0,1,.96-.972,2.651,2.651,0,0,1,1.4-.366,2.659,2.659,0,0,1,1.392.366,2.71,2.71,0,0,1,.966.972A4.915,4.915,0,0,1-8.13-5.472,6.163,6.163,0,0,1-7.956-4,6.163,6.163,0,0,1-8.13-2.52,5.009,5.009,0,0,1-8.658-1.2a2.7,2.7,0,0,1-.966.978A2.659,2.659,0,0,1-11.016.144Zm-1.2-1.38a1.608,1.608,0,0,0,1.2.492,1.6,1.6,0,0,0,1.2-.5,2.642,2.642,0,0,0,.66-1.194A6.236,6.236,0,0,0-8.976-4a6.236,6.236,0,0,0-.18-1.56,2.6,2.6,0,0,0-.66-1.188,1.608,1.608,0,0,0-1.2-.492,1.608,1.608,0,0,0-1.2.492,2.6,2.6,0,0,0-.66,1.188A6.236,6.236,0,0,0-13.056-4a6.236,6.236,0,0,0,.18,1.56A2.683,2.683,0,0,0-12.216-1.236ZM-3.672.144a2.651,2.651,0,0,1-1.4-.366A2.711,2.711,0,0,1-6.03-1.2a5.009,5.009,0,0,1-.528-1.32A6.163,6.163,0,0,1-6.732-4a6.163,6.163,0,0,1,.174-1.476A4.915,4.915,0,0,1-6.03-6.786a2.726,2.726,0,0,1,.96-.972,2.651,2.651,0,0,1,1.4-.366,2.659,2.659,0,0,1,1.392.366,2.71,2.71,0,0,1,.966.972A4.915,4.915,0,0,1-.786-5.472,6.163,6.163,0,0,1-.612-4,6.163,6.163,0,0,1-.786-2.52,5.009,5.009,0,0,1-1.314-1.2a2.7,2.7,0,0,1-.966.978A2.659,2.659,0,0,1-3.672.144Zm-1.2-1.38a1.608,1.608,0,0,0,1.2.492,1.6,1.6,0,0,0,1.2-.5,2.642,2.642,0,0,0,.66-1.194A6.236,6.236,0,0,0-1.632-4a6.236,6.236,0,0,0-.18-1.56,2.6,2.6,0,0,0-.66-1.188,1.608,1.608,0,0,0-1.2-.492,1.608,1.608,0,0,0-1.2.492,2.6,2.6,0,0,0-.66,1.188A6.236,6.236,0,0,0-5.712-4a6.236,6.236,0,0,0,.18,1.56A2.683,2.683,0,0,0-4.872-1.236Z" transform="translate(187 1245)"/>
    <path id="Path_155" data-name="Path 155" d="M-16.643.132a3.044,3.044,0,0,1-2.585-1.177l.561-.605a2.442,2.442,0,0,0,2.024.968,1.7,1.7,0,0,0,1.221-.451,1.487,1.487,0,0,0,.473-1.122,1.5,1.5,0,0,0-.467-1.15,1.714,1.714,0,0,0-1.215-.434,2.328,2.328,0,0,0-1.694.693L-19-3.377v-3.96h4.488v.814h-3.575v2.552a2.321,2.321,0,0,1,1.716-.66A2.339,2.339,0,0,1-14.718-4a2.219,2.219,0,0,1,.682,1.71,2.247,2.247,0,0,1-.737,1.76A2.7,2.7,0,0,1-16.643.132Zm6.545,0A2.43,2.43,0,0,1-11.38-.2a2.485,2.485,0,0,1-.88-.9,4.591,4.591,0,0,1-.484-1.21,5.649,5.649,0,0,1-.16-1.353,5.649,5.649,0,0,1,.16-1.353,4.506,4.506,0,0,1,.484-1.2,2.5,2.5,0,0,1,.88-.891A2.43,2.43,0,0,1-10.1-7.447a2.438,2.438,0,0,1,1.276.336,2.484,2.484,0,0,1,.885.891,4.506,4.506,0,0,1,.484,1.2,5.649,5.649,0,0,1,.159,1.353A5.649,5.649,0,0,1-7.453-2.31,4.591,4.591,0,0,1-7.937-1.1a2.471,2.471,0,0,1-.885.9A2.438,2.438,0,0,1-10.1.132Zm-1.1-1.265a1.474,1.474,0,0,0,1.1.451A1.465,1.465,0,0,0-9-1.138a2.421,2.421,0,0,0,.605-1.095,5.717,5.717,0,0,0,.165-1.43,5.717,5.717,0,0,0-.165-1.43A2.384,2.384,0,0,0-9-6.182a1.474,1.474,0,0,0-1.1-.451,1.474,1.474,0,0,0-1.1.451,2.384,2.384,0,0,0-.6,1.089,5.717,5.717,0,0,0-.165,1.43,5.717,5.717,0,0,0,.165,1.43A2.459,2.459,0,0,0-11.2-1.133ZM-3.366.132A2.43,2.43,0,0,1-4.648-.2a2.485,2.485,0,0,1-.88-.9,4.591,4.591,0,0,1-.484-1.21,5.649,5.649,0,0,1-.16-1.353,5.649,5.649,0,0,1,.16-1.353,4.506,4.506,0,0,1,.484-1.2,2.5,2.5,0,0,1,.88-.891,2.43,2.43,0,0,1,1.281-.336,2.438,2.438,0,0,1,1.276.336A2.484,2.484,0,0,1-1.2-6.22a4.506,4.506,0,0,1,.484,1.2A5.649,5.649,0,0,1-.561-3.663,5.649,5.649,0,0,1-.72-2.31,4.591,4.591,0,0,1-1.2-1.1a2.471,2.471,0,0,1-.886.9A2.438,2.438,0,0,1-3.366.132Zm-1.1-1.265a1.474,1.474,0,0,0,1.1.451,1.465,1.465,0,0,0,1.1-.456,2.421,2.421,0,0,0,.605-1.095A5.717,5.717,0,0,0-1.5-3.663a5.717,5.717,0,0,0-.165-1.43,2.384,2.384,0,0,0-.605-1.089,1.474,1.474,0,0,0-1.1-.451,1.474,1.474,0,0,0-1.1.451,2.384,2.384,0,0,0-.605,1.089,5.717,5.717,0,0,0-.165,1.43,5.717,5.717,0,0,0,.165,1.43A2.459,2.459,0,0,0-4.466-1.133Z" transform="translate(186 1208)"/>
    <path id="Rectangle_48" data-name="Rectangle 48" d="M4,0H454a4,4,0,0,1,4,4V9a0,0,0,0,1,0,0H0A0,0,0,0,1,0,9V4A4,4,0,0,1,4,0Z" transform="translate(140 1106)" fill="#41c752"/>
    <path id="Rectangle_49" data-name="Rectangle 49" d="M4,0H97a4,4,0,0,1,4,4V26a0,0,0,0,1,0,0H0a0,0,0,0,1,0,0V4A4,4,0,0,1,4,0Z" transform="translate(250 1356)" fill="url(#linear-gradient)"/>
    <path id="Rectangle_50" data-name="Rectangle 50" d="M4,0H97a4,4,0,0,1,4,4V170a0,0,0,0,1,0,0H0a0,0,0,0,1,0,0V4A4,4,0,0,1,4,0Z" transform="translate(393 1212)" fill="url(#linear-gradient)"/>
    <g transform="matrix(1, 0, 0, 1, 117.5, 1060.5)" filter="url(#Path_152-2)">
      <path id="Path_152-4" data-name="Path 152" d="M2.463,0H299.2a2.41,2.41,0,0,1,2.463,2.354V186a2.41,2.41,0,0,1-2.463,2.354H2.463A2.41,2.41,0,0,1,0,186V2.354A2.41,2.41,0,0,1,2.463,0Z" transform="translate(269.99 304.49)" fill="#fff"/>
    </g>
    <path id="Path_153" data-name="Path 153" d="M3.948,0H.792V-8H3.948A4.311,4.311,0,0,1,7.014-6.9,3.788,3.788,0,0,1,8.2-4,3.778,3.778,0,0,1,7.02-1.1,4.32,4.32,0,0,1,3.948,0Zm0-1.5a2.393,2.393,0,0,0,1.83-.72A2.492,2.492,0,0,0,6.456-4,2.53,2.53,0,0,0,5.8-5.8a2.413,2.413,0,0,0-1.848-.7H2.5v5Zm10.344.768A2.949,2.949,0,0,1,12.06.144,2.919,2.919,0,0,1,9.834-.738,3.034,3.034,0,0,1,9-2.9a3.013,3.013,0,0,1,.834-2.16A2.93,2.93,0,0,1,12.06-5.94a2.949,2.949,0,0,1,2.232.876,3,3,0,0,1,.84,2.16A3.043,3.043,0,0,1,14.292-.732Zm-3.312-.96a1.326,1.326,0,0,0,1.08.48A1.336,1.336,0,0,0,13.146-1.7a1.829,1.829,0,0,0,.4-1.206,1.811,1.811,0,0,0-.4-1.194,1.336,1.336,0,0,0-1.086-.486,1.319,1.319,0,0,0-1.08.486,1.829,1.829,0,0,0-.4,1.194A1.871,1.871,0,0,0,10.98-1.692ZM21.7,0H20.172V-3.5A.949.949,0,0,0,19.1-4.584a1.546,1.546,0,0,0-1.32.684V0H16.26V-5.8h1.524v.756a2.513,2.513,0,0,1,2.028-.9,1.871,1.871,0,0,1,1.41.492A1.873,1.873,0,0,1,21.7-4.092Zm2.292-4.5h-.672q-.492-2.568-.492-2.8a.806.806,0,0,1,.24-.582.79.79,0,0,1,.588-.246.8.8,0,0,1,.582.246.8.8,0,0,1,.246.582ZM27.7.144a1.688,1.688,0,0,1-1.224-.408,1.565,1.565,0,0,1-.42-1.176V-4.464h-.96V-5.8h.96V-7.38h1.536V-5.8h1.176v1.332H27.588v2.616a.707.707,0,0,0,.144.456.467.467,0,0,0,.384.18.721.721,0,0,0,.528-.168l.324,1.152A1.872,1.872,0,0,1,27.7.144ZM41.6,0H40.068V-3.66q0-.924-.864-.924a1.254,1.254,0,0,0-.69.2,1.865,1.865,0,0,0-.51.468V0H36.468V-3.66q0-.924-.864-.924a1.263,1.263,0,0,0-.684.2,1.757,1.757,0,0,0-.516.48V0H32.88V-5.8H34.4v.756a2.16,2.16,0,0,1,.756-.606A2.35,2.35,0,0,1,36.3-5.94a1.508,1.508,0,0,1,1.608,1.056,2.3,2.3,0,0,1,.822-.744A2.32,2.32,0,0,1,39.9-5.94a1.718,1.718,0,0,1,1.26.438A1.77,1.77,0,0,1,41.6-4.188ZM43.86-6.42a.877.877,0,0,1-.642-.27.877.877,0,0,1-.27-.642.857.857,0,0,1,.27-.636.887.887,0,0,1,.642-.264.881.881,0,0,1,.648.264.867.867,0,0,1,.264.636.887.887,0,0,1-.264.642A.871.871,0,0,1,43.86-6.42ZM44.628,0H43.1V-5.8h1.524Zm3.6.144A4.37,4.37,0,0,1,46.782-.1a3.234,3.234,0,0,1-1.146-.66l.66-1.068a3.062,3.062,0,0,0,.912.552,2.842,2.842,0,0,0,1.092.24,1.29,1.29,0,0,0,.726-.168.525.525,0,0,0,.246-.456.406.406,0,0,0-.258-.354,2.019,2.019,0,0,0-.636-.2,8.269,8.269,0,0,1-.828-.18,5.574,5.574,0,0,1-.828-.288,1.535,1.535,0,0,1-.636-.534,1.533,1.533,0,0,1-.258-.906,1.624,1.624,0,0,1,.636-1.3A2.643,2.643,0,0,1,48.2-5.94a3.648,3.648,0,0,1,2.34.792L49.932-4.1a2.146,2.146,0,0,0-.738-.48,2.523,2.523,0,0,0-.978-.192,1.2,1.2,0,0,0-.66.162A.48.48,0,0,0,47.3-4.2q0,.192.252.318a2.185,2.185,0,0,0,.636.186,7.02,7.02,0,0,1,.828.186,5.92,5.92,0,0,1,.828.3,1.491,1.491,0,0,1,.636.558,1.669,1.669,0,0,1,.252.936A1.627,1.627,0,0,1,50.07-.378,2.916,2.916,0,0,1,48.228.144Zm5.724,0A4.37,4.37,0,0,1,52.506-.1a3.234,3.234,0,0,1-1.146-.66l.66-1.068a3.062,3.062,0,0,0,.912.552,2.842,2.842,0,0,0,1.092.24A1.29,1.29,0,0,0,54.75-1.2.525.525,0,0,0,55-1.656a.406.406,0,0,0-.258-.354,2.019,2.019,0,0,0-.636-.2,8.269,8.269,0,0,1-.828-.18,5.574,5.574,0,0,1-.828-.288,1.535,1.535,0,0,1-.636-.534,1.533,1.533,0,0,1-.258-.906,1.624,1.624,0,0,1,.636-1.3,2.643,2.643,0,0,1,1.74-.528,3.648,3.648,0,0,1,2.34.792L55.656-4.1a2.146,2.146,0,0,0-.738-.48,2.523,2.523,0,0,0-.978-.192,1.2,1.2,0,0,0-.66.162.48.48,0,0,0-.252.414q0,.192.252.318a2.185,2.185,0,0,0,.636.186,7.02,7.02,0,0,1,.828.186,5.919,5.919,0,0,1,.828.3,1.491,1.491,0,0,1,.636.558,1.669,1.669,0,0,1,.252.936,1.627,1.627,0,0,1-.666,1.338A2.916,2.916,0,0,1,53.952.144ZM65.58-.732a2.949,2.949,0,0,1-2.232.876,2.919,2.919,0,0,1-2.226-.882A3.034,3.034,0,0,1,60.288-2.9a3.013,3.013,0,0,1,.834-2.16,2.93,2.93,0,0,1,2.226-.876,2.949,2.949,0,0,1,2.232.876,3,3,0,0,1,.84,2.16A3.043,3.043,0,0,1,65.58-.732Zm-3.312-.96a1.326,1.326,0,0,0,1.08.48A1.336,1.336,0,0,0,64.434-1.7a1.829,1.829,0,0,0,.4-1.206,1.811,1.811,0,0,0-.4-1.194,1.336,1.336,0,0,0-1.086-.486,1.319,1.319,0,0,0-1.08.486,1.829,1.829,0,0,0-.4,1.194A1.871,1.871,0,0,0,62.268-1.692ZM72.984,0H71.46V-.732a2.6,2.6,0,0,1-2.04.876,1.878,1.878,0,0,1-1.4-.48,1.844,1.844,0,0,1-.468-1.344V-5.8h1.524V-2.28A.944.944,0,0,0,70.14-1.212a1.6,1.6,0,0,0,1.32-.66V-5.8h1.524ZM76.44.144a1.688,1.688,0,0,1-1.224-.408A1.565,1.565,0,0,1,74.8-1.44V-4.464h-.96V-5.8h.96V-7.38h1.536V-5.8h1.176v1.332H76.332v2.616a.707.707,0,0,0,.144.456.467.467,0,0,0,.384.18.721.721,0,0,0,.528-.168l.324,1.152A1.872,1.872,0,0,1,76.44.144Zm10.1-.876a2.949,2.949,0,0,1-2.232.876,2.919,2.919,0,0,1-2.226-.882A3.034,3.034,0,0,1,81.252-2.9a3.013,3.013,0,0,1,.834-2.16,2.93,2.93,0,0,1,2.226-.876,2.949,2.949,0,0,1,2.232.876,3,3,0,0,1,.84,2.16A3.043,3.043,0,0,1,86.544-.732Zm-3.312-.96a1.326,1.326,0,0,0,1.08.48A1.336,1.336,0,0,0,85.4-1.7,1.829,1.829,0,0,0,85.8-2.9,1.811,1.811,0,0,0,85.4-4.1a1.336,1.336,0,0,0-1.086-.486,1.319,1.319,0,0,0-1.08.486,1.829,1.829,0,0,0-.4,1.194A1.871,1.871,0,0,0,83.232-1.692ZM93.948,0H92.424V-3.5a.949.949,0,0,0-1.068-1.08,1.546,1.546,0,0,0-1.32.684V0H88.512V-5.8h1.524v.756a2.513,2.513,0,0,1,2.028-.9,1.871,1.871,0,0,1,1.41.492,1.873,1.873,0,0,1,.474,1.356Zm6.528.144a1.688,1.688,0,0,1-1.224-.408,1.565,1.565,0,0,1-.42-1.176V-4.464h-.96V-5.8h.96V-7.38h1.536V-5.8h1.176v1.332h-1.176v2.616a.707.707,0,0,0,.144.456.467.467,0,0,0,.384.18.721.721,0,0,0,.528-.168l.324,1.152A1.872,1.872,0,0,1,100.476.144ZM108.036,0h-1.524V-3.528a1.035,1.035,0,0,0-.276-.816,1.192,1.192,0,0,0-.8-.24,1.586,1.586,0,0,0-1.32.684V0h-1.524V-8h1.524V-5.04a2.57,2.57,0,0,1,.846-.636,2.657,2.657,0,0,1,1.194-.264,1.9,1.9,0,0,1,1.41.48,1.83,1.83,0,0,1,.474,1.344Zm4.236.144a3.078,3.078,0,0,1-2.22-.84,2.919,2.919,0,0,1-.876-2.208,2.989,2.989,0,0,1,.846-2.16,2.865,2.865,0,0,1,2.154-.876,2.708,2.708,0,0,1,2.1.882,3.3,3.3,0,0,1,.8,2.31v.336h-4.308a1.471,1.471,0,0,0,.516.96,1.7,1.7,0,0,0,1.152.384,2.559,2.559,0,0,0,.834-.156,1.847,1.847,0,0,0,.714-.42l.672.984A3.4,3.4,0,0,1,112.272.144ZM113.6-3.444a1.467,1.467,0,0,0-.39-.888,1.32,1.32,0,0,0-1.038-.4,1.3,1.3,0,0,0-1.008.39,1.564,1.564,0,0,0-.42.894ZM124.692,0h-1.524V-3.5a.949.949,0,0,0-1.068-1.08,1.546,1.546,0,0,0-1.32.684V0h-1.524V-5.8h1.524v.756a2.513,2.513,0,0,1,2.028-.9,1.871,1.871,0,0,1,1.41.492,1.873,1.873,0,0,1,.474,1.356Zm6.948,0h-1.524V-.732a2.6,2.6,0,0,1-2.04.876,1.878,1.878,0,0,1-1.4-.48A1.844,1.844,0,0,1,126.2-1.68V-5.8h1.524V-2.28A.944.944,0,0,0,128.8-1.212a1.6,1.6,0,0,0,1.32-.66V-5.8h1.524ZM135.1.144a1.688,1.688,0,0,1-1.224-.408,1.565,1.565,0,0,1-.42-1.176V-4.464h-.96V-5.8h.96V-7.38h1.536V-5.8h1.176v1.332h-1.176v2.616a.707.707,0,0,0,.144.456.467.467,0,0,0,.384.18.721.721,0,0,0,.528-.168l.324,1.152A1.872,1.872,0,0,1,135.1.144ZM138.732,0h-1.524V-5.8h1.524V-5a2.551,2.551,0,0,1,.828-.672,2.177,2.177,0,0,1,1.02-.264v1.488a1.946,1.946,0,0,0-.42-.036,2.014,2.014,0,0,0-.816.192,1.366,1.366,0,0,0-.612.468Zm3.552-6.42a.877.877,0,0,1-.642-.27.877.877,0,0,1-.27-.642.857.857,0,0,1,.27-.636.887.887,0,0,1,.642-.264.881.881,0,0,1,.648.264.867.867,0,0,1,.264.636.887.887,0,0,1-.264.642A.871.871,0,0,1,142.284-6.42ZM143.052,0h-1.524V-5.8h1.524Zm4.236.144a3.078,3.078,0,0,1-2.22-.84,2.919,2.919,0,0,1-.876-2.208,2.989,2.989,0,0,1,.846-2.16,2.865,2.865,0,0,1,2.154-.876,2.708,2.708,0,0,1,2.1.882,3.3,3.3,0,0,1,.8,2.31v.336h-4.308a1.471,1.471,0,0,0,.516.96,1.7,1.7,0,0,0,1.152.384,2.559,2.559,0,0,0,.834-.156,1.847,1.847,0,0,0,.714-.42l.672.984A3.4,3.4,0,0,1,147.288.144Zm1.332-3.588a1.467,1.467,0,0,0-.39-.888,1.32,1.32,0,0,0-1.038-.4,1.3,1.3,0,0,0-1.008.39,1.564,1.564,0,0,0-.42.894ZM156.636,0h-1.524V-3.5a.949.949,0,0,0-1.068-1.08,1.546,1.546,0,0,0-1.32.684V0H151.2V-5.8h1.524v.756a2.513,2.513,0,0,1,2.028-.9,1.871,1.871,0,0,1,1.41.492,1.873,1.873,0,0,1,.474,1.356Zm3.456.144a1.688,1.688,0,0,1-1.224-.408,1.565,1.565,0,0,1-.42-1.176V-4.464h-.96V-5.8h.96V-7.38h1.536V-5.8h1.176v1.332h-1.176v2.616a.707.707,0,0,0,.144.456.467.467,0,0,0,.384.18.721.721,0,0,0,.528-.168l.324,1.152A1.872,1.872,0,0,1,160.092.144Zm4.2,0a4.37,4.37,0,0,1-1.446-.24,3.234,3.234,0,0,1-1.146-.66l.66-1.068a3.062,3.062,0,0,0,.912.552,2.842,2.842,0,0,0,1.092.24,1.29,1.29,0,0,0,.726-.168.525.525,0,0,0,.246-.456.406.406,0,0,0-.258-.354,2.019,2.019,0,0,0-.636-.2,8.27,8.27,0,0,1-.828-.18,5.573,5.573,0,0,1-.828-.288,1.535,1.535,0,0,1-.636-.534,1.533,1.533,0,0,1-.258-.906,1.624,1.624,0,0,1,.636-1.3,2.643,2.643,0,0,1,1.74-.528,3.648,3.648,0,0,1,2.34.792L166-4.1a2.146,2.146,0,0,0-.738-.48,2.523,2.523,0,0,0-.978-.192,1.2,1.2,0,0,0-.66.162.48.48,0,0,0-.252.414q0,.192.252.318a2.185,2.185,0,0,0,.636.186,7.021,7.021,0,0,1,.828.186,5.919,5.919,0,0,1,.828.3,1.491,1.491,0,0,1,.636.558,1.669,1.669,0,0,1,.252.936,1.627,1.627,0,0,1-.666,1.338A2.916,2.916,0,0,1,164.292.144ZM.552,20.268.78,18.9a1.169,1.169,0,0,0,.48.1.791.791,0,0,0,.8-.42l.216-.492L-.072,12.2H1.56l1.512,4.032L4.584,12.2H6.228L3.5,18.948a2.01,2.01,0,0,1-.84,1.074,2.9,2.9,0,0,1-1.356.33A3.123,3.123,0,0,1,.552,20.268Zm11.28-3a2.949,2.949,0,0,1-2.232.876,2.919,2.919,0,0,1-2.226-.882A3.034,3.034,0,0,1,6.54,15.1a3.013,3.013,0,0,1,.834-2.16A2.93,2.93,0,0,1,9.6,12.06a2.949,2.949,0,0,1,2.232.876,3,3,0,0,1,.84,2.16A3.043,3.043,0,0,1,11.832,17.268Zm-3.312-.96a1.326,1.326,0,0,0,1.08.48,1.336,1.336,0,0,0,1.086-.486,1.992,1.992,0,0,0,0-2.4A1.336,1.336,0,0,0,9.6,13.416a1.319,1.319,0,0,0-1.08.486,1.829,1.829,0,0,0-.4,1.194A1.871,1.871,0,0,0,8.52,16.308ZM19.236,18H17.712v-.732a2.6,2.6,0,0,1-2.04.876,1.878,1.878,0,0,1-1.4-.48A1.844,1.844,0,0,1,13.8,16.32V12.2h1.524V15.72a.944.944,0,0,0,1.068,1.068,1.6,1.6,0,0,0,1.32-.66V12.2h1.524Zm10.02,0H27.732V14.5a.949.949,0,0,0-1.068-1.08,1.546,1.546,0,0,0-1.32.684V18H23.82V12.2h1.524v.756a2.513,2.513,0,0,1,2.028-.9,1.686,1.686,0,0,1,1.884,1.848Zm4.236.144a3.078,3.078,0,0,1-2.22-.84A2.919,2.919,0,0,1,30.4,15.1a2.989,2.989,0,0,1,.846-2.16A2.865,2.865,0,0,1,33.4,12.06a2.708,2.708,0,0,1,2.1.882,3.3,3.3,0,0,1,.8,2.31v.336H31.992a1.471,1.471,0,0,0,.516.96,1.7,1.7,0,0,0,1.152.384,2.559,2.559,0,0,0,.834-.156,1.847,1.847,0,0,0,.714-.42l.672.984A3.4,3.4,0,0,1,33.492,18.144Zm1.332-3.588a1.467,1.467,0,0,0-.39-.888,1.32,1.32,0,0,0-1.038-.4,1.3,1.3,0,0,0-1.008.39,1.564,1.564,0,0,0-.42.894Zm5.3,3.588a3.078,3.078,0,0,1-2.22-.84,2.919,2.919,0,0,1-.876-2.208,2.989,2.989,0,0,1,.846-2.16,2.865,2.865,0,0,1,2.154-.876,2.708,2.708,0,0,1,2.1.882,3.3,3.3,0,0,1,.8,2.31v.336H38.628a1.471,1.471,0,0,0,.516.96,1.7,1.7,0,0,0,1.152.384,2.559,2.559,0,0,0,.834-.156,1.847,1.847,0,0,0,.714-.42l.672.984A3.4,3.4,0,0,1,40.128,18.144Zm1.332-3.588a1.467,1.467,0,0,0-.39-.888,1.32,1.32,0,0,0-1.038-.4,1.3,1.3,0,0,0-1.008.39,1.564,1.564,0,0,0-.42.894ZM49.56,18H48.024v-.744a2.194,2.194,0,0,1-1.788.888,2.361,2.361,0,0,1-1.848-.81,3.232,3.232,0,0,1-.72-2.226,3.265,3.265,0,0,1,.72-2.22,2.338,2.338,0,0,1,1.848-.828,2.152,2.152,0,0,1,1.788.888V10H49.56ZM46.7,16.788a1.674,1.674,0,0,0,.756-.186,1.421,1.421,0,0,0,.564-.474V14.076a1.421,1.421,0,0,0-.564-.474,1.674,1.674,0,0,0-.756-.186,1.336,1.336,0,0,0-1.056.468,1.8,1.8,0,0,0-.408,1.224,1.778,1.778,0,0,0,.408,1.212A1.336,1.336,0,0,0,46.7,16.788ZM53.8,18.144a3.078,3.078,0,0,1-2.22-.84A2.919,2.919,0,0,1,50.7,15.1a2.989,2.989,0,0,1,.846-2.16A2.865,2.865,0,0,1,53.7,12.06a2.708,2.708,0,0,1,2.1.882,3.3,3.3,0,0,1,.8,2.31v.336H52.3a1.471,1.471,0,0,0,.516.96,1.7,1.7,0,0,0,1.152.384,2.559,2.559,0,0,0,.834-.156,1.847,1.847,0,0,0,.714-.42l.672.984A3.4,3.4,0,0,1,53.8,18.144Zm1.332-3.588a1.467,1.467,0,0,0-.39-.888,1.32,1.32,0,0,0-1.038-.4,1.3,1.3,0,0,0-1.008.39,1.564,1.564,0,0,0-.42.894ZM63.228,18H61.692v-.744a2.194,2.194,0,0,1-1.788.888,2.361,2.361,0,0,1-1.848-.81,3.232,3.232,0,0,1-.72-2.226,3.265,3.265,0,0,1,.72-2.22A2.338,2.338,0,0,1,59.9,12.06a2.152,2.152,0,0,1,1.788.888V10h1.536Zm-2.856-1.212a1.674,1.674,0,0,0,.756-.186,1.421,1.421,0,0,0,.564-.474V14.076a1.421,1.421,0,0,0-.564-.474,1.674,1.674,0,0,0-.756-.186,1.336,1.336,0,0,0-1.056.468,1.8,1.8,0,0,0-.408,1.224,1.778,1.778,0,0,0,.408,1.212A1.336,1.336,0,0,0,60.372,16.788Zm9.384,1.356a1.688,1.688,0,0,1-1.224-.408,1.565,1.565,0,0,1-.42-1.176V13.536h-.96V12.2h.96V10.62h1.536V12.2h1.176v1.332H69.648v2.616a.707.707,0,0,0,.144.456.467.467,0,0,0,.384.18.721.721,0,0,0,.528-.168l.324,1.152A1.872,1.872,0,0,1,69.756,18.144ZM77.316,18H75.792V14.472a1.035,1.035,0,0,0-.276-.816,1.192,1.192,0,0,0-.8-.24,1.586,1.586,0,0,0-1.32.684V18H71.868V10h1.524V12.96a2.57,2.57,0,0,1,.846-.636,2.657,2.657,0,0,1,1.194-.264,1.9,1.9,0,0,1,1.41.48,1.83,1.83,0,0,1,.474,1.344Zm4.236.144a3.078,3.078,0,0,1-2.22-.84,2.919,2.919,0,0,1-.876-2.208,2.989,2.989,0,0,1,.846-2.16,2.865,2.865,0,0,1,2.154-.876,2.708,2.708,0,0,1,2.1.882,3.3,3.3,0,0,1,.8,2.31v.336H80.052a1.471,1.471,0,0,0,.516.96,1.7,1.7,0,0,0,1.152.384,2.559,2.559,0,0,0,.834-.156,1.847,1.847,0,0,0,.714-.42l.672.984A3.4,3.4,0,0,1,81.552,18.144Zm1.332-3.588a1.467,1.467,0,0,0-.39-.888,1.32,1.32,0,0,0-1.038-.4,1.3,1.3,0,0,0-1.008.39,1.564,1.564,0,0,0-.42.894ZM97.26,18H95.724V14.34q0-.924-.864-.924a1.254,1.254,0,0,0-.69.2,1.865,1.865,0,0,0-.51.468V18H92.124V14.34q0-.924-.864-.924a1.263,1.263,0,0,0-.684.2,1.757,1.757,0,0,0-.516.48V18H88.536V12.2H90.06v.756a2.16,2.16,0,0,1,.756-.606,2.35,2.35,0,0,1,1.14-.294,1.508,1.508,0,0,1,1.608,1.056,2.465,2.465,0,0,1,1.992-1.056,1.718,1.718,0,0,1,1.26.438,1.77,1.77,0,0,1,.444,1.314Zm6.42-.732a2.949,2.949,0,0,1-2.232.876,2.919,2.919,0,0,1-2.226-.882,3.034,3.034,0,0,1-.834-2.166,3.013,3.013,0,0,1,.834-2.16,3.274,3.274,0,0,1,4.458,0,3,3,0,0,1,.84,2.16A3.043,3.043,0,0,1,103.68,17.268Zm-3.312-.96a1.456,1.456,0,0,0,2.166-.006,1.992,1.992,0,0,0,0-2.4,1.336,1.336,0,0,0-1.086-.486,1.319,1.319,0,0,0-1.08.486,1.829,1.829,0,0,0-.4,1.194A1.871,1.871,0,0,0,100.368,16.308Zm7.368,1.836a4.37,4.37,0,0,1-1.446-.24,3.234,3.234,0,0,1-1.146-.66l.66-1.068a3.062,3.062,0,0,0,.912.552,2.842,2.842,0,0,0,1.092.24,1.29,1.29,0,0,0,.726-.168.525.525,0,0,0,.246-.456.406.406,0,0,0-.258-.354,2.019,2.019,0,0,0-.636-.2,8.269,8.269,0,0,1-.828-.18,5.574,5.574,0,0,1-.828-.288,1.512,1.512,0,0,1-.894-1.44,1.624,1.624,0,0,1,.636-1.3,2.643,2.643,0,0,1,1.74-.528,3.648,3.648,0,0,1,2.34.792L109.44,13.9a2.146,2.146,0,0,0-.738-.48,2.523,2.523,0,0,0-.978-.192,1.2,1.2,0,0,0-.66.162.48.48,0,0,0-.252.414q0,.192.252.318a2.185,2.185,0,0,0,.636.186,7.02,7.02,0,0,1,.828.186,5.919,5.919,0,0,1,.828.3,1.491,1.491,0,0,1,.636.558,1.669,1.669,0,0,1,.252.936,1.627,1.627,0,0,1-.666,1.338A2.916,2.916,0,0,1,107.736,18.144Zm5.58,0a1.688,1.688,0,0,1-1.224-.408,1.565,1.565,0,0,1-.42-1.176V13.536h-.96V12.2h.96V10.62h1.536V12.2h1.176v1.332h-1.176v2.616a.707.707,0,0,0,.144.456.467.467,0,0,0,.384.18.721.721,0,0,0,.528-.168l.324,1.152A1.872,1.872,0,0,1,113.316,18.144Zm3.576-.3a.956.956,0,1,1,.288-.684A.934.934,0,0,1,116.892,17.844Z" transform="translate(406 1393)"/>
    <rect id="Rectangle_43-2" data-name="Rectangle 43" width="247" height="1" transform="translate(425 1437)" fill="#f5f2f2"/>
    <rect id="Rectangle_44-2" data-name="Rectangle 44" width="247" height="1" transform="translate(425 1461)" fill="#f5f2f2"/>
    <rect id="Rectangle_45-2" data-name="Rectangle 45" width="247" height="1" transform="translate(425 1484)" fill="#f5f2f2"/>
    <rect id="Rectangle_46-2" data-name="Rectangle 46" width="247" height="1" transform="translate(425 1507)" fill="#f5f2f2"/>
    <rect id="Rectangle_47-2" data-name="Rectangle 47" width="247" height="1" transform="translate(425 1531)" fill="#f5f2f2"/>
    <path id="Path_165" data-name="Path 165" d="M-2.448.1A1.767,1.767,0,0,1-3.38-.148,1.807,1.807,0,0,1-4.02-.8a3.339,3.339,0,0,1-.352-.88,4.109,4.109,0,0,1-.116-.984,4.109,4.109,0,0,1,.116-.984,3.277,3.277,0,0,1,.352-.876,1.817,1.817,0,0,1,.64-.648,1.767,1.767,0,0,1,.932-.244,1.773,1.773,0,0,1,.928.244,1.807,1.807,0,0,1,.644.648,3.277,3.277,0,0,1,.352.876,4.109,4.109,0,0,1,.116.984,4.109,4.109,0,0,1-.116.984A3.339,3.339,0,0,1-.876-.8a1.8,1.8,0,0,1-.644.652A1.773,1.773,0,0,1-2.448.1Zm-.8-.92a1.072,1.072,0,0,0,.8.328,1.065,1.065,0,0,0,.8-.332,1.761,1.761,0,0,0,.44-.8,4.158,4.158,0,0,0,.12-1.04,4.158,4.158,0,0,0-.12-1.04,1.734,1.734,0,0,0-.44-.792,1.072,1.072,0,0,0-.8-.328,1.072,1.072,0,0,0-.8.328,1.734,1.734,0,0,0-.44.792,4.158,4.158,0,0,0-.12,1.04,4.158,4.158,0,0,0,.12,1.04A1.789,1.789,0,0,0-3.248-.824Z" transform="translate(420 1534)"/>
    <path id="Path_164" data-name="Path 164" d="M-4,0H-6.744V-.4q.624-.492.969-.783t.666-.618a2.57,2.57,0,0,0,.453-.582,1.1,1.1,0,0,0,.132-.507.642.642,0,0,0-.246-.546.947.947,0,0,0-.588-.186,1.306,1.306,0,0,0-1.086.5l-.306-.318a1.506,1.506,0,0,1,.6-.465,1.925,1.925,0,0,1,.8-.165,1.508,1.508,0,0,1,.945.306,1.032,1.032,0,0,1,.4.87,1.708,1.708,0,0,1-.48,1.113A10.9,10.9,0,0,1-5.958-.444H-4Zm2.262.072A1.66,1.66,0,0,1-3.144-.57l.306-.33a1.332,1.332,0,0,0,1.1.528.926.926,0,0,0,.666-.246A.811.811,0,0,0-.81-1.23a.815.815,0,0,0-.255-.627.935.935,0,0,0-.663-.237,1.27,1.27,0,0,0-.924.378l-.366-.126V-4H-.57v.444H-2.52v1.392a1.266,1.266,0,0,1,.936-.36,1.276,1.276,0,0,1,.9.345,1.211,1.211,0,0,1,.372.933,1.225,1.225,0,0,1-.4.96A1.472,1.472,0,0,1-1.734.072Z" transform="translate(420 1509)"/>
    <path id="Path_163" data-name="Path 163" d="M-5.406.072A1.66,1.66,0,0,1-6.816-.57L-6.51-.9a1.332,1.332,0,0,0,1.1.528A.926.926,0,0,0-4.74-.618a.811.811,0,0,0,.258-.612.815.815,0,0,0-.255-.627A.935.935,0,0,0-5.4-2.094a1.27,1.27,0,0,0-.924.378l-.366-.126V-4h2.448v.444h-1.95v1.392a1.266,1.266,0,0,1,.936-.36,1.276,1.276,0,0,1,.9.345,1.211,1.211,0,0,1,.372.933,1.225,1.225,0,0,1-.4.96A1.472,1.472,0,0,1-5.406.072Zm3.57,0a1.325,1.325,0,0,1-.7-.183A1.355,1.355,0,0,1-3.015-.6a2.5,2.5,0,0,1-.264-.66A3.081,3.081,0,0,1-3.366-2a3.081,3.081,0,0,1,.087-.738,2.458,2.458,0,0,1,.264-.657,1.363,1.363,0,0,1,.48-.486,1.325,1.325,0,0,1,.7-.183,1.33,1.33,0,0,1,.7.183,1.355,1.355,0,0,1,.483.486,2.458,2.458,0,0,1,.264.657A3.082,3.082,0,0,1-.306-2a3.082,3.082,0,0,1-.087.738A2.5,2.5,0,0,1-.657-.6a1.348,1.348,0,0,1-.483.489A1.33,1.33,0,0,1-1.836.072Zm-.6-.69a.8.8,0,0,0,.6.246.8.8,0,0,0,.6-.249,1.321,1.321,0,0,0,.33-.6A3.118,3.118,0,0,0-.816-2a3.118,3.118,0,0,0-.09-.78,1.3,1.3,0,0,0-.33-.594.8.8,0,0,0-.6-.246.8.8,0,0,0-.6.246,1.3,1.3,0,0,0-.33.594,3.118,3.118,0,0,0-.09.78,3.118,3.118,0,0,0,.09.78A1.341,1.341,0,0,0-2.436-.618Z" transform="translate(420 1485)"/>
    <path id="Path_162" data-name="Path 162" d="M-5.352,0H-5.9L-4.29-3.558H-6.444V-4h2.73v.342Zm3.618.072A1.66,1.66,0,0,1-3.144-.57l.306-.33a1.332,1.332,0,0,0,1.1.528.926.926,0,0,0,.666-.246A.811.811,0,0,0-.81-1.23a.815.815,0,0,0-.255-.627.935.935,0,0,0-.663-.237,1.27,1.27,0,0,0-.924.378l-.366-.126V-4H-.57v.444H-2.52v1.392a1.266,1.266,0,0,1,.936-.36,1.276,1.276,0,0,1,.9.345,1.211,1.211,0,0,1,.372.933,1.225,1.225,0,0,1-.4.96A1.472,1.472,0,0,1-1.734.072Z" transform="translate(420 1462)"/>
    <path id="Path_161" data-name="Path 161" d="M-7.812,0h-.5V-3.342l-.642.678-.3-.306L-8.25-4h.438Zm2.3.072a1.325,1.325,0,0,1-.7-.183A1.355,1.355,0,0,1-6.687-.6a2.5,2.5,0,0,1-.264-.66A3.081,3.081,0,0,1-7.038-2a3.081,3.081,0,0,1,.087-.738,2.458,2.458,0,0,1,.264-.657,1.363,1.363,0,0,1,.48-.486,1.325,1.325,0,0,1,.7-.183,1.33,1.33,0,0,1,.7.183,1.355,1.355,0,0,1,.483.486,2.458,2.458,0,0,1,.264.657A3.082,3.082,0,0,1-3.978-2a3.082,3.082,0,0,1-.087.738,2.5,2.5,0,0,1-.264.66,1.348,1.348,0,0,1-.483.489A1.33,1.33,0,0,1-5.508.072Zm-.6-.69a.8.8,0,0,0,.6.246.8.8,0,0,0,.6-.249,1.321,1.321,0,0,0,.33-.6A3.118,3.118,0,0,0-4.488-2a3.118,3.118,0,0,0-.09-.78,1.3,1.3,0,0,0-.33-.594.8.8,0,0,0-.6-.246.8.8,0,0,0-.6.246,1.3,1.3,0,0,0-.33.594,3.118,3.118,0,0,0-.09.78,3.118,3.118,0,0,0,.09.78A1.341,1.341,0,0,0-6.108-.618Zm4.272.69a1.325,1.325,0,0,1-.7-.183A1.355,1.355,0,0,1-3.015-.6a2.5,2.5,0,0,1-.264-.66A3.081,3.081,0,0,1-3.366-2a3.081,3.081,0,0,1,.087-.738,2.458,2.458,0,0,1,.264-.657,1.363,1.363,0,0,1,.48-.486,1.325,1.325,0,0,1,.7-.183,1.33,1.33,0,0,1,.7.183,1.355,1.355,0,0,1,.483.486,2.458,2.458,0,0,1,.264.657A3.082,3.082,0,0,1-.306-2a3.082,3.082,0,0,1-.087.738A2.5,2.5,0,0,1-.657-.6a1.348,1.348,0,0,1-.483.489A1.33,1.33,0,0,1-1.836.072Zm-.6-.69a.8.8,0,0,0,.6.246.8.8,0,0,0,.6-.249,1.321,1.321,0,0,0,.33-.6A3.118,3.118,0,0,0-.816-2a3.118,3.118,0,0,0-.09-.78,1.3,1.3,0,0,0-.33-.594.8.8,0,0,0-.6-.246.8.8,0,0,0-.6.246,1.3,1.3,0,0,0-.33.594,3.118,3.118,0,0,0-.09.78,3.118,3.118,0,0,0,.09.78A1.341,1.341,0,0,0-2.436-.618Z" transform="translate(420 1440)"/>
    <path id="Rectangle_49-2" data-name="Rectangle 49" d="M4,0H63a4,4,0,0,1,4,4V4a0,0,0,0,1,0,0H0A0,0,0,0,1,0,4V4A4,4,0,0,1,4,0Z" transform="translate(433 1527)" fill="url(#linear-gradient)"/>
    <path id="Rectangle_51" data-name="Rectangle 51" d="M4,0H63a4,4,0,0,1,4,4V8a0,0,0,0,1,0,0H0A0,0,0,0,1,0,8V4A4,4,0,0,1,4,0Z" transform="translate(515 1523)" fill="url(#linear-gradient)"/>
    <path id="Rectangle_50-2" data-name="Rectangle 50" d="M4,0H63a4,4,0,0,1,4,4V93a0,0,0,0,1,0,0H0a0,0,0,0,1,0,0V4A4,4,0,0,1,4,0Z" transform="translate(597 1438)" fill="url(#linear-gradient)"/>
    <g id="Right_Arrow" data-name="Right Arrow" transform="translate(564.942 1468.969)">
      <g id="Group_2" data-name="Group 2">
        <path id="Path_12" data-name="Path 12" d="M23.825,137.171h0l-4.919-4.9a.941.941,0,0,0-1.328,1.335l3.3,3.287H.941a.941.941,0,0,0,0,1.883H20.88l-3.3,3.287a.941.941,0,0,0,1.328,1.335l4.919-4.9h0A.942.942,0,0,0,23.825,137.171Z" transform="translate(0 -132)" fill="#41c752"/>
      </g>
    </g>
  </g>
</svg>
