<svg xmlns="http://www.w3.org/2000/svg" width="48" height="48" viewBox="0 0 48 48">
  <g id="main_green" transform="translate(-161 -123)">
    <g id="Group_235" data-name="Group 235" transform="translate(116 -635)">
      <g id="Group_211" data-name="Group 211" transform="translate(0 656)">
        <g id="Group_206" data-name="Group 206">
          <circle id="Ellipse_1" data-name="Ellipse 1" cx="24" cy="24" r="24" transform="translate(45 102)" fill="#ddefe2"/>
        </g>
      </g>
    </g>
    <g id="ovaries" transform="translate(170.996 132.927)">
      <path id="Path_18" data-name="Path 18" d="M56.529,6.4l2.221-2.221L57.11,2.541,58.4,1.248,57.242.088,54.789,2.541,56.43,4.182,55.369,5.243Z" transform="translate(-51.792 -0.014)" fill="#25772f"/>
      <path id="Path_19" data-name="Path 19" d="M387.3.073l-1.16,1.16,1.293,1.293-1.641,1.641,2.221,2.221,1.16-1.16L388.11,4.168l1.641-1.641Z" transform="translate(-364.685)" fill="#25772f"/>
      <path id="Path_20" data-name="Path 20" d="M20.537,63.842A7.448,7.448,0,0,0,14,59.927a7.362,7.362,0,0,0-6.479,3.915C2.849,64.807,0,66.7,0,68.953a3.383,3.383,0,0,0,1.323,2.538A3.326,3.326,0,0,0,2.362,74.8c1.145,1.145,3.033,1.663,4.116.58.976-.976.721-2.76-.58-4.061a3.367,3.367,0,0,0-3.437-1.006,1.952,1.952,0,0,1-.82-1.356c0-1,1.675-2.375,5.172-3.269a7.222,7.222,0,0,0,2.025,6.872l.706,6.354a4.565,4.565,0,0,0,2,3.3v2.447h4.923V82.205a4.564,4.564,0,0,0,2-3.3l.706-6.354a7.433,7.433,0,0,0,2.274-5.245,7.338,7.338,0,0,0-.194-1.627c3.5.894,5.117,2.268,5.117,3.269a1.952,1.952,0,0,1-.82,1.356,3.282,3.282,0,0,0-3.382,1.006c-1.3,1.3-1.556,3.085-.58,4.061,1.086,1.085,2.922.559,4.061-.58a3.326,3.326,0,0,0,1.039-3.305,3.384,3.384,0,0,0,1.323-2.538C28.008,66.7,25.214,64.807,20.537,63.842Zm-3.1,1.8a5.036,5.036,0,0,0-2.608,4.53V78.8H13.183V70.176a5.036,5.036,0,0,0-2.608-4.53l-1.591-.8h10.04l-1.591.8Z" transform="translate(0 -56.58)" fill="#25772f"/>
    </g>
  </g>
</svg>
