<svg xmlns="http://www.w3.org/2000/svg" width="48" height="48" viewBox="0 0 48 48">
  <g id="main_green" transform="translate(-161 -111)">
    <g id="Group_235" data-name="Group 235" transform="translate(116 -647)">
      <g id="Group_211" data-name="Group 211" transform="translate(0 656)">
        <g id="Group_206" data-name="Group 206">
          <circle id="Ellipse_1" data-name="Ellipse 1" cx="24" cy="24" r="24" transform="translate(45 102)" fill="#ddefe2"/>
        </g>
      </g>
    </g>
    <g id="Group_5" data-name="Group 5" transform="translate(-64.541 -55.267)">
      <path id="Icon_ionic-md-female" data-name="Icon ionic-md-female" d="M28.125,12.375a10.125,10.125,0,1,0-11.812,9.984v3.516H11.25V29.25h5.063v4.5h3.375v-4.5H24.75V25.875H19.688V22.359A10.123,10.123,0,0,0,28.125,12.375Zm-16.875,0A6.75,6.75,0,1,1,18,19.125,6.761,6.761,0,0,1,11.25,12.375Z" transform="translate(231.541 173.103)" fill="#25772f"/>
      <g id="Icon_feather-clock" data-name="Icon feather-clock" transform="translate(238.666 174)">
        <path id="Path_2" data-name="Path 2" d="M18.75,10.875A7.875,7.875,0,1,1,10.875,3,7.875,7.875,0,0,1,18.75,10.875Z" fill="none" stroke="#25772f" stroke-linecap="round" stroke-linejoin="round" stroke-width="2"/>
        <path id="Path_3" data-name="Path 3" d="M18,9v4.725L21.15,15.3" transform="translate(-7.125 -1.85)" fill="none" stroke="#25772f" stroke-linecap="round" stroke-linejoin="round" stroke-width="2"/>
      </g>
    </g>
  </g>
</svg>
