<svg xmlns="http://www.w3.org/2000/svg" width="48" height="48" viewBox="0 0 48 48">
  <g id="main_green" transform="translate(-161 -543)">
    <g id="Group_211" data-name="Group 211" transform="translate(116 441)">
      <g id="Group_206" data-name="Group 206">
        <circle id="Ellipse_1" data-name="Ellipse 1" cx="24" cy="24" r="24" transform="translate(45 102)" fill="#ddefe2"/>
      </g>
    </g>
    <g id="fetus" transform="translate(170.75 553)">
      <path id="Path_16" data-name="Path 16" d="M14.25,0a14.161,14.161,0,0,0-8.8,3.131A9.834,9.834,0,0,1,6.776,5.72,8.23,8.23,0,0,0,8.938,9.089a2.469,2.469,0,0,1,3.589-.867A5.777,5.777,0,0,1,13.66,6.575a5.845,5.845,0,1,1,6.2,9.6A9.127,9.127,0,0,1,17.2,21.925l-.826.827a5.851,5.851,0,0,1-8.266,0,6.287,6.287,0,0,1-1.8-4.989,2.473,2.473,0,0,1-1.928-.727,2.511,2.511,0,0,1,0-3.544,4.467,4.467,0,0,1,4.394-1.2,9.154,9.154,0,0,1-.134-1.307A9.889,9.889,0,0,1,5.193,6.249a8.17,8.17,0,0,0-1-2A14.186,14.186,0,1,0,14.25,0Z" transform="translate(0 0)" fill="#25772f"/>
      <path id="Path_17" data-name="Path 17" d="M95.924,125.475a.859.859,0,0,0-.061,1.243.836.836,0,0,0,1.181,0l.886-.885.93,1.3-.354.513a4.639,4.639,0,0,0,1.089,4.787,4.18,4.18,0,0,0,5.9,0l.826-.827a7.473,7.473,0,0,0,2.2-5.2l.009-.636a4.866,4.866,0,0,0,2.515-1.247,4.172,4.172,0,1,0-4.512.921l-.625,1.549a5.8,5.8,0,0,1-3.622-5.789h-.023a.839.839,0,0,0-.784-.887.854.854,0,0,0-.884.783c-.192,3.076,1.242,3.907,1.385,5.684a4.171,4.171,0,0,1-1.209,3.29l-1.181-1.181a2.508,2.508,0,1,0-3.669-3.416Z" transform="translate(-90.302 -110.862)" fill="#25772f"/>
    </g>
  </g>
</svg>
