<svg xmlns="http://www.w3.org/2000/svg" width="48" height="48" viewBox="0 0 48 48">
  <g id="main_green" transform="translate(-541 -123)">
    <g id="Group_235" data-name="Group 235" transform="translate(496 -635)">
      <g id="Group_211" data-name="Group 211" transform="translate(0 656)">
        <g id="Group_206" data-name="Group 206">
          <circle id="Ellipse_1" data-name="Ellipse 1" cx="24" cy="24" r="24" transform="translate(45 102)" fill="#ddefe2"/>
        </g>
      </g>
    </g>
    <g id="Group_15" data-name="Group 15" transform="translate(546.606 134.782)">
      <path id="Path_25" data-name="Path 25" d="M27.839,23.6v-6.77a4.238,4.238,0,0,1,1.891-3.533l2.2-1.466A1.544,1.544,0,0,0,31.073,9h-.09a1.552,1.552,0,0,0-.691.163l-.736.368a5.113,5.113,0,0,1-4.5,0l-.736-.368A1.547,1.547,0,0,0,23.633,9h-.09a1.544,1.544,0,0,0-.856,2.828l2.2,1.466a4.238,4.238,0,0,1,1.891,3.533V23.6a1.329,1.329,0,0,1-1.062,1.3v2.15H28.9V24.9A1.329,1.329,0,0,1,27.839,23.6Z" transform="translate(-8.914 -2.83)" fill="#25772f"/>
      <path id="Path_26" data-name="Path 26" d="M5.5,11.382A5.977,5.977,0,0,1,4.062,7.494,3.433,3.433,0,0,1,8.847,4.339l1.914.821a6.4,6.4,0,0,1,.624-.889L9.266,3.363A4.5,4.5,0,0,0,3,7.494a7.038,7.038,0,0,0,1.693,4.578L5.7,13.246c.055-.089.1-.182.167-.265l.031-.041a3.627,3.627,0,0,1,.488-.523Z" transform="translate(0 -0.015)" fill="#25772f"/>
      <path id="Path_27" data-name="Path 27" d="M13.232,21.59a2.549,2.549,0,0,0-3.67.429l-.031.042a2.654,2.654,0,0,0,2.123,4.247,4.025,4.025,0,0,0,2.5-.879l.781-.625a1.147,1.147,0,0,0,.018-1.777Z" transform="translate(-2.815 -8.46)" fill="#25772f"/>
      <path id="Path_28" data-name="Path 28" d="M52.716,28a.529.529,0,0,0-.322.112,1.58,1.58,0,0,1,.321.937,2.656,2.656,0,0,0,.529-.531A.53.53,0,0,0,52.716,28Z" transform="translate(-23.174 -11.744)" fill="#25772f"/>
      <path id="Path_30" data-name="Path 30" d="M48.806,22.018a2.547,2.547,0,0,0-3.667-.427l-1.725,1.437a1.146,1.146,0,0,0,.018,1.777l.781.625a3.99,3.99,0,0,0,.932.541,1.461,1.461,0,0,1-.02-.194A1.575,1.575,0,0,1,45.336,25a1.591,1.591,0,1,1,2.441-1.342c0,.033-.008.065-.01.1a1.593,1.593,0,0,1,.541-.1,1.577,1.577,0,0,1,1.023.382,2.589,2.589,0,0,0,.039-.382,2.669,2.669,0,0,0-.531-1.592Z" transform="translate(-18.767 -8.46)" fill="#25772f"/>
      <path id="Path_31" data-name="Path 31" d="M49.094,3a4.472,4.472,0,0,0-1.771.364L45.2,4.271a6.4,6.4,0,0,1,.624.889l1.914-.821a3.433,3.433,0,0,1,4.785,3.155,5.972,5.972,0,0,1-1.439,3.887L50.2,12.415a3.546,3.546,0,0,1,.487.522l.032.044c.063.084.111.177.167.265l1-1.173a7.035,7.035,0,0,0,1.694-4.578A4.5,4.5,0,0,0,49.094,3Z" transform="translate(-19.801 -0.015)" fill="#25772f"/>
      <path id="Path_32" data-name="Path 32" d="M32.864,8.348a5.357,5.357,0,0,0-1.87-4.068l-.06-.051a5.329,5.329,0,0,0-3.451-1.261h-4.1A5.278,5.278,0,0,0,19.93,4.229l-.06.051A5.356,5.356,0,0,0,18,8.348v.084a7.568,7.568,0,0,0,1.873,4.986l.053.061a7.231,7.231,0,0,1,1.79,4.762,2.943,2.943,0,0,0,1.172,2.344l.527.395a.276.276,0,0,0,.425-.212V14a3.179,3.179,0,0,0-1.418-2.65l-2.2-1.466a2.606,2.606,0,0,1,1.445-4.773h.09a2.617,2.617,0,0,1,1.165.275l.736.368a4.035,4.035,0,0,0,3.548,0l.736-.368a2.617,2.617,0,0,1,1.165-.275h.09a2.605,2.605,0,0,1,1.445,4.773l-2.2,1.466A3.18,3.18,0,0,0,27.024,14v6.77a.275.275,0,0,0,.426.212l.525-.394a2.943,2.943,0,0,0,1.173-2.344,7.226,7.226,0,0,1,1.787-4.758l.051-.059a7.573,7.573,0,0,0,1.878-4.991Z" transform="translate(-7.038)" fill="#25772f"/>
      <ellipse id="Ellipse_4" data-name="Ellipse 4" cx="0.5" cy="1" rx="0.5" ry="1" transform="translate(27 14.218)" fill="#25772f"/>
      <circle id="Ellipse_5" data-name="Ellipse 5" cx="0.5" cy="0.5" r="0.5" transform="translate(27 17.218)" fill="#25772f"/>
    </g>
  </g>
</svg>
