<svg xmlns="http://www.w3.org/2000/svg" width="48" height="48" viewBox="0 0 48 48">
  <g id="main_green" transform="translate(-541 -263)">
    <g id="Group_235" data-name="Group 235" transform="translate(496 -495)">
      <g id="Group_211" data-name="Group 211" transform="translate(0 656)">
        <g id="Group_206" data-name="Group 206">
          <circle id="Ellipse_1" data-name="Ellipse 1" cx="24" cy="24" r="24" transform="translate(45 102)" fill="#ddefe2"/>
        </g>
      </g>
    </g>
    <g id="Group_19" data-name="Group 19" transform="translate(-616.703 -22.984)">
      <path id="Path_33" data-name="Path 33" d="M83.167,52.862A3.438,3.438,0,1,0,86.6,56.3,3.438,3.438,0,0,0,83.167,52.862Zm0,6.158a2.72,2.72,0,1,1,2.716-2.72A2.72,2.72,0,0,1,83.167,59.02Z" transform="translate(1106.804 255.623)" fill="#25772f"/>
      <path id="Path_34" data-name="Path 34" d="M94.446,65.326a.358.358,0,0,0-.507,0l-.6.6-.6-.6a.359.359,0,1,0-.507.508l.6.6-.6.6a.359.359,0,1,0,.507.508l.6-.6.6.6a.359.359,0,0,0,.507-.508l-.6-.6.6-.6A.36.36,0,0,0,94.446,65.326Z" transform="translate(1096.636 245.485)" fill="#25772f"/>
      <path id="Path_35" data-name="Path 35" d="M37.121,63.538a2.827,2.827,0,0,0-.428,2.267,4.493,4.493,0,0,0,1.292,2.181,4.608,4.608,0,0,0,5.656.587.359.359,0,0,1-.057-.054l-.3-.35c-.306-.361-.869-.366-1.465-.37l-.256,0a.359.359,0,0,1-.339-.265c0-.009-.08-.284-.232-.673l-2.262.076h-.012a.359.359,0,1,1-.012-.719l2.76-.092a.371.371,0,1,0,.005-.741l-2.75.092a.364.364,0,0,1-.371-.347.359.359,0,0,1,.347-.371l.972-.032a1.983,1.983,0,0,0-1.151-.566h0l-.044,0a1.788,1.788,0,0,1-1.354-.622Z" transform="translate(1142.167 246.865)" fill="#25772f"/>
      <ellipse id="Ellipse_6" data-name="Ellipse 6" cx="1.076" cy="1.078" rx="1.076" ry="1.078" transform="translate(1179.565 308.15)" fill="#25772f"/>
      <path id="Path_36" data-name="Path 36" d="M23.184,16.234a5.3,5.3,0,0,1-3.739,1.63h-.1a5.29,5.29,0,0,1-3.7-1.5,5.208,5.208,0,0,1-1.491-2.528,3.559,3.559,0,0,1,.753-3.133,1.754,1.754,0,0,1-.066-.478,1.794,1.794,0,1,1,2.9,1.409,3.731,3.731,0,0,1,1.026.92l.85-.027a1.089,1.089,0,0,1,.286,2.143c.038.1.068.194.093.271a2.428,2.428,0,0,1,2,.625l.3.35a.356.356,0,0,1,.061.108c.106-.093.21-.19.309-.293.043-.047.084-.092.126-.138a4.148,4.148,0,0,1,.341-5.7,4.626,4.626,0,0,0-.582-.685.359.359,0,1,1,.5-.517,5.422,5.422,0,0,1,.647.756,4.141,4.141,0,0,1,1.4-.588A12.032,12.032,0,0,0,22.9,6.2a4.871,4.871,0,0,1-1.628.054.359.359,0,1,1,.086-.713,3.7,3.7,0,0,0,1.6-.1l0,0a3.473,3.473,0,0,0,.661-1.7A5.019,5.019,0,0,0,22.038-.013H11.991a.4.4,0,0,0-.429.28,11.815,11.815,0,0,0,.005,5.108c.12.408.28.826.449,1.272.742,1.939,1.581,4.138-.2,7.005-1.745,2.808-2.481,5.2-1.085,9.095a.359.359,0,0,0,.338.237H21.817a.379.379,0,0,0,.133-.025.36.36,0,0,0,.2-.467,5.548,5.548,0,0,1-.293-1.378,3.237,3.237,0,0,1,.252-1.577,6.276,6.276,0,0,1-2.2.393c-.192,0-.392-.009-.6-.027a.359.359,0,0,1,.065-.715,6.038,6.038,0,0,0,3.9-1.053,7.863,7.863,0,0,0,1.268-1.308A4.166,4.166,0,0,1,23.3,16.1Q23.246,16.17,23.184,16.234Z" transform="translate(1164 299)" fill="#25772f"/>
    </g>
  </g>
</svg>
