<svg id="forbes-logo" xmlns="http://www.w3.org/2000/svg" width="103.202" height="25.859" viewBox="0 0 103.202 25.859">
  <path id="Path_15" data-name="Path 15" d="M85.827-2.355a8.458,8.458,0,0,0-4.27,1.067c0-3.8,0-7.235.119-8.421L73.728-8.285v.712l.83.119c1.067.237,1.424.83,1.659,2.254.239,2.847.119,18.03,0,20.521a30.848,30.848,0,0,0,6.644.831c6.287,0,10.082-3.915,10.082-10.083,0-4.863-3.084-8.422-7.117-8.422ZM83.1,14.845a5.348,5.348,0,0,1-1.423-.118c-.119-1.66-.237-8.66-.119-14.827a5.246,5.246,0,0,1,1.78-.356c2.611,0,4.035,3.084,4.035,6.879C87.369,11.169,85.59,14.845,83.1,14.845ZM43.835-9.234H22.958v1.067l1.186.119c1.541.237,2.135,1.186,2.371,3.439a137.431,137.431,0,0,1,0,15.657c-.237,2.254-.83,3.322-2.371,3.439l-1.186.238v.949h13.4v-.949l-1.423-.238C33.4,14.37,32.8,13.3,32.566,11.048c-.119-1.543-.238-4.034-.238-7.117l2.847.119c1.78,0,2.609,1.423,2.965,3.439h1.068V-.93H38.141c-.357,2.017-1.186,3.439-2.965,3.439l-2.846.119c0-4.033.119-7.829.238-10.082h4.151c3.2,0,4.864,2.016,6.05,5.575l1.186-.356-.119-7Z" transform="translate(-22.958 9.708)" fill="#d4d4d4"/>
  <path id="Path_16" data-name="Path 16" d="M59.052.653c5.931,0,8.9,4.033,8.9,9.371,0,5.1-3.322,9.372-9.253,9.372s-8.9-4.034-8.9-9.372c0-5.1,3.321-9.371,9.252-9.371ZM58.7,1.839c-2.61,0-3.322,3.559-3.322,8.184,0,4.507,1.186,8.184,3.559,8.184,2.726,0,3.439-3.559,3.439-8.184C62.373,5.516,61.188,1.839,58.7,1.839Zm44.244,8.3c0-4.863,3.084-9.49,9.134-9.49,4.981,0,7.354,3.678,7.354,8.541H108.4c-.119,4.389,2.016,7.592,6.287,7.592a6.094,6.094,0,0,0,4.034-1.3l.473.593a8.885,8.885,0,0,1-7.116,3.322c-5.338,0-9.134-3.8-9.134-9.253ZM108.4,7.889l5.575-.119c0-2.372-.356-5.931-2.372-5.931S108.514,5.16,108.4,7.889ZM133.546,1.6A14.5,14.5,0,0,0,128.09.653c-4.388,0-7.118,2.609-7.118,5.694s2.015,4.389,4.865,5.338c2.965,1.067,3.8,1.9,3.8,3.321a2.747,2.747,0,0,1-2.966,2.728c-2.253,0-3.915-1.3-5.219-4.863l-.831.238.119,5.219a18.744,18.744,0,0,0,6.287,1.068c4.626,0,7.592-2.374,7.592-6.05,0-2.491-1.306-3.914-4.389-5.1-3.322-1.3-4.507-2.134-4.507-3.677a2.465,2.465,0,0,1,2.493-2.61c2.134,0,3.557,1.3,4.626,4.508l.83-.237L133.546,1.6ZM83.369,1.127C81.353-.058,77.794.534,75.9,4.805L76.014.653,68.067,2.2v.712l.83.119c1.069.119,1.542.712,1.661,2.254a99.862,99.862,0,0,1,0,10.32c-.119,1.422-.593,2.134-1.661,2.253l-.83.119v.949H79.1v-.949l-1.423-.119c-1.186-.119-1.542-.831-1.661-2.253A84.573,84.573,0,0,1,75.9,5.992c.593-.831,3.2-1.542,5.574,0l1.9-4.864Z" transform="translate(-31.413 6.464)" fill="#d4d4d4"/>
</svg>
