<svg id="entrepreneur-logo" xmlns="http://www.w3.org/2000/svg" width="167.5" height="32.724" viewBox="0 0 167.5 32.724">
  <path id="Path_17" data-name="Path 17" d="M17.526,18.776l-.391,5.866H14.268l-.262-3.649H9.444v8.732H11.4a12.5,12.5,0,0,1,.522-1.956h2.084v6H12.053l-.522-1.956H9.575v9.254h4.561l.391-4.041,3.127.146.262,6.127H2.928V41.21l2.084-.391V21.252l-2.477-.391V18.777H17.524Zm52.9,32.714c0-.651.146-1.173.146-1.695l1.564-.391V28.565c-.651-.146-1.173-.146-1.825-.262V26.608l4.955-.651c.146.651.391,1.3.522,1.825.146,0,.146-.146.262-.146a4.98,4.98,0,0,1,4.561-1.695,4.581,4.581,0,0,1,4.041,3.649,10.088,10.088,0,0,1,.522,2.737,24.984,24.984,0,0,1-.146,5.735,14.424,14.424,0,0,1-.651,2.084A5.242,5.242,0,0,1,79.817,43.4a5.469,5.469,0,0,1-3.259-.522H76.3v6.533l1.695.391c0,.522-.146,1.042-.146,1.695H70.416Zm5.866-10.818a5.165,5.165,0,0,0,3.91.146,1.02,1.02,0,0,0,.522-.522,9.285,9.285,0,0,0,.391-1.956,31.724,31.724,0,0,0,.146-6,5.9,5.9,0,0,0-.391-2.085A2.232,2.232,0,0,0,78,28.565H77.74a1.6,1.6,0,0,0-1.434,1.695V40.671Zm49.53.393,1.695.391a7.715,7.715,0,0,1-.146,1.825h-5.735V31.549a7.308,7.308,0,0,0-.262-1.564c-.146-.651-.651-.912-1.3-1.042a2.317,2.317,0,0,0-1.695.146c-.522.291-.912.522-.912,1.173V41.08l1.695.391c0,.522-.146,1.173-.146,1.825h-7.3V41.474l1.695-.391V28.7c-.651-.146-1.173-.146-1.825-.262V26.593l4.809-.651.391,1.564c.391-.262.783-.651,1.173-.912a5.444,5.444,0,0,1,5.083-.522,3.864,3.864,0,0,1,2.477,3.259,3.983,3.983,0,0,1,.146,1.3v9.776a1.414,1.414,0,0,1,.131.651Zm-100.882.146,1.695.391c0,.651-.146,1.173-.146,1.825H19.061a8.274,8.274,0,0,1,.146-1.825l1.564-.391c.146-.391.146-11.731,0-12.383-.522-.146-1.173-.146-1.825-.262V26.724l4.809-.651.391,1.564.391-.391a5.7,5.7,0,0,1,5.344-1.173,3.871,3.871,0,0,1,3,3.259,3.982,3.982,0,0,1,.146,1.3V41.061l1.695.391v1.842H28.984V31.956a3.982,3.982,0,0,0-.146-1.3,1.836,1.836,0,0,0-1.695-1.695,1.846,1.846,0,0,0-1.956.651,1.1,1.1,0,0,0-.262.912V41.21ZM152.165,28.291c-.651,0-1.173-.146-1.825-.146V26.581l5.6-.651a5.431,5.431,0,0,1,.522,2.084V41.178l1.695.391c0,.651-.146,1.173-.146,1.825h-4.809a14.3,14.3,0,0,1-.391-1.434c-.146.146-.262.262-.391.262A5.648,5.648,0,0,1,146.17,43a4,4,0,0,1-2.215-3.127,4.8,4.8,0,0,1-.146-1.434V28.406c-.651-.146-1.3-.146-1.825-.262V26.593l5.474-.651a8.169,8.169,0,0,1,.391,1.825v9.905a3.982,3.982,0,0,0,.146,1.3,2.04,2.04,0,0,0,2.084,1.956c.391,0,.912-.146,1.3-.146a2.111,2.111,0,0,0,1.042-1.3V28.662c-.262-.146-.262-.262-.262-.391ZM61.2,35.719a7.362,7.362,0,0,0,.912,3.78,3.7,3.7,0,0,0,2.737,1.564,9.12,9.12,0,0,0,3.259-.651c.146,0,.262-.146.522-.146.262.522.391,1.042.651,1.564-.262.262-.651.391-.912.651a7.707,7.707,0,0,1-6.517.783,6.246,6.246,0,0,1-4.041-3.649,11.064,11.064,0,0,1-.912-6.127,12.686,12.686,0,0,1,.912-3.78,5.963,5.963,0,0,1,4.43-3.649,5.874,5.874,0,0,1,5.474,1.3,8.079,8.079,0,0,1,1.825,3.259,12.618,12.618,0,0,1,.522,3.78,7.163,7.163,0,0,1-.391,1.3H61.2ZM66.287,33.5c0-.522-.146-.912-.146-1.3a7.523,7.523,0,0,0-.783-2.868,1.942,1.942,0,0,0-3.39-.13,16.884,16.884,0,0,0-.912,4.3v.391l5.213-.391Zm74.688,2.215-8.471.146a3.249,3.249,0,0,0,.146,1.695,4.868,4.868,0,0,0,1.042,2.332,3.026,3.026,0,0,0,2.477,1.173,9.1,9.1,0,0,0,3.127-.522,6.21,6.21,0,0,1,.651-.262c.262.522.391,1.042.651,1.564-.146,0-.146.146-.262.146a8.889,8.889,0,0,1-6,1.564,6.134,6.134,0,0,1-5.344-4.3,11.694,11.694,0,0,1,.146-9.385,6.367,6.367,0,0,1,9.239-3,7.751,7.751,0,0,1,2.215,2.868,14.17,14.17,0,0,1,.783,4.693,7.164,7.164,0,0,1-.391,1.3ZM137.716,33.5a9.337,9.337,0,0,0-.522-3.259,3.248,3.248,0,0,0-.783-1.434c-.651-.912-2.737-.651-3,.522a18.222,18.222,0,0,0-.651,2.868,6.179,6.179,0,0,0-.146,1.695l5.083-.391Zm-26.721,2.215-8.471.146a6.183,6.183,0,0,0,1.173,4.041,2.953,2.953,0,0,0,2.332,1.173,8.615,8.615,0,0,0,3.127-.522,6.209,6.209,0,0,1,.651-.262c.262.522.391,1.042.651,1.564a2.166,2.166,0,0,0-.522.391,8.817,8.817,0,0,1-6.256,1.173A6.108,6.108,0,0,1,99.25,39.9a11.95,11.95,0,0,1-1.042-6,14.545,14.545,0,0,1,.912-4.041,5.952,5.952,0,0,1,3.259-3.388,6.164,6.164,0,0,1,5.474.146,5.9,5.9,0,0,1,2.477,2.868,12.854,12.854,0,0,1,.912,4.955c.146.391-.146.783-.262,1.3ZM107.736,33.5c0-.522-.146-1.042-.146-1.564a6.455,6.455,0,0,0-.783-2.623,1.9,1.9,0,0,0-2.623-.912,1.11,1.11,0,0,0-.651.651,10.023,10.023,0,0,0-.912,3.388c0,.391-.146.783-.146,1.3,1.695,0,3.388-.146,5.213-.262ZM50.109,26.074l.391,1.564c.262-.146.391-.262.651-.391a9.855,9.855,0,0,1,3.78-1.173,1.5,1.5,0,0,1,1.564.651l-.522,4.561c-.912,0-1.825-.146-2.737-.146a13.048,13.048,0,0,1-.262-2.477,2.759,2.759,0,0,0-1.695.651V41.047l1.695.391a6.671,6.671,0,0,1-.146,1.695H45.548V41.437l1.564-.391V28.677c-.651-.146-1.173-.146-1.825-.262V26.593a31.846,31.846,0,0,0,4.809-.522Zm108.833,17.22a6.185,6.185,0,0,1,.146-1.695l1.564-.391V28.826c-.522-.146-1.173-.146-1.825-.262V26.724l4.955-.651.391,1.434,2.084-.912a13.58,13.58,0,0,1,2.215-.522,1.3,1.3,0,0,1,1.564.651l-.522,4.561c-.912,0-1.825-.146-2.737-.146a14.3,14.3,0,0,1-.262-2.477l-1.695.651V41.176l1.695.391c0,.522-.146,1.173-.146,1.695h-7.429ZM94.149,28.681l-1.695.651V41.2l1.695.391c0,.651-.146,1.173-.146,1.695h-7.3V41.586l1.564-.391V28.813c-.651-.146-1.173-.146-1.825-.262V26.724l4.955-.651.391,1.434,1.434-.783a10.4,10.4,0,0,1,2.868-.783,1.941,1.941,0,0,1,1.695.783l-.522,4.561c-.912,0-1.825-.146-2.737-.146l-.391-2.477ZM40.712,22.816v3.519h3.014a11.331,11.331,0,0,0-.146,2.215,21.733,21.733,0,0,0-2.737.262V39.891a1.3,1.3,0,0,0,1.3,1.173h1.695c0,.651.146,1.173.146,1.825a4.642,4.642,0,0,1-1.434.522,8.7,8.7,0,0,1-3.127.146,3.316,3.316,0,0,1-2.868-3V28.827a9,9,0,0,0-1.956-.262,10.027,10.027,0,0,1,.146-2.084c.783,0,1.434-.146,2.215-.146l.912-3.259,2.868-.262Z" transform="translate(-2.535 -18.776)" fill="#d4d4d4" fill-rule="evenodd"/>
</svg>
