<svg id="cnn-logo" xmlns="http://www.w3.org/2000/svg" width="54.728" height="26.055" viewBox="0 0 54.728 26.055">
  <path id="cnn-logo-2" data-name="cnn-logo" d="M54.678,22.057a5.123,5.123,0,0,1-.49,1.656,4.19,4.19,0,0,1-1.784,1.8,3.789,3.789,0,0,1-2.076.461,4.562,4.562,0,0,1-2.1-.427A6.017,6.017,0,0,1,45.843,23.5c-.189-.283-1.53-2.466-2.979-4.852l-2.635-4.338L40.21,18.3c-.018,3.865-.023,4-.149,4.468A4.2,4.2,0,0,1,38.917,24.8a4.031,4.031,0,0,1-2.8,1.247,5.435,5.435,0,0,1-4.549-2.165l-5.851-9.525-.022,3.691c-.023,3.969-.022,3.956-.357,4.881a4,4,0,0,1-1.007,1.562,3.05,3.05,0,0,1-1.021.741,7.053,7.053,0,0,1-1.107.417c-.541.139-.546.139-5.239.156-5.041.018-5.2.01-6.776-.31A12.41,12.41,0,0,1,.852,17.7a15.542,15.542,0,0,1-.738-2.861A16.82,16.82,0,0,1,.1,11.049,12.325,12.325,0,0,1,3.387,4.095,10.627,10.627,0,0,1,6.759,1.625,11.682,11.682,0,0,1,9.345.661,19.01,19.01,0,0,1,14.831.184L17.384.175,17.4,3.427l-2.727.01c-3.3.012-3.894.072-5.281.538a8.97,8.97,0,0,0-4.7,3.689,10.314,10.314,0,0,0-1.422,4.144A13.627,13.627,0,0,0,3.4,15.066a9.075,9.075,0,0,0,3.456,5.571,9.935,9.935,0,0,0,4.9,1.837c.769.082,9.147.055,9.449-.03a1.865,1.865,0,0,0,.891-.642c.377-.517.364-.156.333-8.954-.02-5.774-.01-8.038.039-8.133a.592.592,0,0,1,.948-.18c.1.091.8,1.166,1.556,2.388s2.756,4.414,4.437,7.091,3.479,5.543,4,6.37A18.376,18.376,0,0,0,34.57,22.1a1.346,1.346,0,0,0,2.146-.3l.166-.285V13.175c0-8.924-.014-8.5.292-8.747a.632.632,0,0,1,.673-.012,4.365,4.365,0,0,1,.584.8c3.637,5.506,6.818,11.32,10.548,16.764a1.67,1.67,0,0,0,.922.466,1.215,1.215,0,0,0,1.115-.406c.507-.527.472.422.43-11.453L51.411.054,54.663.043c-.055,7.337.158,14.678.015,22.014Zm-4.1-.879a.65.65,0,0,1-.488.442c-.324,0-.461-.187-2.553-3.514C44.769,13.709,40.566,7,39.57,5.4c-.441-.711-.886-1.38-.991-1.488a1.378,1.378,0,0,0-1.069-.432,1.35,1.35,0,0,0-1.332.887c-.105.239-.11.63-.1,8.522.014,8.067.012,8.277-.1,8.465a.49.49,0,0,1-.856.072c-.072-.078-.437-.628-.813-1.223-1.782-2.826-7.68-12.236-8.775-14C24.86,5.108,24.2,4.1,24.061,3.961a1.318,1.318,0,0,0-1.179-.423,1.271,1.271,0,0,0-1.116.684l-.181.3v8.225c0,8.162,0,8.227-.124,8.437a1.279,1.279,0,0,1-.324.347l-.2.136-4.264.015c-5.13.018-5.5-.012-7.144-.584a8.168,8.168,0,0,1-5.293-6.2,7.263,7.263,0,0,1-.14-1.848A7.257,7.257,0,0,1,4.222,11.2,8.711,8.711,0,0,1,6.506,6.773a8.239,8.239,0,0,1,4.3-2.305A16.791,16.791,0,0,1,14.4,4.3l3-.036.011,3.191-2.695.037c-2.833.038-2.967.051-3.809.347a5.572,5.572,0,0,0-3.463,6.584,6,6,0,0,0,.932,1.9,6.011,6.011,0,0,0,4.261,2.119c.336.033,1.584.057,2.774.053,2.34-.008,2.406-.017,2.7-.338l.15-.164.006-6.936c.006-7.867-.027-7.317.514-8.451a4.461,4.461,0,0,1,5.6-2.273,6.379,6.379,0,0,1,2.785,2.2L32.753,12l.019-4c.019-3.868.023-4.012.149-4.478A4.531,4.531,0,0,1,38.528.166a5.792,5.792,0,0,1,1.719.852,7.8,7.8,0,0,1,1.521,1.609c.227.335,3.612,6.041,5.372,9.055l.187.32-.006-5.966L47.316.069,50.567.057c-.1,7.037.219,14.085.008,21.12Z" transform="translate(0 0)" fill="#d4d4d4"/>
</svg>
