<svg xmlns="http://www.w3.org/2000/svg" width="38" height="38" viewBox="0 0 38 38">
  <g id="Group_25" data-name="Group 25" transform="translate(-234 -674)">
    <circle id="Ellipse_5" data-name="Ellipse 5" cx="19" cy="19" r="19" transform="translate(234 674)" fill="#25772f"/>
    <g id="supermarket" transform="translate(242 685.48)">
      <path id="Path_21" data-name="Path 21" d="M6.1,11.016h9.951a.549.549,0,0,0,.529-.4l2.2-7.711a.55.55,0,0,0-.529-.7H4.824L4.43.431A.551.551,0,0,0,3.892,0H.551a.551.551,0,1,0,0,1.1h2.9l1.989,8.95A1.651,1.651,0,0,0,6.1,13.219h9.951a.551.551,0,0,0,0-1.1H6.1a.551.551,0,0,1,0-1.1Zm0,0" fill="#fff"/>
      <path id="Path_22" data-name="Path 22" d="M151,361.656A1.652,1.652,0,1,0,152.652,360,1.654,1.654,0,0,0,151,361.656Zm0,0" transform="translate(-145.456 -346.785)" fill="#fff"/>
      <path id="Path_23" data-name="Path 23" d="M362,361.656A1.652,1.652,0,1,0,363.656,360,1.654,1.654,0,0,0,362,361.656Zm0,0" transform="translate(-348.712 -346.785)" fill="#fff"/>
    </g>
  </g>
</svg>
