<svg xmlns="http://www.w3.org/2000/svg" width="83.235" height="20.882" viewBox="0 0 83.235 20.882">
  <path id="Path_24" data-name="Path 24" d="M47.185,6.807c0-2.437.042-4.706.168-6.807L40.924,1.218v.588l.63.084a1.159,1.159,0,0,1,.924.462A3.719,3.719,0,0,1,42.857,3.7c.084,1.218.168,3.992.126,8.361,0,4.328-.042,7.059-.126,8.109a26.548,26.548,0,0,0,5.462.714A7.864,7.864,0,0,0,54.243,18.7a8.1,8.1,0,0,0,2.185-5.924A7.388,7.388,0,0,0,54.79,7.857a5.151,5.151,0,0,0-4.118-1.933A8.22,8.22,0,0,0,47.185,6.807Zm.126,12.941c-.084-1.345-.168-5.378-.168-11.975a4.84,4.84,0,0,1,1.513-.21,2.65,2.65,0,0,1,2.4,1.555,7.8,7.8,0,0,1,.882,3.908,10.783,10.783,0,0,1-1.008,4.916c-.672,1.3-1.513,1.975-2.563,1.975A7.861,7.861,0,0,0,47.311,19.748ZM16.807.42H0v.84l.882.084A2.233,2.233,0,0,1,2.311,2.1a3.905,3.905,0,0,1,.5,2.017,79.852,79.852,0,0,1,0,12.689,4.973,4.973,0,0,1-.5,2.017,1.915,1.915,0,0,1-1.429.756L0,19.706v.84H10.84v-.84l-1.134-.084a2.06,2.06,0,0,1-1.429-.756,3.905,3.905,0,0,1-.5-2.017c-.126-1.681-.21-3.613-.21-5.756l2.269.042c1.219.042,2.059.966,2.479,2.815h.84V7.1h-.84c-.42,1.807-1.219,2.731-2.479,2.773l-2.269.042c0-3.781.084-6.471.21-8.109h3.319c2.353,0,3.95,1.513,4.874,4.538l1.008-.294ZM14.832,13.361a8.072,8.072,0,0,0,1.849,5.42,6.606,6.606,0,0,0,5.294,2.1A7.062,7.062,0,0,0,27.437,18.7a7.566,7.566,0,0,0,1.975-5.42,8.072,8.072,0,0,0-1.849-5.42,6.606,6.606,0,0,0-5.294-2.1,7.062,7.062,0,0,0-5.462,2.185A7.565,7.565,0,0,0,14.832,13.361Zm9.37-4.79a12.7,12.7,0,0,1,.714,4.748c0,4.454-.924,6.639-2.731,6.639q-1.387,0-2.143-1.891a12.99,12.99,0,0,1-.714-4.748c0-4.412.924-6.6,2.731-6.6C22.983,6.681,23.7,7.311,24.2,8.571Zm35.5,10.21a7.158,7.158,0,0,0,5.252,2.1,7.07,7.07,0,0,0,3.445-.8,6.325,6.325,0,0,0,2.353-1.891l-.42-.5a5.033,5.033,0,0,1-3.193,1.05,4.6,4.6,0,0,1-3.866-1.681,6.213,6.213,0,0,1-1.26-4.412h8.992a7.609,7.609,0,0,0-1.555-4.958A5.426,5.426,0,0,0,65.042,5.8,6.909,6.909,0,0,0,59.58,8.025a7.866,7.866,0,0,0-1.933,5.42A7.187,7.187,0,0,0,59.706,18.781ZM62.815,8.235c.462-1.008,1.05-1.513,1.849-1.513,1.261,0,1.891,1.6,1.891,4.832l-4.454.084A8.784,8.784,0,0,1,62.815,8.235Zm19.5-1.681a10.54,10.54,0,0,0-4.286-.8,6.3,6.3,0,0,0-4.2,1.345,4.137,4.137,0,0,0-1.6,3.277,3.589,3.589,0,0,0,.966,2.647,7.963,7.963,0,0,0,2.941,1.639,7.99,7.99,0,0,1,2.437,1.219,2.085,2.085,0,0,1,0,3.067,2.252,2.252,0,0,1-1.765.672c-1.849,0-3.235-1.344-4.2-4.034l-.714.21.168,4.2a13.805,13.805,0,0,0,5.042.882,6.905,6.905,0,0,0,4.5-1.3,4.278,4.278,0,0,0,1.639-3.571,3.665,3.665,0,0,0-.8-2.479,6.886,6.886,0,0,0-2.689-1.681,10.5,10.5,0,0,1-2.857-1.387,1.929,1.929,0,0,1-.756-1.555,2.2,2.2,0,0,1,.546-1.555,1.786,1.786,0,0,1,1.429-.588c1.681,0,2.9,1.218,3.655,3.613l.714-.21Zm-40.42-.378a4.207,4.207,0,0,0-1.933-.42,3.774,3.774,0,0,0-2.227.882,5.678,5.678,0,0,0-1.849,2.479l.042-3.361-6.387,1.26v.588l.63.042c.8.084,1.26.714,1.345,1.849a45.809,45.809,0,0,1,0,8.319c-.084,1.134-.546,1.723-1.345,1.849l-.63.084v.8h8.908v-.8l-1.135-.084c-.8-.084-1.26-.714-1.344-1.849a42.93,42.93,0,0,1-.084-7.731,2.024,2.024,0,0,1,1.639-.756,4.757,4.757,0,0,1,2.815.756Z" fill="#8996a4"/>
</svg>
