<svg xmlns="http://www.w3.org/2000/svg" width="138.075" height="27.155" viewBox="0 0 138.075 27.155">
  <g id="Group_28" data-name="Group 28" transform="translate(-104.302 -0.039)">
    <path id="Path_25" data-name="Path 25" d="M104.5,18.472l1.745-.279V2.042L104.3,1.788l.1-1.749H116.6l-.3,4.893-2.429-.076-.152-3.068h-3.769V9.065h1.644l.38-1.673,1.695.051v5.02h-1.695l-.4-1.724h-1.644v7.708h3.794l.354-3.347,2.555.076.2,5.1h-12.4Z" fill="#FFF"/>
    <path id="Path_26" data-name="Path 26" d="M117.963,20.3l.076-1.5,1.366-.279V8.33l-1.594-.152V6.656l4-.583.3.862v.583A4.8,4.8,0,0,1,125.729,5.9a3.573,3.573,0,0,1,3.8,3.93V18.5l1.442.279-.076,1.5h-4.756V10.586c0-1.394-.506-2.18-1.771-2.18a2.732,2.732,0,0,0-1.062.2,4.868,4.868,0,0,0-.582.659v9.28l1.442.279-.1,1.5h-6.1Z" fill="#FFF"/>
    <path id="Path_27" data-name="Path 27" d="M194.387,20.3l.051-1.5,1.366-.279V8.33l-1.594-.152V6.656l4-.583.3.862v.583A4.8,4.8,0,0,1,202.128,5.9a3.573,3.573,0,0,1,3.795,3.93V18.5l1.442.279-.076,1.5h-4.73V10.586c0-1.394-.506-2.18-1.771-2.18a2.741,2.741,0,0,0-1.063.2,4.936,4.936,0,0,0-.582.659v9.28l1.442.279-.1,1.5h-6.1Z" fill="#FFF"/>
    <path id="Path_28" data-name="Path 28" d="M138.505,20.018a7.732,7.732,0,0,1-2.834.482,2.93,2.93,0,0,1-3.263-3.245V8.33l-1.619-.254.076-1.775,1.821-.076.784-2.713,2.328-.1V6.327h2.5L138.125,8.1l-2.3.254V17.28a1.093,1.093,0,0,0,1.164,1.217h1.366Z" fill="#FFF"/>
    <path id="Path_29" data-name="Path 29" d="M233.194,20.3l.051-1.471,1.29-.3V8.33l-1.518-.152V6.656l4.149-.583.278.989v.33a7.15,7.15,0,0,1,4.326-1.344l.607.532-.43,3.854-2.277-.076L239.442,8.3a3.307,3.307,0,0,0-1.467.532v9.711l1.442.3-.1,1.471h-6.122Z" fill="#FFF"/>
    <path id="Path_30" data-name="Path 30" d="M173.618,20.3l.076-1.471,1.29-.3V8.33l-1.518-.152V6.656l4.149-.583.278.989v.33a7.15,7.15,0,0,1,4.326-1.344l.607.532-.48,3.854-2.277-.076L179.841,8.3a3.308,3.308,0,0,0-1.467.532v9.711l1.442.3-.1,1.471h-6.1Z" fill="#FFF"/>
    <path id="Path_31" data-name="Path 31" d="M139.517,20.3l.076-1.471,1.29-.3V8.33l-1.518-.152V6.656l4.149-.583.278.989v.33a7.127,7.127,0,0,1,4.3-1.344l.607.532-.43,3.854-2.277-.076L145.765,8.3a3.307,3.307,0,0,0-1.467.532v9.711l1.442.3-.1,1.471h-6.122Z" fill="#FFF"/>
    <path id="Path_32" data-name="Path 32" d="M152.621,14.085c0,2.434,1.062,4.31,3.162,4.31a6.443,6.443,0,0,0,2.96-.71l.582,1.344a7.035,7.035,0,0,1-4.453,1.471c-3.693,0-5.818-3.195-5.818-7.3,0-3.5,1.543-7.327,5.768-7.327,3.693,0,5.085,3.423,5.085,7.226l-.355.913Zm-.051-1.623,4.25-.2c-.076-1.7-.43-4.386-2.1-4.386a2.353,2.353,0,0,0-1.189.33A10.223,10.223,0,0,0,152.57,12.462Z" fill="#FFF"/>
    <path id="Path_33" data-name="Path 33" d="M211.413,14.085c0,2.434,1.062,4.31,3.162,4.31a6.443,6.443,0,0,0,2.96-.71l.582,1.344a7.037,7.037,0,0,1-4.453,1.471c-3.693,0-5.818-3.195-5.818-7.3,0-3.5,1.543-7.327,5.768-7.327,3.693,0,5.085,3.423,5.085,7.226l-.355.913Zm-.051-1.623,4.25-.2c-.076-1.7-.43-4.386-2.1-4.386a2.35,2.35,0,0,0-1.189.33A10.207,10.207,0,0,0,211.362,12.462Z" fill="#FFF"/>
    <path id="Path_34" data-name="Path 34" d="M186.722,14.085c0,2.434,1.063,4.31,3.162,4.31a6.443,6.443,0,0,0,2.96-.71l.582,1.344a7.034,7.034,0,0,1-4.452,1.471c-3.694,0-5.819-3.195-5.819-7.3,0-3.5,1.543-7.327,5.768-7.327,3.693,0,5.085,3.423,5.085,7.226l-.354.913Zm-.05-1.623,4.25-.2c-.076-1.7-.431-4.386-2.1-4.386a2.353,2.353,0,0,0-1.189.33A9.832,9.832,0,0,0,186.672,12.462Z" fill="#FFF"/>
    <path id="Path_35" data-name="Path 35" d="M228.261,20.3l-.355-1.217a4.385,4.385,0,0,1-3.263,1.42c-2.176,0-4.123-1.09-4.123-4.108V7.975l-1.594-.152V6.479l4.6-.532.354,1.217v8.823c0,1.547.633,2.358,1.872,2.358a3.581,3.581,0,0,0,1.214-.2,4.76,4.76,0,0,0,.633-.786V7.975l-1.644-.152V6.479l4.654-.532.354,1.217V18.522l1.442.279-.177,1.5Z" fill="#FFF"/>
    <path id="Path_36" data-name="Path 36" d="M166.813,18.472a3.6,3.6,0,0,1-1.771-.38V9.141A7.3,7.3,0,0,1,165.7,8.3a3.572,3.572,0,0,1,1.264-.2c1.9,0,2.227,1.927,2.227,5.375,0,3.322-.506,4.234-.633,4.615A3.921,3.921,0,0,1,166.813,18.472Zm5.666-5.6c0-4.285-1.265-6.972-4.427-6.972a4.188,4.188,0,0,0-3.491,1.724V7.138l-.354-1.217-4.124.583V7.975l1.594.2V25.469l-1.366.279-.076,1.445h6.1l.1-1.445-1.442-.279V19.993a4.725,4.725,0,0,0,2.277.532C172.429,20.525,172.479,15.277,172.479,12.868Z" fill="#FFF"/>
  </g>
</svg>
