<svg xmlns="http://www.w3.org/2000/svg" width="223.667" height="223.667" viewBox="0 0 223.667 223.667">
    <path fill="#f3f3f3" d="M223.667 111.833A111.833 111.833 0 1 1 111.833 0a111.833 111.833 0 0 1 111.834 111.833zm-201.3 0a89.467 89.467 0 1 0 89.467-89.467 89.466 89.466 0 0 0-89.467 89.467z"/>
    <path fill="#00ccf2" d="M72.5 11C72.5 4.828 77.519-.237 83.665.38A111.833 111.833 0 0 1 184.233 116.4c-.262 6.171-5.988 10.42-12.1 9.543-6.113-.877-10.286-6.553-10.178-12.728a89.467 89.467 0 0 0-78.3-90.329C77.526 22.116 72.5 17.181 72.5 11z" transform="translate(39.333 .179)"/>
</svg>
