<svg xmlns="http://www.w3.org/2000/svg" width="224" height="224" viewBox="0 0 224 224">
    <path fill="#f3f3f3" d="M224 112A112 112 0 1 1 112 0a112 112 0 0 1 112 112zm-201.6 0A89.6 89.6 0 1 0 112 22.4 89.6 89.6 0 0 0 22.4 112z"/>
    <path fill="#fda600" d="M72.5 11.021C72.5 4.835 77.527-.237 83.682.38a111.992 111.992 0 0 1 31.408 7.854c5.722 2.352 7.769 9.194 4.857 14.651-2.91 5.457-9.678 7.449-15.456 5.24a89.6 89.6 0 0 0-20.82-5.205c-6.137-.771-11.171-5.713-11.171-11.9z" transform="translate(39.5 .179)"/>
</svg>
