<svg xmlns="http://www.w3.org/2000/svg" width="24" height="24" viewBox="0 0 24 24">
  <g id="Group_9" data-name="Group 9" transform="translate(-137 -785)">
    <circle id="Ellipse_11" data-name="Ellipse 11" cx="12" cy="12" r="12" transform="translate(137 785)" fill="#5fa1de"/>
    <path id="_" d="M2.727,8.508a4.691,4.691,0,0,1,.266-1.742,3.557,3.557,0,0,1,.969-1.273,5.081,5.081,0,0,0,.945-1.023,1.625,1.625,0,0,0,.234-.836q0-1.32-1.219-1.32a1.242,1.242,0,0,0-.93.359,1.39,1.39,0,0,0-.359.977H.367a3.015,3.015,0,0,1,.961-2.336A3.774,3.774,0,0,1,3.922.469a3.763,3.763,0,0,1,2.57.8,2.835,2.835,0,0,1,.914,2.258,2.775,2.775,0,0,1-.3,1.258,5.2,5.2,0,0,1-1.039,1.3l-.633.6a2.143,2.143,0,0,0-.68,1.336l-.031.477Zm-.227,2.4a1.136,1.136,0,0,1,.352-.859A1.269,1.269,0,0,1,3.766,9.7a1.242,1.242,0,0,1,.906.344,1.207,1.207,0,0,1,.008,1.711,1.251,1.251,0,0,1-.914.336,1.279,1.279,0,0,1-.922-.336A1.14,1.14,0,0,1,2.5,10.906Z" transform="translate(144.633 790.531)" fill="#e9f8ff"/>
  </g>
</svg>
