<svg id="export_-_lifedna_logo" data-name="export - lifedna logo" xmlns="http://www.w3.org/2000/svg" width="116" height="29.421" viewBox="0 0 116 29.421">
  <path id="Path_1" data-name="Path 1" d="M79.047,9.75A1.541,1.541,0,0,1,80.6,8.2h3.955c4.439,0,7.506,3.047,7.506,7.021v.04c0,3.975-3.068,7.062-7.506,7.062H80.6a1.541,1.541,0,0,1-1.553-1.553Zm5.508,9.765A4.024,4.024,0,0,0,88.813,15.3v-.04A4.056,4.056,0,0,0,84.556,11h-2.4v8.515h2.4Z" transform="translate(-8.466 -0.878)" fill="#7ba1ad"/>
  <path id="Path_2" data-name="Path 2" d="M97.1,9.655A1.541,1.541,0,0,1,98.656,8.1h.323a1.923,1.923,0,0,1,1.613.908l5.992,7.869V9.594a1.533,1.533,0,0,1,3.066,0V20.833a1.541,1.541,0,0,1-1.554,1.553H108a1.923,1.923,0,0,1-1.613-.908l-6.215-8.152v7.567a1.533,1.533,0,1,1-3.066,0Z" transform="translate(-10.4 -0.863)" fill="#7ba1ad"/>
  <path id="Path_3" data-name="Path 3" d="M114.434,20.3l4.924-11.118a1.922,1.922,0,0,1,1.816-1.231h.181a1.894,1.894,0,0,1,1.8,1.231L128.075,20.3a1.519,1.519,0,0,1,.162.625,1.472,1.472,0,0,1-1.472,1.493,1.581,1.581,0,0,1-1.492-1.07l-.949-2.22H118.11l-.989,2.32a1.526,1.526,0,0,1-1.431.969,1.429,1.429,0,0,1-1.432-1.452A1.563,1.563,0,0,1,114.434,20.3Zm8.738-3.915-1.957-4.661-1.957,4.661Z" transform="translate(-12.237 -0.851)" fill="#7ba1ad"/>
  <path id="Path_4" data-name="Path 4" d="M2.863,8.583H16.215s5.428-.359,5.425,4.7V16.9l-5.118,0,0-3.211-2.554,0H13.4c-1.6,0-3.582,0-5.415,0H7.426c-2.085,0-3.89,0-4.563,0A2.571,2.571,0,1,1,2.863,8.583Z" transform="translate(0 -0.919)" fill="#7ba1ad"/>
  <path id="Path_5" data-name="Path 5" d="M27.107,23.458H13.755s-5.428.359-5.424-4.7v-3.61h5.118l0,3.2,2.554,0h.558c1.6,0,3.582,0,5.415,0h.561c2.085,0,3.89,0,4.563,0A2.572,2.572,0,1,1,27.107,23.458Z" transform="translate(-0.892 -1.622)" fill="#7ba1ad"/>
  <path id="Path_6" data-name="Path 6" d="M13.47,2.827,13.45,6.91H8.339c0-1.818.023-3.394.022-4.011C8.347-.918,13.47-.99,13.47,2.827Z" transform="translate(-0.893 0)" fill="#7ba1ad"/>
  <path id="Path_7" data-name="Path 7" d="M23.62,29.265a2.577,2.577,0,1,1-5.123,0V25.3h5.124C23.62,27.118,23.619,28.648,23.62,29.265Z" transform="translate(-1.981 -2.709)" fill="#7ba1ad"/>
  <path id="Path_8" data-name="Path 8" d="M47.378,20.658v1.573H39.37V7.744h1.656V20.658Z" transform="translate(-4.217 -0.829)" fill="#7ba1ad"/>
  <path id="Path_9" data-name="Path 9" d="M53,8.12a1.057,1.057,0,1,1-2.111,0A1.057,1.057,0,1,1,53,8.12ZM51.157,22.15V11.245h1.594V22.152H51.157Z" transform="translate(-5.45 -0.75)" fill="#7ba1ad"/>
  <path id="Path_10" data-name="Path 10" d="M59.266,10.133V11.54h3.125v1.325H59.266v9.251H57.672V12.865H56.265V11.54h1.407v-1.2a3.433,3.433,0,0,1,3.5-3.663,4.092,4.092,0,0,1,2.338.766l-.662,1.3a2.949,2.949,0,0,0-1.656-.558A1.827,1.827,0,0,0,59.266,10.133Z" transform="translate(-6.026 -0.715)" fill="#7ba1ad"/>
  <path id="Path_11" data-name="Path 11" d="M74.1,17.832h-8.9a3.82,3.82,0,0,0,3.952,3.476,4.556,4.556,0,0,0,3.374-1.365l.889.952a5.73,5.73,0,0,1-4.388,1.821,5.215,5.215,0,0,1-5.421-5.505,5.222,5.222,0,0,1,5.4-5.505C72.531,11.687,74.269,14.127,74.1,17.832Zm-1.449-1.325a3.4,3.4,0,0,0-3.643-3.414,3.68,3.68,0,0,0-3.808,3.414Z" transform="translate(-6.813 -1.254)" fill="#7ba1ad"/>
</svg>
