<svg xmlns="http://www.w3.org/2000/svg" width="62" height="62" viewBox="0 0 62 62">
    <circle cx="31" cy="31" r="31" fill="#efefef"/>
    <path fill="#fda600" d="M-191.548 1195.067a4.429 4.429 0 0 1 3.27-4.276v-4.347h-12.184V1192h3.322v6.563H-206V1192h3.323v-6.666a1.11 1.11 0 0 1 1.108-1.111h13.291v-5.556h-3.322V1172h8.861v6.667h-3.322v5.556h13.291a1.11 1.11 0 0 1 1.108 1.111V1192h3.322v6.562h-8.86V1192h3.323v-5.556h-12.184v4.321a4.429 4.429 0 0 1 3.372 4.3 4.429 4.429 0 0 1-4.429 4.429 4.429 4.429 0 0 1-4.429-4.429z" transform="translate(218 -1155)"/>
</svg>
