<svg xmlns="http://www.w3.org/2000/svg" id="engage" width="62" height="62" viewBox="0 0 62 62">
    <defs>
        <style>
            .cls-2{fill:#fda600}
        </style>
    </defs>
    <circle id="Эллипс_4" cx="31" cy="31" r="31" fill="#efefef"/>
    <g id="conversation" transform="translate(15 -.996)">
        <path id="Контур_51" d="M20.679 23.081A10.9 10.9 0 0 0 0 27.857 10.744 10.744 0 0 0 1.04 32.5L.019 37.6a.931.931 0 0 0 1.093 1.1l5.168-1.022a10.708 10.708 0 0 0 2.156.754 12.736 12.736 0 0 1 12.243-15.351z" class="cls-2"/>
        <path id="Контур_52" d="M182.221 160.5a10.825 10.825 0 0 0 .466-1.149h-.034a10.873 10.873 0 0 0-9.779-14.34 10.86 10.86 0 1 0-.522 21.709 10.742 10.742 0 0 0 4.628-1.039c5.66 1.119 5.219 1.04 5.349 1.04a.931.931 0 0 0 .913-1.113z" class="cls-2" transform="translate(-151.484 -120.062)"/>
    </g>
</svg>
