<svg xmlns="http://www.w3.org/2000/svg" id="updates" width="62" height="62" viewBox="0 0 62 62">
    <defs>
        <style>
            .cls-2{fill:#fda600}
        </style>
    </defs>
    <circle id="Эллипс_4" cx="31" cy="31" r="31" fill="#efefef"/>
    <g id="loop" transform="translate(15.896 16)">
        <g id="Сгруппировать_45" transform="translate(.104)">
            <g id="Сгруппировать_44">
                <path id="Контур_48" d="M20.118 5.813L14.583.277a.875.875 0 0 0-1-.2.92.92 0 0 0-.572.849v2.765h-.923A12.006 12.006 0 0 0 .209 17.271 11.545 11.545 0 0 0 4 24.416a.923.923 0 0 0 1.26-.055L7.826 21.8a.9.9 0 0 0-.02-1.316 6.189 6.189 0 0 1-2.024-3.449 6.447 6.447 0 0 1 6.31-7.805h.923v2.768a.92.92 0 0 0 .572.849.875.875 0 0 0 1-.2L20.118 7.1a.892.892 0 0 0 0-1.287z" class="cls-2" transform="translate(-.104)"/>
            </g>
        </g>
        <g id="Сгруппировать_47" transform="translate(9.324 4.885)">
            <g id="Сгруппировать_46">
                <path id="Контур_49" d="M180.2 92.094a11.54 11.54 0 0 0-3.792-7.144.923.923 0 0 0-1.26.055l-2.565 2.565a.9.9 0 0 0 .02 1.316 6.212 6.212 0 0 1 2.024 3.449 6.447 6.447 0 0 1-6.31 7.805h-.923v-2.769a.92.92 0 0 0-.572-.849.875.875 0 0 0-1 .2l-5.535 5.535a.892.892 0 0 0 0 1.292l5.535 5.535a.875.875 0 0 0 1 .2.92.92 0 0 0 .572-.849v-2.768h.923A12.006 12.006 0 0 0 180.2 92.094z" class="cls-2" transform="translate(-160.012 -84.727)"/>
            </g>
        </g>
    </g>
</svg>
