<svg xmlns="http://www.w3.org/2000/svg" width="62" height="62" viewBox="0 0 62 62">
    <circle cx="31" cy="31" r="31" fill="#efefef"/>
    <g>
        <g>
            <path fill="#fda600" d="M96.7 12.083H83.147V7.717A4.707 4.707 0 0 1 86.76 3.05a4.612 4.612 0 0 1 5.42 4.517 1.506 1.506 0 0 0 3.011 0 7.56 7.56 0 0 0-8.28-7.529 7.817 7.817 0 0 0-6.775 7.829v4.216h-1.505a1.509 1.509 0 0 0-1.506 1.506v15.055a1.619 1.619 0 0 0 1.506 1.506H96.7a1.509 1.509 0 0 0 1.5-1.506V13.588a1.422 1.422 0 0 0-1.5-1.505zM89.17 22.17v1.957a1.506 1.506 0 1 1-3.011 0V22.17a3.105 3.105 0 0 1-1.506-2.559 2.983 2.983 0 0 1 3.764-2.861 3.393 3.393 0 0 1 2.258 2.258 2.931 2.931 0 0 1-1.505 3.162z" transform="translate(-57.125 16) translate(77.125) translate(-77.125)"/>
        </g>
    </g>
</svg>
