<svg xmlns="http://www.w3.org/2000/svg" width="62" height="62" viewBox="0 0 62 62">
    <g transform="translate(-972 -947)">
        <circle cx="31" cy="31" r="31" fill="#efefef" transform="translate(972 947)"/>
        <path fill="#fda600" d="M14.167 0H2.5A2.5 2.5 0 0 0 0 2.5v21.667a2.5 2.5 0 0 0 2.5 2.5h11.667a2.5 2.5 0 0 0 2.5-2.5V2.5a2.5 2.5 0 0 0-2.5-2.5zM8.333 25A1.667 1.667 0 1 1 10 23.333 1.665 1.665 0 0 1 8.333 25zm5.833-5.625a.627.627 0 0 1-.625.625H3.125a.627.627 0 0 1-.625-.625V3.125a.627.627 0 0 1 .625-.625h10.417a.627.627 0 0 1 .625.625z" transform="translate(995 965)"/>
    </g>
</svg>
