<svg xmlns="http://www.w3.org/2000/svg" id="_1-on-1" width="62" height="62" viewBox="0 0 62 62">
    <defs>
        <style>
            .cls-2{fill:#fda600}
        </style>
    </defs>
    <circle id="Эллипс_4" cx="31" cy="31" r="31" fill="#efefef"/>
    <g id="consult" transform="translate(15 15)">
        <circle id="Эллипс_6" cx="4.076" cy="4.076" r="4.076" class="cls-2" transform="translate(4.659 16.693)"/>
        <path id="Контур_44" d="M31 398.528a.932.932 0 0 0 .933.933h11.191a.932.932 0 0 0 .933-.933 6.528 6.528 0 1 0-13.057 0z" class="cls-2" transform="translate(-29.073 -367.628)"/>
        <ellipse id="Эллипс_7" cx="3.494" cy="4.076" class="cls-2" rx="3.494" ry="4.076" transform="translate(19.799 16.693)"/>
        <path id="Контур_45" d="M271 398.528a.932.932 0 0 0 .933.933h11.191a.932.932 0 0 0 .933-.933 6.528 6.528 0 1 0-13.057 0z" class="cls-2" transform="translate(-254.151 -367.628)"/>
        <path id="Контур_46" d="M29.036 0H2.8A2.8 2.8 0 0 0 0 2.8v7.461a2.8 2.8 0 0 0 2.8 2.8h3.342l1.592 1.592a.932.932 0 0 0 1.319 0l1.592-1.592h10.543l1.592 1.592a.932.932 0 0 0 1.319 0l1.592-1.592h3.344a2.8 2.8 0 0 0 2.8-2.8V2.8A2.8 2.8 0 0 0 29.036 0zM12.124 9.326H4.663a.933.933 0 0 1 0-1.865h7.461a.933.933 0 0 1 0 1.865zm0-3.73H4.663a.933.933 0 0 1 0-1.865h7.461a.933.933 0 0 1 0 1.865zm15.046 3.73h-7.461a.933.933 0 0 1 0-1.865h7.461a.933.933 0 1 1 0 1.865zm0-3.73h-7.461a.933.933 0 0 1 0-1.865h7.461a.933.933 0 1 1 0 1.865z" class="cls-2"/>
    </g>
</svg>
