<svg id="fees" xmlns="http://www.w3.org/2000/svg" width="62" height="62" viewBox="0 0 62 62">
  <defs>
    <style>
      .cls-1 {
        fill: #efefef;
      }

      .cls-2 {
        fill: #fda600;
      }
    </style>
  </defs>
  <circle id="Эллипс_3" data-name="Эллипс 3" class="cls-1" cx="31" cy="31" r="31"/>
  <g id="Сгруппировать_40" data-name="Сгруппировать 40" transform="translate(-240 -1051)">
    <path id="Вычитание_1" data-name="Вычитание 1" class="cls-2" d="M9461.883,6728.261h-.013a1.814,1.814,0,0,1-1.324-.578,2.019,2.019,0,0,1-.547-1.407l.02-4.23a1.973,1.973,0,0,1,1.9-2l6.313-.034h.215l1.957-.012a.3.3,0,0,1,.084.012h6.055l4.042,4.286-3.7,3.919h-6.841Zm2.832-3.1a.365.365,0,0,0-.354.374.382.382,0,0,0,.1.264.351.351,0,0,0,.252.11h.361v.23a.382.382,0,0,0,.1.264.339.339,0,0,0,.25.11.365.365,0,0,0,.354-.374v-.237a1.1,1.1,0,0,0-.109-2.179h-.488a.336.336,0,0,1-.327-.343.345.345,0,0,1,.1-.245.317.317,0,0,1,.23-.1h.826a.374.374,0,0,0,0-.747h-.229v-.23a.355.355,0,1,0-.709,0v.235a1,1,0,0,0-.621.314,1.129,1.129,0,0,0,0,1.543.993.993,0,0,0,.732.321h.488a.345.345,0,0,1,0,.688Zm10.711-1.919a1.1,1.1,0,1,0,1.044,1.1A1.075,1.075,0,0,0,9475.426,6723.241Z" transform="translate(-11179.534 3024.627) rotate(-45)"/>
    <g id="block" transform="translate(252 1063)">
      <g id="Сгруппировать_39" data-name="Сгруппировать 39">
        <path id="Контур_42" data-name="Контур 42" class="cls-2" d="M32.666,5.668A19.015,19.015,0,0,0,19.167,0,19.167,19.167,0,1,0,38.333,19.167,19.015,19.015,0,0,0,32.666,5.668Zm-13.5,28.1a14.6,14.6,0,0,1-11.792-23.2L27.769,30.936A14.314,14.314,0,0,1,19.167,33.766Zm11.77-6L10.564,7.375a14.6,14.6,0,0,1,23.2,11.792A14.314,14.314,0,0,1,30.936,27.769Z"/>
      </g>
    </g>
  </g>
</svg>
