<svg xmlns="http://www.w3.org/2000/svg" width="227.33" height="144.05" viewBox="0 0 227.33 144.05">
  <g id="_10" data-name="10" transform="translate(-478 -1188)">
    <g id="Сгруппировать_1357" data-name="Сгруппировать 1357" transform="translate(20 -4)">
      <rect id="Прямоугольник_1032" data-name="Прямоугольник 1032" width="105.327" height="105.327" rx="52.663" transform="translate(458 1211)" fill="#f1fbf3"/>
      <path id="Icon_metro-female" data-name="Icon metro-female" d="M24.54,27.156v4.678h5.677v5.677H24.54v5.677H18.777V37.511H13.1V31.834h5.675v-4.7a11.3,11.3,0,1,1,5.763.017Zm-2.9-16.664a5.675,5.675,0,1,0,5.677,5.675A5.675,5.675,0,0,0,21.644,10.492Z" transform="translate(488.708 1239.185)" fill="#96c09f"/>
      <rect id="Прямоугольник_1033" data-name="Прямоугольник 1033" width="105.327" height="105.327" rx="52.663" transform="translate(580 1211)" fill="#f1fbf3"/>
      <path id="Icon_awesome-baby-carriage" data-name="Icon awesome-baby-carriage" d="M27.37,1.267A2.8,2.8,0,0,1,31.4.567a17.564,17.564,0,0,1,6.768,13.745H19.082ZM1.193,7.156H4.77a4.775,4.775,0,0,1,4.77,4.77V16.7H38.163a13.217,13.217,0,0,1-4.495,9.742A5.955,5.955,0,1,1,26.237,32.2a6.023,6.023,0,0,1,.328-1.878,19.3,19.3,0,0,1-10.2,0A5.815,5.815,0,0,1,16.7,32.2a5.963,5.963,0,1,1-7.431-5.762A13.217,13.217,0,0,1,4.77,16.7v-4.77H1.193A1.2,1.2,0,0,1,0,10.734V8.348A1.2,1.2,0,0,1,1.193,7.156ZM32.2,34.586A2.385,2.385,0,1,0,29.815,32.2,2.392,2.392,0,0,0,32.2,34.586ZM8.348,32.2a2.385,2.385,0,1,0,2.385-2.385A2.392,2.392,0,0,0,8.348,32.2Z" transform="translate(614 1244.209)" fill="#96c09f"/>
      <rect id="Прямоугольник_1031" data-name="Прямоугольник 1031" width="105.327" height="105.327" rx="52.663" transform="translate(518.673 1211)" fill="#dff0e3"/>
      <g id="Сгруппировать_1356" data-name="Сгруппировать 1356" transform="translate(548 1240)">
        <path id="Контур_748" data-name="Контур 748" d="M9.4,22.038C9.848,48,37.152,48,37.6,22.038ZM32.452,43.3a16.264,16.264,0,0,1-17.9,0H0C0,7.938,14.1,1,23.5,1S47,8.162,47,43.3Z" transform="translate(0 0)" fill="#25772f"/>
      </g>
    </g>
  </g>
</svg>
