<svg xmlns="http://www.w3.org/2000/svg" width="134.008" height="145" viewBox="0 0 134.008 145">
  <g id="Сгруппировать_791" data-name="Сгруппировать 791" transform="translate(-444 -385)">
    <g id="Nutrition_dashboard" data-name="Nutrition dashboard" transform="translate(441.876 391.717)">
      <circle id="Эллипс_14" data-name="Эллипс 14" cx="56.096" cy="56.096" r="56.096" transform="translate(9.354 9.508)" fill="#f8f8f8"/>
      <circle id="Эллипс_15" data-name="Эллипс 15" cx="38.489" cy="38.489" r="38.489" transform="translate(26.551 27.524)" fill="#e8e8e8"/>
      <path id="Контур_20" data-name="Контур 20" d="M51.525,26.891c-2.938.1-5.252,2.134-5.168,4.539a8.063,8.063,0,0,0,5.09,7.085.484.484,0,0,0,.967-.034A7.983,7.983,0,0,0,57,31.058C56.912,28.653,54.462,26.788,51.525,26.891Zm-.45.984a1.217,1.217,0,0,1,.487.083,1.213,1.213,0,0,1,.48-.117,1.108,1.108,0,0,1,.75.24,1.227,1.227,0,0,1,.226-.031.979.979,0,0,1,.925.455c.021,0,.04,0,.058-.006a.873.873,0,0,1,.992.691.527.527,0,0,1-.009.1.648.648,0,0,1,.044,1.26.551.551,0,0,1,.016.1c.014.4-.407.74-.942.758a.539.539,0,0,1-.059,0,.976.976,0,0,1-.891.521,1.239,1.239,0,0,1-.227-.015,1.109,1.109,0,0,1-.732.291,1.213,1.213,0,0,1-.487-.083,1.214,1.214,0,0,1-.48.117,1.108,1.108,0,0,1-.75-.239,1.235,1.235,0,0,1-.225.031.975.975,0,0,1-.926-.458c-.022,0-.04.007-.058.008a.874.874,0,0,1-.994-.691.562.562,0,0,1,.01-.1.648.648,0,0,1-.044-1.26.53.53,0,0,1-.017-.095c-.014-.4.408-.74.943-.759.018,0,.037,0,.059,0a.978.978,0,0,1,.892-.519,1.229,1.229,0,0,1,.227.015A1.109,1.109,0,0,1,51.075,27.875Zm.517.95c-.8.028-1.439.376-1.425.777s.674.7,1.476.675,1.439-.376,1.425-.777S52.393,28.8,51.593,28.825Z" fill="#cfcfcf"/>
      <path id="Контур_21" data-name="Контур 21" d="M120.588,63.053a.616.616,0,0,0,.125.612,8.867,8.867,0,0,1,.541.992,12.963,12.963,0,0,0,1.038,1.763,10.1,10.1,0,0,0,4.951,3.643.618.618,0,1,0,.422-1.161,8.765,8.765,0,0,1-4.368-3.2,11.045,11.045,0,0,1-.808-1.353,5.9,5.9,0,0,0,1.033.1,20.151,20.151,0,0,0,6.164-.164.626.626,0,0,0,.486-.405.617.617,0,0,0-.728-.806,20.726,20.726,0,0,1-2.975.279,5.59,5.59,0,0,0,1.186-1.643l.012-.034a.619.619,0,0,0-.4-.8,5.057,5.057,0,0,0-3.253.19,4.718,4.718,0,0,0-1.943,1.828c-.216-.06-.427-.127-.636-.2a.616.616,0,0,0-.576.032c-.017.011-.034.02-.052.034a.329.329,0,0,0-.046.039l-.04.036a.034.034,0,0,1-.011.016.272.272,0,0,0-.031.04.339.339,0,0,0-.031.045.267.267,0,0,0-.015.03.009.009,0,0,0-.006.006v0a.535.535,0,0,0-.023.052v0A.163.163,0,0,1,120.588,63.053Zm7.6,8.012c-.38,1.044.664,2.212,1.687,2.584a3.087,3.087,0,0,0,2.111-5.8c-1.023-.373-2.573-.149-2.953.9-.128.351.069.729-.127,1.267S128.316,70.723,128.191,71.065Zm2.112-5.8a1.508,1.508,0,0,0,.118,1.213,4.217,4.217,0,0,1,3.692,1.352,3.073,3.073,0,0,0-.013-5.78c-1.023-.373-2.573-.149-2.953.9-.128.351.069.727-.127,1.267S130.427,64.923,130.3,65.265Z" fill="#cfcfcf"/>
      <path id="Контур_22" data-name="Контур 22" d="M42.424,81.353a.892.892,0,0,0-.525-.4L36.455,79.5a.921.921,0,0,0-.343-.022,14.8,14.8,0,0,1-5.064-.368,16.664,16.664,0,0,1-4.758-2.272A.962.962,0,0,0,26,76.695l-5.825-1.562a.878.878,0,0,0-1.072.619,12.121,12.121,0,1,0,23.417,6.274A.875.875,0,0,0,42.424,81.353Zm-1.987,1.018a10.226,10.226,0,0,1-19.7-5.28l4.342,1.165a5.712,5.712,0,0,0,11.014,2.963l.037,0Zm-6.872-.652a.436.436,0,1,1-.595-.159A.434.434,0,0,1,33.565,81.719Zm-1.512.873a.436.436,0,1,1-.595-.159A.434.434,0,0,1,32.053,82.592Zm-1.948.117a.436.436,0,1,1-.595-.159A.436.436,0,0,1,30.105,82.709Zm-2.5-2.587a.436.436,0,1,1-.595-.159A.436.436,0,0,1,27.6,80.122Zm.873,1.511a.436.436,0,1,1-.595-.159A.436.436,0,0,1,28.477,81.633Z" fill="#cfcfcf"/>
      <path id="Контур_23" data-name="Контур 23" d="M75.728,43.909c-2.031.261-7.08,1.513-7.41,7.562a.647.647,0,0,0,.723.618c6.053-.4,7.228-5.609,7.465-7.535A.644.644,0,0,0,75.728,43.909ZM60.11,45.528a1.638,1.638,0,0,0-.891,3.011,10.365,10.365,0,0,1,4.03,6.636,11.336,11.336,0,0,0-5.419-1.447A12.6,12.6,0,0,0,45.386,66.4c0,5.967,2.8,11.312,6.092,15.191a25.043,25.043,0,0,0,5.1,4.649,8.913,8.913,0,0,0,4.863,1.887A6.033,6.033,0,0,0,64.56,87.1c.276-.156.272-.175.482-.307.21.132.2.152.479.307a6.047,6.047,0,0,0,3.124,1.027,9.763,9.763,0,0,0,4.765-1.568,21.388,21.388,0,0,0,5.162-4.24A23.58,23.58,0,0,0,84.695,66.4a12.6,12.6,0,0,0-12.444-12.67,11.473,11.473,0,0,0-5.687,1.587,14.279,14.279,0,0,0-5.528-9.5A1.648,1.648,0,0,0,60.11,45.528ZM72.251,57A9.28,9.28,0,0,1,81.42,66.4a20.188,20.188,0,0,1-5.271,13.716,18.67,18.67,0,0,1-4.376,3.61,7.75,7.75,0,0,1-3.128,1.124,7.307,7.307,0,0,1-1.517-.607,10.713,10.713,0,0,1-1.113-.708l-.973-.724V60.372l1.074-.941A9.317,9.317,0,0,1,72.251,57Zm-2.3,9.83a.478.478,0,0,0-.37.191,4.386,4.386,0,0,0,0,6.17.455.455,0,0,0,.739,0,5.082,5.082,0,0,0,1.268-3.085,4.839,4.839,0,0,0-1.268-3.085A.483.483,0,0,0,69.956,66.834Z" fill="#acacac"/>
      <path id="Контур_24" data-name="Контур 24" d="M35.837,8.685c-1.087.192-1,1.483-2.311,1.715a2.351,2.351,0,0,0-1.288.662,3.211,3.211,0,0,0-.381.395,3.838,3.838,0,0,1,1.821,1.785h0a3.246,3.246,0,0,1,1.827,2.674c.038.217.072.3.069.3a1.019,1.019,0,0,0,.077.083A5.1,5.1,0,0,1,36.9,19.269c.066.375.288.591.955,1.164.018.018.038.033.056.049l.037-.071c.429-.765.564-1.044.5-1.415a5.066,5.066,0,0,1,.154-3.215c.013-.035.03-.068.036-.084a1.448,1.448,0,0,0-.033-.327,3.237,3.237,0,0,1,.8-3.134,0,0,0,0,0,0,0A3.876,3.876,0,0,1,40.43,10.01a3.97,3.97,0,0,0-.454-.268,2.771,2.771,0,0,0-1.664-.185C37.48,9.7,37.049,8.471,35.837,8.685ZM30.574,12.8c-1.41.249-1.191,1.7-1.676,2.538a3.217,3.217,0,0,0-.985,2.714A4.648,4.648,0,0,0,29.3,20.2c.944,1.243.131,2.106,1.963,3.116,1.575.794,1.408,1.737,2.6,2.208.766.312,1.894-.027,2.716.39a9.15,9.15,0,0,1,.6-3.973c-.867-.774-1.638-1.282-1.834-2.4-.483-2.74-1.094-1.685-1.388-3.353-.327-1.854-1.2-1.245-1.627-2.122S31.2,12.69,30.574,12.8Zm11.594-2.044c-.622.11-1.12.82-1.219,1.792s-1.132.7-.805,2.551c.294,1.668-.641.885-.158,3.626.425,2.408-2.647,3.064-1.662,8.647l2.318-.409c-.457-2.59,1.831-2.274,2.785-3.128s.48-1.68,1.69-2.965c1.373-1.574.314-2.107.777-3.6a4.646,4.646,0,0,0,.568-2.491,3.213,3.213,0,0,0-1.855-2.213C43.87,11.947,43.578,10.507,42.168,10.755Z" fill="#cfcfcf"/>
      <path id="Контур_25" data-name="Контур 25" d="M21.351,50.432a.7.7,0,0,0,.285.71,9.024,9.024,0,0,0,1.8,1.019,9.2,9.2,0,0,0-.646,1.918.217.217,0,0,0,.28.252,5.246,5.246,0,0,0,.725-.284c.009.643.021,1.229.03,1.615a.283.283,0,0,0,.438.231A2.835,2.835,0,0,0,25.607,54.1a3.13,3.13,0,0,0,.007-1.01,7.543,7.543,0,0,0,1.505-.535.392.392,0,0,0,.11-.625A7.338,7.338,0,0,0,26,50.918a3.137,3.137,0,0,0,.332-.936,2.847,2.847,0,0,0-.647-2.148.285.285,0,0,0-.492.072c-.14.359-.352.9-.58,1.506a5.072,5.072,0,0,0-.583-.516.218.218,0,0,0-.35.142,9.8,9.8,0,0,0-.072,1.633c-.615-.309-1.168-.66-1.168-.66a.691.691,0,0,0-1.09.42Zm5.563-3.257a4.083,4.083,0,0,1,.788,3.048c-.012.07-.028.141-.044.21.222.193.412.372.56.526a1.781,1.781,0,0,1-.5,2.851c-.192.093-.433.2-.706.3-.01.075-.02.154-.034.232A4.086,4.086,0,0,1,25.2,56.935a7.063,7.063,0,0,0,5.477,4.385c3.776.666,7.32-1.548,7.919-4.948.127-.721-.119-1.633-.033-2.12s.629-1.26.756-1.981c.6-3.4-1.974-6.69-5.75-7.356A7.061,7.061,0,0,0,26.914,47.175Z" fill="#cfcfcf"/>
      <path id="Контур_26" data-name="Контур 26" d="M96.814,34.724c-3.829-2.211-8.949-.2-11.507,4.232s-1.74,9.869,2.089,12.079c4.762,2.749,10.431,2.019,13.39-1.494a1.568,1.568,0,0,0,1.429-2.476C103.778,42.748,101.576,37.474,96.814,34.724Zm-.785,1.359c2.928,1.691,3.723,6.107,1.512,9.936s-6.432,5.347-9.36,3.657-3.725-6.107-1.515-9.936S93.1,34.393,96.029,36.083Zm-.785,1.359a3.693,3.693,0,0,0-1.623-.477.39.39,0,0,0-.4.373l-.171,2.846a.589.589,0,0,0,.914.528l2.379-1.571a.389.389,0,0,0,.122-.532A3.687,3.687,0,0,0,95.245,37.443Zm-3.809.145a.394.394,0,0,0-.4-.021A7.354,7.354,0,0,0,88.72,39.51a.393.393,0,0,0,.118.578l1.734,1a.59.59,0,0,0,.883-.474l.16-2.674A.386.386,0,0,0,91.436,37.587Zm5.587,3.226a.388.388,0,0,0-.4.023L94.39,42.311a.59.59,0,0,0,.031,1l1.73,1a.39.39,0,0,0,.561-.186,7.263,7.263,0,0,0,.527-2.978A.4.4,0,0,0,97.022,40.813Zm-8.969.635a.393.393,0,0,0-.56.187,7.284,7.284,0,0,0-.523,2.978.4.4,0,0,0,.612.312l2.235-1.475a.589.589,0,0,0-.031-1Zm5.583,3.224a.589.589,0,0,0-.883.474l-.16,2.674a.4.4,0,0,0,.578.375,7.312,7.312,0,0,0,2.315-1.944.39.39,0,0,0-.12-.579Zm-2.773.36a.581.581,0,0,0-.619.017l-2.38,1.572a.388.388,0,0,0-.123.529,3.583,3.583,0,0,0,2.846,1.643.388.388,0,0,0,.4-.37l.172-2.847A.584.584,0,0,0,90.863,45.031Z" fill="#cfcfcf"/>
      <path id="Контур_27" data-name="Контур 27" d="M15.479,65.227a.527.527,0,0,0-.966-.057,1.815,1.815,0,0,1-1.008.769l.359.987a2.788,2.788,0,0,0,1.6-1.3A.511.511,0,0,0,15.479,65.227Zm-1.974.712-.539-1.48a4.96,4.96,0,0,0-6.552-2.646C2.38,63.281,2.292,66.4,2.234,68.469a8.237,8.237,0,0,1-.1,1.31.527.527,0,0,0,.259.569,5.436,5.436,0,0,1,1.137,1.089c1.291,1.455,3.245,3.656,7.194,2.218a4.919,4.919,0,0,0,3.4-5.968,4.628,4.628,0,0,0-5.781-2.106,5.586,5.586,0,0,0-2.076,1.247.522.522,0,0,1-.74.042.511.511,0,0,1-.145-.212.518.518,0,0,1,.1-.528,6.424,6.424,0,0,1,2.5-1.537C11.934,63.156,13.505,65.938,13.505,65.938Z" fill="#cfcfcf"/>
      <path id="Контур_28" data-name="Контур 28" d="M74.611,4.643a6.175,6.175,0,0,0-2.639,2.195c-.72.909-1.388,1.9-2.135,2.751-.935,1.065-3.788,4.157-5.487,6.023A10.259,10.259,0,0,0,62.1,26.1a9.6,9.6,0,0,0,3.181,4.084A8.225,8.225,0,0,0,73.3,31.263a11.433,11.433,0,0,0,6.5-5.713,15.173,15.173,0,0,0,1.034-6.415l0,0a24.537,24.537,0,0,1,.7-5.33,9.112,9.112,0,0,0,.176-5.65,6.629,6.629,0,0,0-1.227-2.112.713.713,0,0,0-.04-.06l-.011.006a5,5,0,0,0-2.188-1.455A5.684,5.684,0,0,0,74.611,4.643Zm.7,1.924a3.845,3.845,0,0,1,2.316-.085,2.874,2.874,0,0,1,1.2.731l-.006,0a1.564,1.564,0,0,1,.361,1.219,4.137,4.137,0,0,1-.34,1.133c.007-.016-.207.432-.464.971s-.577,1.245-.9,2.05a18.48,18.48,0,0,0-1.444,5.431l-.007.1.013.1a9.825,9.825,0,0,1-.354,2.83A15.409,15.409,0,0,1,74,25.122,8.159,8.159,0,0,1,70.94,28.18a5.929,5.929,0,0,1-4.352.425c-.021-.016-.048-.032-.072-.049A8.7,8.7,0,0,1,64.022,25.4a8.144,8.144,0,0,1,1.841-8.411c1.691-1.852,4.518-4.917,5.51-6.044.868-.986,1.559-2.022,2.2-2.835A4.7,4.7,0,0,1,75.311,6.567Zm-2.988,8.715a8.088,8.088,0,0,0-4.9,10.5C70.516,24.653,74.421,21.045,72.323,15.281Z" fill="#cfcfcf"/>
      <path id="Контур_29" data-name="Контур 29" d="M14.565,28.6a.547.547,0,0,0-.343.371,3.063,3.063,0,0,0-.076,1.2,2.99,2.99,0,0,0-1.983-.141.251.251,0,0,0-.167.355,2.137,2.137,0,0,0,.869.977l4.772-1.737a2.123,2.123,0,0,0,.039-1.307.251.251,0,0,0-.357-.164,2.99,2.99,0,0,0-1.427,1.382,3.061,3.061,0,0,0-.827-.87A.548.548,0,0,0,14.565,28.6Zm.017,2.794a1.777,1.777,0,0,1-.866.729,4.9,4.9,0,0,1-1.212.291c-.491.317-.76.537-.76.537a2.011,2.011,0,0,0-.667,2.28c1.207,3.315,6.758,5.6,6.758,5.6a1.5,1.5,0,0,0,2.087-.76S22.7,34.755,21.5,31.44a2.01,2.01,0,0,0-1.978-1.317,9.223,9.223,0,0,0-.923.076,4.941,4.941,0,0,1-1.118.557,1.775,1.775,0,0,1-1.132,0,2.8,2.8,0,0,1-.159,1.378.419.419,0,0,1-.6.218A2.789,2.789,0,0,1,14.582,31.4ZM13.311,34s.686.409.781.67a.5.5,0,0,1-.948.345A2.538,2.538,0,0,1,13.311,34Zm2.843-1.035s.685.409.78.67a.5.5,0,0,1-.947.345A2.539,2.539,0,0,1,16.154,32.967ZM19,31.933s.685.409.78.67a.5.5,0,1,1-.947.345A2.538,2.538,0,0,1,19,31.933Zm-3.4,3.921s.685.408.78.669a.5.5,0,0,1-.947.345A2.53,2.53,0,0,1,15.6,35.853Zm2.842-1.034s.685.408.78.669a.5.5,0,1,1-.947.345A2.53,2.53,0,0,1,18.437,34.819ZM17.878,37.7s.685.408.78.669a.5.5,0,1,1-.947.345A2.53,2.53,0,0,1,17.878,37.7Z" fill="#cfcfcf"/>
      <path id="Контур_30" data-name="Контур 30" d="M83.51,93.3a1.113,1.113,0,1,0,.941,2.018,1.7,1.7,0,0,1,1.629.11,2.968,2.968,0,0,1,.492.322,4.647,4.647,0,0,0,.3,2.134,1.1,1.1,0,0,0,.912.642,1.112,1.112,0,0,0,1.1-1.6,2.018,2.018,0,0,1-.1-1.084c.1-.649.431-1.5,2.2-2.343a1.114,1.114,0,0,0,.157-1.929,1.116,1.116,0,0,0-1.122-.078,6.714,6.714,0,0,0-2.642,2.124,2.86,2.86,0,0,0-.27-.166A4.069,4.069,0,0,0,83.51,93.3Zm-2.763,9.885a2.228,2.228,0,1,0,2.962,1.078A2.227,2.227,0,0,0,80.747,103.184Zm6.056-2.823a2.227,2.227,0,1,0,2.96,1.079A2.224,2.224,0,0,0,86.8,100.361Zm6.053-2.823a2.228,2.228,0,1,0,2.96,1.079A2.227,2.227,0,0,0,92.856,97.538ZM79.6,108.633a2.227,2.227,0,1,0,2.959,1.077A2.225,2.225,0,0,0,79.6,108.633Zm6.056-2.823a2.226,2.226,0,1,0,2.959,1.076A2.222,2.222,0,0,0,85.659,105.81Zm6.053-2.823a2.226,2.226,0,1,0,2.958,1.077A2.224,2.224,0,0,0,91.713,102.987Zm6.053-2.823a2.227,2.227,0,1,0,2.958,1.077A2.225,2.225,0,0,0,97.766,100.164ZM84.512,111.257a2.227,2.227,0,1,0,2.961,1.076A2.225,2.225,0,0,0,84.512,111.257Zm6.056-2.823a2.226,2.226,0,1,0,2.958,1.077A2.222,2.222,0,0,0,90.568,108.434Zm6.053-2.823a2.227,2.227,0,1,0,2.959,1.077A2.225,2.225,0,0,0,96.621,105.611Zm-7.2,8.269a2.227,2.227,0,1,0,2.959,1.077A2.225,2.225,0,0,0,89.423,113.88Zm6.053-2.822a2.226,2.226,0,1,0,2.959,1.077A2.224,2.224,0,0,0,95.476,111.058ZM94.331,116.5a2.226,2.226,0,1,0,2.959,1.076A2.224,2.224,0,0,0,94.331,116.5Z" fill="#cfcfcf"/>
      <path id="Контур_31" data-name="Контур 31" d="M124.747,40.027c-2-2.382-5.442-2.784-7.265-1.254a4.845,4.845,0,0,0-.66.675,1.254,1.254,0,0,0,.271,1.761,16.454,16.454,0,0,1,1.468,1.25,6.662,6.662,0,0,1-1.273.537,5.471,5.471,0,0,0-1.965.93,3.7,3.7,0,0,0-1.017,1.342,2.05,2.05,0,0,0-.184.726,1.074,1.074,0,0,0,.228.754l1.974,2.352a1.068,1.068,0,0,0,.7.355,2.048,2.048,0,0,0,.748-.055,3.7,3.7,0,0,0,1.5-.769,5.485,5.485,0,0,0,1.258-1.773,6.67,6.67,0,0,1,.749-1.161,16.416,16.416,0,0,1,.976,1.663,1.256,1.256,0,0,0,1.687.574,4.857,4.857,0,0,0,.779-.534C126.543,45.868,126.745,42.408,124.747,40.027ZM120.006,44c.232.276.451.553.661.831a7.048,7.048,0,0,0-1.04,1.541,4.788,4.788,0,0,1-1.014,1.47,2.811,2.811,0,0,1-1.078.557,1.164,1.164,0,0,1-.38.035.266.266,0,0,1-.061-.014l-1.946-2.319a.323.323,0,0,1,0-.062,1.218,1.218,0,0,1,.1-.369,2.83,2.83,0,0,1,.737-.964,4.772,4.772,0,0,1,1.622-.744,6.987,6.987,0,0,0,1.7-.757Q119.659,43.592,120.006,44Z" fill="#cfcfcf"/>
      <path id="Контур_32" data-name="Контур 32" d="M54.061,93.392a.623.623,0,0,0-.593.439,2.231,2.231,0,0,1-.566,1.017,4.812,4.812,0,0,0-3.271-.044.318.318,0,0,0-.044.571,14.7,14.7,0,0,0,1.816.841,2.485,2.485,0,0,0-.376,1.723.438.438,0,0,0,.522.382,2.5,2.5,0,0,0,1.534-.785,13.806,13.806,0,0,0,1.163,1.193.33.33,0,0,0,.55-.206,4,4,0,0,0-.738-2.949,4.042,4.042,0,0,0,.663-1.283.672.672,0,0,0-.66-.9Zm-4.725,3.172c-1.245.95-2.3,3.045-6.95,4.655-1.834.649-3.589,1.623-3.589,4.524a3.681,3.681,0,0,0,3.7,3.671c5.385,0,10.836-6.454,10.982-9.808-.008-.008-.017-.013-.025-.021-.2-.182-.373-.352-.527-.506a4.933,4.933,0,0,1-1.14.384,1.728,1.728,0,0,1-.327.03,1.6,1.6,0,0,1-1.6-1.437,4.153,4.153,0,0,1,.046-1.205C49.728,96.766,49.531,96.669,49.336,96.565Z" fill="#cfcfcf"/>
      <path id="Контур_33" data-name="Контур 33" d="M105.472,62.737a5.221,5.221,0,0,0-2.562.622.351.351,0,0,1,.029-.054,7.466,7.466,0,0,0-2.088,1.5,10.809,10.809,0,0,0-3.026,6.805,8.552,8.552,0,0,0,2.307,6.807,8.447,8.447,0,0,0,6.053,2.336,10.877,10.877,0,0,0,7.56-3.058,7.373,7.373,0,0,0,1.351-1.9c1.537-2.523.517-6.652-2.587-9.754A10.478,10.478,0,0,0,105.472,62.737Zm0,1.5a8.961,8.961,0,0,1,5.976,2.863c2.819,2.817,3.721,6.673,1.978,8.421a3.9,3.9,0,0,1-3.461.792,2.009,2.009,0,0,0-1.273.209l-2.61,1.382a.332.332,0,0,1-.451-.44l.783-1.588a1.121,1.121,0,0,0-.327-1.382,10.692,10.692,0,0,1-1.08-.95,9.658,9.658,0,0,1-2.76-4.894,3.847,3.847,0,0,1,.779-3.525A3.36,3.36,0,0,1,105.472,64.239Zm.3,1.859a1.913,1.913,0,0,0-1.336.437,2.43,2.43,0,0,0-.328,2.193,7.631,7.631,0,0,0,2.1,3.619,6.87,6.87,0,0,0,4.481,2.2,1.9,1.9,0,0,0,1.33-.437,2.416,2.416,0,0,0,.329-2.193,7.635,7.635,0,0,0-2.091-3.621A6.884,6.884,0,0,0,105.772,66.1Z" fill="#cfcfcf"/>
      <path id="Контур_34" data-name="Контур 34" d="M58.778,127.011a.374.374,0,0,0,.439-.1,5.911,5.911,0,0,0,1.672-2.216,3.547,3.547,0,0,0,.251.511A4.306,4.306,0,0,0,63.7,127.09a.493.493,0,0,0,.375-.058.4.4,0,0,0,.179-.3,4.436,4.436,0,0,0-1.932-4.132,11.194,11.194,0,0,0,1.9-.576,2.9,2.9,0,0,0,1.6,1.2,4.137,4.137,0,0,0,3.132-.347c1.866-.97,2.731-3.02,1.929-4.566A2.749,2.749,0,0,0,69.8,117.2a3.02,3.02,0,0,0-.628-.275,4.145,4.145,0,0,0-3.134.344,3.8,3.8,0,0,0-2.2,3.7,9.868,9.868,0,0,1-7.866-.1.561.561,0,0,0-.507,1,.183.183,0,0,0,.035.017,10.4,10.4,0,0,0,3.462.924,3.038,3.038,0,0,0-.595.743,3.147,3.147,0,0,0,.281,3.335A.379.379,0,0,0,58.778,127.011Zm.7-6.712a2.474,2.474,0,0,0,.563.254,2.8,2.8,0,0,0,2.436-.4,4.083,4.083,0,0,0,1.578-2.175,3.559,3.559,0,0,0-1.3-4.2,2.422,2.422,0,0,0-.508-.222,2.793,2.793,0,0,0-2.434.4,4.077,4.077,0,0,0-1.58,2.174A3.582,3.582,0,0,0,59.48,120.3Zm6.827,2a.561.561,0,0,1,.418-1.041,1.627,1.627,0,0,0,1.679-.482.564.564,0,0,1,.693-.1.533.533,0,0,1,.1.075.561.561,0,0,1,.031.793A2.745,2.745,0,0,1,66.307,122.3Zm-5.469-3.162a.548.548,0,0,1-.215-.37.558.558,0,0,1,.478-.631.691.691,0,0,0,.535-.314,1.379,1.379,0,0,0,.129-.9.56.56,0,1,1,1.067-.34,2.433,2.433,0,0,1-.247,1.842,1.8,1.8,0,0,1-1.331.824A.558.558,0,0,1,60.838,119.136Z" fill="#cfcfcf"/>
      <path id="Контур_35" data-name="Контур 35" d="M132.231,98.872a.8.8,0,0,0-.5-1.018l-2.256-.821a.8.8,0,1,0-.547,1.5l2.256.821a.806.806,0,0,0,1.043-.486Zm-2.455,4.38a.789.789,0,0,0,.037-.446,5.727,5.727,0,0,0-2.091-3.352,5.436,5.436,0,0,1-1.3-1.283,10.513,10.513,0,0,0,.53-1.207c.274-.752,1.643-4.514-1.367-5.609a17.048,17.048,0,0,0-2.329-.621l-.2.552a.8.8,0,1,1-1.5-.548l.108-.3c-1.3-.206-2.715-.365-4.091-.459l-.325.893a.8.8,0,1,1-1.5-.547l.154-.423c-2.835-.075-5.186.2-5.489,1.036-.4,1.084,2.458,3.666,5.652,5.892a.789.789,0,0,1,.775-.147.8.8,0,0,1,.482,1c.965.627,1.925,1.2,2.8,1.672l.748-2.056a.8.8,0,1,1,1.5.547l-.811,2.228c.266.115.513.219.742.3a2.778,2.778,0,0,0,3.17-.816,7.765,7.765,0,0,0,1.309,1.182,4.343,4.343,0,0,1,1.467,2.351.8.8,0,0,0,1.533.155Zm3.343-9.183a.8.8,0,0,0-1.319-.83,3.121,3.121,0,0,1-2.221.755.8.8,0,0,0-.774.265.787.787,0,0,0-.136.8.8.8,0,0,0,.641.511A4.454,4.454,0,0,0,132.9,94.4.791.791,0,0,0,133.119,94.069Z" fill="#cfcfcf"/>
      <path id="Контур_36" data-name="Контур 36" d="M107.716,9.626a.736.736,0,0,0-.743.359.747.747,0,0,0,.054.828,4.138,4.138,0,0,1,.65,1.84.753.753,0,0,0-.224.032,4.072,4.072,0,0,0-2.387,1.9c-2.165,3.711-5.008,5.4-11.667,6.935a.875.875,0,0,0-.207.081,5.64,5.64,0,0,0-1.4,1.932.733.733,0,0,0-.084.464l.132.912a.717.717,0,0,0,.122.309,4.457,4.457,0,0,0,2.356,1.624c.04.009.066.013.149.028.858.151,5.324.715,10.958-2.621,4.144-2.45,5.215-5.379,5.484-6.907a4.255,4.255,0,0,0-1.635-4.15c-.061-.052-.11-.089-.124-.1s0,0,0,0a5.048,5.048,0,0,0-.933-3.163A.734.734,0,0,0,107.716,9.626Zm-1.052,5.831a.658.658,0,0,1,.238.047.685.685,0,0,1,.33,1.02c-.229.347-.526.782-.849,1.2-2.5,3.379-5.052,4.92-11.069,6.354a.734.734,0,0,1-.758-.275.723.723,0,0,1,.4-1.132c5.206-1.3,8.632-2.939,11.106-6.875A.7.7,0,0,1,106.664,15.457Z" fill="#cfcfcf"/>
      <path id="Контур_37" data-name="Контур 37" d="M13.821,106.952a.535.535,0,0,0,.685.32l1.035-.377a4.089,4.089,0,0,0,.2,2.2.525.525,0,0,0,.682.322,3.49,3.49,0,0,0,1.3-.963,3.194,3.194,0,0,1-1.027-1.413,3.14,3.14,0,0,1-.187-1.069,3.136,3.136,0,0,1-.544-.939,3.174,3.174,0,0,1-.119-1.745,3.515,3.515,0,0,0-1.616.1.525.525,0,0,0-.316.683,4.1,4.1,0,0,0,1.265,1.814l-1.04.379A.534.534,0,0,0,13.821,106.952Zm3.88-.275a2.141,2.141,0,0,0,1.116,1.212,2.112,2.112,0,0,0,3.4,1.587,2.138,2.138,0,0,0,2.856-1.04,2.151,2.151,0,0,0,.615-.117,2.128,2.128,0,0,0,1.368-1.662,2.132,2.132,0,0,0,1.049-2.631,2.107,2.107,0,0,0-.305-.545,2.137,2.137,0,0,0-1.04-2.856,2.1,2.1,0,0,0-2.611-1.954,2.126,2.126,0,0,0-2.116-.394,2.159,2.159,0,0,0-.547.306,2.137,2.137,0,0,0-2.856,1.04,2.112,2.112,0,0,0-1.587,3.4,2.137,2.137,0,0,0-.077,1.644,2.109,2.109,0,0,0,.645.9A2.116,2.116,0,0,0,17.7,106.677Zm2.1-3.4a.523.523,0,0,1-.042-.323.533.533,0,0,1,.541-.9.947.947,0,0,1,.52.518.935.935,0,0,1-.064.733.537.537,0,0,1-.724.219A.524.524,0,0,1,19.805,103.273Zm2.263,3.29a.541.541,0,0,1-.042-.323.534.534,0,0,1,.542-.9.955.955,0,0,1,.52.519.94.94,0,0,1-.065.73.533.533,0,0,1-.725.22A.544.544,0,0,1,22.068,106.563Zm.329-5.347a.535.535,0,0,1,.717-.629.869.869,0,0,1,.456,1.252.534.534,0,0,1-1-.346A.55.55,0,0,1,22.4,101.216Zm2.1,2.649a.55.55,0,0,1,.022-.333.535.535,0,0,1,.7-.3.868.868,0,0,1,.455,1.251,1.071,1.071,0,0,1-1.173-.621Z" fill="#cfcfcf"/>
    </g>
  </g>
</svg>
