<svg xmlns="http://www.w3.org/2000/svg" width="171.78" height="145" viewBox="0 0 171.78 145">
  <g id="Сгруппировать_792" data-name="Сгруппировать 792" transform="translate(-710 -385)">
    <g id="Ftiness_Dashboard" data-name="Ftiness Dashboard" transform="translate(710 389.076)">
      <rect id="Прямоугольник_659" data-name="Прямоугольник 659" width="31.14" height="31.14" rx="15.57" transform="translate(140.638 104.393)" fill="#e8e8e8"/>
      <rect id="Прямоугольник_660" data-name="Прямоугольник 660" width="31.14" height="31.14" rx="15.57" transform="translate(140.638 0.924)" fill="#e8e8e8"/>
      <path id="Контур_13" data-name="Контур 13" d="M82.713,51.514h35.27v-34h20.73" fill="none" stroke="#b7d1b5" stroke-width="2" stroke-dasharray="2 2"/>
      <path id="Контур_14" data-name="Контур 14" d="M82.713,91.514h35.27v33h20.73" fill="none" stroke="#b7d1b5" stroke-width="2" stroke-dasharray="2 2"/>
      <rect id="Прямоугольник_661" data-name="Прямоугольник 661" width="31.14" height="31.14" rx="15.57" transform="translate(140.638 56.023)" fill="#e8e8e8"/>
      <path id="Контур_15" data-name="Контур 15" d="M83.713,71.514h54" fill="none" stroke="#b7d1b5" stroke-width="2" stroke-dasharray="2 2"/>
      <path id="Контур_16" data-name="Контур 16" d="M161.354,65.3H151.063a1.144,1.144,0,0,0-1.144,1.143v4.575h.481l.181-.426a1.128,1.128,0,0,1,2.084.024l.635,1.6,1.794-5.378a.573.573,0,0,1,1.111.11l.816,6.533.642-2.057a.573.573,0,0,1,.546-.4h1.017a1.143,1.143,0,1,1,0,1.143h-.6l-1.305,4.171a.568.568,0,0,1-.545.4h-.051a.573.573,0,0,1-.516-.5l-.831-6.646-1.49,4.469a.57.57,0,0,1-.526.391.591.591,0,0,1-.548-.36L151.6,71.044l-.3.775a.573.573,0,0,1-.526.346h-.859v4.573a1.143,1.143,0,0,0,1.144,1.143h10.291a1.142,1.142,0,0,0,1.143-1.143V66.448A1.143,1.143,0,0,0,161.354,65.3Z" fill="#cfcfcf"/>
      <path id="Контур_17" data-name="Контур 17" d="M152.937,9.9a3.925,3.925,0,0,0-3.925,3.925c0,3.774,4.377,7.379,6.422,8.985l.006,0,.047.038h0a1.193,1.193,0,0,0,1.442,0h0l.014-.011.01-.008.012-.01c2.039-1.6,6.439-5.215,6.439-9A3.925,3.925,0,0,0,159.48,9.9a4.278,4.278,0,0,0-3.272,1.8A4.275,4.275,0,0,0,152.937,9.9Z" fill="#cfcfcf"/>
      <rect id="Прямоугольник_662" data-name="Прямоугольник 662" width="89.327" height="89.327" rx="44.663" transform="translate(0 26.93)" fill="#e8e8e8"/>
      <path id="Контур_18" data-name="Контур 18" d="M56.81,47.127a5.009,5.009,0,1,0,3.8.5A5.009,5.009,0,0,0,56.81,47.127ZM40.776,53.5a2,2,0,0,0-.267.108l-9.158,4.528A2,2,0,0,0,33,61.787l9.011-3.614,3.688,2.3L39.158,69.31a5,5,0,0,0,.931,7.465l7.136,5.251L37.044,85.613l-.007,0-.044.016a2,2,0,1,0,1.089,3.853l14.4-3.858a3.18,3.18,0,0,0,1.574-5l.017-.029-5.728-7.014,4.763-6.4,2.847,3.548a2,2,0,0,0,.353.44l.017.02h0a2,2,0,0,0,1.868.456l7.742-2.074A2,2,0,1,0,64.914,65.7l-6.4,1.169-3.437-6.611a5.02,5.02,0,0,0-.285-.548l0,0a5.009,5.009,0,0,0-2.9-2.213L42.15,53.547A2,2,0,0,0,40.776,53.5ZM24.116,68.333,22.7,70.787l11-2.949,1.92-2.589ZM19.866,75.7l.519,1.935,11.707-3.137a9,9,0,0,1-.076-2.054Zm3.491,5.288L25.811,82.4l9.265-2.483a9.074,9.074,0,0,1-1.524-1.666Zm23.5,10.3-2.233,5.562a2,2,0,0,0,3.667,1.618l0,0,0,0,4.174-8.674Z" fill="#acacac"/>
      <path id="Контур_19" data-name="Контур 19" d="M160.125,113.6l-.979.979,2.448,2.448.979-.979-.877-.878.244-.244a.491.491,0,0,0,.11-.542.49.49,0,0,0-.8-.15l-.245.244Zm-2.448.49-.979.979,1.857,1.857-5.386,5.386-1.857-1.857-.979.979,4.407,4.406.979-.979L153.862,123l5.385-5.385,1.857,1.857.979-.979Zm-6.855,8.813-.979.979.878.878-.244.245a.489.489,0,1,0,.692.692l.244-.244.878.877.979-.979Z" fill="#cfcfcf"/>
    </g>
  </g>
</svg>
