<svg xmlns="http://www.w3.org/2000/svg" width="227.33" height="144.05" viewBox="0 0 227.33 144.05">
  <g id="_3" data-name="3" transform="translate(-829 -382)">
    <g id="Group_362" data-name="Group 362" transform="translate(22407.172 8033.36)">
      <g id="Group_361" data-name="Group 361" transform="translate(-21527.166 -7646.333)">
        <path id="Path_638" data-name="Path 638" d="M-1469.35,416.28c-.021.079-.044.158-.068.234a2.58,2.58,0,0,1-1.177,1.576c-.434.152-.892-.14-1.423-.477a4.913,4.913,0,0,0-1.028-.545,1.792,1.792,0,0,0-.662-.1,2.139,2.139,0,0,0-1.289.442,1.775,1.775,0,0,0-.313.326c-.919,1.233-.341,3.537.042,5.062.057.222.1.415.141.578a53.8,53.8,0,0,0,2.3,7.364c.28.738.57,1.5.9,2.237-2.8,1.6-10.972,4.744-14.005,2.864a2.8,2.8,0,0,1-1.183-2.81v-.1a4.357,4.357,0,0,1,.3-1.293,7.416,7.416,0,0,1,.443-.9,3.55,3.55,0,0,0,.64-2.666,4.2,4.2,0,0,0-2.465-2.4,9.38,9.38,0,0,0-3.624-.442h-.3c-.087,0-.172-.005-.257,0s-.175,0-.263,0h-.255c-.083,0-.17.005-.256.009h-.009c-.087,0-.172.009-.26.015s-.176.013-.259.022l-.261.028c-.087.01-.173.023-.255.036s-.175.029-.262.046-.171.035-.253.055-.169.042-.254.066-.156.045-.252.077c-.076.025-.157.054-.249.089a3.6,3.6,0,0,0-2.012,1.809l-.013.029-.011.042a2.826,2.826,0,0,0-.213,1.39,5.087,5.087,0,0,0,.689,1.819,8.546,8.546,0,0,1,.424.88,4.331,4.331,0,0,1,.3,1.292v.1a2.8,2.8,0,0,1-1.184,2.81c-3.023,1.874-11.145-1.246-13.975-2.847.344-.765.641-1.553.906-2.254a53.657,53.657,0,0,0,2.3-7.364c.037-.163.086-.357.141-.58.383-1.524.959-3.827.041-5.059a2,2,0,0,0-1.6-.768,3.019,3.019,0,0,0-1.69.647c-.53.337-.99.629-1.423.478a2.592,2.592,0,0,1-1.177-1.577,11,11,0,0,1-.425-2.835,11.993,11.993,0,0,1,.425-3.756,2.59,2.59,0,0,1,1.178-1.577c.377-.132.791.15,1.231.45.1.068.2.136.3.2l.024.015.013.005a2.734,2.734,0,0,0,.317.179,2.848,2.848,0,0,0,1.036.288h.065a1.942,1.942,0,0,0,1.667-.549c.809-.9.512-2.565.3-3.786-.028-.159-.055-.309-.077-.444a44.965,44.965,0,0,0-3.44-11.02,36.59,36.59,0,0,0,6.357,2.473c3.664,1.031,6.308,1.065,7.86.1a3.48,3.48,0,0,0,1.517-3.442v-.1a5.027,5.027,0,0,0-.342-1.515,9.108,9.108,0,0,0-.459-.959,4.648,4.648,0,0,1-.608-1.548,2.084,2.084,0,0,1,.163-1.067l.013-.029.011-.041a2.912,2.912,0,0,1,1.616-1.418c.064-.025.132-.05.216-.077.067-.023.138-.045.221-.068.065-.019.137-.038.222-.057s.151-.035.228-.049l.232-.042c.076-.013.158-.024.233-.034h.012l.115-.013,1.855-.05a8.906,8.906,0,0,1,3.418.392,3.5,3.5,0,0,1,2.04,1.938,2.947,2.947,0,0,1-.581,2.136,8.271,8.271,0,0,0-.483.986,5,5,0,0,0-.341,1.516v.1a3.48,3.48,0,0,0,1.517,3.442,5.656,5.656,0,0,0,3,.7,18.475,18.475,0,0,0,4.858-.8,36.361,36.361,0,0,0,6.458-2.525,44.961,44.961,0,0,0-3.464,11.072c-.021.135-.048.285-.077.444-.216,1.221-.514,2.891.3,3.786a1.942,1.942,0,0,0,1.667.549h.065a2.836,2.836,0,0,0,1.035-.288,2.843,2.843,0,0,0,.322-.182l.032-.018c.1-.063.2-.131.3-.2.44-.3.854-.582,1.231-.45a2.584,2.584,0,0,1,1.178,1.577,12.887,12.887,0,0,1,.071,6.351Z" transform="translate(1594.677 -345.826)" fill="#ddefe2"/>
        <path id="Path_639" data-name="Path 639" d="M-1483.32-55.044a5.657,5.657,0,0,1-3-.7,3.481,3.481,0,0,1-1.517-3.442v-.1a5.032,5.032,0,0,1,.341-1.516,8.216,8.216,0,0,1,.483-.986,2.947,2.947,0,0,0,.581-2.137,3.5,3.5,0,0,0-2.04-1.938,8.923,8.923,0,0,0-3.419-.392l-1.855.05-.114.013h-.013c-.075.01-.154.02-.233.033s-.155.026-.232.041-.153.032-.228.05-.157.039-.222.058c-.083.023-.154.045-.221.068-.083.027-.152.052-.216.077a2.909,2.909,0,0,0-1.616,1.418l-.01.04-.013.029a2.086,2.086,0,0,0-.164,1.067,4.646,4.646,0,0,0,.609,1.547,9.122,9.122,0,0,1,.459.96,5.035,5.035,0,0,1,.342,1.515v.1a3.48,3.48,0,0,1-1.517,3.441c-1.552.962-4.2.927-7.86-.1a36.531,36.531,0,0,1-6.358-2.472,44.935,44.935,0,0,1,3.44,11.02c.022.136.048.285.077.444.217,1.22.515,2.891-.3,3.786a1.942,1.942,0,0,1-1.667.549h-.065a2.862,2.862,0,0,1-1.036-.288,2.827,2.827,0,0,1-.318-.179l-.013,0-.025-.016c-.1-.063-.2-.13-.3-.2-.439-.3-.854-.581-1.231-.449a2.587,2.587,0,0,0-1.178,1.577,12.771,12.771,0,0,0,0,6.59,2.589,2.589,0,0,0,1.178,1.577c.433.151.892-.14,1.423-.477a3.01,3.01,0,0,1,1.69-.647,1.993,1.993,0,0,1,1.6.767c.919,1.232.342,3.535-.04,5.059-.057.224-.1.418-.141.581a53.729,53.729,0,0,1-2.3,7.364c-.265.7-.563,1.489-.906,2.254,2.83,1.6,10.952,4.721,13.975,2.847a2.8,2.8,0,0,0,1.183-2.81v-.1a4.337,4.337,0,0,0-.3-1.293,8.451,8.451,0,0,0-.424-.88,5.076,5.076,0,0,1-.689-1.819,2.82,2.82,0,0,1,.213-1.39l.011-.043.013-.029a3.6,3.6,0,0,1,2.013-1.808c.092-.035.173-.064.249-.089.1-.032.176-.056.251-.077s.169-.046.254-.066.168-.038.254-.055.173-.033.261-.046.168-.025.255-.036.173-.02.261-.029.17-.015.258-.022.174-.011.26-.015h.009c.086,0,.17-.007.256-.009s.17,0,.256,0h.819a9.378,9.378,0,0,1,3.624.442,4.2,4.2,0,0,1,2.465,2.4,3.547,3.547,0,0,1-.64,2.666,7.543,7.543,0,0,0-.443.9,4.357,4.357,0,0,0-.3,1.293v.1a2.8,2.8,0,0,0,1.183,2.81c3.033,1.881,11.2-1.268,14-2.863-.331-.738-.621-1.5-.9-2.238a53.862,53.862,0,0,1-2.3-7.364c-.036-.162-.085-.355-.141-.578-.383-1.525-.961-3.829-.042-5.061a1.993,1.993,0,0,1,1.6-.768,3,3,0,0,1,1.69.647c.531.337.99.628,1.423.477a2.584,2.584,0,0,0,1.177-1.577,12.773,12.773,0,0,0,0-6.591,2.583,2.583,0,0,0-1.178-1.577c-.377-.132-.792.15-1.231.449-.1.068-.2.136-.3.2l-.032.018a2.884,2.884,0,0,1-.323.182,2.863,2.863,0,0,1-1.035.288h-.065a1.94,1.94,0,0,1-1.667-.549c-.809-.9-.512-2.566-.3-3.786.029-.159.055-.309.077-.444a44.966,44.966,0,0,1,3.464-11.072,36.31,36.31,0,0,1-6.459,2.525,18.456,18.456,0,0,1-4.845.809Z" transform="translate(1594.682 66.256)" fill="#f1fbf3"/>
        <path id="Path_640" data-name="Path 640" d="M-2392.42-55.044a5.657,5.657,0,0,1-3-.7,3.479,3.479,0,0,1-1.517-3.442v-.1a5.017,5.017,0,0,1,.341-1.516,8.17,8.17,0,0,1,.483-.986,2.948,2.948,0,0,0,.581-2.137,3.5,3.5,0,0,0-2.04-1.938,8.922,8.922,0,0,0-3.419-.392l-1.856.05-.114.013h-.012c-.075.01-.154.02-.233.033s-.155.026-.232.041-.153.032-.228.05-.157.039-.222.058c-.083.023-.154.045-.221.068-.083.027-.152.052-.216.077a2.909,2.909,0,0,0-1.616,1.418l-.01.04-.013.029a2.078,2.078,0,0,0-.164,1.067,4.634,4.634,0,0,0,.609,1.547,9.082,9.082,0,0,1,.459.96,5.049,5.049,0,0,1,.342,1.515v.1a3.48,3.48,0,0,1-1.517,3.441c-1.552.962-4.2.927-7.86-.1a36.542,36.542,0,0,1-6.358-2.472,44.954,44.954,0,0,1,3.44,11.02c.021.136.048.285.076.444.217,1.22.514,2.891-.295,3.786a1.942,1.942,0,0,1-1.667.549h-.065a2.862,2.862,0,0,1-1.036-.288,2.813,2.813,0,0,1-.318-.179l-.012-.005-.025-.016c-.1-.063-.2-.13-.3-.2-.439-.3-.854-.581-1.231-.449a2.59,2.59,0,0,0-1.178,1.577,12.773,12.773,0,0,0,0,6.59,2.591,2.591,0,0,0,1.178,1.577c.433.151.892-.14,1.424-.477a3.01,3.01,0,0,1,1.69-.647,1.993,1.993,0,0,1,1.6.767c.919,1.232.342,3.535-.04,5.059-.056.224-.1.418-.141.581a53.711,53.711,0,0,1-2.3,7.364c-.264.7-.563,1.489-.906,2.254,2.83,1.6,10.952,4.721,13.975,2.847a2.8,2.8,0,0,0,1.184-2.81v-.1a4.341,4.341,0,0,0-.3-1.293,8.632,8.632,0,0,0-.424-.88,5.079,5.079,0,0,1-.689-1.819,2.822,2.822,0,0,1,.213-1.39l.011-.043.013-.029a3.6,3.6,0,0,1,2.013-1.808c.092-.035.173-.064.25-.089.1-.032.176-.056.251-.077s.169-.046.255-.066.167-.038.254-.055.174-.033.26-.046.168-.025.256-.036.173-.02.261-.029.17-.015.258-.022.174-.011.26-.015h.009c.085,0,.17-.007.256-.009s.17,0,.256,0h.819a9.379,9.379,0,0,1,3.625.442,4.2,4.2,0,0,1,2.465,2.4,3.547,3.547,0,0,1-.64,2.666,7.653,7.653,0,0,0-.443.9,4.349,4.349,0,0,0-.3,1.293v.1a2.8,2.8,0,0,0,1.183,2.81c3.034,1.881,11.2-1.268,14-2.863-.331-.738-.621-1.5-.9-2.238a53.9,53.9,0,0,1-2.3-7.364c-.037-.162-.085-.355-.141-.578-.383-1.525-.961-3.829-.042-5.061a1.993,1.993,0,0,1,1.6-.768,3,3,0,0,1,1.69.647c.531.337.99.628,1.423.477a2.583,2.583,0,0,0,1.177-1.577,12.774,12.774,0,0,0,0-6.591,2.584,2.584,0,0,0-1.178-1.577c-.377-.132-.792.15-1.231.449-.1.068-.2.136-.3.2l-.032.018a2.81,2.81,0,0,1-.322.182,2.86,2.86,0,0,1-1.035.288h-.065a1.94,1.94,0,0,1-1.667-.549c-.809-.9-.512-2.566-.295-3.786.029-.159.055-.309.077-.444a44.949,44.949,0,0,1,3.464-11.072,36.308,36.308,0,0,1-6.458,2.525A18.451,18.451,0,0,1-2392.42-55.044Z" transform="translate(2423.49 66.256)" fill="#f1fbf3"/>
        <path id="Path_641" data-name="Path 641" d="M-1483.32,854.047a5.656,5.656,0,0,1-3-.7,3.48,3.48,0,0,1-1.517-3.442v-.1a5.024,5.024,0,0,1,.341-1.516,8.244,8.244,0,0,1,.483-.986,2.947,2.947,0,0,0,.581-2.137,3.5,3.5,0,0,0-2.04-1.938,8.918,8.918,0,0,0-3.419-.392l-1.855.05-.114.013h-.013c-.075.009-.154.02-.233.033s-.155.026-.232.041-.153.031-.228.05-.157.039-.222.057c-.083.023-.154.045-.221.068-.083.027-.152.052-.216.077a2.907,2.907,0,0,0-1.616,1.418l-.01.041-.013.029a2.087,2.087,0,0,0-.164,1.067,4.649,4.649,0,0,0,.609,1.547,9.127,9.127,0,0,1,.459.96,5.031,5.031,0,0,1,.342,1.515v.1a3.48,3.48,0,0,1-1.517,3.441c-1.552.962-4.2.927-7.86-.1a36.541,36.541,0,0,1-6.358-2.473,44.924,44.924,0,0,1,3.44,11.02c.022.136.048.285.077.444.217,1.22.515,2.891-.3,3.786a1.942,1.942,0,0,1-1.667.549h-.065a2.863,2.863,0,0,1-1.036-.288,2.842,2.842,0,0,1-.318-.179l-.013,0-.025-.016c-.1-.063-.2-.13-.3-.2-.439-.3-.854-.582-1.231-.449a2.587,2.587,0,0,0-1.178,1.577,12.77,12.77,0,0,0,0,6.59,2.587,2.587,0,0,0,1.178,1.577c.433.151.892-.14,1.423-.477a3.01,3.01,0,0,1,1.69-.647,1.994,1.994,0,0,1,1.6.767c.919,1.232.342,3.535-.04,5.059-.057.224-.1.418-.141.581a53.75,53.75,0,0,1-2.3,7.364c-.265.7-.563,1.489-.906,2.254,2.83,1.6,10.952,4.721,13.975,2.847a2.8,2.8,0,0,0,1.183-2.81v-.1a4.337,4.337,0,0,0-.3-1.293,8.437,8.437,0,0,0-.424-.88,5.076,5.076,0,0,1-.689-1.819,2.824,2.824,0,0,1,.213-1.39l.011-.043.013-.029a3.6,3.6,0,0,1,2.013-1.808c.092-.035.173-.064.249-.089.1-.032.176-.056.251-.077s.169-.046.254-.066.168-.038.254-.055.173-.033.261-.046.168-.025.255-.036.173-.021.261-.029l.258-.022.26-.016h.009c.086,0,.17-.007.256-.009s.17,0,.256,0h.819a9.379,9.379,0,0,1,3.624.442,4.2,4.2,0,0,1,2.465,2.4,3.548,3.548,0,0,1-.64,2.666,7.534,7.534,0,0,0-.443.9,4.345,4.345,0,0,0-.3,1.293v.1a2.8,2.8,0,0,0,1.183,2.81c3.033,1.881,11.2-1.268,14-2.864-.331-.738-.621-1.5-.9-2.237a53.919,53.919,0,0,1-2.3-7.364c-.036-.163-.085-.355-.141-.578-.383-1.525-.961-3.829-.042-5.061a1.994,1.994,0,0,1,1.6-.768,3,3,0,0,1,1.69.647c.531.337.99.629,1.423.477a2.582,2.582,0,0,0,1.177-1.577,12.772,12.772,0,0,0,0-6.59,2.584,2.584,0,0,0-1.178-1.577c-.377-.132-.792.15-1.231.449-.1.068-.2.136-.3.2l-.032.018a2.9,2.9,0,0,1-.323.182,2.865,2.865,0,0,1-1.035.288h-.065a1.94,1.94,0,0,1-1.667-.549c-.809-.9-.512-2.566-.3-3.786.029-.159.055-.309.077-.444a44.967,44.967,0,0,1,3.464-11.072,36.322,36.322,0,0,1-6.459,2.525A18.458,18.458,0,0,1-1483.32,854.047Z" transform="translate(1594.682 -762.55)" fill="#f1fbf3"/>
        <path id="Path_642" data-name="Path 642" d="M-2392.42,854.047a5.656,5.656,0,0,1-3-.7,3.479,3.479,0,0,1-1.517-3.442v-.1a5.017,5.017,0,0,1,.341-1.516,8.1,8.1,0,0,1,.483-.986,2.948,2.948,0,0,0,.581-2.137,3.5,3.5,0,0,0-2.04-1.938,8.92,8.92,0,0,0-3.419-.392l-1.856.05-.114.013h-.012c-.075.009-.154.02-.233.033s-.155.026-.232.041-.153.031-.228.05-.157.039-.222.057c-.083.023-.154.045-.221.068-.083.027-.152.052-.216.077a2.908,2.908,0,0,0-1.616,1.418l-.01.041-.013.029a2.078,2.078,0,0,0-.164,1.067,4.634,4.634,0,0,0,.609,1.547,9.075,9.075,0,0,1,.459.96,5.043,5.043,0,0,1,.342,1.515v.1a3.478,3.478,0,0,1-1.517,3.441c-1.552.962-4.2.927-7.86-.1a36.544,36.544,0,0,1-6.358-2.473,44.942,44.942,0,0,1,3.44,11.02c.021.136.048.285.076.444.217,1.22.514,2.891-.295,3.786a1.942,1.942,0,0,1-1.667.549h-.065a2.863,2.863,0,0,1-1.036-.288,2.824,2.824,0,0,1-.318-.179l-.012,0-.025-.016c-.1-.063-.2-.13-.3-.2-.439-.3-.854-.582-1.231-.449a2.589,2.589,0,0,0-1.178,1.577,12.776,12.776,0,0,0,0,6.59,2.592,2.592,0,0,0,1.178,1.577c.433.151.892-.14,1.424-.477a3.01,3.01,0,0,1,1.69-.647,1.993,1.993,0,0,1,1.6.767c.919,1.232.342,3.535-.04,5.059-.056.224-.1.418-.141.581a53.714,53.714,0,0,1-2.3,7.364c-.264.7-.563,1.489-.906,2.254,2.83,1.6,10.952,4.721,13.975,2.847a2.8,2.8,0,0,0,1.184-2.81v-.1a4.34,4.34,0,0,0-.3-1.293,8.576,8.576,0,0,0-.424-.88,5.079,5.079,0,0,1-.689-1.819,2.825,2.825,0,0,1,.213-1.39l.011-.043.013-.029a3.6,3.6,0,0,1,2.013-1.808c.092-.035.173-.064.25-.089.1-.032.176-.056.251-.077s.169-.046.255-.066.167-.038.254-.055.174-.033.26-.046.168-.025.256-.036.173-.021.261-.029l.258-.022.26-.016h.009c.085,0,.17-.007.256-.009s.17,0,.256,0h.819a9.378,9.378,0,0,1,3.625.442,4.2,4.2,0,0,1,2.465,2.4,3.547,3.547,0,0,1-.64,2.666,7.7,7.7,0,0,0-.443.9,4.342,4.342,0,0,0-.3,1.293v.1a2.8,2.8,0,0,0,1.183,2.81c3.034,1.881,11.2-1.268,14-2.864-.331-.738-.621-1.5-.9-2.237a53.9,53.9,0,0,1-2.3-7.364c-.037-.163-.085-.355-.141-.578-.383-1.525-.961-3.829-.042-5.061a1.994,1.994,0,0,1,1.6-.768,3,3,0,0,1,1.69.647c.531.337.99.629,1.423.477a2.583,2.583,0,0,0,1.177-1.577,12.775,12.775,0,0,0,0-6.59,2.583,2.583,0,0,0-1.178-1.577c-.377-.132-.792.15-1.231.449-.1.068-.2.136-.3.2l-.032.018a2.842,2.842,0,0,1-.322.182,2.862,2.862,0,0,1-1.035.288h-.065a1.94,1.94,0,0,1-1.667-.549c-.809-.9-.512-2.566-.295-3.786.029-.159.055-.309.077-.444a44.95,44.95,0,0,1,3.464-11.072,36.3,36.3,0,0,1-6.458,2.525,18.458,18.458,0,0,1-4.858.81Z" transform="translate(2423.49 -762.55)" fill="#f1fbf3"/>
        <path id="Path_643" data-name="Path 643" d="M-1931.14-24.6c-.057.229-.107.427-.145.6a53.178,53.178,0,0,1-2.276,7.268c-.254.673-.488,1.287-.747,1.889h-.051l-.081.047c-2.763,1.588-11,4.778-14.048,2.888a2.8,2.8,0,0,1-1.183-2.809v-.1a4.349,4.349,0,0,1,.3-1.293,7.418,7.418,0,0,1,.443-.9,3.547,3.547,0,0,0,.64-2.666,4.193,4.193,0,0,0-2.465-2.4,6.764,6.764,0,0,0-1.844-.4h-.009a15.424,15.424,0,0,0-1.772-.036l-.558-.009h-.519c-.088,0-.174,0-.258.01l-.26.016c-.085.006-.175.012-.263.021l-.247.026h-.014c-.087.011-.172.023-.258.037s-.173.029-.258.045-.172.036-.254.056-.175.042-.255.066-.175.05-.252.077-.169.058-.249.089a3.6,3.6,0,0,0-2.014,1.809l-.013.029-.011.042a2.829,2.829,0,0,0-.213,1.389,5.105,5.105,0,0,0,.69,1.821,8.48,8.48,0,0,1,.423.88,4.334,4.334,0,0,1,.3,1.292v.1a2.8,2.8,0,0,1-1.172,2.8,4.985,4.985,0,0,1-2.641.587c-3.645-.01-8.937-2.1-11.224-3.359-.3-.676-.561-1.372-.816-2.045A53.219,53.219,0,0,1-1976.99-24c-.038-.171-.088-.368-.145-.6-.328-1.311-.879-3.5-.161-4.468a1.307,1.307,0,0,1,1.064-.483,2.479,2.479,0,0,1,1.281.538,2.356,2.356,0,0,0,2.036.547,1.64,1.64,0,0,0,.261-.121A3.483,3.483,0,0,0-1971.3-30.5a13.377,13.377,0,0,0,0-7.011,3.178,3.178,0,0,0-1.618-2.033,2.025,2.025,0,0,0-1.807.493l-.057.038c-.086.059-.171.117-.256.171l-.036.021a2.2,2.2,0,0,1-.265.151,2.165,2.165,0,0,1-.767.222h-.072a1.272,1.272,0,0,1-1.1-.317c-.578-.639-.3-2.173-.124-3.189.029-.163.057-.317.078-.457a44.385,44.385,0,0,1,3.438-10.955c.118.061.25.125.392.2,2.2,1.071,7.11,3.076,10.8,3.075a5.688,5.688,0,0,0,3.046-.715,3.488,3.488,0,0,0,1.488-3.424v-.1a5.041,5.041,0,0,0-.342-1.516,9.067,9.067,0,0,0-.459-.958,4.621,4.621,0,0,1-.609-1.548,2.09,2.09,0,0,1,.163-1.068l.014-.029.01-.041a2.9,2.9,0,0,1,1.615-1.416c.078-.031.147-.057.213-.078s.148-.047.22-.068.151-.04.224-.057.153-.034.231-.049.153-.029.234-.042.156-.024.236-.034l.146-.017,1.832-.049a8.932,8.932,0,0,1,3.418.393,3.5,3.5,0,0,1,2.041,1.938,2.944,2.944,0,0,1-.58,2.135,8.24,8.24,0,0,0-.484.987,5.027,5.027,0,0,0-.342,1.515v.1a3.481,3.481,0,0,0,1.517,3.442c1.552.962,4.2.926,7.86-.1a36.032,36.032,0,0,0,6.558-2.577,44.446,44.446,0,0,1,3.488,11.063c.022.14.049.293.078.457.181,1.016.454,2.55-.124,3.189a1.272,1.272,0,0,1-1.1.317h-.072a2.177,2.177,0,0,1-.768-.222,2.291,2.291,0,0,1-.264-.151l-.025-.016-.012-.005q-.127-.083-.255-.171a2.1,2.1,0,0,0-1.863-.531,3.177,3.177,0,0,0-1.618,2.033,13.375,13.375,0,0,0,0,7.011,3.18,3.18,0,0,0,1.619,2.034,2.357,2.357,0,0,0,2.036-.548,2.5,2.5,0,0,1,1.281-.538,1.307,1.307,0,0,1,1.064.483C-1930.26-28.1-1930.81-25.906-1931.14-24.6Z" transform="translate(2017.018 61.739)" fill="#ddefe2"/>
        <path id="Path_644" data-name="Path 644" d="M-2406.07,435.839a2.8,2.8,0,0,0,1.185-2.81v-.1a4.373,4.373,0,0,0-.3-1.293,8.546,8.546,0,0,0-.424-.882,5.078,5.078,0,0,1-.688-1.817,2.833,2.833,0,0,1,.213-1.39l.011-.043.013-.029a3.6,3.6,0,0,1,2.013-1.808c.074-.028.16-.06.25-.089s.167-.054.25-.077.17-.046.255-.066.168-.038.253-.054.175-.033.262-.046.169-.025.254-.036.175-.02.262-.029.171-.015.259-.022.173-.011.261-.016.177-.007.263-.009.171,0,.258,0h.814a9.386,9.386,0,0,1,3.625.441,4.2,4.2,0,0,1,2.464,2.4,3.543,3.543,0,0,1-.64,2.666,7.525,7.525,0,0,0-.444.9,4.342,4.342,0,0,0-.3,1.293v.1a2.8,2.8,0,0,0,1.184,2.81c3.01,1.867,11.075-1.219,13.938-2.826-.337-.749-.632-1.524-.916-2.275a53.782,53.782,0,0,1-2.3-7.364c-.037-.162-.085-.355-.141-.578-.383-1.525-.961-3.829-.042-5.062a1.994,1.994,0,0,1,1.6-.767,3,3,0,0,1,1.69.647c.531.337.99.628,1.424.477a2.586,2.586,0,0,0,1.177-1.577,12.768,12.768,0,0,0,0-6.59,2.587,2.587,0,0,0-1.178-1.577c-.377-.133-.792.15-1.231.449-.1.068-.2.136-.3.2l-.037.021a2.808,2.808,0,0,1-.318.179,2.861,2.861,0,0,1-1.036.288h-.065a1.941,1.941,0,0,1-1.667-.549c-.81-.9-.512-2.566-.3-3.786.028-.159.055-.309.077-.444a45.029,45.029,0,0,1,3.463-11.072,36.278,36.278,0,0,1-6.458,2.525c-3.664,1.031-6.308,1.066-7.86.1a3.48,3.48,0,0,1-1.517-3.442v-.1a5.025,5.025,0,0,1,.342-1.516,8.086,8.086,0,0,1,.483-.986,2.949,2.949,0,0,0,.581-2.137,3.5,3.5,0,0,0-2.04-1.938,8.923,8.923,0,0,0-3.419-.392l-1.855.05-.114.013h-.013l-.233.033c-.079.012-.155.026-.232.041s-.153.032-.228.05-.158.039-.222.058c-.083.023-.154.045-.221.068-.083.027-.152.052-.215.077a2.917,2.917,0,0,0-1.615,1.415l-.01.04-.015.032a2.089,2.089,0,0,0-.164,1.067,4.64,4.64,0,0,0,.609,1.547,8.952,8.952,0,0,1,.458.96,5.028,5.028,0,0,1,.343,1.515v.1a3.479,3.479,0,0,1-1.517,3.441c-1.552.962-4.2.927-7.86-.1a36.414,36.414,0,0,1-6.41-2.5,45,45,0,0,1,3.452,11.046c.021.136.048.285.076.445.217,1.22.515,2.891-.295,3.786a1.94,1.94,0,0,1-1.667.549h-.065a2.869,2.869,0,0,1-1.036-.288,2.874,2.874,0,0,1-.317-.179l-.013-.005-.024-.016c-.1-.063-.2-.13-.3-.2-.439-.3-.854-.582-1.231-.449a2.588,2.588,0,0,0-1.178,1.577,12.757,12.757,0,0,0,0,6.59,2.588,2.588,0,0,0,1.178,1.577c.433.151.892-.14,1.423-.477a3,3,0,0,1,1.69-.647,2,2,0,0,1,1.6.768c.919,1.233.341,3.537-.042,5.061-.056.223-.1.416-.141.578a53.787,53.787,0,0,1-2.3,7.364c-.272.721-.554,1.465-.881,2.2l.026.015C-2417.35,434.539-2409.12,437.728-2406.07,435.839Z" transform="translate(2423.133 -345.827)" fill="#ddefe2"/>
        <path id="Path_645" data-name="Path 645" d="M-1931.14,422.621c-.057.229-.107.427-.145.6a53.177,53.177,0,0,1-2.276,7.268c-.281.743-.6,1.584-.964,2.38l-.033.07v.137a35.021,35.021,0,0,1-6.579,2.6c-3.4.949-5.9,1.007-7.251.166a2.8,2.8,0,0,1-1.179-2.807v-.1a4.338,4.338,0,0,1,.3-1.292,7.533,7.533,0,0,1,.443-.9,3.544,3.544,0,0,0,.641-2.666,4.2,4.2,0,0,0-2.464-2.406,9.393,9.393,0,0,0-3.626-.442h-1.072c-.082,0-.175.005-.265.01l-.26.015c-.087.006-.175.013-.259.022l-.26.028c-.087.01-.174.023-.257.036s-.173.029-.26.046-.172.035-.254.055-.17.042-.255.066-.168.05-.249.077-.176.061-.251.089a3.6,3.6,0,0,0-2.013,1.809l-.015.032-.011.043a2.831,2.831,0,0,0-.211,1.386,5.068,5.068,0,0,0,.688,1.818,8.573,8.573,0,0,1,.424.882,4.373,4.373,0,0,1,.3,1.293v.1a2.8,2.8,0,0,1-1.174,2.8c-2.95,1.847-10.764-1.091-13.786-2.731v-.164l-.033-.07c-.356-.774-.665-1.59-.965-2.38a53.249,53.249,0,0,1-2.275-7.268c-.038-.171-.088-.368-.145-.6-.328-1.311-.879-3.5-.161-4.468a1.307,1.307,0,0,1,1.064-.483,2.489,2.489,0,0,1,1.281.538,2.353,2.353,0,0,0,2.036.547,3.179,3.179,0,0,0,1.619-2.033,13.377,13.377,0,0,0,0-7.011,3.178,3.178,0,0,0-1.618-2.033,2.1,2.1,0,0,0-1.863.531c-.086.059-.171.117-.256.171l-.036.021a2.192,2.192,0,0,1-.265.151,2.166,2.166,0,0,1-.767.222h-.072a1.273,1.273,0,0,1-1.1-.317c-.578-.639-.3-2.173-.124-3.189.029-.163.057-.317.078-.457a44.529,44.529,0,0,1,3.5-11.093,36.538,36.538,0,0,0,6.408,2.468,16.536,16.536,0,0,0,5.358.744,5.1,5.1,0,0,0,2.4-.684,3.481,3.481,0,0,0,1.5-3.432v-.1a5.044,5.044,0,0,0-.342-1.516,9.3,9.3,0,0,0-.458-.958,4.622,4.622,0,0,1-.61-1.549,2.087,2.087,0,0,1,.163-1.067l.014-.029.01-.041a2.91,2.91,0,0,1,1.615-1.416c.069-.027.139-.052.216-.078s.138-.045.22-.068.143-.039.224-.057.15-.035.227-.049.155-.029.234-.042.156-.024.231-.034h.01l.117-.013,1.855-.05a8.9,8.9,0,0,1,3.418.392,3.5,3.5,0,0,1,2.041,1.938,2.944,2.944,0,0,1-.58,2.134,8.284,8.284,0,0,0-.484.987,5.034,5.034,0,0,0-.342,1.515v.1a3.481,3.481,0,0,0,1.517,3.442c1.552.962,4.2.927,7.86-.1a36.285,36.285,0,0,0,6.495-2.544,44.6,44.6,0,0,1,3.551,11.2c.022.14.049.293.078.457.181,1.016.454,2.55-.124,3.189a1.275,1.275,0,0,1-1.1.317h-.072a2.177,2.177,0,0,1-.768-.222,2.283,2.283,0,0,1-.264-.151l-.025-.016-.012-.005q-.127-.082-.255-.171a2.1,2.1,0,0,0-1.863-.531,3.177,3.177,0,0,0-1.618,2.033,12.36,12.36,0,0,0-.466,3.7,12.024,12.024,0,0,0,.466,3.313,3.18,3.18,0,0,0,1.62,2.036,2.357,2.357,0,0,0,2.036-.548,2.487,2.487,0,0,1,1.281-.538,1.307,1.307,0,0,1,1.064.483C-1930.26,419.119-1930.81,421.311-1931.14,422.621Z" transform="translate(2017.018 -345.826)" fill="#ddefe2"/>
        <path id="Path_646" data-name="Path 646" d="M-1931.14,877.249c.328-1.31.878-3.5.16-4.466a1.306,1.306,0,0,0-1.064-.484,2.5,2.5,0,0,0-1.28.538,2.355,2.355,0,0,1-2.036.547,3.179,3.179,0,0,1-1.618-2.033,13.37,13.37,0,0,1,0-7.012,3.18,3.18,0,0,1,1.618-2.033,2.1,2.1,0,0,1,1.863.532c.086.058.171.117.255.171l.012.005.025.016a2.361,2.361,0,0,0,.264.151,2.18,2.18,0,0,0,.768.222h.072a1.275,1.275,0,0,0,1.1-.317c.577-.638.3-2.173.123-3.189-.029-.164-.056-.317-.078-.456a44.241,44.241,0,0,0-3.407-10.887c-2.932,1.56-11.041,4.756-14.4,2.663a3.482,3.482,0,0,1-1.51-3.438v-.1a5.032,5.032,0,0,1,.341-1.516,8.2,8.2,0,0,1,.483-.986,2.947,2.947,0,0,0,.581-2.137,3.5,3.5,0,0,0-2.04-1.938,8.936,8.936,0,0,0-3.419-.392l-1.838.05h0l-.142.017c-.079.01-.158.021-.237.034s-.156.026-.233.041-.152.031-.228.049-.153.038-.228.059-.146.044-.219.068-.153.053-.217.078a2.909,2.909,0,0,0-1.61,1.413l-.009.04-.015.032a2.09,2.09,0,0,0-.164,1.068,4.635,4.635,0,0,0,.609,1.546,9.127,9.127,0,0,1,.459.96,5.057,5.057,0,0,1,.342,1.515v.1a3.483,3.483,0,0,1-1.5,3.434c-1.534.961-4.149.938-7.77-.067a36.041,36.041,0,0,1-6.6-2.571,44.321,44.321,0,0,0-3.4,10.866c-.022.139-.049.292-.078.456-.181,1.016-.454,2.55.123,3.189a1.273,1.273,0,0,0,1.1.317h.071a2.177,2.177,0,0,0,.768-.221,2.335,2.335,0,0,0,.265-.152l.036-.021c.085-.054.17-.112.256-.171a2.1,2.1,0,0,1,1.863-.531,3.177,3.177,0,0,1,1.618,2.033,13.372,13.372,0,0,1,0,7.011,3.177,3.177,0,0,1-1.618,2.033,2.355,2.355,0,0,1-2.036-.547,2.469,2.469,0,0,0-1.281-.538,1.306,1.306,0,0,0-1.064.484c-.719.964-.168,3.158.161,4.468.057.227.106.424.145.595a53.143,53.143,0,0,0,2.275,7.268c.228.6.464,1.221.724,1.831,2.609-1.315,10.722-4.687,14.148-2.491a3.492,3.492,0,0,1,1.474,3.415v.1a5.036,5.036,0,0,1-.342,1.516,9.078,9.078,0,0,1-.459.959,4.635,4.635,0,0,0-.609,1.546,2.09,2.09,0,0,0,.164,1.068l.013.029.011.04a2.9,2.9,0,0,0,1.614,1.416c.073.029.145.054.218.079s.146.046.22.068.148.039.224.058.15.033.227.049.155.028.233.041.157.024.236.034l.146.017,1.832.047a8.914,8.914,0,0,0,3.419-.392,3.5,3.5,0,0,0,2.041-1.938,2.95,2.95,0,0,0-.581-2.135,8.155,8.155,0,0,1-.483-.986,5.03,5.03,0,0,1-.342-1.516v-.1a3.481,3.481,0,0,1,1.517-3.442c1.551-.962,4.2-.927,7.86.1a35.226,35.226,0,0,1,6.8,2.709c.32-.721.6-1.464.851-2.126a53,53,0,0,0,2.276-7.268C-1931.24,877.674-1931.2,877.477-1931.14,877.249Z" transform="translate(2017.02 -760.609)" fill="#ddefe2"/>
      </g>
      <path id="Path_647" data-name="Path 647" d="M68.68,72.83a1.01,1.01,0,0,1-1.427,0L62.2,67.779a1.009,1.009,0,0,1,1.427-1.427l4.336,4.336,9.963-9.965a6.594,6.594,0,0,0-4.456-1.736,7.2,7.2,0,0,0-5.507,3.029,7.2,7.2,0,0,0-5.507-3.029A6.611,6.611,0,0,0,55.848,65.6c0,6.4,7.5,12.525,10.9,15.2v-.007a1.984,1.984,0,0,0,2.422,0V80.8c3.408-2.674,10.9-8.8,10.9-15.2a6.58,6.58,0,0,0-.878-3.291Z" transform="translate(-21531.996 -7651.452)" fill="#25772f"/>
      <path id="Path_648" data-name="Path 648" d="M64.852,114.5a2.141,2.141,0,1,0,2.141,2.141,2.141,2.141,0,0,0-2.141-2.141Zm0,5.712h-.076a5.225,5.225,0,0,0-.785.069,3.7,3.7,0,0,0-2.784,2.249l-1.2,2.868L57.4,126.71a.714.714,0,0,0,.636,1.278l2.855-1.428a.7.7,0,0,0,.341-.363l.77-1.85v3.107l-2.26,1.6a1.423,1.423,0,0,0-.507,1.658,1.494,1.494,0,0,0,1.414.917h1.489a1.911,1.911,0,0,1,.429-2.063,2.116,2.116,0,0,1,1.733-.789,1.789,1.789,0,0,1,.558.113c.127.043,2.365.753,2.365.753l-3.133.561a.713.713,0,0,0,.054,1.424h5a1.343,1.343,0,0,0,1.207-.914.7.7,0,0,0,.212-.505,1.416,1.416,0,0,0-.6-1.156h0l-2.257-1.6v-3.107l.77,1.85a.712.712,0,0,0,.337.363l2.855,1.428a.715.715,0,1,0,.641-1.278L69.692,125.4l-1.2-2.868a3.7,3.7,0,0,0-2.782-2.249h0a5.3,5.3,0,0,0-.792-.069Z" transform="translate(-21569.008 -7705.258)" fill="#96c09f"/>
      <path id="Path_649" data-name="Path 649" d="M57.02,43.9a3.011,3.011,0,0,0-2.841,2.9.248.248,0,0,0,.277.237,3.042,3.042,0,0,0,2.862-2.889.247.247,0,0,0-.3-.248Zm-5.988.62a.628.628,0,0,0-.342,1.154,3.974,3.974,0,0,1,1.545,2.545,4.346,4.346,0,0,0-2.078-.555,4.829,4.829,0,0,0-4.771,4.858,9.208,9.208,0,0,0,2.336,5.824,9.6,9.6,0,0,0,1.955,1.782,3.417,3.417,0,0,0,1.864.723,2.313,2.313,0,0,0,1.2-.394c.106-.06.1-.067.185-.118.081.051.078.058.183.118a2.319,2.319,0,0,0,1.2.394,3.743,3.743,0,0,0,1.827-.6,8.2,8.2,0,0,0,1.979-1.626,9.041,9.041,0,0,0,2.348-6.1,4.829,4.829,0,0,0-4.771-4.858,4.4,4.4,0,0,0-2.181.609,5.475,5.475,0,0,0-2.119-3.642.632.632,0,0,0-.361-.113Zm4.655,4.4a3.558,3.558,0,0,1,3.515,3.6,7.74,7.74,0,0,1-2.021,5.259A7.158,7.158,0,0,1,55.5,59.171a2.971,2.971,0,0,1-1.2.431,2.8,2.8,0,0,1-.582-.233A4.107,4.107,0,0,1,53.3,59.1l-.373-.277v-8.6l.412-.361a3.572,3.572,0,0,1,2.347-.936Zm-.88,3.769a.183.183,0,0,0-.142.073,1.682,1.682,0,0,0,0,2.366.174.174,0,0,0,.283,0,1.948,1.948,0,0,0,.486-1.183,1.855,1.855,0,0,0-.486-1.183.185.185,0,0,0-.142-.072Z" transform="translate(-21517.125 -7673.923)" fill="#96c09f"/>
      <path id="Path_650" data-name="Path 650" d="M155.779,33.167h-11.8a1.311,1.311,0,0,0-1.31,1.311v5.246h.551l.207-.489a1.294,1.294,0,0,1,2.39.028l.729,1.831,2.058-6.168a.656.656,0,0,1,1.273.126l.936,7.491.736-2.359a.656.656,0,0,1,.625-.461h1.167a1.311,1.311,0,1,1,0,1.311h-.684l-1.5,4.784a.653.653,0,0,1-.624.461h-.059a.659.659,0,0,1-.593-.571l-.953-7.622-1.708,5.125a.655.655,0,0,1-.6.448.678.678,0,0,1-.628-.413l-1.4-3.5-.341.889a.659.659,0,0,1-.6.4h-.984v5.244a1.31,1.31,0,0,0,1.31,1.311h11.8a1.309,1.309,0,0,0,1.311-1.311v-11.8A1.31,1.31,0,0,0,155.779,33.167Z" transform="translate(-21574.021 -7621.217)" fill="#96c09f"/>
      <path id="Path_651" data-name="Path 651" d="M87.935,9.833A1.268,1.268,0,0,0,86.667,11.1V22.514a1.267,1.267,0,0,0,1.268,1.268h13.949a1.266,1.266,0,0,0,1.267-1.268V12.369a1.267,1.267,0,0,0-1.267-1.268H92.5l-.39-.653a1.268,1.268,0,0,0-1.087-.614Zm6.975,3.8a3.812,3.812,0,1,1-2.694,1.117,3.8,3.8,0,0,1,2.694-1.117Zm0,1.269a.635.635,0,0,0-.634.634V16.8H93.008a.634.634,0,1,0,0,1.268h1.268V19.34a.634.634,0,0,0,1.268,0V18.076h1.268a.634.634,0,1,0,0-1.268H95.543V15.54a.635.635,0,0,0-.634-.634Z" transform="translate(-21559.525 -7557.556)" fill="#96c09f"/>
    </g>
  </g>
</svg>
