<svg xmlns="http://www.w3.org/2000/svg" width="227.33" height="144.05" viewBox="0 0 227.33 144.05">
  <g id="_4" data-name="4" transform="translate(-1085 -383)">
    <g id="Group_370" data-name="Group 370" transform="translate(22551.666 7639)">
      <line id="Line_2" data-name="Line 2" x2="28.642" transform="translate(-21413.922 -7184.829)" fill="none" stroke="#b7d1b5" stroke-width="1.167" stroke-dasharray="2.33 2.33"/>
      <line id="Line_3" data-name="Line 3" x2="20.253" y2="20.253" transform="translate(-21397.213 -7226.834)" fill="none" stroke="#b7d1b5" stroke-width="1.167" stroke-dasharray="2.33 2.33"/>
      <line id="Line_6" data-name="Line 6" x2="20.253" y2="20.253" transform="translate(-21309.457 -7141.427) rotate(180)" fill="none" stroke="#b7d1b5" stroke-width="1.167" stroke-dasharray="2.33 2.33"/>
      <line id="Line_4" data-name="Line 4" y1="20.253" x2="20.252" transform="translate(-21327.285 -7228.732)" fill="none" stroke="#b7d1b5" stroke-width="1.167" stroke-dasharray="2.33 2.33"/>
      <line id="Line_7" data-name="Line 7" y1="20.253" x2="20.252" transform="translate(-21379.385 -7139.529) rotate(180)" fill="none" stroke="#b7d1b5" stroke-width="1.167" stroke-dasharray="2.33 2.33"/>
      <line id="Line_5" data-name="Line 5" x2="28.643" transform="translate(-21323.389 -7184.829)" fill="none" stroke="#b7d1b5" stroke-width="1.167" stroke-dasharray="2.33 2.33"/>
      <circle id="Ellipse_59" data-name="Ellipse 59" cx="16.524" cy="16.524" r="16.524" transform="translate(-21443.666 -7201.904)" fill="#ddefe2"/>
      <circle id="Ellipse_60" data-name="Ellipse 60" cx="16.524" cy="16.524" r="16.524" transform="translate(-21421.635 -7253.68)" fill="#ddefe2"/>
      <circle id="Ellipse_102" data-name="Ellipse 102" cx="16.524" cy="16.524" r="16.524" transform="translate(-21285.035 -7114.582) rotate(180)" fill="#ddefe2"/>
      <circle id="Ellipse_103" data-name="Ellipse 103" cx="16.524" cy="16.524" r="16.524" transform="translate(-21388.586 -7114.582) rotate(180)" fill="#ddefe2"/>
      <circle id="Ellipse_61" data-name="Ellipse 61" cx="16.524" cy="16.524" r="16.524" transform="translate(-21318 -7254)" fill="#ddefe2"/>
      <circle id="Ellipse_62" data-name="Ellipse 62" cx="16.524" cy="16.524" r="16.524" transform="translate(-21296.049 -7201.904)" fill="#ddefe2"/>
      <circle id="Ellipse_64" data-name="Ellipse 64" cx="35.252" cy="35.252" r="35.252" transform="translate(-21388.586 -7220.632)" fill="#ddefe2"/>
      <path id="Path_652" data-name="Path 652" d="M21.774.011a3.138,3.138,0,0,0-1.266.148L2.218,6.084A3.193,3.193,0,0,0,.159,10.118l2.963,9.143A12.979,12.979,0,0,0,4.1,21.512a15.989,15.989,0,0,1,2.977-6.144l5.909-7.582a6.4,6.4,0,0,1,9-1.114l5.362,4.188-2.8-8.638A3.21,3.21,0,0,0,21.774.011Zm-2.9,8.615a3.209,3.209,0,0,0-3.359,1.131L9.6,17.339c-6.581,8.434.622,18.514.938,18.936a1.645,1.645,0,0,0,.307.317,1.161,1.161,0,0,0,.387.219c.486.2,12,4.725,18.583-3.713l5.912-7.582a3.2,3.2,0,0,0-.556-4.5L20.008,9.2a3.2,3.2,0,0,0-1.137-.574Zm-1.485,8.93a2.308,2.308,0,0,1,.857.421,2.422,2.422,0,1,1-.857-.421Zm8.843,6.9a2.4,2.4,0,1,1-2.515.847,2.4,2.4,0,0,1,2.515-.847Zm-13.267,1.6,7.583,5.912a4.808,4.808,0,1,1-7.583-5.912Z" transform="translate(-21382.354 -7188.805) rotate(-38)" fill="#25772f"/>
      <path id="surface1_28_" data-name="surface1 (28)" d="M5.4,0A2.215,2.215,0,0,0,3.206,1.94,2.393,2.393,0,0,0,2.859,1.9,2.224,2.224,0,0,0,.635,4.129,2.174,2.174,0,0,0,.8,4.973a2.2,2.2,0,0,0,.25,3.583,2.214,2.214,0,0,0,2.31,3.452,1.486,1.486,0,0,0,.084.151l-.009.008a5.128,5.128,0,0,1-.264,4.351H5.718s0-2.8,2.518-3.179h.023A2.536,2.536,0,0,0,10.541,11.9a2.52,2.52,0,0,0,3.376-1.845A2.5,2.5,0,0,0,17.15,7.623a2.54,2.54,0,0,0-.193-.97,1.9,1.9,0,0,0-.531-3.387A1.9,1.9,0,0,0,14.61,1.9c-.057,0-.113.014-.169.018A2.847,2.847,0,0,0,10.164.481,2.863,2.863,0,0,0,8.575,0a2.828,2.828,0,0,0-1.7.57A2.222,2.222,0,0,0,5.4,0ZM8.03,1.9h.457a.159.159,0,0,1,.158.142l.02.161a.481.481,0,0,0,.383.416,3.327,3.327,0,0,1,.392.1.48.48,0,0,0,.539-.167l.1-.13a.161.161,0,0,1,.208-.045l.4.229a.162.162,0,0,1,.066.2l-.066.154a.482.482,0,0,0,.124.551A3.567,3.567,0,0,1,11.1,3.8a.481.481,0,0,0,.554.124l.151-.063a.155.155,0,0,1,.2.063l.231.4a.159.159,0,0,1-.045.208l-.128.1a.478.478,0,0,0-.169.539,3.409,3.409,0,0,1,.1.392.482.482,0,0,0,.415.385l.163.017a.159.159,0,0,1,.142.158v.457a.157.157,0,0,1-.142.158l-.163.018a.482.482,0,0,0-.415.385,3.5,3.5,0,0,1-.1.392.477.477,0,0,0,.169.537l.128.1a.158.158,0,0,1,.045.208l-.231.4a.158.158,0,0,1-.2.066l-.151-.066A.485.485,0,0,0,11.1,8.9a3.6,3.6,0,0,1-.284.285.483.483,0,0,0-.124.552l.066.152a.158.158,0,0,1-.066.2l-.4.228a.154.154,0,0,1-.208-.042l-.1-.128a.478.478,0,0,0-.539-.169,3.332,3.332,0,0,1-.392.1.481.481,0,0,0-.383.415l-.02.163a.158.158,0,0,1-.158.142H8.029a.159.159,0,0,1-.158-.142l-.02-.163a.479.479,0,0,0-.382-.415,3.332,3.332,0,0,1-.392-.1.478.478,0,0,0-.539.169l-.1.128a.155.155,0,0,1-.208.042l-.4-.228a.159.159,0,0,1-.066-.2l.066-.152a.483.483,0,0,0-.124-.552A3.587,3.587,0,0,1,5.43,8.9a.486.486,0,0,0-.554-.122l-.151.066a.162.162,0,0,1-.2-.066l-.229-.4a.16.16,0,0,1,.045-.208l.13-.1a.478.478,0,0,0,.167-.537,3.494,3.494,0,0,1-.1-.392.482.482,0,0,0-.416-.385l-.161-.018a.159.159,0,0,1-.142-.158V6.124a.169.169,0,0,1,.169-.161l.134-.017a.479.479,0,0,0,.416-.385,3.44,3.44,0,0,1,.1-.389.484.484,0,0,0-.167-.542l-.13-.094A.161.161,0,0,1,4.3,4.328l.229-.4a.162.162,0,0,1,.2-.066l.151.066A.486.486,0,0,0,5.43,3.8a3.594,3.594,0,0,1,.282-.285.481.481,0,0,0,.124-.551L5.769,2.82a.163.163,0,0,1,.066-.2l.4-.229a.164.164,0,0,1,.208.042l.1.133a.484.484,0,0,0,.539.167,3.327,3.327,0,0,1,.392-.1.481.481,0,0,0,.382-.416l.02-.164A.16.16,0,0,1,8.029,1.9Zm.229,1.9a2.542,2.542,0,1,0,1.8.745,2.541,2.541,0,0,0-1.8-.745Zm0,1.272a1.27,1.27,0,1,1-1.27,1.27,1.27,1.27,0,0,1,1.27-1.27Z" transform="translate(-21414 -7244.517)" fill="#96c09f"/>
      <path id="surface1_30_" data-name="surface1 (30)" d="M9.554,0A1.062,1.062,0,0,0,8.493,1.062V7.786H7.786V2.478a1.063,1.063,0,0,0-2.125,0v10.1A31.859,31.859,0,0,0,2.6,10.814a2.243,2.243,0,0,0-.891-.2A1.606,1.606,0,0,0,0,12.031l2.83,2.123L5.1,16.875A4.246,4.246,0,0,0,8.36,18.4h5.086a2.828,2.828,0,0,0,2.831-2.83V4.6a1.062,1.062,0,0,0-2.123,0V7.786h-.708V2.478a1.062,1.062,0,1,0-2.123,0V7.786h-.708V1.062A1.062,1.062,0,0,0,9.554,0Zm0,10.616a1.757,1.757,0,0,1,1.415.719,1.764,1.764,0,0,1,3.185,1.051c0,1.768-3.185,3.891-3.185,3.891s-3.183-2.123-3.183-3.891a1.766,1.766,0,0,1,1.768-1.77Z" transform="translate(-21414.885 -7140.4)" fill="#96c09f"/>
      <path id="surface1_31_" data-name="surface1 (31)" d="M8.893,0a8.892,8.892,0,1,0,8.891,8.892A8.892,8.892,0,0,0,8.893,0Zm0,1.482A7.4,7.4,0,1,1,3.65,3.649,7.41,7.41,0,0,1,8.893,1.482ZM4.446,7.411a.741.741,0,1,0,0,1.482H6.67a.741.741,0,1,0,0-1.482Zm6.67,0a.741.741,0,1,0,0,1.482h2.223a.741.741,0,0,0,0-1.482Zm-5.927,3.7a3.7,3.7,0,1,0,7.409,0Z" transform="translate(-21310 -7246)" fill="#96c09f"/>
      <path id="surface1_32_" data-name="surface1 (32)" d="M6.858,0C4.422,0,3.015,1.9,3.015,4.191a4.168,4.168,0,0,0,.369,1.547.82.82,0,0,0-.329.836c.112.9.5,1.124.749,1.14a4.207,4.207,0,0,0,1.53,2.191v1.27C4.634,13.271,0,12.191,0,16.762H13.714c0-4.571-4.634-3.491-5.333-5.586V9.9a4.206,4.206,0,0,0,1.53-2.191c.248-.016.635-.242.751-1.14a.813.813,0,0,0-.331-.836A3.7,3.7,0,0,0,10.7,4.191c0-1.7-.666-3.143-2.1-3.143A1.628,1.628,0,0,0,6.858,0Zm4.793,1.524a5.994,5.994,0,0,1,.572,2.667,5.085,5.085,0,0,1-.19,1.344,2.476,2.476,0,0,1,.139,1.232,2.945,2.945,0,0,1-.993,2.01c-.054.125-.123.246-.188.366h.438v2.285l3.045-2.285h3.049A2.285,2.285,0,0,0,19.81,6.858V3.809a2.287,2.287,0,0,0-2.287-2.285Z" transform="translate(-21289 -7194.763)" fill="#96c09f"/>
      <path id="surface1_33_" data-name="surface1 (33)" d="M8.385,0A8.4,8.4,0,0,0,0,8.385a8.306,8.306,0,0,0,1.13,4.183c.173-.275.347-.539.513-.787l.375-.538A6.983,6.983,0,1,1,15.369,8.33l.453.657c.247.358.509.765.75,1.18a8.284,8.284,0,0,0,.2-1.782A8.393,8.393,0,0,0,8.385,0ZM6.32,4.888a.7.7,0,0,0-.254.038l-2.1.7a.7.7,0,0,0,.443,1.326l2.1-.7A.7.7,0,0,0,6.32,4.888Zm4.177,0a.7.7,0,0,0-.237,1.364l2.1.7a.7.7,0,1,0,.44-1.327l-2.1-.7a.754.754,0,0,0-.2-.037Zm-2.112,3.5a3.492,3.492,0,0,0-3.493,3.493h6.986a3.492,3.492,0,0,0-3.493-3.5Zm6.287,1.4s-1.4,2.023-1.4,2.794a1.4,1.4,0,0,0,2.794,0c0-.782-1.394-2.8-1.394-2.8ZM2.794,12.576S1.4,14.6,1.4,15.37a1.4,1.4,0,0,0,2.794,0C4.191,14.6,2.794,12.576,2.794,12.576Zm9.556,1.553a6.939,6.939,0,0,1-6.861.606,2.583,2.583,0,0,1,.1.636,2.8,2.8,0,0,1-.148.855,8.294,8.294,0,0,0,7.985-1.16,2.8,2.8,0,0,1-1.076-.937Z" transform="translate(-21310 -7139.5)" fill="#96c09f"/>
      <path id="surface1_34_" data-name="surface1 (34)" d="M7.938,0C6.182,0,0,.722,0,7.938v3.608a3.01,3.01,0,0,0,.97,2.3,1.474,1.474,0,0,0,.62.347c.262.671,1.92,4.516,6.267,4.567a.746.746,0,0,0,.082,0h.087c4.341-.054,6-3.9,6.261-4.567a1.473,1.473,0,0,0,.62-.347,3.009,3.009,0,0,0,.97-2.3V7.938a9.772,9.772,0,0,0-.169-1.762l-2.523,1.08a11.571,11.571,0,0,1,.527,3.569h.722v.722a1.44,1.44,0,0,1-.474,1.218,1.121,1.121,0,0,1-.423.248l-.386.093-.124.378s-1.24,3.837-5.088,3.837S2.85,13.483,2.85,13.483L2.723,13.1l-.383-.093a1.122,1.122,0,0,1-.423-.248,1.441,1.441,0,0,1-.473-1.218v-.722h.722c0-3.916,4.338-2.63,7.3-4.206A1.838,1.838,0,0,1,9.92,4.8l.93-.93a1.837,1.837,0,0,1-.327-1.443,1.807,1.807,0,0,1,.865-1.212C11.048.809,10.1,0,7.938,0Zm8.246.722a.368.368,0,0,0-.13.034L12.17,2.419a.393.393,0,0,0-.121.637l.832.829L10.938,5.827a.392.392,0,0,0-.045.5.443.443,0,0,0,.045.056.389.389,0,0,0,.431.082L15.251,4.8a.4.4,0,0,0,.231-.287.388.388,0,0,0-.107-.352l-.832-.832L16.485,1.39a.393.393,0,0,0,.045-.5A.386.386,0,0,0,16.184.722ZM6.123,9.382,4.33,11.175A1.268,1.268,0,1,0,6.123,9.382Zm3.631,0a1.268,1.268,0,1,0,1.793,1.793ZM7.938,12.99a2.712,2.712,0,0,0-1.982.961.723.723,0,1,0,1.077.964,1.989,1.989,0,0,1,.9-.482,1.989,1.989,0,0,1,.9.482.723.723,0,0,0,1.077-.964,2.712,2.712,0,0,0-1.972-.961Z" transform="translate(-21435 -7194.763)" fill="#96c09f"/>
    </g>
  </g>
</svg>
