<svg xmlns="http://www.w3.org/2000/svg" width="144.922" height="145" viewBox="0 0 144.922 145">
  <g id="Сгруппировать_795" data-name="Сгруппировать 795" transform="translate(-418 -771)">
    <g id="Group_428" data-name="Group 428" transform="translate(22573 7682)">
      <rect id="Rectangle_467" data-name="Rectangle 467" width="53.375" height="53.375" rx="26.687" transform="translate(-22108.869 -6864.845)" fill="#e8e8e8"/>
      <path id="Path_689" data-name="Path 689" d="M52.6,0h0a52.6,52.6,0,0,1,52.6,52.59v0A52.6,52.6,0,0,1,52.6,105.19h0A52.6,52.6,0,0,1,0,52.6H0A52.6,52.6,0,0,1,52.6,0Z" transform="translate(-22134.355 -6889.927)" fill="none" stroke="#e8e8e8" stroke-width="2.226" stroke-dasharray="2.23 2.23"/>
      <rect id="Rectangle_470" data-name="Rectangle 470" width="30.836" height="30.836" rx="15.418" transform="translate(-22040.914 -6853.914)" fill="#e8e8e8"/>
      <rect id="Rectangle_471" data-name="Rectangle 471" width="30.836" height="30.836" rx="15.418" transform="translate(-22097.6 -6797)" fill="#e8e8e8"/>
      <rect id="Rectangle_469" data-name="Rectangle 469" width="30.836" height="30.836" rx="15.418" transform="translate(-22155 -6853.586)" fill="#e8e8e8"/>
      <rect id="Rectangle_468" data-name="Rectangle 468" width="30.836" height="30.836" rx="15.418" transform="translate(-22097.6 -6910)" fill="#e8e8e8"/>
      <path id="Path_688" data-name="Path 688" d="M130.185,64.048a7.977,7.977,0,1,0,7.977,7.977,7.977,7.977,0,0,0-7.977-7.977Zm4.459,6.453-5.025,5.025a.666.666,0,0,1-.94,0l-2.295-2.3a.664.664,0,1,1,.939-.939l1.827,1.825,4.553-4.555a.665.665,0,0,1,.941.939Z" transform="translate(-22155.682 -6910.873)" fill="#cfcfcf"/>
      <path id="Path_687" data-name="Path 687" d="M16.1,80.019a.659.659,0,0,1-.4-.133c-.309-.227-7.582-5.69-7.582-9.84a4.662,4.662,0,0,1,4.656-4.656A4.735,4.735,0,0,1,16.1,66.86a4.735,4.735,0,0,1,3.324-1.47,4.661,4.661,0,0,1,4.654,4.656c0,4.15-7.272,9.613-7.582,9.843A.672.672,0,0,1,16.1,80.019Z" transform="translate(-22155.682 -6910.873)" fill="#cfcfcf"/>
      <path id="one-hair" d="M53.974,47.422v3.219a1.127,1.127,0,0,1-1.127,1.127H6.182a1.127,1.127,0,0,1-1.127-1.127V47.422ZM10.342,30.991c1.939,1.7,5.308,2.114,7.618,1.775a11.181,11.181,0,0,0,2.735-1.116,28.672,28.672,0,0,1,2.7-1.221,30.146,30.146,0,0,1,.266-4.145H6.182A1.127,1.127,0,0,0,5.055,27.41v2.013a7.625,7.625,0,0,1,5.287,1.568ZM44.191,1.265c.008-.014.015-.028.022-.042a.8.8,0,0,0,.043-.092l.017-.047A.771.771,0,0,0,44.3.992a.339.339,0,0,1,.008-.044.82.82,0,0,0,.007-.114c0-.006,0-.013,0-.02A.807.807,0,0,0,44.3.683a.167.167,0,0,0-.009-.037.817.817,0,0,0-.026-.09c-.005-.014-.011-.028-.017-.042S44.22.462,44.206.436A.183.183,0,0,0,44.185.4a.966.966,0,0,0-.057-.082L44.111.292A.909.909,0,0,0,44.022.2L44,.18a.8.8,0,0,0-.077-.057L43.883.1a.765.765,0,0,0-.076-.038l-.04-.016A.721.721,0,0,0,43.679.02L43.644.011A.682.682,0,0,0,43.517,0H43.5a.724.724,0,0,0-.109.013l-.041.01a.746.746,0,0,0-.1.032l-.04.017a.872.872,0,0,0-.132.076,53.522,53.522,0,0,0-8.433,7.306q-.564.612-1.113,1.256t-1.074,1.318a28.817,28.817,0,0,0-5.206,9.988c-.088.32-.171.633-.25.942-.029.113-.056.222-.083.334-.048.19-.1.38-.14.566-.034.14-.065.278-.1.416s-.069.3-.1.442l-.1.458-.075.356q-.052.251-.1.5l-.051.269c-.034.182-.068.363-.1.54L26.126,25q-.114.666-.2,1.288h0a29.428,29.428,0,0,0-.283,3.529h0c-.01.633.006,1.216.043,1.75v.009q.018.266.043.515h0a9.68,9.68,0,0,0,1.34,4.407l.022.032a2.393,2.393,0,0,0,.5.585,2.825,2.825,0,0,0,1.22.648h0a2.924,2.924,0,0,0,.3.056h.032a2.62,2.62,0,0,0,.321.021h0c.086,0,.171-.006.255-.014l.094-.011c.052-.007.1-.015.154-.025s.074-.013.11-.022q.1-.023.2-.053h.011a3.014,3.014,0,0,0,2.059-2.9s-.008-.651.02-1.755h0A78.9,78.9,0,0,1,33.42,21.97l.006-.037q.063-.358.13-.718l.005-.026q.136-.718.292-1.436l.013-.059q.074-.337.153-.673l.023-.095q.079-.332.163-.662l.02-.079q.174-.679.37-1.344l.026-.089q.094-.314.193-.623l.036-.112q.1-.308.2-.61l.032-.092q.111-.316.227-.626C37.068,10.028,41,4.941,44.088,1.4a.856.856,0,0,0,.1-.134Zm8.655,25.018H35.092c-.206,1.856-.326,3.571-.4,4.967a27.3,27.3,0,0,0,8.436.738,17.739,17.739,0,0,0,4.806-1.426A10.9,10.9,0,0,1,53.974,29.4V27.41a1.127,1.127,0,0,0-1.128-1.127ZM48.8,32.646a19.886,19.886,0,0,1-5.376,1.578,28.382,28.382,0,0,1-8.808-.69c-.016.771-.012,1.224-.012,1.247v.027a5.218,5.218,0,0,1-5.136,5.286,5.046,5.046,0,0,1-3.324-1.258,4.791,4.791,0,0,1-.929-1.065l-.037-.057a11.617,11.617,0,0,1-1.632-4.921c-.633.271-1.253.578-1.848.874A12.362,12.362,0,0,1,18.288,35a13.138,13.138,0,0,1-1.9.134,11.69,11.69,0,0,1-7.536-2.446,5.5,5.5,0,0,0-3.8-1V45.166H53.974V31.68l-.148-.022a8.74,8.74,0,0,0-5.026.988Z" transform="translate(-22112.055 -6868.852)" fill="#acacac"/>
      <g id="Group_425" data-name="Group 425" transform="translate(-22090.416 -6982.409)">
        <g id="Group_415" data-name="Group 415" transform="translate(0 192.409)">
          <path id="Path_683" data-name="Path 683" d="M13.8,199.7H4.4l10.5-3.28a1.232,1.232,0,0,0,.808-1.542l-.236-.756a2.435,2.435,0,0,0-3.05-1.6l-10.7,3.343a2.435,2.435,0,0,0-1.6,3.05l.236.756a1.223,1.223,0,0,0,.421.6,2.282,2.282,0,0,0-.77,1.71v2.078a5.057,5.057,0,0,0,5.051,5.051h5.98a5.057,5.057,0,0,0,5.051-5.051v-2.078A2.29,2.29,0,0,0,13.8,199.7Z" transform="translate(0 -192.409)" fill="#cfcfcf"/>
        </g>
      </g>
      <g id="Group_424" data-name="Group 424" transform="translate(1061.491 77)">
        <g id="Group_418" data-name="Group 418" transform="translate(-23148.26 -6976.482)">
          <g id="Group_417" data-name="Group 417">
            <path id="Path_684" data-name="Path 684" d="M288.239,127.651,290.008,138H295.4l1.736-10.35Z" transform="translate(-288.239 -127.651)" fill="#cfcfcf"/>
          </g>
        </g>
        <g id="Group_420" data-name="Group 420" transform="translate(-23148.537 -6980)">
          <g id="Group_419" data-name="Group 419">
            <path id="Path_685" data-name="Path 685" d="M290.5,42.428a1.743,1.743,0,0,0-1.333-.618h-5.956a1.746,1.746,0,0,0-1.721,2.04l.042.247h9.313l.042-.253a1.743,1.743,0,0,0-.387-1.416Z" transform="translate(-281.463 -41.81)" fill="#cfcfcf"/>
          </g>
        </g>
        <g id="Group_422" data-name="Group 422" transform="translate(-23146.377 -6964.901)">
          <g id="Group_421" data-name="Group 421">
            <path id="Path_686" data-name="Path 686" d="M334.191,410.258v1.017a1.44,1.44,0,0,0,1.439,1.439h2.288a1.44,1.44,0,0,0,1.439-1.439v-1.017Z" transform="translate(-334.191 -410.258)" fill="#cfcfcf"/>
          </g>
        </g>
      </g>
    </g>
  </g>
</svg>
