<svg xmlns="http://www.w3.org/2000/svg" width="144.921" height="145" viewBox="0 0 144.921 145">
  <g id="Сгруппировать_796" data-name="Сгруппировать 796" transform="translate(-763 -792)">
    <g id="Personalized_Supplements" data-name="Personalized Supplements" transform="translate(762.318 791.126)">
      <rect id="Rectangle_405" data-name="Rectangle 405" width="53.375" height="53.375" rx="26.687" transform="translate(46.812 46.028)" fill="#e8e8e8"/>
      <rect id="Rectangle_406" data-name="Rectangle 406" width="105.19" height="105.19" rx="52.595" transform="translate(21.326 20.946)" fill="none" stroke="#e8e8e8" stroke-width="2.226" stroke-dasharray="2.23 2.23"/>
      <path id="Path_110" data-name="Path 110" d="M86.257,47.093a16.342,16.342,0,0,0-12,3.7L51.769,69.457a16.449,16.449,0,0,0-2.147,23.11,2.353,2.353,0,0,0,.682.552h.011a16.351,16.351,0,0,0,22.417,1.594L95.224,76.046a16.395,16.395,0,0,0-8.967-28.953Zm-.41,4.407a11.97,11.97,0,0,1,6.527,21.119l-9.527,7.907a2.224,2.224,0,0,1-3.132-.28L71.546,70.4a4.456,4.456,0,0,0-6.277-.583l-7.742,6.43a2.223,2.223,0,0,1-2.863-3.4L77.1,54.217A11.926,11.926,0,0,1,85.847,51.5Z" fill="#acacac"/>
      <rect id="Rectangle_407" data-name="Rectangle 407" width="30.836" height="30.836" rx="15.418" transform="translate(114.767 56.959)" fill="#e8e8e8"/>
      <rect id="Rectangle_408" data-name="Rectangle 408" width="30.836" height="30.836" rx="15.418" transform="translate(58.082 114.086)" fill="#e8e8e8"/>
      <rect id="Rectangle_409" data-name="Rectangle 409" width="30.836" height="30.836" rx="15.418" transform="translate(0.682 57.286)" fill="#e8e8e8"/>
      <rect id="Rectangle_410" data-name="Rectangle 410" width="30.836" height="30.836" rx="15.418" transform="translate(58.082 0.874)" fill="#e8e8e8"/>
      <path id="Path_111" data-name="Path 111" d="M73.5,8.732a3.946,3.946,0,0,0-3.945,3.944v.659a3.945,3.945,0,1,0,7.89,0v-.659A3.945,3.945,0,0,0,73.5,8.732Zm0,10.518c-2.635,0-6.014,1.425-6.985,2.688a1.193,1.193,0,0,0,.955,1.913H79.531a1.193,1.193,0,0,0,.954-1.913c-.973-1.262-4.352-2.687-6.985-2.687Z" fill="#cfcfcf"/>
      <path id="Path_112" data-name="Path 112" d="M130.185,64.048a7.977,7.977,0,1,0,7.977,7.977,7.977,7.977,0,0,0-7.977-7.977Zm4.459,6.453-5.025,5.025a.666.666,0,0,1-.94,0l-2.295-2.3a.664.664,0,1,1,.939-.939l1.827,1.825,4.553-4.555a.665.665,0,0,1,.941.939Z" fill="#cfcfcf"/>
      <path id="Path_113" data-name="Path 113" d="M66.264,121.524c-1.565,5.087-.632,8.85,2.544,9.826a6.778,6.778,0,0,0,.805.19,4.96,4.96,0,0,1-.158-1.226,6.912,6.912,0,0,1,.259-1.882,24.976,24.976,0,0,0-1.423-2.549.665.665,0,0,1,1.107-.738c.044.068.477.727,1,1.692a7.268,7.268,0,0,1,2.448-2.456C71.659,123.168,69.548,122.181,66.264,121.524ZM78.137,124.3c-3.871,0-7.352,2.246-7.352,6.015a4.508,4.508,0,0,0,1.4,3.07,26.158,26.158,0,0,0-1.314,3.24.666.666,0,0,0,1.273.39,26.451,26.451,0,0,1,2.882-5.98,21.512,21.512,0,0,1,3.171-3.8.664.664,0,1,1,.913.965,22.219,22.219,0,0,0-4.686,6.61,3.477,3.477,0,0,0,1.041.178c3.67,0,6.016-2.228,6.016-7.35V124.3Z" fill="#cfcfcf"/>
      <path id="Path_114" data-name="Path 114" d="M16.1,80.019a.659.659,0,0,1-.4-.133c-.309-.227-7.582-5.69-7.582-9.84a4.662,4.662,0,0,1,4.656-4.656A4.735,4.735,0,0,1,16.1,66.86a4.735,4.735,0,0,1,3.324-1.47,4.661,4.661,0,0,1,4.654,4.656c0,4.15-7.272,9.613-7.582,9.843A.672.672,0,0,1,16.1,80.019Z" fill="#cfcfcf"/>
    </g>
  </g>
</svg>
