<svg xmlns="http://www.w3.org/2000/svg" width="185" height="145" viewBox="0 0 185 145">
  <g id="Сгруппировать_797" data-name="Сгруппировать 797" transform="translate(-1024 -776)">
    <g id="Сгруппировать_751" data-name="Сгруппировать 751" transform="translate(-47 -17)">
      <g id="virus_1_" data-name="virus (1)" transform="translate(1102.945 804)">
        <g id="XMLID_107_" transform="translate(0 0)">
          <g id="Сгруппировать_1" data-name="Сгруппировать 1" transform="translate(0 0)">
            <path id="Контур_1" data-name="Контур 1" d="M124.222,59.95c.454,5.872-3.677,11.086-9.224,11.642a9.838,9.838,0,0,1-9.862-5.8l-5.034.444-3.8,1.833a2.87,2.87,0,0,0-1.587,2.2,33.52,33.52,0,0,1-1.916,7.4,2.856,2.856,0,0,0,.164,2.431l1.354,2.421,3.764,2.526A6.769,6.769,0,1,1,93.8,92.311l-4.172-2.8-2.626-.321a3.024,3.024,0,0,0-2.457.828A33.981,33.981,0,0,1,77.11,95.4a2.987,2.987,0,0,0-1.567,2.457l-.333,5.318,1.651,6.552a8.409,8.409,0,1,1-8.144,2.092l-1.659-6.59L64.5,101.107a3.752,3.752,0,0,0-3.205-1.757h-.021a33.955,33.955,0,0,1-6.562-.641,3.746,3.746,0,0,0-3.457,1.085l-3.385,3.572-3.79,7.862a6.768,6.768,0,1,1-7.6-3.6l3.813-7.913.749-5.311a2.822,2.822,0,0,0-1.008-2.587,34.079,34.079,0,0,1-7.667-8.788,2.815,2.815,0,0,0-2.387-1.346l-5.3-.051L18.87,83.457a9.468,9.468,0,1,1-2.88-7.906l6.162-1.939,4.5-3.208a2.316,2.316,0,0,0,.959-2.085q-.112-1.358-.113-2.741a33.567,33.567,0,0,1,3.072-14.06,2.308,2.308,0,0,0-.023-1.972L29.214,46.82,25.6,44.089a6.768,6.768,0,1,1,4.672-7.006l4.011,3.026,4.041.721a33.852,33.852,0,0,1,10.137-6.5l.949-5.765-1.2-5.954a9.7,9.7,0,0,1-7.2-7.249A9.482,9.482,0,0,1,48.867,4.24c5.429-1.028,10.716,2.282,11.809,7.4A9.205,9.205,0,0,1,56.516,21.3l1.131,5.616,2.777,4.431a.993.993,0,0,0,.841.464h.005a33.543,33.543,0,0,1,17.4,4.841.98.98,0,0,0,.918.051l4.349-2.016,5.077-5.493A6.767,6.767,0,1,1,95.186,34.9l-5.077,5.493L88.46,44.828a.981.981,0,0,0,.128.918,33.6,33.6,0,0,1,4.7,9.1,2.883,2.883,0,0,0,1.941,1.864l4.129,1.157,5.365-.474a10.369,10.369,0,0,1,8.634-7.067C118.906,49.767,123.771,54.077,124.222,59.95Z" transform="translate(0 -4.053)" fill="#e8e8e8"/>
          </g>
        </g>
        <g id="XMLID_8_" transform="translate(36.263 36.518)">
          <g id="Сгруппировать_2" data-name="Сгруппировать 2">
            <ellipse id="Эллипс_1" data-name="Эллипс 1" cx="25.007" cy="25.007" rx="25.007" ry="25.007" fill="#acacac"/>
          </g>
        </g>
        <path id="Контур_2" data-name="Контур 2" d="M149.038,171.47a25.013,25.013,0,0,1,21.2-24.719,25.007,25.007,0,1,0,0,49.437A25.013,25.013,0,0,1,149.038,171.47Z" transform="translate(-105.153 -109.945)" fill="#9d9b9b"/>
        <g id="Сгруппировать_3" data-name="Сгруппировать 3" transform="translate(12.073 1.82)">
          <ellipse id="Эллипс_2" data-name="Эллипс 2" cx="7.121" cy="7.121" rx="7.121" ry="7.121" fill="#e8e8e8"/>
          <ellipse id="Эллипс_3" data-name="Эллипс 3" cx="4.704" cy="4.704" rx="4.704" ry="4.704" transform="translate(0.471 96.288)" fill="#e8e8e8"/>
          <ellipse id="Эллипс_4" data-name="Эллипс 4" cx="6.928" cy="6.928" rx="6.928" ry="6.928" transform="translate(84.61 101.79)" fill="#e8e8e8"/>
          <ellipse id="Эллипс_5" data-name="Эллипс 5" cx="6.459" cy="6.459" rx="6.459" ry="6.459" transform="translate(35.062 46.35)" fill="#e8e8e8"/>
          <path id="Контур_3" data-name="Контур 3" d="M4.4,0A4.4,4.4,0,1,1,0,4.4,4.4,4.4,0,0,1,4.4,0Z" transform="translate(42.31 68.476)" fill="#e8e8e8"/>
          <ellipse id="Эллипс_7" data-name="Эллипс 7" cx="3.692" cy="3.692" rx="3.692" ry="3.692" transform="translate(56.82 56.014)" fill="#e8e8e8"/>
        </g>
      </g>
      <circle id="Эллипс_8" data-name="Эллипс 8" cx="17.5" cy="17.5" r="17.5" transform="translate(1221 886)" fill="#e8e8e8"/>
      <path id="virus_3_" data-name="virus (3)" d="M17.423,14.413a2.4,2.4,0,0,0-1.116-.042.384.384,0,0,1-.315-.069l-.459-.369a.371.371,0,0,1-.1-.444,5.859,5.859,0,0,0,.321-.892.545.545,0,0,1,.69-.38,2.279,2.279,0,0,0,1.864-.1,2.308,2.308,0,0,0,1.037-2.95,2.279,2.279,0,0,0-3.039-1.143,2.023,2.023,0,0,0-.338.207.575.575,0,0,1-.842-.168,7.768,7.768,0,0,0-.638-.874.84.84,0,0,1-.09-.91l.481-.934a.846.846,0,0,1,.643-.473,2.229,2.229,0,0,0,.711-.195,2.3,2.3,0,0,0,1.339-1.787,2.279,2.279,0,1,0-4.348.627.9.9,0,0,1,0,.775l-.377.732a.88.88,0,0,1-1.011.447A7.988,7.988,0,0,0,10.5,5.25a.278.278,0,0,1-.243-.212L9.883,3.474a.288.288,0,0,1,.071-.255A1.947,1.947,0,0,0,8.889.042,2.081,2.081,0,0,0,8.475,0a1.95,1.95,0,0,0-.681,3.778.3.3,0,0,1,.2.206l.3,1.254a.281.281,0,0,1-.183.326,5.827,5.827,0,0,0-1.244.625.423.423,0,0,1-.475-.009.4.4,0,0,1-.1-.479A2.93,2.93,0,1,0,.716,5.129a2.915,2.915,0,0,0,2.333,2.31,2.98,2.98,0,0,0,1.459-.1.378.378,0,0,1,.4.131l.13.162a.384.384,0,0,1,.029.441,5.786,5.786,0,0,0-.779,2.271.361.361,0,0,1-.325.321l-.646.057a.407.407,0,0,1-.28-.128,1.763,1.763,0,0,0-1.127-.5,1.791,1.791,0,0,0-.563,3.521,1.812,1.812,0,0,0,1.962-.788.4.4,0,0,1,.306-.169l.563-.049a.363.363,0,0,1,.343.256A5.824,5.824,0,0,0,5.591,14.8a.175.175,0,0,1-.008.228.183.183,0,0,1-.209.043,2.1,2.1,0,0,0-.849-.09,2.118,2.118,0,1,0,2.282,1.7.169.169,0,0,1,.043-.144l.256-.284a.177.177,0,0,1,.209-.041,5.756,5.756,0,0,0,.521.251.566.566,0,0,1,.323.586,2.278,2.278,0,0,0,2.029,2.466c.081.008.162.012.241.012a2.282,2.282,0,0,0,2.279-2.279,2.306,2.306,0,0,0-.04-.427.578.578,0,0,1,.27-.633,5.9,5.9,0,0,0,.952-.658.389.389,0,0,1,.325-.105.368.368,0,0,1,.271.5,2.473,2.473,0,0,0-.114,1.26,2.445,2.445,0,0,0,2.067,2,2.54,2.54,0,0,0,.34.023,2.447,2.447,0,0,0,1.809-.8,2.422,2.422,0,0,0,.621-1.883A2.449,2.449,0,0,0,17.423,14.413ZM16.288,9.767a.326.326,0,1,1-.326.326A.326.326,0,0,1,16.288,9.767Zm-3.581-2.93a.326.326,0,1,1-.326.326A.326.326,0,0,1,12.707,6.837Zm-1.628,1.3a.326.326,0,1,1-.326.326A.326.326,0,0,1,11.079,8.139ZM7.5,12.7a.326.326,0,1,1,.326-.326A.326.326,0,0,1,7.5,12.7Zm.326-1.953a1.3,1.3,0,1,1,1.3-1.3A1.3,1.3,0,0,1,7.824,10.743Zm2.6,5.209A1.953,1.953,0,1,1,12.381,14,1.955,1.955,0,0,1,10.428,15.952Zm3.581-2.279a.326.326,0,1,1,.326-.326A.326.326,0,0,1,14.009,13.673Zm-.651-1.953a1.3,1.3,0,1,1,1.3-1.3A1.3,1.3,0,0,1,13.358,11.72Z" transform="translate(1227.814 893.408)" fill="#cfcfcf"/>
      <circle id="Эллипс_8-2" data-name="Эллипс 8" cx="22" cy="22" r="22" transform="translate(1071 822)" fill="#e8e8e8"/>
      <g id="virus_4_" data-name="virus (4)" transform="translate(1077.759 828.597)">
        <path id="Контур_4" data-name="Контур 4" d="M29.835,15.792V14.044H27.182a12.213,12.213,0,0,0-.6-3.012l2.451-1.015L28.365,8.4,25.912,9.418A12.34,12.34,0,0,0,24.2,6.868l1.88-1.88L24.848,3.751l-1.88,1.88a12.341,12.341,0,0,0-2.55-1.708L21.434,1.47,19.819.8,18.8,3.252a12.212,12.212,0,0,0-3.012-.6V0H14.044V2.654a12.213,12.213,0,0,0-3.012.6L10.016.8,8.4,1.47,9.417,3.923a12.34,12.34,0,0,0-2.55,1.708l-1.88-1.88L3.751,4.987l1.88,1.88a12.341,12.341,0,0,0-1.708,2.55L1.47,8.4.8,10.017l2.451,1.015a12.212,12.212,0,0,0-.6,3.012H0v1.748H2.654a12.213,12.213,0,0,0,.6,3.012L.8,19.819l.669,1.615,2.453-1.016a12.34,12.34,0,0,0,1.708,2.55l-1.88,1.88,1.236,1.236,1.88-1.88a12.341,12.341,0,0,0,2.55,1.708L8.4,28.365l1.615.669,1.015-2.451a12.212,12.212,0,0,0,3.012.6v2.654h1.748V27.182a12.213,12.213,0,0,0,3.012-.6l1.015,2.451,1.615-.669-1.016-2.453a12.34,12.34,0,0,0,2.55-1.708l1.88,1.88,1.236-1.236-1.88-1.88a12.341,12.341,0,0,0,1.708-2.55l2.453,1.016.669-1.615L26.583,18.8a12.212,12.212,0,0,0,.6-3.012Zm-5.244-.874a9.673,9.673,0,1,1-9.673-9.673A9.684,9.684,0,0,1,24.591,14.918Z" transform="translate(0 0)" fill="#cfcfcf"/>
        <path id="Контур_5" data-name="Контур 5" d="M127.925,120a7.925,7.925,0,1,0,7.925,7.925A7.934,7.934,0,0,0,127.925,120Zm-4.374,7.051h1.75V128.8h-1.75Zm3.5,5.247H125.3V130.55h1.75Zm3.5-7H128.8v-1.748h1.75Z" transform="translate(-113.007 -113.007)" fill="#cfcfcf"/>
      </g>
    </g>
  </g>
</svg>
