<svg xmlns="http://www.w3.org/2000/svg" width="227.33" height="144.05" viewBox="0 0 227.33 144.05">
  <g id="_5" data-name="5" transform="translate(-1122 -781)">
    <g id="Group_860" data-name="Group 860" transform="translate(2822 1899)">
      <g id="Group_29_1_" data-name="Group 29 (1)" transform="translate(-1655 -1115.5)">
        <circle id="Ellipse_9" data-name="Ellipse 9" cx="57" cy="57" r="57" transform="translate(12 12.5)" fill="#f7fff9" stroke="#a1d2ad" stroke-width="2" stroke-dasharray="2 2"/>
      </g>
      <circle id="Ellipse_10" data-name="Ellipse 10" cx="18" cy="18" r="18" transform="translate(-1657 -1099)" fill="#dff0e3"/>
      <path id="surface1" d="M6.939,0C5.4,0,0,.631,0,6.938v3.154A2.631,2.631,0,0,0,.848,12.1a1.288,1.288,0,0,0,.542.3,6.093,6.093,0,0,0,5.477,4,.652.652,0,0,0,.071,0h.076a6.1,6.1,0,0,0,5.472-3.992,1.288,1.288,0,0,0,.542-.3,2.63,2.63,0,0,0,.848-2.011V6.938a8.541,8.541,0,0,0-.148-1.54l-2.205.944a10.114,10.114,0,0,1,.461,3.119h.631v.631a1.259,1.259,0,0,1-.414,1.064.98.98,0,0,1-.37.217l-.337.081-.108.33S10.3,15.139,6.939,15.139s-4.447-3.354-4.447-3.354l-.111-.33-.335-.081a.98.98,0,0,1-.37-.217,1.259,1.259,0,0,1-.414-1.064V9.462h.631c0-3.422,3.792-2.3,6.377-3.676A1.606,1.606,0,0,1,8.67,4.2l.813-.813A1.606,1.606,0,0,1,9.2,2.124a1.58,1.58,0,0,1,.756-1.06A3.72,3.72,0,0,0,6.939,0Zm7.207.631a.322.322,0,0,0-.113.03l-3.4,1.454a.343.343,0,0,0-.106.557l.727.724-1.7,1.7a.343.343,0,0,0-.039.436.387.387,0,0,0,.039.049.34.34,0,0,0,.377.071L13.33,4.2a.349.349,0,0,0,.2-.251.34.34,0,0,0-.094-.308l-.727-.727,1.7-1.7a.344.344,0,0,0,.039-.436.337.337,0,0,0-.3-.147ZM5.352,8.2,3.785,9.767A1.108,1.108,0,1,0,5.352,8.2Zm3.174,0a1.108,1.108,0,0,0,1.567,1.567ZM6.939,11.354a2.371,2.371,0,0,0-1.732.84.632.632,0,1,0,.941.843,1.739,1.739,0,0,1,.791-.421,1.738,1.738,0,0,1,.791.421.632.632,0,0,0,.941-.843,2.371,2.371,0,0,0-1.732-.84Z" transform="translate(-1646 -1089)" fill="#96c09f"/>
      <circle id="Ellipse_11" data-name="Ellipse 11" cx="18" cy="18" r="18" transform="translate(-1552 -1099)" fill="#dff0e3"/>
      <g id="Virus" transform="translate(-1543 -1090)">
        <g id="Glyph">
          <path id="Path_6" data-name="Path 6" d="M16.88,8.415h-.392a7.187,7.187,0,0,0-1.494-3.606l.277-.277a.871.871,0,0,0,.991-1.4l-.821-.821a.872.872,0,0,0-1.4.991l-.277.277a7.187,7.187,0,0,0-3.606-1.494V1.691A.871.871,0,0,0,9.866,0H8.7a.871.871,0,0,0-.29,1.691v.392A7.187,7.187,0,0,0,4.809,3.578L4.532,3.3a.872.872,0,0,0-.786-1.246C3.18,2.054,3,2.509,2.31,3.13A.872.872,0,0,0,3.3,4.53l.277.277a7.187,7.187,0,0,0-1.5,3.608H1.691A.871.871,0,0,0,0,8.7V9.866a.871.871,0,0,0,1.691.29h.392a7.187,7.187,0,0,0,1.494,3.606L3.3,14.04a.871.871,0,0,0-.991,1.4l.821.821a.872.872,0,0,0,1.4-.991l.277-.277a7.187,7.187,0,0,0,3.606,1.494v.392A.871.871,0,0,0,8.7,18.57H9.866a.871.871,0,0,0,.29-1.691v-.392a7.187,7.187,0,0,0,3.606-1.494l.277.277a.872.872,0,0,0,1.4.991c.621-.695,1.076-.87,1.076-1.436a.871.871,0,0,0-1.246-.786l-.277-.277a7.187,7.187,0,0,0,1.494-3.606h.392a.871.871,0,0,0,1.691-.29V8.7a.871.871,0,0,0-1.691-.29Zm-13.1-.49c-.136-1.381,1.385-2.61,2.451-1.933,1.25.8.362,3.126-1.209,3.126A1.244,1.244,0,0,1,3.78,7.925Zm5.666,5.986A1.447,1.447,0,0,1,8.02,14.8c-1.9,0-2.678-2.274-1.011-2.838,1.315-.445,2.856.759,2.438,1.95Zm-.161-2.884a1.741,1.741,0,1,1,1.741-1.741,1.741,1.741,0,0,1-1.741,1.741Zm1.2-4.444c-1.49-.523-1.673-2.262-.325-2.718,1.319-.446,2.856.759,2.438,1.95a1.608,1.608,0,0,1-2.115.768ZM13,12.31c-1.12,0-1.627-1.321-.929-2.421a1.609,1.609,0,0,1,2.137-.7c1.25.8.362,3.126-1.209,3.126Z" fill="#96c09f"/>
        </g>
      </g>
      <g id="Group_11" data-name="Group 11" transform="translate(0 68)">
        <circle id="Ellipse_10-2" data-name="Ellipse 10" cx="18" cy="18" r="18" transform="translate(-1657 -1097)" fill="#dff0e3"/>
      </g>
      <g id="Group_20" data-name="Group 20">
        <circle id="Ellipse_11-2" data-name="Ellipse 11" cx="18" cy="18" r="18" transform="translate(-1552 -1029)" fill="#dff0e3"/>
        <g id="healthcare-and-medical_5_" data-name="healthcare-and-medical (5)" transform="translate(-1542 -1032.686)">
          <g id="Group_13" data-name="Group 13" transform="translate(6.252 13.686)">
            <g id="Group_12" data-name="Group 12">
              <path id="Path_7" data-name="Path 7" d="M195.1,18.671c-.971,0-1.018-.315-1.018-.92v-3.3a.766.766,0,1,0-1.531,0v3.3c0,.6-.048.92-1.019.92a.13.13,0,0,0-.13.128v1.276a.13.13,0,0,0,.13.128,2.778,2.778,0,0,0,1.783-.517,2.781,2.781,0,0,0,1.785.517.13.13,0,0,0,.13-.128V18.8A.13.13,0,0,0,195.1,18.671Z" transform="translate(-191.4 -13.686)" fill="#96c09f"/>
            </g>
          </g>
          <g id="Group_15" data-name="Group 15" transform="translate(0 14.848)">
            <g id="Group_14" data-name="Group 14">
              <path id="Path_8" data-name="Path 8" d="M6.7,56.488a22.423,22.423,0,0,1-.183-2.45c0-2.052-.225-4.78-2.165-4.78-2.359,0-4.35,6.264-4.35,10.2,0,.124-.015,3.05.786,3.858a.685.685,0,0,0,.5.222A1.538,1.538,0,0,0,2.335,63.1a6.347,6.347,0,0,1,2.434-1.175C7.222,61.214,6.968,58.919,6.7,56.488Z" transform="translate(0 -49.258)" fill="#96c09f"/>
            </g>
          </g>
          <g id="Group_17" data-name="Group 17" transform="translate(9.47 14.848)">
            <g id="Group_16" data-name="Group 16">
              <path id="Path_9" data-name="Path 9" d="M296.752,59.456c0-3.934-1.99-10.2-4.35-10.2-1.941,0-2.165,2.728-2.165,4.78a22.486,22.486,0,0,1-.182,2.45c-.27,2.431-.525,4.726,1.928,5.433a6.351,6.351,0,0,1,2.434,1.175,1.537,1.537,0,0,0,1.054.439.685.685,0,0,0,.495-.222C296.767,62.506,296.753,59.579,296.752,59.456Z" transform="translate(-289.888 -49.258)" fill="#96c09f"/>
            </g>
          </g>
        </g>
      </g>
      <g id="Group_21" data-name="Group 21">
        <circle id="Ellipse_12" data-name="Ellipse 12" cx="37.5" cy="37.5" r="37.5" transform="translate(-1623 -1083)" fill="#dff0e3"/>
        <g id="health_1_" data-name="health (1)" transform="translate(-1612.333 -1177.004)">
          <path id="Path_11" data-name="Path 11" d="M47.273,120a6.232,6.232,0,0,0-5.581,3.293,25.513,25.513,0,0,1-6.508-1.433,25.256,25.256,0,0,0-8.351-1.651,25.91,25.91,0,0,0-8.456,1.651,24.712,24.712,0,0,1-6.4,1.433A6.23,6.23,0,0,0,6.5,120,6.35,6.35,0,0,0,0,126.46c0,8.644,9.719,15.224,10.134,15.5,3.432,2.452,11.779,6.553,16.7,6.553,5.035,0,12.5-3.848,16.7-6.553.415-.276,10.134-6.856,10.134-15.5a6.352,6.352,0,0,0-6.4-6.46ZM10.2,138.05c-2.536-2.107-7.052-6.558-7.052-11.59a3.262,3.262,0,0,1,6.4-.949,22.959,22.959,0,0,1,1.46,7.279,20.294,20.294,0,0,1-.808,5.26Zm24.076,1.827c-2.248,1.072-5.363,2.348-7.439,2.348-1.681,0-4.284-.786-7.527-2.335a1.572,1.572,0,1,1,1.354-2.837,18.187,18.187,0,0,0,6.173,2.028,18.367,18.367,0,0,0,6.088-2.042,1.572,1.572,0,0,1,1.351,2.839Zm1.437-9.6a1.572,1.572,0,0,1-1.97,1.03c-2.837-.926-4.833-1.663-6.906-1.663-2.1,0-3.992.677-6.991,1.655a1.572,1.572,0,0,1-.937-3c3.052-1,5.3-1.8,7.928-1.8,2.67,0,4.879.838,7.846,1.807a1.572,1.572,0,0,1,1.027,1.973Zm7.761,7.771a20.294,20.294,0,0,1-.809-5.259A25.7,25.7,0,0,1,44.15,125.3a3.394,3.394,0,0,1,3.123-2.154,3.23,3.23,0,0,1,3.249,3.313c0,5.032-4.516,9.483-7.052,11.59Z" fill="#25772f"/>
        </g>
      </g>
      <g id="tools-and-utensils_3_" data-name="tools-and-utensils (3)" transform="translate(-1773 -1023)">
        <g id="Group_23" data-name="Group 23" transform="translate(128)">
          <g id="Group_22" data-name="Group 22">
            <path id="Path_12" data-name="Path 12" d="M138.139,13.716V4.056a4.056,4.056,0,1,0-8.112,0v9.66a6.083,6.083,0,1,0,8.111,0Zm-4.056,8.59a4.056,4.056,0,0,1-2.7-7.079l.675-.6V4.056a2.028,2.028,0,1,1,4.056,0V14.622l.675.6a4.056,4.056,0,0,1-2.7,7.079Z" transform="translate(-128)" fill="#96c09f"/>
          </g>
        </g>
        <g id="Group_25" data-name="Group 25" transform="translate(133.069 8.111)">
          <g id="Group_24" data-name="Group 24">
            <rect id="Rectangle_7" data-name="Rectangle 7" width="2.028" height="12.167" fill="#96c09f"/>
          </g>
        </g>
        <g id="Group_27" data-name="Group 27" transform="translate(131.356 15.103)">
          <g id="Group_26" data-name="Group 26">
            <circle id="Ellipse_13" data-name="Ellipse 13" cx="3" cy="3" r="3" transform="translate(-0.356 0.23)" fill="#96c09f"/>
          </g>
        </g>
      </g>
    </g>
  </g>
</svg>
