<svg xmlns="http://www.w3.org/2000/svg" width="227.33" height="144.05" viewBox="0 0 227.33 144.05">
  <g id="_9" data-name="9" transform="translate(-209 -1188)">
    <g id="Main_Green" transform="translate(100 1062)">
      <g id="Сгруппировать_898" data-name="Сгруппировать 898">
        <g id="Сгруппировать_871" data-name="Сгруппировать 871">
          <circle id="Эллипс_10" data-name="Эллипс 10" cx="18" cy="18" r="18" transform="translate(149 137)" fill="#dff0e3"/>
          <g id="mri" transform="translate(127.326 145)">
            <g id="Сгруппировать_858" data-name="Сгруппировать 858" transform="translate(39.074 14.41)">
              <g id="Сгруппировать_857" data-name="Сгруппировать 857">
                <rect id="Прямоугольник_15" data-name="Прямоугольник 15" width="1.2" height="2.44" fill="#96c09f"/>
              </g>
            </g>
            <g id="Сгруппировать_860" data-name="Сгруппировать 860" transform="translate(34.276 3.648)">
              <g id="Сгруппировать_859" data-name="Сгруппировать 859">
                <path id="Контур_735" data-name="Контур 735" d="M120.964,95.525a5.433,5.433,0,0,0,.411,3.49,1.792,1.792,0,0,1,1.1-.507,4.2,4.2,0,1,1,7.536,0,1.791,1.791,0,0,1,1.1.5,5.353,5.353,0,0,0,.536-2.321C131.642,90.315,122.268,89.254,120.964,95.525Z" transform="translate(-120.844 -91.329)" fill="#96c09f"/>
              </g>
            </g>
            <g id="Сгруппировать_862" data-name="Сгруппировать 862" transform="translate(35.474 12.01)">
              <g id="Сгруппировать_861" data-name="Сгруппировать 861">
                <path id="Контур_736" data-name="Контур 736" d="M158.648,300.7h-7.2a.6.6,0,0,0-.6.6v.6h8.4v-.6A.6.6,0,0,0,158.648,300.7Z" transform="translate(-150.848 -300.695)" fill="#96c09f"/>
              </g>
            </g>
            <g id="Сгруппировать_864" data-name="Сгруппировать 864" transform="translate(40.274 0.005)">
              <g id="Сгруппировать_863" data-name="Сгруппировать 863">
                <path id="Контур_737" data-name="Контур 737" d="M271.022.115V2.559a6.572,6.572,0,0,1,4.8,10.333v1.029a.6.6,0,0,1-.6.6h-3v2.506a3.006,3.006,0,0,1,2.339,2.334h3.061a1.8,1.8,0,0,0,1.8-1.8V9.121A9.014,9.014,0,0,0,271.022.115Z" transform="translate(-271.022 -0.115)" fill="#96c09f"/>
              </g>
            </g>
            <g id="Сгруппировать_866" data-name="Сгруппировать 866" transform="translate(30.674)">
              <g id="Сгруппировать_865" data-name="Сгруппировать 865">
                <path id="Контур_738" data-name="Контур 738" d="M39.074,2.441V0a8.927,8.927,0,0,0-8.4,9.01v8.44a1.8,1.8,0,0,0,1.8,1.8h3.061a3.005,3.005,0,0,1,2.339-2.334V14.41h-3a.6.6,0,0,1-.6-.6V12.792a6.582,6.582,0,0,1,4.8-10.351Z" transform="translate(-30.674)" fill="#96c09f"/>
              </g>
            </g>
            <g id="Сгруппировать_868" data-name="Сгруппировать 868" transform="translate(36.674 6.01)">
              <g id="Сгруппировать_867" data-name="Сгруппировать 867">
                <path id="Контур_739" data-name="Контур 739" d="M183.891,150.477a2.985,2.985,0,0,0-2.385,4.8h4.77a2.985,2.985,0,0,0-2.385-4.8Z" transform="translate(-180.891 -150.477)" fill="#96c09f"/>
              </g>
            </g>
            <g id="Сгруппировать_870" data-name="Сгруппировать 870" transform="translate(36.674 18.05)">
              <g id="Сгруппировать_869" data-name="Сгруппировать 869">
                <path id="Контур_740" data-name="Контур 740" d="M185.091,451.913h-2.4a1.8,1.8,0,0,0-1.8,1.8.6.6,0,0,0,.6.6h4.8a.6.6,0,0,0,.6-.6A1.8,1.8,0,0,0,185.091,451.913Z" transform="translate(-180.891 -451.913)" fill="#96c09f"/>
              </g>
            </g>
          </g>
        </g>
        <g id="Сгруппировать_880" data-name="Сгруппировать 880">
          <g id="Сгруппировать_879" data-name="Сгруппировать 879">
            <g id="Сгруппировать_873" data-name="Сгруппировать 873" transform="translate(0 87)">
              <circle id="Эллипс_10-2" data-name="Эллипс 10" cx="18" cy="18" r="18" transform="translate(149 137)" fill="#dff0e3"/>
            </g>
          </g>
          <g id="red-blood-cells" transform="translate(156.488 187.4)">
            <g id="Сгруппировать_876" data-name="Сгруппировать 876" transform="translate(5.502 46)">
              <path id="Контур_741" data-name="Контур 741" d="M140.854,46C138.178,46,136,47.905,136,50.248s2.178,4.248,4.854,4.248,4.854-1.905,4.854-4.248S143.531,46,140.854,46Zm1.642,4.07a2.322,2.322,0,0,1-3.285,0,.607.607,0,1,1,.858-.858,1.109,1.109,0,0,0,1.569,0,.607.607,0,0,1,.858.858Z" transform="translate(-136 -46)" fill="#96c09f"/>
            </g>
            <g id="Сгруппировать_877" data-name="Сгруппировать 877" transform="translate(0 54.495)">
              <path id="Контур_742" data-name="Контур 742" d="M4.854,256C2.178,256,0,257.905,0,260.248S2.178,264.5,4.854,264.5s4.854-1.905,4.854-4.248S7.531,256,4.854,256ZM6.5,260.07a2.322,2.322,0,0,1-3.285,0,.607.607,0,1,1,.858-.858,1.109,1.109,0,0,0,1.569,0,.607.607,0,1,1,.858.858Z" transform="translate(0 -256)" fill="#96c09f"/>
            </g>
            <g id="Сгруппировать_878" data-name="Сгруппировать 878" transform="translate(11.003 54.495)">
              <path id="Контур_743" data-name="Контур 743" d="M276.854,256c-2.677,0-4.854,1.905-4.854,4.248s2.178,4.248,4.854,4.248,4.854-1.905,4.854-4.248S279.531,256,276.854,256Zm.784,3.212a.607.607,0,1,1,.858.858,2.326,2.326,0,0,1-3.285,0,.607.607,0,1,1,.858-.858A1.11,1.11,0,0,0,277.639,259.212Z" transform="translate(-272 -256)" fill="#96c09f"/>
            </g>
          </g>
        </g>
        <g id="Сгруппировать_882" data-name="Сгруппировать 882">
          <circle id="Эллипс_10-3" data-name="Эллипс 10" cx="18" cy="18" r="18" transform="translate(260 137)" fill="#dff0e3"/>
          <g id="kidney" transform="translate(184.143 144)">
            <g id="Сгруппировать_881" data-name="Сгруппировать 881" transform="translate(86.857)">
              <path id="Контур_744" data-name="Контур 744" d="M91.019,0a3.757,3.757,0,0,0-3.784,3.405c0,1.418,1.418,2.378,2.669,3.224.179.121.353.239.518.355a1.087,1.087,0,0,1,.349.409,1.914,1.914,0,0,0,.248-.961,1.719,1.719,0,0,0-.926-1.553.378.378,0,1,1,.338-.677,2.464,2.464,0,0,1,1.344,2.23,2.725,2.725,0,0,1-1.489,2.422c-.01.005-.018.013-.029.018l-.05.022c-.062.03-.123.058-.184.083h0c-.146.064-.3.127-.45.191-1.334.555-2.713,1.129-2.713,2.938v1.024a.49.49,0,0,0,.49.49.482.482,0,0,0,.462-.328c.179-.544.857-2.321,2.076-2.321,1.757,0,2.649,1.146,2.649,3.405a.378.378,0,1,1-.757,0,2.858,2.858,0,0,0-.708-2.284,1.063,1.063,0,0,1-.059.4,1.451,1.451,0,0,1-.527.677,2.427,2.427,0,0,0-1.355,2.341c0,1.917,1.714,5.676,5.676,5.676,5.985,0,6.054-9.073,6.054-9.459C100.857,6.193,96.65,0,91.019,0Zm.87,8.433a5.7,5.7,0,0,1,3.292-1.622.378.378,0,1,1,0,.757,5.042,5.042,0,0,0-2.762,1.405.378.378,0,0,1-.53-.54Zm.644-2a1.7,1.7,0,0,1,.953-1.454.378.378,0,0,1,.338.677.932.932,0,0,0-.535.777.378.378,0,1,1-.757,0Zm-.474,4.133h0a.378.378,0,1,1,.293-.7,8.479,8.479,0,0,1,3.132,2.392.378.378,0,1,1-.605.454A7.8,7.8,0,0,0,92.059,10.565Zm1.715,3.32a.381.381,0,0,1,.011-.533.375.375,0,0,1,.528,0,1.982,1.982,0,0,1,.483,1.384.378.378,0,1,1-.757,0A1.279,1.279,0,0,0,93.774,13.885ZM94.8,20.432c-3.5,0-4.919-3.471-4.919-4.919a.378.378,0,1,1,.757,0c0,1.225,1.2,4.162,4.162,4.162,4.489,0,4.541-7.622,4.541-7.946,0-4.724-3.636-10.216-8.324-10.216a2.3,2.3,0,0,0-2.27,1.892.378.378,0,1,1-.757,0A3.022,3.022,0,0,1,91.019.757c5.114,0,9.081,5.9,9.081,10.973C100.1,12.085,100.04,20.432,94.8,20.432Z" transform="translate(-86.857)" fill="#96c09f"/>
            </g>
          </g>
        </g>
        <g id="Сгруппировать_883" data-name="Сгруппировать 883">
          <g id="Сгруппировать_875" data-name="Сгруппировать 875" transform="translate(111 87)">
            <circle id="Эллипс_10-4" data-name="Эллипс 10" cx="18" cy="18" r="18" transform="translate(149 137)" fill="#dff0e3"/>
          </g>
          <g id="lung" transform="translate(266.999 230.976)">
            <path id="Контур_745" data-name="Контур 745" d="M21.962,14.415c0-3.938-4.508-10.346-7.278-10.346-1.322,0-2.018,1.467-2.375,3.422-.215-.245-.341-.434-.455-.564V1.905a.855.855,0,1,0-1.709,0V7.039a2.946,2.946,0,0,1-.433.638C9.362,5.663,8.67,4.137,7.322,4.137c-2.77,0-7.281,6.408-7.281,10.345s-.526,7.131,2.244,7.131,7.783-3.192,7.783-7.131c0-1.389,0-3.085-.119-4.7a5.844,5.844,0,0,0,1.145-1.025,9.611,9.611,0,0,0,.962.923c-.121,1.625-.121,3.334-.121,4.733,0,3.938,5.014,7.132,7.784,7.132S21.962,18.354,21.962,14.415Z" transform="translate(0)" fill="#96c09f"/>
          </g>
        </g>
        <path id="Объединение_1" data-name="Объединение 1" d="M-175,1221.485a9.5,9.5,0,0,1,7.015-9.172v-9.325H-194.12v11.919h7.127v14.077H-206v-14.077h7.128v-14.3a2.382,2.382,0,0,1,2.376-2.384h28.511V1186.3h-7.128V1172h19.007v14.3h-7.127v11.919h28.511a2.382,2.382,0,0,1,2.376,2.384v14.3h7.127v14.076h-19.006v-14.077h7.128v-11.919h-26.135v9.269a9.5,9.5,0,0,1,7.233,9.228,9.5,9.5,0,0,1-9.5,9.5A9.5,9.5,0,0,1-175,1221.485Z" transform="translate(387 -1012.985)" fill="#25772f"/>
      </g>
    </g>
  </g>
</svg>
