<svg xmlns="http://www.w3.org/2000/svg" width="48" height="48" viewBox="0 0 48 48">
    <defs>
        <style>
            .cls-1{fill:#ddefe2}.cls-2{fill:#25772f}
        </style>
    </defs>
    <g id="Group_447" data-name="Group 447" transform="translate(21115 22892)">
        <g id="Group_10.1" data-name="Group 10.1" transform="translate(-21115 -22892)">
            <circle id="Ellipse_99" cx="24" cy="24" r="24" class="cls-1" data-name="Ellipse 99"/>
        </g>
        <path id="Path_219" d="M33.127 35.608a8.76 8.76 0 0 1-.876-1.644c-.656-1.8-.122-4.482 3.131-5.666 3.021-1.1 5.066 1.049 5.827 3.141 1.142 3.139-1.363 7.1-1.363 7.1s1.1 5.531-5.077 7.779a16.8 16.8 0 0 1-3.376.813c-.7.255-1.229.863-1.647 1.015-.63.229-3.812-1.029-5.485-3.026a21.365 21.365 0 0 1-4.25-6.753 6.94 6.94 0 0 1-.379-4.647 3.068 3.068 0 0 1 1.8-2.319 2.712 2.712 0 0 1 2.165.163 7.741 7.741 0 0 1 1.421.645c.392.264.425 1.1.266 1.551a1.707 1.707 0 0 1-2.211 1.577c-.6-.187-.52.5-.347.976a4.52 4.52 0 0 0 2.7 2.573 8.5 8.5 0 0 1 3.52 2.511c-.129-1.02-.654-4.741 4.181-5.789z" class="cls-2" data-name="Path 219" transform="translate(-21121.387 -22906)"/>
    </g>
</svg>
