<svg xmlns="http://www.w3.org/2000/svg" width="48" height="48" viewBox="0 0 48 48">
    <defs>
        <style>
            .cls-1{fill:#ddefe2}.cls-2{fill:#25772f}
        </style>
    </defs>
    <g id="Group_447" data-name="Group 447" transform="translate(66.606 -3.397)">
        <g id="Group_10.1" data-name="Group 10.1">
            <circle id="Ellipse_99" cx="24" cy="24" r="24" class="cls-1" data-name="Ellipse 99" transform="translate(-66.606 3.397)"/>
        </g>
        <path id="Path_224" d="M-31.851 20.748c-.76-2.09-2.8-4.24-5.82-3.14-3.26 1.18-3.79 3.87-3.14 5.67a9.67 9.67 0 0 0 .88 1.64c-4.829 1.05-4.31 4.77-4.18 5.79A8.485 8.485 0 0 0-47.63 28.2a4.524 4.524 0 0 1-2.7-2.58c-.169-.47-.25-1.16.35-.97a1.636 1.636 0 0 0 .45.07 1.708 1.708 0 0 0 1.76-1.65c.16-.45.12-1.29-.27-1.55a7.535 7.535 0 0 0-1.42-.64 2.674 2.674 0 0 0-2.16-.17 3.048 3.048 0 0 0-1.8 2.32 6.962 6.962 0 0 0 .37 4.65 21.444 21.444 0 0 0 4.25 6.75c1.68 2 4.861 3.26 5.49 3.03.421-.15.95-.76 1.65-1.02a16.2 16.2 0 0 0 3.37-.81c6.18-2.25 5.08-7.78 5.08-7.78s2.499-3.962 1.359-7.102zM-36.931 29l-2.9 3.96a.118.118 0 0 1-.09.05.094.094 0 0 1-.05-.01.115.115 0 0 1-.07-.13l.44-2.82-1.51.28a.115.115 0 0 1-.12-.05.127.127 0 0 1 .01-.13l2.99-4.08a.111.111 0 0 1 .14-.04.108.108 0 0 1 .07.12l-.419 2.98 1.389-.31a.121.121 0 0 1 .12.05.1.1 0 0 1 0 .13z" class="cls-2" data-name="Path 224"/>
    </g>
</svg>
