<svg xmlns="http://www.w3.org/2000/svg" width="48" height="48" viewBox="0 0 48 48">
    <defs>
        <style>
            .cls-1{fill:#ddefe2}.cls-2{fill:#25772f}
        </style>
    </defs>
    <g id="Group_469" data-name="Group 469" transform="translate(21115 17612)">
        <g id="Vitamin_D_Need" data-name="Vitamin D Need" transform="translate(-21115 -17612)">
            <circle id="Ellipse_20" cx="24" cy="24" r="24" class="cls-1" data-name="Ellipse 20"/>
        </g>
        <path id="syringe" d="M21.527.151a.514.514 0 0 0-.728 0l-3.082 3.082-.363-.363a2.2 2.2 0 0 0-3.117 0L4.025 13.088l-.615-.615a.8.8 0 0 0-1.129 0l-.014.014a.8.8 0 0 0 0 1.13l1.19 1.183-1.682 1.687-.046-.046a.8.8 0 0 0-1.139 0l-.011.012a.8.8 0 0 0 0 1.137l3.578 3.577a.8.8 0 0 0 1.137 0l.013-.013a.8.8 0 0 0 0-1.137l-.047-.047 1.682-1.683 1.187 1.187a.8.8 0 0 0 1.13 0l.013-.013a.8.8 0 0 0 0-1.13l-.626-.631L18.857 7.49a2.206 2.206 0 0 0 0-3.117l-.413-.412L21.527.878a.514.514 0 0 0 0-.727zm-3.4 6.612L12.792 12.1l-.536-.536 4.474-4.472a.5.5 0 0 0-.049-.768.5.5 0 0 0-.041-.05L15.6 5.238a.514.514 0 0 0-.727.728l.762.762-.507.507-.762-.762a.514.514 0 1 0-.727.728l.762.762-.507.507-.762-.762a.515.515 0 1 0-.728.728l.762.762-.507.507-.759-.764a.514.514 0 1 0-.727.728l.762.762-.408.408-1.9-1.9L14.965 3.6a1.175 1.175 0 0 1 1.661 0l1.5 1.5a1.177 1.177 0 0 1 0 1.662z" class="cls-2" transform="translate(-21102.344 -17600.391)"/>
    </g>
</svg>
