<svg xmlns="http://www.w3.org/2000/svg" width="48" height="48" viewBox="0 0 48 48">
    <defs>
        <style>
            .cls-1{fill:#ddefe2}.cls-2{fill:#25772f}
        </style>
    </defs>
    <g id="Group_483" data-name="Group 483" transform="translate(19122 19372)">
        <g id="Group_12.1" data-name="Group 12.1" transform="translate(-19122 -19372)">
            <circle id="Ellipse_102" cx="24" cy="24" r="24" class="cls-1" data-name="Ellipse 102"/>
        </g>
        <g id="hiking" transform="translate(-19182.902 -19360.002)">
            <path id="Path_259" d="M209.283 4.225a2.112 2.112 0 1 0-2.112-2.112 2.112 2.112 0 0 0 2.112 2.112z" class="cls-2" data-name="Path 259" transform="translate(-123.258)"/>
            <path id="Path_260" d="M93.568 40.78a1.09 1.09 0 0 0-1.09-1.09h-3.684l-2.078-2.951.007-.05a2.136 2.136 0 0 0-3.507-1.908v-2.454a.765.765 0 0 0-.765-.765H80.33a.765.765 0 0 0-.765.765v9.092a2.137 2.137 0 0 0 1.935 2.122l-.164.381-1.284 4.85-2.891 3.885a1.308 1.308 0 1 0 2.1 1.561l3.039-4.087a1.3 1.3 0 0 0 .215-.446l.875-3.3 2.4 2.2-.327 4.768a1.307 1.307 0 0 0 1.215 1.394h.091a1.307 1.307 0 0 0 1.3-1.218l.37-5.4a1.307 1.307 0 0 0-.421-1.053L85.543 44.8l.753-4.876 1.04 1.476a1.09 1.09 0 0 0 .891.462h3.814l.072 12.5a.436.436 0 1 0 .872 0l-.072-12.594a1.088 1.088 0 0 0 .655-.988z" class="cls-2" data-name="Path 260" transform="translate(0 -29.863)"/>
        </g>
    </g>
</svg>
