<svg xmlns="http://www.w3.org/2000/svg" width="48" height="48" viewBox="0 0 48 48">
    <defs>
        <style>
            .cls-1{fill:#ddefe2}.cls-2{fill:#25772f}
        </style>
    </defs>
    <g id="Group_451" data-name="Group 451" transform="translate(21115 21572)">
        <g id="Group_15" data-name="Group 15" transform="translate(-21115 -21572)">
            <path id="Path_179" d="M24 0A24 24 0 1 1 0 24 24 24 0 0 1 24 0z" class="cls-1" data-name="Path 179"/>
        </g>
        <path id="XMLID_447_" d="M23.993 1.552a.448.448 0 0 0-.009-.064c0-.021-.007-.054-.012-.081s-.012-.049-.018-.074-.011-.046-.018-.068l-.025-.071c-.008-.023-.015-.045-.024-.067s-.02-.044-.031-.066-.02-.045-.032-.067-.024-.04-.038-.061-.024-.043-.038-.063S23.715.824 23.7.8a.387.387 0 0 0-.037-.049 1.508 1.508 0 0 0-.21-.209.611.611 0 0 0-.053-.034c-.02-.008-.046-.036-.071-.052l-.06-.036c-.02-.012-.038-.027-.061-.04s-.042-.02-.063-.03-.045-.022-.069-.032L23.014.3c-.026-.009-.051-.019-.077-.027l-.06-.02-.077-.02-.068-.01c-.026 0-.051-.009-.077-.011s-.077 0-.116-.006L22.5.2h-4.718a1.5 1.5 0 1 0 0 2.991h1.112L16.64 5.449a10.41 10.41 0 1 0 2.11 2.121l2.259-2.259v1.111a1.5 1.5 0 0 0 2.991 0V1.7q0-.074-.007-.148zM10.4 21.172a7.409 7.409 0 1 1 7.408-7.409 7.409 7.409 0 0 1-7.408 7.409z" class="cls-2" transform="translate(-21103 -21560.203)"/>
    </g>
</svg>
