<svg xmlns="http://www.w3.org/2000/svg" id="main" width="48" height="48" viewBox="0 0 48 48">
    <defs>
        <style>
            .cls-1{fill:#ddefe2}.cls-2{fill:#25772f}
        </style>
    </defs>
    <circle id="Ellipse_115" cx="24" cy="24" r="24" class="cls-1" data-name="Ellipse 115"/>
    <path id="Path_240" d="M22.469 12a.962.962 0 0 0-.943.975v2.878a.96.96 0 1 0 1.919 0v-2.878a.965.965 0 0 0-.976-.975zm3.837.962a.96.96 0 0 0-.943.973v1.919a.96.96 0 1 0 1.919 0v-1.92a.957.957 0 0 0-.975-.973zm-7.674.959a.964.964 0 0 0-.946.973v.959a.961.961 0 1 0 1.921 0v-.959a.968.968 0 0 0-.282-.693.953.953 0 0 0-.693-.28zm-3.673 4.81a.957.957 0 0 0-.948 1.1L16.068 33.9a2.419 2.419 0 0 0 2.47 2.1h8.016a2.5 2.5 0 0 0 2.465-2.1l.376-2.7h2.14a2.889 2.889 0 0 0 2.848-2.472l.542-3.839a2.893 2.893 0 0 0-2.848-3.281h-1.355l.246-1.789a.96.96 0 0 0-.95-1.091zm15.5 4.8h1.618a.936.936 0 0 1 .948 1.094l-.542 3.837a.948.948 0 0 1-.948.825H29.66z" class="cls-2" data-name="Path 240"/>
</svg>
