<svg xmlns="http://www.w3.org/2000/svg" width="48" height="48" viewBox="0 0 48 48">
    <defs>
        <style>
            .cls-1{fill:#ddefe2}.cls-2{fill:#25772f}
        </style>
    </defs>
    <g id="Group_459" data-name="Group 459" transform="translate(21115 19812)">
        <g id="Group_458" data-name="Group 458">
            <g id="Group_457" data-name="Group 457">
                <g id="Lactose_Intolerance" data-name="Lactose Intolerance" transform="translate(-21115 -19812)">
                    <circle id="Ellipse_15" cx="24" cy="24" r="24" class="cls-1" data-name="Ellipse 15"/>
                </g>
            </g>
        </g>
        <path id="Path_229" d="M37.33 47.034a2.285 2.285 0 1 0 1.734.228 2.285 2.285 0 0 0-1.734-.228zm-7.314 2.908a.906.906 0 0 0-.122.049l-4.178 2.066a.914.914 0 0 0 .753 1.665l4.111-1.648 1.682 1.05-2.984 4.03a2.28 2.28 0 0 0 .425 3.4l3.255 2.4-4.644 1.646-.02.007a.914.914 0 1 0 .5 1.758l6.568-1.76a1.451 1.451 0 0 0 .718-2.279l.008-.013-2.613-3.2 2.173-2.92 1.3 1.619a.916.916 0 0 0 .161.2l.008.009a.914.914 0 0 0 .852.208l3.532-.946a.914.914 0 0 0-.466-1.768l-2.921.533-1.568-3.016a2.29 2.29 0 0 0-.13-.25 2.285 2.285 0 0 0-1.322-1.01l-4.441-1.8a.914.914 0 0 0-.637-.025zm-7.6 6.766l-.646 1.119 5.02-1.345.876-1.181zm-1.939 3.358l.237.883 5.341-1.431a4.105 4.105 0 0 1-.035-.937zm1.593 2.412l1.119.646 4.227-1.133a4.139 4.139 0 0 1-.7-.76zm10.722 4.7l-1.019 2.537a.915.915 0 0 0 1.673.738l1.9-3.957z" class="cls-2" data-name="Path 229" transform="translate(-21122.477 -19846.955)"/>
    </g>
</svg>
