<svg xmlns="http://www.w3.org/2000/svg" width="48" height="48" viewBox="0 0 48 48">
    <defs>
        <style>
            .cls-1{fill:#ddefe2}.cls-2{fill:#25772f}
        </style>
    </defs>
    <g id="Group_481" data-name="Group 481" transform="translate(19122 20252)">
        <g id="Group_402" data-name="Group 402">
            <g id="Group_398" data-name="Group 398">
                <g id="Appetite_Hunger_and_Satiety" data-name="Appetite Hunger and Satiety" transform="translate(-19122 -20252)">
                    <circle id="Ellipse_5" cx="24" cy="24" r="24" class="cls-1" data-name="Ellipse 5"/>
                </g>
            </g>
        </g>
        <g id="thyroid-gland" transform="translate(-19143.57 -20239)">
            <g id="Group_480" data-name="Group 480" transform="translate(36.571)">
                <g id="Group_479" data-name="Group 479">
                    <path id="Path_253" d="M92.592 4.9l.042.04.237.228a11.908 11.908 0 0 1 .97 1.046c.041.051.082.1.123.156s.071.092.107.139l.066.09q.089.122.176.251l.011.016a8.788 8.788 0 0 1 .554.942l.029-.021a4.93 4.93 0 0 1 .229-.164l.028-.018c.078-.052.163-.1.252-.155l.075-.043c.1-.056.206-.111.32-.165l.061-.027q.156-.071.328-.137l.08-.031q.2-.072.414-.133l.094-.025c.136-.036.277-.068.425-.1l.066-.013c.164-.029.336-.052.514-.069l.125-.011c.186-.015.377-.025.578-.025s.392.011.578.025l.125.011c.178.018.35.04.514.069l.066.013c.148.028.289.06.425.1l.094.025q.217.061.414.133l.08.031q.172.065.328.137l.061.027c.114.054.219.109.32.165l.075.043c.089.052.174.1.252.155l.028.018c.083.056.158.11.229.164l.029.02a8.769 8.769 0 0 1 .772-1.251l.009-.012q.091-.122.182-.237l.049-.062.115-.138.007-.008.02-.024q.111-.131.22-.252c.22-.244.435-.46.636-.656l.237-.228.041-.04c.7-.671 1.164-1.114 1.164-1.755C105.571 1.1 103.547 0 101.642 0c-.969 0-1.161.512-1.417 1.417-.206.728-.489 1.726-1.726 1.726s-1.519-1-1.726-1.726C96.518.512 96.326 0 95.357 0c-1.9 0-3.929 1.1-3.929 3.143 0 .641.463 1.084 1.164 1.757z" class="cls-2" data-name="Path 253" transform="translate(-89.071)"/>
                    <path id="Path_254" d="M185.9 174.581c-.07-.049-.144-.1-.227-.15-.038-.023-.082-.046-.123-.069a4.664 4.664 0 0 0-.236-.125c-.051-.025-.106-.049-.16-.073q-.128-.057-.269-.109-.092-.034-.19-.066a4.947 4.947 0 0 0-.316-.09c-.069-.018-.137-.036-.21-.052a5.45 5.45 0 0 0-.393-.066c-.068-.01-.132-.022-.2-.029a6.154 6.154 0 0 0-1.337 0c-.071.007-.135.02-.2.029a5.45 5.45 0 0 0-.393.066c-.073.016-.141.034-.21.052a4.947 4.947 0 0 0-.316.09q-.1.032-.19.066-.141.052-.269.109c-.054.024-.109.048-.16.073a4.271 4.271 0 0 0-.236.125c-.041.023-.085.046-.123.069-.083.05-.157.1-.227.15l-.066.044a3.654 3.654 0 0 0-.219.174 11.282 11.282 0 0 1 .559 1.836 6.192 6.192 0 0 1 1.133-.381l.059-.014c.087-.02.176-.037.267-.054l.145-.025c.077-.012.155-.024.236-.034l.133-.015h.1c.063-.006.124-.012.189-.016a6.806 6.806 0 0 1 .92 0c.064 0 .126.011.189.016h.017l.083.007.133.015c.08.01.158.022.236.034l.145.025c.091.017.18.034.267.054l.059.014a6.194 6.194 0 0 1 1.133.381 11.291 11.291 0 0 1 .559-1.836 3.654 3.654 0 0 0-.219-.174.439.439 0 0 1-.073-.051z" class="cls-2" data-name="Path 254" transform="translate(-173.47 -166.25)"/>
                    <path id="Path_255" d="M54.407 135.984a3.737 3.737 0 0 1-.55-1.628c0-.614-.539-1.193-1.647-1.767l-.033.032-.177.179a10.68 10.68 0 0 0-.206.212l-.079.084-.138.15-.087.1-.148.173-.072.087c-.153.189-.307.4-.459.622l-.02.031q-.108.163-.214.341l-.02.034a8.341 8.341 0 0 0-.436.855l-.011.026q-.108.25-.2.51a7.793 7.793 0 0 0-.056.163q-.056.162-.108.329c-.029.1-.058.191-.085.29l-.04.15a2.428 2.428 0 0 1 1.1-.244.393.393 0 1 1 0 .786 1.494 1.494 0 0 0-1.017.338 3.723 3.723 0 0 1 .522.445.393.393 0 1 1-.581.529 3.649 3.649 0 0 0-.8-.6.064.064 0 0 1-.026-.011 5.342 5.342 0 0 0-1.5-.567l-.076-.014a5.236 5.236 0 0 0-.315-.057h-.017c-.043-.006-.089-.009-.133-.015a6.169 6.169 0 0 0-.246-.027l-.064-.006a6.204 6.204 0 0 0-.921 0l-.089.009a7.192 7.192 0 0 0-.222.024c-.041.005-.084.008-.124.014l-.068.011a6.718 6.718 0 0 0-.274.05l-.066.012-.039.009a5.52 5.52 0 0 0-.337.085h-.012a5.242 5.242 0 0 0-1.123.471 3.711 3.711 0 0 0-.818.6.393.393 0 0 1-.582-.529 3.725 3.725 0 0 1 .522-.445 1.5 1.5 0 0 0-1.017-.338.393.393 0 1 1 0-.786 2.428 2.428 0 0 1 1.1.244l-.04-.15a6.43 6.43 0 0 0-.085-.29q-.052-.167-.108-.329l-.056-.163a9.696 9.696 0 0 0-.21-.524 8.224 8.224 0 0 0-1.158-1.9l-.043-.052a3.569 3.569 0 0 0-.174-.2l-.07-.08a8.233 8.233 0 0 0-.151-.165l-.066-.071-.2-.21-.2-.194-.033-.032c-1.108.574-1.647 1.153-1.647 1.767a3.736 3.736 0 0 1-.55 1.628 7.769 7.769 0 0 0-1.021 3.872 5.717 5.717 0 0 0 .7 2.749 3.582 3.582 0 0 1 .478 1.572c0 1.136 1.006 4.714 2.75 4.714a7.272 7.272 0 0 0 2.357-.494v-3.083a2.248 2.248 0 0 1-1.571.565.393.393 0 0 1 0-.786 1.448 1.448 0 0 0 1.1-.412 3.822 3.822 0 0 1-.6-.5.393.393 0 1 1 .582-.529 3.893 3.893 0 0 0 1.039.726.029.029 0 0 1 .024.008 5.384 5.384 0 0 0 1.2.426l.04.009a5.9 5.9 0 0 0 .6.1l.1.01c.206.02.414.033.628.033s.415-.013.618-.033l.126-.013c.193-.023.383-.053.568-.094l.091-.021a5.5 5.5 0 0 0 .567-.163l.024-.009a5.27 5.27 0 0 0 .58-.246 3.962 3.962 0 0 0 1.06-.733.393.393 0 1 1 .582.529 3.827 3.827 0 0 1-.6.5 1.447 1.447 0 0 0 1.1.412.393.393 0 0 1 0 .786 2.247 2.247 0 0 1-1.571-.565v3.09a7.276 7.276 0 0 0 2.357.494c1.744 0 2.75-3.578 2.75-4.714a3.583 3.583 0 0 1 .478-1.572 5.718 5.718 0 0 0 .7-2.749 7.77 7.77 0 0 0-1.041-3.875z" class="cls-2" data-name="Path 255" transform="translate(-36.571 -126.892)"/>
                    <path id="Path_256" d="M204.787 429.545l-.152.026a7.402 7.402 0 0 1-.4.052c-.053.005-.106.012-.16.016a6.966 6.966 0 0 1-1.14 0c-.053 0-.106-.011-.158-.016a6.174 6.174 0 0 1-.407-.053l-.15-.026a6.335 6.335 0 0 1-1.058-.29h-.014v1.289l.214.053a8.138 8.138 0 0 0 .648.125c.078.012.155.026.233.036.151.02.3.035.453.048.058 0 .116.012.174.016a9.462 9.462 0 0 0 1.269 0c.058 0 .116-.011.174-.016.151-.013.3-.027.453-.048.078-.01.155-.024.233-.036.131-.021.262-.043.393-.069.085-.017.17-.037.255-.056s.143-.035.214-.053v-1.289l-.018.006a6.345 6.345 0 0 1-1.051.285z" class="cls-2" data-name="Path 256" transform="translate(-194.072 -410.807)"/>
                    <path id="Path_257" d="M205.5 478.269q-.212.042-.425.075c-.086.013-.171.026-.257.037-.137.018-.275.031-.412.044-.087.008-.173.017-.26.023-.156.01-.313.014-.469.017-.058 0-.116.006-.174.006s-.116-.005-.174-.006c-.156 0-.313-.007-.469-.017-.087-.006-.173-.015-.26-.023a9.593 9.593 0 0 1-.412-.044c-.086-.011-.171-.024-.257-.037q-.213-.033-.425-.075c-.079-.016-.159-.031-.238-.048-.04-.009-.081-.015-.121-.025v1.228a.224.224 0 0 0 .224.224h4.266a.224.224 0 0 0 .224-.224V478.2l-.121.025a4.92 4.92 0 0 0-.24.044z" class="cls-2" data-name="Path 257" transform="translate(-194.072 -457.648)"/>
                </g>
            </g>
        </g>
    </g>
</svg>
