<svg xmlns="http://www.w3.org/2000/svg" width="48" height="48" viewBox="0 0 48 48">
    <defs>
        <style>
            .cls-1{fill:#ddefe2}.cls-2{fill:#25772f}
        </style>
    </defs>
    <g id="Group_471" data-name="Group 471" transform="translate(19122 22452)">
        <g id="Alcohol_Response" data-name="Alcohol Response" transform="translate(-19122 -22452)">
            <circle id="Ellipse_21" cx="24" cy="24" r="24" class="cls-1" data-name="Ellipse 21"/>
        </g>
        <g id="lungs-silhouette" transform="translate(-19112.002 -22442.023)">
            <path id="Path_239" d="M27.453 17.763c0-4.923-5.635-12.933-9.1-12.933-1.652 0-2.523 1.834-2.969 4.278-.269-.306-.427-.542-.569-.7V2.125a1.068 1.068 0 1 0-2.136 0v6.418a3.683 3.683 0 0 1-.541.8c-.439-2.518-1.3-4.426-2.988-4.426-3.463 0-9.1 8.01-9.1 12.932s-.658 8.914 2.8 8.914 9.729-3.99 9.729-8.914c0-1.737 0-3.857-.149-5.874a7.3 7.3 0 0 0 1.432-1.281 12.013 12.013 0 0 0 1.2 1.154c-.151 2.031-.151 4.167-.151 5.917 0 4.923 6.268 8.915 9.731 8.915s2.811-3.993 2.811-8.917z" class="cls-2" data-name="Path 239"/>
        </g>
    </g>
</svg>
