<svg xmlns="http://www.w3.org/2000/svg" width="48" height="48" viewBox="0 0 48 48">
    <defs>
        <style>
            .cls-1{fill:#ddefe2}.cls-2{fill:#25772f}
        </style>
    </defs>
    <g id="Group_470" data-name="Group 470" transform="translate(21115 16732)">
        <g id="Iron_Need" data-name="Iron Need" transform="translate(-21115 -16732)">
            <circle id="Ellipse_6" cx="24" cy="24" r="24" class="cls-1" data-name="Ellipse 6"/>
        </g>
        <path id="Path_238" d="M15.13 24.5a2.606 2.606 0 1 0 1.847.763 2.608 2.608 0 0 0-1.847-.763zm-8.347 6.26a2.085 2.085 0 0 0-1.67.838L2.3 35.355A1.043 1.043 0 1 0 3.968 36.6l2.751-3.66 2.515.5L7.44 38.8h.012a2.576 2.576 0 0 0 2.461 3.44 2.447 2.447 0 0 0 .649-.094l4.781-.669 6.979 1.653.3.1a1.045 1.045 0 1 0 .662-1.983l-6.263-2.087a.975.975 0 0 0-.22-.047l-3.727-.724 1.14-3.42 2.915 1.856a1.055 1.055 0 0 0 1.076.084l4.174-2.087a1.044 1.044 0 1 0-.937-1.866l-3.5 1.75-2.726-2.724a4.174 4.174 0 0 0-2.946-1.222zm-.394 11.946c-.486.919-1.143 2.171-1.143 2.216 0 .069-4.57 1.559-4.57 1.559a1.043 1.043 0 0 0 .367 2.02 1.151 1.151 0 0 0 .278-.035l4.779-.972a2.041 2.041 0 0 0 1.177-.7l2.129-2.52a4.644 4.644 0 0 1-3.019-1.568z" class="cls-2" data-name="Path 238" transform="translate(-21103 -16744.5)"/>
    </g>
</svg>
