<svg xmlns="http://www.w3.org/2000/svg" width="48" height="48" viewBox="0 0 48 48">
    <defs>
        <style>
            .cls-1{fill:#ddefe2}.cls-2{fill:#25772f}
        </style>
    </defs>
    <g id="Group_461" data-name="Group 461" transform="translate(21115 19372)">
        <g id="Group_369" data-name="Group 369">
            <g id="Lactose_Intolerance" data-name="Lactose Intolerance" transform="translate(-21115 -19372)">
                <circle id="Ellipse_15" cx="24" cy="24" r="24" class="cls-1" data-name="Ellipse 15"/>
            </g>
        </g>
        <g id="pregnant-woman_1_" data-name="pregnant-woman (1)" transform="translate(-21116.84 -19362)">
            <g id="Group_460" data-name="Group 460" transform="translate(20.84)">
                <circle id="Ellipse_113" cx="2.696" cy="2.696" r="2.696" class="cls-2" data-name="Ellipse 113" transform="translate(.556)"/>
                <path id="Path_230" d="M28.161 16.8c-1.977-2.781-6.425-2.95-6.425-.033l.019 5.654a5.538 5.538 0 0 0 .021 6.132L21.8 34.8a1.509 1.509 0 0 0 1.509 1.508h.361c.833 0 1.292-.566 1.508-1.508.312-1.359 1.265-5.429 1.265-5.429a6.29 6.29 0 0 0 4.065-6.029 11.54 11.54 0 0 0-2.347-6.547z" class="cls-2" data-name="Path 230" transform="translate(-20.84 -8.142)"/>
            </g>
        </g>
    </g>
</svg>
