<svg xmlns="http://www.w3.org/2000/svg" width="48" height="48" viewBox="0 0 48 48">
    <defs>
        <style>
            .cls-1{fill:#ddefe2}.cls-2{fill:#25772f}
        </style>
    </defs>
    <g id="Group_478" data-name="Group 478" transform="translate(19122 20692)">
        <g id="Appetite_Hunger_and_Satiety" data-name="Appetite Hunger and Satiety" transform="translate(-19122 -20692)">
            <circle id="Ellipse_5" cx="24" cy="24" r="24" class="cls-1" data-name="Ellipse 5"/>
        </g>
        <g id="time" transform="translate(-19144.5 -20680)">
            <path id="Path_251" d="M189.14 97.36a4.657 4.657 0 1 0 4.657 4.657 4.657 4.657 0 0 0-4.657-4.657zm1.935 5.382h-1.935a.726.726 0 0 1-.726-.726v-2.9a.726.726 0 0 1 1.451 0v2.177h1.209a.726.726 0 1 1 0 1.451z" class="cls-2" data-name="Path 251" transform="translate(-141.776 -92.65)"/>
            <path id="Path_252" d="M47.255 0a9.342 9.342 0 0 0-4.092.928 9.7 9.7 0 0 0-4 3.488 9.559 9.559 0 0 0-1.545 5.221v1.54l-1.908 3.481a1.527 1.527 0 0 0-.03 1.5 1.3 1.3 0 0 0 1.155.6h.784v3.383a2.114 2.114 0 0 0 2.106 2.117h.019l2.586-.4v2.493a.411.411 0 0 0 .411.412h7.411a3.614 3.614 0 0 0 3.609-3.612v-4.467A9.632 9.632 0 0 0 47.255 0zm.108 15.474a6.108 6.108 0 1 1 6.108-6.108 6.108 6.108 0 0 1-6.108 6.108z" class="cls-2" data-name="Path 252"/>
        </g>
    </g>
</svg>
