<svg xmlns="http://www.w3.org/2000/svg" width="48" height="48" viewBox="0 0 48 48">
    <defs>
        <style>
            .cls-1{fill:#ddefe2}.cls-2{fill:#25772f}
        </style>
    </defs>
    <g id="Group_455" data-name="Group 455" transform="translate(21115 21132)">
        <circle id="Ellipse_101" cx="24" cy="24" r="24" class="cls-1" data-name="Ellipse 101" transform="translate(-21115 -21132)"/>
        <g id="Group_454" data-name="Group 454" transform="translate(-20992.375 -21106.588)">
            <g id="Group_453" data-name="Group 453" transform="translate(-109.626 -14.411)">
                <g id="Group_452" data-name="Group 452">
                    <path id="Path_221" d="M-87.452 1.763a2.125 2.125 0 0 0-.388-.651 13.649 13.649 0 0 0-1.7-3.852c-1.339-2.14-4.884-5.587-6.232-6.119a1.238 1.238 0 0 0-.184-.056 1.084 1.084 0 0 0-.679-.852 21.476 21.476 0 0 0-2.023-.867 5.646 5.646 0 0 0-6.052-3.731 5.672 5.672 0 0 0-4.877 4.946 5.651 5.651 0 0 0 1.393 4.407 5.651 5.651 0 0 0 4.216 1.893 5.652 5.652 0 0 0 5.414-4.062c.512-.079.954-.052 1.2.319.692 1.03 1.456 4.457 2.723 6.648a7.306 7.306 0 0 0-.992-.068 6.287 6.287 0 0 0-3.705 1.11 4.466 4.466 0 0 0-3.762-2.065 4.469 4.469 0 0 0-4.334 3.39h-.192l.111 9.244 2.286-.039.829-1.469a11.449 11.449 0 0 0 4.328-3.5 38.513 38.513 0 0 0 4.445.369 27.119 27.119 0 0 0 5.175-.739c2.219-.811 3.566-2.719 3-4.256zm-16.208-8.907a1.657 1.657 0 0 1-1.487-.457 1.657 1.657 0 0 1-.453-1.488 1.659 1.659 0 0 1 1.3-1.3 1.657 1.657 0 0 1 1.5.454 1.657 1.657 0 0 1 .452 1.5 1.658 1.658 0 0 1-1.312 1.291z" class="cls-2" data-name="Path 221" transform="translate(109.626 14.411)"/>
                </g>
            </g>
            <circle id="Ellipse_112" cx="1.151" cy="1.151" r="1.151" class="cls-2" data-name="Ellipse 112" transform="translate(-107.523 10.074)"/>
            <path id="Path_222" d="M-101.2 33.392l-1.006 1.964-.963-.629.4-1.774z" class="cls-2" data-name="Path 222" transform="translate(-3.204 -23.502)"/>
            <path id="Path_223" d="M-103.7 13.341s-1.966 1.36-1.966 2.584l.238.913.921-.161z" class="cls-2" data-name="Path 223" transform="translate(-1.966 -13.77)"/>
        </g>
    </g>
</svg>
