<svg xmlns="http://www.w3.org/2000/svg" width="48" height="48" viewBox="0 0 48 48">
    <defs>
        <style>
            .cls-1{fill:#ddefe2}.cls-2{fill:#25772f}
        </style>
    </defs>
    <g id="Group_450" data-name="Group 450" transform="translate(21044 22012)">
        <g id="Group_449" data-name="Group 449" transform="translate(71)">
            <g id="Salt_Sensitivity" data-name="Salt Sensitivity" transform="translate(-21115 -22012)">
                <circle id="Ellipse_16" cx="24" cy="24" r="24" class="cls-1" data-name="Ellipse 16"/>
            </g>
            <g id="fire" transform="translate(-21200 -22003)">
                <g id="Group_448" data-name="Group 448" transform="translate(99 1)">
                    <path id="Path_220" d="M84.94 16.394c-.321-4.176-2.265-6.793-3.98-9.1C79.372 5.154 78 3.308 78 .584a.584.584 0 0 0-.317-.519.578.578 0 0 0-.606.044A14.836 14.836 0 0 0 71.6 8.024a25.834 25.834 0 0 0-.6 5.916c-2.379-.508-2.918-4.067-2.923-4.1a.583.583 0 0 0-.832-.443c-.125.06-3.062 1.553-3.233 7.512-.012.2-.013.4-.013.6A10.512 10.512 0 0 0 74.5 28a.081.081 0 0 0 .023 0h.007A10.512 10.512 0 0 0 85 17.5c0-.291-.06-1.106-.06-1.106zM74.5 26.833A3.623 3.623 0 0 1 71 23.1v-.227a4.729 4.729 0 0 1 .369-1.852 2.13 2.13 0 0 0 1.926 1.4.583.583 0 0 0 .583-.583 11.669 11.669 0 0 1 .224-2.653 5.641 5.641 0 0 1 1.181-2.236 7.516 7.516 0 0 0 1.2 2.206 6.646 6.646 0 0 1 1.5 3.642c.007.1.015.2.015.309a3.624 3.624 0 0 1-3.5 3.727z" class="cls-2" data-name="Path 220" transform="translate(-64)"/>
                </g>
            </g>
        </g>
    </g>
</svg>
