<svg xmlns="http://www.w3.org/2000/svg" width="73" height="73" viewBox="0 0 73 73">
  <g id="Сгруппировать_240" data-name="Сгруппировать 240" transform="translate(-350 -1155)">
    <circle id="Эллипс_16" data-name="Эллипс 16" cx="36.5" cy="36.5" r="36.5" transform="translate(350 1155)" fill="#e3fcec"/>
    <g id="Сгруппировать_233" data-name="Сгруппировать 233" transform="translate(177.954 -22.753)">
      <path id="Path_13" data-name="Path 13" d="M30.075,13.1c-1.113-1.116-3.476-1.4-6.13-.778A1.582,1.582,0,0,0,22.8,14.363l.18.539a.787.787,0,0,1-.5,1,.769.769,0,0,1-.245.039.787.787,0,0,1-.748-.537l-.315-.952a.906.906,0,0,0-1.311-.5c-.129.073-.262.151-.394.23a2.394,2.394,0,0,0-1.049,2.79l.624,1.866a.787.787,0,0,1-.5,1,.779.779,0,0,1-.247.04.787.787,0,0,1-.748-.539s-.329-.991-.609-1.818a.692.692,0,0,0-1.181-.236q-.3.35-.587.717a3.205,3.205,0,0,0-.582,2.719l.529,2.116a.787.787,0,0,1-.572.954.677.677,0,0,1-.191.024.787.787,0,0,1-.763-.6l-.442-1.765c-1.541,3.589-1.515,7.171-.056,8.634a2.175,2.175,0,0,0,3.4,0L30.075,16.5a2.172,2.172,0,0,0,0-3.4Z" transform="translate(188.304 1193.054)" fill="#41c752"/>
      <g id="Icon_ionic-logo-no-smoking" data-name="Icon ionic-logo-no-smoking" transform="translate(187.546 1193.253)">
        <path id="Контур_49" data-name="Контур 49" d="M33.8,4.916a.834.834,0,0,1-.095-.057,20.761,20.761,0,0,0-3.264-1.4l-.512-.171A21.229,21.229,0,0,0,13.2,42.084c.038.019.066.047.1.066a20.76,20.76,0,0,0,3.264,1.4l.512.171A21.231,21.231,0,0,0,33.8,4.916ZM23.5,39.674a15.358,15.358,0,0,1-2.581-.228,16.145,16.145,0,0,1-2.7-.693c-.18-.057-.361-.114-.531-.18a15.409,15.409,0,0,1-1.8-.816,16.07,16.07,0,0,1-5.447-23.694L32.946,36.571A16.07,16.07,0,0,1,23.5,39.674Zm13.076-6.737L14.073,10.429A16.055,16.055,0,0,1,23.5,7.336a15.447,15.447,0,0,1,2.581.228,16.145,16.145,0,0,1,2.7.693c.171.057.351.114.531.18a15.37,15.37,0,0,1,1.708.769,16.052,16.052,0,0,1,5.551,23.732Z" transform="translate(-2.25 -2.25)" fill="#41c752" stroke="#e3fcec" stroke-width="1"/>
      </g>
    </g>
  </g>
</svg>
