<svg xmlns="http://www.w3.org/2000/svg" width="73" height="73" viewBox="0 0 73 73">
  <g id="Сгруппировать_243" data-name="Сгруппировать 243" transform="translate(-686 -1155)">
    <circle id="Эллипс_17" data-name="Эллипс 17" cx="36.5" cy="36.5" r="36.5" transform="translate(686 1155)" fill="#e3fcec"/>
    <g id="gluten" transform="translate(635 1180.8)">
      <path id="Контур_50" data-name="Контур 50" d="M277.044,352A5.085,5.085,0,0,0,272,357.044a1.263,1.263,0,0,0,1.263,1.269h.006a5.085,5.085,0,0,0,5.044-5.044,1.263,1.263,0,0,0-.37-.9A1.355,1.355,0,0,0,277.044,352Z" transform="translate(-184.425 -338.112)" fill="#41c752"/>
      <path id="Контур_51" data-name="Контур 51" d="M277.044,176A5.085,5.085,0,0,0,272,181.044a1.263,1.263,0,0,0,1.263,1.269h.006a5.085,5.085,0,0,0,5.044-5.044,1.263,1.263,0,0,0-.37-.9A1.355,1.355,0,0,0,277.044,176Z" transform="translate(-184.425 -169.056)" fill="#41c752"/>
      <path id="Контур_52" data-name="Контур 52" d="M81.268,352a1.281,1.281,0,0,0-.9.37,1.263,1.263,0,0,0-.37.9,5.085,5.085,0,0,0,5.044,5.044h.006a1.263,1.263,0,0,0,1.262-1.269A5.085,5.085,0,0,0,81.268,352Z" transform="translate(0 -338.112)" fill="#41c752"/>
      <path id="Контур_53" data-name="Контур 53" d="M81.268,176a1.281,1.281,0,0,0-.9.37,1.263,1.263,0,0,0-.37.9,5.085,5.085,0,0,0,5.044,5.044h.006a1.263,1.263,0,0,0,1.262-1.269A5.085,5.085,0,0,0,81.268,176Z" transform="translate(0 -169.056)" fill="#41c752"/>
      <path id="Контур_54" data-name="Контур 54" d="M197.05,4.1A5.115,5.115,0,0,0,195.387.34a1.262,1.262,0,0,0-1.724,0,5.089,5.089,0,0,0,0,7.526,1.262,1.262,0,0,0,1.724,0A5.115,5.115,0,0,0,197.05,4.1Z" transform="translate(-107.582)" fill="#41c752"/>
    </g>
    <g id="Icon_ionic-logo-no-smoking" data-name="Icon ionic-logo-no-smoking" transform="translate(701 1170.5)">
      <path id="Контур_49" data-name="Контур 49" d="M33.8,4.916a.834.834,0,0,1-.095-.057,20.761,20.761,0,0,0-3.264-1.4l-.512-.171A21.229,21.229,0,0,0,13.2,42.084c.038.019.066.047.1.066a20.76,20.76,0,0,0,3.264,1.4l.512.171A21.231,21.231,0,0,0,33.8,4.916ZM23.5,39.674a15.358,15.358,0,0,1-2.581-.228,16.145,16.145,0,0,1-2.7-.693c-.18-.057-.361-.114-.531-.18a15.409,15.409,0,0,1-1.8-.816,16.07,16.07,0,0,1-5.447-23.694L32.946,36.571A16.07,16.07,0,0,1,23.5,39.674Zm13.076-6.737L14.073,10.429A16.055,16.055,0,0,1,23.5,7.336a15.447,15.447,0,0,1,2.581.228,16.145,16.145,0,0,1,2.7.693c.171.057.351.114.531.18a15.37,15.37,0,0,1,1.708.769,16.052,16.052,0,0,1,5.551,23.732Z" transform="translate(-2.25 -2.25)" fill="#41c752" stroke="#e3fcec" stroke-width="1"/>
    </g>
  </g>
</svg>
