<svg xmlns="http://www.w3.org/2000/svg" width="73" height="73" viewBox="0 0 73 73">
  <g id="Сгруппировать_234" data-name="Сгруппировать 234" transform="translate(-1018 -1155)">
    <circle id="Эллипс_17" data-name="Эллипс 17" cx="36.5" cy="36.5" r="36.5" transform="translate(1018 1155)" fill="#e3fcec"/>
    <path id="Контур_24" data-name="Контур 24" d="M42.487,8.705c-1.993.352-1.826,2.721-4.24,3.147a4.312,4.312,0,0,0-2.362,1.215,5.891,5.891,0,0,0-.7.724,7.041,7.041,0,0,1,3.341,3.275h0c1.42.729,2.808,1.824,3.351,4.905.07.4.132.553.126.554a1.868,1.868,0,0,0,.141.152c.861.945,1.685,2.071,2.279,5.445.121.687.528,1.084,1.752,2.135.033.032.07.061.1.09l.067-.13c.787-1.4,1.034-1.915.914-2.6-.595-3.374-.209-4.713.283-5.9.024-.063.054-.124.067-.154a2.657,2.657,0,0,0-.061-.6c-.543-3.081.386-4.585,1.469-5.748a.007.007,0,0,0,.006-.008,7.109,7.109,0,0,1,1.885-4.079,7.282,7.282,0,0,0-.833-.492,5.083,5.083,0,0,0-3.053-.34C45.5,10.573,44.71,8.313,42.487,8.705Zm-9.654,7.549c-2.586.456-2.186,3.121-3.075,4.656-.482.832-2.3,2.16-1.806,4.978.347,1.967,1.826,2.99,2.545,3.937,1.732,2.281.24,3.864,3.6,5.715,2.889,1.456,2.583,3.187,4.77,4.051,1.406.571,3.474-.05,4.983.715a16.785,16.785,0,0,1,1.107-7.289c-1.591-1.421-3-2.352-3.365-4.4-.886-5.027-2.007-3.09-2.546-6.151-.6-3.4-2.2-2.285-2.985-3.894S33.975,16.053,32.833,16.255ZM54.1,12.5c-1.141.2-2.054,1.5-2.236,3.287s-2.076,1.279-1.477,4.68c.54,3.061-1.175,1.624-.289,6.651.779,4.418-4.856,5.62-3.05,15.863l4.253-.75c-.838-4.751,3.358-4.172,5.109-5.737s.88-3.082,3.1-5.439c2.518-2.888.575-3.865,1.426-6.6.352-1.135,1.388-2.6,1.042-4.569-.5-2.819-2.663-3.444-3.4-4.059C57.223,14.69,56.687,12.048,54.1,12.5Z" transform="matrix(0.995, 0.105, -0.105, 0.995, 1011.779, 1161.475)" fill="#41c752"/>
  </g>
</svg>
