<svg xmlns="http://www.w3.org/2000/svg" width="73" height="73" viewBox="0 0 73 73">
  <g id="Сгруппировать_256" data-name="Сгруппировать 256" transform="translate(-350 -1668)">
    <circle id="Эллипс_16" data-name="Эллипс 16" cx="36.5" cy="36.5" r="36.5" transform="translate(350 1668)" fill="#e3fcec"/>
    <path id="Вычитание_1" data-name="Вычитание 1" d="M67.871,361.5a15.348,15.348,0,0,1-11.231-4.91,17.488,17.488,0,0,1,0-23.721L67.871,321,79.1,332.869a17.466,17.466,0,0,1,0,23.721A15.343,15.343,0,0,1,67.871,361.5Zm1.443-24.043c-.572,0-.838,1.11-.966,1.644l0,.011a3.478,3.478,0,0,1-.725,1.686,9.927,9.927,0,0,0-1.132,1.454,11.467,11.467,0,0,1-1.413,1.784.349.349,0,0,0-.1.244v6.12a.344.344,0,0,0,.336.342,4.414,4.414,0,0,1,1.5.464,8.2,8.2,0,0,0,3.415.907h.081c1.185,0,2.659,0,3.25-.85a1.527,1.527,0,0,0,.176-1.277,2.265,2.265,0,0,0,.468-2.141,2.411,2.411,0,0,0,.267-2.275,2.083,2.083,0,0,0,.558-1.412,1.711,1.711,0,0,0-1.7-1.663H70.42a4.1,4.1,0,0,1,.386-.881,3.713,3.713,0,0,0,.565-1.826C71.372,337.76,70.083,337.457,69.314,337.457Zm-8.227,6.413a.686.686,0,0,0-.685.686v6.871a.686.686,0,0,0,.685.686h2.286a.686.686,0,0,0,.685-.686v-6.871a.686.686,0,0,0-.685-.686Zm1.143,7.1a.687.687,0,1,1,.686-.687A.687.687,0,0,1,62.231,350.969Z" transform="translate(318.997 1363)" fill="#41c752"/>
  </g>
</svg>
