<svg xmlns="http://www.w3.org/2000/svg" width="73" height="73" viewBox="0 0 73 73">
  <g id="Сгруппировать_235" data-name="Сгруппировать 235" transform="translate(-686 -1474)">
    <circle id="Эллипс_17" data-name="Эллипс 17" cx="36.5" cy="36.5" r="36.5" transform="translate(686 1474)" fill="#e3fcec"/>
    <path id="Контур_28" data-name="Контур 28" d="M79.533,4.778A8.49,8.49,0,0,0,75.9,7.8c-.99,1.249-1.908,2.616-2.935,3.782-1.285,1.464-5.209,5.716-7.544,8.281a14.107,14.107,0,0,0-3.1,14.421A13.206,13.206,0,0,0,66.7,39.9a11.309,11.309,0,0,0,11.034,1.484,15.72,15.72,0,0,0,8.934-7.855C87.8,31.1,88.092,28.2,88.091,24.7l0-.006a33.738,33.738,0,0,1,.961-7.329c.761-2.668,1.135-5.315.243-7.769a9.114,9.114,0,0,0-1.687-2.9.98.98,0,0,0-.055-.083l-.015.009a6.869,6.869,0,0,0-3.008-2A7.816,7.816,0,0,0,79.533,4.778ZM80.5,7.423a5.286,5.286,0,0,1,3.184-.117,3.952,3.952,0,0,1,1.647,1.005l-.008.007a2.151,2.151,0,0,1,.5,1.676,5.689,5.689,0,0,1-.468,1.558c.01-.021-.285.595-.638,1.335s-.793,1.712-1.244,2.818a25.409,25.409,0,0,0-1.985,7.467l-.01.139.017.136A13.51,13.51,0,0,1,81,27.339a21.187,21.187,0,0,1-2.31,5.6,11.219,11.219,0,0,1-4.2,4.205,8.153,8.153,0,0,1-5.984.584c-.029-.021-.066-.044-.1-.067a11.966,11.966,0,0,1-3.43-4.34A11.2,11.2,0,0,1,67.5,21.753c2.325-2.547,6.212-6.761,7.576-8.311,1.193-1.356,2.144-2.78,3.028-3.9A6.466,6.466,0,0,1,80.5,7.423ZM76.387,19.405a11.121,11.121,0,0,0-6.732,14.432C73.9,32.291,79.272,27.331,76.387,19.405Z" transform="translate(646.515 1488.384)" fill="#41c752"/>
  </g>
</svg>
