<svg xmlns="http://www.w3.org/2000/svg" width="73" height="73" viewBox="0 0 73 73">
  <g id="Сгруппировать_236" data-name="Сгруппировать 236" transform="translate(-1018 -1474)">
    <circle id="Эллипс_17" data-name="Эллипс 17" cx="36.5" cy="36.5" r="36.5" transform="translate(1018 1474)" fill="#e3fcec"/>
    <path id="XMLID_67_" d="M57.225,21.1c-2.658-4.9-7.717-8.667-12.106-7.377C38.979,4.585,43.459,2.752,43.2,1.12c-.467-2.951-8.964-.263-9.641,10.363-3.951.959-6.97,6.055-6.97,12.217,0,6.843,3.722,12.392,8.312,12.392,2.484,0,4.708-1.633,6.231-4.209-4.02-6.111-4.5-13.521-1.07-17.886a7.375,7.375,0,0,0-3.749-2.5c.123-1.532.662-5.178,2.915-7.315-.5,3.678,1.44,7.857,3.5,10.933-2.851,2.794-3.005,8.6-.125,13.907,3.262,6.016,9.18,9.12,13.215,6.93S60.487,27.113,57.225,21.1Z" transform="translate(1011.408 1492)" fill="#41c752"/>
  </g>
</svg>
