<svg xmlns="http://www.w3.org/2000/svg" width="48" height="48" viewBox="0 0 48 48">
  <g id="main_green" transform="translate(-95 -59)">
    <g id="Group_46" data-name="Group 46" transform="translate(66 -94)">
      <g id="Group_235" data-name="Group 235" transform="translate(-16 -605)">
        <g id="Group_211" data-name="Group 211" transform="translate(0 656)">
          <g id="Group_206" data-name="Group 206">
            <circle id="Ellipse_1" data-name="Ellipse 1" cx="24" cy="24" r="24" transform="translate(45 102)" fill="#ddefe2"/>
          </g>
        </g>
      </g>
    </g>
    <g id="Group_12" data-name="Group 12" transform="translate(107.649 72)">
      <g id="Group_11" data-name="Group 11">
        <path id="Path_6" data-name="Path 6" d="M240.02,253.765a11.77,11.77,0,0,1-8.425-3.425l-.043-.044a2.686,2.686,0,0,1-.533-3.041,2.726,2.726,0,0,1,2.7-1.584c2.72.209,5.918-1.173,8.347-3.6s3.809-5.627,3.6-8.347a2.725,2.725,0,0,1,1.584-2.7,2.686,2.686,0,0,1,3.042.534l.043.042a11.819,11.819,0,0,1,3.414,8.955,13.982,13.982,0,0,1-13.2,13.2Q240.283,253.765,240.02,253.765Z" transform="translate(-230.764 -230.765)" fill="#25772f"/>
      </g>
      <path id="Path_7" data-name="Path 7" d="M233.722,372.6a2.726,2.726,0,0,0-2.7,1.584,2.685,2.685,0,0,0,.533,3.041l.043.044a11.77,11.77,0,0,0,8.425,3.425q.263,0,.529-.011a13.7,13.7,0,0,0,9.129-4.075L242.069,369C239.64,371.428,236.442,372.809,233.722,372.6Z" transform="translate(-230.763 -357.694)" fill="#25772f"/>
    </g>
  </g>
</svg>
