<svg xmlns="http://www.w3.org/2000/svg" width="48" height="48" viewBox="0 0 48 48">
  <g id="Сгруппировать_30" data-name="Сгруппировать 30" transform="translate(-810 -61)">
    <g id="Group_46" data-name="Group 46" transform="translate(781 -92)">
      <g id="Group_235" data-name="Group 235" transform="translate(-16 -605)">
        <g id="Group_211" data-name="Group 211" transform="translate(0 656)">
          <g id="Group_206" data-name="Group 206">
            <circle id="Ellipse_1" data-name="Ellipse 1" cx="24" cy="24" r="24" transform="translate(45 102)" fill="#ddefe2"/>
          </g>
        </g>
      </g>
    </g>
    <path id="Вычитание_9" data-name="Вычитание 9" d="M-421.58-133.583h-.814a27.188,27.188,0,0,1-13.324-3.491,2.449,2.449,0,0,1-1.19-2.8,7.6,7.6,0,0,0,.22-2.029c0-1.466.727-3.843,2.162-7.067a23.667,23.667,0,0,1,5.041-7.235,6.2,6.2,0,0,1,4.38-1.79l.192,0a3.922,3.922,0,0,1,2.03.662l1.309.861a1.749,1.749,0,0,1,.688.8,1.641,1.641,0,0,1-.157,1.533,1.642,1.642,0,0,1-.043,2.31l-2.25,2.219a1.689,1.689,0,0,1-1.193.488h-2.844a16.2,16.2,0,0,0,.213,2c.063.438.129.9.182,1.376.016.14.1,1.215.1,1.617a4.389,4.389,0,0,1-.433,1.976.544.544,0,0,0-.028.421.554.554,0,0,0,.285.321.564.564,0,0,0,.247.057.565.565,0,0,0,.5-.31,5.48,5.48,0,0,0,.548-2.464c0-.205-.014-.408-.027-.582a.542.542,0,0,1,.315-.538,6.165,6.165,0,0,1,2.525-.544,6.213,6.213,0,0,1,2.525.529,7.3,7.3,0,0,1,6.475-3.858l.2,0A3.89,3.89,0,0,1-410-145.232v6.469a3.892,3.892,0,0,1-2.692,3.69l-.362.119A27.13,27.13,0,0,1-421.58-133.583Zm-2.944-7.238a.532.532,0,0,0-.466.266.518.518,0,0,0,0,.522l1.495,2.623a.533.533,0,0,0,.468.269.532.532,0,0,0,.467-.269l1.495-2.623a.518.518,0,0,0,0-.522.532.532,0,0,0-.465-.266h-.691v-1.586a.533.533,0,0,0-.536-.529h-.535a.533.533,0,0,0-.536.529v1.586Z" transform="translate(1257 231)" fill="#25772f"/>
  </g>
</svg>
