<svg xmlns="http://www.w3.org/2000/svg" width="48" height="48" viewBox="0 0 48 48">
    <g>
        <g>
            <g>
                <g>
                    <g>
                        <g transform="translate(-95 -153) translate(95 153)">
                            <circle cx="24" cy="24" r="24" fill="#e8e8e8"/>
                        </g>
                    </g>
                </g>
            </g>
        </g>
        <path fill="#acacac" d="M-409.538-134.2a10.309 10.309 0 0 1-5.54-2.5c-1.271-1.028-3.4-3.14-3.4-5.739v-8.59l-2.768-1.372-2.77 1.373v8.589c0 2.6-2.132 4.711-3.4 5.739a10.309 10.309 0 0 1-5.54 2.5 3.57 3.57 0 0 1-2.553-1.1 5.314 5.314 0 0 1-1.491-3.744 26.266 26.266 0 0 1 2.672-11.753c1.882-3.514 4.489-5.371 7.54-5.371a2.761 2.761 0 0 1 2.769 2.747v.351l1.847-.916V-158h1.846v4.012l1.845.916v-.35a2.761 2.761 0 0 1 2.769-2.747c3.051 0 5.658 1.857 7.54 5.371a26.267 26.267 0 0 1 2.672 11.753 5.313 5.313 0 0 1-1.484 3.746 3.57 3.57 0 0 1-2.554 1.099zm-2.435-6.85a.86.86 0 0 0-.863.856.86.86 0 0 0 .863.856.861.861 0 0 0 .864-.856.861.861 0 0 0-.864-.853zm-2.589-4.281a1.721 1.721 0 0 0-1.725 1.712 1.721 1.721 0 0 0 1.725 1.713 1.722 1.722 0 0 0 1.726-1.713 1.721 1.721 0 0 0-1.726-1.708zm-16.774 1.658v1.765h1.618v-1.765h1.78v-1.6h-1.78v-1.766h-1.618v1.766h-1.78v1.6zm21.522-1.658a1.291 1.291 0 0 0-1.294 1.284 1.29 1.29 0 0 0 1.294 1.283 1.291 1.291 0 0 0 1.295-1.283 1.291 1.291 0 0 0-1.3-1.28zm-.432-3.425a.86.86 0 0 0-.863.856.86.86 0 0 0 .863.856.861.861 0 0 0 .864-.856.861.861 0 0 0-.865-.852z" transform="translate(-95 -153) translate(540 323)"/>
    </g>
</svg>
