<svg xmlns="http://www.w3.org/2000/svg" width="48" height="48" viewBox="0 0 48 48">
  <g id="main_green" transform="translate(-95 -153)">
    <g id="main_green-2" data-name="main_green" transform="translate(0 94)">
      <g id="Group_46" data-name="Group 46" transform="translate(66 -94)">
        <g id="Group_235" data-name="Group 235" transform="translate(-16 -605)">
          <g id="Group_211" data-name="Group 211" transform="translate(0 656)">
            <g id="Group_206" data-name="Group 206">
              <circle id="Ellipse_1" data-name="Ellipse 1" cx="24" cy="24" r="24" transform="translate(45 102)" fill="#ddefe2"/>
            </g>
          </g>
        </g>
      </g>
    </g>
    <path id="Вычитание_1" data-name="Вычитание 1" d="M-409.538-134.2a10.309,10.309,0,0,1-5.54-2.5c-1.271-1.028-3.4-3.14-3.4-5.739v-8.59l-2.768-1.372-2.77,1.373v8.589c0,2.6-2.132,4.711-3.4,5.739a10.309,10.309,0,0,1-5.54,2.5,3.57,3.57,0,0,1-2.553-1.1A5.314,5.314,0,0,1-437-139.044a26.266,26.266,0,0,1,2.672-11.753c1.882-3.514,4.489-5.371,7.54-5.371a2.761,2.761,0,0,1,2.769,2.747v.351l1.847-.916V-158h1.846v4.012l1.845.916v-.35a2.761,2.761,0,0,1,2.769-2.747c3.051,0,5.658,1.857,7.54,5.371a26.266,26.266,0,0,1,2.672,11.753,5.313,5.313,0,0,1-1.484,3.746A3.57,3.57,0,0,1-409.538-134.2Zm-2.435-6.85a.86.86,0,0,0-.863.856.86.86,0,0,0,.863.856.861.861,0,0,0,.864-.856A.861.861,0,0,0-411.973-141.047Zm-2.589-4.281a1.721,1.721,0,0,0-1.725,1.712,1.721,1.721,0,0,0,1.725,1.713,1.722,1.722,0,0,0,1.726-1.713A1.721,1.721,0,0,0-414.562-145.327Zm-16.774,1.658v1.765h1.618v-1.765h1.78v-1.6h-1.78v-1.766h-1.618v1.766h-1.78v1.6Zm21.522-1.658a1.291,1.291,0,0,0-1.294,1.284,1.29,1.29,0,0,0,1.294,1.283,1.291,1.291,0,0,0,1.295-1.283A1.291,1.291,0,0,0-409.815-145.327Zm-.432-3.425a.86.86,0,0,0-.863.856.86.86,0,0,0,.863.856.861.861,0,0,0,.864-.856A.861.861,0,0,0-410.247-148.752Z" transform="translate(540 323)" fill="#25772f"/>
  </g>
</svg>
