<svg xmlns="http://www.w3.org/2000/svg" width="48" height="48" viewBox="0 0 48 48">
  <g id="main_green" transform="translate(-95 -247)">
    <g id="main_green-2" data-name="main_green" transform="translate(0 188)">
      <g id="Group_46" data-name="Group 46" transform="translate(66 -94)">
        <g id="Group_235" data-name="Group 235" transform="translate(-16 -605)">
          <g id="Group_211" data-name="Group 211" transform="translate(0 656)">
            <g id="Group_206" data-name="Group 206">
              <circle id="Ellipse_1" data-name="Ellipse 1" cx="24" cy="24" r="24" transform="translate(45 102)" fill="#ddefe2"/>
            </g>
          </g>
        </g>
      </g>
    </g>
    <g id="brains" transform="translate(103 257)">
      <path id="Контур_12" data-name="Контур 12" d="M32.859,44l6.293,3.5a5.6,5.6,0,0,0,1.274-.556L35.132,44Z" transform="translate(-15.954 -21.907)" fill="#25772f"/>
      <path id="Контур_13" data-name="Контур 13" d="M41.859,44l4.21,2.339a5.644,5.644,0,0,0,.778-.831L44.132,44Z" transform="translate(-20.763 -21.907)" fill="#25772f"/>
      <path id="Контур_14" data-name="Контур 14" d="M26.53,44H24.258a11.271,11.271,0,0,1,3.569,4.71l1.282,3.207h1.78L29.2,47.872A5.61,5.61,0,0,1,26.53,44Z" transform="translate(-11.359 -21.907)" fill="#25772f"/>
      <path id="Контур_15" data-name="Контур 15" d="M36.029,48.589h.889c.027,0,.052,0,.079,0l-5.344-2.969A4.688,4.688,0,0,0,36.029,48.589Z" transform="translate(-15.31 -22.771)" fill="#25772f"/>
      <path id="Контур_16" data-name="Контур 16" d="M27.269,9.109,27.2,9.037c-.28-.3-.575-.581-.879-.85a1.981,1.981,0,0,0-1.45,1.445l-.9-.225a2.911,2.911,0,0,1,1.518-1.9,13.259,13.259,0,0,0-7.9-2.645h-.115a3.1,3.1,0,0,0-1.814.59,4.191,4.191,0,0,1,3,2.9l.164.573-.9.256-.164-.573a3.245,3.245,0,0,0-2.893-2.33,3.127,3.127,0,0,0-.257.471l-.467,1.091-.856-.366.467-1.091a4.036,4.036,0,0,1,3.195-2.416A4.167,4.167,0,0,0,14.267,3h-3a5.894,5.894,0,0,1,1.5,2.681l-.9.225a4.954,4.954,0,0,0-1.829-2.755l-.106-.08a7.944,7.944,0,0,0-5.78,3.781,6.63,6.63,0,0,0,.805,1.54A6.79,6.79,0,0,1,6.933,6.337l.516.775A5.861,5.861,0,0,0,5.586,9.15,6.622,6.622,0,0,0,7.4,10.5l-.417.833A7.617,7.617,0,0,1,3.6,7.925,7.9,7.9,0,0,0,3,10.943a6.235,6.235,0,0,0,3.21,5.471l.834-.667a5.054,5.054,0,0,1,2.968-1.1,6.81,6.81,0,0,1,1.654-4.014A2.468,2.468,0,0,0,10.3,9.5l.294-.884A3.409,3.409,0,0,1,12.356,9.96c.155-.133.309-.266.476-.386l.607-.434.542.758-.607.434a5.872,5.872,0,0,0-2.433,4.37,5.049,5.049,0,0,1,2.477,1.108l.091.076a4.7,4.7,0,0,0,.685.474l.766-.613a5.054,5.054,0,0,1,2.591-1.069,3.652,3.652,0,0,1,2.564-2.349l.226.9a2.724,2.724,0,0,0-1.777,1.433,5.053,5.053,0,0,1,2.769,1.146l.091.076c.02.017.041.031.062.047l2.428-.662a2.552,2.552,0,0,0,.611-.265,5.09,5.09,0,0,1-1.5-3.624h.931A4.16,4.16,0,0,0,25.24,14.4a2.575,2.575,0,0,0,.578-1.619h.931a3.521,3.521,0,0,1-2.59,3.39L22.6,16.6a4.688,4.688,0,0,0,1.824.375V17.9a5.62,5.62,0,0,1-3.592-1.3l-.091-.076a4.106,4.106,0,0,0-5.2-.052l-.373.3a4.665,4.665,0,0,0,1.334.2V17.9a5.62,5.62,0,0,1-3.592-1.3l-.091-.076a4.106,4.106,0,0,0-5.2-.052l-.83.665.311,1.037a4.166,4.166,0,0,0,4.014,2.986h.128L14.861,18.9l.494.789-2.349,1.468H23.138a3.7,3.7,0,0,0-2.089-1.411l.226-.9a4.632,4.632,0,0,1,2.961,2.314h.651A5.112,5.112,0,0,0,30,16.04v-.049a10.063,10.063,0,0,0-2.729-6.883ZM11.053,19.162,9.19,17.3l.658-.658L11.711,18.5Z" fill="#25772f"/>
      <path id="Контур_17" data-name="Контур 17" d="M52.123,44.27a5.6,5.6,0,0,0,.438-1.117,6.014,6.014,0,0,1-1.771.377Z" transform="translate(-25.535 -21.455)" fill="#25772f"/>
    </g>
  </g>
</svg>
