<svg xmlns="http://www.w3.org/2000/svg" width="48" height="48" viewBox="0 0 48 48">
  <g id="main_green" transform="translate(-95 -435)">
    <g id="main_green-2" data-name="main_green" transform="translate(0 376)">
      <g id="Group_46" data-name="Group 46" transform="translate(66 -94)">
        <g id="Group_235" data-name="Group 235" transform="translate(-16 -605)">
          <g id="Group_211" data-name="Group 211" transform="translate(0 656)">
            <g id="Group_206" data-name="Group 206">
              <circle id="Ellipse_1" data-name="Ellipse 1" cx="24" cy="24" r="24" transform="translate(45 102)" fill="#ddefe2"/>
            </g>
          </g>
        </g>
      </g>
    </g>
    <g id="pancreas" transform="translate(106 411.3)">
      <path id="Контур_18" data-name="Контур 18" d="M63.271,288.279a19.649,19.649,0,0,1,2.2-3.707,11.535,11.535,0,0,1-5.447-2.15,7.481,7.481,0,0,0,.225,1.674,7,7,0,0,0,3.025,4.183Z" transform="translate(-56.855 -232.283)" fill="#25772f"/>
      <path id="Контур_19" data-name="Контур 19" d="M86.92,37.9a2.372,2.372,0,0,0-3.372.016A15.242,15.242,0,0,1,75.2,42.154c-2.5.4-3.43.611-4.986.76a7.135,7.135,0,0,0-6.225,5.362,9.97,9.97,0,0,0,6.483,2.514q.584-.638,1.217-1.219V46.836a.791.791,0,0,1,1.582,0v1.428q.763-.566,1.582-1.057V45.254a.791.791,0,1,1,1.582,0v1.093c.638-.325,1.141-.55,1.914-1a18.2,18.2,0,0,0,3.666-2.833l.98-.98a.791.791,0,1,1,1.119,1.119l-.98.98a19.739,19.739,0,0,1-2.771,2.308l.382.191a.791.791,0,0,1-.708,1.415l-1.251-.626c-.616.344-.948.493-1.859.953A18.345,18.345,0,0,0,68.454,56.7a7.153,7.153,0,0,0,9.25-4.6c.3-.975,1.616-1.538,3.139-2.19,2.858-1.223,6.772-2.9,6.772-8.848V39.582A2.357,2.357,0,0,0,86.92,37.9Z" transform="translate(-60.616)" fill="#25772f"/>
      <path id="Контур_20" data-name="Контур 20" d="M22.939,97.448H18.806a.9.9,0,0,0-.209.2A8.7,8.7,0,1,1,9.449,86.414c.591-.056,1.083-.121,1.625-.206v-.625a.791.791,0,0,0-.791-.791,10.283,10.283,0,1,0,7.417,17.4h5.239a.791.791,0,0,0,.791-.791V98.239A.791.791,0,0,0,22.939,97.448Z" transform="translate(0 -45.075)" fill="#25772f"/>
    </g>
  </g>
</svg>
