<svg xmlns="http://www.w3.org/2000/svg" width="48" height="48" viewBox="0 0 48 48">
  <g id="main_green" transform="translate(-466 -61)">
    <g id="main_green-2" data-name="main_green" transform="translate(371 2)">
      <g id="Group_46" data-name="Group 46" transform="translate(66 -94)">
        <g id="Group_235" data-name="Group 235" transform="translate(-16 -605)">
          <g id="Group_211" data-name="Group 211" transform="translate(0 656)">
            <g id="Group_206" data-name="Group 206">
              <circle id="Ellipse_1" data-name="Ellipse 1" cx="24" cy="24" r="24" transform="translate(45 102)" fill="#ddefe2"/>
            </g>
          </g>
        </g>
      </g>
    </g>
    <g id="veins" transform="translate(476.999 72.997)">
      <path id="Контур_21" data-name="Контур 21" d="M.024,8.607a1.042,1.042,0,0,0,1.018.824,1.075,1.075,0,0,0,.219-.023l7.3-1.56a1.044,1.044,0,0,0,.733-.594l2.585-5.784a1.042,1.042,0,1,0-1.9-.85l-2.368,5.3L5.455,6.38,1.749,2.966A1.042,1.042,0,0,0,.337,4.5L2.959,6.914.825,7.371a1.042,1.042,0,0,0-.8,1.236Zm0,0" transform="translate(0 -0.001)" fill="#25772f"/>
      <path id="Контур_22" data-name="Контур 22" d="M10.414,167.176a1.042,1.042,0,0,0,1.042-1.042v-1.6a1.046,1.046,0,0,0-.018-.193L9.284,152.924a1.042,1.042,0,0,0-1.24-.825L.832,153.637a1.042,1.042,0,1,0,.434,2.038l6.168-1.316.7,3.723-2.7.777a1.043,1.043,0,0,0-.7.668l-1.049,3.109a1.042,1.042,0,0,0,1.975.666l.874-2.592,1.987-.572.847,4.491v1.506a1.041,1.041,0,0,0,1.041,1.042Zm0,0" transform="translate(-0.006 -142.173)" fill="#25772f"/>
      <path id="Контур_23" data-name="Контур 23" d="M200.623,331.113a1.04,1.04,0,0,0,1.314-.665l.231-.705,7.435,1.4a1.042,1.042,0,1,0,.385-2.047l-8.334-1.571a1.039,1.039,0,0,0-1.183.7l-.515,1.573a1.043,1.043,0,0,0,.666,1.315Zm0,0" transform="translate(-186.89 -306.183)" fill="#25772f"/>
      <path id="Контур_24" data-name="Контур 24" d="M186.049,17.295a1.042,1.042,0,0,0-1.647-1.276l-1.632,2.105-3.325-.7-1.5-9.786.965-2.434,3.033,1.618a1.042,1.042,0,0,0,.981-1.839L179.684,3.25l.722-1.821a1.042,1.042,0,1,0-1.937-.767l-2.563,6.467a1.039,1.039,0,0,0-.061.542L177.5,18.447a1.042,1.042,0,0,0,.814.861l9.818,2.08a1.042,1.042,0,1,0,.431-2.038l-3.524-.746Zm0,0" transform="translate(-164.385 0)" fill="#25772f"/>
    </g>
  </g>
</svg>
