<svg xmlns="http://www.w3.org/2000/svg" width="48" height="48" viewBox="0 0 48 48">
  <g id="main_green" transform="translate(-466 -160)">
    <g id="main_green-2" data-name="main_green" transform="translate(371 101)">
      <g id="Group_46" data-name="Group 46" transform="translate(66 -94)">
        <g id="Group_235" data-name="Group 235" transform="translate(-16 -605)">
          <g id="Group_211" data-name="Group 211" transform="translate(0 656)">
            <g id="Group_206" data-name="Group 206">
              <circle id="Ellipse_1" data-name="Ellipse 1" cx="24" cy="24" r="24" transform="translate(45 102)" fill="#ddefe2"/>
            </g>
          </g>
        </g>
      </g>
    </g>
    <g id="baby" transform="translate(439.142 170)">
      <path id="Контур_25" data-name="Контур 25" d="M175.265,7.772a4.7,4.7,0,0,0-2.673-4.235,2.3,2.3,0,0,0,.356-1.221A2.316,2.316,0,0,0,168.994.679a.772.772,0,0,0,1.093,1.09.8.8,0,0,1,1.317.547.773.773,0,0,1-.772.772,4.658,4.658,0,1,0,4.632,4.684Zm-4.632,2.316a2.319,2.319,0,0,1-2.316-2.316.772.772,0,1,1,1.544,0,.772.772,0,0,0,1.544,0,.772.772,0,0,1,1.544,0A2.319,2.319,0,0,1,170.632,10.088Z" transform="translate(-119.649)" fill="#25772f"/>
      <path id="Контур_26" data-name="Контур 26" d="M50.494,158.027a3.067,3.067,0,0,1,1.678,2.8v2.645h9.265v-2.645a3.067,3.067,0,0,1,1.678-2.8,8.351,8.351,0,0,0,4.42-4.932,1.545,1.545,0,0,0-.982-1.954A1.571,1.571,0,0,0,64.58,152.2a5.009,5.009,0,0,1-4.937,3.5H53.967a5,5,0,0,1-4.935-3.491,1.574,1.574,0,0,0-1.981-1.062,1.545,1.545,0,0,0-.975,1.954,8.349,8.349,0,0,0,4.419,4.931Z" transform="translate(-5.822 -143.291)" fill="#25772f"/>
      <path id="Контур_27" data-name="Контур 27" d="M206.826,426.632v-1.449A4.825,4.825,0,0,1,208.034,422h-5.5a4.825,4.825,0,0,1,1.208,3.183v1.449Z" transform="translate(-154.299 -400.279)" fill="#25772f"/>
      <path id="Контур_28" data-name="Контур 28" d="M322.409,392a1.618,1.618,0,0,0-1.454.9l-.323.645h-2.2A3.3,3.3,0,0,0,316,396.727v1.449h4.537a3.083,3.083,0,0,0,3-2.34l.454-1.817A1.626,1.626,0,0,0,322.409,392Z" transform="translate(-261.928 -371.823)" fill="#25772f"/>
      <path id="Контур_29" data-name="Контур 29" d="M40.362,395.837a3.081,3.081,0,0,0,3,2.34H47.9v-1.449a3.3,3.3,0,0,0-2.435-3.183h-2.2l-.323-.645a1.626,1.626,0,0,0-3.032,1.122Z" transform="translate(0 -371.823)" fill="#25772f"/>
    </g>
  </g>
</svg>
