<svg xmlns="http://www.w3.org/2000/svg" width="48" height="48" viewBox="0 0 48 48">
  <g id="main_green" transform="translate(-466 -247)">
    <g id="main_green-2" data-name="main_green" transform="translate(371 188)">
      <g id="Group_46" data-name="Group 46" transform="translate(66 -94)">
        <g id="Group_235" data-name="Group 235" transform="translate(-16 -605)">
          <g id="Group_211" data-name="Group 211" transform="translate(0 656)">
            <g id="Group_206" data-name="Group 206">
              <circle id="Ellipse_1" data-name="Ellipse 1" cx="24" cy="24" r="24" transform="translate(45 102)" fill="#ddefe2"/>
            </g>
          </g>
        </g>
      </g>
    </g>
    <path id="Объединение_5" data-name="Объединение 5" d="M-437-141.563A16.438,16.438,0,0,1-420.563-158a16.438,16.438,0,0,1,16.438,16.438,16.437,16.437,0,0,1-16.437,16.437A16.438,16.438,0,0,1-437-141.563Zm7.814,8.624a12.2,12.2,0,0,0,15.618,1.37l-2.861-2.861a4.3,4.3,0,0,1-1.851.4,2.62,2.62,0,0,1-1.208-.346,1.874,1.874,0,0,0-1-.277,1.873,1.873,0,0,0-1,.277,2.62,2.62,0,0,1-1.208.346,4.479,4.479,0,0,1-3.729-2.006,9.348,9.348,0,0,1-1.657-4.113,8.6,8.6,0,0,1-.035-2.973,6.937,6.937,0,0,1,.752-2.247l-3.188-3.188A12.2,12.2,0,0,0-429.186-132.939Zm18.618-1.629a12.2,12.2,0,0,0-1.371-15.618,12.2,12.2,0,0,0-15.618-1.371l4.4,4.4q.269.056.564.133a9.536,9.536,0,0,1,2.107.829,9.537,9.537,0,0,1,2.107-.829,5.778,5.778,0,0,1,2.279-.243,3.391,3.391,0,0,1,2.21,1.452,6.465,6.465,0,0,1,1.035,2.7,8.6,8.6,0,0,1-.034,2.973,10.635,10.635,0,0,1-.734,2.521Zm-10.44-13.325a4.45,4.45,0,0,1,0-1.106,3.086,3.086,0,0,1,.794-1.9,2.926,2.926,0,0,1,1.278-.657,4.025,4.025,0,0,1,1.208-.173l.518.035.034.518a4.059,4.059,0,0,1-.172,1.21,2.918,2.918,0,0,1-.656,1.279,2.926,2.926,0,0,1-1.278.657,4.026,4.026,0,0,1-1.209.173Z" transform="translate(910.7 413.063)" fill="#25772f"/>
  </g>
</svg>
