<svg xmlns="http://www.w3.org/2000/svg" width="48" height="48" viewBox="0 0 48 48">
  <g id="main_green" transform="translate(-466 -346)">
    <g id="main_green-2" data-name="main_green" transform="translate(371 287)">
      <g id="Group_46" data-name="Group 46" transform="translate(66 -94)">
        <g id="Group_235" data-name="Group 235" transform="translate(-16 -605)">
          <g id="Group_211" data-name="Group 211" transform="translate(0 656)">
            <g id="Group_206" data-name="Group 206">
              <circle id="Ellipse_1" data-name="Ellipse 1" cx="24" cy="24" r="24" transform="translate(45 102)" fill="#ddefe2"/>
            </g>
          </g>
        </g>
      </g>
    </g>
    <path id="Вычитание_5" data-name="Вычитание 5" d="M-416.459-132.5h-2.125a.709.709,0,0,1-.708-.708v-9.916a8.027,8.027,0,0,1,5.523-7.3,6.082,6.082,0,0,1-.565-2.621c0-3.058,1.628-4.958,4.25-4.958,4.436,0,7.084,3.972,7.084,10.625,0,5.722-3.9,10.624-7.084,10.624a6.13,6.13,0,0,1-4.016-1.3,4.6,4.6,0,0,1-1.628-3.43c0,.06-.006.118-.01.177-.006.1-.013.2-.013.307v7.791A.709.709,0,0,1-416.459-132.5Zm8.486-11.046a.86.86,0,0,0-.863.856.861.861,0,0,0,.863.857.861.861,0,0,0,.863-.857A.86.86,0,0,0-407.973-143.546Zm-6.242-2.16h0a4.623,4.623,0,0,0-1.344,2.624,8.577,8.577,0,0,1,1.344-2.624Zm3.653-2.121a1.721,1.721,0,0,0-1.726,1.712,1.721,1.721,0,0,0,1.726,1.713,1.721,1.721,0,0,0,1.726-1.713A1.721,1.721,0,0,0-410.562-147.827Zm4.747,0a1.291,1.291,0,0,0-1.294,1.284,1.291,1.291,0,0,0,1.294,1.284,1.291,1.291,0,0,0,1.294-1.284A1.291,1.291,0,0,0-405.815-147.827Zm-.431-3.424a.86.86,0,0,0-.863.856.86.86,0,0,0,.863.856.86.86,0,0,0,.863-.856A.86.86,0,0,0-406.247-151.251Zm-15.17,18.751h-2.125a.709.709,0,0,1-.708-.708V-141c0-.106-.006-.205-.012-.3,0-.06-.008-.12-.01-.182a4.6,4.6,0,0,1-1.628,3.43,6.131,6.131,0,0,1-4.016,1.3c-3.188,0-7.083-4.9-7.083-10.624,0-6.653,2.648-10.625,7.083-10.625,2.622,0,4.251,1.9,4.251,4.958a6.093,6.093,0,0,1-.565,2.621,8.028,8.028,0,0,1,5.523,7.3v9.916A.709.709,0,0,1-421.417-132.5Zm-4.369-13.2h0a8.577,8.577,0,0,1,1.344,2.622A4.634,4.634,0,0,0-425.786-145.7Zm-6.551.537v1.766h1.618v-1.766h1.779v-1.606h-1.779v-1.766h-1.618v1.766h-1.78v1.606Z" transform="translate(910 516)" fill="#25772f"/>
  </g>
</svg>
