<svg xmlns="http://www.w3.org/2000/svg" width="56" height="56" viewBox="0 0 56 56">
  <g id="newspaper" transform="translate(0 -0.001)">
    <path id="Контур_870" data-name="Контур 870" d="M4.922,42.877l26.47-.005A11.463,11.463,0,0,0,38.27,40.59l2.287,2.287-1.16,1.16a1.64,1.64,0,0,0,0,2.32l8.2,8.2A4.922,4.922,0,1,0,54.561,47.6l-8.2-8.2a1.64,1.64,0,0,0-2.32,0l-1.16,1.16L40.59,38.27A11.5,11.5,0,0,0,39.6,23.356v-8.48a1.641,1.641,0,0,0-1.641-1.641H33.033V1.641A1.641,1.641,0,0,0,31.392,0H1.641A1.641,1.641,0,0,0,0,1.641V37.956a4.928,4.928,0,0,0,4.922,4.922ZM52.24,49.92a1.641,1.641,0,0,1-2.32,2.32L42.877,45.2l2.32-2.32ZM37.193,25.592a8.2,8.2,0,1,1-11.6,0A8.213,8.213,0,0,1,37.193,25.592Zm-.879-9.075v4.5a11.473,11.473,0,0,0-3.281-.986V16.517ZM3.281,3.282h26.47V20.03a11.468,11.468,0,0,0-8.736,6.441H8.2a1.64,1.64,0,1,0,0,3.28H20.029a11.606,11.606,0,0,0,0,3.283H8.2a1.641,1.641,0,1,0,0,3.281H21.015a11.438,11.438,0,0,0,2.255,3.2l.085.082H4.922a1.643,1.643,0,0,1-1.641-1.641Zm0,0" fill="#41c752"/>
    <path id="Контур_871" data-name="Контур 871" d="M61.645,70.848H78.27a1.641,1.641,0,0,0,1.641-1.641V62.645A1.641,1.641,0,0,0,78.27,61H61.645A1.641,1.641,0,0,0,60,62.645v6.562A1.641,1.641,0,0,0,61.645,70.848Zm1.641-6.563H76.629v3.281H63.285Zm0,0" transform="translate(-53.441 -54.331)" fill="#41c752"/>
    <path id="Контур_872" data-name="Контур 872" d="M61.645,185.289H71.707a1.641,1.641,0,0,0,0-3.281H61.645a1.641,1.641,0,0,0,0,3.281Zm0,0" transform="translate(-53.441 -162.1)" fill="#41c752"/>
  </g>
</svg>
