<svg xmlns="http://www.w3.org/2000/svg" width="56" height="56" viewBox="0 0 56 56">
  <g id="Сгруппировать_1088" data-name="Сгруппировать 1088" transform="translate(-355 -1629)">
    <g id="Контур_874" data-name="Контур 874" transform="translate(355 1629)" fill="#fff">
      <path d="M 28 54 C 24.48913955688477 54 21.08436012268066 53.31283950805664 17.88023948669434 51.95761108398438 C 14.78442001342773 50.64818954467773 12.00366973876953 48.77322006225586 9.615220069885254 46.38478088378906 C 7.226779937744141 43.99633026123047 5.351809978485107 41.21557998657227 4.042389869689941 38.11975860595703 C 2.687160015106201 34.91564178466797 2 31.51086044311523 2 28 C 2 24.48913955688477 2.687160015106201 21.08436012268066 4.042389869689941 17.88023948669434 C 5.351809978485107 14.78442001342773 7.226779937744141 12.00366973876953 9.615220069885254 9.615220069885254 C 12.00366973876953 7.226779937744141 14.78442001342773 5.351809978485107 17.88023948669434 4.042389869689941 C 21.08436012268066 2.687160015106201 24.48913955688477 2 28 2 C 31.51086044311523 2 34.91564178466797 2.687160015106201 38.11975860595703 4.042389869689941 C 41.21557998657227 5.351809978485107 43.99633026123047 7.226779937744141 46.38478088378906 9.615220069885254 C 48.77322006225586 12.00366973876953 50.64818954467773 14.78442001342773 51.95761108398438 17.88023948669434 C 53.31283950805664 21.08436012268066 54 24.48913955688477 54 28 C 54 31.51086044311523 53.31283950805664 34.91564178466797 51.95761108398438 38.11975860595703 C 50.64818954467773 41.21557998657227 48.77322006225586 43.99633026123047 46.38478088378906 46.38478088378906 C 43.99633026123047 48.77322006225586 41.21557998657227 50.64818954467773 38.11975860595703 51.95761108398438 C 34.91564178466797 53.31283950805664 31.51086044311523 54 28 54 Z" stroke="none"/>
      <path d="M 28 4 C 24.75825500488281 4 21.6156120300293 4.633998870849609 18.65934371948242 5.8843994140625 C 15.80192184448242 7.092987060546875 13.23484420776367 8.824031829833984 11.02944564819336 11.02944564819336 C 8.824031829833984 13.23484420776367 7.092987060546875 15.80192184448242 5.8843994140625 18.65934371948242 C 4.633998870849609 21.6156120300293 4 24.75825500488281 4 28 C 4 31.24174499511719 4.633998870849609 34.3843879699707 5.8843994140625 37.34065628051758 C 7.092987060546875 40.19807815551758 8.824031829833984 42.76515579223633 11.02944564819336 44.97055435180664 C 13.23484420776367 47.17596435546875 15.80192184448242 48.90701293945312 18.65934371948242 50.1156005859375 C 21.6156120300293 51.36600112915039 24.75825500488281 52 28 52 C 31.24174499511719 52 34.3843879699707 51.36600112915039 37.34065628051758 50.1156005859375 C 40.19807815551758 48.90701293945312 42.76515579223633 47.17596435546875 44.97055435180664 44.97055435180664 C 47.17596435546875 42.76515579223633 48.90701293945312 40.19807815551758 50.1156005859375 37.34065628051758 C 51.36600112915039 34.3843879699707 52 31.24174499511719 52 28 C 52 24.75825500488281 51.36600112915039 21.6156120300293 50.1156005859375 18.65934371948242 C 48.90701293945312 15.80192184448242 47.17596435546875 13.23484420776367 44.97055435180664 11.02944564819336 C 42.76515579223633 8.824031829833984 40.19807815551758 7.092987060546875 37.34065628051758 5.8843994140625 C 34.3843879699707 4.633998870849609 31.24174499511719 4 28 4 M 28 0 C 43.46396636962891 0 56 12.53603363037109 56 28 C 56 43.46396636962891 43.46396636962891 56 28 56 C 12.53603363037109 56 0 43.46396636962891 0 28 C 0 12.53603363037109 12.53603363037109 0 28 0 Z" stroke="none" fill="#41c752"/>
    </g>
    <path id="Контур_873" data-name="Контур 873" d="M-13336-8149v50.8" transform="translate(4068.724 16831.629) rotate(45)" fill="none" stroke="#41c752" stroke-width="4"/>
  </g>
</svg>
