<svg xmlns="http://www.w3.org/2000/svg" width="17.8" height="17.8" viewBox="0 0 17.8 17.8">
  <path id="Icon_awesome-exclamation-circle" data-name="Icon awesome-exclamation-circle" d="M18.362,9.462a8.9,8.9,0,1,1-8.9-8.9A8.9,8.9,0,0,1,18.362,9.462Zm-8.9,1.794a1.651,1.651,0,1,0,1.651,1.651A1.651,1.651,0,0,0,9.462,11.257ZM7.9,5.323,8.161,10.2a.431.431,0,0,0,.43.407h1.742a.431.431,0,0,0,.43-.407l.266-4.881a.431.431,0,0,0-.43-.454H8.325A.431.431,0,0,0,7.9,5.323Z" transform="translate(-0.563 -0.563)" fill="#fff"/>
</svg>
