<svg xmlns="http://www.w3.org/2000/svg" width="48" height="48" viewBox="0 0 48 48">
  <g id="Сгруппировать_1089" data-name="Сгруппировать 1089" transform="translate(-696 -2068)">
    <circle id="Эллипс_78" data-name="Эллипс 78" cx="24" cy="24" r="24" transform="translate(696 2068)" fill="#ddefe2"/>
    <g id="fever" transform="translate(708 2079)">
      <path id="Контур_875" data-name="Контур 875" d="M8.5,16.333a.827.827,0,0,1-.589-.244L6.244,14.422a.834.834,0,0,1,1.179-1.179L9.09,14.91a.834.834,0,0,1-.59,1.423Z" transform="translate(0.667 1.444)" fill="#25772f"/>
      <path id="Контур_876" data-name="Контур 876" d="M6.833,16.333a.834.834,0,0,1-.589-1.423l1.667-1.667A.834.834,0,1,1,9.09,14.422L7.423,16.089A.831.831,0,0,1,6.833,16.333Z" transform="translate(0.667 1.444)" fill="#25772f"/>
      <path id="Контур_877" data-name="Контур 877" d="M15.5,16.333a.827.827,0,0,1-.589-.244l-1.667-1.667a.834.834,0,0,1,1.179-1.179L16.09,14.91a.834.834,0,0,1-.59,1.423Z" transform="translate(1.445 1.444)" fill="#25772f"/>
      <path id="Контур_878" data-name="Контур 878" d="M13.833,16.333a.834.834,0,0,1-.589-1.423l1.667-1.667a.834.834,0,1,1,1.179,1.179l-1.667,1.667A.831.831,0,0,1,13.833,16.333Z" transform="translate(1.445 1.444)" fill="#25772f"/>
      <path id="Контур_879" data-name="Контур 879" d="M15.056,20.278a.831.831,0,0,1-.636-.294l-.516-.608a.529.529,0,0,0-.4-.209h0a.521.521,0,0,0-.394.209,2.21,2.21,0,0,1-3.336,0,.523.523,0,0,0-.394-.209h0a.529.529,0,0,0-.4.209l-.514.608A.834.834,0,0,1,7.2,18.9l.516-.608a2.2,2.2,0,0,1,1.668-.8h0a2.2,2.2,0,0,1,1.667.8.483.483,0,0,0,.792,0,2.2,2.2,0,0,1,1.667-.8h0a2.2,2.2,0,0,1,1.667.8l.517.608a.834.834,0,0,1-.1,1.176.843.843,0,0,1-.54.2Z" transform="translate(0.778 1.944)" fill="#25772f"/>
      <path id="Контур_880" data-name="Контур 880" d="M18.668,6.667a.833.833,0,0,1-.474-1.52l.23-.159a.487.487,0,0,0,.241-.457.546.546,0,0,0-.346-.44,2.2,2.2,0,0,1-1.312-1.812A2.156,2.156,0,0,1,17.963.305l.229-.159a.834.834,0,0,1,.947,1.373l-.23.159a.487.487,0,0,0-.241.457.546.546,0,0,0,.346.44,2.2,2.2,0,0,1,1.312,1.812,2.156,2.156,0,0,1-.957,1.973l-.229.159a.836.836,0,0,1-.472.147Z" transform="translate(1.889 0)" fill="#25772f"/>
      <path id="Контур_881" data-name="Контур 881" d="M14.668,6.667a.833.833,0,0,1-.474-1.52l.23-.159a.487.487,0,0,0,.241-.457.546.546,0,0,0-.346-.44,2.2,2.2,0,0,1-1.312-1.812A2.156,2.156,0,0,1,13.963.305l.229-.159a.834.834,0,1,1,.947,1.373l-.23.159a.487.487,0,0,0-.241.457.546.546,0,0,0,.346.44,2.2,2.2,0,0,1,1.312,1.812,2.156,2.156,0,0,1-.957,1.973l-.229.159a.836.836,0,0,1-.472.147Z" transform="translate(1.444 0)" fill="#25772f"/>
      <path id="Контур_882" data-name="Контур 882" d="M22.668,6.667a.833.833,0,0,1-.474-1.52l.23-.159a.487.487,0,0,0,.241-.457.546.546,0,0,0-.346-.44,2.2,2.2,0,0,1-1.312-1.812A2.156,2.156,0,0,1,21.963.305l.229-.159a.834.834,0,0,1,.947,1.373l-.23.159a.487.487,0,0,0-.241.457.546.546,0,0,0,.346.44,2.2,2.2,0,0,1,1.312,1.812,2.156,2.156,0,0,1-.957,1.973l-.229.159a.836.836,0,0,1-.472.147Z" transform="translate(2.333 0)" fill="#25772f"/>
      <path id="Контур_883" data-name="Контур 883" d="M22.222,12.922V10.989A7.38,7.38,0,0,0,21.745,8.3a2.932,2.932,0,0,1-1.189.256,3.061,3.061,0,0,1-2.178-.933,3.244,3.244,0,0,1-.311.233l-.222.156a3.056,3.056,0,0,1-4.633-3.478A4.465,4.465,0,0,1,12.4,3.011.956.956,0,0,0,12.222,3c-4.811,0-10,2.5-10,7.989v1.933a3.033,3.033,0,0,0,.444,5.933,10.15,10.15,0,0,0,9.556,7.478c5.067,0,8.411-3.756,9.556-7.478a3.033,3.033,0,0,0,.444-5.933ZM20,15.9a7.619,7.619,0,0,1-.2,1.767c-.722,3.111-3.411,6.444-7.578,6.444s-6.856-3.333-7.578-6.433a7.785,7.785,0,0,1-.2-1.778V13.789l.567-.111a10.608,10.608,0,0,0,5.656-3.144,15.984,15.984,0,0,0,7.4,3.067L20,13.878Z" transform="translate(0 0.333)" fill="#25772f"/>
    </g>
  </g>
</svg>
