<svg xmlns="http://www.w3.org/2000/svg" width="16.333" height="16.333" viewBox="0 0 16.333 16.333">
    <defs>
        <style>
            .cls-1{fill:#acacac}
        </style>
    </defs>
    <path id="Path_380" d="M14.9 0H1.436A1.437 1.437 0 0 0 0 1.436V14.9a1.437 1.437 0 0 0 1.436 1.436H14.9a1.437 1.437 0 0 0 1.433-1.436V1.436A1.437 1.437 0 0 0 14.9 0zm-1.119 4.487l-2.526 3.361a.478.478 0 0 1-.67.1 4.032 4.032 0 0 0-4.837 0 .479.479 0 0 1-.67-.1L2.552 4.487a.478.478 0 0 1 .1-.67 9.2 9.2 0 0 1 11.038 0 .478.478 0 0 1 .1.67zm0 0" class="cls-1" data-name="Path 380"/>
</svg>
