<svg xmlns="http://www.w3.org/2000/svg" width="22" height="21.999" viewBox="0 0 22 21.999">
    <defs>
        <style>
            .cls-1{fill:#3ebf4f}
        </style>
    </defs>
    <g id="icon_1_" data-name="icon (1)" transform="translate(0 -.001)">
        <g id="b103_soup" transform="translate(0 .001)">
            <path id="Path_403" d="M18.4 11.761h-4.7a.769.769 0 1 0 0-1.538h-1.92a.769.769 0 1 0 0 1.538h-4.7a2.844 2.844 0 0 0-2.6 2.419H21a2.846 2.846 0 0 0-2.6-2.419z" class="cls-1" data-name="Path 403" transform="translate(-1.683 -3.841)"/>
            <path id="Path_404" d="M19.359 18.545v-.22H0v1.1h2.758v6.817a2.64 2.64 0 0 0 2.64 2.64h11.321a2.639 2.639 0 0 0 2.64-2.64v-6.6H22v-1.1z" class="cls-1" data-name="Path 404" transform="translate(0 -6.884)"/>
            <path id="Path_405" d="M10.989 2.645a3.774 3.774 0 0 0 .244.29l.213.214c.135.135.26.271.36.393a1.788 1.788 0 0 1 .122.167.326.326 0 0 1 .062.139.329.329 0 0 1-.083.217 1.32 1.32 0 0 1-.242.229.777.777 0 0 0 .378.044.665.665 0 0 0 .4-.2.8.8 0 0 0 .2-.484 1.342 1.342 0 0 0-.052-.458 2.411 2.411 0 0 0-.34-.7c-.068-.1-.152-.2-.212-.279s-.116-.143-.166-.215a2.057 2.057 0 0 1-.4-.849A2.122 2.122 0 0 1 11.666 0a1.42 1.42 0 0 0-1.05 1.067 1.707 1.707 0 0 0 .02.851 2.308 2.308 0 0 0 .353.727z" class="cls-1" data-name="Path 405" transform="translate(-3.971 -.001)"/>
            <path id="Path_406" d="M15.558 2.645c.077.1.159.2.244.29l.212.214c.135.135.26.271.362.393.048.061.089.119.121.167a.3.3 0 0 1 .061.139.323.323 0 0 1-.082.217 1.272 1.272 0 0 1-.243.229.785.785 0 0 0 .379.044.664.664 0 0 0 .4-.2.8.8 0 0 0 .2-.484 1.342 1.342 0 0 0-.051-.458 2.446 2.446 0 0 0-.342-.7c-.067-.1-.152-.2-.212-.279S16.5 2.072 16.448 2a2.052 2.052 0 0 1-.405-.849A2.122 2.122 0 0 1 16.233 0a1.418 1.418 0 0 0-1.048 1.07 1.707 1.707 0 0 0 .019.851 2.3 2.3 0 0 0 .354.724z" class="cls-1" data-name="Path 406" transform="translate(-5.687 -.002)"/>
            <path id="Path_407" d="M19.721 2.645a3.63 3.63 0 0 0 .244.29l.213.214c.135.135.259.271.36.393a1.789 1.789 0 0 1 .122.167.342.342 0 0 1 .062.139.325.325 0 0 1-.083.217 1.272 1.272 0 0 1-.243.229.782.782 0 0 0 .378.044.668.668 0 0 0 .406-.2.8.8 0 0 0 .2-.484 1.327 1.327 0 0 0-.051-.458 2.4 2.4 0 0 0-.34-.7c-.068-.1-.152-.2-.212-.279s-.116-.143-.166-.215a2.048 2.048 0 0 1-.4-.849A2.124 2.124 0 0 1 20.4 0a1.418 1.418 0 0 0-1.048 1.067 1.714 1.714 0 0 0 .02.851 2.27 2.27 0 0 0 .349.727z" class="cls-1" data-name="Path 407" transform="translate(-7.251 -.001)"/>
        </g>
    </g>
</svg>
