<svg xmlns="http://www.w3.org/2000/svg" id="calendar_1_" width="16.615" height="16.992" data-name="calendar (1)" viewBox="0 0 16.615 16.992">
    <defs>
        <style>
            .cls-1{fill:#41c752}
        </style>
    </defs>
    <g id="Group_441" data-name="Group 441">
        <path id="Path_393" d="M119.152 258.627a.385.385 0 0 0-.386-.385h-1.346a.385.385 0 0 0-.385.385v1.346a.386.386 0 0 0 .385.386h1.346a.386.386 0 0 0 .386-.386v-1.346z" class="cls-1" data-name="Path 393" transform="translate(-113.15 -249.253)"/>
        <path id="Path_394" d="M215.787 258.627a.385.385 0 0 0-.385-.385h-1.346a.385.385 0 0 0-.385.385v1.346a.386.386 0 0 0 .385.386h1.344a.385.385 0 0 0 .385-.386z" class="cls-1" data-name="Path 394" transform="translate(-206.421 -249.253)"/>
        <path id="Path_395" d="M312.415 258.627a.385.385 0 0 0-.385-.385h-1.346a.385.385 0 0 0-.386.385v1.346a.386.386 0 0 0 .386.386h1.346a.386.386 0 0 0 .385-.386z" class="cls-1" data-name="Path 395" transform="translate(-299.685 -249.253)"/>
        <path id="Path_396" d="M119.152 355.26a.385.385 0 0 0-.386-.385h-1.346a.385.385 0 0 0-.385.385v1.345a.385.385 0 0 0 .385.385h1.346a.385.385 0 0 0 .386-.385v-1.345z" class="cls-1" data-name="Path 396" transform="translate(-113.15 -342.522)"/>
        <path id="Path_397" d="M215.787 355.26a.385.385 0 0 0-.385-.385h-1.346a.385.385 0 0 0-.385.385v1.345a.385.385 0 0 0 .385.385h1.344a.385.385 0 0 0 .385-.385z" class="cls-1" data-name="Path 397" transform="translate(-206.421 -342.522)"/>
        <path id="Path_398" d="M312.415 355.26a.385.385 0 0 0-.385-.385h-1.346a.385.385 0 0 0-.386.385v1.345a.385.385 0 0 0 .386.385h1.346a.385.385 0 0 0 .385-.385v-1.345z" class="cls-1" data-name="Path 398" transform="translate(-299.685 -342.522)"/>
        <path id="Path_399" d="M20.547 54.149V56.2a1.679 1.679 0 0 1-1.683 1.678H17.8a1.687 1.687 0 0 1-1.689-1.678v-2.058h-4.784V56.2a1.687 1.687 0 0 1-1.692 1.678H8.572A1.679 1.679 0 0 1 6.89 56.2v-2.051a1.53 1.53 0 0 0-1.479 1.522v12.046a1.531 1.531 0 0 0 1.523 1.532H20.5a1.532 1.532 0 0 0 1.523-1.532V55.671a1.53 1.53 0 0 0-1.476-1.522zm-.493 12.818a.659.659 0 0 1-.658.658H8.012a.659.659 0 0 1-.658-.658v-6.222a.659.659 0 0 1 .658-.659H19.4a.659.659 0 0 1 .658.659v6.222z" class="cls-1" data-name="Path 399" transform="translate(-5.411 -52.257)"/>
        <path id="Path_400" d="M80.127 4.523h1.05a.577.577 0 0 0 .577-.577V.577A.577.577 0 0 0 81.177 0h-1.05a.577.577 0 0 0-.577.577v3.37a.577.577 0 0 0 .577.576z" class="cls-1" data-name="Path 400" transform="translate(-76.969)"/>
        <path id="Path_401" d="M345.035 4.523h1.05a.577.577 0 0 0 .577-.577V.577a.577.577 0 0 0-.577-.577h-1.05a.577.577 0 0 0-.577.577v3.37a.577.577 0 0 0 .577.576z" class="cls-1" data-name="Path 401" transform="translate(-332.656)"/>
    </g>
</svg>
