<svg xmlns="http://www.w3.org/2000/svg" xmlns:xlink="http://www.w3.org/1999/xlink" width="166.279" height="171.912" viewBox="0 0 166.279 171.912">
  <defs>
    <linearGradient id="linear-gradient" x1="0.5" x2="0.5" y2="1" gradientUnits="objectBoundingBox">
      <stop offset="0" stop-color="#b3ee7e"/>
      <stop offset="1" stop-color="#4dddca"/>
    </linearGradient>
    <linearGradient id="linear-gradient-2" x1="0.5" x2="0.5" y2="1" gradientUnits="objectBoundingBox">
      <stop offset="0" stop-color="#b3ee7e"/>
      <stop offset="1" stop-color="#5ae298"/>
    </linearGradient>
  </defs>
  <g id="Group_477" data-name="Group 477" transform="translate(-196 -380)">
    <g id="Group_420" data-name="Group 420" transform="translate(-25 -79)">
      <g id="Group_419" data-name="Group 419" transform="translate(221 459)">
        <path id="Path_385" data-name="Path 385" d="M296.7,314.587A75.112,75.112,0,1,1,221.587,389.7,75.2,75.2,0,0,1,296.7,314.587m0-4.587a79.7,79.7,0,1,0,79.7,79.7A79.7,79.7,0,0,0,296.7,310Z" transform="translate(-217 -303.743)" fill="#e5fed6"/>
        <path id="Path_386" data-name="Path 386" d="M287,313.718h0a9.172,9.172,0,0,0,8.031,9.1,68.229,68.229,0,0,1,0,135.37,9.172,9.172,0,0,0-8.031,9.1h0a9.209,9.209,0,0,0,10.423,9.1,86.582,86.582,0,0,0,0-171.761A9.209,9.209,0,0,0,287,313.718Z" transform="translate(-206.727 -304.544)" fill="url(#linear-gradient)"/>
      </g>
    </g>
    <circle id="Ellipse_33" data-name="Ellipse 33" cx="4" cy="4" r="4" transform="translate(283 539)" fill="#fff"/>
    <g id="Group_457" data-name="Group 457" transform="translate(0 -2)">
      <g id="volume" transform="translate(243 305)">
        <g id="Group_448" data-name="Group 448" transform="translate(0 128)">
          <g id="Group_447" data-name="Group 447">
            <path id="Path_408" data-name="Path 408" d="M223.979,128h-9.125a1.52,1.52,0,0,0-1.521,1.521v33.458a1.52,1.52,0,0,0,1.521,1.521h9.125a1.52,1.52,0,0,0,1.521-1.521V129.521A1.52,1.52,0,0,0,223.979,128Z" transform="translate(-182.917 -128)" fill="url(#linear-gradient-2)"/>
            <path id="Path_409" data-name="Path 409" d="M330.646,320h-9.125A1.52,1.52,0,0,0,320,321.521V327.6a1.52,1.52,0,0,0,1.521,1.521h9.125a1.52,1.52,0,0,0,1.521-1.521v-6.083A1.52,1.52,0,0,0,330.646,320Z" transform="translate(-274.375 -292.625)" fill="url(#linear-gradient-2)"/>
            <path id="Path_410" data-name="Path 410" d="M437.312,320h-9.125a1.52,1.52,0,0,0-1.521,1.521V327.6a1.52,1.52,0,0,0,1.521,1.521h9.125a1.52,1.52,0,0,0,1.521-1.521v-6.083A1.52,1.52,0,0,0,437.312,320Z" transform="translate(-365.833 -292.625)" fill="url(#linear-gradient-2)"/>
            <path id="Path_411" data-name="Path 411" d="M117.312,192h-9.125a1.52,1.52,0,0,0-1.521,1.521v24.333a1.52,1.52,0,0,0,1.521,1.521h9.125a1.52,1.52,0,0,0,1.521-1.521V193.521A1.52,1.52,0,0,0,117.312,192Z" transform="translate(-91.458 -182.875)" fill="url(#linear-gradient-2)"/>
            <path id="Path_412" data-name="Path 412" d="M10.646,256H1.521A1.52,1.52,0,0,0,0,257.521v15.208a1.52,1.52,0,0,0,1.521,1.521h9.125a1.52,1.52,0,0,0,1.521-1.521V257.521A1.52,1.52,0,0,0,10.646,256Z" transform="translate(0 -237.75)" fill="url(#linear-gradient-2)"/>
          </g>
        </g>
      </g>
    </g>
  </g>
</svg>
