<svg xmlns="http://www.w3.org/2000/svg" width="48" height="48" viewBox="0 0 48 48">
    <defs>
        <style>
            .cls-1{fill:#ddefe2}.cls-2{fill:#25772f}
        </style>
    </defs>
    <g id="main" transform="translate(-67 -763)">
        <g id="Group_5" data-name="Group 5" transform="translate(3 666)">
            <g id="Group_46" data-name="Group 46" transform="translate(35 -56)">
                <g id="Group_235" data-name="Group 235" transform="translate(-16 -605)">
                    <g id="Group_211" data-name="Group 211" transform="translate(0 656)">
                        <g id="Group_206" data-name="Group 206">
                            <circle id="Ellipse_1" cx="24" cy="24" r="24" class="cls-1" data-name="Ellipse 1" transform="translate(45 102)"/>
                        </g>
                    </g>
                </g>
            </g>
        </g>
        <path id="Union_1" d="M-155.8-100.824v-7.558a23.632 23.632 0 0 0-1.3-2.218 4.294 4.294 0 0 1-.578.983 4.5 4.5 0 0 1 .935 2.985 3.943 3.943 0 0 1-3.89 3.932 3.836 3.836 0 0 1-1.934-.528c-1.983-1.154-3.194-3.707-3.407-7.188-.239-3.905.886-8.888 3.488-10.863a3.4 3.4 0 0 1 2.065-.722 3.919 3.919 0 0 1 3.673 4.063 4.5 4.5 0 0 1-.881 2.827 4.4 4.4 0 0 1 .8 1.817 13.356 13.356 0 0 1 1.938 2.8 14.735 14.735 0 0 1 1.825-2.688 4.412 4.412 0 0 1 .818-1.93 4.5 4.5 0 0 1-.881-2.827 3.916 3.916 0 0 1 3.678-4.061 3.431 3.431 0 0 1 2.065.722c2.607 1.975 3.732 6.958 3.5 10.863-.212 3.481-1.423 6.034-3.407 7.188a3.9 3.9 0 0 1-1.934.528 3.943 3.943 0 0 1-3.89-3.932 4.479 4.479 0 0 1 .935-2.985 4.317 4.317 0 0 1-.542-.9 22.255 22.255 0 0 0-1.238 2.151v7.54a.923.923 0 0 1-.922.924.923.923 0 0 1-.916-.923z" class="cls-2" data-name="Union 1" transform="translate(246 898)"/>
    </g>
</svg>
