<svg xmlns="http://www.w3.org/2000/svg" width="48" height="48" viewBox="0 0 48 48">
    <defs>
        <style>
            .cls-1{fill:#ddefe2}.cls-2{fill:#25772f}
        </style>
    </defs>
    <g id="main" transform="translate(-67 -837)">
        <g id="Group_5" data-name="Group 5" transform="translate(3 740)">
            <g id="Group_46" data-name="Group 46" transform="translate(35 -56)">
                <g id="Group_235" data-name="Group 235" transform="translate(-16 -605)">
                    <g id="Group_211" data-name="Group 211" transform="translate(0 656)">
                        <g id="Group_206" data-name="Group 206">
                            <circle id="Ellipse_1" cx="24" cy="24" r="24" class="cls-1" data-name="Ellipse 1" transform="translate(45 102)"/>
                        </g>
                    </g>
                </g>
            </g>
        </g>
        <g id="eye" transform="translate(77.001 733)">
            <g id="Group_9" data-name="Group 9" transform="translate(-.001 121)">
                <g id="Group_8" data-name="Group 8">
                    <path id="Path_10" d="M27.294 127.714C27.049 127.44 21.145 121 13.75 121S.45 127.44.2 127.714a.806.806 0 0 0 0 1.075c.246.274 6.15 6.714 13.545 6.714s13.3-6.44 13.545-6.714a.806.806 0 0 0 .004-1.075zm-13.544 6.177a5.64 5.64 0 1 1 5.64-5.64 5.646 5.646 0 0 1-5.64 5.64z" class="cls-2" data-name="Path 10" transform="translate(.001 -121)"/>
                </g>
            </g>
            <g id="Group_11" data-name="Group 11" transform="translate(9.721 124.223)">
                <g id="Group_10" data-name="Group 10">
                    <path id="Path_11" d="M185.834 183.417a2.409 2.409 0 0 1 1.014-1.962 3.976 3.976 0 0 0-1.82-.455 4.028 4.028 0 1 0 3.96 4.707 2.4 2.4 0 0 1-3.154-2.29z" class="cls-2" data-name="Path 11" transform="translate(-181 -181)"/>
                </g>
            </g>
        </g>
    </g>
</svg>
