<svg xmlns="http://www.w3.org/2000/svg" width="48" height="48" viewBox="0 0 48 48">
    <defs>
        <style>
            .cls-1{fill:#ddefe2}.cls-2{fill:#25772f}
        </style>
    </defs>
    <g id="main" transform="translate(-64 -171)">
        <g id="Group_5" data-name="Group 5" transform="translate(0 74)">
            <g id="Group_46" data-name="Group 46" transform="translate(35 -56)">
                <g id="Group_235" data-name="Group 235" transform="translate(-16 -605)">
                    <g id="Group_211" data-name="Group 211" transform="translate(0 656)">
                        <g id="Group_206" data-name="Group 206">
                            <circle id="Ellipse_1" cx="24" cy="24" r="24" class="cls-1" data-name="Ellipse 1" transform="translate(45 102)"/>
                        </g>
                    </g>
                </g>
            </g>
        </g>
        <g id="heart" transform="translate(79 182)">
            <path id="Path_3" d="M124.746 2.075V0H120v2.06a7.055 7.055 0 0 1 2.373-.425 6.941 6.941 0 0 1 2.373.44zm0 0" class="cls-2" data-name="Path 3" transform="translate(-113.672)"/>
            <path id="Path_4" d="M74.223 63.8a9.027 9.027 0 0 1 4.248 1.833 4.46 4.46 0 0 1 4.217-3.053h.157a5.469 5.469 0 0 0-8.622 1.22zm0 0" class="cls-2" data-name="Path 4" transform="translate(-70.309 -57.784)"/>
            <path id="Path_5" d="M9.492 123.938a4.461 4.461 0 0 1-3.055 4.187l-2.232.744-.5-1.5 2.232-.744a2.857 2.857 0 0 0 1.9-2.277 6.952 6.952 0 0 0-4.8-2.19 1.748 1.748 0 0 0-1.317.73A10.322 10.322 0 0 0 0 128.91c0 5.974 3.721 12.709 8.7 12.709s8.7-6.735 8.7-12.709a11.047 11.047 0 0 0-.973-4.746h-2.98a.8.8 0 0 0-.791.824 9.639 9.639 0 0 1-4.3 8l-.8.531-.878-1.316 1.048-.7a8.112 8.112 0 0 0 3.348-6.647 2.376 2.376 0 0 1 2.371-2.279H17.4V121h-5.021a2.916 2.916 0 0 0-2.887 2.938zm0 0" class="cls-2" data-name="Path 5" transform="translate(0 -114.619)"/>
        </g>
    </g>
</svg>
