<svg xmlns="http://www.w3.org/2000/svg" width="48" height="48" viewBox="0 0 48 48">
    <defs>
        <style>
            .cls-1{fill:#ddefe2}.cls-2{fill:#25772f}
        </style>
    </defs>
    <g id="main" transform="translate(-64 -245)">
        <g id="Group_5" data-name="Group 5" transform="translate(0 148)">
            <g id="Group_46" data-name="Group 46" transform="translate(35 -56)">
                <g id="Group_235" data-name="Group 235" transform="translate(-16 -605)">
                    <g id="Group_211" data-name="Group 211" transform="translate(0 656)">
                        <g id="Group_206" data-name="Group 206">
                            <circle id="Ellipse_1" cx="24" cy="24" r="24" class="cls-1" data-name="Ellipse 1" transform="translate(45 102)"/>
                        </g>
                    </g>
                </g>
            </g>
        </g>
        <path id="human-liver" d="M16.995 28.69a4.4 4.4 0 0 1-2.15 3.27c-3.291 1.981-8.962 5.4-9.975 6.046a2.029 2.029 0 0 1-1.086.335c-1.246 0-2.087-1.233-2.142-3.14a18.1 18.1 0 0 0-.718-4.347 33.677 33.677 0 0 1-.769-3.619c-.2-1.345-.643-5.967 2.168-8.966 1.614-1.723 4.03-2.6 7.183-2.6.14 0 .282 0 .426.005a6.513 6.513 0 0 1 4.84 1.965c2.701 2.867 2.552 8.154 2.223 11.051zm9.666-8.952c-1.5-1.88-8.1-1.933-8.161-1.933-.5 0-.639.021-.786.12a.908.908 0 0 0-.305.37.553.553 0 0 0-.008.471c1.324 2.936 1.245 6.757 1.079 8.772a4.314 4.314 0 0 1-.115.687.553.553 0 0 0 .471.683 1.335 1.335 0 0 0 .155.009c1.418 0 3.847-2.331 4.557-3.046 1.443-1.45 3.1-3.491 3.413-4.87a1.45 1.45 0 0 0-.3-1.263z" class="cls-2" transform="translate(75 243.328)"/>
    </g>
</svg>
