<svg xmlns="http://www.w3.org/2000/svg" width="48" height="48" viewBox="0 0 48 48">
    <defs>
        <style>
            .cls-1{fill:#ddefe2}.cls-2{fill:#25772f}
        </style>
    </defs>
    <g id="main" transform="translate(-64 -319)">
        <g id="Group_5" data-name="Group 5" transform="translate(0 222)">
            <g id="Group_46" data-name="Group 46" transform="translate(35 -56)">
                <g id="Group_235" data-name="Group 235" transform="translate(-16 -605)">
                    <g id="Group_211" data-name="Group 211" transform="translate(0 656)">
                        <g id="Group_206" data-name="Group 206">
                            <circle id="Ellipse_1" cx="24" cy="24" r="24" class="cls-1" data-name="Ellipse 1" transform="translate(45 102)"/>
                        </g>
                    </g>
                </g>
            </g>
        </g>
        <path id="surface1_8_" d="M16.629 3.717a1.873 1.873 0 0 0-2.441 1.036c-.006.014-.01.032-.016.046a3.715 3.715 0 0 0-.419-.222 4.221 4.221 0 0 0-5.492 2.332 4.088 4.088 0 0 0-.274 1.249 4.679 4.679 0 0 0-2.919 7.225 4.087 4.087 0 0 0-.67 1.088 4.206 4.206 0 0 0 1.954 5.292 2.342 2.342 0 0 0 4.466 1.345l.176-.436a1.879 1.879 0 0 0-1.036-2.44.937.937 0 1 1 .7-1.738 3.694 3.694 0 0 1 1.542 1.188l3.017-7.467a4.6 4.6 0 0 1-2.97-.155.937.937 0 1 1 .7-1.738 2.82 2.82 0 0 0 3.661-1.556l1.053-2.607a1.875 1.875 0 0 0-1.032-2.442zm5.215 2.107A1.873 1.873 0 0 0 19.4 6.86l-1.05 2.608a2.818 2.818 0 0 0 1.55 3.662.937.937 0 0 1-.7 1.738 4.593 4.593 0 0 1-2.246-1.947l-4.4 10.89a2.34 2.34 0 0 0 4.146 2.133 4.2 4.2 0 0 0 5.015-2.32 5.607 5.607 0 0 1-1.847-.4.937.937 0 1 1 .7-1.738 3.752 3.752 0 0 0 4.881-2.072 4.667 4.667 0 0 0-.475-4.394 4.153 4.153 0 0 0 .668-1.089 4.219 4.219 0 0 0-2.329-5.492 3.719 3.719 0 0 0-.458-.132c.006-.014.017-.029.022-.044a1.875 1.875 0 0 0-1.033-2.439z" class="cls-2" data-name="surface1 (8)" transform="rotate(-23 856.231 .738)"/>
    </g>
</svg>
