<svg xmlns="http://www.w3.org/2000/svg" width="48" height="48" viewBox="0 0 48 48">
    <defs>
        <style>
            .cls-1{fill:#ddefe2}.cls-2{fill:#25772f}
        </style>
    </defs>
    <g id="main" transform="translate(-67 -393)">
        <g id="Group_5" data-name="Group 5" transform="translate(3 296)">
            <g id="Group_46" data-name="Group 46" transform="translate(35 -56)">
                <g id="Group_235" data-name="Group 235" transform="translate(-16 -605)">
                    <g id="Group_211" data-name="Group 211" transform="translate(0 656)">
                        <g id="Group_206" data-name="Group 206">
                            <circle id="Ellipse_1" cx="24" cy="24" r="24" class="cls-1" data-name="Ellipse 1" transform="translate(45 102)"/>
                        </g>
                    </g>
                </g>
            </g>
        </g>
        <path id="stomach" d="M22.942 16.082c-.967-3.905-4.149-3.987-5.859-4.031a6.819 6.819 0 0 1-.865-.051c-1.022-.18-1.592-.885-1.741-2.153L14.319 8.5a.485.485 0 0 0-.463-.428l-2.02-.079a.486.486 0 0 0-.5.492 12.972 12.972 0 0 0 1.287 5.3c.658 1.206 1.91 4.223-.661 6.195a5.273 5.273 0 0 1-3.269 1.318 8.867 8.867 0 0 1-2.43-.449 5.138 5.138 0 0 0-1.421-.2 4.4 4.4 0 0 0-4.2 2.464A5.819 5.819 0 0 0 .009 25.7a.486.486 0 0 0 .48.414h2.06a.485.485 0 0 0 .485-.485c0-.05.021-1.218 1.812-1.218.818 0 1.036.392 1.45 1.278a4.484 4.484 0 0 0 2.442 2.605 11.081 11.081 0 0 0 4.29 1.032 8.539 8.539 0 0 0 5.514-2.214c4.041-3.333 5.439-6.837 4.4-11.03z" class="cls-2" transform="translate(79 398.01)"/>
    </g>
</svg>
