<svg xmlns="http://www.w3.org/2000/svg" width="48" height="48" viewBox="0 0 48 48">
    <defs>
        <style>
            .cls-1{fill:#ddefe2}.cls-2{fill:#25772f}
        </style>
    </defs>
    <g id="main" transform="translate(-67 -467)">
        <g id="Group_5" data-name="Group 5" transform="translate(3 370)">
            <g id="Group_46" data-name="Group 46" transform="translate(35 -56)">
                <g id="Group_235" data-name="Group 235" transform="translate(-16 -605)">
                    <g id="Group_211" data-name="Group 211" transform="translate(0 656)">
                        <g id="Group_206" data-name="Group 206">
                            <circle id="Ellipse_1" cx="24" cy="24" r="24" class="cls-1" data-name="Ellipse 1" transform="translate(45 102)"/>
                        </g>
                    </g>
                </g>
            </g>
        </g>
        <g id="NewGroupe0" transform="translate(-112.493 344)">
            <g id="NewGroup91-0" transform="translate(193.493 136)">
                <g id="Group_7" data-name="Group 7">
                    <path id="Path_6" d="M209.655 151.32a5.419 5.419 0 0 1-3.712 1.994.081.081 0 0 1-.086-.077 68.976 68.976 0 0 1 .205-7.774.08.08 0 0 1 .068-.073c1.653-.256 3.433-.9 4.214-2.407a1.011 1.011 0 0 1 .778-.568.948.948 0 0 1 .1-.005.4.4 0 0 1 .336.136 2.523 2.523 0 0 1 .469 1.392 10.248 10.248 0 0 1-2.37 7.383zm-12.533 0a10.248 10.248 0 0 1-2.37-7.383 2.523 2.523 0 0 1 .469-1.392.4.4 0 0 1 .336-.136.948.948 0 0 1 .1.005 1.011 1.011 0 0 1 .778.568c.775 1.5 2.537 2.143 4.181 2.4a.08.08 0 0 1 .068.073c.082 1.087.15 2.207.193 3.321a.08.08 0 0 0 .08.077h1.475a.824.824 0 0 1 .824.825.824.824 0 0 1-.824.824H201a.08.08 0 0 0-.08.081c.011.905 0 1.794-.034 2.647a.081.081 0 0 1-.087.077 5.427 5.427 0 0 1-3.679-1.992zM211 141.214a2.215 2.215 0 0 0-1.728 1.215 4.082 4.082 0 0 1-3 1.712.081.081 0 0 1-.095-.087c.036-.4.072-.8.11-1.183a.08.08 0 0 0-.08-.088h-.791a.824.824 0 0 1-.824-.824.824.824 0 0 1 .824-.824h.981a.081.081 0 0 0 .08-.072c.293-2.6.586-4.535.654-4.97a.08.08 0 0 0-.08-.093h-7.36a.08.08 0 0 0-.079.093c.032.207.116.755.226 1.552a.081.081 0 0 0 .08.07h2.512a.824.824 0 0 1 .824.824.824.824 0 0 1-.824.824h-2.275a.08.08 0 0 0-.08.09c.162 1.3.339 2.885.49 4.594a.081.081 0 0 1-.1.087 4.054 4.054 0 0 1-2.966-1.706 2.215 2.215 0 0 0-1.728-1.215c-.906-.092-1.935.335-2.223 2.568-.513 3.989 2.15 10.346 7.175 10.733a.081.081 0 0 1 .074.087 14.861 14.861 0 0 1-.857 4.286.08.08 0 0 0 .075.112l3.349-.039 3.349.039a.081.081 0 0 0 .076-.111 8.043 8.043 0 0 1-.282-.81.08.08 0 0 0-.077-.058h-1.286a.824.824 0 0 1-.825-.824.824.824 0 0 1 .824-.824h.9a.08.08 0 0 0 .079-.092c-.08-.528-.143-1.09-.191-1.676a.081.081 0 0 1 .075-.087c5.046-.362 7.722-6.738 7.208-10.735-.287-2.233-1.316-2.661-2.223-2.568z" class="cls-2" data-name="Path 6" transform="translate(-193.493 -136)"/>
                </g>
            </g>
        </g>
    </g>
</svg>
