<svg xmlns="http://www.w3.org/2000/svg" width="48" height="48" viewBox="0 0 48 48">
    <defs>
        <style>
            .cls-1{fill:#ddefe2}.cls-2{fill:#25772f;stroke:#25772f}
        </style>
    </defs>
    <g id="main" transform="translate(-67 -541)">
        <g id="Group_5" data-name="Group 5" transform="translate(3 444)">
            <g id="Group_46" data-name="Group 46" transform="translate(35 -56)">
                <g id="Group_235" data-name="Group 235" transform="translate(-16 -605)">
                    <g id="Group_211" data-name="Group 211" transform="translate(0 656)">
                        <g id="Group_206" data-name="Group 206">
                            <circle id="Ellipse_1" cx="24" cy="24" r="24" class="cls-1" data-name="Ellipse 1" transform="translate(45 102)"/>
                        </g>
                    </g>
                </g>
            </g>
        </g>
        <path id="mars" d="M20.489.744a.846.846 0 0 0-.053-.211.026.026 0 0 1 0-.006.869.869 0 0 0-.116-.193c-.013-.015-.02-.029-.036-.042a.871.871 0 0 0-.163-.147h-.005a.841.841 0 0 0-.194-.095L19.87.034A.851.851 0 0 0 19.646 0h-5.979a.854.854 0 1 0 0 1.708h3.917l-5.1 5.1a7.692 7.692 0 1 0 1.208 1.208l5.1-5.1v3.917a.854.854 0 0 0 1.708 0V.854c0-.018 0-.035-.005-.053s0-.038-.006-.058zM7.688 18.792a5.983 5.983 0 1 1 5.979-5.979 5.986 5.986 0 0 1-5.979 5.979zm0 0" class="cls-2" transform="translate(80.5 554.5)"/>
    </g>
</svg>
