<svg xmlns="http://www.w3.org/2000/svg" width="48" height="48" viewBox="0 0 48 48">
  <g id="Сгруппировать_846" data-name="Сгруппировать 846" transform="translate(-161 -1868)">
    <g id="Group_46" data-name="Group 46" transform="translate(132 1715)">
      <g id="Group_235" data-name="Group 235" transform="translate(-16 -605)">
        <g id="Group_211" data-name="Group 211" transform="translate(0 656)">
          <g id="Group_206" data-name="Group 206">
            <circle id="Ellipse_1" data-name="Ellipse 1" cx="24" cy="24" r="24" transform="translate(45 102)" fill="#ddefe2"/>
          </g>
        </g>
      </g>
    </g>
    <g id="virus" transform="translate(171 1873.947)">
      <g id="XMLID_107_" transform="translate(0 4.053)">
        <g id="Сгруппировать_785" data-name="Сгруппировать 785" transform="translate(0 0)">
          <path id="Контур_37" data-name="Контур 37" d="M28.468,16.863a2.449,2.449,0,0,1-2.114,2.668,2.255,2.255,0,0,1-2.26-1.328l-1.154.1-.871.42a.658.658,0,0,0-.364.5,7.682,7.682,0,0,1-.439,1.7.654.654,0,0,0,.038.557l.31.555.863.579a1.551,1.551,0,1,1-.98,1.663l-.956-.641-.6-.073a.693.693,0,0,0-.563.19,7.787,7.787,0,0,1-1.7,1.232.685.685,0,0,0-.359.563l-.076,1.219.378,1.5a1.927,1.927,0,1,1-1.866.48l-.38-1.51-.587-.944a.86.86,0,0,0-.735-.4h0a7.782,7.782,0,0,1-1.5-.147.858.858,0,0,0-.792.249l-.776.819-.869,1.8A1.551,1.551,0,1,1,8.36,27.79l.874-1.814.172-1.217a.647.647,0,0,0-.231-.593,7.81,7.81,0,0,1-1.757-2.014.645.645,0,0,0-.547-.309l-1.215-.012-1.33.418a2.17,2.17,0,1,1-.66-1.812l1.412-.444,1.031-.735a.531.531,0,0,0,.22-.478Q6.3,18.47,6.3,18.153a7.693,7.693,0,0,1,.7-3.222A.529.529,0,0,0,7,14.479L6.7,13.854l-.829-.626a1.551,1.551,0,1,1,1.071-1.606l.919.693.926.165a7.758,7.758,0,0,1,2.323-1.489l.217-1.321-.274-1.365A2.224,2.224,0,0,1,9.4,6.646,2.173,2.173,0,0,1,11.2,4.1a2.3,2.3,0,0,1,2.706,1.7A2.11,2.11,0,0,1,12.952,8l.259,1.287.636,1.016a.228.228,0,0,0,.193.106h0a7.687,7.687,0,0,1,3.987,1.11.224.224,0,0,0,.21.012l1-.462L20.4,9.814a1.551,1.551,0,1,1,1.415,1.308l-1.164,1.259L20.273,13.4a.225.225,0,0,0,.029.21,7.7,7.7,0,0,1,1.078,2.085.661.661,0,0,0,.445.427l.946.265L24,16.277a2.376,2.376,0,0,1,1.979-1.62,2.316,2.316,0,0,1,2.489,2.206Z" transform="translate(0 -4.053)" fill="#25772f"/>
        </g>
      </g>
      <g id="Сгруппировать_787" data-name="Сгруппировать 787" transform="translate(10.802 15.092)">
        <circle id="Эллипс_12" data-name="Эллипс 12" cx="1.48" cy="1.48" r="1.48" transform="translate(0 0)" fill="#25772f"/>
        <circle id="Эллипс_13" data-name="Эллипс 13" cx="1.008" cy="1.008" r="1.008" transform="translate(1.661 5.071)" fill="#25772f"/>
        <circle id="Эллипс_14" data-name="Эллипс 14" cx="0.846" cy="0.846" r="0.846" transform="translate(4.986 2.215)" fill="#25772f"/>
      </g>
    </g>
  </g>
</svg>
