<svg xmlns="http://www.w3.org/2000/svg" width="48" height="48" viewBox="0 0 48 48">
  <g id="Сгруппировать_848" data-name="Сгруппировать 848" transform="translate(-752 -1868)">
    <g id="Group_46" data-name="Group 46" transform="translate(723 1715)">
      <g id="Group_235" data-name="Group 235" transform="translate(-16 -605)">
        <g id="Group_211" data-name="Group 211" transform="translate(0 656)">
          <g id="Group_206" data-name="Group 206">
            <circle id="Ellipse_1" data-name="Ellipse 1" cx="24" cy="24" r="24" transform="translate(45 102)" fill="#ddefe2"/>
          </g>
        </g>
      </g>
    </g>
    <g id="intestine" transform="translate(765 1881)">
      <g id="Сгруппировать_16" data-name="Сгруппировать 16" transform="translate(0)">
        <path id="Контур_27" data-name="Контур 27" d="M21.722,4.512A3.12,3.12,0,0,0,22,3.223,3.227,3.227,0,0,0,18.777,0a3.12,3.12,0,0,0-1.289.278,3.238,3.238,0,0,0-3.263.38A3.161,3.161,0,0,0,11,.278a3.161,3.161,0,0,0-3.226.38,3.229,3.229,0,0,0-4.538.63H3.223A3.211,3.211,0,0,0,.656,6.445a3.178,3.178,0,0,0,0,3.867,3.178,3.178,0,0,0,0,3.867,3.192,3.192,0,0,0,.633,4.5v2.677A.645.645,0,0,0,1.934,22H4.512a.645.645,0,0,0,.645-.645V18.678a3.191,3.191,0,0,0,.633-4.5,3.178,3.178,0,0,0,0-3.867,3.178,3.178,0,0,0,0-3.867H5.8a3.331,3.331,0,0,0,1.974-.659A3.161,3.161,0,0,0,11,6.167a3.161,3.161,0,0,0,3.226-.38,3.349,3.349,0,0,0,1.385.6,3.215,3.215,0,0,0,.6,1.344,3.178,3.178,0,0,0-.568,2.673,3.151,3.151,0,0,0-2.065.184,3.12,3.12,0,0,0-1.289-.278,3.227,3.227,0,0,0-3.223,3.223,3.165,3.165,0,0,0,.437,1.6A5.924,5.924,0,0,0,9.066,17.4c0,2.145,1.174,4.6,3.223,4.6s3.223-2.464,3.223-4.6a5.85,5.85,0,0,0-.042-.7,3.345,3.345,0,0,0,1.371-.6,3.211,3.211,0,0,0,4.5-4.5,3.178,3.178,0,0,0,0-3.867A3.161,3.161,0,0,0,21.722,4.512Zm-18.5,8.379a.645.645,0,1,1,.645-.645A.645.645,0,0,1,3.223,12.891Zm0-7.734a.645.645,0,1,1,.645-.645A.645.645,0,0,1,3.223,5.156Zm9.066,9.023a.645.645,0,1,1,.645-.645A.645.645,0,0,1,12.289,14.18Zm5.2-10.312a.645.645,0,1,1,.645-.645A.645.645,0,0,1,17.488,3.867Zm1.289,6.445a.645.645,0,1,1,.645-.645A.645.645,0,0,1,18.777,10.313Z" transform="translate(0)" fill="#25772f"/>
      </g>
    </g>
  </g>
</svg>
