<svg xmlns="http://www.w3.org/2000/svg" width="73" height="73" viewBox="0 0 73 73">
  <g id="Сгруппировать_222" data-name="Сгруппировать 222" transform="translate(-348 -1025)">
    <circle id="Эллипс_16" data-name="Эллипс 16" cx="36.5" cy="36.5" r="36.5" transform="translate(348 1025)" fill="#e3fcec"/>
    <g id="chef" transform="translate(353.167 1044.243)">
      <g id="Сгруппировать_219" data-name="Сгруппировать 219" transform="translate(14.945 0)">
        <g id="Сгруппировать_218" data-name="Сгруппировать 218" transform="translate(0)">
          <path id="Контур_46" data-name="Контур 46" d="M39.361,3.972a7.471,7.471,0,0,0-1.761.209,7.476,7.476,0,0,0-13.422,0,7.473,7.473,0,1,0-2.753,14.67v9.058h5.648V17.924h1.984v9.985h3.664V17.924h1.984v9.985h5.648V18.851a7.473,7.473,0,0,0-.992-14.879Z" transform="translate(-14.945 0)" fill="#41c752"/>
        </g>
      </g>
      <g id="Сгруппировать_221" data-name="Сгруппировать 221" transform="translate(21.425 29.893)">
        <g id="Сгруппировать_220" data-name="Сгруппировать 220">
          <rect id="Прямоугольник_237" data-name="Прямоугольник 237" width="18.928" height="3.972" fill="#41c752"/>
        </g>
      </g>
    </g>
  </g>
</svg>
