<svg xmlns="http://www.w3.org/2000/svg" width="73" height="73" viewBox="0 0 73 73">
  <g id="Сгруппировать_223" data-name="Сгруппировать 223" transform="translate(-684 -1025)">
    <circle id="Эллипс_17" data-name="Эллипс 17" cx="36.5" cy="36.5" r="36.5" transform="translate(684 1025)" fill="#e3fcec"/>
    <path id="Icon_ionic-ios-heart-half" data-name="Icon ionic-ios-heart-half" d="M26.679,3.938H26.6A8.722,8.722,0,0,0,19.32,7.924a8.722,8.722,0,0,0-7.283-3.986h-.077A8.667,8.667,0,0,0,3.375,12.6,18.66,18.66,0,0,0,7.039,22.773C11.654,29.082,19.32,34.6,19.32,34.6S26.986,29.082,31.6,22.773A18.66,18.66,0,0,0,35.265,12.6,8.667,8.667,0,0,0,26.679,3.938Zm3.189,17.57a56.731,56.731,0,0,1-9.552,9.605.612.612,0,0,1-1-.475V14.869A10.411,10.411,0,0,1,21.106,9.12c.008-.008.008-.015.015-.015a6.765,6.765,0,0,1,2.33-2.185A6.427,6.427,0,0,1,26.6,6.092h.069A6.5,6.5,0,0,1,33.126,12.6,16.663,16.663,0,0,1,29.868,21.508Z" transform="translate(701.625 1045.063)" fill="#41c752"/>
  </g>
</svg>
