<svg xmlns="http://www.w3.org/2000/svg" width="73" height="73" viewBox="0 0 73 73">
  <g id="Сгруппировать_224" data-name="Сгруппировать 224" transform="translate(-1016 -1025)">
    <circle id="Эллипс_17" data-name="Эллипс 17" cx="36.5" cy="36.5" r="36.5" transform="translate(1016 1025)" fill="#e3fcec"/>
    <path id="Icon_map-health" data-name="Icon map-health" d="M29.22,10.22a.6.6,0,0,0-.594-.594H20.907a.6.6,0,0,1-.594-.594V1.314A.6.6,0,0,0,19.72.72h-9.5a.6.6,0,0,0-.594.594V9.032a.6.6,0,0,1-.594.594H1.314a.6.6,0,0,0-.594.594v9.5a.6.6,0,0,0,.594.594H9.032a.6.6,0,0,1,.594.594v7.719a.6.6,0,0,0,.594.594h9.5a.6.6,0,0,0,.594-.594V20.907a.6.6,0,0,1,.594-.594h7.719a.6.6,0,0,0,.594-.594Z" transform="translate(1037.28 1046.28)" fill="#41c752"/>
  </g>
</svg>
