<svg xmlns="http://www.w3.org/2000/svg" xmlns:xlink="http://www.w3.org/1999/xlink" width="38" height="38" viewBox="0 0 38 38">
  <defs>
    <linearGradient id="linear-gradient" x1="0.5" x2="0.5" y2="1" gradientUnits="objectBoundingBox">
      <stop offset="0" stop-color="#fc0"/>
      <stop offset="1" stop-color="#f3a42a"/>
    </linearGradient>
  </defs>
  <g id="Сгруппировать_204" data-name="Сгруппировать 204" transform="translate(-264 -2157)">
    <circle id="Эллипс_18" data-name="Эллипс 18" cx="19" cy="19" r="19" transform="translate(264 2157)" fill="#fff"/>
    <path id="Vector" d="M12.42.667a1.283,1.283,0,0,0-1.112.629l-.492.818a1.567,1.567,0,0,1-.953.7.077.077,0,0,1-.015.006,1.58,1.58,0,0,1-1.189-.127l-.837-.462A1.3,1.3,0,0,0,5.894,3.344l-.013.966A1.6,1.6,0,0,1,5.4,5.392L5.394,5.4a1.585,1.585,0,0,1-1.082.481l-.966.013A1.3,1.3,0,0,0,2.234,7.819l.462.842a1.562,1.562,0,0,1,.127,1.179.082.082,0,0,0-.006.021,1.573,1.573,0,0,1-.691.949L1.3,11.3a1.3,1.3,0,0,0,0,2.228l.826.494a1.565,1.565,0,0,1,.691.951c0,.006,0,.011.006.017A1.573,1.573,0,0,1,2.7,16.174l-.462.839a1.3,1.3,0,0,0,1.112,1.928l.966.015a1.6,1.6,0,0,1,1.082.481l.006.009a1.571,1.571,0,0,1,.481,1.078l.013.964A1.3,1.3,0,0,0,7.822,22.6l.842-.466a1.549,1.549,0,0,1,1.179-.125.079.079,0,0,0,.021.006,1.568,1.568,0,0,1,.949.693l.492.822a1.3,1.3,0,0,0,2.228,0l.494-.822a1.563,1.563,0,0,1,.947-.693.079.079,0,0,0,.021-.006,1.564,1.564,0,0,1,1.183.125l.837.466a1.3,1.3,0,0,0,1.928-1.116l.017-.964a1.557,1.557,0,0,1,.477-1.078l.006-.009a1.575,1.575,0,0,1,1.08-.481l.968-.015A1.3,1.3,0,0,0,22.6,17.014l-.466-.839a1.587,1.587,0,0,1-.122-1.181c0-.006.006-.013.009-.019a1.572,1.572,0,0,1,.693-.951l.818-.489a1.3,1.3,0,0,0,0-2.233l-.82-.492a1.581,1.581,0,0,1-.7-.949c0-.006,0-.015,0-.021a1.572,1.572,0,0,1,.12-1.179l.466-.842a1.3,1.3,0,0,0-1.112-1.928l-.968-.013A1.571,1.571,0,0,1,19.448,5.4l-.009-.006a1.576,1.576,0,0,1-.481-1.082l-.015-.966a1.3,1.3,0,0,0-1.928-1.112l-.839.462A1.565,1.565,0,0,1,15,2.82a.068.068,0,0,0-.019-.006,1.577,1.577,0,0,1-.951-.691L13.536,1.3A1.3,1.3,0,0,0,12.42.667ZM9.344,7.39A2.269,2.269,0,0,1,11.7,9.865a2.275,2.275,0,0,1-2.353,2.477A2.277,2.277,0,0,1,7,9.865,2.271,2.271,0,0,1,9.344,7.39Zm5.113.24h2.209L13.008,12.68,10.445,17.2H8.227l3.6-5.023ZM9.344,8.816c-.4,0-.648.384-.648,1.045s.247,1.041.648,1.041.646-.391.646-1.041S9.758,8.816,9.344,8.816ZM15.5,12.491a2.267,2.267,0,0,1,2.344,2.473A2.271,2.271,0,0,1,15.5,17.445a2.27,2.27,0,0,1-2.34-2.482A2.266,2.266,0,0,1,15.5,12.491Zm0,1.43c-.4,0-.65.386-.65,1.043S15.1,16,15.5,16s.646-.393.646-1.041C16.145,14.3,15.9,13.92,15.5,13.92Z" transform="translate(270.333 2163.333)" fill="url(#linear-gradient)"/>
  </g>
</svg>
