<svg id="Сгруппировать_194" data-name="Сгруппировать 194" xmlns="http://www.w3.org/2000/svg" width="153" height="31.601" viewBox="0 0 153 31.601">
  <path id="Контур_37" data-name="Контур 37" d="M462.236,775.818a2.745,2.745,0,1,1-5.491,0V763H454v12.818a5.491,5.491,0,1,0,10.981,0V763h-2.745Z" transform="translate(-429.636 -760.582)" fill="#ff9b00"/>
  <path id="Контур_38" data-name="Контур 38" d="M760.04,762.094a5.509,5.509,0,0,0-5.491,5.528v2.1H752v2.745h2.549v7.648h2.745v-7.648h5.491v7.648h2.745V767.622A5.509,5.509,0,0,0,760.04,762.094Zm2.745,7.629h-5.491v-2.1a2.745,2.745,0,1,1,5.491,0Z" transform="translate(-669.201 -759.854)" fill="#ff9b00"/>
  <path id="Контур_39" data-name="Контур 39" d="M543.227,750.671a3.969,3.969,0,0,0-3.991,3.784v10.094L534,753.089h-3v17.844h2.745v-11l5.911,11h2.325V754.455a1.263,1.263,0,0,1,2.484.006h2.754A4.066,4.066,0,0,0,543.227,750.671Z" transform="translate(-491.537 -750.671)" fill="#ff9b00"/>
  <path id="Контур_40" data-name="Контур 40" d="M649.758,771.453a5.163,5.163,0,0,0,1.268-3.4A5.037,5.037,0,0,0,646.038,763h-6.47v17.844h2.941v-15.1h3.529a2.308,2.308,0,0,1,2.234,2.333,2.359,2.359,0,0,1-2.234,2.373h-2.156V773.2h2.156a3.73,3.73,0,0,1,1.332.223c.1.039.2.071.306.112a8.247,8.247,0,1,1-11.314,7.7h-2.754a10.988,10.988,0,0,0,21.977-.061A10.97,10.97,0,0,0,649.758,771.453Z" transform="translate(-574.024 -760.582)" fill="#ff9b00"/>
  <path id="Контур_41" data-name="Контур 41" d="M1056.728,763H1049v2.549h4.51v15.3h2.745v-15.3h4.706V763Z" transform="translate(-907.962 -760.582)" fill="#ff9b00"/>
  <path id="Контур_42" data-name="Контур 42" d="M984,780.844h9.608V778.3h-6.863V773h4.9v-2.549h-4.9v-4.9h6.863V763H984Z" transform="translate(-855.707 -760.582)" fill="#ff9b00"/>
  <path id="Контур_43" data-name="Контур 43" d="M349.281,772.843a11.817,11.817,0,0,0-2.568-2.176c-.655-.428-1.337-.819-2.017-1.2-1.323-.749-3.516-1.862-3.23-3.73a2.594,2.594,0,0,1,2.762-2.01,4.222,4.222,0,0,1,3.146,2.774l2.6-.9a7.077,7.077,0,0,0-5.533-4.628,5.351,5.351,0,0,0-5.7,4.344c-.781,5.106,5.534,6.184,8.258,9.106a6.4,6.4,0,0,1,2.078,4.1,8.32,8.32,0,0,1-13.555,7.253,8.087,8.087,0,0,1-3-5.534,4.013,4.013,0,0,1-.083-.662h-2.654a2.58,2.58,0,0,0-.009.88,11.065,11.065,0,0,0,11.95,9.925c.053,0,.107-.013.161-.018a11.078,11.078,0,0,0,9.93-12.114A9.057,9.057,0,0,0,349.281,772.843Z" transform="translate(-329.75 -758.93)" fill="#ff9b00"/>
  <path id="Контур_44" data-name="Контур 44" d="M917.607,771.837,923.748,764h-3.356l-4.648,5.914V764H913v17.844h2.745v-7.737l.05,0,5.1,7.733h3.279Z" transform="translate(-798.63 -761.386)" fill="#ff9b00"/>
  <path id="Контур_45" data-name="Контур 45" d="M846.544,771.2c-.571-.361-1.137-.732-1.713-1.086a5.033,5.033,0,0,1-2.288-2,2.051,2.051,0,0,1,.974-2.435c1.655-.844,3.187.914,3.808,2.272l.012.027,2.423-1.178-.012-.026c-.927-2.05-2.924-4.119-5.3-4.119-.1,0-.206,0-.309.012a4.7,4.7,0,0,0-4.383,4.459,4.638,4.638,0,0,0,2.311,4.482l3.088,1.962a3.845,3.845,0,0,1,1.942,2.179,2.255,2.255,0,0,1-1.59,2.362,2.84,2.84,0,0,1-2.749-.8,6.085,6.085,0,0,1-1.121-1.427l-.014-.026-2.339,1.347.013.024a6.449,6.449,0,0,0,5.519,3.744,4.643,4.643,0,0,0,1.523-.249,5.28,5.28,0,0,0,3.511-4.453C850,773.366,847.4,771.738,846.544,771.2Z" transform="translate(-739.371 -760.309)" fill="#ff9b00"/>
</svg>
