<svg xmlns="http://www.w3.org/2000/svg" width="48" height="48" viewBox="0 0 48 48">
  <g id="Group_782" data-name="Group 782" transform="translate(-368 -371)">
    <g id="Group_46" data-name="Group 46" transform="translate(339 218)">
      <g id="Group_235" data-name="Group 235" transform="translate(-16 -605)">
        <g id="Group_211" data-name="Group 211" transform="translate(0 656)">
          <g id="Group_206" data-name="Group 206">
            <circle id="Ellipse_1" data-name="Ellipse 1" cx="24" cy="24" r="24" transform="translate(45 102)" fill="#ddefe2"/>
          </g>
        </g>
      </g>
    </g>
    <g id="noun_Alzheimer_2686167" transform="translate(371.917 376.846)">
      <g id="Layer_5" data-name="Layer 5" transform="translate(9.083 7.154)">
        <rect id="Rectangle_1" data-name="Rectangle 1" width="0.003" height="0.007" transform="translate(13.427 3.929)" fill="#25772f"/>
        <rect id="Rectangle_2" data-name="Rectangle 2" width="1.983" height="1.983" transform="translate(16.388 3.268)" fill="#25772f"/>
        <rect id="Rectangle_3" data-name="Rectangle 3" width="1.983" height="1.983" transform="translate(19.268 5.202)" fill="#25772f"/>
        <rect id="Rectangle_4" data-name="Rectangle 4" width="1.983" height="1.983" transform="translate(17.736 15.956)" fill="#25772f"/>
        <rect id="Rectangle_5" data-name="Rectangle 5" width="1.983" height="1.983" transform="translate(16.333 12.103)" fill="#25772f"/>
        <rect id="Rectangle_6" data-name="Rectangle 6" width="1.983" height="1.983" transform="translate(14.431 14.715)" fill="#25772f"/>
        <rect id="Rectangle_7" data-name="Rectangle 7" width="1.983" height="1.983" transform="translate(13.907 1.841)" fill="#25772f"/>
        <rect id="Rectangle_8" data-name="Rectangle 8" width="1.983" height="1.983" transform="translate(16.511 7.565)" fill="#25772f"/>
        <rect id="Rectangle_9" data-name="Rectangle 9" width="1.983" height="1.983" transform="translate(14.137 9.464)" fill="#25772f"/>
        <path id="Path_29" data-name="Path 29" d="M73.2,70.482V68.5l-1.984,0v1.982Z" transform="translate(-59.193 -56.629)" fill="#25772f"/>
        <path id="Path_30" data-name="Path 30" d="M25.481,28.564a20.784,20.784,0,0,1-.744-3.594H22.506V22.989H20.523V21.006H18.541V19.024h1.983v-2h1.984V15.05h1.982V13.067l-1.98,0V11.09H20.522V9.106l1.985,0V7.7a11.1,11.1,0,0,0-2.927-.528c-4.862-.252-9.026,2.871-8.892,7.178.018.568.117,1.406.115,1.953,0,1.943-1.686,2.741-1.718,3.359-.053,1.015,1.14.7,1.56,2.135.534,1.823-.232,3.9,2.254,3.774.992-.04,2.6-.425,3.294.217a8.162,8.162,0,0,1,.933,2.987.458.458,0,0,0,.452.379H25.04a.458.458,0,0,0,.442-.586ZM16.688,13.073H14.705V11.09h1.983Zm1.981-1.225h1.983v1.983H18.669Zm-1.483,4.659V14.525h1.983v1.983Zm2.5,8.932H17.7V23.457h1.983Z" transform="translate(-9.083 -7.154)" fill="#25772f"/>
      </g>
    </g>
  </g>
</svg>
