<svg xmlns="http://www.w3.org/2000/svg" width="48" height="48" viewBox="0 0 48 48">
  <g id="Group_783" data-name="Group 783" transform="translate(-368 -452)">
    <g id="Group_46" data-name="Group 46" transform="translate(339 299)">
      <g id="Group_235" data-name="Group 235" transform="translate(-16 -605)">
        <g id="Group_211" data-name="Group 211" transform="translate(0 656)">
          <g id="Group_206" data-name="Group 206">
            <circle id="Ellipse_1" data-name="Ellipse 1" cx="24" cy="24" r="24" transform="translate(45 102)" fill="#ddefe2"/>
          </g>
        </g>
      </g>
    </g>
    <g id="noun_Parkinson_Disease_1470623" data-name="noun_Parkinson Disease_1470623" transform="translate(356.3 455.774)">
      <path id="Path_31" data-name="Path 31" d="M28.842,63.451h-.016A2.481,2.481,0,0,1,26.519,61.5a.314.314,0,0,1,.614-.127,1.864,1.864,0,0,0,1.725,1.448.314.314,0,0,1-.016.627Z" transform="translate(0 -37.341)" fill="#25772f"/>
      <path id="Path_32" data-name="Path 32" d="M31.485,60.915H31.48a1.816,1.816,0,0,1-1.752-1.692.314.314,0,0,1,.624-.066,1.2,1.2,0,0,0,1.137,1.13.314.314,0,0,1,0,.627Z" transform="translate(-2.206 -35.798)" fill="#25772f"/>
      <path id="Path_33" data-name="Path 33" d="M42.846,26.763a2.9,2.9,0,0,0-5.639.691l-4.366,6.359a1.584,1.584,0,1,0,2.612,1.793l2.858-4.163,1.366,3.976c.018.052.039.1.059.151L37.567,39.5a1.585,1.585,0,0,0-.2.765v4.225a1.584,1.584,0,0,0,3.169,0V40.677l1.673-3.033v6.761a1.584,1.584,0,0,0,3.168,0v-10.1Z" transform="translate(-4.153 -12.408)" fill="#25772f"/>
      <circle id="Ellipse_7" data-name="Ellipse 7" cx="2.673" cy="2.673" r="2.673" transform="translate(31.361 6.726)" fill="#25772f"/>
      <path id="Path_34" data-name="Path 34" d="M64.537,23.576a.314.314,0,0,1-.3-.225,2.52,2.52,0,0,0-1.149-1.368.314.314,0,0,1,.284-.559,3.123,3.123,0,0,1,1.467,1.748.314.314,0,0,1-.211.39A.307.307,0,0,1,64.537,23.576Z" transform="translate(-24.988 -10.066)" fill="#25772f"/>
      <path id="Path_35" data-name="Path 35" d="M67.738,21.092a.314.314,0,0,1-.3-.225A2.52,2.52,0,0,0,66.288,19.5a.314.314,0,0,1,.284-.559,3.123,3.123,0,0,1,1.467,1.748.314.314,0,0,1-.211.39A.306.306,0,0,1,67.738,21.092Z" transform="translate(-27.186 -8.361)" fill="#25772f"/>
      <path id="Path_36" data-name="Path 36" d="M38,9.766a.314.314,0,0,1-.311-.274,3.079,3.079,0,0,1,.722-2.125.314.314,0,0,1,.476.409h0a2.479,2.479,0,0,0-.576,1.638.313.313,0,0,1-.272.35Z" transform="translate(-7.66 -0.365)" fill="#25772f"/>
    </g>
  </g>
</svg>
