<svg xmlns="http://www.w3.org/2000/svg" width="48" height="48" viewBox="0 0 48 48">
    <defs>
        <style>
            .prefix__cls-2{fill:#25772f}
        </style>
    </defs>
    <g id="prefix__Сгруппировать_917" data-name="Сгруппировать 917" transform="translate(-168 -1652)">
        <g id="prefix__Сгруппировать_830" data-name="Сгруппировать 830" transform="translate(168 1652)">
            <g id="prefix__Group_46" data-name="Group 46">
                <g id="prefix__Group_235" data-name="Group 235">
                    <g id="prefix__Group_211" data-name="Group 211">
                        <g id="prefix__Group_206" data-name="Group 206">
                            <circle id="prefix__Ellipse_1" cx="24" cy="24" r="24" fill="#ddefe2" data-name="Ellipse 1"/>
                        </g>
                    </g>
                </g>
            </g>
        </g>
        <g id="prefix__shield" transform="translate(149 1664)">
            <path id="prefix__Контур_868" d="M184.984 166a3.984 3.984 0 1 0 3.984 3.984 3.989 3.989 0 0 0-3.984-3.984zm-1.594 6.307l-1.127-1.127 1.127-1.127 1.127 1.127zm.467-4.314l1.127-1.127 1.127 1.127-1.127 1.127zm2.721 4.314l-1.127-1.127 1.127-1.127 1.127 1.127z" class="prefix__cls-2" data-name="Контур 868" transform="translate(-142.031 -157.181)"/>
            <path id="prefix__Контур_869" d="M35.781 0v.8A4.035 4.035 0 0 1 31.8 4.834H31v6.726a16.273 16.273 0 0 0 11.734 15.578l.219.062.219-.062A16.273 16.273 0 0 0 54.906 11.56V4.834h-.8A4.035 4.035 0 0 1 50.125.8V0zm14.5 7.732l-1.13 1.126-.563-.558-1.183 1.178a5.52 5.52 0 0 1 1.046 2.528h1.674v-.8h1.594V14.4h-1.594v-.8h-1.674a5.52 5.52 0 0 1-1.046 2.528l1.183 1.183.563-.563 1.127 1.127-2.254 2.254L46.9 19l.563-.563-1.183-1.183a5.52 5.52 0 0 1-2.53 1.046v1.674h.8v1.594h-3.191v-1.593h.8V18.3a5.52 5.52 0 0 1-2.528-1.046l-1.183 1.183.563.563-1.127 1.127-2.254-2.254 1.127-1.127.563.563 1.18-1.181a5.52 5.52 0 0 1-1.045-2.528h-1.674v.8h-1.593v-3.191h1.594v.8h1.674A5.52 5.52 0 0 1 38.5 9.478l-1.182-1.183-.563.563-1.127-1.126 2.254-2.254L39.008 6.6l-.563.563 1.183 1.183A5.52 5.52 0 0 1 42.156 7.3V5.631h-.8V4.038h3.187v1.593h-.8v1.675a5.52 5.52 0 0 1 2.528 1.046l1.183-1.183L46.9 6.6l1.127-1.127z" class="prefix__cls-2" data-name="Контур 869"/>
        </g>
    </g>
</svg>
