<svg xmlns="http://www.w3.org/2000/svg" width="48" height="48" viewBox="0 0 48 48">
    <defs>
        <style>
            .prefix__cls-2{fill:#25772f}
        </style>
    </defs>
    <g id="prefix__Сгруппировать_918" data-name="Сгруппировать 918" transform="translate(-561 -1652)">
        <g id="prefix__Сгруппировать_916" data-name="Сгруппировать 916">
            <g id="prefix__Сгруппировать_830" data-name="Сгруппировать 830" transform="translate(561 1652)">
                <g id="prefix__Group_46" data-name="Group 46">
                    <g id="prefix__Group_235" data-name="Group 235">
                        <g id="prefix__Group_211" data-name="Group 211">
                            <g id="prefix__Group_206" data-name="Group 206">
                                <circle id="prefix__Ellipse_1" cx="24" cy="24" r="24" fill="#ddefe2" data-name="Ellipse 1"/>
                            </g>
                        </g>
                    </g>
                </g>
            </g>
        </g>
        <g id="prefix__XMLID_313_" transform="translate(-345.361 2668.595)">
            <g id="prefix__XMLID_157_" transform="translate(858 -1009.25)">
                <path id="prefix__XMLID_216_" d="M79.273 8.9a2.322 2.322 0 0 1-2.1-1.321 3.408 3.408 0 0 0-3.059-1.926h-4.08a3.406 3.406 0 0 0-3.058 1.926A2.324 2.324 0 0 1 64.88 8.9a2.52 2.52 0 0 0-2.519 2.519v5.323a4.131 4.131 0 0 0 2.9 3.954s1.415.436 1.785.532l.6-5.28a4.471 4.471 0 0 1 4.443-3.975 4.235 4.235 0 0 1 3.081 1.3 5.221 5.221 0 0 1 1.366 3.249l.536 4.9c.645-.141 2.6-.724 2.6-.724a4.131 4.131 0 0 0 2.9-3.954V12.2a3.3 3.3 0 0 0-3.299-3.3zm-5.116 2.189a2.067 2.067 0 0 0-4.134 0h-1.554a3.621 3.621 0 1 1 7.242 0z" class="prefix__cls-2"/>
                <path id="prefix__XMLID_217_" d="M214.93 445.165h3.65v1.615h-3.65z" class="prefix__cls-2" transform="translate(-144.665 -416.74)"/>
                <path id="prefix__XMLID_218_" d="M214.93 383.585h3.65v1.636h-3.65z" class="prefix__cls-2" transform="translate(-144.665 -358.35)"/>
                <path id="prefix__XMLID_222_" d="M188.888 165.833l.265-.035-.552-5.039a3.7 3.7 0 0 0-.938-2.308 2.694 2.694 0 0 0-1.961-.826 2.917 2.917 0 0 0-2.9 2.594l-.623 5.445.4.068a1.542 1.542 0 0 1 1.3 1.528v.518h3.65v-.458a1.51 1.51 0 0 1 1.359-1.487zm-2.408-1.376h-1.554v-3.708h1.554z" class="prefix__cls-2" transform="translate(-113.611 -144.097)"/>
                <path id="prefix__XMLID_228_" d="M188.5 353.585a.777.777 0 0 0 0 1.554h.633v-1.554z" class="prefix__cls-2" transform="translate(-118.864 -329.904)"/>
                <path id="prefix__XMLID_229_" d="M286.023 355.139a.777.777 0 0 0 0-1.554h-.633v1.554z" class="prefix__cls-2" transform="translate(-211.474 -329.904)"/>
                <path id="prefix__XMLID_230_" d="M188.5 415.165a.777.777 0 1 0 0 1.554h.633v-1.554z" class="prefix__cls-2" transform="translate(-118.864 -388.294)"/>
                <path id="prefix__XMLID_231_" d="M286.023 416.719a.777.777 0 1 0 0-1.554h-.633v1.554z" class="prefix__cls-2" transform="translate(-211.474 -388.294)"/>
                <path id="prefix__XMLID_232_" d="M187.72 477.122a.777.777 0 0 0 .777.777h.633v-1.554h-.63a.777.777 0 0 0-.78.777z" class="prefix__cls-2" transform="translate(-118.864 -446.304)"/>
                <path id="prefix__XMLID_233_" d="M286.023 477.9a.777.777 0 0 0 0-1.554h-.633v1.554z" class="prefix__cls-2" transform="translate(-211.474 -446.304)"/>
            </g>
        </g>
    </g>
</svg>
