<svg xmlns="http://www.w3.org/2000/svg" width="48" height="48" viewBox="0 0 48 48">
    <defs>
        <style>
            .cls-2{fill:#acacac}
        </style>
    </defs>
    <g id="main_grey" transform="translate(-155 -427)">
        <g id="main" transform="translate(155 427)">
            <g id="Group_46">
                <g id="Group_235">
                    <g id="Group_211">
                        <g id="Group_206">
                            <circle id="Ellipse_1" cx="24" cy="24" r="24" fill="#e8e8e8"/>
                        </g>
                    </g>
                </g>
            </g>
        </g>
        <g id="tablets" transform="rotate(45 -402.872 361.66)">
            <path id="Path_874" d="M331.811 392a.811.811 0 1 0 .811.811.811.811 0 0 0-.811-.811z" class="cls-2" transform="translate(-255.41 -370.818)"/>
            <path id="Path_875" d="M151.811 90a.811.811 0 1 0 .811.811.811.811 0 0 0-.811-.811z" class="cls-2" transform="translate(-85.137 -85.137)"/>
            <path id="Path_876" d="M151.811 241a.811.811 0 1 0 .811.811.811.811 0 0 0-.811-.811z" class="cls-2" transform="translate(-85.137 -227.977)"/>
            <path id="Path_877" d="M151.811 392a.811.811 0 1 0 .811.811.811.811 0 0 0-.811-.811z" class="cls-2" transform="translate(-85.137 -370.818)"/>
            <path id="Path_878" d="M331.811 90a.811.811 0 1 0 .811.811.811.811 0 0 0-.811-.811z" class="cls-2" transform="translate(-255.41 -85.137)"/>
            <path id="Path_879" d="M331.811 241a.811.811 0 1 0 .811.811.811.811 0 0 0-.811-.811z" class="cls-2" transform="translate(-255.41 -227.977)"/>
            <path id="Path_880" d="M79.643 0H63.432A2.434 2.434 0 0 0 61 2.432v22.8a2.434 2.434 0 0 0 2.432 2.432h16.211a2.434 2.434 0 0 0 2.432-2.432v-22.8A2.434 2.434 0 0 0 79.643 0zM66.674 24.424a2.432 2.432 0 1 1 2.432-2.432 2.432 2.432 0 0 1-2.432 2.432zm0-8.16a2.432 2.432 0 1 1 2.432-2.432 2.432 2.432 0 0 1-2.432 2.432zm0-8.16a2.432 2.432 0 1 1 2.432-2.432A2.432 2.432 0 0 1 66.674 8.1zm5.674 15.508a.811.811 0 0 1-1.621 0V4.053a.811.811 0 1 1 1.621 0zm4.053.811a2.432 2.432 0 1 1 2.432-2.432 2.432 2.432 0 0 1-2.433 2.432zm0-8.16a2.432 2.432 0 1 1 2.432-2.432 2.432 2.432 0 0 1-2.433 2.432zm0-8.16a2.432 2.432 0 1 1 2.432-2.432A2.432 2.432 0 0 1 76.4 8.1z" class="cls-2"/>
        </g>
    </g>
</svg>
