<svg xmlns="http://www.w3.org/2000/svg" id="Сгруппировать_830" width="48" height="48" viewBox="0 0 48 48">
    <defs>
        <clipPath id="clip-path">
            <circle id="Ellipse_1" cx="24" cy="24" r="24" class="cls-1"/>
        </clipPath>
        <style>
            .cls-1{fill:#e8e8e8}.cls-3{fill:#acacac}
        </style>
    </defs>
    <g id="Group_46">
        <g id="Group_235">
            <g id="Group_211">
                <g id="Group_206">
                    <g id="Группа_масок_2" clip-path="url(#clip-path)">
                        <g id="main_grey" transform="translate(-155 -673)">
                            <g id="main" transform="translate(155 673)">
                                <g id="Group_46-2">
                                    <g id="Group_235-2">
                                        <g id="Group_211-2">
                                            <g id="Group_206-2">
                                                <circle id="Ellipse_1-2" cx="24" cy="24" r="24" class="cls-1"/>
                                            </g>
                                        </g>
                                    </g>
                                </g>
                            </g>
                            <g id="medicine_1_" transform="translate(160 684)">
                                <path id="Path_881" d="M276 382.753a2.757 2.757 0 0 0 2.753 2.753h2.253V380h-2.253a2.757 2.757 0 0 0-2.753 2.753z" class="cls-3" transform="translate(-256.483 -360.976)"/>
                                <path id="Path_882" d="M408.253 380H406v5.507h2.253a2.753 2.753 0 0 0 0-5.507z" class="cls-3" transform="translate(-379.975 -360.976)"/>
                                <path id="Path_883" d="M279.767 233.485l-1.342-1.342-1.593 1.593a2.753 2.753 0 0 0 3.894 3.894l1.593-1.593z" class="cls-3" transform="translate(-256.508 -220.521)"/>
                                <path id="Path_884" d="M349.036 169.282l1.593-1.593a2.753 2.753 0 0 0-3.894-3.894l-1.593 1.593z" class="cls-3" transform="translate(-322.164 -154.829)"/>
                                <path id="Path_885" d="M48.015 0h-3v3h-1.5V0h-3v3H39V0h-3v4.506h12.015z" class="cls-3" transform="translate(-28.498)"/>
                                <path id="Path_886" d="M21.019 124.388V121.5h-3V120H9v1.5H6v3.3h14.6z" class="cls-3" transform="translate(0 -113.993)"/>
                                <path id="Path_887" d="M18.051 446H6v3.3h14.471a4.266 4.266 0 0 1-2.42-3.3z" class="cls-3" transform="translate(0 -423.672)"/>
                                <path id="Path_888" d="M19.6 252.156a4.26 4.26 0 0 1-.493-6.156H6v8.511h12.122a4.263 4.263 0 0 1 1.478-2.355zm-3.333-1.149h-2v2h-1.5v-2h-2v-1.5h2v-2h1.5v2h2z" class="cls-3" transform="translate(0 -233.685)"/>
                            </g>
                        </g>
                    </g>
                </g>
            </g>
        </g>
    </g>
</svg>
