<svg xmlns="http://www.w3.org/2000/svg" width="48" height="48" viewBox="0 0 48 48">
  <g id="Group_784" data-name="Group 784" transform="translate(-95 -128)">
    <g id="Group_46" data-name="Group 46" transform="translate(66 -25)">
      <g id="Group_235" data-name="Group 235" transform="translate(-16 -605)">
        <g id="Group_211" data-name="Group 211" transform="translate(0 656)">
          <g id="Group_206" data-name="Group 206">
            <circle id="Ellipse_1" data-name="Ellipse 1" cx="24" cy="24" r="24" transform="translate(45 102)" fill="#ddefe2"/>
          </g>
        </g>
      </g>
    </g>
    <g id="Group_772" data-name="Group 772" transform="translate(76 -8)">
      <path id="electricity" d="M2.851,1.766a.1.1,0,0,0-.084-.049H1.51L1.721.107A.1.1,0,0,0,1.544.044L.014,2.724A.1.1,0,0,0,.1,2.87H1.335L1.168,4.483a.1.1,0,0,0,.178.059l1.5-2.679A.1.1,0,0,0,2.851,1.766Z" transform="matrix(0.719, 0.695, -0.695, 0.719, 50.159, 152.058)" fill="#25772f"/>
      <path id="electricity-2" data-name="electricity" d="M2.851,1.766a.1.1,0,0,0-.084-.049H1.51L1.721.107A.1.1,0,0,0,1.544.044L.014,2.724A.1.1,0,0,0,.1,2.87H1.335L1.168,4.483a.1.1,0,0,0,.178.059l1.5-2.679A.1.1,0,0,0,2.851,1.766Z" transform="translate(53.805 157.322) rotate(79)" fill="#25772f"/>
      <g id="noun_Constipation_2047529" transform="translate(32 149)">
        <circle id="Ellipse_6" data-name="Ellipse 6" cx="2.538" cy="2.538" r="2.538" transform="translate(10.783 0)" fill="#25772f"/>
        <path id="Path_2" data-name="Path 2" d="M34.118,28.093l-1.061-.354a.646.646,0,0,1-.444-.583l-.178-3.388a3.241,3.241,0,0,0-2.17-2.9.821.821,0,0,0-.435-1.283l-.263-.075A1.935,1.935,0,0,1,28.3,18.339c.088-.112.205-.25.321-.386.181-.212.351-.413.446-.555a2.344,2.344,0,0,0,.181-2.288A2.594,2.594,0,0,1,26.467,13.8h0a2.331,2.331,0,0,0-.535.222l-.094.053a6.436,6.436,0,0,0-3.215,4.272L22.046,20.9a2.286,2.286,0,0,0,2.248,2.713h5.2a.323.323,0,0,1,.32.272l.794,4.765a.972.972,0,0,0,.962.815H33.9a.7.7,0,0,0,.222-1.37Z" transform="translate(-15.841 -9.526)" fill="#25772f"/>
        <path id="Path_5" data-name="Path 5" d="M18.413,28.374a.362.362,0,0,0-.362-.4H8.625v-5.8a.363.363,0,0,0-.363-.363H7.175v-.725a1.088,1.088,0,1,0-2.175,0v8.338A1.816,1.816,0,0,0,6.45,31.2v3.661a.363.363,0,0,0,.363.362h8.7a.362.362,0,0,0,.352-.451l-.62-2.478C17.454,32.009,18.283,29.656,18.413,28.374Z" transform="translate(-5 -13.475)" fill="#25772f"/>
      </g>
    </g>
  </g>
</svg>
