<svg xmlns="http://www.w3.org/2000/svg" width="38" height="38" viewBox="0 0 38 38">
    <defs>
        <style>
            .cls-2{fill:#acacac}
        </style>
    </defs>
    <g id="main" transform="translate(-25 -140)">
        <circle id="Ellipse_1" cx="19" cy="19" r="19" fill="#e8e8e8" transform="translate(25 140)"/>
        <g id="Group_6" transform="translate(34.5 149.5)">
            <path id="electricity" d="M2.444 1.534a.082.082 0 0 0-.07-.043h-1.08l.181-1.38a.084.084 0 0 0-.158-.054l-1.3 2.3a.082.082 0 0 0 .07.125h1.057L1 3.863a.083.083 0 0 0 .158.051l1.29-2.3a.082.082 0 0 0 0-.082z" class="cls-2" transform="rotate(44.03 4.567 20.58)"/>
            <path id="electricity-2" d="M2.444 1.534a.082.082 0 0 0-.07-.043h-1.08l.181-1.38a.084.084 0 0 0-.158-.054l-1.3 2.3a.082.082 0 0 0 .07.125h1.057L1 3.863a.083.083 0 0 0 .158.051l1.29-2.3a.082.082 0 0 0 0-.082z" class="cls-2" transform="rotate(79 5.032 14.921)"/>
            <g id="noun_Constipation_2047529">
                <circle id="Ellipse_6" cx="2.175" cy="2.175" r="2.175" class="cls-2" transform="translate(9.248)"/>
                <path id="Path_2" d="M32.394 26.058l-.91-.3a.554.554 0 0 1-.38-.5l-.158-2.905a2.78 2.78 0 0 0-1.86-2.484.7.7 0 0 0-.374-1.108l-.223-.052A1.659 1.659 0 0 1 27.4 17.7c.076-.1.176-.214.276-.331a5.734 5.734 0 0 0 .383-.475 2.011 2.011 0 0 0 .158-1.962 2.225 2.225 0 0 1-2.383-1.119 2 2 0 0 0-.459.19l-.081.046a5.519 5.519 0 0 0-2.757 3.664l-.5 2.183a1.96 1.96 0 0 0 1.927 2.327h4.463a.277.277 0 0 1 .276.233l.681 4.087a.834.834 0 0 0 .825.7h1.992a.6.6 0 0 0 .19-1.175z" class="cls-2" transform="translate(-16.719 -10.133)"/>
                <path id="Path_5" d="M16.5 27.184a.317.317 0 0 0-.317-.342H8.11v-4.974a.317.317 0 0 0-.317-.317h-.928v-.622a.933.933 0 0 0-1.865 0v7.15A1.558 1.558 0 0 0 6.243 29.6v3.14a.317.317 0 0 0 .317.317h7.462a.317.317 0 0 0 .3-.386l-.532-2.125c1.891-.252 2.602-2.263 2.71-3.362z" class="cls-2" transform="translate(-5 -14.407)"/>
            </g>
        </g>
    </g>
</svg>
