<svg xmlns="http://www.w3.org/2000/svg" width="48" height="48" viewBox="0 0 48 48">
  <g id="Group_774" data-name="Group 774" transform="translate(-95 -290)">
    <g id="Group_46" data-name="Group 46" transform="translate(66 137)">
      <g id="Group_235" data-name="Group 235" transform="translate(-16 -605)">
        <g id="Group_211" data-name="Group 211" transform="translate(0 656)">
          <g id="Group_206" data-name="Group 206">
            <circle id="Ellipse_1" data-name="Ellipse 1" cx="24" cy="24" r="24" transform="translate(45 102)" fill="#ddefe2"/>
          </g>
        </g>
      </g>
    </g>
    <g id="_036---Heart-Disease" data-name="036---Heart-Disease" transform="translate(110 303)">
      <path id="Shape" d="M20.21,8.009l-.144.536a2.18,2.18,0,0,0,1.865.29c.075-.043.08-.061.035-.141A2.2,2.2,0,0,0,20.21,8.009Z" transform="translate(-12.21 -4.872)" fill="#25772f"/>
      <ellipse id="Oval" cx="1.725" rx="1.725" transform="translate(0 0.246)" fill="#25772f"/>
      <path id="Shape-2" data-name="Shape" d="M14.8,0c-.36,0-.579.1-.6.161-.025.094.3.487,1.032.685a2.168,2.168,0,0,0,.949.062c.193-.039.274-.107.284-.13C16.521.64,15.825,0,14.8,0Z" transform="translate(-8.643)" fill="#25772f"/>
      <path id="Shape-3" data-name="Shape" d="M8.947,8.439a.392.392,0,0,1,.114-.775c.051.007.1.018.152.026L9.537,6.5a3.2,3.2,0,0,1-1.893-.369,6.329,6.329,0,0,0-.206,2.591.391.391,0,1,1-.783,0c0-2.388-.152-1.37.926-5.36a3.126,3.126,0,0,1-2.268-.612L4.306,6.467c0,2.235.092,3.21-.412,4.723a.392.392,0,0,1-.744-.247c.5-1.487.373-2.108.373-7.541a3.15,3.15,0,0,1-2.349,0V8.2a3.321,3.321,0,0,1-.653,2.053A2.529,2.529,0,0,0,0,11.787V16.4a5.4,5.4,0,0,0,.907,2.987L3.69,17.53a6.631,6.631,0,0,0,2.965-5.535V10.284a.391.391,0,0,1,.783,0v1.711A7.412,7.412,0,0,1,4.124,18.18L1.389,20A5.292,5.292,0,0,0,4.2,21.657c9.129,2.006,8.638,1.938,9.308,1.938a4.535,4.535,0,0,0,4.5-4.557A10.736,10.736,0,0,0,8.947,8.439ZM.783,11.458a.391.391,0,1,1,.391.391A.391.391,0,0,1,.783,11.458Zm.783,6.264a.391.391,0,1,1,.391-.391A.391.391,0,0,1,1.566,17.722Zm1.957-4.7a.391.391,0,0,0-.391.391V14.59c0,1.163-1.566,1.534-1.566.783a.391.391,0,0,1,.391-.391.391.391,0,0,0,.391-.391v-.783a.391.391,0,0,0-.391-.391.391.391,0,1,1,0-.783,1.162,1.162,0,0,1,.576.157c.413-.65,1.382-.744,1.382-.157A.391.391,0,0,1,3.523,13.024Zm.783,1.566A.391.391,0,1,1,4.7,14.2.391.391,0,0,1,4.306,14.59Zm-.391,5.872a.391.391,0,1,1,.391-.391A.391.391,0,0,1,3.915,20.463Zm1.957-.391a.391.391,0,1,1,.391-.391A.391.391,0,0,1,5.872,20.071Zm1.174-1.957a.391.391,0,1,1,.391-.391A.391.391,0,0,1,7.047,18.114Zm5.089-5.089a.391.391,0,1,1-.391.391A.391.391,0,0,1,12.136,13.024ZM7.83,14.59a.391.391,0,1,1,.391.391A.391.391,0,0,1,7.83,14.59Zm.783,6.264A.391.391,0,1,1,9,20.463.391.391,0,0,1,8.613,20.854ZM9,18.505a.391.391,0,1,1,.391-.391A.391.391,0,0,1,9,18.505ZM9.4,16.548a.391.391,0,1,1,.391-.391A.391.391,0,0,1,9.4,16.548Zm.783-3.523a.391.391,0,1,1,.391-.391A.391.391,0,0,1,10.179,13.024Zm.783,8.613a.391.391,0,1,1,.391-.391A.391.391,0,0,1,10.962,21.637Zm1.566-1.174a1.178,1.178,0,0,1-1.174-1.247,1.161,1.161,0,0,1-.391.072.391.391,0,1,1,0-.783.391.391,0,0,0,.391-.391V15.765a.391.391,0,0,0-.391-.391.391.391,0,0,1-.391-.391c0-.587.969-.493,1.382.157a1.162,1.162,0,0,1,.576-.157.391.391,0,1,1,0,.783.391.391,0,0,0-.391.391v3.132a.391.391,0,0,0,.391.391.391.391,0,0,1,0,.783Zm.783,2.349a.391.391,0,1,1,.391-.391A.391.391,0,0,1,13.311,22.812Zm0-10.57a.391.391,0,1,1,.391-.391A.391.391,0,0,1,13.311,12.241Zm1.174,8.613a.391.391,0,1,1,.391-.391A.391.391,0,0,1,14.485,20.854Zm0-1.957a.391.391,0,1,1,.391-.391A.391.391,0,0,1,14.485,18.9Zm0-1.957a.391.391,0,1,1,.391-.391A.391.391,0,0,1,14.485,16.939Zm0-2.74a.391.391,0,1,1,.391-.391A.391.391,0,0,1,14.485,14.2Zm1.957,3.132a.391.391,0,1,1-.391.391A.391.391,0,0,1,16.443,17.331Z" transform="translate(0 -1.671)" fill="#25772f"/>
    </g>
  </g>
</svg>
