<svg xmlns="http://www.w3.org/2000/svg" width="48" height="48" viewBox="0 0 48 48">
  <g id="Group_776" data-name="Group 776" transform="translate(-95 -371)">
    <g id="Group_46" data-name="Group 46" transform="translate(66 218)">
      <g id="Group_235" data-name="Group 235" transform="translate(-16 -605)">
        <g id="Group_211" data-name="Group 211" transform="translate(0 656)">
          <g id="Group_206" data-name="Group 206">
            <circle id="Ellipse_1" data-name="Ellipse 1" cx="24" cy="24" r="24" transform="translate(45 102)" fill="#ddefe2"/>
          </g>
        </g>
      </g>
    </g>
    <g id="Group_775" data-name="Group 775" transform="translate(57.652 -48.084)">
      <path id="Path_9" data-name="Path 9" d="M.72,4.09H3.839v-4.8H9.46V-3.362H3.839V-5.375H9.587V-8H.72ZM10.62-.3a4.484,4.484,0,0,0,4.787,4.606,5.713,5.713,0,0,0,3.663-1.16L17.891,1.407a3.467,3.467,0,0,1-2.14.743A2.09,2.09,0,0,1,13.521.591h6.237v-.6c0-2.974-1.886-4.878-4.479-4.878A4.52,4.52,0,0,0,10.62-.3Zm4.66-2.43a1.683,1.683,0,0,1,1.813,1.5H13.485A1.73,1.73,0,0,1,15.28-2.728Z" transform="translate(55.256 446)" fill="#25772f"/>
      <path id="Path_8" data-name="Path 8" d="M4.527-2.632H7V-4.178H4.527V-6.9H2.82v2.722H.348v1.545H2.82V.208H4.527Z" transform="translate(46 445.053)" fill="#25772f"/>
    </g>
  </g>
</svg>
