<svg xmlns="http://www.w3.org/2000/svg" width="48" height="48" viewBox="0 0 48 48">
  <g id="Group_779" data-name="Group 779" transform="translate(-368 -128)">
    <g id="Group_46" data-name="Group 46" transform="translate(339 -25)">
      <g id="Group_235" data-name="Group 235" transform="translate(-16 -605)">
        <g id="Group_211" data-name="Group 211" transform="translate(0 656)">
          <g id="Group_206" data-name="Group 206">
            <circle id="Ellipse_1" data-name="Ellipse 1" cx="24" cy="24" r="24" transform="translate(45 102)" fill="#ddefe2"/>
          </g>
        </g>
      </g>
    </g>
    <g id="surface1" transform="translate(383.182 138.375)">
      <path id="Path_20" data-name="Path 20" d="M126.707,204.479a7.115,7.115,0,0,0,7.115-7.115c0-3.929-7.115-11.18-7.115-11.18Zm0,0" transform="translate(-119.592 -175.729)" fill="#25772f"/>
      <path id="Path_21" data-name="Path 21" d="M0,197.365a7.115,7.115,0,0,0,7.115,7.115v-18.3S0,193.435,0,197.365Zm2.541,0a4.071,4.071,0,0,0,4.066,4.066A4.071,4.071,0,0,1,2.541,197.365Zm0,0" transform="translate(0 -175.729)" fill="#25772f"/>
      <path id="Path_22" data-name="Path 22" d="M190.059,29.482a4.07,4.07,0,0,0,4.066,4.066v-10.7C191.939,25.471,190.059,28.322,190.059,29.482Zm0,0" transform="translate(-179.387 -21.568)" fill="#25772f"/>
      <path id="Path_23" data-name="Path 23" d="M262.461,22.816v10.7a4.07,4.07,0,0,0,4.066-4.066C266.527,28.373,264.764,25.571,262.461,22.816Zm0,0" transform="translate(-247.723 -21.535)" fill="#25772f"/>
      <path id="Path_24" data-name="Path 24" d="M101.394,2.933A19.548,19.548,0,0,0,99.555,0V5.373a2.036,2.036,0,0,0,1.905-1.321A1.441,1.441,0,0,0,101.394,2.933Zm0,0" transform="translate(-93.964)" fill="#25772f"/>
      <path id="Path_25" data-name="Path 25" d="M66.089,5.38V.008a20,20,0,0,0-1.841,2.91,1.462,1.462,0,0,0-.072,1.118A2.037,2.037,0,0,0,66.089,5.38Zm0,0" transform="translate(-60.499 -0.007)" fill="#25772f"/>
      <path id="Path_26" data-name="Path 26" d="M40.773,389.867a4.579,4.579,0,0,1-4.574-4.574h1.016a3.562,3.562,0,0,0,3.558,3.558Zm0,0" transform="translate(-34.167 -363.658)" fill="#ddefe2"/>
    </g>
  </g>
</svg>
