<svg xmlns="http://www.w3.org/2000/svg" width="48" height="48" viewBox="0 0 48 48">
  <g id="Group_781" data-name="Group 781" transform="translate(-368 -290)">
    <g id="Group_46" data-name="Group 46" transform="translate(339 137)">
      <g id="Group_235" data-name="Group 235" transform="translate(-16 -605)">
        <g id="Group_211" data-name="Group 211" transform="translate(0 656)">
          <g id="Group_206" data-name="Group 206">
            <circle id="Ellipse_1" data-name="Ellipse 1" cx="24" cy="24" r="24" transform="translate(45 102)" fill="#ddefe2"/>
          </g>
        </g>
      </g>
    </g>
    <g id="Solid" transform="translate(348 270)">
      <path id="Path_28" data-name="Path 28" d="M34.186,53.45a.164.164,0,0,1,.088-.149.431.431,0,0,0,.17-.17.17.17,0,0,1,.3,0,.426.426,0,0,0,.17.17.17.17,0,0,1,0,.3.428.428,0,0,0-.17.17.17.17,0,0,1-.3,0,.426.426,0,0,0-.17-.17A.164.164,0,0,1,34.186,53.45Zm8.957-12.879h1.714v-.857H43.143Zm-5.484,4.885a.428.428,0,0,1,.17.17.17.17,0,0,0,.3,0,.427.427,0,0,1,.17-.17.17.17,0,0,0,0-.3.431.431,0,0,1-.17-.17.17.17,0,0,0-.3,0,.427.427,0,0,1-.17.17.17.17,0,0,0,0,.3ZM35.852,50.25a.313.313,0,0,0,.316.16l.046,0a.429.429,0,0,1,.392.256.325.325,0,0,0,.594,0,.421.421,0,0,1,.439-.253.324.324,0,0,0,.3-.514.428.428,0,0,1,0-.506.324.324,0,0,0-.3-.514.422.422,0,0,1-.439-.253.325.325,0,0,0-.594,0,.422.422,0,0,1-.439.253.309.309,0,0,0-.316.16.314.314,0,0,0,.019.354.429.429,0,0,1,0,.506A.315.315,0,0,0,35.852,50.25Zm9.005-15.917a1.66,1.66,0,0,1-1.714,0v1.1h1.714ZM44,32a.857.857,0,1,0,.857.857A.857.857,0,0,0,44,32ZM32,53V49.984a3.012,3.012,0,0,1,.34-1.388l4.006-7.678a2.24,2.24,0,0,1,4.225,1.036v12.76A1.287,1.287,0,0,1,39.286,56H35A3,3,0,0,1,32,53Zm4.714-7.693a1.187,1.187,0,0,0,2.1.835,1.186,1.186,0,1,0-1.67-1.67A1.026,1.026,0,0,0,36.714,45.307Zm-1.677,4.336a1.185,1.185,0,0,0,.933,1.617,1.186,1.186,0,0,0,1.867,0,1.185,1.185,0,0,0,.933-1.617,1.185,1.185,0,0,0-.933-1.616,1.186,1.186,0,0,0-1.867,0,1.184,1.184,0,0,0-.933,1.616ZM33.329,53.45a1.186,1.186,0,0,0,2.1.835,1.186,1.186,0,1,0-1.67-1.67A1.026,1.026,0,0,0,33.329,53.45ZM44.857,38H43.143v.857h1.714Zm0-1.714H43.143v.857h1.714Zm7.155,13.587a.431.431,0,0,1-.17-.17.17.17,0,0,0-.3,0,.426.426,0,0,1-.17.17.17.17,0,0,0,0,.3.428.428,0,0,1,.17.17.17.17,0,0,0,.3,0,.426.426,0,0,1,.17-.17.17.17,0,0,0,0-.3Zm-6.85-8.136-.147-.308h-2.03l-.147.308L44,42.607Zm.827,1.737-.451-.948-.963.722.554.87Zm.583,1.224-.207-.435-.774.581.515.81.466-.31Zm9.088,3.9A3.015,3.015,0,0,1,56,49.984V53a3,3,0,0,1-3,3H48.714a1.287,1.287,0,0,1-1.286-1.286V41.954a2.24,2.24,0,0,1,4.225-1.036Zm-2.7,1.426a1.535,1.535,0,1,0-.429.835,1.026,1.026,0,0,0,.429-.835Zm-9.532-6.774-.963-.722-.451.948.86.645Zm-1.015,1.6-.774-.58-.207.435v.646l.466.31Z" fill="#25772f"/>
    </g>
  </g>
</svg>
