<svg width="374" height="366" viewBox="0 0 374 366" fill="none" xmlns="http://www.w3.org/2000/svg">
<g clip-path="url(#clip0)">
<path d="M-0.640015 -459H374.36V361H-0.640015V-459Z" fill="#1C468A"/>
<path d="M45.253 366.843C23.353 366.843 2.68898 358.807 -14.356 343.695C-50.176 311.94 -65.292 252.895 -41.508 201.134C-29.881 175.898 -13.698 152.641 10.628 138.751C15.5226 135.967 20.6306 133.576 25.904 131.601C48.204 123.183 72.065 122.035 90.444 116.211C111.344 109.85 125.67 98.706 136.551 78.781C197.29 -32.486 397.169 21.181 362.136 177.668C354.581 211.405 376.546 228.339 397.342 247.577C409.342 258.688 420.967 270.567 426.289 286.891C428.187 292.763 429.202 298.885 429.3 305.055C429.859 332.148 414.734 355.345 393.64 363.68C383.847 367.55 377.329 366.972 367.04 366.968L45.253 366.843Z" fill="#A7C4F3"/>
<path d="M335.287 227.177V366.955H333.187L306.114 366.946L296.499 366.94H266.457L240.13 366.929H202.51L182.832 366.921H168.793L118.985 366.902H103.599L76.599 366.892H75.658L57.8 366.849H50.801V227.177H335.287Z" fill="#071E42"/>
<path d="M168.791 366.89L104.433 366.865H103.596L76.596 366.856C75.83 357.108 75.052 347.283 74.307 337.922C72.265 312.26 70.468 290.079 69.85 282.471L69.622 279.663L96.622 278.018L141.412 265.526C141.412 265.526 141.768 268.553 142.252 273.026C143.16 281.378 144.521 294.778 144.867 302.961C145.399 315.526 156.745 351.461 166.404 363.436C167.275 364.533 168.073 365.687 168.791 366.89V366.89Z" fill="#1C468A"/>
<path d="M130.533 135.14C130.533 135.14 104.268 147.813 89.1259 143.111C92.0069 139.768 95.4822 136.988 99.3759 134.911C98.8519 131.871 98.444 129.234 98.211 126.997C97.8478 124.316 97.6338 121.616 97.57 118.911L107.703 110.941L117.312 103.314C116.552 124.763 130.533 135.14 130.533 135.14Z" fill="#FFB27D"/>
<path d="M117.488 111.514C117.488 111.514 110.849 123.614 98.211 126.997C97.8483 124.316 97.6346 121.616 97.571 118.911L107.704 110.941L117.488 111.514Z" fill="#ED985F"/>
<path d="M92.95 118.562C92.95 118.562 118.006 122.662 120.358 107.262C122.71 91.862 127.528 82.014 111.63 78.745C95.7321 75.476 91.719 80.893 89.664 85.845C87.609 90.797 86.493 117.099 92.95 118.562Z" fill="#FFB27D"/>
<path d="M129.466 76.896C129.693 76.635 130.218 76.425 131.386 76.361C130.719 75.983 129.971 75.7723 129.205 75.747C128.961 74.123 128.097 71.247 125.305 70.547C125.76 70.8129 126.15 71.1783 126.444 71.6159C126.739 72.0535 126.93 72.5519 127.005 73.074C123.769 69.75 116.834 67.331 97.631 68.847C72.324 70.847 80.664 87.047 83.941 88.979C87.218 90.911 95.464 85.615 101.568 86.1C107.672 86.585 108.631 95.849 110.904 96.615C112.19 97.049 113.177 96.255 115.979 94.988C118.781 93.721 118.031 97.795 117.221 100.813C116.411 103.831 120.262 107.813 120.262 107.813L124.152 103.623C128.043 99.433 131.709 81.687 129.94 77.904C129.78 77.576 129.63 77.237 129.466 76.896Z" fill="#A9453D"/>
<path d="M174.076 237.416C173.823 231.375 160.157 166.131 148.366 148.23C140.766 136.689 124.984 128.801 124.984 128.801C123.936 128.001 117.353 131.663 111.295 134.585C105.762 137.278 102.429 137.218 97.187 136.185C97.187 136.185 91.508 139.745 89.749 141.117C81.5596 147.656 75.7806 156.736 73.324 166.924C70.763 177.13 69.2461 195.596 68.4311 214.748C68.0241 223.465 67.7311 232.183 67.6161 240.497V240.784C67.5581 241.644 67.558 242.505 67.558 243.362C67.267 264.638 67.558 281.553 67.966 281.84C68.3939 282.237 68.9533 282.462 69.537 282.472C75.245 282.356 91.844 285.511 105.878 284.072C117.759 282.925 128.244 279.487 139.478 274.552C140.995 273.866 144.43 272.033 144.371 270.424C144.313 268.591 144.138 266.009 143.906 262.684C143.773 260.801 143.619 258.693 143.47 256.384C142.861 247.068 142.242 234.463 142.605 220.138C147.66 227.481 151.43 232.732 151.805 233.545C153.118 236.362 151.046 280.187 151.046 280.187C153.721 285.422 164.095 286.106 164.095 286.106C164.095 286.106 174.328 243.458 174.076 237.416V237.416Z" fill="#1C468A"/>
<path d="M88.062 100.334C95.3357 101.172 102.705 100.299 109.581 97.785L110.707 110.536C108.767 113.403 106.104 115.707 102.989 117.217C97.4 119.778 90.927 120.927 88.837 114.552C87.738 111.206 88.062 100.334 88.062 100.334V100.334Z" fill="#D2E4FF"/>
<path d="M109.439 111.433L109.285 110.959C109.402 110.921 115.385 106.107 117.827 100.245C118.484 98.665 119.155 96.154 118.343 95.899C114.43 94.669 108.326 99.55 109.012 98.777L109.112 98.052C109.44 97.875 114.701 94.352 118.812 95.652C119.757 95.952 118.977 98.952 118.261 100.671C117.505 102.711 116.419 104.614 115.047 106.302C113.456 108.294 111.564 110.025 109.439 111.433V111.433Z" fill="#D2E4FF"/>
<path d="M112.378 99.513C112.802 95.029 117.178 93.535 118.61 94.926C119.382 95.676 119.543 97.645 119.571 98.446C119.652 99.1522 119.581 99.8675 119.365 100.544C119.148 101.221 118.79 101.844 118.314 102.372C117.838 102.9 117.255 103.321 116.605 103.607C115.954 103.893 115.25 104.037 114.539 104.03C114.539 104.03 112.232 101.059 112.378 99.513V99.513Z" fill="#FFB27D"/>
<path d="M277.515 50.072C279.022 50.1853 280.538 50.0157 281.983 49.572C285.908 48.351 293.163 45.092 304.423 51.433C314.823 57.288 325.897 93.144 330.423 96.633C334.949 100.122 341.067 101.698 340.388 108.833C339.709 115.968 331.555 120.728 336.988 125.257C342.421 129.786 335.433 146.301 320.018 145.97C304.603 145.639 265.672 128.328 266.001 119.885C266.33 111.442 268.601 110.91 273.013 104.269C277.425 97.628 260.544 87.656 261.513 74.185C262.394 62 271.457 49.645 277.515 50.072V50.072Z" fill="#A9453D"/>
<path d="M321.564 224.142C313.638 206.365 309.846 201.342 309.713 195.742C309.607 191.319 311.788 186.542 316.025 174.842C317.009 172.1 317.716 169.266 318.134 166.383C321.485 143.824 308.44 119.437 300.334 117.775C298.078 117.175 294.254 109.031 294.301 95.901L293.286 96.101L276.213 99.482C276.213 99.482 276.601 104.855 276.613 109.916C276.624 114.134 276.37 118.132 275.413 118.636C274.184 118.747 273.459 118.82 273.459 118.82C273.459 118.82 259.223 138.59 258.026 156.977C256.829 175.364 269.426 183.352 257.926 220.095C246.193 257.626 325.942 233.965 321.564 224.142V224.142Z" fill="#FFB27D"/>
<path d="M276.21 99.484C276.21 99.484 276.599 104.857 276.61 109.919C286.164 109.65 291.21 100.934 293.282 96.104L276.21 99.484Z" fill="#E8945B"/>
<path d="M273.019 104.282C273.019 104.282 295.619 104.655 295.639 90.575C295.659 76.495 298.583 67.06 284.151 66.227C269.719 65.394 266.91 70.763 265.761 75.462C264.612 80.161 267.14 103.822 273.019 104.282V104.282Z" fill="#FFB27D"/>
<path d="M294.363 68.85C294.363 68.85 280.692 57.617 273.263 65.045C271.715 64.162 269.375 64.061 266.429 67.632C261.189 73.983 265.852 85.211 265.852 85.211C263.942 75.701 266.389 73.301 268.385 71.011C269.796 69.6938 271.457 68.6736 273.27 68.011C275.227 72.93 281.242 86.141 290.92 90.611C287.924 87.6742 285.289 84.391 283.07 80.831C284.837 82.709 287.068 84.0886 289.538 84.831C299.038 87.273 301.396 80.531 301.396 80.531C301.396 80.531 295.875 78.953 294.363 68.85V68.85Z" fill="#A9453D"/>
<path d="M326.63 240.374C325.724 243.221 322.617 244.519 315.105 243.742C310.514 243.264 308.467 235.571 307.554 229.006C304.795 238.398 300.934 243.67 295.943 244.775C288.66 246.397 251.922 250.863 249.518 233.4C246.873 214.191 247.666 149.313 247.781 144.464C248.089 131.401 250.761 123.201 266.007 119.898C267.707 119.53 270.092 119.271 273.458 118.827C273.458 118.827 275.443 118.593 275.411 118.643C274.791 119.755 265.855 132.433 266.505 135.674C267.185 139.064 296.693 136.012 298.729 134.148C300.765 132.284 300.122 117.707 300.122 117.707C300.122 117.707 326.142 118.679 328.95 124.342C341.464 149.572 326.676 232.616 326.894 236.976C327 238.115 326.911 239.265 326.63 240.374Z" fill="#071E42"/>
<path d="M266.143 88.053C266.143 88.053 278.11 90.039 288.868 86.982L289.068 98.618C289.068 98.618 270.388 110.318 267.768 100.759C266.913 97.671 266.143 88.053 266.143 88.053Z" fill="#D2E4FF"/>
<path d="M287.858 99.352L287.75 98.913C287.858 98.886 293.595 94.905 296.186 89.746C296.886 88.355 297.653 86.121 296.934 85.837C293.463 84.47 287.614 88.504 288.285 87.847L288.427 87.196C288.736 87.057 293.734 84.203 297.382 85.641C298.219 85.971 297.32 88.641 296.559 90.157C295.743 91.9586 294.636 93.6139 293.283 95.057C291.709 96.7624 289.879 98.2115 287.858 99.352V99.352Z" fill="#D2E4FF"/>
<path d="M292.407 87.018C293.08 82.979 297.143 81.906 298.354 83.259C299.007 83.989 299.025 85.785 298.999 86.513C299.027 87.1587 298.917 87.803 298.677 88.4031C298.437 89.0032 298.072 89.5454 297.607 89.9937C297.141 90.4421 296.586 90.7863 295.977 91.0036C295.368 91.2208 294.72 91.3062 294.076 91.254C294.076 91.254 292.175 88.411 292.407 87.018V87.018Z" fill="#FFB27D"/>
<path d="M217.16 50.5C215.837 47.9 205.936 30.113 187.145 39.2C160.629 52.028 158.559 85.971 149.429 91.583C133.178 101.57 150.197 130.592 166.212 131.274C182.227 131.956 198.8 107.288 198.8 107.288L208.708 77.059L216.478 76.513L218.035 71.493C222.892 59.459 220.296 53.618 217.16 50.5V50.5Z" fill="#071E42"/>
<path d="M228.214 209.002C218.043 208.884 190.366 208.357 183.714 206.139C181.159 205.266 178.881 203.732 177.111 201.692C175.342 199.653 174.144 197.181 173.64 194.529C173.64 194.345 174.311 190.58 175.376 184.752C177.502 180.286 178.562 177.597 178.628 174.752C178.64 173.234 178.438 171.722 178.028 170.26C177.147 166.834 175.328 162.332 172.628 154.87C171.69 152.262 171.018 149.567 170.62 146.824C167.429 125.36 179.844 102.159 187.557 100.582C189.703 100.013 193.339 92.26 193.293 79.773L194.261 79.963L210.501 83.179C210.501 83.179 210.132 88.29 210.122 93.105C210.112 97.115 210.352 100.92 211.264 101.405C212.431 101.505 213.123 101.579 213.123 101.579L213.169 101.64C216.262 101.84 224.469 102.572 225.558 104.79L222.558 113.906L221.688 116.559C224.197 121.784 226.044 127.302 227.188 132.984C227.486 134.604 227.691 136.24 227.803 137.884C227.891 139.212 227.903 140.544 227.839 141.874C227.188 156.752 217.826 165.745 227.895 197.929C229.335 202.539 229.325 206.18 228.214 209.002V209.002Z" fill="#FFB27D"/>
<path d="M210.501 83.18C210.501 83.18 210.131 88.291 210.121 93.107C206.605 93.0816 203.167 92.0663 200.201 90.1775C197.235 88.2886 194.861 85.6026 193.351 82.427L210.501 83.18Z" fill="#E8945B"/>
<path d="M212.607 88.945C212.607 88.945 191.107 89.3 191.089 75.905C191.071 62.51 188.289 53.535 202.018 52.742C215.747 51.949 218.418 57.057 219.513 61.527C220.608 65.997 218.2 88.503 212.607 88.945Z" fill="#FFB27D"/>
<path d="M229.68 270.376C229.68 270.376 249.123 223.362 248.099 189.218C247.983 185.367 248.181 175.178 247.682 170.991C247.72 147.327 231.767 107.207 225.147 103.579C221.705 101.693 211.199 101.354 211.261 101.403C211.261 101.403 213.831 106.194 216.238 111.811C216.661 112.801 216.867 113.87 216.844 114.946C216.821 116.023 216.568 117.082 216.103 118.053C215.638 119.024 214.972 119.884 214.148 120.577C213.324 121.27 212.361 121.779 211.325 122.071L211.056 122.145C208.665 122.673 206.175 122.537 203.856 121.752C200.857 120.854 198.121 119.241 195.883 117.052C193.645 114.864 191.971 112.165 191.006 109.187C188.906 102.82 188.266 100.174 188.266 100.174L177.087 102.206C177.087 102.206 169.187 103.884 165.447 109.512C160.49 116.975 145.887 155.235 140.008 192.529C138.381 202.827 229.68 270.376 229.68 270.376V270.376Z" fill="#A9453D"/>
<path d="M219.144 73.277C219.144 73.277 207.753 75.167 197.514 72.257L197.324 83.332C197.324 83.332 215.103 94.469 217.601 85.369C218.408 82.432 219.144 73.277 219.144 73.277V73.277Z" fill="#B6D7FF"/>
<path d="M198.472 84.03L198.572 83.611C198.472 83.585 193.008 79.796 190.544 74.886C189.88 73.562 188.851 69.556 189.536 69.286C192.836 67.986 198.702 73.703 198.062 73.078L197.928 72.458C197.634 72.326 193.008 67.917 189.536 69.286C188.736 69.6 189.464 73.835 190.188 75.277C190.965 76.9916 192.019 78.5669 193.307 79.94C194.805 81.564 196.548 82.9439 198.472 84.03V84.03Z" fill="#B6D7FF"/>
<path d="M194.143 72.292C193.502 68.447 189.634 67.426 188.482 68.715C187.861 69.409 187.843 71.115 187.868 71.815C187.841 72.4296 187.946 73.0428 188.174 73.614C188.403 74.1851 188.75 74.7012 189.193 75.1279C189.637 75.5545 190.165 75.8821 190.745 76.0889C191.324 76.2956 191.941 76.3768 192.554 76.327C192.554 76.327 194.363 73.617 194.143 72.292V72.292Z" fill="#FFB27D"/>
<path d="M219.801 52.874C216.23 48.547 213.601 49.887 212.264 51.213C212.646 50.323 212.847 49.789 212.847 49.789C208.1 41.795 191.995 52.807 191.995 52.807C190.977 59.0667 187.815 64.7779 183.05 68.963C183.05 68.963 187.239 71.551 196.896 69.063C200.823 68.053 204.196 64.675 206.813 61.023C203.261 68.743 196.501 74.743 196.501 74.743C207.294 69.754 211.628 54.743 212.059 53.155C213.372 54.334 215.959 56.895 216.748 59.405C217.821 62.816 218.302 69.838 220.348 69.599C220.35 69.597 224.786 58.916 219.801 52.874Z" fill="#071E42"/>
<path d="M248.099 208.556C248.099 208.556 236.18 222.696 220.999 216.781C220.999 216.781 217.733 208.881 217.688 203.062C217.683 202.345 217.673 201.651 217.662 200.991C217.581 194.435 217.362 190.757 217.362 190.757H217.378C218.069 190.469 240.578 181.226 240.562 181.994C240.177 199.721 248.099 208.556 248.099 208.556V208.556Z" fill="#FFB27D"/>
<path d="M238.303 186.219C236.132 190.243 228.683 198.119 217.666 200.991C217.585 194.436 217.366 190.757 217.366 190.757H217.382C218.002 190.587 238.948 185.033 238.303 186.219V186.219Z" fill="#ED975D"/>
<path d="M212.649 190.077C212.649 190.077 237.967 196.029 241.431 180.206C244.895 164.383 250.495 154.494 234.477 150.025C218.459 145.556 213.986 150.904 211.545 155.904C209.104 160.904 206.152 188.121 212.649 190.077Z" fill="#FFB27D"/>
<path d="M240.564 184.517C240.909 184.738 246.357 186.412 256.674 165.86C257.817 163.245 258.317 160.394 258.134 157.546C257.951 154.698 257.089 151.934 255.621 149.487C251.846 143.32 238.46 138.472 227.339 136.362C216.218 134.252 213.548 140.51 210.929 146.799C208.18 153.399 200.24 158.837 200.24 158.837C209.831 164.194 221.381 156.532 225.382 157.792C229.383 159.052 230.798 165.359 231.098 167.381C231.398 169.403 232.331 171.831 238.317 168.919C243.124 166.581 239.167 176.408 238.361 178.119C238.361 178.116 237.678 182.663 240.564 184.517V184.517Z" fill="#2A4E96"/>
<path d="M198.994 266.982C199.146 275.367 199.633 284.793 200.294 294.366L200.414 296.066C200.834 301.997 201.29 307.941 201.814 313.738C202.024 316.062 202.247 318.359 202.48 320.617L202.515 320.917C202.533 321.762 202.635 322.678 202.729 323.517C204.866 345.229 207.105 362.383 207.52 362.647C208.006 362.986 208.598 363.137 209.187 363.072C214.881 362.357 231.869 363.648 245.778 360.623C257.515 358.147 267.62 353.454 278.33 347.123C279.751 346.283 282.991 344.057 282.73 342.394C282.471 340.566 276.152 247.668 273.587 238.426C268.818 221.254 255.887 206.202 247.1 201.058C245.951 200.414 239.77 204.347 234.094 207.99C229.306 211.056 223.618 212.404 217.964 211.811L213.239 217.036C207.519 223.686 201.427 232.536 199.764 245.127C199.639 246.056 199.531 247.045 199.442 248.094C198.97 254.378 198.821 260.682 198.994 266.982V266.982Z" fill="#2A4E96"/>
<path d="M208.711 172.417C216.475 173.571 224.394 173.069 231.95 170.943L232.378 183.736C230.284 186.493 227.5 188.648 224.307 189.986C218.587 192.239 210.607 192.01 208.986 186.471C207.999 183.091 208.711 172.417 208.711 172.417V172.417Z" fill="#D2E4FF"/>
<path d="M231.064 184.564L230.937 184.082C231.057 184.051 237.294 179.57 240.05 173.85C240.793 172.308 241.599 169.837 240.803 169.538C236.962 168.096 230.603 172.638 231.328 171.903L231.472 171.185C231.809 171.027 237.254 167.798 241.293 169.315C242.22 169.663 241.278 172.615 240.469 174.296C239.603 176.292 238.416 178.132 236.953 179.743C235.253 181.647 233.266 183.274 231.064 184.564Z" fill="#D2E4FF"/>
<path d="M234.649 172.821C235.317 168.367 239.766 167.114 241.122 168.581C241.852 169.372 241.905 171.347 241.889 172.148C241.931 172.857 241.821 173.568 241.568 174.232C241.315 174.896 240.923 175.498 240.419 175.999C239.915 176.5 239.311 176.889 238.645 177.138C237.98 177.388 237.269 177.494 236.56 177.448C236.56 177.448 234.418 174.357 234.649 172.821Z" fill="#FFB27D"/>
<path d="M20.503 185.871C20.503 185.871 32.421 200.011 47.603 194.096C47.603 194.096 50.868 186.196 50.914 180.377C50.919 179.661 50.928 178.966 50.939 178.306C51.02 171.751 51.239 168.072 51.239 168.072H51.224C50.533 167.784 28.024 158.541 28.04 159.309C28.428 177.036 20.503 185.871 20.503 185.871V185.871Z" fill="#FFB27D"/>
<path d="M30.2999 163.534C32.4709 167.558 39.92 175.434 50.937 178.306C51.018 171.751 51.2369 168.072 51.2369 168.072H51.221C50.6 167.901 29.6529 162.347 30.2999 163.534Z" fill="#ED975D"/>
<path d="M55.954 167.391C55.954 167.391 30.637 173.343 27.173 157.52C23.709 141.697 18.109 131.808 34.126 127.339C50.143 122.87 54.617 128.218 57.058 133.218C59.499 138.218 62.45 165.435 55.954 167.391Z" fill="#FFB27D"/>
<path d="M28.0379 161.831C27.6919 162.052 22.244 163.726 11.928 143.174C10.7855 140.559 10.2849 137.708 10.4679 134.86C10.6509 132.012 11.5122 129.249 12.98 126.802C16.755 120.635 31.2339 108.426 41.2619 113.677C46.6412 116.595 52.5088 118.504 58.575 119.31C63.192 133.646 47.221 133.846 43.219 135.11C39.217 136.374 37.8039 142.677 37.5039 144.698C37.2039 146.719 36.7419 148.398 31.7099 146.598C26.6779 144.798 29.4349 153.729 30.2409 155.438C30.2399 155.43 30.9239 159.983 28.0379 161.831Z" fill="#071E42"/>
<path d="M61.35 322.098C61.35 322.098 60.785 329.157 59.89 340.398C59.31 347.707 58.59 356.789 57.8 366.848C44.31 366.848 41.071 366.987 34.586 366.197C26.6109 365.228 18.8094 363.154 11.406 360.035C8.46656 358.799 5.59578 357.405 2.806 355.861C2.235 345.799 1.745 336.998 1.384 330.451C0.966003 322.893 0.720978 318.351 0.720978 318.351L34.151 320.419L61.35 322.098Z" fill="#2B478B"/>
<path d="M51.441 325.314C51.441 325.314 49.21 330.908 45.461 340.057C42.608 347.014 38.878 356.028 34.586 366.198C17.432 364.114 0.46602 356.833 -14.355 343.698C-14.013 337.532 -13.266 329.379 -12.564 322.38C-11.744 314.219 -10.982 307.635 -10.982 307.635L34.149 320.419L51.441 325.314Z" fill="#2B478B"/>
<path d="M69.608 244.297C69.456 252.681 68.969 262.107 68.308 271.681L68.187 273.381C67.767 279.312 67.311 285.256 66.787 291.053C66.577 293.377 66.354 295.675 66.121 297.932L66.085 298.232C66.067 299.077 65.964 299.993 65.87 300.832C63.733 322.544 61.495 339.698 61.079 339.962C60.5933 340.301 60.0007 340.452 59.412 340.386C53.718 339.671 36.73 340.962 22.821 337.937C11.084 335.461 0.979008 330.768 -9.72999 324.437C-11.151 323.597 -14.391 321.371 -14.13 319.708C-13.871 317.88 -8.35804 227.955 -5.90004 218.683C0.708964 193.753 16.363 182.54 25.154 177.396C27.9158 180.426 31.0594 183.084 34.506 185.304C39.749 188.665 44.511 187.567 49.88 187.098L55.361 194.35C61.082 201 67.174 209.85 68.836 222.441C68.9613 223.37 69.0687 224.359 69.158 225.408C69.6305 231.693 69.7806 237.997 69.608 244.297V244.297Z" fill="#A9453D"/>
<path d="M59.781 149.614C51.9687 150.746 44.0061 150.232 36.404 148.106L35.976 160.9C38.0701 163.657 40.8541 165.812 44.047 167.15C49.767 169.403 57.747 169.174 59.367 163.635C60.355 160.254 59.781 149.614 59.781 149.614V149.614Z" fill="#D2E4FF"/>
<path d="M37.29 161.726L37.417 161.244C37.298 161.212 31.06 156.732 28.304 151.012C27.561 149.47 26.755 146.999 27.551 146.7C31.392 145.258 37.751 149.8 37.026 149.064L36.882 148.346C36.545 148.187 31.099 144.96 27.061 146.476C26.134 146.824 27.076 149.776 27.885 151.457C28.7512 153.453 29.9393 155.293 31.402 156.904C33.1014 158.808 35.0881 160.435 37.29 161.726V161.726Z" fill="#D2E4FF"/>
<path d="M33.705 149.985C33.037 145.531 28.588 144.278 27.232 145.745C26.502 146.535 26.449 148.511 26.464 149.312C26.4221 150.022 26.5316 150.732 26.785 151.396C27.0385 152.06 27.4301 152.662 27.9341 153.164C28.4381 153.665 29.0429 154.053 29.7084 154.303C30.3738 154.552 31.0847 154.658 31.794 154.612C31.794 154.612 33.935 151.52 33.705 149.985Z" fill="#FFB27D"/>
<path d="M88.297 188.552C88.835 187.512 95.03 176.495 112.68 184.088C112.68 184.088 103.659 181.08 100.412 184.138C100.412 184.138 108.412 182.238 112.448 185.966C116.484 189.694 115.348 199.301 114.091 202.043C112.834 204.785 106.053 212.343 102.691 211.674C101.375 211.353 100.136 210.77 99.048 209.962C99.2736 211.708 99.3971 213.466 99.418 215.227C99.641 232.727 85.937 243.257 80.794 238.954C77.494 236.194 73.403 242.114 73.403 242.114L50.802 195.279C50.802 195.279 77.331 173.824 88.297 188.552V188.552Z" fill="#071E42"/>
<path d="M45.253 366.843C27.6636 366.845 10.48 361.557 -4.06497 351.666C3.48003 328.894 22.709 272.222 28.573 268.184C32.618 265.396 41.983 264.405 50.246 264.107C58.305 263.816 65.315 264.182 65.315 264.182C65.315 264.182 71.323 264.192 78.998 265.059L79.254 265.09C79.267 265.089 79.28 265.089 79.293 265.09C87.944 266.083 98.618 268.16 105.208 272.508C111.017 276.339 131.545 354.02 134.908 366.873L45.253 366.843Z" fill="#F99746"/>
<path d="M79.259 265.064C76.459 260.452 74.471 249.664 75.417 235.269L73.631 238.285L52.305 241.15C52.305 241.15 52.372 247.812 52 254.058C51.9321 257.645 51.2813 261.198 50.073 264.576C49.995 264.582 49.993 264.59 50.06 264.598C49.735 265.151 42.819 277.113 51.998 279.307C76.925 285.264 79.163 266.033 79.256 265.107C79.335 265.092 79.34 265.079 79.259 265.064V265.064Z" fill="#FFB27D"/>
<path d="M52.302 241.152C52.302 241.152 52.37 247.812 52.002 254.059C63.812 254.459 70.71 244.089 73.633 238.287L52.302 241.152Z" fill="#ED975D"/>
<path d="M46.24 243.308C46.24 243.308 73.558 249.22 76.978 232.151C80.398 215.082 86.227 204.351 68.93 199.851C51.633 195.351 46.93 201.187 44.401 206.606C41.872 212.025 39.223 241.33 46.24 243.308V243.308Z" fill="#FFB27D"/>
<path d="M41.835 223.117C50.6505 224.443 59.647 223.883 68.23 221.474L68.715 235.979C66.3406 239.104 63.1843 241.548 59.5641 243.065C53.0791 245.619 44.028 245.359 42.194 239.08C41.075 235.247 41.835 223.117 41.835 223.117V223.117Z" fill="#D2E4FF"/>
<path d="M67.226 236.918L67.082 236.372C67.217 236.336 74.289 231.256 77.414 224.772C78.256 223.024 79.171 220.222 78.268 219.884C73.913 218.249 66.701 223.398 67.525 222.565L67.688 221.75C68.07 221.571 74.244 217.911 78.823 219.63C79.874 220.024 78.806 223.375 77.888 225.278C76.9064 227.541 75.5594 229.627 73.901 231.453C71.9742 233.611 69.7221 235.455 67.226 236.918V236.918Z" fill="#D2E4FF"/>
<path d="M47.104 197.278C52.364 192.987 55.3411 194.752 56.8271 196.653C73.4491 191.401 80.6761 205.501 80.6761 205.501C80.4029 213.208 82.8169 220.771 87.505 226.894C87.505 226.894 81.894 228.984 70.968 223.729C67.63 222.123 64.987 218.997 62.922 215.429C64.9736 220.995 67.7751 226.255 71.2491 231.063C58.7591 221.963 57.0491 201.73 56.9001 199.597C54.9271 200.766 50.979 203.373 49.336 206.372C47.103 210.448 44.706 219.272 42.158 218.451C42.161 218.454 39.22 203.714 47.104 197.278V197.278Z" fill="#071E42"/>
<path d="M-4.06499 351.722L-11.365 366.704H42.235L-4.06499 351.722Z" fill="#F99746"/>
<path d="M140.916 199.139C140.916 199.351 141.588 208.25 141.376 215.566C141.34 216.86 141.276 218.09 141.176 219.18H168.35C166.811 216.307 165.703 213.224 165.061 210.029C164.592 207.93 164.237 205.807 163.996 203.669C163.657 200.685 163.495 197.683 163.511 194.679L140.916 199.139Z" fill="#FFB27D"/>
<path d="M157.19 149.377C154.081 148.685 150.869 148.591 147.725 149.1C147.725 149.1 137.296 149.25 130.534 157.49C126.8 162.04 132.742 194.917 127.526 205.127C127.061 206.036 130.141 206.416 131.404 206.416C131.404 206.416 133.249 205.716 133.613 204.692C133.459 205.439 133.175 206.154 132.775 206.804C132.775 206.804 142.923 207.765 147.992 203.934C150.747 201.851 153.764 196.964 155.711 191.983L163.385 192.522C163.468 195.822 162.285 199.599 158.595 203.544C158.595 203.544 168.063 204.473 171.268 201.851C170.943 202.517 170.535 203.14 170.054 203.704C170.054 203.704 180.639 204.085 185.009 200.783C189.379 197.481 186.57 143.322 157.19 149.377V149.377Z" fill="#071E42"/>
<path d="M140.914 199.139C140.914 199.139 141.399 205.85 141.414 212.171C153.346 211.835 159.653 200.95 162.237 194.917L140.914 199.139Z" fill="#ED975D"/>
<path d="M136.928 205.125C136.928 205.125 165.158 205.591 165.177 188.006C165.196 170.421 168.854 158.638 150.83 157.597C132.806 156.556 129.297 163.262 127.863 169.13C126.429 174.998 129.585 204.551 136.928 205.125Z" fill="#FFB27D"/>
<path d="M139.888 158.842C139.888 158.842 134.116 163.448 132.709 167.925C131.302 172.402 130.669 181.625 127.981 181.308C127.981 181.308 122.159 167.286 128.702 159.353C135.642 150.942 139.888 158.842 139.888 158.842V158.842Z" fill="#071E42"/>
<path d="M202.506 366.903L182.828 366.896L168.79 366.891L118.981 366.872H112.17C112.679 361.054 113.729 355.295 115.307 349.672C119.861 334.758 122.573 325.755 123.614 322.288L123.942 321.199L124.105 320.651C124.105 320.651 145.724 326.076 168.771 322.645C172.113 322.154 175.424 321.467 178.686 320.588C180.047 320.219 181.401 319.811 182.748 319.364L183.001 319.903C184.989 324.148 198.112 352.36 201.936 365.003C202.123 365.607 202.313 366.24 202.506 366.903V366.903Z" fill="#031530"/>
<path d="M211.776 366.908C207.665 362.508 204.334 357.27 203.576 354.756C202.037 349.644 191.696 313.656 189.586 303.602C189.206 301.777 188.986 300.71 188.986 300.71C188.986 300.712 188.986 300.713 188.986 300.715C188.986 300.721 188.979 300.732 188.971 300.749C188.968 300.757 188.965 300.765 188.961 300.772L188.922 300.866L188.87 300.992C188.855 301.028 188.84 301.067 188.821 301.11C188.812 301.134 188.8 301.158 188.79 301.186C187.731 303.711 184.067 312.586 183.321 314.824C183.183 315.158 183.085 315.506 183.029 315.863C182.869 317.097 182.797 318.5 182.752 319.286V319.357C182.752 319.357 151.482 335.14 124.107 320.644C124.107 320.644 124.023 319.967 123.873 318.732C123.714 317.42 123.48 315.477 123.193 313.046C122.033 303.131 120.015 285.079 118.662 268.416C118.661 268.413 118.661 268.41 118.662 268.407C118.294 263.855 117.972 259.407 117.734 255.256V255.25C117.098 244.25 117.028 235.343 118.103 232.15C119.703 227.418 132.651 224.45 137.809 223.444C138.861 222.323 138.749 220.195 138.322 218.244C138.235 217.86 138.249 217.459 138.361 217.082C138.474 216.704 138.682 216.361 138.965 216.087C139.247 215.813 139.596 215.616 139.977 215.515C140.358 215.414 140.758 215.413 141.14 215.511C141.217 215.531 141.296 215.55 141.376 215.569C144.64 216.342 150.308 216.157 156.376 214.169C159.679 213.1 162.815 211.568 165.688 209.619C165.89 209.483 166.123 209.4 166.366 209.38C166.609 209.36 166.853 209.402 167.074 209.503C167.296 209.604 167.488 209.761 167.631 209.957C167.775 210.154 167.866 210.384 167.895 210.626C168.369 214.461 169.528 221.464 171.642 221.464C174.554 221.447 194.435 223.888 195.893 226.348C196.4 227.205 201.568 238.898 208.093 254.391C208.098 254.404 208.102 254.418 208.104 254.432C208.225 254.721 208.349 255.012 208.475 255.306C220.845 284.515 245.324 335.134 245.324 344.416C245.324 349.29 239.849 359.791 233.824 366.925L211.776 366.908Z" fill="#D2E4FF"/>
<path d="M188.992 300.711C188.992 300.711 183.23 314.462 183.049 315.744C182.968 316.321 182.898 317.113 182.849 317.812C180.007 320.091 176.753 321.802 173.264 322.852C163.516 325.806 159.28 307.121 159.864 297.797C160.448 288.473 174.233 261.865 178.824 261.311C183.415 260.757 188.992 300.711 188.992 300.711V300.711Z" fill="#B6DBFF"/>
<path d="M189.585 303.601C189.206 301.777 188.991 300.711 188.991 300.711C189.285 301.652 189.484 302.62 189.585 303.601Z" fill="#E58638"/>
<path d="M149.42 327.625C131.625 327.625 124.486 321.609 123.943 321.192L122.792 312.812C122.963 312.938 146.839 327.275 183.792 313.545L183.009 319.894C168.796 325.175 158.661 327.625 149.42 327.625V327.625Z" fill="#A9453D"/>
<path d="M245.317 344.408C245.317 349.282 239.842 359.783 233.817 366.916H228.028C229.17 335.938 208.628 256.17 208.099 254.425C208.221 254.714 208.344 255.006 208.47 255.299C220.837 284.508 245.317 335.127 245.317 344.408Z" fill="#B6DBFF"/>
<path d="M171.634 221.457C171.634 221.457 156.747 230.884 145.484 228.657C145.484 228.657 142.784 226.949 146.509 225.23C150.009 223.622 158.157 218.862 156.367 214.166C159.67 213.097 162.805 211.564 165.678 209.615C165.88 209.479 166.113 209.397 166.356 209.377C166.599 209.357 166.843 209.399 167.064 209.5C167.286 209.602 167.478 209.758 167.622 209.954C167.766 210.151 167.857 210.381 167.886 210.623C168.359 214.454 169.519 221.457 171.634 221.457V221.457Z" fill="#B6DBFF"/>
<path d="M128.667 187.122C128.667 187.122 143.224 188.138 155.758 183.252L157.322 197.163C157.322 197.163 136.285 213.302 132.054 202.152C130.688 198.551 128.667 187.122 128.667 187.122Z" fill="#EEF6FF"/>
<path d="M155.962 198.177L155.781 197.663C155.908 197.618 162.325 192.198 164.839 185.726C165.517 183.981 166.184 181.218 165.29 180.96C160.979 179.718 154.434 185.214 155.163 184.351L155.263 183.551C155.618 183.351 161.277 179.363 165.81 180.669C166.851 180.969 166.077 184.269 165.339 186.169C164.566 188.419 163.428 190.527 161.972 192.409C160.282 194.633 158.254 196.579 155.962 198.177V198.177Z" fill="#EEF6FF"/>
<path d="M160.004 182.892C160.351 177.979 165.094 176.231 166.698 177.714C167.562 178.514 167.79 180.662 167.841 181.537C167.948 182.307 167.89 183.091 167.671 183.837C167.451 184.583 167.076 185.274 166.57 185.863C166.063 186.453 165.437 186.928 164.733 187.258C164.029 187.587 163.262 187.763 162.485 187.774C162.485 187.774 159.885 184.586 160.004 182.892Z" fill="#FFB27D"/>
<path d="M138.816 159.538C138.816 159.538 144.323 181.138 159.291 188.061C159.291 188.061 144.323 174.788 143.053 160.527C141.783 146.266 138.816 159.538 138.816 159.538V159.538Z" fill="#071E42"/>
<path d="M137.973 157.167C137.973 157.167 145.703 177.797 157.565 180.847C169.427 183.897 174.573 180.719 174.573 180.719C168.72 175.578 164.836 168.563 163.585 160.874C163.585 160.874 143.803 147.348 137.973 157.167V157.167Z" fill="#071E42"/>
<path d="M311.745 151.42C311.745 151.42 289.482 152.713 288.871 177.56C288.26 202.407 316.346 262.747 316.346 262.747L369.904 256.769C369.904 256.769 353.35 141.965 311.745 151.42V151.42Z" fill="#1C468A"/>
<path d="M356.341 366.964L306.112 366.945L296.496 366.939H282.873C281.857 363.418 282.025 359.023 283.719 353.608C286.561 344.667 288.417 335.442 289.256 326.098C289.349 325.03 289.426 323.976 289.488 322.931C291.197 294.56 282.268 274.805 283.444 257.474C284.464 242.429 298.407 230.842 301.886 228.174C302.386 227.79 302.668 227.591 302.668 227.591C302.668 227.591 304.068 227.31 305.601 227.172C306.535 226.68 306.913 223.284 307.028 219.305C307.06 218.205 307.071 217.051 307.067 215.905C307.061 213.563 306.992 211.169 306.906 209.082C306.898 208.94 306.893 208.799 306.887 208.661C306.745 205.32 306.568 202.861 306.568 202.861L322.542 199.698L324.504 199.31L325.904 199.035L327.904 198.635L329.173 198.384V198.395C329.116 203.557 329.636 208.71 330.722 213.757C332.11 219.902 334.174 223.902 335.86 225.257C336.062 225.426 336.289 225.564 336.532 225.665C336.591 225.688 336.651 225.709 336.712 225.725C343.412 227.097 352.797 240.866 357.19 258.183C359.627 267.406 360.23 277.018 358.963 286.473C358.439 290.076 357.556 293.618 356.325 297.045C355.736 298.675 355.178 300.197 354.652 301.623C354.552 301.879 354.463 302.134 354.371 302.383C351.34 310.583 349.435 315.521 348.736 319.516L348.731 319.548C348.606 320.247 348.519 320.952 348.472 321.661C348.439 322.146 348.425 322.621 348.437 323.093V323.1C348.436 323.121 348.436 323.141 348.437 323.162C348.602 330.151 353.337 336.433 363.249 358.649C364.298 361.008 361.478 363.996 356.341 366.964V366.964Z" fill="#FFB27D"/>
<path d="M306.566 202.868C306.566 202.868 307.052 209.583 307.066 215.909C319.006 215.573 325.317 204.68 327.903 198.643L306.566 202.868Z" fill="#ED975D"/>
<path d="M302.578 208.854C302.578 208.854 330.828 209.32 330.847 191.723C330.866 174.126 334.526 162.335 316.49 161.294C298.454 160.253 294.942 166.963 293.507 172.835C292.072 178.707 295.231 208.28 302.578 208.854V208.854Z" fill="#FFB27D"/>
<path d="M393.639 363.678C389.577 365.289 385.31 366.322 380.961 366.748C378.798 362.948 376.492 358.838 374.24 354.711C367.946 343.174 362.087 331.523 360.987 326.299C360.155 322.367 358.122 314.499 355.747 305.681C355.388 304.348 355.023 302.993 354.647 301.627C354.342 300.5 354.033 299.367 353.722 298.227C349.256 281.865 344.492 265.081 344.492 265.081L343.259 259.743L342.405 256.043L335.525 226.243L335.283 225.201L335.856 225.263C336.138 225.296 336.521 225.341 336.984 225.399C340.884 225.891 350.634 227.312 356.893 229.929C359.534 231.029 361.548 232.347 362.252 233.891C364.589 239.031 366.925 247.299 369.152 256.852C372.505 271.241 375.604 288.545 378.075 302.485C380.365 315.411 382.111 325.446 383.026 327.573C384.226 330.367 386.584 339.096 389.442 349.231C389.723 350.236 390.011 351.255 390.306 352.286C391.374 356.028 392.494 359.898 393.639 363.678V363.678Z" fill="#D9935C"/>
<path d="M367.044 366.968C362.226 352.441 348.436 323.168 348.436 323.168L348.425 323.174C347.088 323.619 345.742 324.024 344.387 324.389C341.119 325.272 337.802 325.961 334.453 326.452C311.39 329.885 289.759 324.452 289.759 324.452L289.267 326.091C288.226 329.56 285.512 338.57 280.954 353.491C279.69 357.888 278.787 362.382 278.254 366.926L367.044 366.968Z" fill="#A9453D"/>
<path d="M373.797 258.19C373.795 258.176 373.791 258.162 373.786 258.149C367.255 242.649 362.086 230.944 361.576 230.086C360.118 227.626 340.224 225.186 337.309 225.2C335.192 225.2 334.032 218.192 333.56 214.355C333.531 214.113 333.44 213.882 333.296 213.686C333.152 213.489 332.96 213.332 332.738 213.231C332.516 213.13 332.272 213.087 332.029 213.108C331.786 213.128 331.552 213.21 331.35 213.347C328.475 215.297 325.338 216.83 322.032 217.9C315.816 219.941 310.015 220.087 306.791 219.247C306.409 219.148 306.008 219.148 305.626 219.249C305.245 219.349 304.895 219.547 304.612 219.821C304.328 220.096 304.12 220.439 304.008 220.817C303.895 221.195 303.882 221.596 303.969 221.981C304.397 223.934 304.509 226.063 303.456 227.181C298.294 228.187 285.331 231.158 283.736 235.894C280.416 246.119 279.988 257.062 282.5 267.515C283.846 290.345 289.748 324.45 289.748 324.45C317.14 338.957 348.434 323.162 348.434 323.162C348.434 323.162 348.469 322.462 348.527 321.617C348.58 320.917 348.649 320.124 348.727 319.547C348.907 318.265 354.674 304.504 354.674 304.504C354.674 304.504 354.89 305.571 355.269 307.396C357.38 317.46 364.61 350.519 369.047 353.496C371.618 355.216 379.839 355.245 387.559 353.135C395.587 350.942 403.067 346.435 403.067 339.101C403.071 329.72 386.053 287.273 373.797 258.19V258.19Z" fill="#F99746"/>
<path d="M354.677 304.509C354.677 304.509 348.911 318.269 348.73 319.552C348.648 320.129 348.578 320.922 348.53 321.622C345.686 323.903 342.429 325.615 338.937 326.665C329.182 329.621 324.943 310.923 325.527 301.593C326.111 292.263 339.906 265.635 344.5 265.082C349.094 264.529 354.677 304.509 354.677 304.509V304.509Z" fill="#E58033"/>
<path d="M355.274 307.4C354.894 305.575 354.674 304.508 354.674 304.508C354.97 305.45 355.171 306.418 355.274 307.4V307.4Z" fill="#E58638"/>
<path d="M403.073 339.101C403.073 346.436 395.592 350.943 387.564 353.136C398.63 339.958 374.415 260.224 373.797 258.189C386.052 287.272 403.073 329.719 403.073 339.101Z" fill="#E58033"/>
<path d="M337.308 225.199C337.308 225.199 322.408 234.633 311.141 232.399C311.141 232.399 308.435 230.69 312.167 228.971C315.667 227.362 323.823 222.598 322.033 217.899C325.338 216.829 328.475 215.296 331.35 213.346C331.552 213.21 331.786 213.127 332.029 213.107C332.272 213.087 332.516 213.13 332.737 213.231C332.959 213.332 333.151 213.489 333.295 213.686C333.439 213.883 333.53 214.113 333.559 214.355C334.032 218.191 335.192 225.199 337.308 225.199V225.199Z" fill="#E58033"/>
<path d="M293.17 170.196C293.17 170.196 298.389 159.164 312.17 182.116C313.922 185.034 321.387 187.501 324.03 186.616C336.969 182.265 333.36 199.539 333.36 199.539C333.36 199.539 334.608 155.177 323.753 154.363C312.898 153.549 293.17 170.196 293.17 170.196V170.196Z" fill="#1C468A"/>
<path d="M306.566 161.642C306.566 161.642 300.509 165.557 291.721 178.995C291.721 178.995 291.178 166.643 296.336 163.521C299.401 161.663 303.041 160.994 306.566 161.642V161.642Z" fill="#1C468A"/>
<path d="M294.012 188.243C294.012 188.243 308.776 193.243 321.092 188.243L322.827 201.966C322.827 201.966 301.797 216.154 297.466 205.196C296.067 201.656 294.012 188.243 294.012 188.243V188.243Z" fill="#D2E4FF"/>
<path d="M321.496 202.987L321.31 202.481C321.436 202.435 327.701 196.993 330.098 190.564C330.743 188.831 331.364 186.092 330.478 185.85C326.202 184.681 319.81 190.2 320.519 189.338L320.602 188.55C320.95 188.35 326.487 184.331 330.982 185.56C332.015 185.842 331.296 189.115 330.593 191.002C329.86 193.236 328.765 195.334 327.352 197.213C325.713 199.431 323.737 201.379 321.496 202.987V202.987Z" fill="#D2E4FF"/>
<path d="M324.029 188.694C324.305 183.835 328.967 182.045 330.572 183.487C331.436 184.265 331.69 186.387 331.753 187.249C331.869 188.008 331.822 188.784 331.616 189.524C331.409 190.263 331.048 190.951 330.555 191.541C330.063 192.13 329.451 192.608 328.76 192.943C328.068 193.278 327.314 193.463 326.546 193.484C326.546 193.484 323.935 190.369 324.029 188.694V188.694Z" fill="#FFB27D"/>
<path d="M282.739 234.174C282.739 234.174 269.85 231.928 258.901 239.228C247.952 246.528 246.365 282.46 240.841 286.112C235.317 289.764 211.641 299.306 217.161 313.626C222.681 327.946 213.07 334.404 216.333 344.226C219.596 354.048 300.325 363.607 306.566 356.588C312.807 349.569 317.889 326.207 314.506 319.919C311.123 313.631 296.233 308.096 301.652 301.735C316.819 283.926 311.14 232.399 282.739 234.174Z" fill="#A9453D"/>
<path d="M309.17 337.293C304.447 341.585 298.944 344.931 292.961 347.151C267.225 357.166 253.756 336.14 247.682 321.251C250.241 319.307 253.176 317.917 256.302 317.171C256.693 317.071 257.089 316.964 257.486 316.865C259.198 316.441 260.77 315.579 262.048 314.364C263.326 313.149 264.266 311.622 264.776 309.934C266.241 305.043 267.194 297.667 266.488 288.454L267.788 288.608L289.608 291.308C289.608 291.308 289.614 298.118 290.057 304.492C290.203 306.971 290.489 309.44 290.915 311.886C291.096 312.823 291.577 313.675 292.286 314.314C292.994 314.953 293.892 315.344 294.842 315.428C294.845 315.435 294.849 315.441 294.855 315.446C300.314 322.254 305.107 329.57 309.17 337.293V337.293Z" fill="#FFB27D"/>
<path d="M221.158 366.91C223.283 358.945 231.299 330.377 237.143 324.71C242.785 319.242 255.885 317.229 256.293 317.167H256.302C256.302 317.167 256.516 317.867 256.88 319.006C258.052 322.697 260.799 331.019 262.969 335.025C263.324 335.777 263.81 336.461 264.404 337.043C265.533 337.935 272.591 338.656 280.526 338.888C281.161 338.907 281.803 338.922 282.447 338.933C293.223 339.133 304.847 338.418 305.147 336.021C305.682 331.76 295.253 316.041 294.862 315.446C294.857 315.44 294.852 315.434 294.849 315.427C307.508 316.159 314.508 319.918 314.508 319.918C326.514 332.06 331.632 349.429 333.189 366.956L221.158 366.91Z" fill="#071E42"/>
<path d="M289.612 291.308C289.612 291.308 289.612 298.114 290.062 304.492C278 305.026 270.84 294.506 267.791 288.609L289.612 291.308Z" fill="#ED985F"/>
<path d="M294.069 297.056C294.069 297.056 265.621 299.592 264.315 281.856C263.009 264.12 258.457 252.496 276.565 250.127C294.673 247.758 298.704 254.267 300.58 260.082C302.456 265.897 301.436 295.939 294.069 297.056V297.056Z" fill="#FFB27D"/>
<path d="M301.128 275.869C291.617 277.701 281.81 277.29 272.486 274.669L271.955 290.553C271.955 290.553 274.575 293.861 280.896 296.353C287.996 299.153 296.103 299.042 298.727 292.376C300.863 286.944 301.128 275.869 301.128 275.869V275.869Z" fill="#D2E4FF"/>
<path d="M273.585 291.579L273.744 290.979C273.596 290.94 265.851 285.379 262.429 278.279C261.506 276.365 260.506 273.297 261.495 272.926C266.263 271.136 274.161 276.774 273.259 275.862L273.08 274.97C272.661 274.77 265.9 270.77 260.886 272.648C259.735 273.08 260.905 276.748 261.909 278.833C262.985 281.311 264.459 283.595 266.275 285.595C268.385 287.958 270.852 289.977 273.585 291.579V291.579Z" fill="#D2E4FF"/>
<path d="M269.135 277C268.306 271.47 262.781 269.915 261.099 271.736C260.192 272.718 260.125 275.17 260.145 276.165C260.093 277.046 260.228 277.928 260.543 278.753C260.857 279.577 261.344 280.326 261.969 280.948C262.595 281.57 263.346 282.053 264.172 282.363C264.998 282.673 265.881 282.804 266.762 282.747C266.762 282.747 269.421 278.907 269.135 277V277Z" fill="#FFB27D"/>
<path d="M299.018 250.274C294.229 245.257 290.986 246.674 289.239 248.409C273.051 240.98 263.939 254.361 263.939 254.361C263.24 262.21 259.835 269.572 254.307 275.188C254.307 275.188 259.731 278.018 271.475 274.072C275.063 272.867 278.138 270.032 280.684 266.679C277.899 272.063 274.393 277.043 270.262 281.479C284.077 273.833 288.375 253.535 288.794 251.391C291.645 251.257 296.918 252.942 299.788 259.805C301.62 264.186 301.354 272.374 301.354 272.374C301.354 272.374 306.202 257.798 299.018 250.274V250.274Z" fill="#A9453D"/>
<path d="M78.64 33.662L77.951 31.868L70.058 35.654C69.719 35.784 69.64 36.397 69.879 37.022C70.118 37.647 70.589 38.05 70.928 37.922L79.328 35.458L78.64 33.662Z" fill="#52969E"/>
<path d="M80.878 37.261C79.946 37.619 78.523 36.168 77.699 34.023C76.875 31.878 76.964 29.847 77.899 29.489C78.834 29.131 80.254 30.582 81.078 32.729C81.902 34.876 81.809 36.901 80.878 37.261Z" fill="#87D38C"/>
<path d="M15.65 49.303L16.161 51.152L24.385 48.152C24.735 48.052 24.874 47.452 24.696 46.807C24.518 46.162 24.09 45.716 23.74 45.807L15.14 47.44L15.65 49.303Z" fill="#52969E"/>
<path d="M13.774 45.5009C14.737 45.2359 16.012 46.8189 16.622 49.0349C17.232 51.2509 16.945 53.263 15.984 53.528C15.023 53.793 13.746 52.21 13.136 49.994C12.526 47.778 12.811 45.7659 13.774 45.5009Z" fill="#87D38C"/>
<path d="M47.184 6.91302H44.67L45.597 20.713C45.597 21.287 46.307 21.753 47.184 21.753C48.061 21.753 48.772 21.287 48.772 20.713L49.697 6.91302H47.184Z" fill="#52969E"/>
<path d="M52.628 5.64903C52.628 7.22803 50.19 8.50798 47.183 8.50798C44.176 8.50798 41.739 7.22803 41.739 5.64903C41.739 4.07003 44.177 2.78899 47.183 2.78899C50.189 2.78899 52.628 4.06803 52.628 5.64903V5.64903Z" fill="#87D38C"/>
<path d="M15.949 26.427L14.849 28.685L27.657 33.908C28.173 34.16 28.903 33.725 29.288 32.937C29.673 32.149 29.565 31.305 29.049 31.054L17.049 24.17L15.949 26.427Z" fill="#52969E"/>
<path d="M17.198 20.981C18.618 21.673 18.698 24.425 17.381 27.128C16.064 29.831 13.844 31.46 12.425 30.768C11.006 30.076 10.925 27.324 12.241 24.621C13.557 21.918 15.779 20.291 17.198 20.981Z" fill="#87D38C"/>
<path d="M19.798 63.06L21.346 65.041L31.652 55.813C32.105 55.459 32.034 54.613 31.494 53.922C30.954 53.231 30.15 52.957 29.694 53.311L18.247 61.079L19.798 63.06Z" fill="#52969E"/>
<path d="M15.449 59.55C16.694 58.577 19.203 59.71 21.049 62.079C22.895 64.448 23.393 67.158 22.149 68.131C20.905 69.104 18.395 67.97 16.549 65.601C14.703 63.232 14.205 60.521 15.449 59.55Z" fill="#87D38C"/>
<path d="M54.409 75.659L56.868 75.136L53.09 61.826C52.97 61.264 52.179 60.956 51.322 61.139C50.465 61.322 49.865 61.924 49.985 62.487L51.949 76.181L54.409 75.659Z" fill="#52969E"/>
<path d="M49.343 78.026C49.015 76.482 51.133 74.726 54.074 74.097C57.015 73.468 59.665 74.218 59.994 75.762C60.323 77.306 58.204 79.062 55.263 79.691C52.322 80.32 49.675 79.572 49.343 78.026Z" fill="#87D38C"/>
<path d="M80.904 50.0719L81.511 47.633L67.893 45.193C67.336 45.054 66.713 45.6309 66.5 46.4809C66.287 47.3309 66.568 48.135 67.125 48.274L80.295 52.511L80.904 50.0719Z" fill="#52969E"/>
<path d="M80.813 55.662C79.28 55.28 78.628 52.605 79.355 49.688C80.082 46.771 81.915 44.715 83.448 45.097C84.981 45.479 85.633 48.154 84.905 51.071C84.177 53.988 82.346 56.044 80.813 55.662Z" fill="#87D38C"/>
<path d="M69.522 15.044L67.597 13.432L59.434 24.602C59.065 25.042 59.31 25.855 59.982 26.419C60.654 26.983 61.497 27.083 61.866 26.643L71.448 16.664L69.522 15.044Z" fill="#52969E"/>
<path d="M74.506 17.574C73.491 18.784 70.799 18.198 68.497 16.265C66.195 14.332 65.15 11.785 66.164 10.575C67.178 9.36496 69.869 9.95098 72.173 11.884C74.477 13.817 75.52 16.364 74.506 17.574Z" fill="#87D38C"/>
<path d="M47.183 66.213C60.7405 66.213 71.731 55.2225 71.731 41.665C71.731 28.1075 60.7405 17.117 47.183 17.117C33.6255 17.117 22.635 28.1075 22.635 41.665C22.635 55.2225 33.6255 66.213 47.183 66.213Z" fill="#62B29A"/>
<path d="M30.788 36.19C30.7823 31.6924 32.1702 27.3035 34.761 23.627C32.1483 25.46 29.9684 27.8427 28.3745 30.6077C26.7805 33.3728 25.8112 36.4532 25.5345 39.6328C25.2577 42.8124 25.6803 46.0139 26.7726 49.0128C27.8648 52.0117 29.6003 54.7351 31.8571 56.9919C34.1139 59.2487 36.8373 60.9842 39.8362 62.0765C42.835 63.1687 46.0367 63.5913 49.2162 63.3146C52.3958 63.0378 55.4763 62.0685 58.2413 60.4745C61.0064 58.8806 63.3891 56.7008 65.222 54.088C61.946 56.3895 58.101 57.7473 54.1063 58.0134C50.1115 58.2795 46.1204 57.4436 42.5681 55.597C39.0158 53.7504 36.0387 50.9639 33.9614 47.5413C31.8841 44.1188 30.7864 40.1916 30.788 36.188V36.19Z" fill="#457F97"/>
<path d="M63.016 31.8666C64.1774 30.7052 63.2007 27.8455 60.8346 25.4793C58.4684 23.1131 55.6087 22.1364 54.4473 23.2979C53.2858 24.4593 54.2625 27.319 56.6287 29.6851C58.9949 32.0513 61.8546 33.028 63.016 31.8666Z" fill="#457F97"/>
<path d="M67.437 45.009C67.111 47.503 65.854 49.397 64.629 49.236C63.404 49.075 62.678 46.923 63.004 44.429C63.33 41.935 64.588 40.043 65.812 40.202C67.036 40.361 67.764 42.515 67.437 45.009V45.009Z" fill="#457F97"/>
<path d="M43.987 50.697C45.561 51.84 46.387 53.397 45.822 54.165C45.257 54.933 43.53 54.639 41.955 53.496C40.38 52.353 39.555 50.801 40.12 50.028C40.685 49.255 42.411 49.552 43.987 50.697V50.697Z" fill="#457F97"/>
<path d="M59.209 37.831C59.863 39.254 59.49 40.821 58.379 41.331C57.268 41.841 55.837 41.101 55.185 39.679C54.533 38.257 54.904 36.689 56.015 36.179C57.126 35.669 58.557 36.409 59.209 37.831Z" fill="#457F97"/>
<path d="M40.028 33.733C38.847 35.781 36.592 36.692 34.992 35.768C33.392 34.844 33.052 32.436 34.235 30.388C35.418 28.34 37.673 27.429 39.272 28.353C40.871 29.277 41.211 31.686 40.028 33.733Z" fill="#457F97"/>
<path d="M41.346 15.631L39.146 16.131L42.304 26.211C42.404 26.638 43.104 26.842 43.87 26.665C44.636 26.488 45.18 26.002 45.082 25.575L43.546 15.128L41.346 15.631Z" fill="#52969E"/>
<path d="M45.895 13.601C46.164 14.773 44.249 16.214 41.618 16.816C38.987 17.418 36.636 16.955 36.367 15.781C36.098 14.607 38.014 13.167 40.645 12.565C43.276 11.963 45.628 12.427 45.895 13.601Z" fill="#87D38C"/>
<path d="M30.287 13.808L28.638 14.785L33.8 22.113C33.99 22.434 34.61 22.413 35.185 22.076C35.76 21.739 36.073 21.2 35.885 20.876L31.932 12.833L30.287 13.808Z" fill="#52969E"/>
<path d="M33.44 10.989C33.961 11.869 32.785 13.53 30.813 14.698C28.841 15.866 26.819 16.098 26.298 15.221C25.777 14.344 26.953 12.681 28.926 11.513C30.899 10.345 32.919 10.11 33.44 10.989Z" fill="#87D38C"/>
<path d="M31.723 68.942L33.267 70.077L37.988 62.457C38.208 62.157 37.949 61.593 37.411 61.198C36.873 60.803 36.257 60.724 36.036 61.024L30.176 67.805L31.723 68.942Z" fill="#52969E"/>
<path d="M27.893 67.146C28.499 66.322 30.488 66.755 32.334 68.111C34.18 69.467 35.189 71.236 34.584 72.06C33.979 72.884 31.991 72.452 30.143 71.096C28.295 69.74 27.288 67.971 27.893 67.146V67.146Z" fill="#87D38C"/>
<path d="M73.535 61.003L74.677 59.454L67.227 54.861C66.934 54.646 66.375 54.91 65.979 55.45C65.583 55.99 65.498 56.602 65.79 56.817L72.397 62.554L73.535 61.003Z" fill="#52969E"/>
<path d="M71.716 64.832C70.91 64.241 71.362 62.261 72.722 60.407C74.082 58.553 75.838 57.531 76.642 58.123C77.446 58.715 76.996 60.695 75.636 62.548C74.276 64.401 72.52 65.422 71.716 64.832Z" fill="#87D38C"/>
<path d="M25.967 25.574L24.607 27.374L33.499 33.06C33.849 33.324 34.517 33.029 34.992 32.401C35.467 31.773 35.569 31.051 35.22 30.787L27.333 23.774L25.967 25.574Z" fill="#52969E"/>
<path d="M28.148 21.093C29.108 21.82 28.566 24.154 26.938 26.307C25.31 28.46 23.211 29.615 22.251 28.889C21.291 28.163 21.833 25.829 23.461 23.677C25.089 21.525 27.188 20.369 28.148 21.093V21.093Z" fill="#87D38C"/>
<path d="M20.58 43.077L20.693 45.331L31.16 43.971C31.598 43.948 31.921 43.293 31.881 42.508C31.841 41.723 31.455 41.103 31.017 41.125L20.466 40.825L20.58 43.077Z" fill="#52969E"/>
<path d="M19.371 38.244C20.571 38.184 21.659 40.32 21.794 43.015C21.929 45.71 21.066 47.946 19.863 48.006C18.66 48.066 17.576 45.931 17.44 43.235C17.304 40.539 18.169 38.305 19.371 38.244Z" fill="#87D38C"/>
<path d="M44.003 68.293L46.242 68.572L46.719 58.028C46.773 57.593 46.184 57.162 45.402 57.064C44.62 56.966 43.945 57.24 43.89 57.676L41.759 68.014L44.003 68.293Z" fill="#52969E"/>
<path d="M39.035 68.645C39.184 67.451 41.476 66.753 44.155 67.087C46.834 67.421 48.883 68.661 48.734 69.855C48.585 71.049 46.294 71.748 43.616 71.414C40.938 71.08 38.887 69.839 39.035 68.645V68.645Z" fill="#87D38C"/>
<path d="M61.856 64.208L63.75 62.982L57.338 54.597C57.1 54.229 56.371 54.278 55.71 54.705C55.049 55.132 54.71 55.777 54.944 56.144L59.959 65.432L61.856 64.208Z" fill="#52969E"/>
<path d="M58.276 67.6721C57.622 66.6601 58.93 64.653 61.196 63.187C63.462 61.721 65.829 61.353 66.483 62.364C67.137 63.375 65.829 65.382 63.563 66.848C61.297 68.314 58.929 68.6821 58.276 67.6721Z" fill="#87D38C"/>
<path d="M71.982 31.314L71.104 29.236L61.732 34.094C61.332 34.265 61.249 34.994 61.556 35.716C61.863 36.438 62.438 36.891 62.84 36.721L72.857 33.394L71.982 31.314Z" fill="#52969E"/>
<path d="M74.772 35.442C73.663 35.911 71.912 34.275 70.862 31.788C69.812 29.301 69.862 26.906 70.97 26.438C72.078 25.97 73.828 27.605 74.879 30.092C75.93 32.579 75.88 34.973 74.772 35.442V35.442Z" fill="#87D38C"/>
<path d="M57.802 19.738L55.795 18.71L51.74 28.455C51.54 28.845 51.946 29.455 52.647 29.81C53.348 30.165 54.077 30.143 54.276 29.753L59.811 20.766L57.802 19.738Z" fill="#52969E"/>
<path d="M62.593 21.107C62.045 22.178 59.652 22.05 57.249 20.82C54.846 19.59 53.343 17.72 53.892 16.653C54.441 15.586 56.833 15.71 59.236 16.939C61.639 18.168 63.139 20.035 62.593 21.107V21.107Z" fill="#87D38C"/>
<path d="M44.988 36.558C44.631 37.0116 44.1818 37.3843 43.6702 37.6516C43.1586 37.919 42.5962 38.0749 42.02 38.109C41.4438 38.1432 40.8668 38.0548 40.3272 37.8497C39.7877 37.6447 39.2976 37.3277 38.8895 36.9195C38.4814 36.5112 38.1644 36.0212 37.9594 35.4816C37.7545 34.942 37.6662 34.365 37.7005 33.7888C37.7347 33.2126 37.8907 32.6502 38.1582 32.1386C38.4256 31.6271 38.7984 31.178 39.252 30.821C39.6091 30.3674 40.0582 29.9947 40.5698 29.7274C41.0814 29.46 41.6438 29.3042 42.2201 29.27C42.7963 29.2359 43.3732 29.3242 43.9128 29.5293C44.4524 29.7343 44.9424 30.0513 45.3505 30.4596C45.7587 30.8678 46.0756 31.3579 46.2806 31.8975C46.4855 32.4371 46.5738 33.014 46.5395 33.5902C46.5053 34.1664 46.3493 34.7289 46.0819 35.2404C45.8144 35.752 45.4416 36.201 44.988 36.558V36.558Z" fill="#87D38C"/>
<path d="M41.736 43.481C42.047 43.9069 42.2283 44.4137 42.258 44.9402C42.2877 45.4668 42.1646 45.9907 41.9035 46.4489C41.6424 46.9071 41.2544 47.2801 40.7863 47.523C40.3182 47.7658 39.7898 47.8683 39.2648 47.8178C38.7399 47.7674 38.2406 47.5664 37.8273 47.2389C37.4139 46.9114 37.104 46.4713 36.9349 45.9718C36.7657 45.4722 36.7446 44.9345 36.8739 44.4232C37.0033 43.912 37.2777 43.449 37.664 43.09C38.2566 42.6038 39.0177 42.3719 39.7807 42.4452C40.5438 42.5184 41.2468 42.8909 41.736 43.481V43.481Z" fill="#87D38C"/>
<path d="M58.692 43.7979C59.0198 43.5584 59.4098 43.4187 59.8152 43.3957C60.2205 43.3726 60.6238 43.4673 60.9766 43.6681C61.3295 43.869 61.6167 44.1675 61.8038 44.5278C61.9908 44.8881 62.0698 45.2948 62.0311 45.699C61.9924 46.1031 61.8377 46.4874 61.5857 46.8057C61.3337 47.124 60.995 47.3626 60.6105 47.4929C60.226 47.6232 59.812 47.6395 59.4184 47.54C59.0249 47.4405 58.6684 47.2294 58.392 46.932C58.0182 46.4758 57.84 45.8903 57.8962 45.3031C57.9524 44.716 58.2385 44.1749 58.692 43.7979V43.7979Z" fill="#87D38C"/>
<path d="M49.394 47.908C49.923 47.5203 50.5529 47.2938 51.2077 47.2559C51.8626 47.2181 52.5143 47.3704 53.0845 47.6946C53.6547 48.0188 54.119 48.501 54.4213 49.0831C54.7236 49.6651 54.8511 50.3222 54.7885 50.9752C54.7258 51.6281 54.4756 52.2489 54.068 52.7628C53.6605 53.2767 53.113 53.6618 52.4915 53.8716C51.8701 54.0814 51.2012 54.107 50.5656 53.9452C49.9299 53.7835 49.3546 53.4413 48.909 52.96C48.3063 52.2246 48.019 51.2805 48.1098 50.334C48.2007 49.3875 48.6624 48.5153 49.394 47.908V47.908Z" fill="#87D38C"/>
<path d="M51.986 35.996C51.7622 35.6894 51.6318 35.3247 51.6104 34.9458C51.5891 34.5668 51.6777 34.1897 51.8657 33.86C52.0537 33.5302 52.3329 33.2618 52.6699 33.0871C53.0069 32.9123 53.3871 32.8387 53.765 32.8751C54.1428 32.9115 54.502 33.0562 54.7995 33.292C55.0969 33.5278 55.3199 33.8446 55.4415 34.2041C55.5631 34.5637 55.5782 34.9508 55.485 35.3187C55.3918 35.6866 55.1942 36.0198 54.916 36.2781C54.4894 36.6275 53.9418 36.794 53.3929 36.7411C52.8439 36.6883 52.3382 36.4204 51.986 35.996V35.996Z" fill="#87D38C"/>
<path d="M44.995 41.546C45.0905 40.9337 45.3609 40.3619 45.7737 39.8997C46.1866 39.4374 46.7242 39.1044 47.3219 38.9406C47.9196 38.7768 48.5519 38.7892 49.1428 38.9764C49.7336 39.1636 50.2577 39.5175 50.652 39.9957C51.0463 40.4738 51.294 41.0557 51.3653 41.6713C51.4366 42.287 51.3285 42.9101 51.0538 43.4657C50.7792 44.0213 50.3499 44.4857 49.8175 44.803C49.2851 45.1203 48.6724 45.2769 48.053 45.254C47.157 45.1649 46.3326 44.725 45.7597 44.0304C45.1868 43.3357 44.9119 42.4426 44.995 41.546V41.546Z" fill="#87D38C"/>
<path d="M121.665 16.163L121.37 15.395L117.992 17.015C117.847 17.071 117.813 17.333 117.915 17.601C118.017 17.869 118.215 18.041 118.364 17.986L121.958 16.931L121.665 16.163Z" fill="#52969E"/>
<path d="M122.623 17.703C122.223 17.856 121.615 17.2349 121.263 16.3169C120.911 15.3989 120.949 14.5299 121.347 14.3769C121.745 14.2239 122.355 14.845 122.707 15.763C123.059 16.681 123.021 17.55 122.623 17.703Z" fill="#87D38C"/>
<path d="M94.707 22.856L94.926 23.648L98.445 22.365C98.595 22.323 98.654 22.065 98.578 21.789C98.502 21.513 98.319 21.322 98.169 21.363L94.489 22.063L94.707 22.856Z" fill="#52969E"/>
<path d="M93.904 21.229C94.316 21.115 94.862 21.793 95.123 22.742C95.384 23.691 95.261 24.551 94.85 24.664C94.439 24.777 93.892 24.1 93.631 23.152C93.37 22.204 93.492 21.342 93.904 21.229V21.229Z" fill="#87D38C"/>
<path d="M108.203 4.71602H107.127L107.527 10.624C107.527 10.87 107.827 11.069 108.206 11.069C108.585 11.069 108.886 10.869 108.886 10.624L109.286 4.71602H108.203Z" fill="#52969E"/>
<path d="M110.533 4.17499C110.533 4.85099 109.49 5.39899 108.203 5.39899C106.916 5.39899 105.873 4.85099 105.873 4.17499C105.873 3.49899 106.916 2.95099 108.203 2.95099C109.49 2.95099 110.533 3.49799 110.533 4.17499Z" fill="#87D38C"/>
<path d="M94.836 13.069L94.364 14.036L99.848 16.269C100.069 16.377 100.381 16.191 100.548 15.854C100.715 15.517 100.666 15.154 100.448 15.048L95.313 12.102L94.836 13.069Z" fill="#52969E"/>
<path d="M95.371 10.737C95.978 11.037 96.014 12.211 95.449 13.367C94.884 14.523 93.935 15.221 93.328 14.925C92.721 14.629 92.685 13.451 93.249 12.295C93.813 11.139 94.763 10.441 95.371 10.737Z" fill="#87D38C"/>
<path d="M96.486 28.74L97.149 29.588L101.556 25.64C101.75 25.489 101.72 25.127 101.488 24.831C101.256 24.535 100.913 24.418 100.719 24.569L95.819 27.893L96.486 28.74Z" fill="#52969E"/>
<path d="M94.622 27.242C95.155 26.825 96.229 27.3101 97.022 28.3241C97.815 29.3381 98.022 30.497 97.492 30.914C96.962 31.331 95.885 30.845 95.092 29.831C94.299 28.817 94.089 27.658 94.622 27.242Z" fill="#87D38C"/>
<path d="M111.294 34.136L112.347 33.912L110.731 28.212C110.68 27.972 110.341 27.84 109.974 27.918C109.607 27.996 109.351 28.254 109.402 28.495L110.242 34.356L111.294 34.136Z" fill="#52969E"/>
<path d="M109.128 35.149C108.988 34.488 109.894 33.735 111.153 33.468C112.412 33.201 113.546 33.52 113.687 34.18C113.828 34.84 112.921 35.594 111.662 35.862C110.403 36.13 109.269 35.808 109.128 35.149Z" fill="#87D38C"/>
<path d="M122.633 23.186L122.893 22.142L117.069 21.098C116.831 21.038 116.564 21.285 116.469 21.649C116.374 22.013 116.498 22.357 116.737 22.416L122.369 24.227L122.633 23.186Z" fill="#52969E"/>
<path d="M122.594 25.578C121.938 25.414 121.659 24.2701 121.97 23.0211C122.281 21.7721 123.07 20.893 123.721 21.057C124.372 21.221 124.656 22.365 124.344 23.614C124.032 24.863 123.25 25.742 122.594 25.578V25.578Z" fill="#87D38C"/>
<path d="M117.763 8.196L116.939 7.50398L113.445 12.284C113.287 12.472 113.392 12.82 113.68 13.062C113.968 13.304 114.328 13.346 114.486 13.162L118.586 8.89198L117.763 8.196Z" fill="#52969E"/>
<path d="M119.897 9.27799C119.462 9.79599 118.311 9.54499 117.325 8.71799C116.339 7.89099 115.892 6.80099 116.325 6.28299C116.758 5.76499 117.911 6.01599 118.897 6.84299C119.883 7.66999 120.329 8.76099 119.897 9.27799Z" fill="#87D38C"/>
<path d="M108.203 30.095C114.005 30.095 118.709 25.3913 118.709 19.589C118.709 13.7867 114.005 9.08301 108.203 9.08301C102.401 9.08301 97.697 13.7867 97.697 19.589C97.697 25.3913 102.401 30.095 108.203 30.095Z" fill="#62B29A"/>
<path d="M101.187 17.248C101.185 15.3234 101.778 13.4453 102.887 11.872C101.768 12.656 100.833 13.6756 100.15 14.8593C99.467 16.0429 99.0513 17.3617 98.9324 18.7232C98.8134 20.0847 98.9941 21.4557 99.4616 22.7399C99.9292 24.024 100.672 25.1902 101.639 26.1565C102.605 27.1228 103.772 27.8656 105.056 28.3329C106.34 28.8002 107.711 28.9805 109.073 28.8612C110.434 28.7419 111.753 28.3259 112.936 27.6425C114.12 26.959 115.139 26.0246 115.923 24.905C114.521 25.8895 112.876 26.4704 111.166 26.5841C109.457 26.6978 107.749 26.3401 106.229 25.5499C104.709 24.7598 103.435 23.5675 102.546 22.103C101.657 20.6386 101.187 18.9582 101.187 17.245V17.248Z" fill="#457F97"/>
<path d="M114.98 15.3949C115.477 14.8978 115.059 13.6739 114.046 12.6613C113.034 11.6486 111.81 11.2308 111.312 11.7279C110.815 12.225 111.233 13.4489 112.246 14.4616C113.258 15.4742 114.482 15.8921 114.98 15.3949Z" fill="#457F97"/>
<path d="M116.871 21.019C116.732 22.086 116.194 22.8961 115.671 22.8281C115.148 22.7601 114.836 21.838 114.971 20.771C115.106 19.704 115.649 18.894 116.171 18.962C116.693 19.03 117.011 19.951 116.871 21.019Z" fill="#457F97"/>
<path d="M106.836 23.452C107.51 23.941 107.862 24.606 107.621 24.936C107.38 25.266 106.64 25.136 105.966 24.65C105.292 24.164 104.94 23.497 105.181 23.166C105.422 22.835 106.161 22.963 106.836 23.452Z" fill="#457F97"/>
<path d="M113.35 17.948C113.384 18.1277 113.366 18.3133 113.3 18.4836C113.233 18.6538 113.12 18.8019 112.973 18.911C112.826 19.0201 112.652 19.0858 112.47 19.1006C112.287 19.1154 112.105 19.0787 111.942 18.9947C111.78 18.9107 111.644 18.7828 111.551 18.6255C111.458 18.4683 111.411 18.2879 111.415 18.1051C111.419 17.9224 111.475 17.7444 111.575 17.5917C111.676 17.4389 111.817 17.3174 111.983 17.241C112.258 17.1567 112.555 17.1835 112.811 17.3157C113.066 17.4478 113.26 17.6748 113.35 17.948V17.948Z" fill="#457F97"/>
<path d="M105.141 16.194C105.079 16.4094 104.969 16.6079 104.819 16.7744C104.669 16.9409 104.484 17.0711 104.276 17.1551C104.068 17.239 103.844 17.2746 103.62 17.2589C103.397 17.2433 103.18 17.177 102.986 17.065C102.792 16.9529 102.626 16.7981 102.5 16.6124C102.375 16.4266 102.294 16.2148 102.262 15.9929C102.231 15.771 102.251 15.5449 102.32 15.3318C102.389 15.1187 102.506 14.9242 102.662 14.763C102.724 14.5476 102.834 14.3491 102.984 14.1826C103.134 14.0161 103.319 13.8859 103.527 13.8019C103.735 13.718 103.959 13.6824 104.183 13.698C104.406 13.7136 104.623 13.78 104.817 13.892C105.011 14.004 105.177 14.1588 105.303 14.3445C105.428 14.5303 105.509 14.7422 105.541 14.9641C105.572 15.186 105.552 15.412 105.483 15.6252C105.414 15.8383 105.297 16.0328 105.141 16.194V16.194Z" fill="#457F97"/>
<path d="M105.704 8.44598L104.763 8.66101L106.114 12.971C106.156 13.154 106.456 13.241 106.784 13.166C107.112 13.091 107.345 12.882 107.303 12.699L106.645 8.22998L105.704 8.44598Z" fill="#52969E"/>
<path d="M107.652 7.57797C107.767 8.07797 106.952 8.69601 105.822 8.95401C104.692 9.21201 103.69 9.01301 103.575 8.51101C103.46 8.00901 104.275 7.392 105.406 7.134C106.537 6.876 107.537 7.07497 107.652 7.57797V7.57797Z" fill="#87D38C"/>
<path d="M100.972 7.66599L100.266 8.08401L102.475 11.22C102.557 11.357 102.821 11.35 103.068 11.204C103.315 11.058 103.448 10.829 103.368 10.692L101.679 7.24802L100.972 7.66599Z" fill="#52969E"/>
<path d="M102.32 6.45999C102.543 6.83699 102.04 7.54703 101.196 8.04703C100.352 8.54703 99.487 8.64703 99.264 8.27103C99.041 7.89503 99.544 7.18399 100.389 6.68399C101.234 6.18399 102.098 6.08399 102.32 6.45999V6.45999Z" fill="#87D38C"/>
<path d="M101.586 31.258L102.247 31.744L104.267 28.483C104.361 28.355 104.25 28.114 104.02 27.945C103.79 27.776 103.526 27.745 103.432 27.871L100.925 30.771L101.586 31.258Z" fill="#52969E"/>
<path d="M99.947 30.493C100.206 30.141 101.057 30.326 101.847 30.906C102.637 31.486 103.069 32.243 102.81 32.596C102.551 32.949 101.7 32.764 100.91 32.184C100.12 31.604 99.688 30.846 99.947 30.493Z" fill="#87D38C"/>
<path d="M119.48 27.864L119.967 27.201L116.779 25.235C116.653 25.143 116.414 25.256 116.245 25.487C116.076 25.718 116.039 25.98 116.164 26.072L118.994 28.526L119.48 27.864Z" fill="#52969E"/>
<path d="M118.702 29.501C118.357 29.248 118.551 28.401 119.133 27.607C119.715 26.813 120.466 26.376 120.811 26.63C121.156 26.884 120.962 27.73 120.38 28.523C119.798 29.316 119.046 29.754 118.702 29.501Z" fill="#87D38C"/>
<path d="M99.124 12.702L98.542 13.472L102.347 15.905C102.497 16.018 102.783 15.892 102.986 15.623C103.189 15.354 103.233 15.045 103.086 14.932L99.709 11.932L99.124 12.702Z" fill="#52969E"/>
<path d="M100.056 10.785C100.467 11.096 100.235 12.095 99.538 13.016C98.841 13.937 97.938 14.432 97.532 14.116C97.126 13.8 97.353 12.806 98.05 11.885C98.747 10.964 99.646 10.474 100.056 10.785Z" fill="#87D38C"/>
<path d="M96.817 20.193L96.865 21.157L101.344 20.575C101.531 20.565 101.67 20.285 101.652 19.949C101.634 19.613 101.47 19.349 101.282 19.357L96.767 19.229L96.817 20.193Z" fill="#52969E"/>
<path d="M96.3 18.124C96.815 18.098 97.279 19.012 97.337 20.166C97.395 21.32 97.025 22.276 96.511 22.302C95.997 22.328 95.532 21.415 95.474 20.26C95.416 19.105 95.786 18.146 96.3 18.124Z" fill="#87D38C"/>
<path d="M106.841 30.983L107.799 31.102L107.999 26.589C108.022 26.403 107.77 26.218 107.436 26.176C107.102 26.134 106.813 26.252 106.789 26.438L105.879 30.862L106.841 30.983Z" fill="#52969E"/>
<path d="M104.715 31.134C104.779 30.623 105.76 30.325 106.906 30.467C108.052 30.609 108.93 31.14 108.866 31.652C108.802 32.164 107.822 32.462 106.676 32.319C105.53 32.176 104.652 31.645 104.715 31.134V31.134Z" fill="#87D38C"/>
<path d="M114.482 29.235L115.293 28.711L112.549 25.123C112.449 24.965 112.135 24.986 111.849 25.169C111.563 25.352 111.419 25.628 111.521 25.785L113.667 29.76L114.482 29.235Z" fill="#52969E"/>
<path d="M112.95 30.717C112.67 30.284 113.23 29.425 114.2 28.797C115.17 28.169 116.183 28.012 116.463 28.445C116.743 28.878 116.183 29.737 115.213 30.364C114.243 30.991 113.23 31.15 112.95 30.717Z" fill="#87D38C"/>
<path d="M118.815 15.158L118.439 14.268L114.429 16.347C114.256 16.42 114.222 16.731 114.354 17.041C114.486 17.351 114.731 17.541 114.904 17.471L119.191 16.047L118.815 15.158Z" fill="#52969E"/>
<path d="M120.009 16.924C119.534 17.124 118.785 16.424 118.336 15.36C117.887 14.296 117.907 13.271 118.382 13.07C118.857 12.869 119.605 13.57 120.055 14.634C120.505 15.698 120.487 16.724 120.009 16.924Z" fill="#87D38C"/>
<path d="M112.747 10.205L111.888 9.76498L110.153 13.936C110.068 14.103 110.241 14.362 110.541 14.516C110.841 14.67 111.153 14.659 111.241 14.492L113.61 10.646L112.747 10.205Z" fill="#52969E"/>
<path d="M114.798 10.79C114.563 11.248 113.539 11.19 112.511 10.667C111.483 10.144 110.839 9.34201 111.075 8.88401C111.311 8.42601 112.334 8.48402 113.362 9.00602C114.39 9.52802 115.032 10.336 114.798 10.79V10.79Z" fill="#87D38C"/>
<path d="M107.262 17.403C106.997 17.6116 106.678 17.7392 106.343 17.7705C106.007 17.8018 105.67 17.7355 105.371 17.5796C105.072 17.4236 104.825 17.1847 104.659 16.8915C104.493 16.5983 104.415 16.2634 104.435 15.9271C104.455 15.5907 104.572 15.2673 104.771 14.9957C104.97 14.724 105.244 14.5158 105.559 14.3961C105.874 14.2764 106.217 14.2503 106.546 14.3208C106.876 14.3914 107.178 14.5558 107.416 14.794C107.74 15.1611 107.906 15.6414 107.877 16.1302C107.848 16.619 107.627 17.0766 107.262 17.403V17.403Z" fill="#87D38C"/>
<path d="M105.872 20.365C106.005 20.5473 106.083 20.7642 106.095 20.9895C106.108 21.2149 106.056 21.4391 105.944 21.6352C105.832 21.8313 105.666 21.991 105.466 22.095C105.265 22.199 105.039 22.2428 104.815 22.2213C104.59 22.1997 104.376 22.1138 104.199 21.9736C104.022 21.8335 103.89 21.6452 103.817 21.4315C103.745 21.2177 103.736 20.9875 103.791 20.7687C103.846 20.5499 103.964 20.3517 104.129 20.198C104.383 19.9903 104.708 19.8912 105.035 19.9225C105.361 19.9538 105.662 20.1128 105.872 20.365V20.365Z" fill="#87D38C"/>
<path d="M113.128 20.5C113.268 20.398 113.435 20.3386 113.608 20.3291C113.781 20.3195 113.953 20.3602 114.104 20.4461C114.254 20.5321 114.377 20.6597 114.457 20.8136C114.537 20.9676 114.57 21.1413 114.554 21.3139C114.537 21.4864 114.471 21.6506 114.363 21.7865C114.256 21.9224 114.111 22.0243 113.947 22.08C113.782 22.1357 113.606 22.1427 113.438 22.1004C113.269 22.058 113.117 21.9679 112.999 21.841C112.839 21.6457 112.763 21.3951 112.787 21.1439C112.811 20.8927 112.934 20.6612 113.128 20.5V20.5Z" fill="#87D38C"/>
<path d="M109.149 22.258C109.375 22.093 109.644 21.9968 109.924 21.9811C110.204 21.9655 110.482 22.0309 110.725 22.1696C110.968 22.3083 111.166 22.5144 111.295 22.763C111.424 23.0116 111.478 23.2922 111.452 23.571C111.425 23.8497 111.318 24.1148 111.144 24.3343C110.97 24.5538 110.737 24.7183 110.471 24.8081C110.206 24.8979 109.921 24.9092 109.649 24.8405C109.378 24.7718 109.132 24.6261 108.941 24.421C108.683 24.106 108.56 23.7019 108.599 23.2967C108.638 22.8915 108.836 22.5181 109.149 22.258V22.258Z" fill="#87D38C"/>
<path d="M110.258 17.162C110.162 17.0308 110.106 16.8746 110.097 16.7123C110.088 16.55 110.126 16.3885 110.206 16.2473C110.287 16.1061 110.407 15.9912 110.551 15.9164C110.695 15.8416 110.858 15.8102 111.02 15.8258C111.182 15.8414 111.335 15.9034 111.463 16.0044C111.59 16.1054 111.685 16.2411 111.737 16.3951C111.79 16.5491 111.796 16.7148 111.756 16.8723C111.716 17.0299 111.631 17.1725 111.512 17.283C111.329 17.4327 111.095 17.504 110.86 17.4813C110.625 17.4587 110.409 17.3438 110.258 17.162V17.162Z" fill="#87D38C"/>
<path d="M107.266 19.538C107.307 19.2759 107.423 19.0312 107.599 18.8334C107.776 18.6356 108.006 18.493 108.262 18.4229C108.518 18.3528 108.788 18.3581 109.041 18.4382C109.294 18.5183 109.518 18.6697 109.687 18.8743C109.856 19.079 109.962 19.328 109.992 19.5915C110.023 19.855 109.977 20.1217 109.859 20.3595C109.742 20.5973 109.558 20.796 109.33 20.9318C109.102 21.0677 108.84 21.1347 108.575 21.125C108.191 21.087 107.838 20.8988 107.593 20.6015C107.348 20.3041 107.23 19.9218 107.266 19.538V19.538Z" fill="#87D38C"/>
</g>
<defs>
<clipPath id="clip0">
<rect width="589.557" height="826" fill="white" transform="translate(-53 -459)"/>
</clipPath>
</defs>
</svg>
