<svg width="780" height="650" viewBox="0 0 780 650" fill="none" xmlns="http://www.w3.org/2000/svg">
<g clip-path="url(#clip0)">
<path d="M326.235 157.411C326.191 157.42 326.193 157.418 326.235 157.411V157.411Z" fill="#EBF3FA"/>
<path d="M194.626 649.706C153.626 649.706 114.931 634.659 83.017 606.364C15.95 546.908 -12.351 436.364 32.178 339.443C53.947 292.193 84.247 248.648 129.794 222.643C138.958 217.43 148.521 212.954 158.394 209.256C200.153 193.495 244.823 191.346 279.234 180.44C318.36 168.53 345.188 147.664 365.563 110.359C479.286 -97.971 853.527 2.51401 787.933 295.508C773.788 358.674 814.913 390.381 853.85 426.401C876.327 447.201 898.083 469.446 908.05 500.009C911.604 511.003 913.504 522.464 913.688 534.017C914.735 584.745 886.415 628.178 846.921 643.782C828.586 651.028 816.38 649.947 797.121 649.938L194.626 649.706Z" fill="#A7C4F3"/>
<path d="M737.667 388.204V649.915H733.732L683.042 649.897L665.042 649.886L639.749 649.879H630.861L610.128 649.872H608.787L559.494 649.851H523.979L506.414 649.844H489.059L452.215 649.83L425.93 649.82L332.672 649.785H319.919L305.431 649.778H303.865L253.314 649.76H251.551L218.117 649.746H205.013V388.204H737.667Z" fill="#071E42"/>
<path d="M425.932 649.795L305.432 649.749H303.866L253.315 649.731C251.881 631.479 250.424 613.084 249.029 595.557C245.205 547.509 241.841 505.979 240.685 491.733L240.257 486.476L290.804 483.395L374.666 460.005C374.666 460.005 375.332 465.673 376.239 474.052C377.939 489.689 380.487 514.779 381.139 530.101C382.139 553.628 403.379 620.913 421.463 643.332C423.095 645.385 424.588 647.544 425.932 649.795V649.795Z" fill="#1C468A"/>
<path d="M354.299 215.88C354.299 215.88 305.121 239.608 276.771 230.804C282.165 224.545 288.672 219.339 295.962 215.45C294.981 209.759 294.218 204.821 293.781 200.633C293.101 195.613 292.701 190.559 292.581 185.494L311.554 170.571L329.546 156.291C328.131 196.446 354.299 215.88 354.299 215.88V215.88Z" fill="#FFB27D"/>
<path d="M329.876 171.646C329.876 171.646 317.446 194.3 293.783 200.635C293.103 195.614 292.703 190.56 292.583 185.495L311.556 170.572L329.876 171.646Z" fill="#ED985F"/>
<path d="M283.932 184.841C283.932 184.841 330.845 192.515 335.249 163.674C339.653 134.833 348.673 116.401 318.907 110.281C289.141 104.161 281.627 114.303 277.779 123.581C273.931 132.859 271.843 182.102 283.932 184.841Z" fill="#FFB27D"/>
<path d="M352.301 106.829C352.727 106.341 353.709 105.947 355.895 105.829C354.647 105.121 353.245 104.726 351.811 104.679C351.354 101.639 349.737 96.259 344.505 94.951C345.357 95.4495 346.085 96.1338 346.635 96.953C347.186 97.7722 347.544 98.705 347.684 99.682C341.625 93.459 328.641 88.929 292.684 91.767C245.301 95.507 260.917 125.845 267.052 129.461C273.187 133.077 288.627 123.161 300.052 124.07C311.477 124.979 313.277 142.323 317.532 143.758C319.94 144.571 321.787 143.084 327.032 140.713C332.277 138.342 330.874 145.968 329.359 151.62C327.844 157.272 335.052 164.727 335.052 164.727L342.336 156.883C349.62 149.038 356.486 115.811 353.174 108.728C352.889 108.1 352.6 107.466 352.301 106.829V106.829Z" fill="#A9453D"/>
<path d="M435.828 407.377C435.355 396.065 409.766 273.908 387.69 240.39C373.459 218.782 343.911 204.013 343.911 204.013C341.95 202.513 329.622 209.371 318.281 214.843C307.921 219.886 301.681 219.774 291.866 217.843C291.866 217.843 281.233 224.508 277.939 227.078C265.253 236.978 252.962 252.849 247.186 275.398C242.391 294.506 239.55 329.081 238.025 364.94C237.262 381.262 236.717 397.584 236.499 413.151V413.688C236.39 415.299 236.39 416.911 236.39 418.514C235.845 458.35 236.39 490.021 237.153 490.558C237.954 491.302 239.002 491.723 240.095 491.741C250.782 491.523 281.862 497.431 308.139 494.741C330.384 492.593 350.014 486.156 371.053 476.917C373.894 475.632 380.323 472.201 380.214 469.188C380.105 465.755 379.778 460.922 379.342 454.695C379.093 451.169 378.805 447.223 378.525 442.895C377.384 425.453 376.225 401.85 376.906 375.03C386.371 388.779 393.429 398.609 394.14 400.13C396.599 405.405 392.718 487.46 392.718 487.46C397.727 497.26 417.149 498.542 417.149 498.542C417.149 498.542 436.297 418.689 435.828 407.377V407.377Z" fill="#1C468A"/>
<path d="M274.779 150.713C288.398 152.282 302.195 150.648 315.07 145.94L317.177 169.815C313.543 175.181 308.558 179.495 302.725 182.32C292.261 187.12 280.142 189.265 276.225 177.331C274.173 171.068 274.779 150.713 274.779 150.713V150.713Z" fill="#D2E4FF"/>
<path d="M314.806 171.495L314.518 170.608C314.737 170.537 325.942 161.523 330.511 150.548C331.743 147.59 332.997 142.888 331.478 142.41C324.151 140.11 312.722 149.246 314.006 147.798L314.206 146.44C314.82 146.109 324.67 139.519 332.375 141.94C334.144 142.496 332.684 148.115 331.343 151.34C329.928 155.16 327.895 158.722 325.325 161.883C322.341 165.615 318.792 168.858 314.806 171.495Z" fill="#D2E4FF"/>
<path d="M320.307 149.176C321.102 140.776 329.292 137.984 331.975 140.588C333.421 141.988 333.722 145.679 333.775 147.178C334.141 157.678 324.353 157.634 324.353 157.634C324.353 157.634 320.033 152.07 320.307 149.176V149.176Z" fill="#FFB27D"/>
<path d="M629.5 56.615C632.322 56.829 635.16 56.5132 637.866 55.684C645.215 53.399 658.799 47.296 679.881 59.168C699.346 70.13 720.087 137.268 728.568 143.799C737.049 150.33 748.497 153.281 747.225 166.648C745.953 180.015 730.688 188.919 740.864 197.399C751.04 205.879 737.953 236.799 709.091 236.181C680.229 235.563 607.337 203.149 607.953 187.341C608.569 171.533 612.818 170.541 621.081 158.102C629.344 145.663 597.735 126.997 599.547 101.774C601.189 78.939 618.157 55.807 629.5 56.615V56.615Z" fill="#A9453D"/>
<path d="M711.973 382.523C697.132 349.239 690.031 339.823 689.784 329.355C689.584 321.074 693.67 312.138 701.603 290.229C703.445 285.095 704.768 279.789 705.552 274.391C711.825 232.152 687.4 186.491 672.219 183.381C667.995 182.264 660.835 167.008 660.919 142.425L659.019 142.8L627.052 149.13C627.052 149.13 627.779 159.19 627.801 168.667C627.823 176.567 627.346 184.05 625.557 184.993C623.257 185.201 621.898 185.338 621.898 185.338C621.898 185.338 595.244 222.354 592.998 256.781C590.752 291.208 614.343 306.164 592.82 374.96C570.856 445.223 720.172 400.914 711.973 382.523V382.523Z" fill="#FFB27D"/>
<path d="M627.056 149.129C627.056 149.129 627.783 159.189 627.805 168.666C645.693 168.166 655.148 151.844 659.022 142.799L627.056 149.129Z" fill="#E8945B"/>
<path d="M621.081 158.103C621.081 158.103 663.404 158.803 663.433 132.438C663.462 106.073 668.944 88.41 641.923 86.85C614.902 85.29 609.642 95.344 607.491 104.141C605.34 112.938 610.073 157.242 621.081 158.103V158.103Z" fill="#FFB27D"/>
<path d="M661.045 91.762C661.045 91.762 635.445 70.73 621.545 84.638C618.645 82.985 614.265 82.796 608.745 89.482C598.934 101.374 607.664 122.396 607.664 122.396C604.087 104.596 608.664 100.096 612.407 95.818C614.451 93.478 618.495 91.476 621.554 90.199C625.218 99.409 636.48 124.144 654.601 132.52C648.991 127.022 644.057 120.875 639.901 114.209C643.493 117.761 647.558 120.56 652.012 121.709C669.796 126.282 674.212 113.657 674.212 113.657C674.212 113.657 663.876 110.678 661.045 91.762V91.762Z" fill="#A9453D"/>
<path d="M721.46 412.914C719.76 418.244 713.947 420.674 699.882 419.219C691.282 418.319 687.454 403.919 685.745 391.628C680.58 409.212 673.351 419.083 664.005 421.153C650.368 424.189 581.583 432.553 577.08 399.853C572.127 363.888 573.612 242.414 573.828 233.336C574.405 208.878 579.407 193.525 607.953 187.336C611.134 186.647 615.602 186.162 621.903 185.331C621.903 185.331 625.62 184.893 625.559 184.987C624.398 187.069 607.667 210.807 608.884 216.875C610.156 223.223 665.406 217.507 669.218 214.017C673.03 210.527 671.825 183.234 671.825 183.234C671.825 183.234 720.543 185.054 725.8 195.657C749.23 242.897 721.542 398.382 721.95 406.545C722.15 408.68 721.984 410.834 721.46 412.914V412.914Z" fill="#071E42"/>
<path d="M608.204 127.718C608.204 127.718 630.612 131.437 650.754 125.713L651.129 147.5C651.129 147.5 616.153 169.41 611.24 151.508C609.649 145.727 608.204 127.718 608.204 127.718V127.718Z" fill="#D2E4FF"/>
<path d="M648.866 148.872L648.666 148.049C648.866 147.999 659.611 140.549 664.461 130.885C665.768 128.285 667.208 124.098 665.861 123.567C659.361 121.007 648.411 128.56 649.668 127.33L649.934 126.111C650.512 125.851 659.87 120.511 666.701 123.199C668.269 123.817 666.584 128.819 665.16 131.655C663.631 135.028 661.558 138.127 659.025 140.829C656.078 144.023 652.651 146.736 648.866 148.872V148.872Z" fill="#D2E4FF"/>
<path d="M657.382 125.78C658.642 118.217 666.25 116.208 668.516 118.742C669.737 120.108 669.773 123.471 669.725 124.835C669.381 134.376 660.507 133.711 660.507 133.711C660.507 133.711 656.948 128.386 657.382 125.78Z" fill="#FFB27D"/>
<path d="M516.495 57.404C514.019 52.542 495.481 19.233 460.295 36.254C410.648 60.272 406.773 123.826 389.679 134.332C359.252 153.032 391.117 207.369 421.102 208.648C451.087 209.927 482.117 163.739 482.117 163.739L500.669 107.139L515.216 106.117L518.132 96.717C527.227 74.18 522.367 63.244 516.495 57.404V57.404Z" fill="#071E42"/>
<path d="M537.191 354.173C518.147 353.952 466.327 352.965 453.871 348.812C438.528 343.692 435.009 328.675 435.009 327.073C435.009 326.728 436.266 319.68 438.26 308.767C442.24 300.405 444.225 295.367 444.349 290.049C444.372 287.207 443.994 284.376 443.228 281.639C441.579 275.224 438.165 266.795 433.111 252.824C431.356 247.941 430.096 242.894 429.352 237.759C423.378 197.57 446.622 154.132 461.063 151.178C465.081 150.113 471.889 135.596 471.803 112.217L473.615 112.572L504.023 118.594C504.023 118.594 503.332 128.164 503.312 137.178C503.293 144.686 503.744 151.811 505.451 152.713C507.637 152.905 508.932 153.039 508.932 153.039L509.018 153.154C514.81 153.528 530.182 154.899 532.218 159.054L526.599 176.123L524.969 181.09C529.668 190.873 533.128 201.204 535.269 211.843C535.826 214.874 536.21 217.935 536.42 221.01C536.585 223.497 536.607 225.991 536.486 228.48C535.268 256.336 517.739 273.175 536.592 333.433C539.291 342.072 539.272 348.89 537.191 354.173V354.173Z" fill="#FFB27D"/>
<path d="M504.029 118.593C504.029 118.593 503.337 128.163 503.317 137.179C486.3 136.699 475.604 125.787 471.917 117.179L504.029 118.593Z" fill="#E8945B"/>
<path d="M507.97 129.388C507.97 129.388 467.708 130.052 467.68 104.973C467.652 79.894 462.437 63.089 488.142 61.604C513.847 60.119 518.853 69.684 520.898 78.053C522.943 86.422 518.443 128.569 507.97 129.388Z" fill="#FFB27D"/>
<path d="M539.938 469.087C539.938 469.087 576.338 381.061 574.424 317.133C574.207 309.923 574.577 290.846 573.644 283.006C573.715 238.7 543.844 163.581 531.451 156.789C525.006 153.258 505.336 152.624 505.451 152.715C505.451 152.715 510.262 161.686 514.769 172.203C515.56 174.057 515.947 176.058 515.903 178.074C515.859 180.089 515.386 182.071 514.516 183.889C513.645 185.707 512.397 187.319 510.854 188.616C509.311 189.913 507.509 190.866 505.569 191.412L505.069 191.551C500.918 192.672 496.255 192.185 491.588 190.816C485.973 189.134 480.851 186.115 476.66 182.017C472.47 177.92 469.336 172.866 467.528 167.291C463.602 155.369 462.398 150.416 462.398 150.416L441.467 154.221V154.213C441.467 154.213 426.673 157.355 419.674 167.892C410.393 181.864 383.052 253.502 372.043 323.327C368.995 342.614 539.938 469.087 539.938 469.087V469.087Z" fill="#A9453D"/>
<path d="M520.209 100.051C520.209 100.051 498.88 103.591 479.709 98.142L479.353 118.878C479.353 118.878 512.642 139.731 517.318 122.693C518.83 117.19 520.209 100.051 520.209 100.051Z" fill="#B6D7FF"/>
<path d="M481.503 120.186L481.696 119.402C481.503 119.354 471.279 112.26 466.664 103.066C465.42 100.588 463.495 93.087 464.777 92.582C470.96 90.146 481.939 100.853 480.741 99.682L480.489 98.522C479.938 98.274 471.278 90.022 464.777 92.582C463.284 93.17 464.642 101.1 465.997 103.799C467.453 107.009 469.426 109.959 471.837 112.53C474.641 115.57 477.902 118.153 481.503 120.186Z" fill="#B6D7FF"/>
<path d="M473.398 98.206C472.198 91.006 464.957 89.096 462.798 91.506C461.636 92.806 461.598 96.006 461.649 97.306C461.975 106.388 470.422 105.754 470.422 105.754C470.422 105.754 473.812 100.688 473.398 98.206V98.206Z" fill="#FFB27D"/>
<path d="M521.44 61.85C514.755 53.75 509.824 56.257 507.327 58.739C508.043 57.073 508.419 56.072 508.419 56.072C499.532 41.105 469.378 61.723 469.378 61.723C467.472 73.4434 461.552 84.1368 452.63 91.973C452.63 91.973 460.474 96.818 478.555 92.173C485.909 90.282 492.221 83.958 497.122 77.12C490.473 91.571 477.815 102.798 477.815 102.798C498.023 93.456 506.138 65.35 506.946 62.378C509.404 64.585 514.246 69.378 515.726 74.078C517.734 80.464 518.636 93.612 522.468 93.164C522.467 93.162 530.772 73.163 521.44 61.85Z" fill="#071E42"/>
<path d="M574.423 353.341C574.423 353.341 552.107 379.816 523.688 368.741C523.688 368.741 517.574 353.955 517.488 343.055C517.478 341.713 517.461 340.414 517.44 339.177C517.288 326.903 516.875 320.016 516.875 320.016C516.885 320.013 516.894 320.011 516.904 320.01C518.197 319.471 560.348 302.166 560.312 303.603C559.589 336.8 574.423 353.341 574.423 353.341V353.341Z" fill="#FFB27D"/>
<path d="M556.081 311.519C552.016 319.053 538.069 333.793 517.441 339.177C517.289 326.903 516.876 320.016 516.876 320.016C516.885 320.013 516.895 320.011 516.905 320.01C518.071 319.698 557.29 309.298 556.081 311.519V311.519Z" fill="#ED975D"/>
<path d="M508.048 318.74C508.048 318.74 555.448 329.884 561.936 300.258C568.424 270.632 578.907 252.117 548.917 243.749C518.927 235.381 510.551 245.394 505.981 254.757C501.411 264.12 495.884 315.078 508.048 318.74Z" fill="#FFB27D"/>
<path d="M560.314 308.33C560.961 308.745 571.161 311.878 590.477 273.398C593.509 267.357 595.577 254.29 588.507 242.743C581.437 231.196 556.377 222.119 535.554 218.168C514.731 214.217 509.732 225.934 504.828 237.71C499.681 250.072 484.815 260.249 484.815 260.249C502.772 270.279 524.398 255.933 531.89 258.292C539.382 260.651 542.029 272.459 542.59 276.245C543.151 280.031 544.898 284.577 556.107 279.124C565.107 274.746 557.699 293.145 556.19 296.346C556.19 296.345 554.91 304.868 560.314 308.33V308.33Z" fill="#2A4E96"/>
<path d="M482.482 462.73C482.767 478.43 483.682 496.078 484.91 514.002L485.135 517.19C485.921 528.29 486.775 539.425 487.754 550.278C488.147 554.63 488.566 558.931 489.001 563.157L489.068 563.726C489.101 565.307 489.294 567.026 489.468 568.588C493.468 609.241 497.661 641.358 498.439 641.852C499.348 642.489 500.458 642.773 501.561 642.652C512.222 641.313 544.03 643.731 570.072 638.066C592.047 633.43 610.972 624.643 631.019 612.794C633.68 611.22 639.747 607.053 639.253 603.94C638.768 600.518 626.937 426.582 622.134 409.277C613.205 377.127 589.001 348.943 572.541 339.311C570.39 338.111 558.817 345.47 548.189 352.29C539.225 358.032 528.576 360.555 517.989 359.445L509.143 369.228C498.432 381.68 487.026 398.257 483.913 421.823C483.679 423.564 483.479 425.416 483.313 427.379C482.433 439.141 482.156 450.94 482.482 462.73V462.73Z" fill="#2A4E96"/>
<path d="M500.671 285.675C500.671 285.675 522.134 289.575 544.182 282.915L544.982 306.869C541.061 312.03 535.848 316.065 529.87 318.569C519.16 322.787 504.213 322.358 501.184 311.988C499.342 305.659 500.671 285.675 500.671 285.675Z" fill="#D2E4FF"/>
<path d="M542.529 308.416L542.29 307.516C542.513 307.457 554.19 299.068 559.353 288.358C560.744 285.471 562.253 280.845 560.762 280.285C553.571 277.585 541.662 286.085 543.022 284.713L543.293 283.368C543.924 283.068 554.12 277.027 561.68 279.868C563.416 280.519 561.652 286.051 560.137 289.195C558.516 292.933 556.291 296.379 553.553 299.395C550.371 302.958 546.651 306.002 542.529 308.416V308.416Z" fill="#D2E4FF"/>
<path d="M549.239 286.431C550.49 278.091 558.821 275.746 561.359 278.492C562.726 279.972 562.825 283.671 562.796 285.17C562.589 295.67 552.817 295.097 552.817 295.097C552.817 295.097 548.807 289.306 549.239 286.431V286.431Z" fill="#FFB27D"/>
<path d="M148.286 310.866C148.286 310.866 170.601 337.341 199.021 326.266C199.021 326.266 205.135 311.48 205.221 300.58C205.231 299.238 205.247 297.939 205.268 296.702C205.421 284.428 205.834 277.541 205.834 277.541C205.825 277.538 205.815 277.536 205.805 277.535C204.512 276.995 162.361 259.691 162.397 261.128C163.12 294.324 148.286 310.866 148.286 310.866V310.866Z" fill="#FFB27D"/>
<path d="M166.629 269.043C170.694 276.577 184.64 291.316 205.268 296.701C205.42 284.427 205.834 277.54 205.834 277.54C205.824 277.537 205.815 277.535 205.805 277.534C204.639 277.221 165.42 266.822 166.629 269.043V269.043Z" fill="#ED975D"/>
<path d="M214.662 276.265C214.662 276.265 167.262 287.409 160.774 257.783C154.286 228.157 143.802 209.642 173.793 201.274C203.784 192.906 212.159 202.919 216.729 212.282C221.299 221.645 226.825 272.603 214.662 276.265Z" fill="#FFB27D"/>
<path d="M162.395 265.855C161.748 266.269 151.548 269.403 132.231 230.922C129.199 224.881 127.131 211.814 134.201 200.268C141.271 188.722 168.378 165.861 187.154 175.693C205.014 185.045 219.569 186.239 219.569 186.239C228.213 213.081 198.31 213.456 190.817 215.816C183.324 218.176 180.678 229.983 180.117 233.768C179.556 237.553 178.691 240.699 169.269 237.318C159.847 233.937 165.009 250.669 166.518 253.869C166.519 253.87 167.799 262.393 162.395 265.855Z" fill="#071E42"/>
<path d="M224.767 565.93C224.767 565.93 223.709 579.146 222.033 600.195C220.947 613.88 219.601 630.884 218.119 649.718C192.861 649.709 186.798 649.978 174.654 648.499C159.722 646.685 145.115 642.802 131.254 636.962C125.749 634.647 120.372 632.039 115.146 629.147C114.078 610.306 113.159 593.828 112.483 581.572C111.701 567.421 111.242 558.907 111.242 558.907L173.834 562.78L224.767 565.93Z" fill="#2B478B"/>
<path d="M206.213 571.951C206.213 571.951 202.035 582.426 195.013 599.551C189.672 612.578 182.687 629.451 174.651 648.496C142.534 644.596 110.767 630.962 83.016 606.364C83.657 594.819 85.056 579.553 86.37 566.45C87.905 551.17 89.331 538.841 89.331 538.841L173.831 562.777L206.213 571.951Z" fill="#2B478B"/>
<path d="M240.227 420.259C239.943 435.959 239.027 453.606 237.8 471.531L237.574 474.719C236.787 485.824 235.933 496.954 234.954 507.808C234.561 512.159 234.142 516.461 233.707 520.687L233.64 521.256C233.607 522.838 233.414 524.556 233.24 526.119C229.24 566.772 225.048 598.889 224.27 599.383C223.361 600.019 222.251 600.302 221.149 600.178C210.488 598.839 178.68 601.258 152.638 595.592C130.663 590.956 111.738 582.169 91.692 570.32C89.031 568.747 82.964 564.58 83.458 561.466C83.943 558.043 94.265 389.674 98.867 372.314C111.242 325.637 140.55 304.641 157.011 295.014C162.182 300.687 168.068 305.664 174.522 309.821C184.338 316.114 193.256 314.059 203.306 313.18L213.568 326.758C224.279 339.21 235.685 355.788 238.798 379.353C239.033 381.093 239.233 382.945 239.398 384.909C240.277 396.67 240.554 408.469 240.227 420.259V420.259Z" fill="#A9453D"/>
<path d="M221.83 242.982C221.83 242.982 200.108 246.813 178.06 240.158L177.26 264.112C181.181 269.273 186.394 273.308 192.372 275.812C203.082 280.03 218.029 279.601 221.057 269.231C222.903 262.903 221.83 242.982 221.83 242.982Z" fill="#D2E4FF"/>
<path d="M179.716 265.66L179.954 264.76C179.731 264.701 168.054 256.312 162.891 245.602C161.5 242.715 159.991 238.089 161.481 237.529C168.672 234.829 180.581 243.329 179.221 241.956L178.951 240.611C178.32 240.311 168.124 234.271 160.563 237.111C158.827 237.762 160.591 243.294 162.106 246.438C163.727 250.176 165.951 253.622 168.69 256.638C171.873 260.201 175.593 263.245 179.716 265.66V265.66Z" fill="#D2E4FF"/>
<path d="M173.006 243.674C171.755 235.334 163.425 232.989 160.887 235.735C159.52 237.215 159.42 240.914 159.45 242.413C159.657 252.913 169.429 252.34 169.429 252.34C169.429 252.34 173.437 246.549 173.006 243.674Z" fill="#FFB27D"/>
<path d="M275.22 315.885C276.227 313.938 287.826 293.31 320.874 307.527C320.874 307.527 303.983 301.894 297.905 307.621C297.905 307.621 312.89 304.068 320.441 311.043C327.992 318.018 325.875 336.01 323.518 341.143C321.161 346.276 308.467 360.428 302.179 359.176C299.714 358.574 297.395 357.484 295.359 355.97C295.781 359.239 296.012 362.531 296.051 365.827C296.468 398.585 270.811 418.309 261.181 410.253C255.005 405.086 247.343 416.169 247.343 416.169L205.016 328.48C205.016 328.48 254.686 288.308 275.22 315.885Z" fill="#071E42"/>
<path d="M194.627 649.705C161.694 649.709 129.52 639.808 102.287 621.289C116.413 578.653 152.417 472.544 163.397 464.982C170.97 459.763 188.505 457.908 203.976 457.348C219.065 456.803 232.189 457.489 232.189 457.489C232.189 457.489 243.439 457.508 257.809 459.131L258.289 459.188C258.313 459.189 258.337 459.191 258.361 459.196C274.561 461.055 294.544 464.944 306.884 473.085C317.76 480.259 356.195 625.704 362.492 649.769L194.627 649.705Z" fill="#F99746"/>
<path d="M258.297 459.141C253.051 450.506 249.333 430.312 251.103 403.355L247.758 409.003L207.828 414.367C207.828 414.367 207.954 426.841 207.257 438.535C206.711 447.676 205.616 453.144 203.649 458.228C203.503 458.239 203.5 458.254 203.625 458.269C203.016 459.305 190.068 481.702 207.254 485.809C253.926 496.962 258.116 460.955 258.29 459.209C258.443 459.193 258.449 459.169 258.297 459.141V459.141Z" fill="#FFB27D"/>
<path d="M207.824 414.37C207.824 414.37 207.952 426.84 207.254 438.536C229.366 439.282 242.282 419.869 247.754 409.005L207.824 414.37Z" fill="#ED975D"/>
<path d="M196.476 418.411C196.476 418.411 247.625 429.481 254.028 397.522C260.431 365.563 271.346 345.468 238.959 337.049C206.572 328.63 197.765 339.549 193.033 349.697C188.301 359.845 183.336 414.704 196.476 418.411V418.411Z" fill="#FFB27D"/>
<path d="M188.23 380.602C188.23 380.602 212.652 385.071 237.65 377.525L238.559 404.684C234.113 410.536 228.203 415.112 221.425 417.951C209.283 422.733 192.336 422.251 188.903 410.489C186.804 403.314 188.23 380.602 188.23 380.602V380.602Z" fill="#D2E4FF"/>
<path d="M235.768 406.441L235.497 405.419C235.75 405.351 248.992 395.84 254.843 383.697C256.42 380.424 258.132 375.178 256.443 374.544C248.29 371.484 234.787 381.123 236.33 379.564L236.636 378.039C237.352 377.703 248.912 370.85 257.484 374.069C259.452 374.808 257.452 381.079 255.734 384.644C253.896 388.881 251.374 392.788 248.269 396.207C244.66 400.249 240.443 403.702 235.768 406.441V406.441Z" fill="#D2E4FF"/>
<path d="M198.099 332.223C207.947 324.189 213.521 327.493 216.304 331.052C247.426 321.219 260.957 347.619 260.957 347.619C259.82 371.239 273.742 387.673 273.742 387.673C273.742 387.673 263.242 391.587 242.779 381.747C236.53 378.741 231.579 372.888 227.714 366.214C231.555 376.635 236.801 386.483 243.305 395.485C219.92 378.447 216.713 340.563 216.438 336.57C212.744 338.759 205.352 343.641 202.276 349.255C198.096 356.885 193.607 373.413 188.836 371.87C188.838 371.872 183.33 344.273 198.099 332.223V332.223Z" fill="#071E42"/>
<path d="M373.737 335.707C373.737 336.107 374.995 352.766 374.599 366.464C374.531 368.886 374.409 371.19 374.217 373.23H425.095C422.867 369.407 420.629 363.611 418.936 356.097C418.058 352.166 417.392 348.191 416.942 344.188C416.307 338.6 416.004 332.979 416.034 327.355L373.737 335.707Z" fill="#FFB27D"/>
<path d="M404.21 242.535C398.389 241.24 392.374 241.064 386.487 242.017C386.487 242.017 366.961 242.298 354.3 257.725C347.309 266.244 358.434 327.801 348.668 346.917C347.798 348.617 353.568 349.33 355.928 349.33C355.928 349.33 359.383 348.012 360.064 346.103C360.064 346.103 359.382 349.103 358.496 350.057C358.496 350.057 377.496 351.857 386.987 344.684C392.146 340.784 397.795 331.634 401.44 322.307L415.808 323.317C415.963 329.498 413.748 336.568 406.839 343.954C406.839 343.954 424.566 345.693 430.567 340.784C429.958 342.031 429.194 343.197 428.294 344.253C428.294 344.253 448.113 344.966 456.294 338.784C464.475 332.602 459.219 231.198 404.21 242.535Z" fill="#071E42"/>
<path d="M373.736 335.707C373.736 335.707 374.644 348.271 374.671 360.107C397.011 359.477 408.82 339.098 413.658 327.807L373.736 335.707Z" fill="#ED975D"/>
<path d="M366.274 346.915C366.274 346.915 419.13 347.787 419.166 314.863C419.202 281.939 426.049 259.876 392.303 257.928C358.557 255.98 351.987 268.535 349.303 279.522C346.619 290.509 352.525 345.84 366.274 346.915Z" fill="#FFB27D"/>
<path d="M371.816 260.256C371.816 260.256 361.009 268.88 358.374 277.264C355.739 285.648 354.553 302.908 349.522 302.321C349.522 302.321 338.622 276.066 350.873 261.214C363.866 245.466 371.816 260.256 371.816 260.256V260.256Z" fill="#071E42"/>
<path d="M489.06 649.819L452.216 649.805L425.931 649.795L332.673 649.76H319.92C321.132 638.002 322.99 626.724 325.794 617.549C334.321 589.625 339.394 572.768 341.347 566.277L341.96 564.237C342.16 563.554 342.262 563.212 342.266 563.213C342.266 563.213 382.743 573.37 425.896 566.946C432.154 566.027 438.353 564.741 444.46 563.095C447.008 562.404 449.541 561.64 452.06 560.803H452.067L452.54 561.812C456.262 569.76 480.832 622.582 487.993 646.259C488.342 647.39 488.697 648.577 489.06 649.819V649.819Z" fill="#031530"/>
<path d="M506.415 649.827C498.715 641.584 492.481 631.782 491.061 627.075C488.18 617.503 468.817 550.124 464.868 531.297C464.156 527.881 463.753 525.883 463.753 525.883C463.754 525.886 463.754 525.89 463.753 525.893C463.746 525.904 463.739 525.924 463.725 525.956C463.72 525.97 463.714 525.984 463.707 525.998C463.689 526.044 463.665 526.098 463.634 526.173C463.603 526.248 463.574 526.317 463.534 526.408C463.506 526.475 463.478 526.548 463.443 526.629C463.426 526.675 463.404 526.72 463.383 526.772C461.401 531.5 454.541 548.113 453.143 552.307C452.885 552.932 452.701 553.585 452.596 554.253C452.296 556.562 452.162 559.189 452.077 560.663V560.677C452.077 560.754 452.07 560.796 452.07 560.796C452.07 560.796 393.522 590.346 342.27 563.206C342.27 563.206 342.112 561.938 341.832 559.625C341.532 557.168 341.096 553.531 340.56 548.978C338.387 530.415 334.609 496.616 332.076 465.417C332.074 465.411 332.074 465.405 332.076 465.399C331.386 456.876 330.783 448.546 330.338 440.776C330.337 440.775 330.336 440.774 330.336 440.774C330.336 440.773 330.335 440.772 330.335 440.77C330.335 440.769 330.336 440.768 330.336 440.767C330.336 440.766 330.337 440.766 330.338 440.765C329.146 420.165 329.016 403.494 331.028 397.518C334.014 388.659 358.266 383.1 367.928 381.218C369.898 379.118 369.688 375.135 368.889 371.479C368.728 370.759 368.755 370.01 368.966 369.304C369.177 368.597 369.566 367.957 370.096 367.443C370.625 366.93 371.278 366.561 371.99 366.372C372.703 366.182 373.453 366.179 374.167 366.362C374.311 366.4 374.458 366.435 374.609 366.47C380.721 367.918 391.333 367.57 402.684 363.842C408.869 361.841 414.739 358.972 420.119 355.322C420.497 355.066 420.934 354.912 421.388 354.874C421.843 354.836 422.299 354.915 422.714 355.105C423.129 355.294 423.488 355.587 423.757 355.955C424.027 356.323 424.197 356.754 424.251 357.207C425.138 364.388 427.307 377.499 431.267 377.499C436.72 377.467 473.943 382.038 476.673 386.643C477.622 388.243 487.299 410.143 499.516 439.149C499.526 439.174 499.533 439.2 499.537 439.226C499.764 439.766 499.996 440.311 500.231 440.862C523.393 495.552 569.231 590.327 569.231 607.707C569.231 616.833 558.98 636.494 547.695 649.85L506.415 649.827Z" fill="#D2E4FF"/>
<path d="M463.757 525.888C463.757 525.888 452.968 551.635 452.629 554.034C452.477 555.114 452.345 556.598 452.248 557.907C446.926 562.174 440.833 565.378 434.301 567.343C416.05 572.874 408.119 537.888 409.21 520.433C410.301 502.978 436.11 453.155 444.71 452.118C453.31 451.081 463.757 525.888 463.757 525.888V525.888Z" fill="#B6DBFF"/>
<path d="M464.866 531.295C464.157 527.88 463.753 525.884 463.753 525.884C464.304 527.646 464.677 529.459 464.866 531.295V531.295Z" fill="#E58638"/>
<path d="M389.66 576.277C356.343 576.277 342.975 565.013 341.96 564.232L339.805 548.541C340.124 548.777 384.83 575.621 454.015 549.913L452.548 561.8C425.94 571.688 406.965 576.277 389.66 576.277Z" fill="#A9453D"/>
<path d="M569.213 607.703C569.213 616.828 558.962 636.49 547.677 649.846H536.837C538.975 591.846 500.515 442.492 499.524 439.225C499.752 439.765 499.983 440.311 500.218 440.862C523.381 495.547 569.213 590.321 569.213 607.703V607.703Z" fill="#B6DBFF"/>
<path d="M431.257 377.489C431.257 377.489 403.383 395.141 382.296 390.963C382.296 390.963 377.234 387.763 384.216 384.547C390.772 381.537 406.024 372.624 402.674 363.831C408.858 361.828 414.728 358.959 420.107 355.31C420.485 355.055 420.922 354.9 421.377 354.863C421.832 354.825 422.289 354.904 422.704 355.094C423.119 355.283 423.478 355.576 423.748 355.944C424.017 356.313 424.187 356.744 424.242 357.197C425.123 364.381 427.294 377.489 431.257 377.489V377.489Z" fill="#B6DBFF"/>
<path d="M350.807 313.205C350.807 313.205 378.064 315.105 401.531 305.96L404.46 332.007C404.46 332.007 365.071 362.224 357.15 341.347C354.592 334.604 350.807 313.205 350.807 313.205Z" fill="#EEF6FF"/>
<path d="M401.911 333.907L401.573 332.945C401.811 332.861 413.825 322.713 418.532 310.594C419.801 307.327 421.05 302.154 419.376 301.671C411.305 299.345 399.05 309.636 400.415 308.02L400.593 306.53C401.257 306.152 411.854 298.689 420.34 301.13C422.289 301.691 420.84 307.874 419.457 311.43C418.011 315.643 415.883 319.591 413.157 323.114C409.993 327.275 406.199 330.917 401.911 333.907V333.907Z" fill="#EEF6FF"/>
<path d="M409.48 305.287C410.128 296.087 419.01 292.816 422.012 295.587C423.63 297.087 424.055 301.107 424.152 302.745C424.828 314.21 414.125 314.423 414.125 314.423C414.125 314.423 409.256 308.459 409.48 305.287Z" fill="#FFB27D"/>
<path d="M369.808 261.562C369.808 261.562 380.118 302.011 408.142 314.962C408.142 314.962 380.118 290.11 377.742 263.408C375.366 236.706 369.808 261.562 369.808 261.562Z" fill="#071E42"/>
<path d="M368.229 257.121C368.229 257.121 382.701 295.748 404.91 301.459C427.119 307.17 436.754 301.22 436.754 301.22C436.754 301.22 419.718 287.687 416.182 264.063C416.182 264.062 379.145 238.736 368.229 257.121V257.121Z" fill="#071E42"/>
<path d="M693.589 246.361C693.589 246.361 651.904 248.781 650.761 295.304C649.618 341.827 702.203 454.804 702.203 454.804L802.48 443.611C802.48 443.611 771.488 228.66 693.589 246.361Z" fill="#1C468A"/>
<path d="M777.088 649.932L683.041 649.897L665.041 649.886L639.534 649.88C637.634 643.288 637.947 635.059 641.118 624.92C646.439 608.179 649.915 590.908 651.485 573.412C651.66 571.412 651.804 569.436 651.919 567.483C655.119 514.363 638.402 477.376 640.602 444.926C642.512 416.756 668.619 395.062 675.131 390.069C676.066 389.35 676.596 388.978 676.596 388.978C676.596 388.978 679.214 388.452 682.087 388.193C683.836 387.271 684.544 380.914 684.758 373.463C684.818 371.395 684.839 369.244 684.831 367.102C684.821 362.717 684.691 358.235 684.531 354.327C684.517 354.061 684.507 353.797 684.496 353.538C684.23 347.283 683.896 342.685 683.896 342.685L713.804 336.762L717.477 336.036L720.092 335.521L723.842 334.778L726.218 334.308V334.329C726.112 343.994 727.084 353.641 729.118 363.091C731.718 374.597 735.581 382.086 738.738 384.617C739.117 384.934 739.541 385.192 739.997 385.381C740.107 385.425 740.219 385.463 740.333 385.493C752.869 388.062 770.449 413.842 778.673 446.266C782.896 462.92 784.652 481.323 781.992 499.235C781.012 505.982 779.358 512.613 777.054 519.029C775.954 522.081 774.906 524.929 773.922 527.601C773.743 528.081 773.568 528.558 773.396 529.024C767.722 544.385 764.154 553.624 762.846 561.102C762.846 561.122 762.84 561.143 762.836 561.161C762.602 562.47 762.441 563.79 762.353 565.117C762.29 566.025 762.265 566.917 762.286 567.798V567.928C762.595 581.014 771.469 592.776 790.019 634.372C791.986 638.781 786.707 644.38 777.088 649.932V649.932Z" fill="#FFB27D"/>
<path d="M683.892 342.686C683.892 342.686 684.801 355.259 684.828 367.103C707.184 366.473 719 346.079 723.843 334.775L683.892 342.686Z" fill="#ED975D"/>
<path d="M676.426 353.901C676.426 353.901 729.319 354.774 729.355 321.826C729.391 288.878 736.243 266.802 702.474 264.852C668.705 262.902 662.13 275.467 659.442 286.461C656.754 297.455 662.668 352.825 676.426 353.901V353.901Z" fill="#FFB27D"/>
<path d="M846.924 643.787C839.319 646.802 831.329 648.736 823.187 649.534C819.135 642.42 814.818 634.724 810.602 626.996C798.816 605.396 787.846 583.581 785.786 573.796C784.23 566.433 780.423 551.696 775.976 535.196C775.304 532.701 774.621 530.164 773.923 527.605C773.352 525.495 772.775 523.376 772.192 521.247C763.829 490.613 754.91 459.187 754.91 459.187V459.18L752.6 449.185L751 442.253L738.117 386.459L737.664 384.507C737.664 384.507 738.043 384.546 738.737 384.623C739.267 384.686 739.981 384.77 740.847 384.878C748.157 385.8 766.406 388.46 778.125 393.36C783.071 395.424 786.841 397.888 788.16 400.779C792.537 410.403 796.91 425.879 801.078 443.77C807.354 470.71 813.157 503.111 817.784 529.21C822.073 553.41 825.343 572.201 827.054 576.182C829.296 581.414 833.716 597.756 839.067 616.734C839.592 618.616 840.131 620.522 840.684 622.453C842.683 629.458 844.78 636.703 846.924 643.787V643.787Z" fill="#D9935C"/>
<path d="M797.127 649.94C788.106 622.74 762.288 567.928 762.288 567.928H762.281L762.26 567.938C759.76 568.772 757.231 569.532 754.7 570.213H754.686C748.568 571.866 742.357 573.156 736.086 574.075C692.905 580.503 652.402 570.34 652.402 570.34L651.48 573.409C649.532 579.904 644.449 596.775 635.916 624.717C633.548 632.951 631.855 641.364 630.855 649.873L797.127 649.94Z" fill="#A9453D"/>
<path d="M809.772 446.27C809.767 446.244 809.76 446.218 809.75 446.193C797.523 417.165 787.84 395.255 786.89 393.65C784.161 389.043 746.911 384.469 741.453 384.501C737.491 384.501 735.318 371.379 734.434 364.196C734.379 363.743 734.209 363.311 733.939 362.943C733.67 362.574 733.31 362.281 732.894 362.091C732.479 361.902 732.022 361.822 731.567 361.86C731.112 361.898 730.674 362.052 730.296 362.308C724.913 365.959 719.04 368.83 712.851 370.833C701.213 374.654 690.351 374.927 684.314 373.355C683.599 373.172 682.849 373.175 682.136 373.365C681.423 373.554 680.77 373.923 680.24 374.437C679.71 374.951 679.321 375.591 679.109 376.298C678.897 377.005 678.87 377.755 679.031 378.475C679.831 382.132 680.042 386.119 678.072 388.22C668.407 390.103 644.136 395.667 641.149 404.534C634.269 424.955 634.695 445.772 638.834 463.739C641.355 506.484 652.405 570.339 652.405 570.339C703.693 597.5 762.285 567.926 762.285 567.926C762.285 567.926 762.35 566.616 762.459 565.033C762.559 563.723 762.688 562.239 762.841 561.158C763.18 558.758 773.976 532.992 773.976 532.992C773.976 532.992 774.376 534.992 775.089 538.407C779.041 557.25 792.579 619.148 800.889 624.716C805.703 627.937 821.095 627.991 835.55 624.039C850.582 619.939 864.588 611.495 864.588 597.762C864.584 580.201 832.718 500.723 809.772 446.27V446.27Z" fill="#F99746"/>
<path d="M773.974 532.997C773.974 532.997 763.174 558.761 762.839 561.163C762.686 562.244 762.555 563.729 762.457 565.038C757.132 569.309 751.035 572.515 744.498 574.481C726.233 580.017 718.298 545.006 719.389 527.538C720.48 510.07 746.311 460.214 754.912 459.176C763.513 458.138 773.974 532.997 773.974 532.997V532.997Z" fill="#E58033"/>
<path d="M775.088 538.41C774.378 534.993 773.974 532.995 773.974 532.995C774.525 534.758 774.899 536.572 775.088 538.41Z" fill="#E58638"/>
<path d="M741.453 384.501C741.453 384.501 713.56 402.164 692.453 397.983C692.453 397.983 687.387 394.783 694.374 391.563C700.935 388.551 716.197 379.631 712.845 370.832C719.034 368.829 724.907 365.958 730.29 362.306C730.668 362.051 731.106 361.897 731.561 361.859C732.016 361.821 732.473 361.901 732.889 362.091C733.304 362.28 733.663 362.573 733.933 362.942C734.203 363.31 734.373 363.742 734.428 364.195C735.317 371.379 737.49 384.501 741.453 384.501V384.501Z" fill="#E58033"/>
<path d="M658.81 281.517C658.81 281.517 668.58 260.861 694.38 303.836C697.661 309.3 711.637 313.919 716.587 312.254C740.813 304.108 734.055 336.454 734.055 336.454C734.055 336.454 736.392 253.394 716.069 251.869C695.746 250.344 658.81 281.517 658.81 281.517V281.517Z" fill="#1C468A"/>
<path d="M683.892 265.501C683.892 265.501 672.552 272.832 656.098 297.991C656.098 297.991 655.082 274.864 664.739 269.02C670.477 265.54 677.292 264.288 683.892 265.501V265.501Z" fill="#1C468A"/>
<path d="M660.387 315.307C660.387 315.307 688.03 324.663 711.087 315.307L714.336 341C714.336 341 674.962 367.566 666.851 347.047C664.235 340.421 660.387 315.307 660.387 315.307V315.307Z" fill="#D2E4FF"/>
<path d="M711.847 342.912L711.5 341.966C711.734 341.88 723.466 331.691 727.952 319.654C729.161 316.409 730.323 311.281 728.664 310.828C720.658 308.639 708.691 318.974 710.018 317.358L710.174 315.883C710.824 315.501 721.193 307.983 729.61 310.283C731.542 310.811 730.195 316.938 728.878 320.472C727.506 324.654 725.456 328.583 722.81 332.1C719.741 336.253 716.042 339.901 711.847 342.912V342.912Z" fill="#D2E4FF"/>
<path d="M716.592 316.151C717.108 307.051 725.838 303.701 728.842 306.402C730.461 307.858 730.936 311.828 731.053 313.445C731.876 324.762 721.306 325.119 721.306 325.119C721.306 325.119 716.414 319.288 716.592 316.151Z" fill="#FFB27D"/>
<path d="M639.282 401.306C639.282 401.306 615.149 397.106 594.648 410.768C574.147 424.43 571.177 491.714 560.835 498.551C550.493 505.388 506.158 523.251 516.498 550.066C526.838 576.881 508.838 588.966 514.946 607.352C521.054 625.738 672.207 643.639 683.892 630.497C695.577 617.355 705.092 573.614 698.758 561.842C692.424 550.07 664.545 539.705 674.691 527.797C703.09 494.455 692.457 397.984 639.282 401.306V401.306Z" fill="#A9453D"/>
<path d="M688.769 594.38C681.169 601.468 671.276 607.839 658.421 612.837C610.234 631.588 585.015 592.22 573.643 564.337C578.434 560.697 583.93 558.096 589.782 556.698C590.515 556.498 591.256 556.311 591.999 556.126C595.204 555.332 598.148 553.719 600.541 551.444C602.934 549.169 604.694 546.311 605.649 543.15C608.391 533.991 610.177 520.182 608.855 502.931L611.292 503.22L652.146 508.275C652.146 508.275 652.157 521.027 652.988 532.96C653.261 537.601 653.797 542.224 654.595 546.804C654.934 548.558 655.835 550.154 657.162 551.351C658.488 552.548 660.168 553.28 661.948 553.437C661.954 553.45 661.962 553.462 661.973 553.471C672.192 566.22 681.165 579.919 688.769 594.38V594.38Z" fill="#FFB27D"/>
<path d="M523.98 649.833C527.958 634.919 542.966 581.433 553.909 570.821C564.473 560.584 589.001 556.813 589.765 556.697C589.771 556.696 589.776 556.696 589.782 556.697C589.782 556.697 590.182 558.008 590.865 560.139C593.059 567.05 598.204 582.631 602.265 590.132C602.93 591.541 603.84 592.82 604.953 593.91C607.066 595.581 620.282 596.931 635.139 597.365C636.327 597.4 637.529 597.428 638.739 597.449C658.915 597.831 680.671 596.485 681.232 591.996C682.232 584.019 662.707 554.587 661.974 553.473C661.964 553.463 661.956 553.451 661.95 553.438C685.65 554.808 698.759 561.846 698.759 561.846C721.238 584.58 730.82 617.1 733.735 649.917L523.98 649.833Z" fill="#071E42"/>
<path d="M652.149 508.279C652.149 508.279 652.149 521.022 652.991 532.965C630.406 533.965 617.001 514.265 611.291 503.226L652.149 508.279Z" fill="#ED985F"/>
<path d="M660.496 519.041C660.496 519.041 607.233 523.789 604.787 490.575C602.341 457.361 593.818 435.604 627.722 431.168C661.626 426.732 669.174 438.919 672.687 449.807C676.2 460.695 674.288 516.949 660.496 519.041V519.041Z" fill="#FFB27D"/>
<path d="M673.713 479.373C673.713 479.373 647.46 485.387 620.086 477.124L619.086 506.865C619.086 506.865 623.991 513.058 635.825 517.719C649.125 522.956 664.297 522.753 669.211 510.272C673.213 500.109 673.713 479.373 673.713 479.373V479.373Z" fill="#D2E4FF"/>
<path d="M622.141 508.788L622.441 507.668C622.164 507.595 607.663 497.178 601.255 483.881C599.527 480.297 597.655 474.553 599.505 473.858C608.433 470.507 623.22 481.063 621.531 479.358L621.196 477.687C620.412 477.319 607.753 469.816 598.365 473.34C596.21 474.149 598.4 481.017 600.282 484.921C602.295 489.561 605.057 493.838 608.457 497.583C612.407 502.007 617.024 505.788 622.141 508.788Z" fill="#D2E4FF"/>
<path d="M613.812 481.49C612.259 471.135 601.912 468.224 598.765 471.633C597.065 473.471 596.943 478.063 596.98 479.925C597.237 492.961 609.369 492.249 609.369 492.249C609.369 492.249 614.344 485.06 613.812 481.49V481.49Z" fill="#FFB27D"/>
<path d="M669.764 431.451C660.796 422.057 654.726 424.702 651.453 427.959C621.143 414.049 604.08 439.104 604.08 439.104C602.242 463.197 586.045 478.098 586.045 478.098C586.045 478.098 596.2 483.398 618.19 476.008C624.908 473.751 630.666 468.443 635.432 462.166C630.218 472.246 623.653 481.567 615.919 489.872C641.786 475.558 649.834 437.552 650.619 433.538C655.958 433.288 665.829 436.438 671.203 449.292C674.633 457.492 674.136 472.825 674.136 472.825C674.136 472.825 683.21 445.539 669.764 431.451V431.451Z" fill="#A9453D"/>
<path d="M126.072 125.112L124.783 121.753L110.004 128.842C109.37 129.085 109.221 130.233 109.669 131.404C110.117 132.575 110.999 133.329 111.633 133.086L127.359 128.472L126.072 125.112Z" fill="#52969E"/>
<path d="M130.27 131.852C128.525 132.522 125.86 129.806 124.318 125.789C122.776 121.772 122.942 117.97 124.687 117.299C126.432 116.628 129.097 119.345 130.639 123.364C132.181 127.383 132.01 131.184 130.27 131.852Z" fill="#87D38C"/>
<path d="M8.135 154.393L9.092 157.861L24.492 152.249C25.147 152.068 25.408 150.941 25.075 149.731C24.742 148.521 23.94 147.688 23.285 147.866L7.185 150.924L8.135 154.393Z" fill="#52969E"/>
<path d="M4.62401 147.279C6.42401 146.779 8.81401 149.746 9.95701 153.896C11.1 158.046 10.557 161.812 8.75701 162.308C6.95701 162.804 4.56701 159.84 3.42401 155.691C2.28101 151.542 2.81701 147.775 4.62401 147.279Z" fill="#87D38C"/>
<path d="M67.177 75.029H62.471L64.209 100.875C64.209 101.95 65.539 102.822 67.18 102.822C68.821 102.822 70.154 101.95 70.154 100.875L71.887 75.029H67.177Z" fill="#52969E"/>
<path d="M77.372 72.662C77.372 75.619 72.808 78.016 67.172 78.016C61.536 78.016 56.979 75.616 56.979 72.662C56.979 69.708 61.543 67.308 67.172 67.308C72.801 67.308 77.372 69.703 77.372 72.662Z" fill="#87D38C"/>
<path d="M8.69702 111.574L6.63202 115.799L30.623 125.57C31.589 126.042 32.956 125.228 33.676 123.753C34.396 122.278 34.194 120.698 33.228 120.228L10.76 107.338L8.69702 111.574Z" fill="#52969E"/>
<path d="M11.036 101.374C13.694 102.674 13.848 107.822 11.378 112.883C8.90801 117.944 4.75601 120.994 2.09801 119.698C-0.559989 118.402 -0.713986 113.25 1.75301 108.19C4.22001 103.13 8.37901 100.078 11.036 101.374Z" fill="#87D38C"/>
<path d="M15.903 180.156L18.803 183.864L38.103 166.587C38.951 165.924 38.819 164.341 37.803 163.047C36.787 161.753 35.287 161.24 34.439 161.902L13.007 176.447L15.903 180.156Z" fill="#52969E"/>
<path d="M7.76102 173.582C10.091 171.76 14.79 173.882 18.255 178.317C21.72 182.752 22.643 187.826 20.313 189.648C17.983 191.47 13.284 189.348 9.81902 184.91C6.35402 180.472 5.43102 175.401 7.76102 173.582Z" fill="#87D38C"/>
<path d="M80.705 203.742L85.305 202.764L78.235 177.845C78.011 176.792 76.529 176.216 74.924 176.558C73.319 176.9 72.196 178.028 72.424 179.081L76.101 204.72L80.705 203.742Z" fill="#52969E"/>
<path d="M71.228 208.178C70.614 205.286 74.58 201.992 80.086 200.821C85.592 199.65 90.554 201.048 91.171 203.939C91.788 206.83 87.819 210.124 82.313 211.296C76.807 212.468 71.842 211.072 71.228 208.178V208.178Z" fill="#87D38C"/>
<path d="M130.314 155.838L131.451 151.272L105.954 146.702C104.911 146.442 103.744 147.521 103.347 149.114C102.95 150.707 103.475 152.214 104.518 152.471L129.174 160.402L130.314 155.838Z" fill="#52969E"/>
<path d="M130.145 166.303C127.275 165.587 126.053 160.58 127.415 155.117C128.777 149.654 132.208 145.806 135.078 146.517C137.948 147.228 139.17 152.24 137.806 157.703C136.442 163.166 133.015 167.019 130.145 166.303V166.303Z" fill="#87D38C"/>
<path d="M109.003 90.253L105.403 87.226L90.113 108.141C89.421 108.965 89.882 110.488 91.14 111.541C92.398 112.594 93.976 112.784 94.668 111.96L112.608 93.275L109.003 90.253Z" fill="#52969E"/>
<path d="M118.335 94.99C116.435 97.255 111.395 96.159 107.084 92.539C102.773 88.919 100.816 84.151 102.715 81.886C104.614 79.621 109.652 80.717 113.966 84.337C118.28 87.957 120.234 92.726 118.335 94.99Z" fill="#87D38C"/>
<path d="M67.178 186.06C92.5627 186.06 113.141 165.482 113.141 140.097C113.141 114.712 92.5627 94.134 67.178 94.134C41.7934 94.134 21.215 114.712 21.215 140.097C21.215 165.482 41.7934 186.06 67.178 186.06Z" fill="#62B29A"/>
<path d="M36.481 129.845C36.4705 121.424 39.0693 113.207 43.92 106.324C39.0282 109.756 34.9468 114.217 31.9625 119.394C28.9782 124.571 27.1633 130.339 26.6452 136.292C26.1271 142.245 26.9184 148.24 28.9634 153.854C31.0085 159.469 34.2578 164.568 38.4832 168.794C42.7087 173.019 47.8078 176.269 53.4226 178.314C59.0374 180.359 65.0318 181.15 70.985 180.632C76.9381 180.114 82.7057 178.299 87.8828 175.315C93.0599 172.33 97.5211 168.249 100.953 163.357C94.8193 167.665 87.6206 170.207 80.1417 170.705C72.6627 171.203 65.1906 169.638 58.54 166.181C51.8893 162.724 46.3153 157.507 42.4257 151.1C38.5361 144.693 36.4802 137.341 36.482 129.845H36.481Z" fill="#457F97"/>
<path d="M96.8231 121.751C98.998 119.577 97.1694 114.222 92.7389 109.791C88.3084 105.361 82.9537 103.532 80.7789 105.707C78.6041 107.882 80.4326 113.237 84.8631 117.667C89.2936 122.098 94.6483 123.926 96.8231 121.751Z" fill="#457F97"/>
<path d="M105.101 146.357C104.491 151.027 102.137 154.572 99.843 154.27C97.549 153.968 96.19 149.94 96.8 145.27C97.41 140.6 99.766 137.058 102.058 137.356C104.35 137.654 105.713 141.687 105.101 146.357Z" fill="#457F97"/>
<path d="M61.194 157.003C64.141 159.143 65.681 162.051 64.63 163.497C63.579 164.943 60.338 164.384 57.389 162.244C54.44 160.104 52.902 157.198 53.953 155.75C55.004 154.302 58.245 154.864 61.194 157.003V157.003Z" fill="#457F97"/>
<path d="M89.695 132.919C90.919 135.584 90.22 138.519 88.141 139.471C86.062 140.423 83.382 139.04 82.16 136.377C80.938 133.714 81.635 130.777 83.714 129.825C85.793 128.873 88.475 130.256 89.695 132.919Z" fill="#457F97"/>
<path d="M53.782 125.246C51.57 129.08 47.348 130.786 44.353 129.056C41.358 127.326 40.722 122.817 42.936 118.984C45.15 115.151 49.372 113.444 52.368 115.174C55.364 116.904 55.996 121.412 53.782 125.246Z" fill="#457F97"/>
<path d="M56.249 91.352L52.131 92.294L58.042 111.152C58.225 111.952 59.542 112.333 60.975 112.003C62.408 111.673 63.428 110.762 63.245 109.962L60.368 90.41L56.249 91.352Z" fill="#52969E"/>
<path d="M64.766 87.551C65.266 89.751 61.684 92.443 56.759 93.571C51.834 94.699 47.431 93.831 46.927 91.634C46.423 89.437 50.011 86.74 54.937 85.612C59.863 84.484 64.264 85.353 64.766 87.551V87.551Z" fill="#87D38C"/>
<path d="M35.543 87.94L32.456 89.769L42.121 103.49C42.478 104.09 43.637 104.059 44.714 103.42C45.791 102.781 46.377 101.779 46.02 101.181L38.63 86.114L35.543 87.94Z" fill="#52969E"/>
<path d="M41.447 82.661C42.423 84.309 40.22 87.418 36.529 89.606C32.838 91.794 29.052 92.23 28.076 90.584C27.1 88.938 29.303 85.827 32.997 83.642C36.691 81.457 40.471 81.015 41.447 82.661V82.661Z" fill="#87D38C"/>
<path d="M38.233 191.165L41.125 193.29L49.964 179.022C50.376 178.461 49.892 177.405 48.884 176.665C47.876 175.925 46.722 175.778 46.31 176.34L35.338 189.045L38.233 191.165Z" fill="#52969E"/>
<path d="M31.06 187.804C32.195 186.262 35.918 187.072 39.376 189.611C42.834 192.15 44.721 195.462 43.588 197.004C42.455 198.546 38.732 197.739 35.272 195.199C31.812 192.659 29.928 189.349 31.06 187.804V187.804Z" fill="#87D38C"/>
<path d="M116.519 176.305L118.649 173.405L104.699 164.805C104.15 164.405 103.099 164.897 102.362 165.905C101.625 166.913 101.462 168.062 102.008 168.464L114.388 179.204L116.519 176.305Z" fill="#52969E"/>
<path d="M113.114 183.472C111.606 182.366 112.451 178.657 114.998 175.187C117.545 171.717 120.832 169.801 122.338 170.91C123.844 172.019 123.001 175.725 120.454 179.195C117.907 182.665 114.62 184.578 113.114 183.472Z" fill="#87D38C"/>
<path d="M27.456 109.972L24.909 113.341L41.558 123.987C42.213 124.481 43.464 123.929 44.358 122.753C45.252 121.577 45.438 120.225 44.785 119.731L30.011 106.601L27.456 109.972Z" fill="#52969E"/>
<path d="M31.534 101.584C33.334 102.946 32.317 107.314 29.269 111.346C26.221 115.378 22.291 117.539 20.493 116.18C18.695 114.821 19.71 110.45 22.758 106.421C25.806 102.392 29.741 100.225 31.534 101.584V101.584Z" fill="#87D38C"/>
<path d="M17.369 142.739L17.581 146.958L37.181 144.411C38 144.368 38.605 143.141 38.53 141.671C38.455 140.201 37.73 139.04 36.913 139.081L17.158 138.52L17.369 142.739Z" fill="#52969E"/>
<path d="M15.104 133.692C17.357 133.579 19.388 137.579 19.641 142.625C19.894 147.671 18.277 151.857 16.026 151.97C13.775 152.083 11.744 148.086 11.489 143.037C11.234 137.988 12.853 133.806 15.104 133.692Z" fill="#87D38C"/>
<path d="M61.228 189.954L65.421 190.477L66.315 170.735C66.415 169.92 65.315 169.113 63.85 168.93C62.385 168.747 61.122 169.26 61.019 170.075L57.028 189.431L61.228 189.954Z" fill="#52969E"/>
<path d="M51.922 190.614C52.202 188.378 56.493 187.072 61.508 187.696C66.523 188.32 70.361 190.643 70.082 192.879C69.803 195.115 65.513 196.424 60.499 195.797C55.485 195.17 51.645 192.848 51.922 190.614Z" fill="#87D38C"/>
<path d="M94.651 182.306L98.198 180.012L86.193 164.312C85.747 163.623 84.383 163.712 83.145 164.512C81.907 165.312 81.265 166.519 81.711 167.206L91.102 184.597L94.651 182.306Z" fill="#52969E"/>
<path d="M87.946 188.791C86.722 186.897 89.17 183.138 93.414 180.391C97.658 177.644 102.089 176.957 103.314 178.851C104.539 180.745 102.09 184.502 97.846 187.251C93.602 190 89.171 190.682 87.946 188.791Z" fill="#87D38C"/>
<path d="M113.61 120.716L111.967 116.824L94.422 125.924C93.665 126.244 93.522 127.603 94.092 128.96C94.662 130.317 95.743 131.16 96.492 130.842L115.247 124.613L113.61 120.716Z" fill="#52969E"/>
<path d="M118.832 128.444C116.755 129.321 113.478 126.258 111.511 121.603C109.544 116.948 109.636 112.463 111.711 111.586C113.786 110.709 117.063 113.772 119.029 118.427C120.995 123.082 120.909 127.567 118.832 128.444Z" fill="#87D38C"/>
<path d="M87.063 99.041L83.299 97.116L75.706 115.362C75.333 116.092 76.092 117.227 77.406 117.899C78.72 118.571 80.083 118.523 80.457 117.793L90.824 100.966L87.063 99.041Z" fill="#52969E"/>
<path d="M96.032 101.605C95.005 103.605 90.526 103.371 86.027 101.068C81.528 98.765 78.714 95.268 79.743 93.268C80.772 91.268 85.249 91.502 89.748 93.803C94.247 96.104 97.058 99.598 96.032 101.605Z" fill="#87D38C"/>
<path d="M63.069 130.536C59.732 133.874 54.623 134.175 51.657 131.208C48.691 128.241 48.988 123.131 52.329 119.795C55.67 116.459 60.775 116.156 63.741 119.123C66.707 122.09 66.406 127.195 63.069 130.536Z" fill="#87D38C"/>
<path d="M56.979 143.498C59.131 145.814 59.206 149.243 57.148 151.156C55.09 153.069 51.676 152.739 49.524 150.424C47.372 148.109 47.297 144.679 49.355 142.766C51.413 140.853 54.827 141.18 56.979 143.498Z" fill="#87D38C"/>
<path d="M88.727 144.091C89.341 143.643 90.0715 143.381 90.8307 143.338C91.5898 143.295 92.3452 143.472 93.0059 143.849C93.6665 144.225 94.2043 144.785 94.5545 145.46C94.9046 146.134 95.0522 146.896 94.9795 147.653C94.9067 148.41 94.6167 149.13 94.1444 149.726C93.6721 150.321 93.0377 150.768 92.3174 151.012C91.5972 151.255 90.8218 151.286 90.0848 151.099C89.3477 150.912 88.6803 150.516 88.163 149.959C87.4634 149.105 87.13 148.008 87.2357 146.909C87.3414 145.81 87.8774 144.797 88.727 144.091V144.091Z" fill="#87D38C"/>
<path d="M71.318 151.785C74.195 149.115 78.448 149.023 80.818 151.578C83.188 154.133 82.782 158.369 79.907 161.039C77.032 163.709 72.779 163.803 70.407 161.246C68.035 158.689 68.443 154.454 71.318 151.785Z" fill="#87D38C"/>
<path d="M76.17 129.482C75.751 128.908 75.5068 128.225 75.4669 127.515C75.427 126.806 75.593 126.1 75.945 125.482C76.297 124.865 76.8199 124.362 77.4508 124.035C78.0818 123.708 78.7938 123.57 79.5013 123.638C80.2087 123.706 80.8814 123.977 81.4384 124.419C81.9953 124.86 82.4128 125.453 82.6406 126.127C82.8684 126.8 82.8967 127.525 82.7222 128.214C82.5477 128.903 82.1778 129.526 81.657 130.01C80.8581 130.664 79.8327 130.976 78.8046 130.877C77.7766 130.778 76.8295 130.277 76.17 129.482V129.482Z" fill="#87D38C"/>
<path d="M63.081 139.876C63.218 136.165 66.004 133.254 69.303 133.376C72.602 133.498 75.166 136.605 75.028 140.319C74.89 144.033 72.105 146.941 68.806 146.819C65.507 146.697 62.944 143.589 63.081 139.876V139.876Z" fill="#87D38C"/>
<path d="M206.632 92.348L206.08 90.9109L199.758 93.9449C199.487 94.0449 199.423 94.545 199.615 95.045C199.807 95.545 200.184 95.869 200.455 95.765L207.185 93.79L206.632 92.348Z" fill="#52969E"/>
<path d="M208.425 95.228C207.678 95.515 206.538 94.352 205.878 92.633C205.218 90.914 205.289 89.287 206.036 89C206.783 88.713 207.923 89.876 208.583 91.6C209.243 93.324 209.171 94.947 208.425 95.228Z" fill="#87D38C"/>
<path d="M156.158 104.882L156.567 106.366L163.157 103.966C163.437 103.889 163.549 103.406 163.407 102.888C163.265 102.37 162.921 102.014 162.641 102.088L155.75 103.397L156.158 104.882Z" fill="#52969E"/>
<path d="M154.655 101.836C155.426 101.623 156.448 102.892 156.937 104.668C157.426 106.444 157.196 108.056 156.426 108.268C155.656 108.48 154.633 107.212 154.144 105.436C153.655 103.66 153.884 102.048 154.655 101.836V101.836Z" fill="#87D38C"/>
<path d="M181.426 70.915H179.412L180.154 81.976C180.154 82.436 180.723 82.809 181.426 82.809C182.129 82.809 182.699 82.436 182.699 81.976L183.44 70.915H181.426Z" fill="#52969E"/>
<path d="M185.789 69.902C185.789 71.167 183.836 72.194 181.426 72.194C179.016 72.194 177.064 71.168 177.064 69.902C177.064 68.636 179.017 67.611 181.426 67.611C183.835 67.611 185.789 68.636 185.789 69.902Z" fill="#87D38C"/>
<path d="M156.399 86.555L155.515 88.365L165.782 92.547C166.196 92.747 166.782 92.401 167.089 91.77C167.396 91.139 167.311 90.462 166.897 90.261L157.282 84.745L156.399 86.555Z" fill="#52969E"/>
<path d="M157.4 82.19C158.537 82.745 158.6 84.949 157.546 87.115C156.492 89.281 154.712 90.586 153.575 90.031C152.438 89.476 152.375 87.271 153.428 85.106C154.481 82.941 156.263 81.635 157.4 82.19V82.19Z" fill="#87D38C"/>
<path d="M159.484 115.904L160.725 117.491L168.983 110.097C169.346 109.814 169.289 109.136 168.856 108.582C168.423 108.028 167.779 107.809 167.416 108.092L158.244 114.316L159.484 115.904Z" fill="#52969E"/>
<path d="M155.999 113.092C156.999 112.312 159.007 113.22 160.49 115.118C161.973 117.016 162.368 119.187 161.371 119.967C160.374 120.747 158.363 119.838 156.88 117.94C155.397 116.042 155.001 113.871 155.999 113.092Z" fill="#87D38C"/>
<path d="M187.216 125.996L189.187 125.577L186.161 114.916C186.061 114.465 185.431 114.216 184.744 114.365C184.057 114.514 183.577 114.994 183.673 115.445L185.247 126.417L187.216 125.996Z" fill="#52969E"/>
<path d="M183.163 127.897C182.9 126.66 184.597 125.25 186.954 124.749C189.311 124.248 191.434 124.849 191.698 126.083C191.962 127.317 190.264 128.73 187.907 129.231C185.55 129.732 183.423 129.135 183.163 127.897Z" fill="#87D38C"/>
<path d="M208.445 105.497L208.932 103.543L198.02 101.588C197.573 101.477 197.074 101.939 196.904 102.62C196.734 103.301 196.959 103.945 197.404 104.057L207.956 107.457L208.445 105.497Z" fill="#52969E"/>
<path d="M208.374 109.976C207.146 109.67 206.623 107.527 207.206 105.189C207.789 102.851 209.256 101.207 210.485 101.507C211.714 101.807 212.236 103.956 211.652 106.294C211.068 108.632 209.602 110.283 208.374 109.976V109.976Z" fill="#87D38C"/>
<path d="M199.326 77.43L197.783 76.13L191.242 85.08C190.942 85.433 191.142 86.0799 191.681 86.5359C192.22 86.9919 192.895 87.068 193.191 86.715L200.869 78.715L199.326 77.43Z" fill="#52969E"/>
<path d="M203.32 79.454C202.506 80.423 200.35 79.954 198.505 78.405C196.66 76.856 195.823 74.815 196.635 73.846C197.447 72.877 199.604 73.346 201.45 74.895C203.296 76.444 204.133 78.488 203.32 79.454Z" fill="#87D38C"/>
<path d="M181.426 118.431C192.289 118.431 201.096 109.624 201.096 98.761C201.096 87.8976 192.289 79.091 181.426 79.091C170.563 79.091 161.756 87.8976 161.756 98.761C161.756 109.624 170.563 118.431 181.426 118.431Z" fill="#62B29A"/>
<path d="M168.289 94.374C168.284 90.7704 169.396 87.2538 171.472 84.308C169.38 85.7774 167.634 87.6868 166.358 89.9023C165.082 92.1178 164.307 94.5858 164.086 97.1329C163.865 99.68 164.204 102.245 165.079 104.647C165.955 107.049 167.345 109.23 169.153 111.038C170.961 112.846 173.143 114.236 175.545 115.111C177.948 115.986 180.512 116.325 183.059 116.103C185.606 115.882 188.074 115.106 190.289 113.83C192.505 112.553 194.414 110.808 195.883 108.715C193.258 110.559 190.177 111.647 186.977 111.86C183.776 112.073 180.578 111.404 177.732 109.924C174.886 108.445 172.5 106.212 170.836 103.47C169.171 100.728 168.291 97.5818 168.292 94.374H168.289Z" fill="#457F97"/>
<path d="M194.113 90.9097C195.043 89.9791 194.261 87.6876 192.365 85.7916C190.469 83.8956 188.177 83.113 187.247 84.0437C186.316 84.9743 187.099 87.2657 188.995 89.1617C190.891 91.0577 193.182 91.8403 194.113 90.9097Z" fill="#457F97"/>
<path d="M197.657 101.441C197.396 103.441 196.389 104.957 195.407 104.828C194.425 104.699 193.844 102.975 194.107 100.976C194.37 98.977 195.376 97.461 196.357 97.589C197.338 97.717 197.918 99.442 197.657 101.441Z" fill="#457F97"/>
<path d="M178.866 105.997C180.127 106.913 180.786 108.157 180.337 108.776C179.888 109.395 178.5 109.155 177.237 108.24C175.974 107.325 175.317 106.081 175.766 105.461C176.215 104.841 177.604 105.081 178.866 105.997V105.997Z" fill="#457F97"/>
<path d="M191.063 95.688C191.126 96.0246 191.093 96.3721 190.969 96.691C190.844 97.01 190.632 97.2875 190.357 97.4918C190.082 97.6962 189.756 97.8193 189.414 97.847C189.073 97.8747 188.731 97.806 188.427 97.6487C188.122 97.4914 187.868 97.2517 187.694 96.9572C187.519 96.6626 187.431 96.3249 187.439 95.9825C187.447 95.6401 187.551 95.3068 187.739 95.0207C187.927 94.7345 188.192 94.507 188.503 94.364C189.018 94.2085 189.574 94.2597 190.051 94.5069C190.529 94.7541 190.892 95.1777 191.063 95.688V95.688Z" fill="#457F97"/>
<path d="M175.694 92.405C174.747 94.046 172.941 94.776 171.659 94.035C170.377 93.294 170.105 91.365 171.053 89.724C172.001 88.083 173.807 87.353 175.089 88.094C176.371 88.835 176.641 90.765 175.694 92.405V92.405Z" fill="#457F97"/>
<path d="M176.749 77.9L174.987 78.3L177.517 86.37C177.595 86.712 178.157 86.875 178.772 86.734C179.387 86.593 179.822 86.203 179.743 85.861L178.516 77.497L176.749 77.9Z" fill="#52969E"/>
<path d="M180.394 76.274C180.61 77.214 179.075 78.3669 176.967 78.8499C174.859 79.3329 172.975 78.961 172.76 78.021C172.545 77.081 174.08 75.9269 176.188 75.4439C178.296 74.9609 180.179 75.334 180.394 76.274V76.274Z" fill="#87D38C"/>
<path d="M167.888 76.44L166.567 77.223L170.703 83.095C170.856 83.352 171.352 83.338 171.813 83.065C172.274 82.792 172.525 82.365 172.372 82.107L169.209 75.659L167.888 76.44Z" fill="#52969E"/>
<path d="M170.414 74.182C170.832 74.887 169.889 76.218 168.314 77.154C166.739 78.09 165.114 78.277 164.696 77.573C164.278 76.869 165.221 75.537 166.802 74.602C168.383 73.667 170.001 73.477 170.414 74.182Z" fill="#87D38C"/>
<path d="M169.038 120.618L170.275 121.527L174.058 115.421C174.234 115.181 174.027 114.729 173.596 114.413C173.165 114.097 172.671 114.033 172.496 114.274L167.798 119.709L169.038 120.618Z" fill="#52969E"/>
<path d="M165.969 119.178C166.455 118.518 168.048 118.865 169.528 119.951C171.008 121.037 171.815 122.451 171.328 123.115C170.841 123.779 169.25 123.43 167.769 122.343C166.288 121.256 165.485 119.839 165.969 119.178Z" fill="#87D38C"/>
<path d="M202.541 114.257L203.453 113.015L197.483 109.334C197.248 109.162 196.8 109.373 196.483 109.806C196.166 110.239 196.097 110.729 196.331 110.906L201.631 115.506L202.541 114.257Z" fill="#52969E"/>
<path d="M201.085 117.32C200.439 116.847 200.801 115.26 201.891 113.775C202.981 112.29 204.391 111.475 205.032 111.945C205.673 112.415 205.316 114.005 204.226 115.49C203.136 116.975 201.729 117.797 201.085 117.32Z" fill="#87D38C"/>
<path d="M164.427 85.87L163.337 87.312L170.462 91.868C170.742 92.079 171.278 91.843 171.662 91.34C172.046 90.837 172.124 90.258 171.845 90.047L165.522 84.428L164.427 85.87Z" fill="#52969E"/>
<path d="M166.174 82.28C166.943 82.863 166.509 84.732 165.205 86.458C163.901 88.184 162.219 89.108 161.449 88.527C160.679 87.946 161.114 86.075 162.418 84.35C163.722 82.625 165.404 81.698 166.174 82.28V82.28Z" fill="#87D38C"/>
<path d="M160.111 99.893L160.202 101.699L168.589 100.609C168.94 100.59 169.198 100.065 169.166 99.436C169.134 98.807 168.825 98.31 168.474 98.327L160.02 98.087L160.111 99.893Z" fill="#52969E"/>
<path d="M159.141 96.021C160.105 95.972 160.975 97.685 161.083 99.844C161.191 102.003 160.499 103.795 159.536 103.844C158.573 103.893 157.703 102.182 157.594 100.021C157.485 97.86 158.178 96.069 159.141 96.021Z" fill="#87D38C"/>
<path d="M178.879 120.098L180.673 120.322L181.056 111.873C181.099 111.524 180.627 111.179 180.001 111.1C179.375 111.021 178.834 111.241 178.789 111.59L177.089 119.874L178.879 120.098Z" fill="#52969E"/>
<path d="M174.897 120.38C175.017 119.423 176.853 118.864 178.997 119.131C181.141 119.398 182.786 120.392 182.666 121.349C182.546 122.306 180.711 122.866 178.566 122.598C176.421 122.33 174.779 121.34 174.897 120.38V120.38Z" fill="#87D38C"/>
<path d="M193.184 116.825L194.698 115.843L189.56 109.125C189.369 108.825 188.786 108.869 188.26 109.212C187.734 109.555 187.46 110.071 187.646 110.365L191.665 117.808L193.184 116.825Z" fill="#52969E"/>
<path d="M190.314 119.601C189.79 118.79 190.838 117.182 192.654 116.007C194.47 114.832 196.366 114.537 196.89 115.348C197.414 116.159 196.366 117.766 194.55 118.941C192.734 120.116 190.838 120.414 190.314 119.601V119.601Z" fill="#87D38C"/>
<path d="M201.297 90.467L200.597 88.802L193.089 92.695C192.765 92.832 192.702 93.414 192.948 93.995C193.194 94.576 193.654 94.937 193.977 94.8L202.003 92.134L201.297 90.467Z" fill="#52969E"/>
<path d="M203.531 93.774C202.642 94.149 201.24 92.839 200.398 90.846C199.556 88.853 199.598 86.935 200.485 86.559C201.372 86.183 202.775 87.494 203.617 89.487C204.459 91.48 204.42 93.399 203.531 93.774V93.774Z" fill="#87D38C"/>
<path d="M189.935 81.192L188.326 80.368L185.077 88.177C184.917 88.49 185.242 88.977 185.804 89.263C186.366 89.549 186.95 89.53 187.11 89.218L191.545 82.018L189.935 81.192Z" fill="#52969E"/>
<path d="M193.771 82.2889C193.332 83.1469 191.415 83.045 189.489 82.059C187.563 81.073 186.359 79.578 186.8 78.72C187.241 77.862 189.156 77.964 191.082 78.949C193.008 79.934 194.213 81.4299 193.771 82.2889Z" fill="#87D38C"/>
<path d="M179.667 94.669C179.172 95.0596 178.574 95.2986 177.946 95.3574C177.317 95.4161 176.686 95.292 176.126 95.0001C175.567 94.7081 175.104 94.2608 174.793 93.7118C174.482 93.1629 174.336 92.5358 174.374 91.906C174.411 91.2761 174.629 90.6705 175.002 90.1619C175.376 89.6533 175.888 89.2634 176.478 89.0392C177.067 88.815 177.709 88.766 178.326 88.8982C178.943 89.0303 179.509 89.3379 179.955 89.784C180.562 90.4712 180.872 91.3707 180.818 92.2859C180.764 93.2012 180.35 94.0579 179.667 94.669V94.669Z" fill="#87D38C"/>
<path d="M177.061 100.217C177.31 100.558 177.456 100.965 177.48 101.387C177.504 101.809 177.405 102.229 177.196 102.596C176.987 102.964 176.676 103.263 176.301 103.457C175.925 103.652 175.502 103.734 175.081 103.694C174.66 103.654 174.26 103.492 173.929 103.23C173.597 102.967 173.349 102.615 173.213 102.214C173.078 101.814 173.061 101.383 173.164 100.973C173.268 100.563 173.488 100.192 173.798 99.904C174.273 99.5151 174.883 99.3299 175.494 99.3885C176.105 99.4471 176.668 99.7449 177.061 100.217V100.217Z" fill="#87D38C"/>
<path d="M190.649 100.471C190.912 100.279 191.224 100.167 191.549 100.148C191.874 100.13 192.198 100.206 192.48 100.367C192.763 100.528 192.994 100.767 193.143 101.056C193.293 101.345 193.357 101.671 193.325 101.995C193.294 102.319 193.17 102.627 192.968 102.882C192.766 103.137 192.494 103.328 192.186 103.433C191.878 103.537 191.546 103.55 191.231 103.47C190.915 103.39 190.629 103.221 190.408 102.982C190.109 102.616 189.966 102.147 190.011 101.677C190.056 101.206 190.286 100.773 190.649 100.471V100.471Z" fill="#87D38C"/>
<path d="M183.198 103.763C183.622 103.454 184.126 103.273 184.649 103.244C185.173 103.214 185.694 103.336 186.15 103.596C186.606 103.856 186.977 104.242 187.218 104.707C187.46 105.173 187.561 105.698 187.511 106.221C187.461 106.743 187.261 107.239 186.935 107.65C186.61 108.061 186.172 108.37 185.675 108.538C185.178 108.706 184.643 108.727 184.135 108.598C183.626 108.469 183.166 108.196 182.809 107.812C182.326 107.222 182.096 106.466 182.169 105.707C182.242 104.949 182.612 104.25 183.198 103.763Z" fill="#87D38C"/>
<path d="M185.274 94.219C185.095 93.9733 184.99 93.681 184.973 93.3773C184.956 93.0736 185.027 92.7714 185.177 92.5071C185.328 92.2428 185.552 92.0277 185.822 91.8876C186.092 91.7476 186.397 91.6886 186.7 91.7177C187.002 91.7469 187.29 91.863 187.529 92.0519C187.767 92.2409 187.946 92.4947 188.043 92.7829C188.141 93.0711 188.153 93.3813 188.078 93.6761C188.003 93.971 187.845 94.238 187.622 94.445C187.28 94.7251 186.841 94.8586 186.401 94.8162C185.961 94.7739 185.556 94.5592 185.274 94.219Z" fill="#87D38C"/>
<path d="M179.673 98.667C179.749 98.1763 179.966 97.7182 180.297 97.3479C180.628 96.9775 181.058 96.7106 181.537 96.5794C182.016 96.4481 182.523 96.4581 182.996 96.6081C183.47 96.7581 183.89 97.0418 184.206 97.4249C184.522 97.808 184.72 98.2742 184.777 98.7675C184.834 99.2608 184.748 99.7601 184.527 100.205C184.307 100.65 183.963 101.023 183.537 101.277C183.11 101.531 182.619 101.656 182.123 101.638C181.405 101.567 180.745 101.214 180.286 100.658C179.827 100.101 179.606 99.3854 179.673 98.667V98.667Z" fill="#87D38C"/>
</g>
<defs>
<clipPath id="clip0">
<rect width="1114.51" height="650" fill="white"/>
</clipPath>
</defs>
</svg>
