<svg xmlns="http://www.w3.org/2000/svg" width="1740.917" height="367" viewBox="0 0 1740.917 367">
    <defs>
        <style>
            .prefix__cls-1{fill:#a7c4f3}.prefix__cls-2{fill:#a9453d}.prefix__cls-3{fill:#ffb27d}.prefix__cls-5{fill:#071e42}.prefix__cls-6{fill:#d2e4ff}.prefix__cls-7{fill:#1c468a}.prefix__cls-8{fill:#ed975d}.prefix__cls-10{fill:#f99746}.prefix__cls-11{fill:#e58033}.prefix__cls-12{fill:#e58638}.prefix__cls-13{fill:#ed985f}.prefix__cls-14{fill:#52969e}.prefix__cls-15{fill:#87d38c}.prefix__cls-16{fill:#62b29a}.prefix__cls-17{fill:#457f97}.prefix__cls-19{fill:#b6dbff}.prefix__cls-20{fill:#eef6ff}
        </style>
    </defs>
    <g id="prefix__Сгруппировать_959" data-name="Сгруппировать 959" transform="translate(204.029 -109)">
        <g id="prefix__Сгруппировать_925" data-name="Сгруппировать 925">
            <path id="prefix__Контур_875" d="M455.769 487.986c-20.563 0-39.97-7.547-55.976-21.737-33.637-29.82-47.831-85.262-25.5-133.871 10.918-23.7 26.115-45.537 48.958-58.58a99.8 99.8 0 0 1 14.345-6.714c20.944-7.9 43.347-8.983 60.606-14.452 19.623-5.973 33.079-16.438 43.3-35.148 57.036-104.484 244.732-54.09 211.835 92.858-7.094 31.68 13.531 47.583 33.06 65.648 11.273 10.434 22.185 21.589 27.183 36.917a58.491 58.491 0 0 1 2.828 17.056c.525 25.442-13.679 47.225-33.486 55.052-9.2 3.634-15.317 3.092-24.976 3.087z" class="prefix__cls-1" data-name="Контур 875" transform="translate(-567.533 -12.133)"/>
            <g id="prefix__Сгруппировать_920" data-name="Сгруппировать 920" transform="translate(-8080 -294.073)">
                <g id="prefix__Сгруппировать_855" data-name="Сгруппировать 855" transform="translate(8046.629 448.073)">
                    <g id="prefix__Сгруппировать_854" data-name="Сгруппировать 854">
                        <g id="prefix__Сгруппировать_853" data-name="Сгруппировать 853">
                            <path id="prefix__Контур_732" d="M1932.862 296.287a18.167 18.167 0 0 1-6.3-.657c-5.534-1.614-15.761-5.924-31.634 2.46-14.656 7.741-30.273 55.154-36.658 59.768s-15.005 6.7-14.048 16.136 12.452 15.728 4.789 21.717 2.192 27.826 23.923 27.388 76.614-23.328 76.15-34.491-3.663-11.868-9.885-20.649 17.578-21.967 16.213-39.779c-1.234-16.128-14.012-32.464-22.55-31.893z" class="prefix__cls-2" data-name="Контур 732" transform="translate(-1844.15 -293.079)"/>
                            <path id="prefix__Контур_733" d="M1822.13 689.843c11.174-23.505 16.521-30.152 16.707-37.548.148-5.848-2.926-12.159-8.9-27.632a54.741 54.741 0 0 1-2.974-11.185c-4.723-29.83 13.667-62.076 25.1-64.273 3.18-.789 8.572-11.563 8.505-28.923l1.431.265 24.069 4.47s-.548 7.1-.564 13.8c-.016 5.578.343 10.864 1.689 11.53 1.733.147 2.755.244 2.755.244s20.068 26.141 21.756 50.454-16.071 34.875.134 83.46c16.544 49.617-95.881 18.326-89.708 5.338z" class="prefix__cls-3" data-name="Контур 733" transform="translate(-1795.515 -456.474)"/>
                            <path id="prefix__Контур_734" fill="#e8945b" d="M1937.58 525.694s-.547 7.1-.564 13.8c-13.468-.356-20.587-11.88-23.5-18.267z" data-name="Контур 734" transform="translate(-1847.028 -457.152)"/>
                            <path id="prefix__Контур_735" d="M1895.29 430.559s-31.866.493-31.888-18.125-4.15-31.093 16.2-32.2 24.306 6 25.925 12.211-1.949 37.506-10.237 38.114z" class="prefix__cls-3" data-name="Контур 735" transform="translate(-1800.239 -355.679)"/>
                            <path id="prefix__Контур_736" d="M1865.686 371.4s19.273-14.853 29.739-5.031c2.183-1.167 5.481-1.3 9.635 3.421 7.387 8.4.814 23.244.814 23.244 2.693-12.574-.756-15.748-3.571-18.77-1.539-1.653-4.584-3.067-6.887-3.968-2.759 6.5-11.238 23.972-24.883 29.888a71.059 71.059 0 0 0 11.067-12.932 20.968 20.968 0 0 1-9.119 5.294c-13.39 3.229-16.717-5.686-16.717-5.686s7.79-2.099 9.922-15.46z" class="prefix__cls-2" data-name="Контур 736" transform="translate(-1800.725 -343.373)"/>
                            <path id="prefix__Контур_737" d="M1789.085 785.115c1.277 3.764 5.657 5.48 16.247 4.453 6.472-.632 9.358-10.8 10.644-19.485 3.889 12.418 9.332 19.389 16.369 20.851 10.267 2.144 62.058 8.049 65.448-15.041 3.729-25.4 2.611-111.186 2.448-117.6-.434-17.273-4.2-28.115-25.694-32.482-2.395-.487-5.759-.829-10.5-1.416 0 0-2.8-.309-2.753-.243.874 1.47 13.471 18.234 12.555 22.52-.958 4.483-42.557.446-45.428-2.018s-1.963-21.739-1.963-21.739-36.681 1.285-40.64 8.773c-17.641 33.361 3.206 143.168 2.9 148.932a12.521 12.521 0 0 0 .367 4.495z" class="prefix__cls-5" data-name="Контур 737" transform="translate(-1769.612 -530.284)"/>
                            <path id="prefix__Контур_738" d="M1898.416 479.673s-16.872 2.626-32.037-1.416l-.282 15.386s26.334 15.473 30.034 2.831c1.193-4.083 2.285-16.801 2.285-16.801z" class="prefix__cls-6" data-name="Контур 738" transform="translate(-1793.666 -426.252)"/>
                            <g id="prefix__Сгруппировать_852" data-name="Сгруппировать 852" transform="translate(60.23 49.696)">
                                <path id="prefix__Контур_739" d="M1981.747 488.7l.153-.581c-.153-.036-8.241-5.3-11.893-12.121-.984-1.839-2.068-4.793-1.054-5.168 4.892-1.808 13.139 3.526 12.192 2.657l-.2-.861c-.435-.184-7.481-3.957-12.625-2.056-1.181.436.088 3.969 1.16 5.972a23.846 23.846 0 0 0 4.619 6.479 31.293 31.293 0 0 0 7.648 5.679z" class="prefix__cls-6" data-name="Контур 739" transform="translate(-1967.847 -470.035)"/>
                            </g>
                            <path id="prefix__Контур_740" d="M1998.982 463.822c-.949-5.341-6.677-6.76-8.383-4.97-.92.965-.947 3.34-.91 4.3.259 6.738 6.941 6.268 6.941 6.268s2.68-3.757 2.352-5.598z" class="prefix__cls-3" data-name="Контур 740" transform="translate(-1931.264 -411.768)"/>
                        </g>
                    </g>
                </g>
                <g id="prefix__Сгруппировать_869" data-name="Сгруппировать 869" transform="translate(8114.612 484.268)">
                    <path id="prefix__Контур_793" d="M2044.1 779.77s27.189 1.709 27.935 34.564-33.553 112.64-33.553 112.64l-65.406-7.9s20.214-151.805 71.024-139.304z" class="prefix__cls-7" data-name="Контур 793" transform="translate(-1932.568 -779.038)"/>
                    <path id="prefix__Контур_794" d="M1950.622 1225.694l61.342-.025 11.743-.008h16.637c1.241-4.655 1.035-10.467-1.033-17.627a182.8 182.8 0 0 1-6.762-36.376q-.171-2.119-.283-4.187c-2.087-37.514 8.817-63.635 7.381-86.551-1.246-19.894-18.274-35.215-22.521-38.741-.61-.508-.955-.77-.955-.77a35.185 35.185 0 0 0-3.582-.554c-1.141-.651-1.6-5.141-1.742-10.4-.039-1.46-.052-2.98-.048-4.492.007-3.1.091-6.262.2-9.022.009-.188.016-.374.023-.557.173-4.418.391-7.665.391-7.665l-19.508-4.183-2.4-.512-1.705-.364-2.446-.525-1.55-.332v.015a99.07 99.07 0 0 1-1.892 20.312c-1.694 8.125-4.215 13.414-6.274 15.2a3.145 3.145 0 0 1-.821.539 1.759 1.759 0 0 1-.219.079c-8.177 1.814-19.643 20.02-25.008 42.919a104.081 104.081 0 0 0-2.165 37.407 76.943 76.943 0 0 0 3.221 13.979c.719 2.156 1.4 4.168 2.043 6.054.117.339.231.676.343 1.005 3.7 10.848 6.028 17.372 6.881 22.654 0 .014 0 .029.007.042a27.562 27.562 0 0 1 .315 2.794c.041.641.057 1.27.044 1.894v.092c-.2 9.242-5.99 17.548-18.089 46.924-1.29 3.107 2.157 7.061 8.432 10.982z" class="prefix__cls-3" data-name="Контур 794" transform="translate(-1893.552 -939.954)"/>
                    <path id="prefix__Контур_795" d="M2082.492 1009.56s-.593 8.879-.611 17.244c-14.582-.445-22.289-14.847-25.448-22.83z" class="prefix__cls-8" data-name="Контур 795" transform="translate(-1964.635 -940.802)"/>
                    <path id="prefix__Контур_796" d="M2028.271 890.663s-34.5.617-34.523-22.652-4.492-38.859 17.533-40.236 26.314 7.5 28.068 15.261-2.105 46.864-11.078 47.627z" class="prefix__cls-3" data-name="Контур 796" transform="translate(-1905.544 -813.986)"/>
                    <path id="prefix__Контур_797" fill="#d9935c" d="M2191.66 1312.122a53.556 53.556 0 0 0 15.482 4.059c2.643-5.024 5.459-10.459 8.208-15.917 7.687-15.256 14.842-30.661 16.186-37.568 1.015-5.2 3.5-15.6 6.4-27.262.438-1.762.884-3.554 1.339-5.361q.56-2.235 1.129-4.49c5.455-21.634 11.272-43.828 11.272-43.828v-.005l1.507-7.058 1.042-4.9 8.4-39.4.3-1.379s-.247.027-.7.082c-.345.045-.811.1-1.376.18-4.768.651-16.671 2.529-24.315 5.99-3.226 1.458-5.685 3.2-6.545 5.24-2.855 6.8-5.708 17.729-8.426 30.361-4.093 19.026-7.878 41.907-10.9 60.339-2.8 17.092-4.93 30.361-6.046 33.173-1.463 3.695-4.345 15.236-7.835 28.638q-.514 1.994-1.055 4.039c-1.301 4.951-2.669 10.067-4.067 15.067z" data-name="Контур 797" transform="translate(-2180.14 -1030.726)"/>
                    <path id="prefix__Контур_798" d="M1923.07 1648.188c5.884-19.209 22.724-57.918 22.724-57.918l.014.007c1.632.589 3.28 1.126 4.931 1.606a97.8 97.8 0 0 0 12.131 2.727c28.164 4.539 54.582-2.638 54.582-2.638l.6 2.168c1.271 4.587 4.586 16.5 10.151 36.234a119.39 119.39 0 0 1 3.3 17.766z" class="prefix__cls-2" data-name="Контур 798" transform="translate(-1879.071 -1362.443)"/>
                    <path id="prefix__Контур_799" d="M1971.32 1131.666a.308.308 0 0 1 .015-.054c7.975-20.5 14.291-35.973 14.911-37.107 1.78-3.253 26.076-6.484 29.636-6.461 2.584 0 4-9.267 4.578-14.34a1.719 1.719 0 0 1 2.7-1.334 43.57 43.57 0 0 0 11.379 6.021c7.591 2.7 14.675 2.891 18.613 1.781a2.928 2.928 0 0 1 3.446 3.615c-.523 2.583-.66 5.4.626 6.882 6.3 1.329 22.135 5.259 24.083 11.521a83.188 83.188 0 0 1 1.51 41.812c-1.644 30.187-8.851 75.284-8.851 75.284-33.452 19.182-71.669-1.7-71.669-1.7s-.042-.925-.114-2.043c-.064-.925-.149-1.974-.249-2.737-.221-1.7-7.263-19.891-7.263-19.891s-.264 1.411-.726 3.824c-2.578 13.307-11.407 57.021-16.826 60.953-3.14 2.275-13.179 2.313-22.608-.478-9.8-2.9-18.94-8.859-18.94-18.557-.003-12.408 20.782-68.535 35.749-106.991z" class="prefix__cls-10" data-name="Контур 799" transform="translate(-1935.568 -989.756)"/>
                    <path id="prefix__Контур_800" d="M2145.449 1368.907s7.042 18.195 7.263 19.891c.1.763.185 1.812.249 2.737a33.889 33.889 0 0 0 11.714 6.669c11.914 3.909 17.09-20.816 16.377-33.152s-17.56-47.546-23.17-48.278-12.433 52.133-12.433 52.133z" class="prefix__cls-11" data-name="Контур 800" transform="translate(-2086.348 -1165.75)"/>
                    <path id="prefix__Контур_801" d="M2282.959 1506.249c.463-2.413.727-3.824.727-3.824a20.906 20.906 0 0 0-.727 3.824z" class="prefix__cls-12" data-name="Контур 801" transform="translate(-2224.585 -1299.269)"/>
                    <path id="prefix__Контур_802" d="M2372.976 1391.332c0 9.7 9.135 15.659 18.94 18.557-13.514-17.424 16.058-122.854 16.813-125.545-14.969 38.456-35.753 94.583-35.753 106.988z" class="prefix__cls-11" data-name="Контур 802" transform="translate(-2372.976 -1142.433)"/>
                    <path id="prefix__Контур_803" d="M2073.511 1088.044s18.193 12.474 31.957 9.521c0 0 3.3-2.259-1.253-4.533-4.279-2.127-14.234-8.427-12.048-14.641a43.548 43.548 0 0 1-11.379-6.021 1.72 1.72 0 0 0-2.7 1.334c-.575 5.073-1.988 14.34-4.577 14.34z" class="prefix__cls-11" data-name="Контур 803" transform="translate(-1993.198 -989.755)"/>
                    <path id="prefix__Контур_804" d="M2043 816.326s-6.372-14.587-23.2 15.762c-2.14 3.859-11.256 7.121-14.485 5.945-15.8-5.753-11.393 17.087-11.393 17.087s-1.524-58.658 11.731-59.735S2043 816.326 2043 816.326z" class="prefix__cls-7" data-name="Контур 804" transform="translate(-1908.788 -790.767)"/>
                    <path id="prefix__Контур_805" d="M1986.465 828.945s7.4 5.177 18.129 22.945c0 0 .663-16.332-5.636-20.46a16.671 16.671 0 0 0-12.493-2.485z" class="prefix__cls-7" data-name="Контур 805" transform="translate(-1868.608 -814.697)"/>
                    <path id="prefix__Контур_806" d="M2032.518 955.018s-18.03 6.607-33.07 0l-2.119 18.145s25.682 18.761 30.972 4.271c1.707-4.68 4.217-22.416 4.217-22.416z" class="prefix__cls-6" data-name="Контур 806" transform="translate(-1899.33 -905.596)"/>
                    <g id="prefix__Сгруппировать_868" data-name="Сгруппировать 868" transform="translate(87.408 45.566)">
                        <path id="prefix__Контур_807" d="M2134.091 964.639l.227-.668c-.153-.061-7.8-7.257-10.731-15.757-.789-2.292-1.547-5.913-.464-6.233 5.222-1.546 13.027 5.753 12.162 4.612l-.1-1.041c-.424-.27-7.187-5.579-12.677-3.954-1.26.373-.382 4.7.477 7.2a29.269 29.269 0 0 0 3.958 8.212 33.606 33.606 0 0 0 7.148 7.629z" class="prefix__cls-6" data-name="Контур 807" transform="translate(-2121.875 -941.288)"/>
                    </g>
                    <path id="prefix__Контур_808" d="M2148.112 937.87c-.337-6.425-6.031-8.793-7.99-6.885-1.056 1.029-1.366 3.832-1.442 4.974-.537 7.992 6.357 8.244 6.357 8.244s3.19-4.118 3.075-6.333z" class="prefix__cls-3" data-name="Контур 808" transform="translate(-2051.583 -887.851)"/>
                </g>
                <g id="prefix__Сгруппировать_871" data-name="Сгруппировать 871" transform="translate(8061.689 593.993)">
                    <path id="prefix__Контур_809" d="M1717.054 1170.171s-17.043-2.969-31.521 6.682-16.576 57.165-23.88 61.993-38.614 17.446-31.312 36.381-5.41 27.475-1.1 40.456 111.06 25.626 119.312 16.345 14.972-40.172 10.5-48.485-24.162-15.633-17-24.043c20.064-23.542 12.554-91.675-24.999-89.329z" class="prefix__cls-2" data-name="Контур 809" transform="translate(-1628.329 -1169.74)"/>
                    <path id="prefix__Контур_810" d="M1860.5 1491.406a66.025 66.025 0 0 1-21.432 13.035c-34.031 13.242-51.84-14.56-59.871-34.252a30.587 30.587 0 0 1 11.4-5.395c.518-.139 1.041-.273 1.566-.4a13.446 13.446 0 0 0 9.64-9.164c1.937-6.468 3.2-16.22 2.264-28.4l1.721.2 28.852 3.57s.008 9.005.594 17.433a86.6 86.6 0 0 0 1.135 9.776 5.808 5.808 0 0 0 5.192 4.684.073.073 0 0 0 .018.024 180.552 180.552 0 0 1 18.921 28.889z" class="prefix__cls-3" data-name="Контур 810" transform="translate(-1736.828 -1354.623)"/>
                    <path id="prefix__Контур_811" d="M1654.314 1621.906c2.81-10.532 13.408-48.306 21.136-55.8 7.46-7.229 24.783-9.893 25.322-9.974h.012s.282.926.765 2.431c1.549 4.881 5.183 15.884 8.052 21.182a9.276 9.276 0 0 0 1.9 2.668c1.492 1.18 10.826 2.133 21.318 2.44.839.025 1.688.044 2.54.059 14.248.27 29.613-.68 30.009-3.851.708-5.633-13.083-26.419-13.6-27.206a.1.1 0 0 1-.017-.025c16.739.968 25.995 5.938 25.995 5.938 15.875 16.055 22.642 39.021 24.7 62.2z" class="prefix__cls-5" data-name="Контур 811" transform="translate(-1647.016 -1445.961)"/>
                    <path id="prefix__Контур_812" d="M1902.726 1431.139s0 9 .595 17.433c-15.95.706-25.417-13.2-29.448-21z" class="prefix__cls-13" data-name="Контур 812" transform="translate(-1804.914 -1355.161)"/>
                    <path id="prefix__Контур_813" d="M1891.865 1306.732s-37.615 3.353-39.343-20.1-7.746-38.822 16.2-41.954 29.274 5.474 31.755 13.163 1.123 47.414-8.612 48.891z" class="prefix__cls-3" data-name="Контур 813" transform="translate(-1788.158 -1223.155)"/>
                    <path id="prefix__Контур_814" d="M1932.051 1363.521s-18.54 4.247-37.873-1.589l-.7 21s3.464 4.374 11.822 7.666c9.391 3.7 20.107 3.555 23.578-5.259 2.822-7.174 3.173-21.818 3.173-21.818z" class="prefix__cls-6" data-name="Контур 814" transform="translate(-1819.011 -1307.957)"/>
                    <g id="prefix__Сгруппировать_870" data-name="Сгруппировать 870" transform="translate(59.197 50.638)">
                        <path id="prefix__Контур_815" d="M1856.536 1375.75l.21-.791c-.2-.052-10.437-7.408-14.962-16.8-1.22-2.531-2.543-6.588-1.236-7.079 6.305-2.367 16.748 5.088 15.555 3.882l-.236-1.18c-.554-.26-9.494-5.559-16.124-3.07-1.522.571.025 5.422 1.353 8.178a32.614 32.614 0 0 0 5.773 8.942 40.238 40.238 0 0 0 9.667 7.918z" class="prefix__cls-6" data-name="Контур 815" transform="translate(-1839.113 -1350.051)"/>
                    </g>
                    <path id="prefix__Контур_816" d="M1849.75 1352.631c-1.1-7.313-8.4-9.369-10.626-6.961-1.2 1.3-1.287 4.541-1.261 5.856.182 9.206 8.749 8.7 8.749 8.7s3.516-5.075 3.138-7.595z" class="prefix__cls-3" data-name="Контур 816" transform="translate(-1779.014 -1295.572)"/>
                    <path id="prefix__Контур_817" d="M1869.5 1233.162c-6.333-6.634-10.62-4.766-12.931-2.466-21.405-9.823-33.455 7.871-33.455 7.871a44.933 44.933 0 0 1-12.736 27.538s7.172 3.742 22.7-1.476c4.744-1.594 8.81-5.342 12.176-9.776a88.09 88.09 0 0 1-13.781 19.566c18.268-10.109 23.951-36.949 24.505-39.784 3.77-.177 10.742 2.051 14.537 11.125 2.422 5.792 2.071 16.619 2.071 16.619s6.414-19.268-3.086-29.217z" class="prefix__cls-2" data-name="Контур 817" transform="translate(-1759.251 -1211.442)"/>
                </g>
            </g>
            <g id="prefix__Сгруппировать_892" data-name="Сгруппировать 892" transform="translate(222.308 237.333)">
                <g id="prefix__Сгруппировать_873" data-name="Сгруппировать 873" transform="translate(57.873 26.388)">
                    <path id="prefix__Контур_818" d="M90.256 670.6l-.682-1.777-7.817 3.75c-.335.129-.414.735-.177 1.355s.7 1.018 1.039.89l8.318-2.441z" class="prefix__cls-14" data-name="Контур 818" transform="translate(-81.444 -666.415)"/>
                    <path id="prefix__Контур_819" d="M90.894 674.684c-.923.354-2.332-1.082-3.148-3.207s-.728-4.136.2-4.49 2.332 1.082 3.148 3.208.723 4.136-.2 4.489z" class="prefix__cls-15" data-name="Контур 819" transform="translate(-79.867 -666.934)"/>
                </g>
                <g id="prefix__Сгруппировать_874" data-name="Сгруппировать 874" transform="translate(1.496 42.269)">
                    <path id="prefix__Контур_820" d="M39.522 683.117l.506 1.834 8.144-2.968c.347-.1.484-.692.308-1.332s-.6-1.081-.947-.986l-8.516 1.617z" class="prefix__cls-14" data-name="Контур 820" transform="translate(-36.715 -679.324)"/>
                    <path id="prefix__Контур_821" d="M38.161 679.423c.953-.263 2.216 1.305 2.821 3.5s.32 4.187-.632 4.449-2.216-1.305-2.821-3.5-.322-4.186.632-4.449z" class="prefix__cls-15" data-name="Контур 821" transform="translate(-37.211 -679.394)"/>
                </g>
                <g id="prefix__Сгруппировать_875" data-name="Сгруппировать 875" transform="translate(30.14)">
                    <path id="prefix__Контур_822" d="M64.451 649.434h-2.489l.918 13.666c0 .568.7 1.03 1.572 1.03s1.573-.461 1.573-1.03l.916-13.671z" class="prefix__cls-14" data-name="Контур 822" transform="translate(-59.06 -645.35)"/>
                    <path id="prefix__Контур_823" d="M70.469 649.062c0 1.564-2.414 2.832-5.393 2.832s-5.391-1.268-5.391-2.832 2.414-2.832 5.391-2.832 5.393 1.27 5.393 2.832z" class="prefix__cls-15" data-name="Контур 823" transform="translate(-59.685 -646.23)"/>
                </g>
                <g id="prefix__Сгруппировать_876" data-name="Сгруппировать 876" transform="translate(0 17.86)">
                    <path id="prefix__Контур_824" d="M39.881 665.082l-1.092 2.237 12.689 5.168c.511.25 1.234-.181 1.615-.961s.274-1.616-.237-1.865l-11.884-6.818z" class="prefix__cls-14" data-name="Контур 824" transform="translate(-35.281 -659.529)"/>
                    <path id="prefix__Контур_825" d="M41.874 660.4c1.406.686 1.487 3.411.181 6.087s-3.5 4.29-4.908 3.6-1.487-3.411-.182-6.087 3.504-4.285 4.909-3.6z" class="prefix__cls-15" data-name="Контур 825" transform="translate(-36.037 -660.243)"/>
                </g>
                <g id="prefix__Сгруппировать_877" data-name="Сгруппировать 877" transform="translate(3.424 49.88)">
                    <path id="prefix__Контур_826" d="M42.967 695.174l1.533 1.961L54.707 688c.449-.35.379-1.188-.157-1.872s-1.331-.956-1.779-.605l-11.336 7.693z" class="prefix__cls-14" data-name="Контур 826" transform="translate(-37.979 -685.366)"/>
                    <path id="prefix__Контур_827" d="M39.4 690.407c1.232-.964 3.718.158 5.551 2.5s2.321 5.029 1.088 5.993-3.718-.159-5.551-2.506-2.316-5.024-1.088-5.987z" class="prefix__cls-15" data-name="Контур 827" transform="translate(-38.724 -684.076)"/>
                </g>
                <g id="prefix__Сгруппировать_878" data-name="Сгруппировать 878" transform="translate(37.641 57.733)">
                    <path id="prefix__Контур_828" d="M70.476 705.957l2.436-.517-3.74-13.18c-.119-.557-.9-.862-1.751-.681s-1.443.777-1.324 1.334l1.945 13.561z" class="prefix__cls-14" data-name="Контур 828" transform="translate(-65.43 -691.527)"/>
                    <path id="prefix__Контур_829" d="M65.6 705.575c-.325-1.53 1.773-3.272 4.685-3.891s5.537.12 5.863 1.649-1.773 3.272-4.685 3.891-5.535-.118-5.863-1.649z" class="prefix__cls-15" data-name="Контур 829" transform="translate(-65.57 -688.799)"/>
                </g>
                <g id="prefix__Сгруппировать_879" data-name="Сгруппировать 879" transform="translate(54.592 41.853)">
                    <path id="prefix__Контур_830" d="M93.2 684.014l.6-2.415-13.486-2.417c-.552-.138-1.169.433-1.379 1.276s.068 1.638.619 1.775l13.041 4.2z" class="prefix__cls-14" data-name="Контур 830" transform="translate(-78.87 -679.042)"/>
                    <path id="prefix__Контур_831" d="M90.42 689.575c-1.518-.379-2.164-3.027-1.444-5.917s2.535-4.925 4.053-4.546 2.164 3.027 1.443 5.917-2.534 4.925-4.052 4.546z" class="prefix__cls-15" data-name="Контур 831" transform="translate(-76.176 -679.067)"/>
                </g>
                <g id="prefix__Сгруппировать_880" data-name="Сгруппировать 880" transform="translate(47.493 7.087)">
                    <path id="prefix__Контур_832" d="M83.461 656.1l-1.907-1.6-8.084 11.058c-.366.436-.122 1.241.543 1.8s1.5.658 1.866.222l9.489-9.883z" class="prefix__cls-14" data-name="Контур 832" transform="translate(-73.299 -651.048)"/>
                    <path id="prefix__Контур_833" d="M87.007 659.345c-1.006 1.2-3.671.618-5.951-1.3s-3.315-4.437-2.311-5.635 3.669-.618 5.951 1.3 3.316 4.437 2.311 5.635z" class="prefix__cls-15" data-name="Контур 833" transform="translate(-71.91 -651.791)"/>
                </g>
                <circle id="prefix__Эллипс_15" cx="24.311" cy="24.311" r="24.311" class="prefix__cls-16" data-name="Эллипс 15" transform="translate(11.221 14.189)"/>
                <path id="prefix__Контур_834" d="M52.314 674.862a21.55 21.55 0 0 1 3.935-12.441 21.656 21.656 0 1 0 30.166 30.166 21.654 21.654 0 0 1-34.1-17.725z" class="prefix__cls-17" data-name="Контур 834" transform="translate(-33.019 -641.785)"/>
                <g id="prefix__Сгруппировать_881" data-name="Сгруппировать 881" transform="translate(22.011 18.228)">
                    <ellipse id="prefix__Эллипс_16" cx="2.945" cy="6.001" class="prefix__cls-17" data-name="Эллипс 16" rx="2.945" ry="6.001" transform="rotate(-45 14.344 -20.408)"/>
                    <path id="prefix__Контур_835" d="M80.615 680.062c-.322 2.47-1.568 4.345-2.781 4.186s-1.932-2.29-1.61-4.76 1.569-4.344 2.781-4.186 1.934 2.29 1.61 4.76z" class="prefix__cls-17" data-name="Контур 835" transform="translate(-47.036 -656.479)"/>
                    <path id="prefix__Контур_836" d="M62.295 683.687c1.559 1.132 2.373 2.67 1.817 3.435s-2.27.469-3.83-.663-2.373-2.669-1.817-3.435 2.27-.468 3.83.663z" class="prefix__cls-17" data-name="Контур 836" transform="translate(-51.939 -654.473)"/>
                    <path id="prefix__Контур_837" d="M74.187 673.845c.647 1.41.278 2.961-.822 3.466s-2.517-.228-3.163-1.637-.278-2.961.822-3.465 2.517.227 3.163 1.636z" class="prefix__cls-17" data-name="Контур 837" transform="translate(-48.756 -657.369)"/>
                    <path id="prefix__Контур_838" d="M59.742 671.5c-1.17 2.028-3.4 2.93-4.987 2.015s-1.921-3.3-.749-5.328 3.4-2.93 4.989-2.015 1.918 3.299.747 5.328z" class="prefix__cls-17" data-name="Контур 838" transform="translate(-53.307 -659.081)"/>
                </g>
                <g id="prefix__Сгруппировать_882" data-name="Сгруппировать 882" transform="translate(24.795 9.421)">
                    <path id="prefix__Контур_839" d="M59.849 656.315l-2.178.5 3.126 9.975c.1.423.791.625 1.551.45s1.3-.656 1.2-1.08l-1.522-10.342z" class="prefix__cls-14" data-name="Контур 839" transform="translate(-54.893 -653.019)"/>
                    <path id="prefix__Контур_840" d="M64.952 654.908c.266 1.161-1.63 2.587-4.235 3.184s-4.934.138-5.2-1.025 1.631-2.589 4.237-3.185 4.933-.136 5.198 1.026z" class="prefix__cls-15" data-name="Контур 840" transform="translate(-55.491 -653.622)"/>
                </g>
                <g id="prefix__Сгруппировать_883" data-name="Сгруппировать 883" transform="translate(14.727 7.593)">
                    <path id="prefix__Контур_841" d="M51.139 655l-1.633.967 5.112 7.257c.189.317.8.3 1.371-.037s.879-.868.691-1.184l-3.909-7.97z" class="prefix__cls-14" data-name="Контур 841" transform="translate(-47.067 -651.68)"/>
                    <path id="prefix__Контур_842" d="M54.787 652.714c.516.872-.649 2.516-2.6 3.673s-3.955 1.388-4.471.517.649-2.516 2.6-3.672 3.955-1.388 4.471-.518z" class="prefix__cls-15" data-name="Контур 842" transform="translate(-47.592 -652.187)"/>
                </g>
                <g id="prefix__Сгруппировать_884" data-name="Сгруппировать 884" transform="translate(16.255 57.491)">
                    <path id="prefix__Контур_843" d="M52.232 699.359l1.529 1.124 4.675-7.547c.218-.3-.038-.855-.571-1.246s-1.143-.469-1.361-.172l-5.8 6.718z" class="prefix__cls-14" data-name="Контур 843" transform="translate(-48.265 -691.337)"/>
                    <path id="prefix__Контур_844" d="M48.964 696.324c.6-.816 2.569-.387 4.4.956s2.827 3.095 2.228 3.91-2.568.389-4.4-.955-2.827-3.094-2.228-3.911z" class="prefix__cls-15" data-name="Контур 844" transform="translate(-48.791 -690.081)"/>
                </g>
                <g id="prefix__Сгруппировать_885" data-name="Сгруппировать 885" transform="translate(53.782 51.494)">
                    <path id="prefix__Контур_845" d="M86.081 692.789l1.127-1.535-7.378-4.549c-.291-.213-.844.048-1.236.584s-.477 1.141-.187 1.354l6.549 5.679z" class="prefix__cls-14" data-name="Контур 845" transform="translate(-78.234 -686.632)"/>
                    <path id="prefix__Контур_846" d="M83.063 695.9c-.8-.585-.35-2.547 1-4.382s3.086-2.849 3.882-2.262.35 2.547-1 4.382-3.085 2.851-3.882 2.262z" class="prefix__cls-15" data-name="Контур 846" transform="translate(-77.017 -685.956)"/>
                </g>
                <g id="prefix__Сгруппировать_886" data-name="Сгруппировать 886" transform="translate(10.371 17.914)">
                    <path id="prefix__Контур_847" d="M47.721 664.319l-1.347 1.781 8.806 5.631c.347.261 1.008-.031 1.478-.653s.571-1.337.226-1.6l-7.814-6.945z" class="prefix__cls-14" data-name="Контур 847" transform="translate(-43.57 -659.668)"/>
                    <path id="prefix__Контур_848" d="M50.484 660.5c.951.72.414 3.031-1.2 5.163s-3.691 3.276-4.642 2.557-.414-3.031 1.2-5.162 3.691-3.277 4.642-2.558z" class="prefix__cls-15" data-name="Контур 848" transform="translate(-44.174 -660.285)"/>
                </g>
                <g id="prefix__Сгруппировать_887" data-name="Сгруппировать 887" transform="translate(6.063 35.111)">
                    <path id="prefix__Контур_849" d="M43.269 678.015l.112 2.232 10.366-1.347c.433-.023.753-.672.714-1.449s-.422-1.392-.855-1.37l-10.449-.3z" class="prefix__cls-14" data-name="Контур 849" transform="translate(-40.145 -673.227)"/>
                    <path id="prefix__Контур_850" d="M42.72 673.779c1.192-.06 2.266 2.056 2.4 4.725s-.721 4.883-1.912 4.943-2.265-2.054-2.4-4.725.721-4.883 1.912-4.943z" class="prefix__cls-15" data-name="Контур 850" transform="translate(-40.794 -673.778)"/>
                </g>
                <g id="prefix__Сгруппировать_888" data-name="Сгруппировать 888" transform="translate(27.455 53.731)">
                    <path id="prefix__Контур_851" d="M61.923 699.526l2.218.276.473-10.442c.054-.431-.53-.858-1.3-.955s-1.443.175-1.5.605L59.7 699.25z" class="prefix__cls-14" data-name="Контур 851" transform="translate(-56.994 -688.387)"/>
                    <path id="prefix__Контур_852" d="M57.586 697.75c.148-1.183 2.418-1.874 5.07-1.544s4.683 1.559 4.535 2.742-2.417 1.875-5.069 1.544-4.683-1.559-4.536-2.742z" class="prefix__cls-15" data-name="Контур 852" transform="translate(-57.578 -686.263)"/>
                </g>
                <g id="prefix__Сгруппировать_889" data-name="Сгруппировать 889" transform="translate(43.144 51.063)">
                    <path id="prefix__Контур_853" d="M76.806 696.056l1.876-1.214-6.35-8.3c-.236-.365-.957-.316-1.612.107s-.994 1.062-.758 1.425l4.967 9.2z" class="prefix__cls-14" data-name="Контур 853" transform="translate(-69.887 -686.294)"/>
                    <path id="prefix__Контур_854" d="M72.57 697.9c-.647-1 .647-2.99 2.892-4.442s4.588-1.816 5.236-.814-.647 2.989-2.892 4.441-4.589 1.815-5.236.815z" class="prefix__cls-15" data-name="Контур 854" transform="translate(-69.197 -684.706)"/>
                </g>
                <g id="prefix__Сгруппировать_890" data-name="Сгруппировать 890" transform="translate(49.582 23.34)">
                    <path id="prefix__Контур_855" d="M85.448 668.837l-.869-2.058-9.279 4.811c-.4.169-.478.888-.175 1.606s.873 1.164 1.272 1l9.92-3.295z" class="prefix__cls-14" data-name="Контур 855" transform="translate(-74.939 -663.929)"/>
                    <path id="prefix__Контур_856" d="M86.346 673.539c-1.1.464-2.832-1.156-3.872-3.618s-.992-4.834.107-5.3 2.831 1.156 3.871 3.618.993 4.836-.106 5.3z" class="prefix__cls-15" data-name="Контур 856" transform="translate(-73.076 -664.543)"/>
                </g>
                <g id="prefix__Сгруппировать_891" data-name="Сгруппировать 891" transform="translate(39.994 13.009)">
                    <path id="prefix__Контур_857" d="M73.471 659.618l-1.988-1.018-4.016 9.651c-.2.386.2.986.9 1.342s1.416.33 1.614-.056l5.482-8.9z" class="prefix__cls-14" data-name="Контур 857" transform="translate(-67.416 -655.843)"/>
                    <path id="prefix__Контур_858" d="M77.769 661.568c-.543 1.06-2.912.934-5.292-.284s-3.868-3.067-3.324-4.127 2.912-.934 5.292.283 3.867 3.066 3.324 4.128z" class="prefix__cls-15" data-name="Контур 858" transform="translate(-66.971 -656.437)"/>
                </g>
                <path id="prefix__Контур_859" d="M63.743 674a4.045 4.045 0 1 1-5.681-5.682A4.045 4.045 0 1 1 63.743 674z" class="prefix__cls-15" data-name="Контур 859" transform="translate(-30.384 -640.559)"/>
                <path id="prefix__Контур_860" d="M60.722 678.073a2.71 2.71 0 1 1-4.033-.387 2.875 2.875 0 0 1 4.033.387z" class="prefix__cls-15" data-name="Контур 860" transform="translate(-30.584 -637.775)"/>
                <path id="prefix__Контур_861" d="M73.031 678.24a2.086 2.086 0 1 1-.3 3.1 2.213 2.213 0 0 1 .3-3.1z" class="prefix__cls-15" data-name="Контур 861" transform="translate(-26.102 -637.628)"/>
                <path id="prefix__Контур_862" d="M65.912 681.522a3.363 3.363 0 1 1-.481 5 3.569 3.569 0 0 1 .481-5z" class="prefix__cls-15" data-name="Контур 862" transform="translate(-28.191 -636.84)"/>
                <path id="prefix__Контур_863" d="M67.783 672.762a1.95 1.95 0 1 1 2.9.279 2.068 2.068 0 0 1-2.9-.279z" class="prefix__cls-15" data-name="Контур 863" transform="translate(-27.495 -639.876)"/>
                <path id="prefix__Контур_864" d="M62.216 677.086a3.184 3.184 0 1 1 3.028 3.672 3.377 3.377 0 0 1-3.028-3.672z" class="prefix__cls-15" data-name="Контур 864" transform="translate(-28.851 -638.703)"/>
            </g>
            <g id="prefix__Сгруппировать_922" data-name="Сгруппировать 922" transform="translate(192.308 203)">
                <g id="prefix__Сгруппировать_873-2" data-name="Сгруппировать 873" transform="translate(28.574 13.029)">
                    <path id="prefix__Контур_818-2" d="M85.795 669.7l-.337-.877-3.858 1.852c-.166.063-.2.363-.087.669s.347.5.513.439l4.107-1.205z" class="prefix__cls-14" data-name="Контур 818" transform="translate(-81.444 -667.635)"/>
                    <path id="prefix__Контур_819-2" d="M89.018 670.761c-.456.175-1.152-.534-1.554-1.583s-.359-2.042.1-2.217 1.152.534 1.554 1.584.356 2.041-.1 2.216z" class="prefix__cls-15" data-name="Контур 819" transform="translate(-83.573 -666.934)"/>
                </g>
                <g id="prefix__Сгруппировать_874-2" data-name="Сгруппировать 874" transform="translate(.739 20.87)">
                    <path id="prefix__Контур_820-2" d="M39.266 681.363l.25.906 4.021-1.466c.171-.047.239-.342.152-.658s-.3-.534-.468-.487l-4.2.8z" class="prefix__cls-14" data-name="Контур 820" transform="translate(-37.88 -679.49)"/>
                    <path id="prefix__Контур_821-2" d="M37.68 679.409c.471-.13 1.094.644 1.393 1.728s.158 2.067-.312 2.2-1.094-.644-1.393-1.728-.159-2.071.312-2.2z" class="prefix__cls-15" data-name="Контур 821" transform="translate(-37.211 -679.394)"/>
                </g>
                <g id="prefix__Сгруппировать_875-2" data-name="Сгруппировать 875" transform="translate(14.882)">
                    <path id="prefix__Контур_822-2" d="M63.191 649.434h-1.229l.453 6.75c0 .281.347.508.776.508s.777-.228.777-.508l.452-6.75z" class="prefix__cls-14" data-name="Контур 822" transform="translate(-60.529 -647.417)"/>
                    <path id="prefix__Контур_823-2" d="M65.01 647.628c0 .772-1.192 1.4-2.663 1.4s-2.662-.626-2.662-1.4 1.192-1.4 2.662-1.4 2.663.627 2.663 1.4z" class="prefix__cls-15" data-name="Контур 823" transform="translate(-59.685 -646.23)"/>
                </g>
                <g id="prefix__Сгруппировать_876-2" data-name="Сгруппировать 876" transform="translate(0 8.819)">
                    <path id="prefix__Контур_824-2" d="M39.328 663.949l-.539 1.1 6.265 2.552c.252.123.609-.089.8-.474s.135-.8-.117-.921l-5.868-3.366z" class="prefix__cls-14" data-name="Контур 824" transform="translate(-37.057 -661.207)"/>
                    <path id="prefix__Контур_825-2" d="M38.919 660.321c.694.339.734 1.684.089 3.005s-1.729 2.118-2.423 1.78-.734-1.684-.09-3.005 1.73-2.119 2.424-1.78z" class="prefix__cls-15" data-name="Контур 825" transform="translate(-36.037 -660.243)"/>
                </g>
                <g id="prefix__Сгруппировать_877-2" data-name="Сгруппировать 877" transform="translate(1.691 24.628)">
                    <path id="prefix__Контур_826-2" d="M42.191 690.208l.757.968 5.039-4.512c.222-.173.187-.586-.077-.924s-.657-.472-.879-.3l-5.6 3.8z" class="prefix__cls-14" data-name="Контур 826" transform="translate(-39.729 -685.366)"/>
                    <path id="prefix__Контур_827-2" d="M39.06 690.233c.609-.476 1.836.078 2.741 1.236s1.146 2.483.537 2.959-1.836-.079-2.741-1.237-1.146-2.483-.537-2.958z" class="prefix__cls-15" data-name="Контур 827" transform="translate(-38.724 -687.107)"/>
                </g>
                <g id="prefix__Сгруппировать_878-2" data-name="Сгруппировать 878" transform="translate(18.585 28.505)">
                    <path id="prefix__Контур_828-2" d="M68.251 698.652l1.2-.255-1.846-6.508c-.059-.275-.446-.425-.865-.336s-.712.384-.654.659l.96 6.7z" class="prefix__cls-14" data-name="Контур 828" transform="translate(-65.759 -691.527)"/>
                    <path id="prefix__Контур_829-2" d="M65.586 703.495c-.16-.755.875-1.615 2.313-1.921s2.734.059 2.895.814-.875 1.615-2.313 1.921-2.734-.059-2.895-.814z" class="prefix__cls-15" data-name="Контур 829" transform="translate(-65.57 -695.211)"/>
                </g>
                <g id="prefix__Сгруппировать_879-2" data-name="Сгруппировать 879" transform="translate(26.955 20.665)">
                    <path id="prefix__Контур_830-2" d="M85.947 681.558l.3-1.193-6.659-1.193c-.272-.068-.577.214-.681.63s.033.809.306.877l6.439 2.072z" class="prefix__cls-14" data-name="Контур 830" transform="translate(-78.87 -679.102)"/>
                    <path id="prefix__Контур_831-2" d="M89.54 684.255c-.749-.187-1.069-1.495-.713-2.921s1.252-2.432 2-2.245 1.069 1.495.712 2.921-1.249 2.432-1.999 2.245z" class="prefix__cls-15" data-name="Контур 831" transform="translate(-82.507 -679.067)"/>
                </g>
                <g id="prefix__Сгруппировать_880-2" data-name="Сгруппировать 880" transform="translate(23.449 3.499)">
                    <path id="prefix__Контур_832-2" d="M78.317 655.286l-.941-.79-3.992 5.462c-.181.215-.06.613.268.889s.741.325.921.109l4.685-4.88z" class="prefix__cls-14" data-name="Контур 832" transform="translate(-73.299 -652.793)"/>
                    <path id="prefix__Контур_833-2" d="M82.63 655.521c-.5.592-1.812.305-2.938-.64s-1.637-2.191-1.141-2.782 1.812-.305 2.938.64 1.637 2.19 1.141 2.782z" class="prefix__cls-15" data-name="Контур 833" transform="translate(-75.176 -651.791)"/>
                </g>
                <circle id="prefix__Эллипс_15-2" cx="12.003" cy="12.003" r="12.003" class="prefix__cls-16" data-name="Эллипс 15" transform="translate(5.54 7.006)"/>
                <path id="prefix__Контур_834-2" d="M49.639 668.564a10.64 10.64 0 0 1 1.943-6.143 10.693 10.693 0 1 0 14.894 14.894 10.691 10.691 0 0 1-16.837-8.752z" class="prefix__cls-17" data-name="Контур 834" transform="translate(-40.112 -652.232)"/>
                <g id="prefix__Сгруппировать_881-2" data-name="Сгруппировать 881" transform="translate(10.868 9)">
                    <ellipse id="prefix__Эллипс_16-2" cx="1.454" cy="2.963" class="prefix__cls-17" data-name="Эллипс 16" rx="1.454" ry="2.963" transform="rotate(-45 7.083 -10.076)"/>
                    <path id="prefix__Контур_835-2" d="M78.354 677.648c-.159 1.22-.774 2.145-1.373 2.067s-.954-1.131-.795-2.35.775-2.145 1.373-2.067.954 1.13.795 2.35z" class="prefix__cls-17" data-name="Контур 835" transform="translate(-61.774 -666.003)"/>
                    <path id="prefix__Контур_836-2" d="M60.267 683.136c.77.559 1.172 1.318.9 1.7s-1.121.232-1.891-.327-1.172-1.318-.9-1.7 1.124-.231 1.891.327z" class="prefix__cls-17" data-name="Контур 836" transform="translate(-55.154 -668.712)"/>
                    <path id="prefix__Контур_837-2" d="M72.008 672.935a1.116 1.116 0 1 1-1.562-.808 1.262 1.262 0 0 1 1.562.808z" class="prefix__cls-17" data-name="Контур 837" transform="translate(-59.452 -664.801)"/>
                    <path id="prefix__Контур_838-2" d="M56.484 668.62a1.685 1.685 0 1 1-2.832-1.635 1.685 1.685 0 1 1 2.832 1.635z" class="prefix__cls-17" data-name="Контур 838" transform="translate(-53.307 -662.49)"/>
                </g>
                <g id="prefix__Сгруппировать_882-2" data-name="Сгруппировать 882" transform="translate(12.243 4.652)">
                    <path id="prefix__Контур_839-2" d="M58.746 656.063l-1.075.246 1.544 4.925c.048.209.391.308.766.222s.641-.324.593-.533l-.751-5.106z" class="prefix__cls-14" data-name="Контур 839" transform="translate(-56.299 -654.435)"/>
                    <path id="prefix__Контур_840-2" d="M60.162 654.257c.132.573-.8 1.278-2.091 1.572s-2.436.068-2.568-.506.806-1.278 2.092-1.573 2.437-.067 2.567.507z" class="prefix__cls-15" data-name="Контур 840" transform="translate(-55.491 -653.622)"/>
                </g>
                <g id="prefix__Сгруппировать_883-2" data-name="Сгруппировать 883" transform="translate(7.272 3.749)">
                    <path id="prefix__Контур_841-2" d="M50.312 654.511l-.806.478 2.524 3.583c.093.157.4.149.677-.018s.434-.429.341-.585l-1.93-3.935z" class="prefix__cls-14" data-name="Контур 841" transform="translate(-48.302 -652.872)"/>
                    <path id="prefix__Контур_842-2" d="M51.144 652.448c.255.43-.32 1.242-1.284 1.814s-1.953.685-2.208.255.32-1.242 1.285-1.813 1.953-.686 2.207-.256z" class="prefix__cls-15" data-name="Контур 842" transform="translate(-47.592 -652.187)"/>
                </g>
                <g id="prefix__Сгруппировать_884-2" data-name="Сгруппировать 884" transform="translate(8.026 28.386)">
                    <path id="prefix__Контур_843-2" d="M51.458 695.3l.755.555 2.308-3.726c.108-.147-.019-.422-.282-.615s-.564-.232-.672-.085l-2.867 3.314z" class="prefix__cls-14" data-name="Контур 843" transform="translate(-49.499 -691.337)"/>
                    <path id="prefix__Контур_844-2" d="M48.876 696.115c.3-.4 1.269-.191 2.172.472s1.4 1.528 1.1 1.931-1.268.192-2.172-.471-1.395-1.529-1.1-1.932z" class="prefix__cls-15" data-name="Контур 844" transform="translate(-48.791 -693.032)"/>
                </g>
                <g id="prefix__Сгруппировать_885-2" data-name="Сгруппировать 885" transform="translate(26.555 25.425)">
                    <path id="prefix__Контур_845-2" d="M82.109 689.672l.556-.758-3.643-2.246c-.143-.105-.417.024-.61.288s-.235.563-.092.668l3.233 2.8z" class="prefix__cls-14" data-name="Контур 845" transform="translate(-78.234 -686.632)"/>
                    <path id="prefix__Контур_846-2" d="M82.863 692.456c-.394-.289-.173-1.257.492-2.164s1.524-1.406 1.917-1.117.173 1.257-.492 2.164-1.524 1.406-1.917 1.117z" class="prefix__cls-15" data-name="Контур 846" transform="translate(-79.878 -687.544)"/>
                </g>
                <g id="prefix__Сгруппировать_886-2" data-name="Сгруппировать 886" transform="translate(5.121 8.845)">
                    <path id="prefix__Контур_847-2" d="M47.039 663.416l-.665.88 4.348 2.78c.171.129.5-.015.73-.322s.282-.66.111-.789l-3.863-3.429z" class="prefix__cls-14" data-name="Контур 847" transform="translate(-44.99 -661.12)"/>
                    <path id="prefix__Контур_848-2" d="M47.29 660.391c.469.356.2 1.5-.592 2.549s-1.822 1.617-2.292 1.262-.2-1.5.592-2.549 1.822-1.617 2.292-1.262z" class="prefix__cls-15" data-name="Контур 848" transform="translate(-44.174 -660.285)"/>
                </g>
                <g id="prefix__Сгруппировать_887-2" data-name="Сгруппировать 887" transform="translate(2.994 17.336)">
                    <path id="prefix__Контур_849-2" d="M43.212 676.885l.055 1.1 5.118-.665c.214-.011.372-.332.352-.716s-.208-.687-.422-.677l-5.159-.147z" class="prefix__cls-14" data-name="Контур 849" transform="translate(-41.67 -674.521)"/>
                    <path id="prefix__Контур_850-2" d="M41.745 673.779c.588-.03 1.119 1.015 1.185 2.333s-.356 2.411-.944 2.44-1.118-1.014-1.185-2.333.356-2.411.944-2.44z" class="prefix__cls-15" data-name="Контур 850" transform="translate(-40.794 -673.778)"/>
                </g>
                <g id="prefix__Сгруппировать_888-2" data-name="Сгруппировать 888" transform="translate(13.556 26.529)">
                    <path id="prefix__Контур_851-2" d="M60.8 693.887l1.095.137.233-5.156c.026-.213-.262-.423-.644-.471s-.712.086-.739.3L59.7 693.75z" class="prefix__cls-14" data-name="Контур 851" transform="translate(-58.367 -688.387)"/>
                    <path id="prefix__Контур_852-2" d="M57.582 696.927c.073-.584 1.194-.925 2.5-.762s2.312.77 2.239 1.354-1.193.926-2.5.762-2.312-.77-2.239-1.354z" class="prefix__cls-15" data-name="Контур 852" transform="translate(-57.578 -691.255)"/>
                </g>
                <g id="prefix__Сгруппировать_889-2" data-name="Сгруппировать 889" transform="translate(21.302 25.212)">
                    <path id="prefix__Контур_853-2" d="M73.3 691.114l.926-.6-3.135-4.1c-.116-.18-.473-.156-.8.053s-.491.524-.374.7l2.452 4.542z" class="prefix__cls-14" data-name="Контур 853" transform="translate(-69.887 -686.294)"/>
                    <path id="prefix__Контур_854-2" d="M72.485 694.951c-.32-.495.32-1.476 1.428-2.193s2.265-.9 2.585-.4-.32 1.476-1.428 2.193-2.265.894-2.585.4z" class="prefix__cls-15" data-name="Контур 854" transform="translate(-70.82 -688.438)"/>
                </g>
                <g id="prefix__Сгруппировать_890-2" data-name="Сгруппировать 890" transform="translate(24.481 11.524)">
                    <path id="prefix__Контур_855-2" d="M80.128 667.8l-.429-1.016-4.582 2.376c-.2.084-.236.438-.086.793s.431.575.628.491l4.9-1.627z" class="prefix__cls-14" data-name="Контур 855" transform="translate(-74.939 -665.372)"/>
                    <path id="prefix__Контур_856-2" d="M84.007 668.984c-.542.229-1.4-.571-1.912-1.787s-.49-2.387.053-2.616 1.4.571 1.911 1.787.49 2.387-.052 2.616z" class="prefix__cls-15" data-name="Контур 856" transform="translate(-77.455 -664.543)"/>
                </g>
                <g id="prefix__Сгруппировать_891-2" data-name="Сгруппировать 891" transform="translate(19.747 6.423)">
                    <path id="prefix__Контур_857-2" d="M70.406 659.1l-.982-.5-1.983 4.765c-.1.191.1.487.444.663s.7.163.8-.028l2.707-4.394z" class="prefix__cls-14" data-name="Контур 857" transform="translate(-67.416 -657.239)"/>
                    <path id="prefix__Контур_858-2" d="M73.35 658.97c-.268.524-1.438.461-2.613-.14s-1.91-1.514-1.641-2.038 1.438-.461 2.613.14 1.91 1.514 1.641 2.038z" class="prefix__cls-15" data-name="Контур 858" transform="translate(-68.019 -656.437)"/>
                </g>
                <path id="prefix__Контур_859-2" d="M60.14 670.4a2 2 0 1 1 .176-2.981 2.118 2.118 0 0 1-.176 2.981z" class="prefix__cls-15" data-name="Контур 859" transform="translate(-43.67 -653.887)"/>
                <path id="prefix__Контур_860-2" d="M58.28 677.544a1.338 1.338 0 1 1-1.991-.191 1.42 1.42 0 0 1 1.991.191z" class="prefix__cls-15" data-name="Контур 860" transform="translate(-43.4 -657.646)"/>
                <path id="prefix__Контур_861-2" d="M72.624 677.9a1.03 1.03 0 1 1-.147 1.532 1.092 1.092 0 0 1 .147-1.532z" class="prefix__cls-15" data-name="Контур 861" transform="translate(-49.452 -657.845)"/>
                <path id="prefix__Контур_862-2" d="M65.256 680.969a1.66 1.66 0 1 1-.237 2.471 1.762 1.762 0 0 1 .237-2.471z" class="prefix__cls-15" data-name="Контур 862" transform="translate(-46.631 -658.908)"/>
                <path id="prefix__Контур_863-2" d="M67.463 671.047a.963.963 0 1 1 1.433.138 1.021 1.021 0 0 1-1.433-.138z" class="prefix__cls-15" data-name="Контур 863" transform="translate(-47.571 -654.809)"/>
                <path id="prefix__Контур_864-2" d="M62.214 675.345a1.572 1.572 0 1 1 1.5 1.813 1.667 1.667 0 0 1-1.5-1.813z" class="prefix__cls-15" data-name="Контур 864" transform="translate(-45.74 -656.393)"/>
            </g>
        </g>
        <g id="prefix__Сгруппировать_924" data-name="Сгруппировать 924">
            <path id="prefix__Контур_721" d="M455.769 487.986c-20.563 0-39.97-7.547-55.976-21.737-33.637-29.82-47.831-85.262-25.5-133.871 10.918-23.7 26.115-45.537 48.958-58.58a99.8 99.8 0 0 1 14.345-6.714c20.944-7.9 43.347-8.983 60.606-14.452 19.623-5.973 33.079-16.438 43.3-35.148 57.036-104.484 244.732-54.09 211.835 92.858-7.094 31.68 13.531 47.583 33.06 65.648 11.273 10.434 22.185 21.589 27.183 36.917a58.491 58.491 0 0 1 2.828 17.056c.525 25.442-13.679 47.225-33.486 55.052-9.2 3.634-15.317 3.092-24.976 3.087z" class="prefix__cls-1" data-name="Контур 721" transform="translate(720.467 -12.133)"/>
            <g id="prefix__Сгруппировать_921" data-name="Сгруппировать 921" transform="translate(-7723 -264.899)">
                <g id="prefix__Сгруппировать_851" data-name="Сгруппировать 851" transform="translate(8979.835 373.899)">
                    <path id="prefix__Контур_723" d="M1069.046 1442.937l-83.2-.03h-1.081l-34.9-.012c-.99-11.93-2-23.954-2.959-35.41-2.64-31.406-4.963-58.551-5.761-67.862-.191-2.229-.3-3.436-.3-3.436l34.9-2.014 57.9-15.288s.46 3.7 1.086 9.181c1.173 10.221 2.933 26.62 3.38 36.635.687 15.378 15.356 59.357 27.841 74.011a38.611 38.611 0 0 1 3.094 4.225z" class="prefix__cls-7" data-name="Контур 723" transform="translate(-938.029 -1077.628)"/>
                    <path id="prefix__Контур_724" d="M1086.2 594.1s-33.954 15.509-53.528 9.755a45.657 45.657 0 0 1 13.25-10.036c-.677-3.72-1.2-6.948-1.506-9.685a84.771 84.771 0 0 1-.828-9.9l13.1-9.754 12.422-9.334c-.976 26.254 17.09 38.954 17.09 38.954z" class="prefix__cls-3" data-name="Контур 724" transform="translate(-1004.641 -512.409)"/>
                    <path id="prefix__Контур_725" d="M1098.181 591.763s-8.582 14.808-24.92 18.948a84.8 84.8 0 0 1-.828-9.9l13.1-9.754z" class="prefix__cls-13" data-name="Контур 725" transform="translate(-1033.483 -538.985)"/>
                    <path id="prefix__Контур_726" d="M1033.98 484.721s32.391 5.016 35.431-13.835 9.269-30.9-11.283-34.9-25.74 2.629-28.4 8.691-4.096 38.253 4.252 40.044z" class="prefix__cls-3" data-name="Контур 726" transform="translate(-1001.004 -423.318)"/>
                    <path id="prefix__Контур_727" d="M1053.526 401.124c.294-.319.972-.577 2.482-.655a6.369 6.369 0 0 0-2.82-.752c-.316-1.987-1.432-5.5-5.044-6.358a4.321 4.321 0 0 1 2.195 3.092c-4.184-4.068-13.148-7.029-37.972-5.174-32.715 2.445-21.933 22.274-17.7 24.638s14.9-4.117 22.787-3.524 9.131 11.93 12.069 12.869c1.663.531 2.938-.441 6.56-1.991s2.653 3.435 1.606 7.129 3.931 8.567 3.931 8.567l5.029-5.127c5.029-5.128 9.77-26.846 7.483-31.475-.2-.408-.4-.822-.606-1.239z" class="prefix__cls-2" data-name="Контур 727" transform="translate(-973.346 -390.712)"/>
                    <path id="prefix__Контур_728" d="M1068.424 807.687c-.326-7.393-17.994-87.239-33.236-109.147-9.826-14.124-30.226-23.777-30.226-23.777-1.354-.982-9.865 3.5-17.7 7.079-7.153 3.3-11.461 3.223-18.238 1.961 0 0-7.342 4.356-9.616 6.036a57.563 57.563 0 0 0-21.233 31.583c-3.311 12.49-5.272 35.089-6.325 58.527-.527 10.668-.9 21.337-1.053 31.512v.351c-.076 1.053-.076 2.106-.076 3.154-.376 26.038 0 46.739.527 47.09a3.156 3.156 0 0 0 2.031.773c7.379-.142 28.837 3.719 46.98 1.964 15.359-1.4 28.912-5.612 43.438-11.65 1.961-.84 6.4-3.083 6.325-5.052-.075-2.244-.3-5.4-.6-9.473-.172-2.3-.371-4.884-.564-7.713-.788-11.4-1.587-26.828-1.118-44.358 6.535 8.987 11.408 15.412 11.9 16.408 1.7 3.448-.981 57.081-.981 57.081 3.459 6.407 16.868 7.243 16.868 7.243s13.223-52.198 12.897-59.592z" class="prefix__cls-7" data-name="Контур 728" transform="translate(-930.574 -600.829)"/>
                    <path id="prefix__Контур_729" d="M1027.508 532.24a64.015 64.015 0 0 0 27.818-3.12l1.455 15.605a24.969 24.969 0 0 1-9.977 8.176c-7.225 3.135-15.592 4.54-18.294-3.261-1.42-4.096-1.002-17.4-1.002-17.4z" class="prefix__cls-6" data-name="Контур 729" transform="translate(-1000.852 -493.144)"/>
                    <g id="prefix__Сгруппировать_850" data-name="Сгруппировать 850" transform="translate(53.671 33.014)">
                        <path id="prefix__Контур_730" d="M1126.673 537.389l-.2-.58c.151-.046 7.888-5.938 11.042-13.112.85-1.934 1.717-5.007.668-5.319-5.059-1.505-12.95 4.468-12.063 3.522l.135-.888c.424-.216 7.225-4.524 12.545-2.941 1.222.363.213 4.036-.713 6.142a24.011 24.011 0 0 1-4.155 6.891 31.209 31.209 0 0 1-7.259 6.285z" class="prefix__cls-6" data-name="Контур 730" transform="translate(-1126.052 -517.723)"/>
                    </g>
                    <path id="prefix__Контур_731" d="M1142.125 519.527c.549-5.488 6.2-7.315 8.056-5.614 1 .917 1.206 3.328 1.242 4.307.253 6.86-6.505 6.834-6.505 6.834s-2.982-3.635-2.793-5.527z" class="prefix__cls-3" data-name="Контур 731" transform="translate(-1084.034 -481.436)"/>
                </g>
                <g id="prefix__Сгруппировать_867" data-name="Сгруппировать 867" transform="translate(9048.705 457.808)">
                    <path id="prefix__Контур_776" d="M1276.5 991.084c0 .275.869 11.778.6 21.235-.047 1.672-.131 3.263-.264 4.672h35.128a42.978 42.978 0 0 1-4.252-11.829 77.5 77.5 0 0 1-1.377-8.222 98.247 98.247 0 0 1-.627-11.622z" class="prefix__cls-3" data-name="Контур 776" transform="translate(-1239.342 -925.991)"/>
                    <path id="prefix__Контур_777" d="M1251.655 770.007a32.459 32.459 0 0 0-12.237-.358s-13.481.194-22.223 10.846c-4.827 5.882 2.854 48.383-3.888 61.581-.6 1.175 3.38 1.666 5.012 1.666 0 0 2.385-.91 2.856-2.228a8.482 8.482 0 0 1-1.083 2.73s13.12 1.242 19.671-3.71c3.562-2.693 7.462-9.01 9.979-15.45l9.92.7c.107 4.268-1.422 9.149-6.193 14.248 0 0 12.24 1.2 16.382-2.189a11.42 11.42 0 0 1-1.569 2.4s13.684.492 19.333-3.776 2.02-74.288-35.96-66.46z" class="prefix__cls-5" data-name="Контур 777" transform="translate(-1193.458 -769.243)"/>
                    <path id="prefix__Контур_778" d="M1276.5 991.9s.627 8.675.646 16.846c15.424-.435 23.577-14.505 26.918-22.3z" class="prefix__cls-8" data-name="Контур 778" transform="translate(-1239.343 -926.805)"/>
                    <path id="prefix__Контур_779" d="M1225.623 871.8s36.493.6 36.519-22.13 4.752-37.965-18.547-39.31-27.836 7.323-29.69 14.909 2.226 45.791 11.718 46.531z" class="prefix__cls-3" data-name="Контур 779" transform="translate(-1193.619 -798.971)"/>
                    <path id="prefix__Контур_780" d="M1222.854 805.1s-7.462 5.954-9.281 11.743-2.638 17.705-6.111 17.3c0 0-7.527-18.127.932-28.381 8.971-10.876 14.46-.662 14.46-.662z" class="prefix__cls-5" data-name="Контур 780" transform="translate(-1187.024 -792.098)"/>
                    <path id="prefix__Контур_781" fill="#031530" d="M1257.955 1633.794l-25.439-.01-18.148-.007-64.388-.024h-8.805a121.534 121.534 0 0 1 4.055-22.24c5.887-19.28 9.393-30.919 10.739-35.4l.423-1.409q.21-.708.211-.707s27.947 7.013 57.741 2.577a111.591 111.591 0 0 0 12.817-2.659q2.639-.716 5.251-1.583h.005l.327.7c2.57 5.488 19.534 41.958 24.478 58.305q.358 1.171.733 2.457z" data-name="Контур 781" transform="translate(-1141.175 -1351.828)"/>
                    <path id="prefix__Контур_782" d="M1287.347 1258.123c-5.314-5.691-9.62-12.459-10.6-15.709-1.989-6.608-15.358-53.13-18.085-66.129-.491-2.359-.77-3.738-.77-3.738a.017.017 0 0 1 0 .007c0 .008-.01.022-.019.044a.258.258 0 0 1-.012.029c-.012.032-.029.07-.051.121l-.068.162c-.02.046-.039.1-.063.152-.012.031-.027.063-.041.1-1.369 3.265-6.105 14.734-7.07 17.63a5.926 5.926 0 0 0-.378 1.343c-.206 1.594-.3 3.408-.358 4.425v.092s-40.424 20.4-75.812 1.664c0 0-.109-.876-.3-2.472-.206-1.7-.508-4.208-.879-7.351-1.5-12.817-4.108-36.153-5.858-57.693a.018.018 0 0 1 0-.012c-.476-5.885-.893-11.636-1.2-17v-.008c-.823-14.222-.913-25.733.476-29.859 2.062-6.117 18.806-9.955 25.475-11.254 1.36-1.449 1.215-4.2.663-6.724a2.977 2.977 0 0 1 3.644-3.533c.1.026.2.051.305.075 4.22 1 11.547.76 19.384-1.814a47.464 47.464 0 0 0 12.038-5.882 1.837 1.837 0 0 1 2.853 1.3c.612 4.958 2.11 14.01 4.844 14.01 3.765-.022 29.465 3.134 31.35 6.313.655 1.108 7.336 16.224 15.772 36.252a.233.233 0 0 1 .015.053q.235.559.479 1.13c15.992 37.76 47.637 103.2 47.637 115.2 0 6.3-7.078 19.875-14.869 29.1z" class="prefix__cls-6" data-name="Контур 782" transform="translate(-1158.584 -976.151)"/>
                    <path id="prefix__Контур_783" d="M1403.18 1349.956s-7.449 17.776-7.683 19.433c-.105.746-.2 1.77-.263 2.674a36.714 36.714 0 0 1-12.391 6.515c-12.6 3.819-18.077-20.337-17.324-32.388s18.575-46.451 24.51-47.167 13.151 50.933 13.151 50.933z" class="prefix__cls-19" data-name="Контур 783" transform="translate(-1303.872 -1153.558)"/>
                    <path id="prefix__Контур_784" d="M1503.633 1488.282c-.489-2.358-.768-3.736-.768-3.736a19.044 19.044 0 0 1 .768 3.736z" class="prefix__cls-12" data-name="Контур 784" transform="translate(-1403.557 -1288.148)"/>
                    <g id="prefix__Сгруппировать_865" data-name="Сгруппировать 865" transform="translate(13.729 212.04)">
                        <path id="prefix__Контур_785" d="M1225.6 1560.67c-23 0-32.233-7.777-32.934-8.316l-1.488-10.834c.22.163 31.087 18.7 78.855.947l-1.013 8.207c-18.371 6.826-31.473 9.996-43.42 9.996z" class="prefix__cls-2" data-name="Контур 785" transform="translate(-1191.177 -1541.52)"/>
                    </g>
                    <path id="prefix__Контур_786" d="M1640.933 1382.942c0 6.3-7.078 19.875-14.869 29.1h-7.484c1.476-40.046-25.078-143.165-25.762-145.42l.479 1.13c15.991 37.755 47.636 103.191 47.636 115.19z" class="prefix__cls-19" data-name="Контур 786" transform="translate(-1468.812 -1130.055)"/>
                    <path id="prefix__Контур_787" d="M1328.591 1070.1s-19.245 12.187-33.8 9.3c0 0-3.495-2.207 1.326-4.43 4.527-2.078 15.057-8.232 12.744-14.3a47.515 47.515 0 0 0 12.036-5.883 1.839 1.839 0 0 1 2.855 1.3c.606 4.955 2.105 14.013 4.839 14.013z" class="prefix__cls-19" data-name="Контур 787" transform="translate(-1251.722 -976.152)"/>
                    <path id="prefix__Контур_788" d="M1218.844 936.518s18.819 1.313 35.022-5l2.022 17.984s-27.2 20.863-32.664 6.449c-1.767-4.658-4.38-19.433-4.38-19.433z" class="prefix__cls-20" data-name="Контур 788" transform="translate(-1197.519 -886.961)"/>
                    <g id="prefix__Сгруппировать_866" data-name="Сгруппировать 866" transform="translate(55.505 40.884)">
                        <path id="prefix__Контур_789" d="M1344.436 941.113l-.233-.664c.165-.058 8.459-7.065 11.709-15.432.876-2.255 1.739-5.827.583-6.161-5.573-1.606-14.034 5.5-13.091 4.384l.123-1.029c.458-.261 7.775-5.414 13.634-3.725 1.345.388.345 4.656-.609 7.112a28.084 28.084 0 0 1-4.352 8.067 34.646 34.646 0 0 1-7.764 7.448z" class="prefix__cls-20" data-name="Контур 789" transform="translate(-1343.331 -918.146)"/>
                    </g>
                    <path id="prefix__Контур_790" d="M1366.372 910.391c.448-6.352 6.58-8.611 8.653-6.694 1.117 1.033 1.411 3.812 1.477 4.942.466 7.916-6.923 8.063-6.923 8.063s-3.361-4.122-3.207-6.311z" class="prefix__cls-3" data-name="Контур 790" transform="translate(-1304.537 -866.301)"/>
                    <path id="prefix__Контур_791" d="M1266.627 800.684s7.119 27.928 26.467 36.872c0 0-19.349-17.158-20.991-35.594s-5.476-1.278-5.476-1.278z" class="prefix__cls-5" data-name="Контур 791" transform="translate(-1232.182 -786.784)"/>
                    <path id="prefix__Контур_792" d="M1262.656 796.494s9.992 26.669 25.326 30.613 21.986-.165 21.986-.165a43.425 43.425 0 0 1-14.2-25.655s-25.575-17.487-33.112-4.793z" class="prefix__cls-5" data-name="Контур 792" transform="translate(-1229.302 -785.66)"/>
                </g>
                <g id="prefix__Сгруппировать_864" data-name="Сгруппировать 864" transform="translate(8904.8 500.015)">
                    <path id="prefix__Контур_768" d="M900.7 932.167c.7-1.344 8.7-15.587 31.521-5.771 0 0-11.662-3.889-15.859.065 0 0 10.346-2.453 15.56 2.363s3.752 17.238 2.124 20.783-10.391 13.315-14.733 12.45a13.108 13.108 0 0 1-4.709-2.213 58.46 58.46 0 0 1 .478 6.806c.288 22.617-17.427 36.235-24.076 30.673-4.264-3.567-9.554 4.085-9.554 4.085l-29.222-60.545s34.295-27.736 48.47-8.696z" class="prefix__cls-5" data-name="Контур 768" transform="translate(-773.85 -922.968)"/>
                    <path id="prefix__Контур_769" d="M657.658 1444.631a113.352 113.352 0 0 1-63.755-19.619c9.753-29.438 34.612-102.7 42.192-107.92 5.229-3.6 17.336-4.884 28.017-5.271 10.418-.376 19.479.1 19.479.1s7.767.013 17.689 1.133l.332.039a.3.3 0 0 1 .05.005c11.184 1.284 24.982 3.969 33.5 9.589 7.509 4.953 34.046 105.374 38.394 121.989z" class="prefix__cls-10" data-name="Контур 769" transform="translate(-586.45 -1204.951)"/>
                    <path id="prefix__Контур_770" d="M876.9 1214.945c-3.622-5.962-6.189-19.9-4.967-38.517l-2.309 3.9-27.569 3.7s.087 8.613-.394 16.686c-.377 6.311-1.133 10.086-2.491 13.6-.1.008-.1.018-.017.028-.421.715-9.36 16.179 2.505 19.015 32.224 7.7 35.117-17.16 35.237-18.363.105-.013.115-.03.005-.049z" class="prefix__cls-3" data-name="Контур 770" transform="translate(-761.737 -1106.837)"/>
                    <path id="prefix__Контур_771" d="M858.252 1194.338s.088 8.609-.394 16.685c15.267.515 24.184-12.888 27.963-20.389z" class="prefix__cls-8" data-name="Контур 771" transform="translate(-777.933 -1117.142)"/>
                    <path id="prefix__Контур_772" d="M815.366 1060.38s35.315 7.643 39.736-14.423 11.957-35.94-10.4-41.752-28.442 1.726-31.709 8.733-6.699 44.885 2.373 47.442z" class="prefix__cls-3" data-name="Контур 772" transform="translate(-742.883 -980.396)"/>
                    <path id="prefix__Контур_773" d="M809.151 1113.6s16.862 3.086 34.121-2.124l.628 18.751a28.858 28.858 0 0 1-11.83 9.16c-8.383 3.3-20.084 2.966-22.455-5.152-1.446-4.953-.464-20.635-.464-20.635z" class="prefix__cls-6" data-name="Контур 773" transform="translate(-742.362 -1059.719)"/>
                    <g id="prefix__Сгруппировать_863" data-name="Сгруппировать 863" transform="translate(99.426 48.779)">
                        <path id="prefix__Контур_774" d="M929.068 1123.571l-.187-.706c.175-.047 9.317-6.614 13.357-15 1.089-2.26 2.271-5.882 1.1-6.32-5.629-2.113-14.952 4.543-13.887 3.466l.211-1.053c.495-.232 8.476-4.963 14.394-2.741 1.359.51-.022 4.84-1.208 7.3a29.11 29.11 0 0 1-5.154 7.983 35.919 35.919 0 0 1-8.626 7.071z" class="prefix__cls-6" data-name="Контур 774" transform="translate(-928.881 -1100.628)"/>
                    </g>
                    <path id="prefix__Контур_775" d="M816.109 988.493c6.8-5.547 10.648-3.266 12.57-.808 21.487-6.789 30.83 11.438 30.83 11.438a42.989 42.989 0 0 0 8.827 27.655s-7.253 2.7-21.378-4.092c-4.315-2.076-7.731-6.117-10.4-10.724a84.291 84.291 0 0 0 10.764 20.21c-16.146-11.764-18.36-37.92-18.55-40.677-2.551 1.511-7.654 4.882-9.778 8.758-2.886 5.268-5.986 16.68-9.279 15.615-.001 0-3.803-19.056 6.394-27.375z" class="prefix__cls-5" data-name="Контур 775" transform="translate(-742.504 -968.013)"/>
                    <path id="prefix__Контур_874" d="M-3.341 319.039l-7.453 19.608h97.9z" class="prefix__cls-10" data-name="Контур 874" transform="translate(10.794 -98.763)"/>
                </g>
            </g>
            <g id="prefix__Сгруппировать_923" data-name="Сгруппировать 923" transform="translate(1152.308 264.333)">
                <g id="prefix__Сгруппировать_873-3" data-name="Сгруппировать 873" transform="translate(57.873 26.388)">
                    <path id="prefix__Контур_818-3" d="M90.256 670.6l-.682-1.777-7.817 3.75c-.335.129-.414.735-.177 1.355s.7 1.018 1.039.89l8.318-2.441z" class="prefix__cls-14" data-name="Контур 818" transform="translate(-81.444 -666.415)"/>
                    <path id="prefix__Контур_819-3" d="M90.894 674.684c-.923.354-2.332-1.082-3.148-3.207s-.728-4.136.2-4.49 2.332 1.082 3.148 3.208.723 4.136-.2 4.489z" class="prefix__cls-15" data-name="Контур 819" transform="translate(-79.867 -666.934)"/>
                </g>
                <g id="prefix__Сгруппировать_874-3" data-name="Сгруппировать 874" transform="translate(1.496 42.269)">
                    <path id="prefix__Контур_820-3" d="M39.522 683.117l.506 1.834 8.144-2.968c.347-.1.484-.692.308-1.332s-.6-1.081-.947-.986l-8.516 1.617z" class="prefix__cls-14" data-name="Контур 820" transform="translate(-36.715 -679.324)"/>
                    <path id="prefix__Контур_821-3" d="M38.161 679.423c.953-.263 2.216 1.305 2.821 3.5s.32 4.187-.632 4.449-2.216-1.305-2.821-3.5-.322-4.186.632-4.449z" class="prefix__cls-15" data-name="Контур 821" transform="translate(-37.211 -679.394)"/>
                </g>
                <g id="prefix__Сгруппировать_875-3" data-name="Сгруппировать 875" transform="translate(30.14)">
                    <path id="prefix__Контур_822-3" d="M64.451 649.434h-2.489l.918 13.666c0 .568.7 1.03 1.572 1.03s1.573-.461 1.573-1.03l.916-13.671z" class="prefix__cls-14" data-name="Контур 822" transform="translate(-59.06 -645.35)"/>
                    <path id="prefix__Контур_823-3" d="M70.469 649.062c0 1.564-2.414 2.832-5.393 2.832s-5.391-1.268-5.391-2.832 2.414-2.832 5.391-2.832 5.393 1.27 5.393 2.832z" class="prefix__cls-15" data-name="Контур 823" transform="translate(-59.685 -646.23)"/>
                </g>
                <g id="prefix__Сгруппировать_876-3" data-name="Сгруппировать 876" transform="translate(0 17.86)">
                    <path id="prefix__Контур_824-3" d="M39.881 665.082l-1.092 2.237 12.689 5.168c.511.25 1.234-.181 1.615-.961s.274-1.616-.237-1.865l-11.884-6.818z" class="prefix__cls-14" data-name="Контур 824" transform="translate(-35.281 -659.529)"/>
                    <path id="prefix__Контур_825-3" d="M41.874 660.4c1.406.686 1.487 3.411.181 6.087s-3.5 4.29-4.908 3.6-1.487-3.411-.182-6.087 3.504-4.285 4.909-3.6z" class="prefix__cls-15" data-name="Контур 825" transform="translate(-36.037 -660.243)"/>
                </g>
                <g id="prefix__Сгруппировать_877-3" data-name="Сгруппировать 877" transform="translate(3.424 49.88)">
                    <path id="prefix__Контур_826-3" d="M42.967 695.174l1.533 1.961L54.707 688c.449-.35.379-1.188-.157-1.872s-1.331-.956-1.779-.605l-11.336 7.693z" class="prefix__cls-14" data-name="Контур 826" transform="translate(-37.979 -685.366)"/>
                    <path id="prefix__Контур_827-3" d="M39.4 690.407c1.232-.964 3.718.158 5.551 2.5s2.321 5.029 1.088 5.993-3.718-.159-5.551-2.506-2.316-5.024-1.088-5.987z" class="prefix__cls-15" data-name="Контур 827" transform="translate(-38.724 -684.076)"/>
                </g>
                <g id="prefix__Сгруппировать_878-3" data-name="Сгруппировать 878" transform="translate(37.641 57.733)">
                    <path id="prefix__Контур_828-3" d="M70.476 705.957l2.436-.517-3.74-13.18c-.119-.557-.9-.862-1.751-.681s-1.443.777-1.324 1.334l1.945 13.561z" class="prefix__cls-14" data-name="Контур 828" transform="translate(-65.43 -691.527)"/>
                    <path id="prefix__Контур_829-3" d="M65.6 705.575c-.325-1.53 1.773-3.272 4.685-3.891s5.537.12 5.863 1.649-1.773 3.272-4.685 3.891-5.535-.118-5.863-1.649z" class="prefix__cls-15" data-name="Контур 829" transform="translate(-65.57 -688.799)"/>
                </g>
                <g id="prefix__Сгруппировать_879-3" data-name="Сгруппировать 879" transform="translate(54.592 41.853)">
                    <path id="prefix__Контур_830-3" d="M93.2 684.014l.6-2.415-13.486-2.417c-.552-.138-1.169.433-1.379 1.276s.068 1.638.619 1.775l13.041 4.2z" class="prefix__cls-14" data-name="Контур 830" transform="translate(-78.87 -679.042)"/>
                    <path id="prefix__Контур_831-3" d="M90.42 689.575c-1.518-.379-2.164-3.027-1.444-5.917s2.535-4.925 4.053-4.546 2.164 3.027 1.443 5.917-2.534 4.925-4.052 4.546z" class="prefix__cls-15" data-name="Контур 831" transform="translate(-76.176 -679.067)"/>
                </g>
                <g id="prefix__Сгруппировать_880-3" data-name="Сгруппировать 880" transform="translate(47.493 7.087)">
                    <path id="prefix__Контур_832-3" d="M83.461 656.1l-1.907-1.6-8.084 11.058c-.366.436-.122 1.241.543 1.8s1.5.658 1.866.222l9.489-9.883z" class="prefix__cls-14" data-name="Контур 832" transform="translate(-73.299 -651.048)"/>
                    <path id="prefix__Контур_833-3" d="M87.007 659.345c-1.006 1.2-3.671.618-5.951-1.3s-3.315-4.437-2.311-5.635 3.669-.618 5.951 1.3 3.316 4.437 2.311 5.635z" class="prefix__cls-15" data-name="Контур 833" transform="translate(-71.91 -651.791)"/>
                </g>
                <circle id="prefix__Эллипс_15-3" cx="24.311" cy="24.311" r="24.311" class="prefix__cls-16" data-name="Эллипс 15" transform="translate(11.221 14.189)"/>
                <path id="prefix__Контур_834-3" d="M52.314 674.862a21.55 21.55 0 0 1 3.935-12.441 21.656 21.656 0 1 0 30.166 30.166 21.654 21.654 0 0 1-34.1-17.725z" class="prefix__cls-17" data-name="Контур 834" transform="translate(-33.019 -641.785)"/>
                <g id="prefix__Сгруппировать_881-3" data-name="Сгруппировать 881" transform="translate(22.011 18.228)">
                    <ellipse id="prefix__Эллипс_16-3" cx="2.945" cy="6.001" class="prefix__cls-17" data-name="Эллипс 16" rx="2.945" ry="6.001" transform="rotate(-45 14.344 -20.408)"/>
                    <path id="prefix__Контур_835-3" d="M80.615 680.062c-.322 2.47-1.568 4.345-2.781 4.186s-1.932-2.29-1.61-4.76 1.569-4.344 2.781-4.186 1.934 2.29 1.61 4.76z" class="prefix__cls-17" data-name="Контур 835" transform="translate(-47.036 -656.479)"/>
                    <path id="prefix__Контур_836-3" d="M62.295 683.687c1.559 1.132 2.373 2.67 1.817 3.435s-2.27.469-3.83-.663-2.373-2.669-1.817-3.435 2.27-.468 3.83.663z" class="prefix__cls-17" data-name="Контур 836" transform="translate(-51.939 -654.473)"/>
                    <path id="prefix__Контур_837-3" d="M74.187 673.845c.647 1.41.278 2.961-.822 3.466s-2.517-.228-3.163-1.637-.278-2.961.822-3.465 2.517.227 3.163 1.636z" class="prefix__cls-17" data-name="Контур 837" transform="translate(-48.756 -657.369)"/>
                    <path id="prefix__Контур_838-3" d="M59.742 671.5c-1.17 2.028-3.4 2.93-4.987 2.015s-1.921-3.3-.749-5.328 3.4-2.93 4.989-2.015 1.918 3.299.747 5.328z" class="prefix__cls-17" data-name="Контур 838" transform="translate(-53.307 -659.081)"/>
                </g>
                <g id="prefix__Сгруппировать_882-3" data-name="Сгруппировать 882" transform="translate(24.795 9.421)">
                    <path id="prefix__Контур_839-3" d="M59.849 656.315l-2.178.5 3.126 9.975c.1.423.791.625 1.551.45s1.3-.656 1.2-1.08l-1.522-10.342z" class="prefix__cls-14" data-name="Контур 839" transform="translate(-54.893 -653.019)"/>
                    <path id="prefix__Контур_840-3" d="M64.952 654.908c.266 1.161-1.63 2.587-4.235 3.184s-4.934.138-5.2-1.025 1.631-2.589 4.237-3.185 4.933-.136 5.198 1.026z" class="prefix__cls-15" data-name="Контур 840" transform="translate(-55.491 -653.622)"/>
                </g>
                <g id="prefix__Сгруппировать_883-3" data-name="Сгруппировать 883" transform="translate(14.727 7.593)">
                    <path id="prefix__Контур_841-3" d="M51.139 655l-1.633.967 5.112 7.257c.189.317.8.3 1.371-.037s.879-.868.691-1.184l-3.909-7.97z" class="prefix__cls-14" data-name="Контур 841" transform="translate(-47.067 -651.68)"/>
                    <path id="prefix__Контур_842-3" d="M54.787 652.714c.516.872-.649 2.516-2.6 3.673s-3.955 1.388-4.471.517.649-2.516 2.6-3.672 3.955-1.388 4.471-.518z" class="prefix__cls-15" data-name="Контур 842" transform="translate(-47.592 -652.187)"/>
                </g>
                <g id="prefix__Сгруппировать_884-3" data-name="Сгруппировать 884" transform="translate(16.255 57.491)">
                    <path id="prefix__Контур_843-3" d="M52.232 699.359l1.529 1.124 4.675-7.547c.218-.3-.038-.855-.571-1.246s-1.143-.469-1.361-.172l-5.8 6.718z" class="prefix__cls-14" data-name="Контур 843" transform="translate(-48.265 -691.337)"/>
                    <path id="prefix__Контур_844-3" d="M48.964 696.324c.6-.816 2.569-.387 4.4.956s2.827 3.095 2.228 3.91-2.568.389-4.4-.955-2.827-3.094-2.228-3.911z" class="prefix__cls-15" data-name="Контур 844" transform="translate(-48.791 -690.081)"/>
                </g>
                <g id="prefix__Сгруппировать_885-3" data-name="Сгруппировать 885" transform="translate(53.782 51.494)">
                    <path id="prefix__Контур_845-3" d="M86.081 692.789l1.127-1.535-7.378-4.549c-.291-.213-.844.048-1.236.584s-.477 1.141-.187 1.354l6.549 5.679z" class="prefix__cls-14" data-name="Контур 845" transform="translate(-78.234 -686.632)"/>
                    <path id="prefix__Контур_846-3" d="M83.063 695.9c-.8-.585-.35-2.547 1-4.382s3.086-2.849 3.882-2.262.35 2.547-1 4.382-3.085 2.851-3.882 2.262z" class="prefix__cls-15" data-name="Контур 846" transform="translate(-77.017 -685.956)"/>
                </g>
                <g id="prefix__Сгруппировать_886-3" data-name="Сгруппировать 886" transform="translate(10.371 17.914)">
                    <path id="prefix__Контур_847-3" d="M47.721 664.319l-1.347 1.781 8.806 5.631c.347.261 1.008-.031 1.478-.653s.571-1.337.226-1.6l-7.814-6.945z" class="prefix__cls-14" data-name="Контур 847" transform="translate(-43.57 -659.668)"/>
                    <path id="prefix__Контур_848-3" d="M50.484 660.5c.951.72.414 3.031-1.2 5.163s-3.691 3.276-4.642 2.557-.414-3.031 1.2-5.162 3.691-3.277 4.642-2.558z" class="prefix__cls-15" data-name="Контур 848" transform="translate(-44.174 -660.285)"/>
                </g>
                <g id="prefix__Сгруппировать_887-3" data-name="Сгруппировать 887" transform="translate(6.063 35.111)">
                    <path id="prefix__Контур_849-3" d="M43.269 678.015l.112 2.232 10.366-1.347c.433-.023.753-.672.714-1.449s-.422-1.392-.855-1.37l-10.449-.3z" class="prefix__cls-14" data-name="Контур 849" transform="translate(-40.145 -673.227)"/>
                    <path id="prefix__Контур_850-3" d="M42.72 673.779c1.192-.06 2.266 2.056 2.4 4.725s-.721 4.883-1.912 4.943-2.265-2.054-2.4-4.725.721-4.883 1.912-4.943z" class="prefix__cls-15" data-name="Контур 850" transform="translate(-40.794 -673.778)"/>
                </g>
                <g id="prefix__Сгруппировать_888-3" data-name="Сгруппировать 888" transform="translate(27.455 53.731)">
                    <path id="prefix__Контур_851-3" d="M61.923 699.526l2.218.276.473-10.442c.054-.431-.53-.858-1.3-.955s-1.443.175-1.5.605L59.7 699.25z" class="prefix__cls-14" data-name="Контур 851" transform="translate(-56.994 -688.387)"/>
                    <path id="prefix__Контур_852-3" d="M57.586 697.75c.148-1.183 2.418-1.874 5.07-1.544s4.683 1.559 4.535 2.742-2.417 1.875-5.069 1.544-4.683-1.559-4.536-2.742z" class="prefix__cls-15" data-name="Контур 852" transform="translate(-57.578 -686.263)"/>
                </g>
                <g id="prefix__Сгруппировать_889-3" data-name="Сгруппировать 889" transform="translate(43.144 51.063)">
                    <path id="prefix__Контур_853-3" d="M76.806 696.056l1.876-1.214-6.35-8.3c-.236-.365-.957-.316-1.612.107s-.994 1.062-.758 1.425l4.967 9.2z" class="prefix__cls-14" data-name="Контур 853" transform="translate(-69.887 -686.294)"/>
                    <path id="prefix__Контур_854-3" d="M72.57 697.9c-.647-1 .647-2.99 2.892-4.442s4.588-1.816 5.236-.814-.647 2.989-2.892 4.441-4.589 1.815-5.236.815z" class="prefix__cls-15" data-name="Контур 854" transform="translate(-69.197 -684.706)"/>
                </g>
                <g id="prefix__Сгруппировать_890-3" data-name="Сгруппировать 890" transform="translate(49.582 23.34)">
                    <path id="prefix__Контур_855-3" d="M85.448 668.837l-.869-2.058-9.279 4.811c-.4.169-.478.888-.175 1.606s.873 1.164 1.272 1l9.92-3.295z" class="prefix__cls-14" data-name="Контур 855" transform="translate(-74.939 -663.929)"/>
                    <path id="prefix__Контур_856-3" d="M86.346 673.539c-1.1.464-2.832-1.156-3.872-3.618s-.992-4.834.107-5.3 2.831 1.156 3.871 3.618.993 4.836-.106 5.3z" class="prefix__cls-15" data-name="Контур 856" transform="translate(-73.076 -664.543)"/>
                </g>
                <g id="prefix__Сгруппировать_891-3" data-name="Сгруппировать 891" transform="translate(39.994 13.009)">
                    <path id="prefix__Контур_857-3" d="M73.471 659.618l-1.988-1.018-4.016 9.651c-.2.386.2.986.9 1.342s1.416.33 1.614-.056l5.482-8.9z" class="prefix__cls-14" data-name="Контур 857" transform="translate(-67.416 -655.843)"/>
                    <path id="prefix__Контур_858-3" d="M77.769 661.568c-.543 1.06-2.912.934-5.292-.284s-3.868-3.067-3.324-4.127 2.912-.934 5.292.283 3.867 3.066 3.324 4.128z" class="prefix__cls-15" data-name="Контур 858" transform="translate(-66.971 -656.437)"/>
                </g>
                <path id="prefix__Контур_859-3" d="M63.743 674a4.045 4.045 0 1 1-5.681-5.682A4.045 4.045 0 1 1 63.743 674z" class="prefix__cls-15" data-name="Контур 859" transform="translate(-30.384 -640.559)"/>
                <path id="prefix__Контур_860-3" d="M60.722 678.073a2.71 2.71 0 1 1-4.033-.387 2.875 2.875 0 0 1 4.033.387z" class="prefix__cls-15" data-name="Контур 860" transform="translate(-30.584 -637.775)"/>
                <path id="prefix__Контур_861-3" d="M73.031 678.24a2.086 2.086 0 1 1-.3 3.1 2.213 2.213 0 0 1 .3-3.1z" class="prefix__cls-15" data-name="Контур 861" transform="translate(-26.102 -637.628)"/>
                <path id="prefix__Контур_862-3" d="M65.912 681.522a3.363 3.363 0 1 1-.481 5 3.569 3.569 0 0 1 .481-5z" class="prefix__cls-15" data-name="Контур 862" transform="translate(-28.191 -636.84)"/>
                <path id="prefix__Контур_863-3" d="M67.783 672.762a1.95 1.95 0 1 1 2.9.279 2.068 2.068 0 0 1-2.9-.279z" class="prefix__cls-15" data-name="Контур 863" transform="translate(-27.495 -639.876)"/>
                <path id="prefix__Контур_864-3" d="M62.216 677.086a3.184 3.184 0 1 1 3.028 3.672 3.377 3.377 0 0 1-3.028-3.672z" class="prefix__cls-15" data-name="Контур 864" transform="translate(-28.851 -638.703)"/>
            </g>
        </g>
    </g>
</svg>
