<svg xmlns="http://www.w3.org/2000/svg" width="557.286" height="155" viewBox="0 0 557.286 155">
    <defs>
        <style>
            .prefix__cls-1{fill:#a7c4f3}.prefix__cls-2{fill:#a9453d}.prefix__cls-3{fill:#ffb27d}.prefix__cls-5{fill:#071e42}.prefix__cls-6{fill:#d2e4ff}.prefix__cls-7{fill:#1c468a}.prefix__cls-8{fill:#ed975d}.prefix__cls-10{fill:#f99746}.prefix__cls-11{fill:#e58033}.prefix__cls-12{fill:#e58638}.prefix__cls-13{fill:#ed985f}.prefix__cls-14{fill:#52969e}.prefix__cls-15{fill:#87d38c}.prefix__cls-16{fill:#62b29a}.prefix__cls-17{fill:#457f97}.prefix__cls-19{fill:#b6dbff}.prefix__cls-20{fill:#eef6ff}
        </style>
    </defs>
    <g id="prefix__Сгруппировать_960" data-name="Сгруппировать 960" transform="translate(97.029 -257)">
        <g id="prefix__Сгруппировать_935" data-name="Сгруппировать 935" transform="translate(107 127.333)">
            <path id="prefix__Контур_875" d="M401.052 294.74a34.007 34.007 0 0 1-22.78-8.846c-13.689-12.135-19.465-34.7-10.376-54.479 4.443-9.644 10.627-18.531 19.924-23.839a40.611 40.611 0 0 1 5.838-2.732c8.523-3.217 17.64-3.656 24.664-5.881a27.879 27.879 0 0 0 17.62-14.3c23.211-42.521 99.595-22.011 86.207 37.789-2.887 12.892 5.507 19.364 13.454 26.716 4.588 4.246 9.028 8.786 11.062 15.024a23.8 23.8 0 0 1 1.151 6.941c.214 10.354-5.567 19.218-13.627 22.4-3.742 1.479-6.233 1.258-10.164 1.256z" class="prefix__cls-1" data-name="Контур 875" transform="translate(-567.533 -12.133)"/>
            <g id="prefix__Сгруппировать_920" data-name="Сгруппировать 920" transform="translate(-134.579 151.628)">
                <g id="prefix__Сгруппировать_855" data-name="Сгруппировать 855">
                    <g id="prefix__Сгруппировать_854" data-name="Сгруппировать 854">
                        <g id="prefix__Сгруппировать_853" data-name="Сгруппировать 853">
                            <path id="prefix__Контур_732" d="M1880.251 294.385a7.394 7.394 0 0 1-2.564-.267c-2.252-.657-6.414-2.411-12.874 1-5.964 3.15-12.32 22.445-14.918 24.323s-6.107 2.725-5.717 6.567 5.067 6.4 1.949 8.838.892 11.324 9.735 11.146 31.178-9.493 30.989-14.036-1.491-4.83-4.022-8.4 7.153-8.94 6.6-16.188c-.503-6.568-5.702-13.216-9.178-12.983z" class="prefix__cls-2" data-name="Контур 732" transform="translate(-1844.15 -293.079)"/>
                            <path id="prefix__Контур_733" d="M1821.985 589.285c4.547-9.566 6.723-12.271 6.8-15.28.06-2.38-1.191-4.948-3.621-11.245a22.272 22.272 0 0 1-1.21-4.552c-1.922-12.139 5.562-25.262 10.214-26.156 1.294-.321 3.488-4.706 3.461-11.771l.582.108 9.795 1.819s-.223 2.891-.229 5.615c-.007 2.27.139 4.421.688 4.692.705.06 1.121.1 1.121.1s8.167 10.638 8.854 20.532-6.54 14.192.054 33.964c6.73 20.189-39.022 7.46-36.509 2.174z" class="prefix__cls-3" data-name="Контур 733" transform="translate(-1811.153 -494.315)"/>
                            <path id="prefix__Контур_734" fill="#e8945b" d="M1923.307 523.043s-.223 2.891-.229 5.615c-5.481-.145-8.378-4.835-9.565-7.434z" data-name="Контур 734" transform="translate(-1886.456 -495.15)"/>
                            <path id="prefix__Контур_735" d="M1876.166 400.649s-12.968.2-12.977-7.376-1.689-12.653 6.591-13.1 9.891 2.441 10.55 4.969-.791 15.258-4.164 15.507z" class="prefix__cls-3" data-name="Контур 735" transform="translate(-1837.485 -370.177)"/>
                            <path id="prefix__Контур_736" d="M1859.8 366.427s7.843-6.044 12.1-2.047c.888-.475 2.231-.53 3.921 1.392 3.006 3.418.331 9.459.331 9.459 1.1-5.117-.308-6.409-1.453-7.638a8.375 8.375 0 0 0-2.8-1.615c-1.123 2.647-4.573 9.756-10.126 12.163a28.921 28.921 0 0 0 4.5-5.263 8.534 8.534 0 0 1-3.711 2.154c-5.449 1.314-6.8-2.314-6.8-2.314s3.173-.854 4.038-6.291z" class="prefix__cls-2" data-name="Контур 736" transform="translate(-1833.366 -355.021)"/>
                            <path id="prefix__Контур_737" d="M1782.938 688.923c.52 1.532 2.3 2.23 6.612 1.812 2.634-.257 3.808-4.4 4.332-7.93 1.583 5.054 3.8 7.891 6.661 8.485 4.178.873 25.255 3.276 26.634-6.121 1.518-10.336 1.063-45.247 1-47.856-.177-7.029-1.709-11.442-10.456-13.219-.975-.2-2.344-.337-4.274-.576 0 0-1.139-.126-1.12-.1.356.6 5.482 7.421 5.109 9.164-.39 1.824-17.319.182-18.487-.821s-.8-8.847-.8-8.847-14.927.523-16.538 3.57c-7.179 13.576 1.3 58.262 1.18 60.608a5.1 5.1 0 0 0 .147 1.831z" class="prefix__cls-5" data-name="Контур 737" transform="translate(-1775.013 -585.218)"/>
                            <path id="prefix__Контур_738" d="M1879.249 478.833a36.42 36.42 0 0 1-13.038-.576l-.115 6.262s10.717 6.3 12.222 1.152a59.511 59.511 0 0 0 .931-6.838z" class="prefix__cls-6" data-name="Контур 738" transform="translate(-1836.62 -457.093)"/>
                            <g id="prefix__Сгруппировать_852" data-name="Сгруппировать 852" transform="translate(24.511 20.224)">
                                <path id="prefix__Контур_739" d="M1973.5 477.631l.062-.237a15.756 15.756 0 0 1-4.84-4.933c-.4-.748-.842-1.951-.429-2.1 1.991-.736 5.347 1.435 4.962 1.081l-.081-.35c-.177-.075-3.045-1.61-5.138-.837-.48.178.036 1.615.472 2.43a9.7 9.7 0 0 0 1.88 2.637 12.735 12.735 0 0 0 3.112 2.309z" class="prefix__cls-6" data-name="Контур 739" transform="translate(-1967.847 -470.035)"/>
                            </g>
                            <path id="prefix__Контур_740" d="M1993.465 460.439c-.386-2.174-2.717-2.751-3.412-2.023a2.876 2.876 0 0 0-.37 1.751 2.578 2.578 0 0 0 2.825 2.551s1.092-1.53.957-2.279z" class="prefix__cls-3" data-name="Контур 740" transform="translate(-1965.907 -439.256)"/>
                        </g>
                    </g>
                </g>
                <g id="prefix__Сгруппировать_869" data-name="Сгруппировать 869" transform="translate(27.666 14.729)">
                    <path id="prefix__Контур_793" d="M2001.979 779.336s11.065.7 11.368 14.066-13.654 45.839-13.654 45.839l-26.617-3.217s8.224-61.775 28.903-56.688z" class="prefix__cls-7" data-name="Контур 793" transform="translate(-1956.591 -779.038)"/>
                    <path id="prefix__Контур_794" d="M1945.462 1093.5l24.963-.01h11.549a13.468 13.468 0 0 0-.42-7.173 74.386 74.386 0 0 1-2.752-14.8q-.07-.862-.115-1.7c-.849-15.266 3.588-25.9 3-35.222-.507-8.1-7.437-14.331-9.165-15.766-.248-.207-.389-.313-.389-.313a14.3 14.3 0 0 0-1.458-.226c-.464-.265-.652-2.092-.709-4.233-.016-.594-.021-1.213-.019-1.828 0-1.26.037-2.548.08-3.671 0-.077.006-.152.009-.227.071-1.8.159-3.119.159-3.119l-7.939-1.7-.975-.208-.694-.148-1-.214-.631-.135v.006a40.313 40.313 0 0 1-.77 8.266c-.689 3.307-1.715 5.459-2.553 6.186a1.274 1.274 0 0 1-.334.219.7.7 0 0 1-.089.032c-3.328.738-7.994 8.147-10.177 17.466a42.359 42.359 0 0 0-.881 15.223 31.317 31.317 0 0 0 1.311 5.689c.293.877.57 1.7.831 2.464l.14.409a66.177 66.177 0 0 1 2.8 9.219v.017a11.193 11.193 0 0 1 .128 1.137c.017.261.023.517.018.771v.033c-.082 3.761-2.437 7.141-7.361 19.1-.512 1.256.889 2.864 3.443 4.456z" class="prefix__cls-3" data-name="Контур 794" transform="translate(-1922.237 -977.221)"/>
                    <path id="prefix__Контур_795" d="M2067.038 1006.246s-.241 3.613-.249 7.017c-5.934-.181-9.07-6.042-10.356-9.291z" class="prefix__cls-8" data-name="Контур 795" transform="translate(-2019.076 -978.265)"/>
                    <path id="prefix__Контур_796" d="M2007.568 853.283s-14.04.251-14.049-9.218-1.828-15.814 7.135-16.374 10.709 3.051 11.422 6.21-.857 19.073-4.508 19.382z" class="prefix__cls-3" data-name="Контур 796" transform="translate(-1957.624 -822.079)"/>
                    <path id="prefix__Контур_797" fill="#d9935c" d="M2191.66 1203.53a21.8 21.8 0 0 0 6.3 1.652c1.075-2.045 2.221-4.256 3.341-6.477 3.128-6.208 6.04-12.477 6.587-15.289.413-2.116 1.423-6.35 2.6-11.094.178-.717.36-1.446.545-2.182l.459-1.827c2.22-8.8 4.587-17.836 4.587-17.836l.613-2.872.424-1.992 3.419-16.035.12-.561-.285.033c-.141.018-.33.042-.56.073a41.416 41.416 0 0 0-9.9 2.438 5 5 0 0 0-2.663 2.132 78.3 78.3 0 0 0-3.429 12.355c-1.666 7.743-3.206 17.054-4.434 24.555-1.138 6.956-2.006 12.355-2.461 13.5-.6 1.5-1.768 6.2-3.188 11.654q-.209.811-.429 1.644c-.521 2.012-1.077 4.099-1.646 6.129z" data-name="Контур 797" transform="translate(-2186.972 -1089.015)"/>
                    <path id="prefix__Контур_798" d="M1923.07 1613.84c2.395-7.817 9.248-23.57 9.248-23.57h.006c.664.24 1.335.458 2.007.654a39.815 39.815 0 0 0 4.937 1.11 59.251 59.251 0 0 0 22.213-1.074l.245.882c.517 1.866 1.866 6.715 4.131 14.746a48.59 48.59 0 0 1 1.344 7.23z" class="prefix__cls-2" data-name="Контур 798" transform="translate(-1905.164 -1497.555)"/>
                    <path id="prefix__Контур_799" d="M1950.118 1096.307a.126.126 0 0 1 .006-.022c3.245-8.343 5.816-14.64 6.068-15.1.724-1.324 10.612-2.639 12.06-2.629 1.052 0 1.628-3.771 1.863-5.836a.7.7 0 0 1 1.1-.543 17.728 17.728 0 0 0 4.631 2.45 13.7 13.7 0 0 0 7.575.725 1.192 1.192 0 0 1 1.4 1.471 3.521 3.521 0 0 0 .255 2.8c2.566.541 9.008 2.14 9.8 4.689a33.854 33.854 0 0 1 .615 17.015c-.669 12.285-3.6 30.637-3.6 30.637-13.614 7.806-29.166-.693-29.166-.693s-.017-.376-.046-.831c-.026-.377-.061-.8-.1-1.114-.09-.69-2.956-8.095-2.956-8.095s-.107.574-.3 1.556c-1.049 5.415-4.642 23.2-6.847 24.8-1.278.926-5.364.941-9.2-.195-3.99-1.18-7.708-3.6-7.708-7.552 0-5.04 8.459-27.883 14.55-43.533z" class="prefix__cls-10" data-name="Контур 799" transform="translate(-1935.568 -1038.556)"/>
                    <path id="prefix__Контур_800" d="M2145.449 1337.985s2.866 7.4 2.956 8.095c.041.311.075.737.1 1.114a13.788 13.788 0 0 0 4.767 2.714c4.848 1.591 6.955-8.471 6.665-13.491s-7.146-19.349-9.429-19.647-5.059 21.215-5.059 21.215z" class="prefix__cls-11" data-name="Контур 800" transform="translate(-2121.397 -1255.309)"/>
                    <path id="prefix__Контур_801" d="M2282.959 1503.981c.188-.982.3-1.556.3-1.556a8.522 8.522 0 0 0-.3 1.556z" class="prefix__cls-12" data-name="Контур 801" transform="translate(-2259.204 -1419.75)"/>
                    <path id="prefix__Контур_802" d="M2372.976 1327.883c0 3.947 3.718 6.372 7.708 7.552-5.5-7.091 6.535-50 6.842-51.091-6.092 15.65-14.55 38.491-14.55 43.539z" class="prefix__cls-11" data-name="Контур 802" transform="translate(-2372.976 -1226.593)"/>
                    <path id="prefix__Контур_803" d="M2073.511 1078.555s7.4 5.076 13 3.875c0 0 1.345-.919-.51-1.845-1.742-.866-5.793-3.429-4.9-5.958a17.715 17.715 0 0 1-4.631-2.45.7.7 0 0 0-1.1.543c-.231 2.064-.807 5.835-1.859 5.835z" class="prefix__cls-11" data-name="Контур 803" transform="translate(-2040.827 -1038.556)"/>
                    <path id="prefix__Контур_804" d="M2013.564 803.884s-2.593-5.936-9.442 6.414c-.871 1.57-4.581 2.9-5.895 2.419-6.43-2.341-4.636 6.954-4.636 6.954s-.62-23.871 4.774-24.309 15.199 8.522 15.199 8.522z" class="prefix__cls-7" data-name="Контур 804" transform="translate(-1958.944 -793.483)"/>
                    <path id="prefix__Контур_805" d="M1986.465 828.754s3.01 2.107 7.377 9.338c0 0 .27-6.646-2.294-8.326a6.784 6.784 0 0 0-5.083-1.012z" class="prefix__cls-7" data-name="Контур 805" transform="translate(-1938.503 -822.956)"/>
                    <path id="prefix__Контур_806" d="M2011.649 955.018s-7.337 2.689-13.458 0l-.862 7.384s10.451 7.635 12.6 1.738a84.6 84.6 0 0 0 1.72-9.122z" class="prefix__cls-6" data-name="Контур 806" transform="translate(-1957.448 -934.906)"/>
                    <g id="prefix__Сгруппировать_868" data-name="Сгруппировать 868" transform="translate(35.571 18.543)">
                        <path id="prefix__Контур_807" d="M2126.847 950.791l.092-.272a18.032 18.032 0 0 1-4.367-6.412c-.321-.933-.629-2.406-.189-2.537 2.125-.629 5.3 2.341 4.949 1.877l-.041-.424c-.173-.11-2.925-2.27-5.159-1.609-.513.152-.156 1.913.194 2.928a11.917 11.917 0 0 0 1.611 3.342 13.677 13.677 0 0 0 2.91 3.107z" class="prefix__cls-6" data-name="Контур 807" transform="translate(-2121.875 -941.288)"/>
                    </g>
                    <path id="prefix__Контур_808" d="M2142.5 933.407c-.137-2.615-2.454-3.578-3.251-2.8a3.815 3.815 0 0 0-.587 2.024c-.219 3.253 2.587 3.355 2.587 3.355s1.298-1.678 1.251-2.579z" class="prefix__cls-3" data-name="Контур 808" transform="translate(-2103.218 -913.052)"/>
                </g>
                <g id="prefix__Сгруппировать_871" data-name="Сгруппировать 871" transform="translate(6.129 59.382)">
                    <path id="prefix__Контур_809" d="M1664.436 1169.916a19.423 19.423 0 0 0-12.828 2.719c-5.892 3.928-6.746 23.264-9.718 25.228s-15.714 7.1-12.742 14.805-2.2 11.181-.446 16.464 45.2 10.429 48.554 6.652 6.093-16.348 4.272-19.731-9.833-6.362-6.917-9.785c8.164-9.58 5.108-37.307-10.175-36.352z" class="prefix__cls-2" data-name="Контур 809" transform="translate(-1628.329 -1169.74)"/>
                    <path id="prefix__Контур_810" d="M1812.284 1453.1a26.867 26.867 0 0 1-8.722 5.3c-13.849 5.389-21.1-5.925-24.365-13.939a12.449 12.449 0 0 1 4.638-2.2c.211-.056.424-.111.637-.164a5.472 5.472 0 0 0 3.923-3.729 32.8 32.8 0 0 0 .921-11.559l.7.083 11.741 1.453s0 3.665.242 7.094a35.23 35.23 0 0 0 .462 3.979 2.364 2.364 0 0 0 2.113 1.906.031.031 0 0 0 .007.01 73.471 73.471 0 0 1 7.703 11.766z" class="prefix__cls-3" data-name="Контур 810" transform="translate(-1761.955 -1397.44)"/>
                    <path id="prefix__Контур_811" d="M1654.314 1581.533c1.143-4.286 5.456-19.658 8.6-22.708 3.036-2.942 10.085-4.026 10.3-4.059h.005s.115.377.311.989a64.168 64.168 0 0 0 3.277 8.62 3.774 3.774 0 0 0 .772 1.086c.607.48 4.406.868 8.675.993.342.01.687.018 1.033.024 5.8.11 12.051-.277 12.212-1.567.288-2.293-5.324-10.751-5.535-11.072a.046.046 0 0 1-.007-.01c6.812.394 10.579 2.416 10.579 2.416 6.46 6.534 9.214 15.88 10.052 25.311z" class="prefix__cls-5" data-name="Контур 811" transform="translate(-1651.344 -1509.931)"/>
                    <path id="prefix__Контур_812" d="M1885.614 1429.022s0 3.662.242 7.095c-6.491.287-10.343-5.373-11.984-8.547z" class="prefix__cls-13" data-name="Контур 812" transform="translate(-1845.809 -1398.103)"/>
                    <path id="prefix__Контур_813" d="M1867.377 1269.537s-15.308 1.365-16.011-8.181-3.152-15.8 6.591-17.073 11.913 2.228 12.923 5.357.46 19.296-3.503 19.897z" class="prefix__cls-3" data-name="Контур 813" transform="translate(-1825.173 -1235.525)"/>
                    <path id="prefix__Контур_814" d="M1909.173 1362.579a33.525 33.525 0 0 1-15.412-.646l-.286 8.547a11.984 11.984 0 0 0 4.811 3.12c3.822 1.505 8.183 1.447 9.6-2.14 1.145-2.921 1.287-8.881 1.287-8.881z" class="prefix__cls-6" data-name="Контур 814" transform="translate(-1863.172 -1339.967)"/>
                    <g id="prefix__Сгруппировать_870" data-name="Сгруппировать 870" transform="translate(24.09 20.607)">
                        <path id="prefix__Контур_815" d="M1846.2 1360.509l.085-.322a20.843 20.843 0 0 1-6.089-6.836c-.5-1.03-1.035-2.681-.5-2.881 2.566-.963 6.816 2.071 6.33 1.58l-.1-.48c-.225-.106-3.863-2.262-6.562-1.249-.619.232.01 2.206.551 3.328a13.276 13.276 0 0 0 2.349 3.639 16.373 16.373 0 0 0 3.936 3.221z" class="prefix__cls-6" data-name="Контур 815" transform="translate(-1839.113 -1350.051)"/>
                    </g>
                    <path id="prefix__Контур_816" d="M1842.7 1347.934c-.446-2.976-3.419-3.813-4.324-2.833a4.139 4.139 0 0 0-.513 2.383 3.35 3.35 0 0 0 3.561 3.542s1.428-2.067 1.276-3.092z" class="prefix__cls-3" data-name="Контур 816" transform="translate(-1813.912 -1324.714)"/>
                    <path id="prefix__Контур_817" d="M1834.438 1229.938c-2.577-2.7-4.322-1.94-5.262-1a10.74 10.74 0 0 0-13.615 3.2 18.286 18.286 0 0 1-5.183 11.207s2.918 1.523 9.238-.6a10.973 10.973 0 0 0 4.955-3.978 35.848 35.848 0 0 1-5.608 7.963c7.434-4.114 9.747-15.037 9.973-16.19 1.534-.072 4.371.834 5.916 4.527.986 2.357.843 6.763.843 6.763s2.605-7.843-1.257-11.892z" class="prefix__cls-2" data-name="Контур 817" transform="translate(-1789.572 -1221.099)"/>
                </g>
            </g>
            <g id="prefix__Сгруппировать_892" data-name="Сгруппировать 892" transform="translate(-30.53 185.541)">
                <g id="prefix__Сгруппировать_873" data-name="Сгруппировать 873" transform="translate(23.551 10.739)">
                    <path id="prefix__Контур_818" d="M85.03 669.547l-.277-.723-3.181 1.526c-.136.052-.169.3-.072.551s.286.414.423.362l3.385-.993z" class="prefix__cls-14" data-name="Контур 818" transform="translate(-81.444 -667.844)"/>
                    <path id="prefix__Контур_819" d="M88.7 670.088c-.376.144-.949-.44-1.281-1.3s-.3-1.683.079-1.827.949.44 1.281 1.306.293 1.677-.079 1.821z" class="prefix__cls-15" data-name="Контур 819" transform="translate(-84.209 -666.934)"/>
                </g>
                <g id="prefix__Сгруппировать_874" data-name="Сгруппировать 874" transform="translate(.609 17.202)">
                    <path id="prefix__Контур_820" d="M39.222 681.062l.206.746 3.314-1.208c.141-.039.2-.282.126-.542s-.244-.44-.385-.4l-3.466.658z" class="prefix__cls-14" data-name="Контур 820" transform="translate(-38.08 -679.518)"/>
                    <path id="prefix__Контур_821" d="M37.6 679.406c.388-.107.9.531 1.148 1.424s.13 1.7-.257 1.811-.9-.531-1.148-1.424-.134-1.704.257-1.811z" class="prefix__cls-15" data-name="Контур 821" transform="translate(-37.211 -679.394)"/>
                </g>
                <g id="prefix__Сгруппировать_875" data-name="Сгруппировать 875" transform="translate(12.266)">
                    <path id="prefix__Контур_822" d="M62.975 649.434h-1.013l.373 5.566c0 .231.286.419.64.419s.64-.188.64-.419l.373-5.563z" class="prefix__cls-14" data-name="Контур 822" transform="translate(-60.781 -647.772)"/>
                    <path id="prefix__Контур_823" d="M64.074 647.382c0 .636-.982 1.152-2.195 1.152s-2.194-.516-2.194-1.152.982-1.153 2.194-1.153 2.195.516 2.195 1.153z" class="prefix__cls-15" data-name="Контур 823" transform="translate(-59.685 -646.23)"/>
                </g>
                <g id="prefix__Сгруппировать_876" data-name="Сгруппировать 876" transform="translate(0 7.268)">
                    <path id="prefix__Контур_824" d="M39.234 663.755l-.445.91 5.164 2.1c.208.1.5-.074.657-.391s.112-.658-.1-.759l-4.836-2.774z" class="prefix__cls-14" data-name="Контур 824" transform="translate(-37.362 -661.495)"/>
                    <path id="prefix__Контур_825" d="M38.413 660.307c.572.279.605 1.388.074 2.477s-1.425 1.746-2 1.467-.605-1.388-.074-2.477 1.427-1.746 2-1.467z" class="prefix__cls-15" data-name="Контур 825" transform="translate(-36.037 -660.243)"/>
                </g>
                <g id="prefix__Сгруппировать_877" data-name="Сгруппировать 877" transform="translate(1.394 20.299)">
                    <path id="prefix__Контур_826" d="M42.058 689.357l.624.8 4.154-3.719c.183-.143.154-.483-.064-.762s-.542-.389-.724-.246l-4.613 3.131z" class="prefix__cls-14" data-name="Контур 826" transform="translate(-40.029 -685.366)"/>
                    <path id="prefix__Контур_827" d="M39 690.2c.5-.392 1.513.064 2.259 1.019s.945 2.047.443 2.439-1.513-.065-2.259-1.02-.943-2.044-.443-2.438z" class="prefix__cls-15" data-name="Контур 827" transform="translate(-38.724 -687.626)"/>
                </g>
                <g id="prefix__Сгруппировать_878" data-name="Сгруппировать 878" transform="translate(15.318 23.495)">
                    <path id="prefix__Контур_828" d="M67.869 697.4l.991-.211-1.522-5.364c-.048-.227-.367-.351-.713-.277s-.587.316-.539.543l.792 5.519z" class="prefix__cls-14" data-name="Контур 828" transform="translate(-65.816 -691.527)"/>
                    <path id="prefix__Контур_829" d="M65.583 703.138c-.132-.622.721-1.331 1.907-1.583s2.253.049 2.386.671-.721 1.331-1.907 1.583-2.253-.048-2.386-.671z" class="prefix__cls-15" data-name="Контур 829" transform="translate(-65.57 -696.311)"/>
                </g>
                <g id="prefix__Сгруппировать_879" data-name="Сгруппировать 879" transform="translate(22.216 17.032)">
                    <path id="prefix__Контур_830" d="M84.7 681.136l.245-.983-5.488-.983c-.225-.056-.476.176-.561.519s.027.667.252.723l5.307 1.708z" class="prefix__cls-14" data-name="Контур 830" transform="translate(-78.87 -679.113)"/>
                    <path id="prefix__Контур_831" d="M89.389 683.343c-.618-.154-.881-1.232-.588-2.408s1.032-2 1.649-1.85.881 1.232.587 2.408-1.03 2.007-1.648 1.85z" class="prefix__cls-15" data-name="Контур 831" transform="translate(-83.593 -679.067)"/>
                </g>
                <g id="prefix__Сгруппировать_880" data-name="Сгруппировать 880" transform="translate(19.327 2.884)">
                    <path id="prefix__Контур_832" d="M77.435 655.147l-.776-.651-3.29 4.5c-.149.177-.05.505.221.732s.61.268.759.09l3.862-4.022z" class="prefix__cls-14" data-name="Контур 832" transform="translate(-73.299 -653.093)"/>
                    <path id="prefix__Контур_833" d="M81.88 654.865c-.409.488-1.494.252-2.422-.527s-1.349-1.806-.94-2.293 1.493-.252 2.422.528 1.349 1.805.94 2.292z" class="prefix__cls-15" data-name="Контур 833" transform="translate(-75.736 -651.791)"/>
                </g>
                <circle id="prefix__Эллипс_15" cx="9.893" cy="9.893" r="9.893" class="prefix__cls-16" data-name="Эллипс 15" transform="translate(4.566 5.774)"/>
                <path id="prefix__Контур_834" d="M49.18 667.484a8.77 8.77 0 0 1 1.6-5.063A8.813 8.813 0 1 0 63.058 674.7a8.812 8.812 0 0 1-13.877-7.213z" class="prefix__cls-17" data-name="Контур 834" transform="translate(-41.328 -654.023)"/>
                <g id="prefix__Сгруппировать_881" data-name="Сгруппировать 881" transform="translate(8.958 7.418)">
                    <ellipse id="prefix__Эллипс_16" cx="1.199" cy="2.442" class="prefix__cls-17" data-name="Эллипс 16" rx="1.199" ry="2.442" transform="rotate(-45 5.837 -8.305)"/>
                    <path id="prefix__Контур_835" d="M77.966 677.234c-.131 1.005-.638 1.768-1.132 1.7s-.786-.934-.655-1.934.638-1.768 1.132-1.7.789.928.655 1.934z" class="prefix__cls-17" data-name="Контур 835" transform="translate(-64.301 -667.636)"/>
                    <path id="prefix__Контур_836" d="M59.92 683.042c.634.461.966 1.087.74 1.4s-.924.191-1.559-.27-.966-1.086-.74-1.4.924-.191 1.559.27z" class="prefix__cls-17" data-name="Контур 836" transform="translate(-55.705 -671.153)"/>
                    <path id="prefix__Контур_837" d="M71.635 672.78a.92.92 0 1 1-1.287-.666 1.04 1.04 0 0 1 1.287.666z" class="prefix__cls-17" data-name="Контур 837" transform="translate(-61.285 -666.075)"/>
                    <path id="prefix__Контур_838" d="M55.926 668.127a1.389 1.389 0 1 1-.3-2.168 1.571 1.571 0 0 1 .3 2.168z" class="prefix__cls-17" data-name="Контур 838" transform="translate(-53.307 -663.074)"/>
                </g>
                <g id="prefix__Сгруппировать_882" data-name="Сгруппировать 882" transform="translate(10.091 3.834)">
                    <path id="prefix__Контур_839" d="M58.557 656.02l-.886.2 1.272 4.059c.039.172.322.254.631.183s.528-.267.489-.439l-.619-4.208z" class="prefix__cls-14" data-name="Контур 839" transform="translate(-56.541 -654.678)"/>
                    <path id="prefix__Контур_840" d="M59.341 654.145c.108.473-.663 1.053-1.724 1.3s-2.008.056-2.116-.417.664-1.053 1.724-1.3 2.008-.056 2.116.417z" class="prefix__cls-15" data-name="Контур 840" transform="translate(-55.491 -653.622)"/>
                </g>
                <g id="prefix__Сгруппировать_883" data-name="Сгруппировать 883" transform="translate(5.993 3.09)">
                    <path id="prefix__Контур_841" d="M50.17 654.427l-.664.394 2.08 2.953c.077.129.326.122.558-.015s.358-.353.281-.482l-1.591-3.243z" class="prefix__cls-14" data-name="Контур 841" transform="translate(-48.513 -653.076)"/>
                    <path id="prefix__Контур_842" d="M50.52 652.4c.21.355-.264 1.024-1.059 1.495s-1.609.565-1.82.211.264-1.024 1.059-1.494 1.61-.564 1.82-.212z" class="prefix__cls-15" data-name="Контур 842" transform="translate(-47.592 -652.187)"/>
                </g>
                <g id="prefix__Сгруппировать_884" data-name="Сгруппировать 884" transform="translate(6.615 23.396)">
                    <path id="prefix__Контур_843" d="M51.325 694.6l.622.457 1.9-3.071c.089-.121-.016-.348-.232-.507s-.465-.191-.554-.07l-2.361 2.735z" class="prefix__cls-14" data-name="Контур 843" transform="translate(-49.711 -691.337)"/>
                    <path id="prefix__Контур_844" d="M48.861 696.079c.244-.332 1.046-.158 1.79.389s1.15 1.259.907 1.591-1.045.158-1.79-.389-1.15-1.259-.907-1.591z" class="prefix__cls-15" data-name="Контур 844" transform="translate(-48.791 -693.538)"/>
                </g>
                <g id="prefix__Сгруппировать_885" data-name="Сгруппировать 885" transform="translate(21.887 20.956)">
                    <path id="prefix__Контур_845" d="M81.427 689.138l.459-.625-3-1.851c-.118-.087-.343.02-.5.238s-.194.464-.076.551l2.665 2.311z" class="prefix__cls-14" data-name="Контур 845" transform="translate(-78.234 -686.632)"/>
                    <path id="prefix__Контур_846" d="M82.829 691.865c-.325-.238-.143-1.036.406-1.783s1.256-1.159 1.58-.921.143 1.036-.406 1.783-1.256 1.156-1.58.921z" class="prefix__cls-15" data-name="Контур 846" transform="translate(-80.368 -687.817)"/>
                </g>
                <g id="prefix__Сгруппировать_886" data-name="Сгруппировать 886" transform="translate(4.221 7.29)">
                    <path id="prefix__Контур_847" d="M46.922 663.262l-.548.725 3.584 2.292c.141.106.41-.012.6-.266s.232-.544.092-.65l-3.18-2.826z" class="prefix__cls-14" data-name="Контур 847" transform="translate(-45.233 -661.369)"/>
                    <path id="prefix__Контур_848" d="M46.742 660.373c.387.293.169 1.233-.488 2.1s-1.5 1.333-1.889 1.04-.169-1.233.488-2.1 1.502-1.333 1.889-1.04z" class="prefix__cls-15" data-name="Контур 848" transform="translate(-44.174 -660.285)"/>
                </g>
                <g id="prefix__Сгруппировать_887" data-name="Сгруппировать 887" transform="translate(2.467 14.289)">
                    <path id="prefix__Контур_849" d="M43.2 676.691l.046.908 4.218-.548c.176-.009.307-.273.29-.59s-.172-.566-.348-.558l-4.252-.121z" class="prefix__cls-14" data-name="Контур 849" transform="translate(-41.931 -674.743)"/>
                    <path id="prefix__Контур_850" d="M41.578 673.778c.485-.024.922.837.977 1.923s-.294 1.987-.778 2.011-.922-.836-.977-1.923.293-1.989.778-2.011z" class="prefix__cls-15" data-name="Контур 850" transform="translate(-40.794 -673.778)"/>
                </g>
                <g id="prefix__Сгруппировать_888" data-name="Сгруппировать 888" transform="translate(11.173 21.866)">
                    <path id="prefix__Контур_851" d="M60.607 692.92l.9.113.192-4.25c.022-.175-.216-.349-.531-.389s-.587.071-.609.246l-.857 4.167z" class="prefix__cls-14" data-name="Контур 851" transform="translate(-58.602 -688.387)"/>
                    <path id="prefix__Контур_852" d="M57.581 696.786c.06-.481.984-.763 2.063-.628s1.906.634 1.845 1.116-.983.763-2.063.628-1.904-.635-1.845-1.116z" class="prefix__cls-15" data-name="Контур 852" transform="translate(-57.578 -692.111)"/>
                </g>
                <g id="prefix__Сгруппировать_889" data-name="Сгруппировать 889" transform="translate(17.557 20.78)">
                    <path id="prefix__Контур_853" d="M72.7 690.266l.763-.494-2.584-3.379c-.1-.148-.39-.129-.656.044s-.4.432-.309.58l2.021 3.743z" class="prefix__cls-14" data-name="Контур 853" transform="translate(-69.887 -686.294)"/>
                    <path id="prefix__Контур_854" d="M72.471 694.446c-.263-.408.263-1.217 1.177-1.808s1.867-.739 2.131-.331-.263 1.216-1.177 1.807-1.867.739-2.131.332z" class="prefix__cls-15" data-name="Контур 854" transform="translate(-71.098 -689.077)"/>
                </g>
                <g id="prefix__Сгруппировать_890" data-name="Сгруппировать 890" transform="translate(20.178 9.498)">
                    <path id="prefix__Контур_855" d="M79.215 667.617l-.354-.838-3.776 1.958c-.163.069-.195.361-.071.653s.355.474.518.405l4.037-1.341z" class="prefix__cls-14" data-name="Контур 855" transform="translate(-74.939 -665.619)"/>
                    <path id="prefix__Контур_856" d="M83.606 668.2c-.447.189-1.152-.47-1.576-1.473s-.4-1.967.044-2.156 1.152.47 1.575 1.473.404 1.971-.043 2.156z" class="prefix__cls-15" data-name="Контур 856" transform="translate(-78.205 -664.543)"/>
                </g>
                <g id="prefix__Сгруппировать_891" data-name="Сгруппировать 891" transform="translate(16.276 5.294)">
                    <path id="prefix__Контур_857" d="M69.88 659.014l-.809-.414-1.634 3.927c-.08.157.083.4.366.546s.576.134.657-.023l2.231-3.622z" class="prefix__cls-14" data-name="Контур 857" transform="translate(-67.416 -657.478)"/>
                    <path id="prefix__Контур_858" d="M72.593 658.525c-.221.432-1.185.38-2.154-.116s-1.574-1.248-1.353-1.679 1.185-.38 2.154.115 1.574 1.248 1.353 1.68z" class="prefix__cls-15" data-name="Контур 858" transform="translate(-68.198 -656.437)"/>
                </g>
                <path id="prefix__Контур_859" d="M59.523 669.781a1.646 1.646 0 1 1 .145-2.457 1.746 1.746 0 0 1-.145 2.457z" class="prefix__cls-15" data-name="Контур 859" transform="translate(-45.947 -656.171)"/>
                <path id="prefix__Контур_860" d="M57.861 677.453a1.1 1.1 0 1 1-1.641-.158 1.17 1.17 0 0 1 1.641.158z" class="prefix__cls-15" data-name="Контур 860" transform="translate(-45.597 -661.053)"/>
                <path id="prefix__Контур_861" d="M72.554 677.838a.849.849 0 1 1-.121 1.263.9.9 0 0 1 .121-1.263z" class="prefix__cls-15" data-name="Контур 861" transform="translate(-53.456 -661.311)"/>
                <path id="prefix__Контур_862" d="M65.143 680.875a1.368 1.368 0 1 1-.2 2.036 1.452 1.452 0 0 1 .2-2.036z" class="prefix__cls-15" data-name="Контур 862" transform="translate(-49.792 -662.691)"/>
                <path id="prefix__Контур_863" d="M67.408 670.752a.794.794 0 1 1 1.181.114.842.842 0 0 1-1.181-.114z" class="prefix__cls-15" data-name="Контур 863" transform="translate(-51.012 -657.369)"/>
                <path id="prefix__Контур_864" d="M62.214 675.046a1.3 1.3 0 1 1 1.232 1.494 1.374 1.374 0 0 1-1.232-1.494z" class="prefix__cls-15" data-name="Контур 864" transform="translate(-48.636 -659.426)"/>
            </g>
            <g id="prefix__Сгруппировать_922" data-name="Сгруппировать 922" transform="translate(-42.738 171.568)">
                <g id="prefix__Сгруппировать_873-2" data-name="Сгруппировать 873" transform="translate(11.628 5.302)">
                    <path id="prefix__Контур_818-2" d="M83.214 669.181l-.137-.357-1.571.753c-.067.026-.083.148-.036.272s.141.2.209.179l1.671-.49z" class="prefix__cls-14" data-name="Контур 818" transform="translate(-81.444 -668.34)"/>
                    <path id="prefix__Контур_819-2" d="M87.933 668.491c-.185.071-.469-.217-.633-.644s-.146-.831.039-.9.469.217.633.645.146.828-.039.899z" class="prefix__cls-15" data-name="Контур 819" transform="translate(-85.717 -666.934)"/>
                </g>
                <g id="prefix__Сгруппировать_874-2" data-name="Сгруппировать 874" transform="translate(.301 8.493)">
                    <path id="prefix__Контур_820-2" d="M39.118 680.348l.1.369 1.636-.6c.07-.019.1-.139.062-.268s-.121-.217-.19-.2l-1.711.325z" class="prefix__cls-14" data-name="Контур 820" transform="translate(-38.554 -679.586)"/>
                    <path id="prefix__Контур_821-2" d="M37.4 679.4c.192-.053.445.262.567.7s.064.841-.127.894-.445-.262-.567-.7-.063-.841.127-.894z" class="prefix__cls-15" data-name="Контур 821" transform="translate(-37.211 -679.394)"/>
                </g>
                <g id="prefix__Сгруппировать_875-2" data-name="Сгруппировать 875" transform="translate(6.056)">
                    <path id="prefix__Контур_822-2" d="M62.462 649.434h-.5l.184 2.747c0 .114.141.207.316.207s.316-.093.316-.207l.184-2.747z" class="prefix__cls-14" data-name="Контур 822" transform="translate(-61.379 -648.613)"/>
                    <path id="prefix__Контур_823-2" d="M61.852 646.8c0 .314-.485.569-1.084.569s-1.083-.255-1.083-.569.485-.569 1.083-.569 1.084.253 1.084.569z" class="prefix__cls-15" data-name="Контур 823" transform="translate(-59.685 -646.23)"/>
                </g>
                <g id="prefix__Сгруппировать_876-2" data-name="Сгруппировать 876" transform="translate(0 3.589)">
                    <path id="prefix__Контур_824-2" d="M39.008 663.293l-.219.449 2.55 1.038c.1.05.248-.036.324-.193s.055-.325-.048-.375l-2.388-1.37z" class="prefix__cls-14" data-name="Контур 824" transform="translate(-38.084 -662.178)"/>
                    <path id="prefix__Контур_825-2" d="M37.21 660.275c.282.138.3.685.036 1.223s-.7.862-.986.724-.3-.685-.037-1.223.704-.862.987-.724z" class="prefix__cls-15" data-name="Контур 825" transform="translate(-36.037 -660.243)"/>
                </g>
                <g id="prefix__Сгруппировать_877-2" data-name="Сгруппировать 877" transform="translate(.688 10.023)">
                    <path id="prefix__Контур_826-2" d="M41.743 687.336l.308.394 2.051-1.836c.09-.07.076-.239-.032-.376s-.267-.192-.358-.122l-2.278 1.546z" class="prefix__cls-14" data-name="Контур 826" transform="translate(-40.741 -685.366)"/>
                    <path id="prefix__Контур_827-2" d="M38.861 690.131c.248-.194.747.032 1.115.5s.466 1.011.219 1.2-.747-.032-1.115-.5-.467-1.006-.219-1.2z" class="prefix__cls-15" data-name="Контур 827" transform="translate(-38.724 -688.859)"/>
                </g>
                <g id="prefix__Сгруппировать_878-2" data-name="Сгруппировать 878" transform="translate(7.563 11.6)">
                    <path id="prefix__Контур_828-2" d="M66.964 694.426l.489-.1-.751-2.648c-.024-.112-.181-.173-.352-.137s-.29.156-.266.268l.391 2.725z" class="prefix__cls-14" data-name="Контур 828" transform="translate(-65.95 -691.527)"/>
                    <path id="prefix__Контур_829-2" d="M65.577 702.291c-.065-.307.356-.657.941-.782s1.112.024 1.178.331-.356.657-.941.782-1.113-.022-1.178-.331z" class="prefix__cls-15" data-name="Контур 829" transform="translate(-65.57 -698.92)"/>
                </g>
                <g id="prefix__Сгруппировать_879-2" data-name="Сгруппировать 879" transform="translate(10.969 8.41)">
                    <path id="prefix__Контур_830-2" d="M81.75 680.137l.121-.485-2.71-.486c-.111-.028-.235.087-.277.256s.014.329.124.357l2.62.843z" class="prefix__cls-14" data-name="Контур 830" transform="translate(-78.87 -679.138)"/>
                    <path id="prefix__Контур_831-2" d="M89.031 681.179c-.305-.076-.435-.608-.29-1.189s.509-.99.814-.914.435.608.29 1.189-.509.99-.814.914z" class="prefix__cls-15" data-name="Контур 831" transform="translate(-86.169 -679.067)"/>
                </g>
                <g id="prefix__Сгруппировать_880-2" data-name="Сгруппировать 880" transform="translate(9.543 1.424)">
                    <path id="prefix__Контур_832-2" d="M75.341 654.818l-.383-.322-1.624 2.223c-.074.088-.025.25.109.362s.3.132.375.045l1.907-1.986z" class="prefix__cls-14" data-name="Контур 832" transform="translate(-73.299 -653.803)"/>
                    <path id="prefix__Контур_833-2" d="M80.1 653.309c-.2.241-.738.124-1.2-.26s-.666-.891-.464-1.132.737-.124 1.2.26.664.891.464 1.132z" class="prefix__cls-15" data-name="Контур 833" transform="translate(-77.065 -651.791)"/>
                </g>
                <circle id="prefix__Эллипс_15-2" cx="4.885" cy="4.885" r="4.885" class="prefix__cls-16" data-name="Эллипс 15" transform="translate(2.255 2.851)"/>
                <path id="prefix__Контур_834-2" d="M48.092 664.921a4.33 4.33 0 0 1 .791-2.5 4.351 4.351 0 1 0 6.061 6.061 4.351 4.351 0 0 1-6.852-3.562z" class="prefix__cls-17" data-name="Контур 834" transform="translate(-44.215 -658.275)"/>
                <g id="prefix__Сгруппировать_881-2" data-name="Сгруппировать 881" transform="translate(4.423 3.663)">
                    <ellipse id="prefix__Эллипс_16-2" cx=".592" cy="1.206" class="prefix__cls-17" data-name="Эллипс 16" rx=".592" ry="1.206" transform="rotate(-45 2.882 -4.1)"/>
                    <path id="prefix__Контур_835-2" d="M77.045 676.251c-.065.5-.315.873-.559.841s-.388-.46-.323-.957.315-.873.559-.841.388.461.323.957z" class="prefix__cls-17" data-name="Контур 835" transform="translate(-70.298 -671.512)"/>
                    <path id="prefix__Контур_836-2" d="M59.095 682.818c.313.227.477.536.365.69s-.456.094-.77-.133-.477-.536-.365-.69.456-.095.77.133z" class="prefix__cls-17" data-name="Контур 836" transform="translate(-57.014 -676.948)"/>
                    <path id="prefix__Контур_837-2" d="M70.748 672.41a.454.454 0 1 1-.636-.329.514.514 0 0 1 .636.329z" class="prefix__cls-17" data-name="Контур 837" transform="translate(-65.638 -669.099)"/>
                    <path id="prefix__Контур_838-2" d="M54.6 666.956a.686.686 0 1 1-.15-1.07.776.776 0 0 1 .15 1.07z" class="prefix__cls-17" data-name="Контур 838" transform="translate(-53.307 -664.461)"/>
                </g>
                <g id="prefix__Сгруппировать_882-2" data-name="Сгруппировать 882" transform="translate(4.982 1.893)">
                    <path id="prefix__Контур_839-2" d="M58.109 655.917l-.438.1.628 2c.019.085.159.125.312.09s.261-.132.241-.217l-.306-2.078z" class="prefix__cls-14" data-name="Контур 839" transform="translate(-57.113 -655.255)"/>
                    <path id="prefix__Контур_840-2" d="M57.392 653.88c.054.233-.328.52-.851.64s-.991.028-1.045-.206.328-.52.851-.64.992-.028 1.045.206z" class="prefix__cls-15" data-name="Контур 840" transform="translate(-55.491 -653.622)"/>
                </g>
                <g id="prefix__Сгруппировать_883-2" data-name="Сгруппировать 883" transform="translate(2.959 1.526)">
                    <path id="prefix__Контур_841-2" d="M49.834 654.228l-.328.194 1.027 1.458c.038.064.161.06.276-.007s.177-.174.139-.238l-.785-1.6z" class="prefix__cls-14" data-name="Контур 841" transform="translate(-49.016 -653.561)"/>
                    <path id="prefix__Контур_842-2" d="M49.038 652.293c.1.175-.13.505-.523.738s-.795.279-.9.1.13-.505.523-.738.796-.275.9-.1z" class="prefix__cls-15" data-name="Контур 842" transform="translate(-47.592 -652.187)"/>
                </g>
                <g id="prefix__Сгруппировать_884-2" data-name="Сгруппировать 884" transform="translate(3.266 11.552)">
                    <path id="prefix__Контур_843-2" d="M51.01 692.949l.307.226.939-1.516c.044-.06-.008-.172-.115-.25s-.23-.094-.274-.035l-1.166 1.35z" class="prefix__cls-14" data-name="Контур 843" transform="translate(-50.213 -691.337)"/>
                    <path id="prefix__Контур_844-2" d="M48.825 695.994c.121-.164.516-.078.884.192s.568.622.448.786-.516.078-.884-.192-.568-.622-.448-.786z" class="prefix__cls-15" data-name="Контур 844" transform="translate(-48.791 -694.739)"/>
                </g>
                <g id="prefix__Сгруппировать_885-2" data-name="Сгруппировать 885" transform="translate(10.806 10.347)">
                    <path id="prefix__Контур_845-2" d="M79.811 687.869l.226-.308-1.483-.914c-.058-.043-.17.01-.248.117s-.1.229-.038.272l1.316 1.141z" class="prefix__cls-14" data-name="Контур 845" transform="translate(-78.234 -686.632)"/>
                    <path id="prefix__Контур_846-2" d="M82.747 690.462c-.16-.118-.07-.512.2-.88s.62-.572.78-.455.07.512-.2.88-.62.572-.78.455z" class="prefix__cls-15" data-name="Контур 846" transform="translate(-81.532 -688.463)"/>
                </g>
                <g id="prefix__Сгруппировать_886-2" data-name="Сгруппировать 886" transform="translate(2.084 3.6)">
                    <path id="prefix__Контур_847-2" d="M46.645 662.894l-.271.358 1.769 1.131c.07.052.2-.006.3-.131s.115-.269.045-.321l-1.57-1.4z" class="prefix__cls-14" data-name="Контур 847" transform="translate(-45.811 -661.96)"/>
                    <path id="prefix__Контур_848-2" d="M45.442 660.328c.191.145.083.609-.241 1.037s-.742.658-.933.514-.083-.609.241-1.037.742-.658.933-.514z" class="prefix__cls-15" data-name="Контур 848" transform="translate(-44.174 -660.285)"/>
                </g>
                <g id="prefix__Сгруппировать_887-2" data-name="Сгруппировать 887" transform="translate(1.218 7.055)">
                    <path id="prefix__Контур_849-2" d="M43.18 676.231l.023.448 2.083-.271c.087 0 .151-.135.143-.291s-.085-.28-.172-.275l-2.1-.06z" class="prefix__cls-14" data-name="Контур 849" transform="translate(-42.552 -675.269)"/>
                    <path id="prefix__Контур_850-2" d="M41.181 673.778c.239-.012.455.413.482.949s-.145.981-.384.993-.455-.413-.482-.949.145-.981.384-.993z" class="prefix__cls-15" data-name="Контур 850" transform="translate(-40.794 -673.778)"/>
                </g>
                <g id="prefix__Сгруппировать_888-2" data-name="Сгруппировать 888" transform="translate(5.517 10.796)">
                    <path id="prefix__Контур_851-2" d="M60.151 690.625l.446.056.1-2.1c.011-.087-.107-.172-.262-.192s-.29.035-.3.122l-.423 2.057z" class="prefix__cls-14" data-name="Контур 851" transform="translate(-59.16 -688.387)"/>
                    <path id="prefix__Контур_852-2" d="M57.58 696.451c.03-.238.486-.377 1.019-.31s.941.313.911.551-.486.377-1.018.31-.942-.314-.912-.551z" class="prefix__cls-15" data-name="Контур 852" transform="translate(-57.578 -694.143)"/>
                </g>
                <g id="prefix__Сгруппировать_889-2" data-name="Сгруппировать 889" transform="translate(8.669 10.26)">
                    <path id="prefix__Контур_853-2" d="M71.278 688.255l.377-.244-1.276-1.668c-.047-.073-.192-.064-.324.021s-.2.213-.152.286l1 1.848z" class="prefix__cls-14" data-name="Контур 853" transform="translate(-69.887 -686.294)"/>
                    <path id="prefix__Контур_854-2" d="M72.437 693.246c-.13-.2.13-.6.581-.893s.922-.365 1.052-.164-.13.6-.581.892-.922.366-1.052.165z" class="prefix__cls-15" data-name="Контур 854" transform="translate(-71.759 -690.596)"/>
                </g>
                <g id="prefix__Сгруппировать_890-2" data-name="Сгруппировать 890" transform="translate(9.963 4.69)">
                    <path id="prefix__Контур_855-2" d="M77.05 667.192l-.175-.414-1.865.967c-.08.034-.1.178-.035.323s.175.234.256.2l1.993-.662z" class="prefix__cls-14" data-name="Контур 855" transform="translate(-74.939 -666.206)"/>
                    <path id="prefix__Контур_856-2" d="M82.654 666.35c-.221.093-.569-.232-.778-.727s-.2-.971.022-1.065.569.232.778.727.199.972-.022 1.065z" class="prefix__cls-15" data-name="Контур 856" transform="translate(-79.987 -664.543)"/>
                </g>
                <g id="prefix__Сгруппировать_891-2" data-name="Сгруппировать 891" transform="translate(8.036 2.614)">
                    <path id="prefix__Контур_857-2" d="M68.633 658.8l-.4-.2-.807 1.939c-.04.078.041.2.181.27s.285.066.324-.011l1.1-1.788z" class="prefix__cls-14" data-name="Контур 857" transform="translate(-67.416 -658.046)"/>
                    <path id="prefix__Контур_858-2" d="M70.795 657.468c-.109.213-.585.188-1.063-.057s-.777-.616-.668-.829.585-.188 1.063.057.773.616.668.829z" class="prefix__cls-15" data-name="Контур 858" transform="translate(-68.625 -656.437)"/>
                </g>
                <path id="prefix__Контур_859-2" d="M58.057 668.315a.813.813 0 1 1 .071-1.213.862.862 0 0 1-.071 1.213z" class="prefix__cls-15" data-name="Контур 859" transform="translate(-51.354 -661.595)"/>
                <path id="prefix__Контур_860-2" d="M56.868 677.237a.545.545 0 1 1-.81-.078.578.578 0 0 1 .81.078z" class="prefix__cls-15" data-name="Контур 860" transform="translate(-50.812 -669.14)"/>
                <path id="prefix__Контур_861-2" d="M72.388 677.7a.419.419 0 1 1-.06.624.444.444 0 0 1 .06-.624z" class="prefix__cls-15" data-name="Контур 861" transform="translate(-62.958 -669.538)"/>
                <path id="prefix__Контур_862-2" d="M64.876 680.65a.676.676 0 1 1-.1 1.005.717.717 0 0 1 .1-1.005z" class="prefix__cls-15" data-name="Контур 862" transform="translate(-57.297 -671.672)"/>
                <path id="prefix__Контур_863-2" d="M67.277 670.054a.392.392 0 1 1 .583.056.416.416 0 0 1-.583-.056z" class="prefix__cls-15" data-name="Контур 863" transform="translate(-59.182 -663.447)"/>
                <path id="prefix__Контур_864-2" d="M62.213 674.337a.64.64 0 1 1 .608.738.678.678 0 0 1-.608-.738z" class="prefix__cls-15" data-name="Контур 864" transform="translate(-55.509 -666.625)"/>
            </g>
        </g>
        <g id="prefix__Сгруппировать_936" data-name="Сгруппировать 936" transform="translate(-815 148)">
            <path id="prefix__Контур_721" d="M402.472 299.755a35.294 35.294 0 0 1-23.641-9.181c-14.206-12.594-20.2-36.01-10.769-56.54 4.611-10.009 11.029-19.232 20.677-24.741a42.151 42.151 0 0 1 6.059-2.836c8.845-3.338 18.307-3.794 25.6-6.1 8.288-2.523 13.971-6.943 18.286-14.845 24.089-44.129 103.361-22.844 89.467 39.219-3 13.38 5.715 20.1 13.963 27.726 4.761 4.407 9.37 9.118 11.481 15.592a24.7 24.7 0 0 1 1.194 7.2c.222 10.745-5.777 19.945-14.143 23.251-3.884 1.535-6.469 1.306-10.548 1.3z" class="prefix__cls-1" data-name="Контур 721" transform="translate(720.467 -35.817)"/>
            <g id="prefix__Сгруппировать_921" data-name="Сгруппировать 921" transform="translate(1125.289 109)">
                <g id="prefix__Сгруппировать_851" data-name="Сгруппировать 851" transform="translate(31.691)">
                    <path id="prefix__Контур_723" d="M994.993 1371.278l-35.138-.013h-.455l-14.741-.005c-.418-5.038-.843-10.117-1.25-14.955-1.115-13.264-2.1-24.729-2.433-28.661l-.125-1.451 14.74-.85 24.454-6.457s.194 1.565.459 3.878c.5 4.317 1.239 11.243 1.428 15.473.29 6.495 6.485 25.069 11.759 31.258a16.305 16.305 0 0 1 1.302 1.783z" class="prefix__cls-7" data-name="Контур 723" transform="translate(-939.658 -1216.992)"/>
                    <path id="prefix__Контур_724" d="M1055.281 571.6s-14.34 6.55-22.607 4.12a19.282 19.282 0 0 1 5.6-4.239c-.286-1.571-.509-2.934-.636-4.09a35.793 35.793 0 0 1-.35-4.179l5.533-4.12 5.246-3.942a19.657 19.657 0 0 0 7.214 16.45z" class="prefix__cls-3" data-name="Контур 724" transform="translate(-1020.834 -537.099)"/>
                    <path id="prefix__Контур_725" d="M1083.307 591.357s-3.625 6.254-10.525 8a35.806 35.806 0 0 1-.35-4.179l5.532-4.12z" class="prefix__cls-13" data-name="Контур 725" transform="translate(-1055.983 -569.067)"/>
                    <path id="prefix__Контур_726" d="M1030.329 455.866s13.68 2.119 14.964-5.843 3.915-13.05-4.765-14.739-10.871 1.11-11.993 3.671-1.735 16.155 1.794 16.911z" class="prefix__cls-3" data-name="Контур 726" transform="translate(-1016.402 -429.933)"/>
                    <path id="prefix__Контур_727" d="M1016.56 395.11c.124-.135.411-.243 1.048-.276a2.69 2.69 0 0 0-1.191-.318 3.055 3.055 0 0 0-2.13-2.685 1.825 1.825 0 0 1 .927 1.306c-1.767-1.718-5.553-2.968-16.037-2.185-13.817 1.032-9.263 9.407-7.474 10.406s6.291-1.739 9.624-1.488 3.857 5.039 5.1 5.435c.7.224 1.241-.186 2.771-.841s1.12 1.451.678 3.011 1.66 3.618 1.66 3.618l2.124-2.165c2.124-2.166 4.126-11.338 3.16-13.293-.088-.174-.172-.349-.26-.525z" class="prefix__cls-2" data-name="Контур 727" transform="translate(-982.697 -390.712)"/>
                    <path id="prefix__Контур_728" d="M988.794 730.823c-.138-3.123-7.6-36.845-14.037-46.1-4.15-5.965-12.766-10.042-12.766-10.042-.572-.415-4.167 1.479-7.474 2.99a10.889 10.889 0 0 1-7.7.828s-3.1 1.84-4.061 2.549a24.311 24.311 0 0 0-8.967 13.339c-1.4 5.275-2.227 14.819-2.671 24.718-.222 4.506-.381 9.011-.445 13.309v.148c-.032.445-.032.89-.032 1.332-.159 11 0 19.74.223 19.888a1.333 1.333 0 0 0 .858.327c3.116-.06 12.179 1.571 19.842.829a61.053 61.053 0 0 0 18.346-4.92c.828-.355 2.7-1.3 2.671-2.134-.032-.948-.127-2.282-.254-4-.073-.973-.157-2.063-.238-3.257-.333-4.815-.67-11.331-.472-18.734 2.76 3.8 4.818 6.509 5.025 6.93.717 1.456-.414 24.108-.414 24.108 1.461 2.706 7.124 3.059 7.124 3.059s5.58-22.044 5.442-25.167z" class="prefix__cls-7" data-name="Контур 728" transform="translate(-930.574 -643.458)"/>
                    <path id="prefix__Контур_729" d="M1027.475 530.438a27.036 27.036 0 0 0 11.749-1.318l.614 6.591a10.546 10.546 0 0 1-4.214 3.453c-3.051 1.324-6.585 1.917-7.726-1.377-.598-1.73-.423-7.349-.423-7.349z" class="prefix__cls-6" data-name="Контур 729" transform="translate(-1016.217 -513.926)"/>
                    <g id="prefix__Сгруппировать_850" data-name="Сгруппировать 850" transform="translate(22.668 13.943)">
                        <path id="prefix__Контур_730" d="M1126.314 526.029l-.084-.245a16.375 16.375 0 0 0 4.664-5.538c.359-.817.725-2.115.282-2.247-2.137-.636-5.469 1.887-5.095 1.487l.057-.375c.179-.091 3.052-1.911 5.3-1.242.516.153.09 1.7-.3 2.594a10.143 10.143 0 0 1-1.755 2.91 13.183 13.183 0 0 1-3.069 2.656z" class="prefix__cls-6" data-name="Контур 730" transform="translate(-1126.052 -517.723)"/>
                    </g>
                    <path id="prefix__Контур_731" d="M1142.12 515.93c.232-2.318 2.62-3.09 3.4-2.371a3.075 3.075 0 0 1 .525 1.819 2.679 2.679 0 0 1-2.748 2.886s-1.257-1.535-1.177-2.334z" class="prefix__cls-3" data-name="Контур 731" transform="translate(-1117.586 -499.842)"/>
                </g>
                <g id="prefix__Сгруппировать_867" data-name="Сгруппировать 867" transform="translate(60.777 35.438)">
                    <path id="prefix__Контур_776" d="M1276.5 987.753c0 .116.367 4.974.251 8.969-.02.706-.055 1.378-.111 1.973h14.836a18.152 18.152 0 0 1-1.8-5 32.727 32.727 0 0 1-.582-3.473 41.514 41.514 0 0 1-.265-4.908z" class="prefix__cls-3" data-name="Контур 776" transform="translate(-1260.805 -960.262)"/>
                    <path id="prefix__Контур_777" d="M1229.468 769.565a13.709 13.709 0 0 0-5.168-.151 13.437 13.437 0 0 0-9.386 4.581c-2.039 2.484 1.206 20.434-1.642 26.008-.254.5 1.428.7 2.117.7 0 0 1.007-.384 1.206-.941a3.581 3.581 0 0 1-.457 1.153s5.541.525 8.308-1.567c1.5-1.137 3.152-3.805 4.214-6.525l4.19.295a8.4 8.4 0 0 1-2.615 6.018s5.169.507 6.919-.924a4.819 4.819 0 0 1-.663 1.012s5.779.208 8.165-1.595.853-31.369-15.188-28.064z" class="prefix__cls-5" data-name="Контур 777" transform="translate(-1204.889 -769.243)"/>
                    <path id="prefix__Контур_778" d="M1276.5 988.745s.265 3.664.273 7.115c6.514-.184 9.958-6.126 11.369-9.42z" class="prefix__cls-8" data-name="Контур 778" transform="translate(-1260.806 -961.254)"/>
                    <path id="prefix__Контур_779" d="M1218.6 836.231s15.413.254 15.423-9.347 2.007-16.034-7.833-16.6-11.756 3.093-12.539 6.3.942 19.333 4.949 19.647z" class="prefix__cls-3" data-name="Контур 779" transform="translate(-1205.085 -805.471)"/>
                    <path id="prefix__Контур_780" d="M1212.181 802.585s-3.151 2.515-3.92 4.96-1.114 7.478-2.581 7.307c0 0-3.179-7.656.394-11.987 3.788-4.593 6.107-.28 6.107-.28z" class="prefix__cls-5" data-name="Контур 780" transform="translate(-1197.048 -797.095)"/>
                    <path id="prefix__Контур_781" fill="#031530" d="M1190.5 1598.287h-18.409l-27.194-.01h-3.719a51.312 51.312 0 0 1 1.713-9.393c2.486-8.143 3.967-13.058 4.535-14.951l.179-.595.089-.3a70.251 70.251 0 0 0 24.387 1.088 47.108 47.108 0 0 0 5.413-1.123q1.115-.3 2.218-.668l.138.294c1.085 2.318 8.25 17.721 10.338 24.625q.15.49.312 1.033z" data-name="Контур 781" transform="translate(-1141.175 -1479.201)"/>
                    <path id="prefix__Контур_782" d="M1216.772 1140.477a22.194 22.194 0 0 1-4.477-6.635c-.84-2.791-6.486-22.439-7.638-27.929-.208-1-.325-1.579-.325-1.579a.174.174 0 0 0-.008.019s0 .007-.005.012l-.021.051-.029.068c-.008.019-.016.041-.027.064s-.011.026-.017.042c-.578 1.379-2.578 6.223-2.986 7.446a2.514 2.514 0 0 0-.16.567c-.087.673-.127 1.439-.151 1.869v.035s-17.073 8.617-32.019.7l-.128-1.044c-.087-.716-.215-1.777-.371-3.1-.634-5.413-1.735-15.269-2.474-24.366a.008.008 0 0 1 0-.005c-.2-2.485-.377-4.915-.507-7.18-.347-6.007-.385-10.868.2-12.611.871-2.583 7.943-4.2 10.759-4.753.574-.612.513-1.774.28-2.84a1.258 1.258 0 0 1 1.539-1.492l.129.031a16.449 16.449 0 0 0 8.187-.766 20.05 20.05 0 0 0 5.084-2.484.776.776 0 0 1 1.2.55c.258 2.094.891 5.917 2.046 5.917 1.59-.009 12.444 1.323 13.24 2.666.277.468 3.1 6.852 6.661 15.311a.1.1 0 0 1 .006.022l.2.477c6.754 15.948 20.119 43.584 20.119 48.652 0 2.661-2.989 8.394-6.28 12.289z" class="prefix__cls-6" data-name="Контур 782" transform="translate(-1162.39 -1021.388)"/>
                    <path id="prefix__Контур_783" d="M1381.385 1320.53s-3.146 7.508-3.245 8.208c-.044.315-.083.747-.111 1.129a15.507 15.507 0 0 1-5.233 2.751c-5.322 1.613-7.635-8.589-7.317-13.679s7.845-19.618 10.352-19.921 5.554 21.512 5.554 21.512z" class="prefix__cls-19" data-name="Контур 783" transform="translate(-1339.444 -1237.583)"/>
                    <path id="prefix__Контур_784" d="M1503.19 1486.124c-.207-1-.324-1.578-.324-1.578a8.043 8.043 0 0 1 .324 1.578z" class="prefix__cls-12" data-name="Контур 784" transform="translate(-1460.923 -1401.599)"/>
                    <g id="prefix__Сгруппировать_865" data-name="Сгруппировать 865" transform="translate(5.798 89.554)">
                        <path id="prefix__Контур_785" d="M1205.715 1549.608c-9.715 0-13.613-3.285-13.91-3.512l-.628-4.576c.093.069 13.129 7.9 33.3.4l-.428 3.466c-7.755 2.884-13.288 4.222-18.334 4.222z" class="prefix__cls-2" data-name="Контур 785" transform="translate(-1191.177 -1541.52)"/>
                    </g>
                    <path id="prefix__Контур_786" d="M1613.139 1315.746c0 2.661-2.99 8.394-6.28 12.289h-3.159c.624-16.913-10.591-60.465-10.881-61.417l.2.477c6.755 15.947 20.12 43.583 20.12 48.651z" class="prefix__cls-19" data-name="Контур 786" transform="translate(-1540.445 -1208.941)"/>
                    <path id="prefix__Контур_787" d="M1308.357 1061.066s-8.128 5.147-14.277 3.929c0 0-1.476-.932.56-1.871 1.912-.878 6.359-3.477 5.383-6.041a20.066 20.066 0 0 0 5.083-2.485.777.777 0 0 1 1.206.55c.257 2.094.888 5.918 2.045 5.918z" class="prefix__cls-19" data-name="Контур 787" transform="translate(-1275.892 -1021.389)"/>
                    <path id="prefix__Контур_788" d="M1218.844 933.629s7.948.555 14.791-2.113l.854 7.6s-11.486 8.811-13.8 2.724a77.2 77.2 0 0 1-1.845-8.211z" class="prefix__cls-20" data-name="Контур 788" transform="translate(-1209.837 -912.699)"/>
                    <g id="prefix__Сгруппировать_866" data-name="Сгруппировать 866" transform="translate(23.442 17.267)">
                        <path id="prefix__Контур_789" d="M1343.8 927.846l-.1-.281a18.627 18.627 0 0 0 4.945-6.518c.37-.953.734-2.461.246-2.6-2.354-.678-5.927 2.323-5.529 1.851l.052-.434c.193-.11 3.284-2.286 5.758-1.573.568.164.146 1.966-.257 3a11.86 11.86 0 0 1-1.838 3.407 14.628 14.628 0 0 1-3.277 3.148z" class="prefix__cls-20" data-name="Контур 789" transform="translate(-1343.331 -918.146)"/>
                    </g>
                    <path id="prefix__Контур_790" d="M1366.369 906.142c.189-2.683 2.779-3.637 3.654-2.827a3.7 3.7 0 0 1 .624 2.087 2.994 2.994 0 0 1-2.924 3.405s-1.423-1.74-1.354-2.665z" class="prefix__cls-3" data-name="Контур 790" transform="translate(-1340.254 -887.521)"/>
                    <path id="prefix__Контур_791" d="M1266.627 796.49s3.006 11.8 11.178 15.573c0 0-8.172-7.247-8.866-15.033s-2.312-.54-2.312-.54z" class="prefix__cls-5" data-name="Контур 791" transform="translate(-1252.08 -790.619)"/>
                    <path id="prefix__Контур_792" d="M1262.656 793.825s4.22 11.264 10.7 12.929 9.286-.07 9.286-.07a18.34 18.34 0 0 1-6-10.835s-10.803-7.385-13.986-2.024z" class="prefix__cls-5" data-name="Контур 792" transform="translate(-1248.569 -789.249)"/>
                </g>
                <g id="prefix__Сгруппировать_864" data-name="Сгруппировать 864" transform="translate(0 53.264)">
                    <path id="prefix__Контур_768" d="M872.7 926.853c.293-.568 3.676-6.583 13.313-2.437 0 0-4.925-1.643-6.7.027 0 0 4.37-1.036 6.571 1s1.584 7.28.9 8.778-4.389 5.624-6.223 5.258a5.536 5.536 0 0 1-1.989-.935 24.708 24.708 0 0 1 .2 2.874c.121 9.552-7.36 15.3-10.168 12.955-1.8-1.507-4.035 1.725-4.035 1.725l-12.339-25.572s14.484-11.714 20.47-3.673z" class="prefix__cls-5" data-name="Контур 768" transform="translate(-819.127 -922.968)"/>
                    <path id="prefix__Контур_769" d="M620.829 1367.829a47.873 47.873 0 0 1-26.926-8.286c4.119-12.433 14.618-43.374 17.82-45.579 2.208-1.522 7.322-2.063 11.833-2.226 4.4-.159 8.227.041 8.227.041s3.281.005 7.471.479l.14.016h.021c4.723.542 10.551 1.676 14.149 4.05 3.172 2.092 14.379 44.5 16.215 51.521z" class="prefix__cls-10" data-name="Контур 769" transform="translate(-590.755 -1266.601)"/>
                    <path id="prefix__Контур_770" d="M853.006 1192.7c-1.53-2.518-2.614-8.406-2.1-16.267l-.975 1.647-11.643 1.564s.037 3.637-.167 7.047a18.065 18.065 0 0 1-1.052 5.742c-.043 0-.043.008-.007.012-.178.3-3.953 6.833 1.058 8.031 13.61 3.252 14.831-7.247 14.882-7.755.046-.01.048-.021.004-.021z" class="prefix__cls-3" data-name="Контур 770" transform="translate(-804.366 -1147.037)"/>
                    <path id="prefix__Контур_771" d="M858.024 1192.2s.037 3.636-.166 7.047c6.448.218 10.214-5.443 11.81-8.611z" class="prefix__cls-8" data-name="Контур 771" transform="translate(-824.102 -1159.595)"/>
                    <path id="prefix__Контур_772" d="M812 1026.732s14.915 3.228 16.782-6.091 5.05-15.179-4.394-17.634-12.012.729-13.392 3.688-2.826 18.958 1.004 20.037z" class="prefix__cls-3" data-name="Контур 772" transform="translate(-781.389 -992.952)"/>
                    <path id="prefix__Контур_773" d="M808.963 1112.375a34.4 34.4 0 0 0 14.411-.9l.265 7.92a12.189 12.189 0 0 1-5 3.869c-3.541 1.394-8.482 1.253-9.484-2.176-.607-2.088-.192-8.713-.192-8.713z" class="prefix__cls-6" data-name="Контур 773" transform="translate(-780.755 -1089.618)"/>
                    <g id="prefix__Сгруппировать_863" data-name="Сгруппировать 863" transform="translate(41.992 20.602)">
                        <path id="prefix__Контур_774" d="M928.96 1110.318l-.079-.3a19.315 19.315 0 0 0 5.641-6.334c.46-.954.959-2.484.466-2.669-2.377-.892-6.315 1.919-5.865 1.464l.089-.445c.209-.1 3.58-2.1 6.079-1.158.574.216-.009 2.044-.51 3.084a12.3 12.3 0 0 1-2.177 3.372 15.168 15.168 0 0 1-3.644 2.986z" class="prefix__cls-6" data-name="Контур 774" transform="translate(-928.881 -1100.628)"/>
                    </g>
                    <path id="prefix__Контур_775" d="M812.014 986.511c2.872-2.343 4.5-1.379 5.309-.341a10.665 10.665 0 0 1 13.021 4.83 18.156 18.156 0 0 0 3.728 11.68s-3.063 1.141-9.029-1.728a10.9 10.9 0 0 1-4.393-4.529 35.6 35.6 0 0 0 4.546 8.536c-6.819-4.968-7.754-16.015-7.834-17.18a11.954 11.954 0 0 0-4.13 3.7c-1.219 2.225-2.528 7.045-3.919 6.595 0-.001-1.606-8.049 2.701-11.563z" class="prefix__cls-5" data-name="Контур 775" transform="translate(-780.928 -977.862)"/>
                    <path id="prefix__Контур_874" d="M-7.646 319.039l-3.148 8.281h41.349z" class="prefix__cls-10" data-name="Контур 874" transform="translate(10.794 -226.007)"/>
                </g>
            </g>
            <g id="prefix__Сгруппировать_923" data-name="Сгруппировать 923" transform="translate(1112.833 174.604)">
                <g id="prefix__Сгруппировать_873-3" data-name="Сгруппировать 873" transform="translate(24.442 11.145)">
                    <path id="prefix__Контур_818-3" d="M85.166 669.574l-.288-.75-3.3 1.584c-.142.054-.175.311-.075.572s.3.43.439.376l3.513-1.031z" class="prefix__cls-14" data-name="Контур 818" transform="translate(-81.444 -667.807)"/>
                    <path id="prefix__Контур_819-3" d="M88.753 670.207c-.39.15-.985-.457-1.33-1.354s-.307-1.747.082-1.9.985.457 1.33 1.355.308 1.75-.082 1.899z" class="prefix__cls-15" data-name="Контур 819" transform="translate(-84.096 -666.934)"/>
                </g>
                <g id="prefix__Сгруппировать_874-3" data-name="Сгруппировать 874" transform="translate(.632 17.852)">
                    <path id="prefix__Контур_820-3" d="M39.23 681.115l.214.775 3.44-1.254c.146-.04.2-.292.13-.562s-.254-.456-.4-.417l-3.6.683z" class="prefix__cls-14" data-name="Контур 820" transform="translate(-38.045 -679.513)"/>
                    <path id="prefix__Контур_821-3" d="M37.612 679.406c.4-.111.936.551 1.191 1.478s.135 1.768-.267 1.879-.936-.551-1.191-1.478-.136-1.768.267-1.879z" class="prefix__cls-15" data-name="Контур 821" transform="translate(-37.211 -679.394)"/>
                </g>
                <g id="prefix__Сгруппировать_875-3" data-name="Сгруппировать 875" transform="translate(12.73)">
                    <path id="prefix__Контур_822-3" d="M63.013 649.434h-1.051l.388 5.774c0 .24.3.435.664.435s.664-.195.664-.435l.387-5.774z" class="prefix__cls-14" data-name="Контур 822" transform="translate(-60.736 -647.709)"/>
                    <path id="prefix__Контур_823-3" d="M64.239 647.426c0 .66-1.02 1.2-2.278 1.2s-2.277-.536-2.277-1.2 1.02-1.2 2.277-1.2 2.278.539 2.278 1.2z" class="prefix__cls-15" data-name="Контур 823" transform="translate(-59.685 -646.23)"/>
                </g>
                <g id="prefix__Сгруппировать_876-3" data-name="Сгруппировать 876" transform="translate(0 7.543)">
                    <path id="prefix__Контур_824-3" d="M39.25 663.789l-.461.945 5.359 2.183c.216.106.521-.076.682-.406s.116-.682-.1-.787l-5.019-2.879z" class="prefix__cls-14" data-name="Контур 824" transform="translate(-37.308 -661.444)"/>
                    <path id="prefix__Контур_825-3" d="M38.5 660.31c.594.29.628 1.44.076 2.571s-1.479 1.812-2.073 1.522-.628-1.44-.077-2.571 1.483-1.812 2.074-1.522z" class="prefix__cls-15" data-name="Контур 825" transform="translate(-36.037 -660.243)"/>
                </g>
                <g id="prefix__Сгруппировать_877-3" data-name="Сгруппировать 877" transform="translate(1.446 21.067)">
                    <path id="prefix__Контур_826-3" d="M42.082 689.508l.648.828 4.311-3.86c.189-.148.16-.5-.066-.791s-.562-.4-.751-.256l-4.788 3.249z" class="prefix__cls-14" data-name="Контур 826" transform="translate(-39.976 -685.366)"/>
                    <path id="prefix__Контур_827-3" d="M39.011 690.208c.521-.407 1.57.067 2.344 1.058s.98 2.124.46 2.531-1.57-.067-2.344-1.058-.98-2.125-.46-2.531z" class="prefix__cls-15" data-name="Контур 827" transform="translate(-38.724 -687.534)"/>
                </g>
                <g id="prefix__Сгруппировать_878-3" data-name="Сгруппировать 878" transform="translate(15.897 24.383)">
                    <path id="prefix__Контур_828-3" d="M67.937 697.621l1.029-.219-1.579-5.567c-.05-.235-.381-.364-.74-.287s-.609.328-.559.564l.821 5.727z" class="prefix__cls-14" data-name="Контур 828" transform="translate(-65.806 -691.527)"/>
                    <path id="prefix__Контур_829-3" d="M65.584 703.2c-.137-.646.749-1.382 1.979-1.643s2.338.051 2.476.7-.749 1.382-1.979 1.643-2.339-.052-2.476-.7z" class="prefix__cls-15" data-name="Контур 829" transform="translate(-65.57 -696.116)"/>
                </g>
                <g id="prefix__Сгруппировать_879-3" data-name="Сгруппировать 879" transform="translate(23.057 17.676)">
                    <path id="prefix__Контур_830-3" d="M84.924 681.211l.254-1.02-5.7-1.021c-.233-.058-.494.183-.582.539s.029.692.262.75l5.508 1.773z" class="prefix__cls-14" data-name="Контур 830" transform="translate(-78.87 -679.111)"/>
                    <path id="prefix__Контур_831-3" d="M89.416 683.505c-.641-.16-.914-1.278-.61-2.5s1.071-2.08 1.712-1.92.914 1.279.609 2.5-1.07 2.08-1.711 1.92z" class="prefix__cls-15" data-name="Контур 831" transform="translate(-83.4 -679.067)"/>
                </g>
                <g id="prefix__Сгруппировать_880-3" data-name="Сгруппировать 880" transform="translate(20.058 2.993)">
                    <path id="prefix__Контур_832-3" d="M77.591 655.172l-.805-.676-3.414 4.672c-.154.184-.052.524.229.76s.634.278.788.094l4.008-4.174z" class="prefix__cls-14" data-name="Контур 832" transform="translate(-73.299 -653.04)"/>
                    <path id="prefix__Контур_833-3" d="M82.013 654.981c-.425.506-1.55.261-2.513-.547s-1.4-1.874-.976-2.38 1.55-.261 2.513.547 1.4 1.874.976 2.38z" class="prefix__cls-15" data-name="Контур 833" transform="translate(-75.637 -651.791)"/>
                </g>
                <circle id="prefix__Эллипс_15-3" cx="10.268" cy="10.268" r="10.268" class="prefix__cls-16" data-name="Эллипс 15" transform="translate(4.739 5.993)"/>
                <path id="prefix__Контур_834-3" d="M49.262 667.675a9.1 9.1 0 0 1 1.662-5.254 9.146 9.146 0 1 0 12.74 12.74 9.145 9.145 0 0 1-14.4-7.486z" class="prefix__cls-17" data-name="Контур 834" transform="translate(-41.113 -653.705)"/>
                <g id="prefix__Сгруппировать_881-3" data-name="Сгруппировать 881" transform="translate(9.296 7.698)">
                    <ellipse id="prefix__Эллипс_16-3" cx="1.244" cy="2.534" class="prefix__cls-17" data-name="Эллипс 16" rx="1.244" ry="2.534" transform="rotate(-45 6.058 -8.62)"/>
                    <path id="prefix__Контур_835-3" d="M78.035 677.307c-.136 1.043-.662 1.835-1.175 1.768s-.816-.967-.68-2.01.663-1.835 1.175-1.768.816.967.68 2.01z" class="prefix__cls-17" data-name="Контур 835" transform="translate(-63.853 -667.347)"/>
                    <path id="prefix__Контур_836-3" d="M59.981 683.059c.658.478 1 1.128.768 1.451s-.959.2-1.618-.28-1-1.127-.768-1.451.959-.198 1.618.28z" class="prefix__cls-17" data-name="Контур 836" transform="translate(-55.608 -670.72)"/>
                    <path id="prefix__Контур_837-3" d="M71.7 672.807a.954.954 0 1 1-1.336-.691 1.08 1.08 0 0 1 1.336.691z" class="prefix__cls-17" data-name="Контур 837" transform="translate(-60.96 -665.849)"/>
                    <path id="prefix__Контур_838-3" d="M56.025 668.215a1.442 1.442 0 1 1-2.423-1.4 1.442 1.442 0 1 1 2.423 1.4z" class="prefix__cls-17" data-name="Контур 838" transform="translate(-53.307 -662.97)"/>
                </g>
                <g id="prefix__Сгруппировать_882-3" data-name="Сгруппировать 882" transform="translate(10.472 3.979)">
                    <path id="prefix__Контур_839-3" d="M58.591 656.027l-.92.21 1.32 4.213c.041.179.334.264.655.19s.548-.277.507-.456l-.643-4.368z" class="prefix__cls-14" data-name="Контур 839" transform="translate(-56.498 -654.635)"/>
                    <path id="prefix__Контур_840-3" d="M59.487 654.165c.113.49-.688 1.093-1.789 1.345s-2.084.058-2.2-.433.689-1.093 1.789-1.345 2.088-.058 2.2.433z" class="prefix__cls-15" data-name="Контур 840" transform="translate(-55.491 -653.622)"/>
                </g>
                <g id="prefix__Сгруппировать_883-3" data-name="Сгруппировать 883" transform="translate(6.22 3.207)">
                    <path id="prefix__Контур_841-3" d="M50.2 654.442l-.69.409 2.159 3.065c.08.134.339.127.579-.016s.371-.367.292-.5l-1.651-3.366z" class="prefix__cls-14" data-name="Контур 841" transform="translate(-48.476 -653.04)"/>
                    <path id="prefix__Контур_842-3" d="M50.631 652.41c.218.368-.274 1.063-1.1 1.551s-1.67.586-1.888.218.274-1.062 1.1-1.551 1.67-.586 1.888-.218z" class="prefix__cls-15" data-name="Контур 842" transform="translate(-47.592 -652.187)"/>
                </g>
                <g id="prefix__Сгруппировать_884-3" data-name="Сгруппировать 884" transform="translate(6.865 24.281)">
                    <path id="prefix__Контур_843-3" d="M51.349 694.725l.646.475 1.974-3.187c.092-.125-.016-.361-.241-.526s-.483-.2-.575-.073l-2.45 2.837z" class="prefix__cls-14" data-name="Контур 843" transform="translate(-49.674 -691.337)"/>
                    <path id="prefix__Контур_844-3" d="M48.864 696.085c.254-.345 1.085-.164 1.858.4s1.194 1.307.941 1.652-1.085.164-1.858-.4-1.194-1.307-.941-1.652z" class="prefix__cls-15" data-name="Контур 844" transform="translate(-48.791 -693.449)"/>
                </g>
                <g id="prefix__Сгруппировать_885-3" data-name="Сгруппировать 885" transform="translate(22.714 21.748)">
                    <path id="prefix__Контур_845-3" d="M81.548 689.232l.476-.648-3.116-1.921c-.123-.09-.356.021-.522.247s-.2.482-.079.572l2.766 2.4z" class="prefix__cls-14" data-name="Контур 845" transform="translate(-78.234 -686.632)"/>
                    <path id="prefix__Контур_846-3" d="M82.835 691.97c-.337-.247-.148-1.076.421-1.851s1.3-1.2 1.64-.956.148 1.076-.421 1.851-1.304 1.203-1.64.956z" class="prefix__cls-15" data-name="Контур 846" transform="translate(-80.281 -687.768)"/>
                </g>
                <g id="prefix__Сгруппировать_886-3" data-name="Сгруппировать 886" transform="translate(4.38 7.566)">
                    <path id="prefix__Контур_847-3" d="M46.943 663.289l-.569.753 3.719 2.378c.146.11.426-.013.624-.276s.241-.565.1-.675l-3.3-2.933z" class="prefix__cls-14" data-name="Контур 847" transform="translate(-45.19 -661.325)"/>
                    <path id="prefix__Контур_848-3" d="M46.839 660.376c.4.3.175 1.28-.506 2.181s-1.559 1.383-1.96 1.08-.175-1.28.506-2.18 1.559-1.385 1.96-1.081z" class="prefix__cls-15" data-name="Контур 848" transform="translate(-44.174 -660.285)"/>
                </g>
                <g id="prefix__Сгруппировать_887-3" data-name="Сгруппировать 887" transform="translate(2.561 14.829)">
                    <path id="prefix__Контур_849-3" d="M43.2 676.725l.047.943 4.378-.569c.183-.01.318-.284.3-.612s-.178-.588-.361-.579l-4.413-.125z" class="prefix__cls-14" data-name="Контур 849" transform="translate(-41.885 -674.704)"/>
                    <path id="prefix__Контур_850-3" d="M41.607 673.778c.5-.025.957.868 1.014 2s-.3 2.062-.807 2.087-.957-.868-1.014-2 .3-2.065.807-2.087z" class="prefix__cls-15" data-name="Контур 850" transform="translate(-40.794 -673.778)"/>
                </g>
                <g id="prefix__Сгруппировать_888-3" data-name="Сгруппировать 888" transform="translate(11.595 22.693)">
                    <path id="prefix__Контур_851-3" d="M60.642 693.091l.937.117.2-4.41c.023-.182-.224-.362-.551-.4s-.609.074-.632.256l-.89 4.324z" class="prefix__cls-14" data-name="Контур 851" transform="translate(-58.56 -688.387)"/>
                    <path id="prefix__Контур_852-3" d="M57.581 696.811c.062-.5 1.021-.791 2.141-.652s1.978.658 1.915 1.158-1.021.792-2.141.652-1.977-.659-1.915-1.158z" class="prefix__cls-15" data-name="Контур 852" transform="translate(-57.578 -691.959)"/>
                </g>
                <g id="prefix__Сгруппировать_889-3" data-name="Сгруппировать 889" transform="translate(18.221 21.566)">
                    <path id="prefix__Контур_853-3" d="M72.81 690.417l.792-.513-2.682-3.504c-.1-.154-.4-.134-.681.045s-.42.448-.32.6l2.1 3.885z" class="prefix__cls-14" data-name="Контур 853" transform="translate(-69.887 -686.294)"/>
                    <path id="prefix__Контур_854-3" d="M72.474 694.535c-.273-.423.273-1.263 1.221-1.876s1.938-.767 2.211-.344-.273 1.262-1.221 1.875-1.938.768-2.211.345z" class="prefix__cls-15" data-name="Контур 854" transform="translate(-71.049 -688.964)"/>
                </g>
                <g id="prefix__Сгруппировать_890-3" data-name="Сгруппировать 890" transform="translate(20.941 9.858)">
                    <path id="prefix__Контур_855-3" d="M79.377 667.648l-.367-.869-3.919 2.032c-.169.072-.2.375-.074.678s.369.491.537.42l4.19-1.391z" class="prefix__cls-14" data-name="Контур 855" transform="translate(-74.939 -665.575)"/>
                    <path id="prefix__Контур_856-3" d="M83.677 668.342c-.464.2-1.2-.488-1.635-1.528s-.419-2.042.045-2.238 1.2.488 1.635 1.528.419 2.042-.045 2.238z" class="prefix__cls-15" data-name="Контур 856" transform="translate(-78.072 -664.543)"/>
                </g>
                <g id="prefix__Сгруппировать_891-3" data-name="Сгруппировать 891" transform="translate(16.891 5.494)">
                    <path id="prefix__Контур_857-3" d="M69.974 659.03l-.84-.43-1.7 4.076c-.083.163.086.417.38.567s.6.139.681-.024l2.315-3.759z" class="prefix__cls-14" data-name="Контур 857" transform="translate(-67.416 -657.435)"/>
                    <path id="prefix__Контур_858-3" d="M72.727 658.6c-.229.448-1.23.395-2.235-.12s-1.634-1.3-1.4-1.743 1.23-.395 2.235.119 1.63 1.3 1.4 1.744z" class="prefix__cls-15" data-name="Контур 858" transform="translate(-68.167 -656.437)"/>
                </g>
                <path id="prefix__Контур_859-3" d="M59.632 669.891a1.708 1.708 0 1 1 .15-2.55 1.812 1.812 0 0 1-.15 2.55z" class="prefix__cls-15" data-name="Контур 859" transform="translate(-45.543 -655.766)"/>
                <path id="prefix__Контур_860-3" d="M57.936 677.469a1.144 1.144 0 1 1-1.7-.164 1.214 1.214 0 0 1 1.7.164z" class="prefix__cls-15" data-name="Контур 860" transform="translate(-45.207 -660.449)"/>
                <path id="prefix__Контур_861-3" d="M72.566 677.849a.881.881 0 1 1-.126 1.311.935.935 0 0 1 .126-1.311z" class="prefix__cls-15" data-name="Контур 861" transform="translate(-52.746 -660.696)"/>
                <path id="prefix__Контур_862-3" d="M65.163 680.891a1.42 1.42 0 1 1-.2 2.113 1.507 1.507 0 0 1 .2-2.113z" class="prefix__cls-15" data-name="Контур 862" transform="translate(-49.232 -662.02)"/>
                <path id="prefix__Контур_863-3" d="M67.418 670.8a.824.824 0 1 1 1.226.118.873.873 0 0 1-1.226-.118z" class="prefix__cls-15" data-name="Контур 863" transform="translate(-50.402 -656.915)"/>
                <path id="prefix__Контур_864-3" d="M62.214 675.1a1.345 1.345 0 1 1 1.279 1.551 1.426 1.426 0 0 1-1.279-1.551z" class="prefix__cls-15" data-name="Контур 864" transform="translate(-48.122 -658.888)"/>
            </g>
        </g>
    </g>
</svg>
