<svg xmlns="http://www.w3.org/2000/svg" width="46" height="46" viewBox="0 0 46 46">
  <g id="Group_870" data-name="Group 870" transform="translate(-168 -360)">
    <circle id="Ellipse_1" data-name="Ellipse 1" cx="23" cy="23" r="23" transform="translate(168 360)" fill="#fff3c8"/>
    <g id="sale" transform="translate(166.641 368.002)">
      <g id="Group_2" data-name="Group 2" transform="translate(10.359 -0.002)">
        <g id="Group_1" data-name="Group 1" transform="translate(0 0)">
          <path id="Path_1" data-name="Path 1" d="M37.326,15.145a.865.865,0,0,1,0-.765l1.1-2.253a2.563,2.563,0,0,0-1.106-3.4L35.106,7.548a.865.865,0,0,1-.45-.619l-.433-2.47a2.563,2.563,0,0,0-2.9-2.1l-2.483.351a.865.865,0,0,1-.727-.236L26.315.726a2.563,2.563,0,0,0-3.579,0l-1.8,1.744a.866.866,0,0,1-.727.236l-2.483-.351a2.563,2.563,0,0,0-2.9,2.1l-.433,2.47a.866.866,0,0,1-.45.619L11.73,8.723a2.563,2.563,0,0,0-1.106,3.4l1.1,2.253a.865.865,0,0,1,0,.765l-1.1,2.253a2.563,2.563,0,0,0,1.106,3.4l2.215,1.175a.865.865,0,0,1,.45.619l.433,2.47a2.562,2.562,0,0,0,2.527,2.13,2.634,2.634,0,0,0,.369-.026l2.483-.351a.865.865,0,0,1,.727.236l1.8,1.744a2.563,2.563,0,0,0,3.579,0l1.8-1.744a.866.866,0,0,1,.727-.236l2.483.351a2.563,2.563,0,0,0,2.9-2.1l.433-2.47a.866.866,0,0,1,.45-.619L37.321,20.8a2.563,2.563,0,0,0,1.106-3.4ZM21.119,7.1A3.122,3.122,0,1,1,18,10.221,3.126,3.126,0,0,1,21.119,7.1ZM19.508,20.984a.852.852,0,0,1-1.2-1.2L29.543,8.54a.852.852,0,1,1,1.2,1.2Zm8.424,1.442A3.122,3.122,0,1,1,31.054,19.3,3.126,3.126,0,0,1,27.932,22.426Z" transform="translate(-10.359 0.002)" fill="#d4aa14"/>
        </g>
      </g>
      <g id="Group_4" data-name="Group 4" transform="translate(26.512 17.885)">
        <g id="Group_3" data-name="Group 3">
          <path id="Path_2" data-name="Path 2" d="M291.871,310.141a1.419,1.419,0,1,0,1.419,1.419A1.421,1.421,0,0,0,291.871,310.141Z" transform="translate(-290.452 -310.141)" fill="#d4aa14"/>
        </g>
      </g>
      <g id="Group_6" data-name="Group 6" transform="translate(19.7 8.802)">
        <g id="Group_5" data-name="Group 5" transform="translate(0)">
          <path id="Path_3" data-name="Path 3" d="M173.752,152.646a1.419,1.419,0,1,0,1.419,1.419A1.421,1.421,0,0,0,173.752,152.646Z" transform="translate(-172.333 -152.646)" fill="#d4aa14"/>
        </g>
      </g>
    </g>
  </g>
</svg>
