<svg xmlns="http://www.w3.org/2000/svg" xmlns:xlink="http://www.w3.org/1999/xlink" width="268" height="82" viewBox="0 0 268 82">
  <g id="Сгруппировать_744" data-name="Сгруппировать 744" transform="translate(-767 -317)">
    <g id="Сгруппировать_196" data-name="Сгруппировать 196" transform="translate(446.25 -412.671)">
      <g id="Сгруппировать_195" data-name="Сгруппировать 195" transform="translate(329.75 750.671)">
        <g id="Сгруппировать_194" data-name="Сгруппировать 194">
          <path id="Контур_37" data-name="Контур 37" d="M467.552,784.091a4.518,4.518,0,1,1-9.035,0V763H454v21.091a9.035,9.035,0,1,0,18.069,0V763h-4.517Z" transform="translate(-413.908 -759.022)" fill="#ff9b00"/>
          <path id="Контур_38" data-name="Контур 38" d="M765.229,762.094a9.066,9.066,0,0,0-9.035,9.1v3.457H752v4.517h4.195v12.584h4.518V779.165h9.035v12.584h4.517V771.191A9.066,9.066,0,0,0,765.229,762.094Zm4.517,12.554h-9.035v-3.457a4.518,4.518,0,1,1,9.035,0Z" transform="translate(-615.753 -758.408)" fill="#ff9b00"/>
          <path id="Контур_39" data-name="Контур 39" d="M551.12,750.671a6.531,6.531,0,0,0-6.568,6.227v16.61l-8.623-18.858H531v29.363h4.517V765.9l9.726,18.108h3.826V756.9a2.078,2.078,0,0,1,4.087.01h4.532C557.688,753.681,554.556,750.671,551.12,750.671Z" transform="translate(-466.063 -750.671)" fill="#ff9b00"/>
          <path id="Контур_40" data-name="Контур 40" d="M660.183,776.909a8.495,8.495,0,0,0,2.086-5.591A8.288,8.288,0,0,0,654.062,763H643.414v29.363h4.84V767.517h5.807a3.8,3.8,0,0,1,3.676,3.839,3.881,3.881,0,0,1-3.676,3.905h-3.548v4.517h3.548a6.137,6.137,0,0,1,2.192.367c.169.065.336.116.5.184a13.57,13.57,0,1,1-18.617,12.679h-4.532a18.081,18.081,0,0,0,36.162-.1A18.051,18.051,0,0,0,660.183,776.909Z" transform="translate(-535.562 -759.022)" fill="#ff9b00"/>
          <path id="Контур_41" data-name="Контур 41" d="M1061.716,763H1049v4.195h7.421v25.168h4.518V767.195h7.744V763Z" transform="translate(-816.921 -759.022)" fill="#ff9b00"/>
          <path id="Контур_42" data-name="Контур 42" d="M984,792.363h15.811v-4.195H988.517v-8.712h8.067v-4.195h-8.067v-8.067h11.293V763H984Z" transform="translate(-772.894 -759.022)" fill="#ff9b00"/>
          <path id="Контур_43" data-name="Контур 43" d="M361.889,780.524a19.446,19.446,0,0,0-4.226-3.581c-1.077-.7-2.2-1.347-3.319-1.98-2.177-1.233-5.785-3.065-5.315-6.138a4.269,4.269,0,0,1,4.544-3.307c2.3.255,4.439,2.424,5.177,4.565l4.285-1.477a11.645,11.645,0,0,0-9.105-7.615,8.805,8.805,0,0,0-9.381,7.148c-1.286,8.4,9.107,10.176,13.589,14.984,2,2.142,3.13,3.834,3.419,6.753a13.691,13.691,0,0,1-22.3,11.935,13.307,13.307,0,0,1-4.936-9.107,6.609,6.609,0,0,1-.136-1.089h-4.367a4.247,4.247,0,0,0-.015,1.447,18.208,18.208,0,0,0,19.663,16.331c.088-.007.177-.021.265-.029a18.229,18.229,0,0,0,16.34-19.933C365.7,785.728,364.3,783.352,361.889,780.524Z" transform="translate(-329.75 -757.629)" fill="#ff9b00"/>
          <path id="Контур_44" data-name="Контур 44" d="M920.58,776.9,930.687,764h-5.522l-7.648,9.732V764H913v29.363h4.517V780.632l.083.007,8.389,12.724h5.395Z" transform="translate(-724.803 -759.699)" fill="#ff9b00"/>
          <path id="Контур_45" data-name="Контур 45" d="M851.229,776.717c-.94-.594-1.871-1.2-2.819-1.787-1.4-.861-3.074-1.679-3.766-3.29a3.374,3.374,0,0,1,1.6-4.006c2.723-1.389,5.244,1.5,6.266,3.739l.02.044,3.987-1.938-.019-.042c-1.525-3.374-4.812-6.777-8.715-6.777-.169,0-.34.006-.508.019a7.741,7.741,0,0,0-7.212,7.337,7.631,7.631,0,0,0,3.8,7.376l5.081,3.229c1.326.829,2.844,1.952,3.2,3.585s-1.078,3.411-2.617,3.886A4.673,4.673,0,0,1,845,786.783a10.012,10.012,0,0,1-1.845-2.348l-.023-.042-3.849,2.217.021.04c2.068,3.858,5.463,6.161,9.081,6.161a7.638,7.638,0,0,0,2.507-.41,8.688,8.688,0,0,0,5.777-7.328C856.92,780.277,852.637,777.6,851.229,776.717Z" transform="translate(-674.875 -758.792)" fill="#ff9b00"/>
        </g>
      </g>
    </g>
    <rect id="carrotlogo.c7f83982" width="268" height="82" transform="translate(767 317)" fill="url(#pattern)"/>
  </g>
</svg>
