<svg xmlns="http://www.w3.org/2000/svg" width="52" height="52" viewBox="0 0 52 52">
  <g id="Сгруппировать_16" data-name="Сгруппировать 16" transform="translate(-291 -404)">
    <circle id="Эллипс_2" data-name="Эллипс 2" cx="26" cy="26" r="26" transform="translate(291 404)" fill="#dff0e3"/>
    <path id="Path_648" data-name="Path 648" d="M67.536,114.5a2.875,2.875,0,1,0,2.875,2.875,2.875,2.875,0,0,0-2.875-2.875Zm0,7.67h-.1a7.015,7.015,0,0,0-1.054.093,4.968,4.968,0,0,0-3.738,3.02l-1.611,3.851-3.5,1.762a.959.959,0,0,0,.854,1.716l3.833-1.917a.94.94,0,0,0,.458-.487l1.034-2.484v4.172l-3.035,2.148a1.911,1.911,0,0,0-.681,2.226,2.006,2.006,0,0,0,1.9,1.231h2a2.566,2.566,0,0,1,.576-2.77,2.841,2.841,0,0,1,2.327-1.059,2.4,2.4,0,0,1,.749.152c.171.058,3.176,1.011,3.176,1.011l-4.207.753a.957.957,0,0,0,.073,1.912H73.3a1.8,1.8,0,0,0,1.621-1.227.94.94,0,0,0,.285-.678,1.9,1.9,0,0,0-.806-1.552h0l-3.031-2.148V127.72L72.4,130.2a.956.956,0,0,0,.452.487l3.833,1.917a.96.96,0,1,0,.861-1.716l-3.514-1.757-1.611-3.851a4.968,4.968,0,0,0-3.735-3.02h0a7.116,7.116,0,0,0-1.063-.093Z" transform="translate(248.979 304.5)" fill="#41c752"/>
  </g>
</svg>
