<svg xmlns="http://www.w3.org/2000/svg" width="52" height="52" viewBox="0 0 52 52">
  <g id="Сгруппировать_25" data-name="Сгруппировать 25" transform="translate(-291 -979)">
    <g id="Сгруппировать_14" data-name="Сгруппировать 14" transform="translate(0 553)">
      <circle id="Эллипс_2" data-name="Эллипс 2" cx="26" cy="26" r="26" transform="translate(291 426)" fill="#dff0e3"/>
    </g>
    <path id="Icon_awesome-dna" data-name="Icon awesome-dna" d="M0,21.506a.694.694,0,0,0,.692.775l1.406,0a.7.7,0,0,0,.7-.605c.03-.213.078-.483.148-.788H16.54c.07.3.126.575.152.788a.7.7,0,0,0,.7.605l1.406,0a.692.692,0,0,0,.692-.775,14.267,14.267,0,0,0-5.175-9.04,22.663,22.663,0,0,1-2.546,1.541c.27.2.5.409.74.618H6.951a16.843,16.843,0,0,1,3.426-2.237C17.867,8.666,19.243,2.864,19.5.779A.694.694,0,0,0,18.8,0l-1.41,0A.7.7,0,0,0,16.7.6c-.03.213-.078.483-.148.788H2.951c-.07-.3-.118-.57-.148-.788A.7.7,0,0,0,2.106,0L.7,0A.7.7,0,0,0,0,.779c.226,1.867,1.362,6.7,6.96,10.364C1.371,14.808.23,19.639,0,21.506ZM9.75,9.558a16.58,16.58,0,0,1-2.8-1.9h5.593A16.112,16.112,0,0,1,9.75,9.558Zm5.706-5.38a12.271,12.271,0,0,1-.914,1.393H4.962a11.192,11.192,0,0,1-.914-1.393ZM4.043,18.107a12.271,12.271,0,0,1,.914-1.393h9.55a11.825,11.825,0,0,1,.923,1.393Z" transform="translate(307.001 994)" fill="#41c752"/>
  </g>
</svg>
