<svg xmlns="http://www.w3.org/2000/svg" width="23.786" height="23.786" viewBox="0 0 23.786 23.786">
  <g id="Сгруппировать_753" data-name="Сгруппировать 753" transform="translate(-708.357 -712.357)">
    <circle id="Эллипс_16" data-name="Эллипс 16" cx="9.5" cy="9.5" r="9.5" transform="translate(711 715)" fill="#fff"/>
    <path id="Icon_awesome-arrow-alt-circle-down" data-name="Icon awesome-arrow-alt-circle-down" d="M24.349,12.456A11.893,11.893,0,1,1,12.456.563,11.891,11.891,0,0,1,24.349,12.456Zm-14-5.563v5.563h-3.4a.576.576,0,0,0-.408.983l5.51,5.481a.57.57,0,0,0,.81,0l5.51-5.481a.575.575,0,0,0-.408-.983h-3.4V6.893a.577.577,0,0,0-.575-.575H10.921A.577.577,0,0,0,10.346,6.893Z" transform="translate(707.794 711.794)" fill="#41c752"/>
  </g>
</svg>
