<svg xmlns="http://www.w3.org/2000/svg" width="18.5" height="20.556" viewBox="0 0 18.5 20.556">
  <path id="Icon_material-date-range" data-name="Icon material-date-range" d="M10.667,12.25H8.611v2.056h2.056Zm4.111,0H12.722v2.056h2.056Zm4.111,0H16.833v2.056h2.056Zm2.056-7.194H19.917V3H17.861V5.056H9.639V3H7.583V5.056H6.556A2.046,2.046,0,0,0,4.51,7.111L4.5,21.5a2.055,2.055,0,0,0,2.056,2.056H20.944A2.062,2.062,0,0,0,23,21.5V7.111A2.062,2.062,0,0,0,20.944,5.056Zm0,16.444H6.556V10.194H20.944Z" transform="translate(-4.5 -3)" fill="#41c752"/>
</svg>
