<svg xmlns="http://www.w3.org/2000/svg" width="49.972" height="49.972" viewBox="0 0 49.972 49.972">
  <path id="Icon_awesome-check-circle" data-name="Icon awesome-check-circle" d="M50.535,25.549A24.986,24.986,0,1,1,25.549.563,24.986,24.986,0,0,1,50.535,25.549ZM22.658,38.778,41.2,20.24a1.612,1.612,0,0,0,0-2.28l-2.28-2.28a1.612,1.612,0,0,0-2.28,0L21.519,30.8,14.46,23.741a1.612,1.612,0,0,0-2.28,0L9.9,26.021a1.612,1.612,0,0,0,0,2.28L20.379,38.778a1.612,1.612,0,0,0,2.28,0Z" transform="translate(-0.563 -0.563)" fill="#41c752"/>
</svg>
