<svg xmlns="http://www.w3.org/2000/svg" width="12.424" height="12.426" viewBox="0 0 12.424 12.426">
  <g id="link" transform="translate(-0.039 0)">
    <g id="Group_52" data-name="Group 52" transform="translate(0.039 3.995)">
      <g id="Group_51" data-name="Group 51" transform="translate(0)">
        <path id="Path_178" data-name="Path 178" d="M7.62,165.463a2.818,2.818,0,0,0-.487-.391,2.9,2.9,0,0,0-3.613.391L.886,168.1a2.9,2.9,0,0,0,4.1,4.1l2.174-2.174a.207.207,0,0,0-.147-.354H6.928a3.485,3.485,0,0,1-1.325-.257.207.207,0,0,0-.226.046l-1.563,1.565a1.243,1.243,0,1,1-1.758-1.758L4.7,166.626a1.242,1.242,0,0,1,1.756,0,.849.849,0,0,0,1.164,0,.82.82,0,0,0,0-1.164Z" transform="translate(-0.039 -164.614)" fill="#41c752"/>
      </g>
    </g>
    <g id="Group_54" data-name="Group 54" transform="translate(4.636 0)">
      <g id="Group_53" data-name="Group 53" transform="translate(0 0)">
        <path id="Path_179" data-name="Path 179" d="M196.479.849a2.9,2.9,0,0,0-4.1,0l-2.172,2.17a.208.208,0,0,0,.151.354h.077a3.478,3.478,0,0,1,1.323.259.207.207,0,0,0,.226-.046l1.559-1.557A1.243,1.243,0,0,1,195.3,3.787l-1.942,1.94-.017.019-.679.675a1.242,1.242,0,0,1-1.756,0,.849.849,0,0,0-1.164,0,.826.826,0,0,0,0,1.168,2.874,2.874,0,0,0,.828.58c.043.021.087.037.13.056s.089.033.133.05.089.031.133.043l.122.033c.083.021.166.037.251.052a2.881,2.881,0,0,0,.309.029h.157l.124-.014c.046,0,.093-.012.147-.012h.07l.143-.021.066-.012.12-.025h.023a2.9,2.9,0,0,0,1.344-.762l2.636-2.636A2.9,2.9,0,0,0,196.479.849Z" transform="translate(-189.502 0)" fill="#41c752"/>
      </g>
    </g>
  </g>
</svg>
