<svg xmlns="http://www.w3.org/2000/svg" width="48" height="50.024" viewBox="0 0 48 50.024">
  <g id="discount" transform="translate(-10.359 0.002)">
    <g id="Сгруппировать_1338" data-name="Сгруппировать 1338" transform="translate(10.359 -0.002)">
      <g id="Сгруппировать_1337" data-name="Сгруппировать 1337" transform="translate(0 0)">
        <path id="Контур_747" data-name="Контур 747" d="M56.045,25.658a1.466,1.466,0,0,1,0-1.3l1.866-3.817a4.343,4.343,0,0,0-1.874-5.767l-3.753-1.991a1.466,1.466,0,0,1-.762-1.048l-.734-4.185a4.343,4.343,0,0,0-4.905-3.564l-4.206.6a1.466,1.466,0,0,1-1.232-.4L37.391,1.232a4.342,4.342,0,0,0-6.064,0L28.274,4.186a1.466,1.466,0,0,1-1.232.4l-4.206-.6A4.342,4.342,0,0,0,17.93,7.555L17.2,11.74a1.466,1.466,0,0,1-.762,1.048l-3.753,1.991a4.343,4.343,0,0,0-1.874,5.767l1.866,3.817a1.466,1.466,0,0,1,0,1.3l-1.866,3.817a4.343,4.343,0,0,0,1.874,5.767l3.753,1.991a1.466,1.466,0,0,1,.762,1.048l.734,4.185a4.34,4.34,0,0,0,4.281,3.608,4.461,4.461,0,0,0,.625-.044l4.206-.6a1.466,1.466,0,0,1,1.232.4l3.053,2.954a4.342,4.342,0,0,0,6.063,0l3.053-2.954a1.468,1.468,0,0,1,1.232-.4l4.206.6a4.342,4.342,0,0,0,4.905-3.564l.734-4.184a1.466,1.466,0,0,1,.762-1.048l3.753-1.991a4.343,4.343,0,0,0,1.874-5.767ZM28.589,12.027a5.29,5.29,0,1,1-5.29,5.29A5.3,5.3,0,0,1,28.589,12.027Zm-2.73,23.524a1.443,1.443,0,1,1-2.04-2.04L42.86,14.47a1.443,1.443,0,1,1,2.04,2.04Zm14.271,2.443a5.29,5.29,0,1,1,5.29-5.29A5.3,5.3,0,0,1,40.129,37.994Z" transform="translate(-10.359 0.002)" fill="#41c752"/>
      </g>
    </g>
    <g id="Сгруппировать_1340" data-name="Сгруппировать 1340" transform="translate(37.725 30.3)">
      <g id="Сгруппировать_1339" data-name="Сгруппировать 1339">
        <path id="Контур_748" data-name="Контур 748" d="M292.856,310.141a2.4,2.4,0,1,0,2.4,2.4A2.407,2.407,0,0,0,292.856,310.141Z" transform="translate(-290.452 -310.141)" fill="#41c752"/>
      </g>
    </g>
    <g id="Сгруппировать_1342" data-name="Сгруппировать 1342" transform="translate(26.184 14.912)">
      <g id="Сгруппировать_1341" data-name="Сгруппировать 1341" transform="translate(0)">
        <path id="Контур_749" data-name="Контур 749" d="M174.737,152.646a2.4,2.4,0,1,0,2.4,2.4A2.407,2.407,0,0,0,174.737,152.646Z" transform="translate(-172.333 -152.646)" fill="#41c752"/>
      </g>
    </g>
  </g>
</svg>
