<svg xmlns="http://www.w3.org/2000/svg" width="6.84" height="1.32" viewBox="0 0 6.84 1.32">
  <path id="_123_Main_St._Galves" data-name="123 Main St., Galves" d="M-3.42-.54a.666.666,0,0,0,.66.66A.666.666,0,0,0-2.1-.54a.666.666,0,0,0-.66-.66A.666.666,0,0,0-3.42-.54Zm2.76,0A.666.666,0,0,0,0,.12.666.666,0,0,0,.66-.54.666.666,0,0,0,0-1.2.666.666,0,0,0-.66-.54Zm2.76,0a.666.666,0,0,0,.66.66.666.666,0,0,0,.66-.66.666.666,0,0,0-.66-.66A.666.666,0,0,0,2.1-.54Z" transform="translate(3.42 1.2)" fill="#7e7e7e"/>
</svg>
