<svg xmlns="http://www.w3.org/2000/svg" width="32" height="21.436" viewBox="0 0 32 21.436">
  <g id="truck" transform="translate(0 -69.249)">
    <path id="Path_677" data-name="Path 677" d="M87.6,141.97a.559.559,0,0,0,.082-.478.624.624,0,0,0-.266-.429.747.747,0,0,0-.562-.066l-.761.151.244,1.229.744-.148A.847.847,0,0,0,87.6,141.97Z" transform="translate(-79.526 -66.254)" fill="#41c752"/>
    <path id="Path_678" data-name="Path 678" d="M29.5,78.492c-.124-.026-.241-.05-.345-.078-1.151-.3-1.722-.478-2.123-1.251l-1.5-3.041a3.414,3.414,0,0,0-2.76-1.679h-2.7V70.371a1.123,1.123,0,0,0-1.122-1.122l-17.9.019A1.061,1.061,0,0,0,0,70.381V85.9a1.123,1.123,0,0,0,1.122,1.122H3.079a4.262,4.262,0,0,0,8.438,0h7.132c.047,0,.1,0,.143-.006a4.261,4.261,0,0,0,8.439.006h2.8A1.968,1.968,0,0,0,32,85.057V81.685C32,79.016,30.5,78.7,29.5,78.492Zm-26.375-.8.39,1.967-1.1.218L1.45,74.995l3.414-.678.175.881-2.315.46.229,1.154,1.983-.394.175.881ZM7.3,88a1.579,1.579,0,1,1,1.58-1.579A1.581,1.581,0,0,1,7.3,88ZM9.11,78.55l-.024-.012a.62.62,0,0,1-.275-.356,3.07,3.07,0,0,1-.134-.466l-.067-.335a.7.7,0,0,0-.271-.464.673.673,0,0,0-.526-.077L6.986,77,7.362,78.9l-1.1.218-.969-4.883,1.86-.369a2.082,2.082,0,0,1,1.39.125,1.352,1.352,0,0,1,.7.991,1.143,1.143,0,0,1-.072.716,1.349,1.349,0,0,1-.358.456,1.034,1.034,0,0,1,.551.29,1.417,1.417,0,0,1,.345.717l.069.348a1.681,1.681,0,0,0,.13.386.511.511,0,0,0,.213.249l.033.017.036.179Zm1.554-.308L9.7,73.358l3.384-.672.175.881-2.285.454.206,1.04,1.96-.389.175.881-1.96.389.238,1.2,2.292-.455.175.881Zm3.823-.759L13.518,72.6l3.384-.672.175.881-2.285.454L15,74.3l1.96-.389.175.881-1.96.389.238,1.2,2.292-.455.175.881ZM23.012,88a1.579,1.579,0,1,1,1.58-1.579A1.581,1.581,0,0,1,23.012,88Zm-2.936-9.752V74.059h2.066a2.682,2.682,0,0,1,2.134,1.3l1.337,2.706q.052.1.108.189Z" fill="#41c752"/>
  </g>
</svg>
