<svg xmlns="http://www.w3.org/2000/svg" width="48" height="48" viewBox="0 0 48 48">
  <g id="Group_358" data-name="Group 358" transform="translate(-144 -2925)">
    <g id="Calculator" transform="translate(144 2925)">
      <circle id="Ellipse_78" data-name="Ellipse 78" cx="24" cy="24" r="24" fill="#ddefe2"/>
    </g>
    <g id="ingredients" transform="translate(150.932 2937)">
      <path id="Path_173" data-name="Path 173" d="M66.624,44.329l-6.207-2.722a.639.639,0,0,0-.842.329l-1.058,2.412a.155.155,0,0,0-.01.094l.182.869a.155.155,0,0,0,.079.105l.491.259a.154.154,0,0,1,.082.126l.054.809-.014.014A16.307,16.307,0,0,0,55.815,53.6c-.006.02-.01.042-.015.063H47.328a1.042,1.042,0,0,0-1.042,1.042,7.925,7.925,0,0,0,3.133,6.3h-.211a1.042,1.042,0,0,0,0,2.083H59.455a1.042,1.042,0,0,0,0-2.083h-.211a7.925,7.925,0,0,0,3.133-6.3,1.042,1.042,0,0,0-1.042-1.042h-2.75a14.538,14.538,0,0,1,1.351-5.595l4.234,1.856a.639.639,0,0,0,.842-.329l1.941-4.427A.639.639,0,0,0,66.624,44.329Z" transform="translate(-37.782 -38.09)" fill="#25772f"/>
      <path id="Path_174" data-name="Path 174" d="M13.413,12.517a1.4,1.4,0,0,0,2.682-.8c-.661-2.21-1.758-5.093-3.409-6.722l.05-.745a.154.154,0,0,1,.082-.126l.491-.259a.155.155,0,0,0,.079-.105l.182-.869a.154.154,0,0,0-.01-.094L12.5.383a.639.639,0,0,0-.842-.329L5.452,2.776a.639.639,0,0,0-.329.842L7.064,8.045a.639.639,0,0,0,.842.329l4.238-1.858c1.224,2.611,1.105,5.456,1.269,6Z" transform="translate(0 0)" fill="#25772f"/>
    </g>
  </g>
</svg>
