<svg xmlns="http://www.w3.org/2000/svg" width="94.999" height="36.668" viewBox="0 0 94.999 36.668">
  <g id="norton-by-symantec-vector-logo" transform="translate(-14.7 -206)">
    <path id="Path_657" data-name="Path 657" d="M495.6,291.013a2.712,2.712,0,1,1,2.712-2.712,2.718,2.718,0,0,1-2.712,2.712m0-8.013a5.3,5.3,0,1,0,5.3,5.3,5.305,5.305,0,0,0-5.3-5.3" transform="translate(-403.147 -65.27)"/>
    <path id="Path_658" data-name="Path 658" d="M335.8,291.013a2.712,2.712,0,1,1,2.712-2.712,2.718,2.718,0,0,1-2.712,2.712m0-8.013a5.3,5.3,0,1,0,5.3,5.3,5.305,5.305,0,0,0-5.3-5.3" transform="translate(-267.691 -65.27)"/>
    <path id="Path_659" data-name="Path 659" d="M417.914,276.416a5.986,5.986,0,0,1-1.036.2c-.914,0-1.1-.32-1.1-1.173v-4.905h2.163v-2.041h-2.163V265.6h-2.437l-.518,2.894H411a3.486,3.486,0,0,0-3.108,2.178l-.838-2.178H405.3v10.161h2.986v-4.418c0-2.224,1.325-3.656,2.879-3.7h1.63v5.058c0,2.377,1.219,3.26,3.2,3.26a7.365,7.365,0,0,0,2.285-.366Z" transform="translate(-331.096 -50.521)"/>
    <path id="Path_660" data-name="Path 660" d="M567.51,287.714v6.962H564.6V284.5h1.767l.594,1.554" transform="translate(-466.128 -66.541)"/>
    <path id="Path_661" data-name="Path 661" d="M580,284.8a4.7,4.7,0,0,1,3.5-1.8c2.422,0,3.412,1.935,3.412,3.717V293.4H583.93v-6.6a1.383,1.383,0,0,0-1.508-1.341,2.483,2.483,0,0,0-1.843.99" transform="translate(-479.182 -65.27)"/>
    <path id="Path_662" data-name="Path 662" d="M254.4,260.4h3.336l4.57,8.7v-8.7h2.757v13.848h-3.016l-4.89-9.582v9.582H254.4Z" transform="translate(-203.184 -46.113)"/>
    <path id="Path_663" data-name="Path 663" d="M625.4,284.6v.2h.274v.96h.229v-.96h.289v-.2Z" transform="translate(-517.666 -66.626)"/>
    <path id="Path_664" data-name="Path 664" d="M632.316,284.6l-.2.762-.213-.762h-.3v1.158h.2v-.914h0l.244.914h.152l.244-.914h0v.914h.183V284.6Z" transform="translate(-522.921 -66.626)"/>
    <path id="Path_665" data-name="Path 665" d="M258.519,378.283c0-.884-.274-1.919-1.28-1.919a1.758,1.758,0,0,0-1.28.609v2.91a1.464,1.464,0,0,0,1.158.579c.9-.015,1.4-.792,1.4-2.178m-2.757,2.163-.213.655H255v-7.6h.96v2.773a2.061,2.061,0,0,1,1.493-.716c1.447,0,2.087,1.432,2.087,2.727,0,1.737-.9,2.91-2.239,2.91a1.85,1.85,0,0,1-1.539-.746" transform="translate(-203.693 -141.983)" fill="#a0a0a0"/>
    <path id="Path_666" data-name="Path 666" d="M288.8,387.7h.975s1.371,4.585,1.371,4.6l1.28-4.6h.945l-1.828,5.85a1.867,1.867,0,0,1-1.9,1.569,2.428,2.428,0,0,1-.655-.091l.122-.686a3.34,3.34,0,0,0,.457.061,1.171,1.171,0,0,0,1.2-.929Z" transform="translate(-232.344 -154.02)" fill="#a0a0a0"/>
    <path id="Path_667" data-name="Path 667" d="M337.5,379.547l.472-.67a3.449,3.449,0,0,0,2.148.731c.99,0,1.569-.472,1.569-1.295,0-.914-.7-1.2-1.706-1.554-1.082-.381-2.072-.868-2.072-2.255,0-1.234.975-1.9,2.255-1.9a3.718,3.718,0,0,1,2.041.487l-.4.731a3.267,3.267,0,0,0-1.661-.411c-.807,0-1.356.32-1.356,1.082,0,.807.533,1.066,1.645,1.462,1.066.366,2.194.838,2.194,2.331,0,1.325-.945,2.117-2.5,2.117a3.857,3.857,0,0,1-2.635-.853" transform="translate(-273.625 -141.22)" fill="#a0a0a0"/>
    <path id="Path_668" data-name="Path 668" d="M374.8,387.7h.975s1.371,4.585,1.371,4.6l1.28-4.6h.945l-1.828,5.85a1.867,1.867,0,0,1-1.9,1.569,2.428,2.428,0,0,1-.655-.091l.122-.686a3.34,3.34,0,0,0,.457.061,1.171,1.171,0,0,0,1.2-.929Z" transform="translate(-305.242 -154.02)" fill="#a0a0a0"/>
    <path id="Path_669" data-name="Path 669" d="M417.058,387c1.1,0,1.386.929,1.386,1.828v3.717h-.96v-3.717c0-.533-.091-1.021-.746-1.021a2.107,2.107,0,0,0-1.386.746v3.991h-.96v-3.717c0-.533-.091-1.021-.746-1.021a2.17,2.17,0,0,0-1.386.762v3.976h-.96v-5.439h.564l.244.884a2.578,2.578,0,0,1,1.843-.99,1.23,1.23,0,0,1,1.249.945,2.556,2.556,0,0,1,1.859-.945" transform="translate(-336.182 -153.426)" fill="#a0a0a0"/>
    <path id="Path_670" data-name="Path 670" d="M469.5,389.742a3.775,3.775,0,0,0-2.057.762.764.764,0,0,0-.168.548.742.742,0,0,0,.838.838,2.4,2.4,0,0,0,1.386-.533Zm0-.868c0-.731-.228-1.1-1.021-1.1a3.472,3.472,0,0,0-1.554.472l-.35-.64a3.577,3.577,0,0,1,1.965-.609c1.356,0,1.889.731,1.889,1.95v3.61h-.548l-.244-.655a2.418,2.418,0,0,1-1.676.731,1.516,1.516,0,0,1-1.66-1.508,1.426,1.426,0,0,1,.731-1.325,7.166,7.166,0,0,1,2.468-.685Z" transform="translate(-382.803 -153.426)" fill="#a0a0a0"/>
    <path id="Path_671" data-name="Path 671" d="M503.9,387.107h.564l.244.9a2.624,2.624,0,0,1,1.95-1.005c1.173,0,1.478.929,1.478,1.828v3.717h-.96v-3.717c0-.533-.137-1.021-.838-1.021a2.217,2.217,0,0,0-1.478.777v3.961h-.96v-5.439Z" transform="translate(-414.675 -153.426)" fill="#a0a0a0"/>
    <path id="Path_672" data-name="Path 672" d="M538.4,379.724v-.67h.838l.244-1.554h.686v1.554h1.219v.67h-1.219v3.351c0,.5.091.777.609.777a2.44,2.44,0,0,0,.625-.107l.137.655a2.4,2.4,0,0,1-.884.168c-.99,0-1.432-.472-1.432-1.447v-3.412H538.4Z" transform="translate(-443.92 -145.374)" fill="#a0a0a0"/>
    <path id="Path_673" data-name="Path 673" d="M566.928,389.453c-.03-1.143-.411-1.737-1.173-1.737-.686,0-1.143.533-1.219,1.737Zm-1.036,2.422a2.559,2.559,0,0,0,1.478-.533l.4.579a2.775,2.775,0,0,1-1.965.716c-1.4,0-2.3-1.082-2.3-2.8,0-1.676.868-2.834,2.224-2.834,1.4,0,2.148,1.051,2.148,2.864v.229H564.49c.076,1.158.487,1.782,1.4,1.782" transform="translate(-465.196 -153.426)" fill="#a0a0a0"/>
    <path id="Path_674" data-name="Path 674" d="M598,389.864c0-1.4.625-2.864,2.3-2.864a2.447,2.447,0,0,1,1.706.579l-.411.64a2.093,2.093,0,0,0-1.28-.442c-1.143,0-1.31,1.173-1.31,2.1,0,.9.2,2,1.341,2a1.913,1.913,0,0,0,1.295-.518l.457.564a2.406,2.406,0,0,1-1.8.731c-1.66-.015-2.3-1.432-2.3-2.788" transform="translate(-494.44 -153.426)" fill="#a0a0a0"/>
    <path id="Path_675" data-name="Path 675" d="M30.574,243.312a10.862,10.862,0,1,0,7.678,18.54,10.915,10.915,0,0,0,3.184-7.678,10.871,10.871,0,0,0-10.862-10.862m0,26.736a15.874,15.874,0,1,1,15.874-15.874,15.9,15.9,0,0,1-15.874,15.874" transform="translate(0 -27.379)" fill="#ffc20e"/>
    <rect id="Rectangle_440" data-name="Rectangle 440" width="1.234" height="1.234" transform="translate(47.864 208.468)" fill="#ffc20e"/>
    <rect id="Rectangle_441" data-name="Rectangle 441" width="1.234" height="1.234" transform="translate(47.864 206)" fill="#ffc20e"/>
    <rect id="Rectangle_442" data-name="Rectangle 442" width="1.158" height="1.203" transform="translate(44.391 209.702)" fill="#fff"/>
    <rect id="Rectangle_443" data-name="Rectangle 443" width="1.173" height="1.158" transform="translate(42.091 212.078)"/>
    <rect id="Rectangle_444" data-name="Rectangle 444" width="1.295" height="1.158" transform="translate(45.534 210.905)"/>
    <rect id="Rectangle_445" data-name="Rectangle 445" width="1.158" height="1.112" transform="translate(40.933 210.966)"/>
    <rect id="Rectangle_446" data-name="Rectangle 446" width="1.158" height="1.158" transform="translate(44.391 212.078)"/>
    <rect id="Rectangle_447" data-name="Rectangle 447" width="1.219" height="1.234" transform="translate(46.646 207.249)"/>
    <rect id="Rectangle_448" data-name="Rectangle 448" width="2.255" height="1.234" transform="translate(44.391 208.468)"/>
    <rect id="Rectangle_449" data-name="Rectangle 449" width="1.127" height="2.377" transform="translate(43.264 209.702)"/>
    <path id="Path_676" data-name="Path 676" d="M93.028,253.5v1.158H91.855V253.5H89.921v.838H88.885v1.036h1.158v1.158H88.885v-1.158H87.651v1.813H86.493v1.158h-.777V259.5h-.853a65.521,65.521,0,0,0-4.067,7.632c-2.605-3.626-4.631-5.058-6.215-5.576-.853-.259-1.889.67-.472,2.148a26.455,26.455,0,0,1,5.3,8.973c.533,1.249,2.894,1.447,3.367.168a38.161,38.161,0,0,1,4.2-8.226v-1.295h.929v-1.158h.975v-1.356h1.158v-1.295H88.87v-1.188h1.173v1.188h1.143v-1.173H92.1v-1.417h1.036v-.975h.99V253.5Z" transform="translate(-49.765 -40.264)"/>
  </g>
</svg>
