<svg xmlns="http://www.w3.org/2000/svg" width="113.109" height="22.119" viewBox="0 0 113.109 22.119">
  <g id="layer1" transform="translate(298.195 -232.599)">
    <g id="g7392" transform="translate(0.265 -0.265)">
      <path id="path6847" d="M-241.971,247.23l-2.963-1.746-.212.344a3.087,3.087,0,0,1-2.725,1.587A3.34,3.34,0,0,1-251.284,244a3.34,3.34,0,0,1,3.413-3.413,3.064,3.064,0,0,1,2.725,1.587l.212.344,2.963-1.746-.265-.37a6.464,6.464,0,0,0-5.662-3.043,6.668,6.668,0,0,0-6.959,6.667A6.668,6.668,0,0,0-247.9,250.7a6.685,6.685,0,0,0,5.662-3.069Z" fill="#c01818"/>
      <path id="path6849" d="M-242.13,250.643h4.075l1.217-3.016h6.112l1.217,3.016h4.1l-7.3-17.648h-3.651l.979,2.355-6.747,15.293m8.387-10.689,1.64,4.154h-3.334Z" fill="#c01818"/>
      <path id="path6851" d="M-223.715,250.67h3.572v-7.937h2.328V239.4h-2.328v-1.561a1.32,1.32,0,0,1,1.3-1.4,2.522,2.522,0,0,1,1.005.185l.4.159,1.482-3.254-.4-.132a6.681,6.681,0,0,0-2.249-.37,5.019,5.019,0,0,0-3.863,1.535,5.073,5.073,0,0,0-1.244,3.44v1.429H-225.3v3.334h1.587Z" fill="#c01818"/>
      <path id="polygon6853" d="M38.179,7.62V17.78h3.889V.026L34.422,5.794,26.749.026V17.753l3.889.026V7.62l3.783,2.8Z" transform="translate(-298.459 232.863)" fill="#c01818"/>
      <path id="path6855" d="M-209.745,237.361A6.64,6.64,0,0,0-216.677,244a6.64,6.64,0,0,0,6.932,6.641,7.39,7.39,0,0,0,5.5-2.672l-2.91-1.587a3.651,3.651,0,0,1-2.672,1.164,3.216,3.216,0,0,1-3.122-2.275h9.737V244.4a6.733,6.733,0,0,0-6.535-7.038Zm-3.122,5.027a2.852,2.852,0,0,1,2.778-1.9,3,3,0,0,1,2.884,1.931Z" fill="#c01818"/>
      <path id="path6857" d="M-195.113,237.387a6.64,6.64,0,0,0-6.932,6.641,6.64,6.64,0,0,0,6.932,6.641,7.39,7.39,0,0,0,5.5-2.672l-2.91-1.587a3.651,3.651,0,0,1-2.672,1.164,3.216,3.216,0,0,1-3.122-2.275h9.737v-.873a6.715,6.715,0,0,0-6.535-7.038Zm-3.122,5a2.819,2.819,0,0,1,2.778-1.9,3,3,0,0,1,2.884,1.931Z" fill="#c01818"/>
      <path id="path6859" d="M-189.028,236.779h1.508v.291h-.609v1.587h-.318V237.07h-.582Z" fill="#c01818"/>
      <path id="path6861" d="M-187.282,236.779h.45l.529,1.455.5-1.455h.45v1.879h-.318V237.2l-.529,1.455h-.265l-.529-1.455v1.455h-.318v-1.879Z" fill="#c01818"/>
      <path id="polygon6863" d="M9.6,4.445,0,0V17.674l9.6,4.445V17.78L3.942,15.16v-9L9.6,8.784Z" transform="translate(-298.459 232.863)" fill="#c01818"/>
      <path id="polygon6865" d="M9.6,4.445,19.235,0V17.674L9.6,22.119V17.78l5.688-2.619v-9L9.6,8.784Z" transform="translate(-298.459 232.863)" fill="#75160d"/>
    </g>
  </g>
</svg>
