<svg xmlns="http://www.w3.org/2000/svg" width="12" height="12" viewBox="0 0 12 12">
  <path id="Icon_awesome-external-link-square-alt" data-name="Icon awesome-external-link-square-alt" d="M12,3.536v9.429a1.286,1.286,0,0,1-1.286,1.286H1.286A1.286,1.286,0,0,1,0,12.964V3.536A1.286,1.286,0,0,1,1.286,2.25h9.429A1.286,1.286,0,0,1,12,3.536Zm-2.357.429h-3a.643.643,0,0,0-.455,1.1l.857.857L1.808,11.156a.321.321,0,0,0,0,.455l.831.831a.321.321,0,0,0,.455,0L8.331,7.2l.857.857a.643.643,0,0,0,1.1-.455v-3A.643.643,0,0,0,9.643,3.964Z" transform="translate(0 -2.25)" fill="#41c752"/>
</svg>
