<svg xmlns="http://www.w3.org/2000/svg" width="22.222" height="88" viewBox="0 0 22.222 88">
  <g id="Group_378" data-name="Group 378" transform="translate(-478.999 -3471)">
    <g id="Jan.Ellipse" transform="translate(484.999 3510)" fill="#fff" stroke="#41c752" stroke-width="2">
      <circle cx="4.995" cy="4.995" r="4.995" stroke="none"/>
      <circle cx="4.995" cy="4.995" r="3.995" fill="none"/>
    </g>
    <g id="man" transform="translate(478.982 3471.25)">
      <path id="Path_178" data-name="Path 178" d="M135.081,2.826A2.826,2.826,0,1,1,132.255,0,2.826,2.826,0,0,1,135.081,2.826Zm0,0" transform="translate(-121.128)" fill="#41c752"/>
      <path id="Path_179" data-name="Path 179" d="M118.125,305.431a1.413,1.413,0,0,0,1.56-1.407V291.874a.565.565,0,0,0-.565-.565h-6.782a.565.565,0,0,0-.565.565v12.151a1.413,1.413,0,0,0,1.56,1.407,1.469,1.469,0,0,0,1.266-1.486v-8.681a1.13,1.13,0,0,1,2.26,0v8.681a1.469,1.469,0,0,0,1.266,1.486Zm0,0" transform="translate(-104.601 -272.659)" fill="#41c752"/>
      <path id="Path_180" data-name="Path 180" d="M.542,125.275l.22.158a1.278,1.278,0,0,0,1.786-.288l4.623-6.369v5.2a.565.565,0,0,0,.565.565h6.782a.565.565,0,0,0,.565-.565v-5.2l4.623,6.369a1.278,1.278,0,0,0,1.786.288l.22-.158A1.281,1.281,0,0,0,22,123.49l-5.244-7.234a1.7,1.7,0,0,0-1.373-.7H13.463a1.131,1.131,0,0,0-.969.549l-1.366,2.277L9.762,116.1a1.131,1.131,0,0,0-.969-.549H6.878a1.7,1.7,0,0,0-1.373.7L.26,123.49a1.282,1.282,0,0,0,.283,1.786Zm0,0" transform="translate(0 -108.157)" fill="#41c752"/>
    </g>
  </g>
</svg>
