<svg xmlns="http://www.w3.org/2000/svg" width="15.333" height="11.5" viewBox="0 0 15.333 11.5">
  <g id="visibility" transform="translate(0 -64.444)">
    <path id="Path_12" data-name="Path 12" d="M7.667,64.444A8.183,8.183,0,0,0,0,70.194a8.183,8.183,0,0,0,7.667,5.75,8.183,8.183,0,0,0,7.667-5.75A8.183,8.183,0,0,0,7.667,64.444Zm0,9.583A3.833,3.833,0,1,1,11.5,70.194,3.833,3.833,0,0,1,7.667,74.027Z" fill="#41c752"/>
    <path id="Path_13" data-name="Path 13" d="M196.606,193.9a1.917,1.917,0,1,1-2.711,0,1.917,1.917,0,0,1,2.711,0" transform="translate(-187.584 -125.056)" fill="#41c752"/>
  </g>
</svg>
