<svg xmlns="http://www.w3.org/2000/svg" width="52" height="52" viewBox="0 0 52 52">
    <defs>
        <style>
            .prefix__cls-2{fill:#1c468a}
        </style>
    </defs>
    <g id="prefix__Сгруппировать_917" data-name="Сгруппировать 917" transform="translate(-168 -1652)">
        <g id="prefix__Сгруппировать_830" data-name="Сгруппировать 830" transform="translate(168 1652)">
            <g id="prefix__Group_46" data-name="Group 46">
                <g id="prefix__Group_235" data-name="Group 235">
                    <g id="prefix__Group_211" data-name="Group 211">
                        <g id="prefix__Group_206" data-name="Group 206">
                            <circle id="prefix__Ellipse_1" cx="26" cy="26" r="26" fill="#fff" data-name="Ellipse 1"/>
                        </g>
                    </g>
                </g>
            </g>
        </g>
        <g id="prefix__shield" transform="translate(181 1665)">
            <path id="prefix__Контур_868" d="M185.316 166a4.316 4.316 0 1 0 4.316 4.316 4.321 4.321 0 0 0-4.316-4.316zm-1.727 6.832l-1.221-1.221 1.221-1.221 1.221 1.221zm.506-4.674l1.221-1.221 1.221 1.221-1.221 1.221zm2.947 4.674l-1.221-1.221 1.221-1.221 1.221 1.221z" class="prefix__cls-2" data-name="Контур 868" transform="translate(-172.367 -156.446)"/>
            <path id="prefix__Контур_869" d="M36.18 0v.863a4.371 4.371 0 0 1-4.316 4.374H31v7.286A17.629 17.629 0 0 0 43.712 29.4l.237.067.237-.067A17.629 17.629 0 0 0 56.9 12.523V5.237h-.863A4.371 4.371 0 0 1 51.719.863V0zm15.705 8.376L50.664 9.6l-.61-.61-1.282 1.282a5.98 5.98 0 0 1 1.128 2.735h1.814v-.863h1.727V15.6h-1.722v-.863H49.9a5.98 5.98 0 0 1-1.133 2.739l1.282 1.282.61-.61 1.221 1.221-2.441 2.441-1.221-1.221.61-.61-1.282-1.282a5.98 5.98 0 0 1-2.739 1.133v1.81h.863v1.727h-3.447V21.64h.863v-1.814a5.98 5.98 0 0 1-2.739-1.133l-1.282 1.282.61.61-1.221 1.221-2.441-2.441 1.221-1.221.61.61 1.282-1.282a5.98 5.98 0 0 1-1.133-2.739H36.18v.867h-1.727v-3.457h1.727v.863h1.814a5.98 5.98 0 0 1 1.133-2.739l-1.282-1.281-.61.61-1.221-1.22 2.441-2.441 1.221 1.221-.61.61 1.282 1.282a5.98 5.98 0 0 1 2.739-1.133V6.1h-.863V4.374h3.453V6.1h-.863v1.814a5.98 5.98 0 0 1 2.739 1.133l1.282-1.282-.61-.61 1.221-1.221z" class="prefix__cls-2" data-name="Контур 869" transform="translate(-31)"/>
        </g>
    </g>
</svg>
