<svg xmlns="http://www.w3.org/2000/svg" xmlns:xlink="http://www.w3.org/1999/xlink" width="202.167" height="202.167" viewBox="0 0 202.167 202.167">
  <defs>
    <linearGradient id="linear-gradient" x1="0.866" y1="0.011" x2="-0.017" y2="1.189" gradientUnits="objectBoundingBox">
      <stop offset="0" stop-color="#f9d700"/>
      <stop offset="0.554" stop-color="#f7cb00"/>
      <stop offset="1" stop-color="#f6be00"/>
    </linearGradient>
    <filter id="Контур_40" x="-0.001" y="0" width="202.167" height="202.167" filterUnits="userSpaceOnUse">
      <feOffset dy="3" input="SourceAlpha"/>
      <feGaussianBlur stdDeviation="3" result="blur"/>
      <feFlood flood-opacity="0.161"/>
      <feComposite operator="in" in2="blur"/>
      <feComposite in="SourceGraphic"/>
    </filter>
  </defs>
  <g id="Сгруппировать_124" data-name="Сгруппировать 124" transform="translate(20088.5 16132.5)">
    <g id="Сгруппировать_122" data-name="Сгруппировать 122" transform="translate(-20079.5 -16126.5)">
      <g transform="matrix(1, 0, 0, 1, -9, -6)" filter="url(#Контур_40)">
        <path id="Контур_40-2" data-name="Контур 40" d="M-67.82,421.38c0,7.808-10.616,14.116-12.541,21.318-1.992,7.451,3.99,18.211.216,24.734-3.828,6.617-16.173,6.792-21.544,12.164s-5.545,17.714-12.162,21.542c-6.523,3.775-17.284-2.207-24.734-.216-7.2,1.925-13.51,12.541-21.318,12.541s-14.116-10.616-21.318-12.541c-7.451-1.992-18.211,3.99-24.734.216-6.617-3.828-6.792-16.173-12.164-21.544s-17.714-5.545-21.542-12.162c-3.775-6.525,2.207-17.284.216-24.735-1.925-7.2-12.541-13.508-12.541-21.317s10.616-14.117,12.541-21.318c1.992-7.451-3.99-18.211-.216-24.734,3.828-6.617,16.173-6.792,21.544-12.164s5.545-17.714,12.162-21.542c6.525-3.775,17.284,2.206,24.735.216,7.2-1.925,13.508-12.541,21.317-12.541s14.118,10.616,21.318,12.541c7.451,1.992,18.211-3.99,24.734-.216,6.617,3.828,6.792,16.173,12.164,21.544s17.714,5.545,21.542,12.162c3.775,6.523-2.206,17.284-.216,24.734C-78.437,407.264-67.82,413.572-67.82,421.38Z" transform="translate(260.99 -323.3)" fill="url(#linear-gradient)"/>
      </g>
      <path id="Контур_41" data-name="Контур 41" d="M-82.08,418.014c0,6.884-9.36,12.446-11.058,18.8-1.756,6.57,3.519,16.057.19,21.809-3.375,5.834-14.259,5.989-19,10.725s-4.889,15.618-10.723,18.994c-5.752,3.329-15.239-1.945-21.809-.19-6.348,1.7-11.912,11.058-18.8,11.058s-12.446-9.36-18.8-11.058c-6.57-1.756-16.057,3.518-21.809.19-5.834-3.375-5.989-14.259-10.725-19s-15.618-4.889-18.994-10.723c-3.329-5.752,1.945-15.239.19-21.809-1.7-6.35-11.058-11.912-11.058-18.8s9.36-12.446,11.058-18.8c1.756-6.57-3.519-16.057-.19-21.809,3.375-5.834,14.259-5.989,19-10.725s4.889-15.618,10.723-18.994c5.752-3.329,15.239,1.945,21.809.19,6.35-1.7,11.912-11.058,18.8-11.058s12.446,9.36,18.8,11.058c6.57,1.756,16.057-3.519,21.809-.19,5.834,3.375,5.989,14.259,10.725,18.995s15.618,4.889,18.994,10.723c3.329,5.752-1.945,15.239-.19,21.809C-91.44,405.566-82.08,411.13-82.08,418.014Z" transform="translate(255.354 -325.93)" fill="none" stroke="#fff" stroke-miterlimit="10" stroke-width="1.123"/>
    </g>
    <g id="Сгруппировать_123" data-name="Сгруппировать 123" transform="translate(-20053.957 -16072.484)">
      <path id="Контур_44" data-name="Контур 44" d="M2.982,0H1.694L5.46-8.3H.434V-9.338H6.8v.8ZM18.466,0H15.274V-9.338h3.192a4.672,4.672,0,0,1,3.465,1.33,4.55,4.55,0,0,1,1.323,3.346,4.52,4.52,0,0,1-1.323,3.346A4.7,4.7,0,0,1,18.466,0Zm0-1.036a3.406,3.406,0,0,0,2.618-1.036,3.651,3.651,0,0,0,.966-2.59,3.7,3.7,0,0,0-.952-2.6A3.4,3.4,0,0,0,18.466-8.3h-2.03v7.266ZM34.23,0H32.9l-.826-2.072H27.426L26.6,0H25.27l3.752-9.338h1.442ZM31.724-3.108,29.75-8.134,27.762-3.108ZM40.124,0H38.962V-3.948L35.28-9.338h1.358L39.536-5l2.9-4.34h1.358l-3.668,5.39Zm9.31.168A4.546,4.546,0,0,1,45.85-1.316l.686-.882a3.789,3.789,0,0,0,2.94,1.33,2.425,2.425,0,0,0,1.666-.483,1.48,1.48,0,0,0,.532-1.127,1.177,1.177,0,0,0-.308-.826,2.081,2.081,0,0,0-.791-.525A9.5,9.5,0,0,0,49.5-4.172q-.6-.154-1.183-.343a6.058,6.058,0,0,1-1.071-.455,2.151,2.151,0,0,1-.791-.756,2.138,2.138,0,0,1-.308-1.162,2.275,2.275,0,0,1,.91-1.869,3.583,3.583,0,0,1,2.3-.721,4.351,4.351,0,0,1,3.318,1.3l-.7.854a3.483,3.483,0,0,0-2.7-1.12,2.2,2.2,0,0,0-1.379.413,1.289,1.289,0,0,0-.539,1.071.989.989,0,0,0,.413.812,2.727,2.727,0,0,0,1.022.476q.609.154,1.33.385t1.33.49a2.407,2.407,0,0,1,1.022.833,2.31,2.31,0,0,1,.413,1.386A2.572,2.572,0,0,1,52.031-.63,3.674,3.674,0,0,1,49.434.168Zm16.408,0A4.38,4.38,0,0,1,62.5-1.2a4.854,4.854,0,0,1-1.288-3.458A4.854,4.854,0,0,1,62.5-8.12a4.38,4.38,0,0,1,3.346-1.372A4.386,4.386,0,0,1,69.181-8.12a4.839,4.839,0,0,1,1.295,3.458A4.839,4.839,0,0,1,69.181-1.2,4.386,4.386,0,0,1,65.842.168Zm0-1.036a3.154,3.154,0,0,0,2.485-1.071,3.964,3.964,0,0,0,.945-2.723,3.958,3.958,0,0,0-.945-2.73,3.164,3.164,0,0,0-2.485-1.064A3.159,3.159,0,0,0,63.35-7.392a3.976,3.976,0,0,0-.938,2.73,3.982,3.982,0,0,0,.938,2.723A3.149,3.149,0,0,0,65.842-.868ZM81.7,0h-1.12L75.138-7.448V0H73.976V-9.338h1.19l5.376,7.294V-9.338H81.7ZM91.07,0h-5.5V-9.338H86.73v8.3h4.34Zm5.474,0H95.382V-3.948L91.7-9.338h1.358L95.956-5l2.9-4.34h1.358l-3.668,5.39Z" transform="translate(14.957 13.484)" fill="#8b4612"/>
      <path id="Контур_42" data-name="Контур 42" d="M-23.617-.935A3.63,3.63,0,0,1-26.312.132,3.62,3.62,0,0,1-29.007-.941a3.72,3.72,0,0,1-1.056-2.723,3.72,3.72,0,0,1,1.056-2.722,3.62,3.62,0,0,1,2.695-1.072,3.62,3.62,0,0,1,2.695,1.072,3.72,3.72,0,0,1,1.056,2.722A3.738,3.738,0,0,1-23.617-.935Zm-2.695-.077a2.244,2.244,0,0,0,1.76-.754,2.747,2.747,0,0,0,.671-1.9,2.742,2.742,0,0,0-.671-1.9,2.252,2.252,0,0,0-1.76-.748,2.248,2.248,0,0,0-1.765.748,2.756,2.756,0,0,0-.666,1.9,2.756,2.756,0,0,0,.666,1.9A2.248,2.248,0,0,0-26.312-1.012ZM-13.64,0h-1.243l-3.828-5.236V0H-20V-7.337h1.32l3.751,5.093V-7.337h1.287ZM-3.245,0H-4.532V-3.047l-2.849-4.29h1.474l2.024,3.146,2-3.146H-.407l-2.838,4.29ZM7.392-.935A3.63,3.63,0,0,1,4.7.132,3.62,3.62,0,0,1,2-.941,3.72,3.72,0,0,1,.946-3.663,3.72,3.72,0,0,1,2-6.385,3.62,3.62,0,0,1,4.7-7.458,3.62,3.62,0,0,1,7.392-6.385,3.72,3.72,0,0,1,8.448-3.663,3.738,3.738,0,0,1,7.392-.935ZM4.7-1.012a2.244,2.244,0,0,0,1.76-.754,2.747,2.747,0,0,0,.671-1.9,2.742,2.742,0,0,0-.671-1.9A2.252,2.252,0,0,0,4.7-6.314a2.248,2.248,0,0,0-1.766.748,2.756,2.756,0,0,0-.665,1.9,2.756,2.756,0,0,0,.665,1.9A2.248,2.248,0,0,0,4.7-1.012ZM14.19.132a3.2,3.2,0,0,1-2.37-.814,3,3,0,0,1-.809-2.211V-7.337h1.3v4.4a1.964,1.964,0,0,0,.49,1.408,1.824,1.824,0,0,0,1.391.517,1.806,1.806,0,0,0,1.386-.517,1.978,1.978,0,0,0,.484-1.408v-4.4h1.3V-2.9a3.014,3.014,0,0,1-.809,2.222A3.184,3.184,0,0,1,14.19.132ZM25.916,0H24.431L22.8-2.739H21.527V0H20.24V-7.337h3.223A2.4,2.4,0,0,1,25.2-6.7a2.207,2.207,0,0,1,.66,1.661,2.112,2.112,0,0,1-.506,1.48,2.09,2.09,0,0,1-1.232.677ZM23.287-3.872a1.292,1.292,0,0,0,.9-.319,1.088,1.088,0,0,0,.352-.847,1.088,1.088,0,0,0-.352-.847,1.292,1.292,0,0,0-.9-.319h-1.76v2.332ZM-39.215,16H-40.5V12.953l-2.849-4.29h1.474l2.024,3.146,2-3.146h1.474l-2.838,4.29Zm9.988,0h-5.027V8.663h5.027V9.8h-3.74v1.9H-29.3v1.133h-3.663v2.035h3.74Zm9.24,0H-21.45l-.539-1.408h-3.366L-25.894,16h-1.463l2.882-7.337h1.606Zm-2.365-2.541-1.32-3.5-1.32,3.5ZM-12.188,16h-1.485L-15.3,13.261h-1.276V16h-1.287V8.663h3.223A2.4,2.4,0,0,1-12.9,9.3a2.207,2.207,0,0,1,.66,1.661,2.112,2.112,0,0,1-.506,1.479,2.09,2.09,0,0,1-1.232.677Zm-2.629-3.872a1.292,1.292,0,0,0,.9-.319,1.088,1.088,0,0,0,.352-.847,1.088,1.088,0,0,0-.352-.847,1.292,1.292,0,0,0-.9-.319h-1.76v2.332ZM-5.115,16H-9.636V8.663h1.287v6.2h3.234Zm4.477,0H-1.925V12.953l-2.849-4.29H-3.3l2.024,3.146,2-3.146H2.2l-2.838,4.29ZM9.757,16H8.47V8.663h3.223a2.337,2.337,0,0,1,1.755.66,2.255,2.255,0,0,1,.644,1.639,2.26,2.26,0,0,1-.644,1.634,2.327,2.327,0,0,1-1.755.665H9.757Zm1.76-3.872a1.292,1.292,0,0,0,.9-.319,1.2,1.2,0,0,0,0-1.694,1.292,1.292,0,0,0-.9-.319H9.757v2.332ZM21,16H16.478V8.663h1.287v6.2H21Zm9.086,0H28.622l-.539-1.408H24.717L24.178,16H22.715L25.6,8.663H27.2ZM27.72,13.459l-1.32-3.5-1.32,3.5ZM38.566,16H37.323L33.5,10.764V16H32.208V8.663h1.32l3.751,5.093V8.663h1.287Zm3.949-2.244h-1l-.209-5.093h1.408Zm.033,2.134a.757.757,0,0,1-.539.22.77.77,0,0,1-.759-.759.742.742,0,0,1,.225-.544.729.729,0,0,1,.534-.226.748.748,0,0,1,.539.226.751.751,0,0,1,0,1.083Z" transform="translate(67.957 64.484)" fill="#8b4612"/>
      <path id="Контур_43" data-name="Контур 43" d="M7.35.3A8.118,8.118,0,0,1,.95-2.35L2.175-3.925A6.766,6.766,0,0,0,7.425-1.55,4.33,4.33,0,0,0,10.4-2.413a2.642,2.642,0,0,0,.95-2.013A2.1,2.1,0,0,0,10.8-5.9a3.715,3.715,0,0,0-1.413-.937A16.96,16.96,0,0,0,7.463-7.45Q6.4-7.725,5.35-8.062a10.818,10.818,0,0,1-1.912-.812,3.842,3.842,0,0,1-1.412-1.35,3.818,3.818,0,0,1-.55-2.075A4.063,4.063,0,0,1,3.1-15.638a6.4,6.4,0,0,1,4.1-1.287A7.77,7.77,0,0,1,13.125-14.6l-1.25,1.525a6.219,6.219,0,0,0-4.825-2,3.934,3.934,0,0,0-2.463.738,2.3,2.3,0,0,0-.963,1.912,1.766,1.766,0,0,0,.738,1.45,4.87,4.87,0,0,0,1.825.85q1.087.275,2.375.688t2.375.875a4.3,4.3,0,0,1,1.825,1.488A4.125,4.125,0,0,1,13.5-4.6a4.594,4.594,0,0,1-1.513,3.475A6.56,6.56,0,0,1,7.35.3ZM30.625,0H28.25L26.775-3.7h-8.3L17,0H14.625l6.7-16.675H23.9ZM26.15-5.55l-3.525-8.975L19.075-5.55ZM39,0H36.425l-6.7-16.675H32.1l5.625,14.4,5.625-14.4h2.375ZM58.825,0H47.9V-16.675H58.825v1.85h-8.85V-9.45H58.65V-7.6H49.975v5.75h8.85ZM73.4,2.5V.275A7.842,7.842,0,0,1,67.675-2.35L68.9-3.925a6.869,6.869,0,0,0,4.5,2.35v-6.1q-.95-.25-1.537-.45A11.175,11.175,0,0,1,70.5-8.713a4.685,4.685,0,0,1-1.225-.837,3.789,3.789,0,0,1-.763-1.15,3.888,3.888,0,0,1-.312-1.6,4.082,4.082,0,0,1,1.45-3.2,5.986,5.986,0,0,1,3.75-1.4v-2.3h1.525v2.325A7.629,7.629,0,0,1,79.85-14.6L78.6-13.075a6.109,6.109,0,0,0-3.675-1.9V-9.55a18.571,18.571,0,0,1,1.95.637,9.61,9.61,0,0,1,1.637.875A3.572,3.572,0,0,1,79.8-6.612,4.5,4.5,0,0,1,80.225-4.6a4.647,4.647,0,0,1-1.3,3.287,5.864,5.864,0,0,1-4,1.588V2.5Zm4.675-6.925a2.081,2.081,0,0,0-.812-1.75A7.215,7.215,0,0,0,74.925-7.25v5.675a3.671,3.671,0,0,0,2.387-1A2.659,2.659,0,0,0,78.075-4.425Zm-7.725-8a1.712,1.712,0,0,0,.775,1.488A8.249,8.249,0,0,0,73.4-9.95v-5.1a3.761,3.761,0,0,0-2.2.812A2.262,2.262,0,0,0,70.35-12.425ZM87.975,0H85.9V-13.925L83.225-11.1l-1.25-1.275,4.175-4.3h1.825Zm9.6.3a5.522,5.522,0,0,1-2.912-.763,5.647,5.647,0,0,1-2-2.037,10.435,10.435,0,0,1-1.1-2.75A12.84,12.84,0,0,1,91.2-8.325a12.84,12.84,0,0,1,.362-3.075,10.24,10.24,0,0,1,1.1-2.738,5.678,5.678,0,0,1,2-2.025,5.522,5.522,0,0,1,2.912-.762,5.54,5.54,0,0,1,2.9.762,5.646,5.646,0,0,1,2.012,2.025,10.24,10.24,0,0,1,1.1,2.738,12.839,12.839,0,0,1,.363,3.075,12.839,12.839,0,0,1-.363,3.075,10.435,10.435,0,0,1-1.1,2.75,5.615,5.615,0,0,1-2.012,2.037A5.54,5.54,0,0,1,97.575.3Zm-2.5-2.875a3.349,3.349,0,0,0,2.5,1.025,3.329,3.329,0,0,0,2.5-1.038,5.5,5.5,0,0,0,1.375-2.487,12.993,12.993,0,0,0,.375-3.25,12.993,12.993,0,0,0-.375-3.25,5.418,5.418,0,0,0-1.375-2.475,3.349,3.349,0,0,0-2.5-1.025,3.349,3.349,0,0,0-2.5,1.025A5.418,5.418,0,0,0,93.7-11.575a12.993,12.993,0,0,0-.375,3.25,12.993,12.993,0,0,0,.375,3.25A5.59,5.59,0,0,0,95.075-2.575ZM112.875.3a5.522,5.522,0,0,1-2.912-.763,5.647,5.647,0,0,1-2-2.037,10.435,10.435,0,0,1-1.1-2.75,12.84,12.84,0,0,1-.362-3.075,12.84,12.84,0,0,1,.362-3.075,10.24,10.24,0,0,1,1.1-2.738,5.678,5.678,0,0,1,2-2.025,5.522,5.522,0,0,1,2.912-.762,5.54,5.54,0,0,1,2.9.762,5.646,5.646,0,0,1,2.012,2.025,10.24,10.24,0,0,1,1.1,2.738,12.839,12.839,0,0,1,.363,3.075,12.839,12.839,0,0,1-.363,3.075,10.435,10.435,0,0,1-1.1,2.75,5.615,5.615,0,0,1-2.012,2.037A5.54,5.54,0,0,1,112.875.3Zm-2.5-2.875a3.349,3.349,0,0,0,2.5,1.025,3.329,3.329,0,0,0,2.5-1.038,5.5,5.5,0,0,0,1.375-2.487,12.993,12.993,0,0,0,.375-3.25,12.993,12.993,0,0,0-.375-3.25,5.418,5.418,0,0,0-1.375-2.475,3.349,3.349,0,0,0-2.5-1.025,3.349,3.349,0,0,0-2.5,1.025A5.418,5.418,0,0,0,109-11.575a12.993,12.993,0,0,0-.375,3.25A12.993,12.993,0,0,0,109-5.075,5.59,5.59,0,0,0,110.375-2.575Z" transform="translate(-0.043 42.484)" fill="#8b4612"/>
    </g>
  </g>
</svg>
