<svg xmlns="http://www.w3.org/2000/svg" xmlns:xlink="http://www.w3.org/1999/xlink" width="132.5" height="132.5" viewBox="0 0 132.5 132.5">
  <defs>
    <linearGradient id="linear-gradient" x1="0.866" y1="0.011" x2="-0.017" y2="1.189" gradientUnits="objectBoundingBox">
      <stop offset="0" stop-color="#f9d700"/>
      <stop offset="0.554" stop-color="#f7cb00"/>
      <stop offset="1" stop-color="#f6be00"/>
    </linearGradient>
    <filter id="Контур_40" x="0" y="0" width="132.5" height="132.5" filterUnits="userSpaceOnUse">
      <feOffset dy="3" input="SourceAlpha"/>
      <feGaussianBlur stdDeviation="3" result="blur"/>
      <feFlood flood-opacity="0.161"/>
      <feComposite operator="in" in2="blur"/>
      <feComposite in="SourceGraphic"/>
    </filter>
  </defs>
  <g id="Сгруппировать_125" data-name="Сгруппировать 125" transform="translate(-1050.5 -1130.5)">
    <g id="Сгруппировать_122" data-name="Сгруппировать 122" transform="translate(1059.5 1136.5)">
      <g transform="matrix(1, 0, 0, 1, -9, -6)" filter="url(#Контур_40)">
        <path id="Контур_40-2" data-name="Контур 40" d="M-137.487,386.547c0,4.855-6.6,8.776-7.8,13.254-1.238,4.632,2.481,11.322.134,15.377-2.38,4.114-10.055,4.223-13.394,7.562s-3.447,11.013-7.561,13.393c-4.056,2.347-10.746-1.372-15.377-.134-4.478,1.2-8.4,7.8-13.254,7.8s-8.776-6.6-13.254-7.8c-4.632-1.238-11.322,2.481-15.378.134-4.114-2.38-4.223-10.055-7.562-13.394s-11.013-3.447-13.393-7.561c-2.347-4.056,1.372-10.746.134-15.378-1.2-4.477-7.8-8.4-7.8-13.253s6.6-8.777,7.8-13.254c1.238-4.632-2.481-11.322-.134-15.377,2.38-4.114,10.055-4.223,13.394-7.562s3.447-11.013,7.561-13.393c4.057-2.347,10.746,1.371,15.378.134,4.477-1.2,8.4-7.8,13.253-7.8s8.777,6.6,13.254,7.8c4.632,1.238,11.322-2.481,15.377-.134,4.114,2.38,4.223,10.055,7.562,13.394s11.013,3.447,13.393,7.561c2.347,4.056-1.371,10.746-.134,15.377C-144.087,377.771-137.487,381.692-137.487,386.547Z" transform="translate(260.99 -323.3)" fill="url(#linear-gradient)"/>
      </g>
      <path id="Контур_41" data-name="Контур 41" d="M-143.505,387.3c0,4.28-5.819,7.738-6.875,11.685-1.092,4.084,2.188,9.983.118,13.559-2.1,3.627-8.865,3.724-11.81,6.668s-3.04,9.71-6.667,11.809c-3.576,2.07-9.474-1.209-13.559-.118-3.947,1.056-7.406,6.875-11.685,6.875s-7.738-5.819-11.685-6.875c-4.084-1.092-9.983,2.188-13.559.118-3.627-2.1-3.724-8.865-6.668-11.81s-9.71-3.04-11.809-6.667c-2.07-3.576,1.209-9.474.118-13.559-1.056-3.948-6.875-7.406-6.875-11.685s5.819-7.738,6.875-11.685c1.092-4.084-2.188-9.983-.118-13.559,2.1-3.627,8.865-3.724,11.81-6.668s3.04-9.71,6.667-11.809c3.576-2.07,9.475,1.209,13.559.118,3.948-1.056,7.406-6.875,11.685-6.875s7.738,5.819,11.685,6.875c4.084,1.092,9.983-2.188,13.559-.118,3.627,2.1,3.724,8.865,6.668,11.81s9.71,3.04,11.809,6.667c2.07,3.576-1.209,9.475-.118,13.559C-149.325,379.562-143.505,383.021-143.505,387.3Z" transform="translate(251.233 -330.051)" fill="none" stroke="#fff" stroke-miterlimit="10" stroke-width="1.123"/>
    </g>
    <path id="Контур_45" data-name="Контур 45" d="M1.917,0H1.089L3.51-5.337H.279V-6h4.1v.513Zm9.954,0H9.819V-6h2.052a3,3,0,0,1,2.227.855A2.925,2.925,0,0,1,14.949-3,2.906,2.906,0,0,1,14.1-.846,3.021,3.021,0,0,1,11.871,0Zm0-.666a2.19,2.19,0,0,0,1.683-.666A2.347,2.347,0,0,0,14.175-3a2.379,2.379,0,0,0-.612-1.674,2.183,2.183,0,0,0-1.692-.666h-1.3V-.666ZM22,0H21.15l-.531-1.332H17.631L17.1,0h-.855l2.412-6h.927ZM20.394-2,19.125-5.229,17.847-2Zm5.4,2h-.747V-2.538L22.68-6h.873l1.863,2.79L27.279-6h.873L25.794-2.538Zm5.985.108a2.923,2.923,0,0,1-2.3-.954l.441-.567a2.436,2.436,0,0,0,1.89.855,1.559,1.559,0,0,0,1.071-.311.951.951,0,0,0,.342-.725.757.757,0,0,0-.2-.531,1.337,1.337,0,0,0-.508-.337,6.105,6.105,0,0,0-.693-.221q-.382-.1-.76-.22a3.894,3.894,0,0,1-.689-.293,1.383,1.383,0,0,1-.508-.486,1.374,1.374,0,0,1-.2-.747,1.463,1.463,0,0,1,.585-1.2,2.3,2.3,0,0,1,1.476-.463,2.8,2.8,0,0,1,2.133.837l-.45.549a2.239,2.239,0,0,0-1.737-.72,1.416,1.416,0,0,0-.886.266.829.829,0,0,0-.347.688.636.636,0,0,0,.265.522,1.753,1.753,0,0,0,.657.306q.391.1.855.247t.855.315a1.548,1.548,0,0,1,.657.536,1.485,1.485,0,0,1,.265.891,1.654,1.654,0,0,1-.545,1.251A2.362,2.362,0,0,1,31.779.108Zm10.548,0a2.816,2.816,0,0,1-2.151-.882A3.12,3.12,0,0,1,39.348-3a3.12,3.12,0,0,1,.828-2.223A2.816,2.816,0,0,1,42.327-6.1a2.819,2.819,0,0,1,2.146.882A3.111,3.111,0,0,1,45.306-3a3.111,3.111,0,0,1-.833,2.223A2.819,2.819,0,0,1,42.327.108Zm0-.666a2.028,2.028,0,0,0,1.6-.689A2.548,2.548,0,0,0,44.532-3a2.544,2.544,0,0,0-.607-1.755,2.034,2.034,0,0,0-1.6-.684,2.03,2.03,0,0,0-1.6.684A2.556,2.556,0,0,0,40.122-3a2.56,2.56,0,0,0,.6,1.75A2.024,2.024,0,0,0,42.327-.558ZM52.524,0H51.8L48.3-4.788V0h-.747V-6h.765l3.456,4.689V-6h.747Zm6.021,0H55.008V-6h.747V-.666h2.79Zm3.519,0h-.747V-2.538L58.95-6h.873l1.863,2.79L63.549-6h.873L62.064-2.538Z" transform="translate(1084 1187.5)" fill="#8b4612"/>
    <path id="Контур_46" data-name="Контур 46" d="M-31.747.18a4.871,4.871,0,0,1-3.84-1.59l.735-.945A4.06,4.06,0,0,0-31.7-.93a2.6,2.6,0,0,0,1.785-.517,1.585,1.585,0,0,0,.57-1.207,1.261,1.261,0,0,0-.33-.885,2.229,2.229,0,0,0-.847-.563A10.176,10.176,0,0,0-31.68-4.47q-.637-.165-1.268-.367a6.491,6.491,0,0,1-1.147-.488,2.305,2.305,0,0,1-.847-.81,2.291,2.291,0,0,1-.33-1.245,2.438,2.438,0,0,1,.975-2,3.838,3.838,0,0,1,2.46-.772A4.662,4.662,0,0,1-28.282-8.76l-.75.915a3.732,3.732,0,0,0-2.9-1.2A2.36,2.36,0,0,0-33.4-8.6a1.381,1.381,0,0,0-.577,1.148,1.06,1.06,0,0,0,.443.87,2.922,2.922,0,0,0,1.1.51q.652.165,1.425.412t1.425.525a2.579,2.579,0,0,1,1.1.892,2.475,2.475,0,0,1,.442,1.485,2.756,2.756,0,0,1-.907,2.085A3.936,3.936,0,0,1-31.747.18ZM-17.782,0h-1.425l-.885-2.22h-4.98L-25.957,0h-1.425l4.02-10.005h1.545Zm-2.685-3.33-2.115-5.385-2.13,5.385ZM-12.757,0H-14.3l-4.02-10.005H-16.9l3.375,8.64,3.375-8.64h1.425ZM-.862,0H-7.417V-10.005H-.862v1.11h-5.31V-5.67H-.967v1.11H-6.172v3.45h5.31ZM7.883,1.5V.165A4.705,4.705,0,0,1,4.448-1.41l.735-.945a4.122,4.122,0,0,0,2.7,1.41v-3.66q-.57-.15-.923-.27a6.7,6.7,0,0,1-.818-.352,2.811,2.811,0,0,1-.735-.5,2.274,2.274,0,0,1-.458-.69,2.333,2.333,0,0,1-.187-.96,2.449,2.449,0,0,1,.87-1.92,3.592,3.592,0,0,1,2.25-.84v-1.38H8.8v1.4A4.577,4.577,0,0,1,11.753-8.76L11-7.845a3.666,3.666,0,0,0-2.2-1.14V-5.73a11.142,11.142,0,0,1,1.17.383,5.766,5.766,0,0,1,.983.525,2.143,2.143,0,0,1,.773.855,2.7,2.7,0,0,1,.255,1.207A2.788,2.788,0,0,1,11.2-.787,3.519,3.519,0,0,1,8.8.165V1.5Zm2.8-4.155A1.249,1.249,0,0,0,10.2-3.7,4.329,4.329,0,0,0,8.8-4.35v3.4a2.2,2.2,0,0,0,1.433-.6A1.6,1.6,0,0,0,10.688-2.655Zm-4.635-4.8a1.027,1.027,0,0,0,.465.892,4.949,4.949,0,0,0,1.365.592V-9.03a2.256,2.256,0,0,0-1.32.487A1.357,1.357,0,0,0,6.053-7.455ZM16.628,0H15.383V-8.355l-1.6,1.695-.75-.765,2.505-2.58h1.1Zm5.76.18A3.313,3.313,0,0,1,20.64-.278,3.388,3.388,0,0,1,19.44-1.5a6.261,6.261,0,0,1-.66-1.65,7.7,7.7,0,0,1-.218-1.845A7.7,7.7,0,0,1,18.78-6.84a6.144,6.144,0,0,1,.66-1.642A3.407,3.407,0,0,1,20.64-9.7a3.313,3.313,0,0,1,1.747-.457,3.324,3.324,0,0,1,1.74.457,3.388,3.388,0,0,1,1.208,1.215A6.144,6.144,0,0,1,26-6.84a7.7,7.7,0,0,1,.218,1.845A7.7,7.7,0,0,1,26-3.15a6.261,6.261,0,0,1-.66,1.65A3.369,3.369,0,0,1,24.128-.278,3.324,3.324,0,0,1,22.388.18Zm-1.5-1.725a2.01,2.01,0,0,0,1.5.615,2,2,0,0,0,1.5-.623,3.3,3.3,0,0,0,.825-1.492,7.8,7.8,0,0,0,.225-1.95,7.8,7.8,0,0,0-.225-1.95,3.251,3.251,0,0,0-.825-1.485,2.01,2.01,0,0,0-1.5-.615,2.01,2.01,0,0,0-1.5.615,3.251,3.251,0,0,0-.825,1.485,7.8,7.8,0,0,0-.225,1.95,7.8,7.8,0,0,0,.225,1.95A3.354,3.354,0,0,0,20.888-1.545ZM31.568.18A3.313,3.313,0,0,1,29.82-.278,3.388,3.388,0,0,1,28.62-1.5a6.261,6.261,0,0,1-.66-1.65,7.7,7.7,0,0,1-.218-1.845A7.7,7.7,0,0,1,27.96-6.84a6.144,6.144,0,0,1,.66-1.642A3.407,3.407,0,0,1,29.82-9.7a3.313,3.313,0,0,1,1.747-.457,3.324,3.324,0,0,1,1.74.457,3.388,3.388,0,0,1,1.207,1.215,6.144,6.144,0,0,1,.66,1.642,7.7,7.7,0,0,1,.217,1.845,7.7,7.7,0,0,1-.217,1.845,6.261,6.261,0,0,1-.66,1.65A3.369,3.369,0,0,1,33.308-.278,3.324,3.324,0,0,1,31.568.18Zm-1.5-1.725a2.01,2.01,0,0,0,1.5.615,2,2,0,0,0,1.5-.623,3.3,3.3,0,0,0,.825-1.492,7.8,7.8,0,0,0,.225-1.95,7.8,7.8,0,0,0-.225-1.95,3.251,3.251,0,0,0-.825-1.485,2.01,2.01,0,0,0-1.5-.615,2.01,2.01,0,0,0-1.5.615,3.251,3.251,0,0,0-.825,1.485,7.8,7.8,0,0,0-.225,1.95,7.8,7.8,0,0,0,.225,1.95A3.354,3.354,0,0,0,30.068-1.545Z" transform="translate(1117 1205.5)" fill="#8b4612"/>
  </g>
</svg>
