<svg xmlns="http://www.w3.org/2000/svg" width="10.438" height="10" viewBox="0 0 10.438 10">
    <path id="prefix__star" fill="#acacac" d="M10.211 5.579A.749.749 0 0 0 9.8 4.3l-2.532-.365a.33.33 0 0 1-.249-.181L5.89 1.464a.749.749 0 0 0-1.342 0l-1.13 2.29a.33.33 0 0 1-.249.181L.641 4.3a.749.749 0 0 0-.415 1.279l1.828 1.782a.331.331 0 0 1 .1.293l-.431 2.517a.733.733 0 0 0 .163.607.756.756 0 0 0 .923.182l2.26-1.188a.338.338 0 0 1 .308 0l2.26 1.188a.741.741 0 0 0 .348.087.751.751 0 0 0 .574-.269.733.733 0 0 0 .163-.607l-.435-2.517a.331.331 0 0 1 .1-.293z" transform="translate(.001 -1.047)"/>
</svg>
