<svg xmlns="http://www.w3.org/2000/svg" width="63" height="63" viewBox="0 0 63 63">
  <g id="Сгруппировать_751" data-name="Сгруппировать 751" transform="translate(-1272.942 -98.716)">
    <path id="Контур_46" data-name="Контур 46" d="M1311.574,161.357l-6.36-4.321-6.1,4.68-4.222-6.426-7.427,1.989-1.441-7.553-7.623-1,1.559-7.529-6.658-3.845,4.321-6.36-4.68-6.1,6.426-4.222-1.989-7.427,7.552-1.441,1-7.623,7.529,1.559,3.845-6.658,6.36,4.321,6.1-4.68,4.222,6.426,7.427-1.989,1.441,7.553,7.623,1-1.559,7.529,6.658,3.845-4.321,6.36,4.68,6.1-6.426,4.222,1.99,7.427-7.552,1.441-1,7.623-7.529-1.559Z" fill="#74bd35"/>
    <g id="Сгруппировать_748" data-name="Сгруппировать 748" transform="translate(1286.33 132.938)">
      <g id="Сгруппировать_747" data-name="Сгруппировать 747" transform="translate(0)">
        <path id="Контур_47" data-name="Контур 47" d="M1372.51,337.819c.2.018.275.133.218.319q-1.624,5.045-3.4,10.035a.3.3,0,0,1-.35.208c-.59-.065-.885-.1-1.474-.17a.3.3,0,0,1-.294-.282q-.585-5.266-1.015-10.544c-.014-.194.083-.29.285-.261.513.072.771.107,1.284.173a.284.284,0,0,1,.267.281q.265,3.7.592,7.4,1.166-3.527,2.272-7.072a.284.284,0,0,1,.323-.213C1371.737,337.747,1371.994,337.772,1372.51,337.819Z" transform="translate(-1366.197 -337.116)" fill="#fff"/>
        <path id="Контур_48" data-name="Контур 48" d="M1419.887,344.756c0,.136-.063.229-.229.223-1.38-.051-2.07-.086-3.449-.174-.07,1.084-.1,1.626-.174,2.71,1.076.069,1.615.1,2.692.145a.208.208,0,0,1,.216.24c-.022.537-.033.806-.056,1.343a.209.209,0,0,1-.238.221c-1.093-.047-1.639-.077-2.73-.147-.07,1.095-.106,1.642-.176,2.737,1.459.094,2.189.131,3.65.184.175.006.231.076.226.226l-.047,1.357c0,.136-.066.215-.244.209-1.815-.063-3.634-.167-5.444-.311a.2.2,0,0,1-.2-.234l.823-10.395a.2.2,0,0,1,.221-.2c1.663.133,3.335.228,5,.286.163.006.215.089.21.225C1419.915,343.942,1419.906,344.213,1419.887,344.756Z" transform="translate(-1406.86 -342.056)" fill="#fff"/>
        <path id="Контур_49" data-name="Контур 49" d="M1463.464,347.333a1.772,1.772,0,0,1,2.011-1.919c.719.007,1.078.008,1.8.005a1.778,1.778,0,0,1,2,1.93c.012.565.017.847.029,1.412a.2.2,0,0,1-.22.222c-.56.01-.84.014-1.4.018a.2.2,0,0,1-.225-.216l-.006-1.032a.493.493,0,0,0-.556-.541c-.4,0-.6,0-.994,0a.487.487,0,0,0-.558.538q-.034,3.1-.068,6.191c0,.367.2.546.578.548.421,0,.631,0,1.052,0,.38,0,.583-.179.582-.545,0-.728-.006-1.092-.011-1.819l-.746,0a.2.2,0,0,1-.229-.217c0-.543,0-.815,0-1.358,0-.149.071-.217.227-.217.951,0,1.427,0,2.378-.022a.2.2,0,0,1,.231.213c.031,1.51.046,2.264.077,3.774.026,1.276-.715,1.975-2.093,1.981-.782,0-1.173,0-1.955-.006-1.392-.014-2.115-.717-2.081-1.993Q1463.374,350.807,1463.464,347.333Z" transform="translate(-1449.345 -344.22)" fill="#fff"/>
        <path id="Контур_50" data-name="Контур 50" d="M1520.219,354.42a.222.222,0,0,1-.25-.173c-.221-.779-.33-1.169-.546-1.95-1.036.07-1.554.1-2.591.148-.12.8-.181,1.2-.305,2a.222.222,0,0,1-.228.2c-.634.027-.95.039-1.584.058-.163.005-.239-.074-.2-.225q1.055-5.249,1.955-10.523a.212.212,0,0,1,.222-.2c.756-.038,1.134-.059,1.89-.108a.212.212,0,0,1,.244.174q1.5,5.14,3.147,10.231c.042.146-.01.233-.187.248C1521.159,354.35,1520.846,354.375,1520.219,354.42Zm-2.452-8.345c-.246,1.913-.376,2.869-.65,4.78.736-.037,1.1-.058,1.84-.105C1518.469,348.882,1518.23,347.947,1517.767,346.075Z" transform="translate(-1493.214 -342.704)" fill="#fff"/>
        <path id="Контур_51" data-name="Контур 51" d="M1573.467,337.1a.2.2,0,0,1,.247.185l1.469,10.323a.21.21,0,0,1-.2.248c-.582.082-.874.121-1.457.2a.254.254,0,0,1-.287-.141q-1.487-2.725-2.886-5.5l-.07.008q.313,2.861.627,5.723c.014.135-.05.224-.212.241-.613.066-.92.1-1.535.156a.209.209,0,0,1-.256-.194q-.49-5.191-.98-10.381a.2.2,0,0,1,.2-.237c.537-.052.806-.079,1.342-.136a.235.235,0,0,1,.263.149q1.349,2.763,2.784,5.482l.085-.011q-.361-2.842-.722-5.684a.194.194,0,0,1,.189-.243C1572.624,337.215,1572.905,337.177,1573.467,337.1Z" transform="translate(-1538.961 -337.095)" fill="#fff"/>
      </g>
    </g>
    <g id="Сгруппировать_750" data-name="Сгруппировать 750" transform="translate(1287.64 116.171)">
      <g id="Сгруппировать_749" data-name="Сгруппировать 749" transform="translate(0 0)">
        <path id="Контур_52" data-name="Контур 52" d="M1378.472,225.738a.225.225,0,0,1,.281.2q.621,5.523,1.243,11.047a.214.214,0,0,1-.205.256c-.6.069-.9.105-1.5.183a.207.207,0,0,1-.261-.2q-.594-4.535-1.188-9.07c-.382.1-.573.146-.955.246-.2.057-.339-.025-.365-.212l-.2-1.376c-.026-.186.055-.3.26-.344C1376.735,226.163,1377.313,226.017,1378.472,225.738Z" transform="translate(-1375.321 -224.956)" fill="#fff"/>
        <path id="Контур_53" data-name="Контур 53" d="M1412.629,224.323c-.132-1.354.6-2.159,2.1-2.277.718-.056,1.077-.082,1.8-.127,1.507-.1,2.342.6,2.4,1.959q.162,3.7.324,7.4a1.9,1.9,0,0,1-2,2.194c-.649.041-.974.064-1.622.115a1.9,1.9,0,0,1-2.286-1.891Q1412.989,228.01,1412.629,224.323Zm4.142,7.313a.521.521,0,0,0,.554-.615q-.2-3.337-.408-6.675c-.023-.376-.256-.565-.667-.538-.366.024-.549.037-.915.064-.41.03-.615.251-.585.626q.266,3.333.531,6.666a.521.521,0,0,0,.635.532C1416.258,231.67,1416.429,231.658,1416.771,231.636Z" transform="translate(-1407.26 -221.68)" fill="#fff"/>
        <path id="Контур_54" data-name="Контур 54" d="M1467.586,222.445c-.042-1.36.739-2.115,2.249-2.131.719-.008,1.079-.009,1.8-.007,1.51.006,2.3.755,2.264,2.115q-.085,3.7-.171,7.409a1.894,1.894,0,0,1-2.137,2.056c-.65,0-.975,0-1.625.006a1.894,1.894,0,0,1-2.152-2.04Q1467.7,226.149,1467.586,222.445Zm3.641,7.573a.521.521,0,0,0,.594-.577q.02-3.344.039-6.687c0-.376-.218-.581-.629-.581-.367,0-.55,0-.917,0-.411,0-.63.209-.625.585q.042,3.343.084,6.687a.521.521,0,0,0,.6.573C1470.713,230.019,1470.884,230.019,1471.226,230.019Z" transform="translate(-1454.339 -220.306)" fill="#fff"/>
        <path id="Контур_55" data-name="Контур 55" d="M1530.986,224.588a2.637,2.637,0,1,1-2.446-2.649A2.528,2.528,0,0,1,1530.986,224.588Zm5.756-1.785c.254.034.4.194.224.387-3,3.168-5.828,6.438-8.523,9.87-.12.161-.186.234-.371.221-.58-.038-.87-.055-1.45-.085-.232-.012-.379-.158-.229-.366,2.636-3.482,5.409-6.8,8.356-10.027.138-.155.215-.223.418-.2C1535.8,222.68,1536.111,222.719,1536.742,222.8Zm-9.292,1.537a.921.921,0,1,0,.989-.8A.9.9,0,0,0,1527.45,224.339Zm9.141,7.648a2.486,2.486,0,1,1-2.15-2.763A2.45,2.45,0,0,1,1536.591,231.987Zm-3.32-.422a.868.868,0,1,0,.981-.753A.868.868,0,0,0,1533.271,231.565Z" transform="translate(-1504.135 -221.699)" fill="#fff"/>
      </g>
    </g>
  </g>
</svg>
