<svg xmlns="http://www.w3.org/2000/svg" width="13.6" height="13.292" viewBox="0 0 13.6 13.292">
  <g id="Сгруппировать_204" data-name="Сгруппировать 204" transform="translate(-332 -647)">
    <path id="Icon_ionic-ios-arrow-forward" data-name="Icon ionic-ios-arrow-forward" d="M16.555,12.84l-5.03-5.026a.946.946,0,0,1,0-1.342.958.958,0,0,1,1.346,0l5.7,5.695a.948.948,0,0,1,.028,1.31l-5.723,5.734a.95.95,0,1,1-1.346-1.342Z" transform="translate(326.754 640.804)" fill="#0083ca"/>
    <path id="Icon_ionic-ios-arrow-forward-2" data-name="Icon ionic-ios-arrow-forward" d="M16.555,12.84l-5.03-5.026a.946.946,0,0,1,0-1.342.958.958,0,0,1,1.346,0l5.7,5.695a.948.948,0,0,1,.028,1.31l-5.723,5.734a.95.95,0,1,1-1.346-1.342Z" transform="translate(320.754 640.804)" fill="#0083ca"/>
  </g>
</svg>
