<svg xmlns="http://www.w3.org/2000/svg" width="22.25" height="22.25" viewBox="0 0 22.25 22.25">
  <g id="Сгруппировать_187" data-name="Сгруппировать 187" transform="translate(1883.475 70.677)">
    <path id="Контур_665" data-name="Контур 665" d="M-1861.225-59.55a11.127,11.127,0,0,1-11.124,11.123,11.106,11.106,0,0,1-3.618-.6c-.067-.017-.133-.042-.2-.067a11.055,11.055,0,0,1-3.537-2.112c-.021-.014-.038-.032-.06-.049a11.091,11.091,0,0,1-3.712-8.292,11.1,11.1,0,0,1,3.737-8.316,1.1,1.1,0,0,1,.1-.084,11.067,11.067,0,0,1,3.695-2.133c.077-.028.158-.053.235-.077a11.063,11.063,0,0,1,3.358-.516A11.127,11.127,0,0,1-1861.225-59.55Z" transform="translate(0)" fill="#9771fa" style="isolation: isolate"/>
    <path id="Контур_666" data-name="Контур 666" d="M-1859.837-58.253l-8.955,10a1.15,1.15,0,0,1-.2.175c-.066-.017-.133-.042-.2-.067a11.051,11.051,0,0,1-3.537-2.112,1.161,1.161,0,0,1,.2-.541l5.186-7.561a1.186,1.186,0,0,0-.032-1.39l-5.049-6.653a1.142,1.142,0,0,1-.235-.6,11.072,11.072,0,0,1,3.695-2.133c.077-.028.158-.053.235-.077a.86.86,0,0,1,.161.14l8.709,9.207A1.184,1.184,0,0,1-1859.837-58.253Z" transform="translate(-6.978 -0.954)" fill="#fff"/>
  </g>
</svg>
