<svg xmlns="http://www.w3.org/2000/svg" width="16.667" height="16.667" viewBox="0 0 16.667 16.667">
  <path id="Icon_awesome-phone" data-name="Icon awesome-phone" d="M16.061.8,12.676.019a.786.786,0,0,0-.9.452L10.218,4.118a.779.779,0,0,0,.225.911l1.973,1.615a12.065,12.065,0,0,1-5.768,5.768L5.032,10.439a.78.78,0,0,0-.911-.225L.475,11.777a.791.791,0,0,0-.456.9L.8,16.061a.781.781,0,0,0,.762.605,15.1,15.1,0,0,0,15.1-15.1A.78.78,0,0,0,16.061.8Z" transform="translate(0.001 0.001)" fill="#8996a4"/>
</svg>
