<svg xmlns="http://www.w3.org/2000/svg" width="101.808" height="25.823" viewBox="0 0 101.808 25.823">
  <g id="Сгруппировать_56" data-name="Сгруппировать 56" transform="translate(-512.692 -3098.165)">
    <path id="Контур_48" data-name="Контур 48" d="M31.788-88.823c-1.2-1.363-3.357-1.947-6.122-1.947H17.641a1.149,1.149,0,0,0-1.136.969l-3.34,21.194a.689.689,0,0,0,.157.555.689.689,0,0,0,.524.241H18.8L20.044-75.7l-.039.247a1.146,1.146,0,0,1,1.131-.969h2.354c4.625,0,8.247-1.879,9.3-7.313q.047-.241.082-.47a5.132,5.132,0,0,0-1.089-4.614" transform="translate(499.536 3188.936)" fill="#003087"/>
    <path id="Контур_49" data-name="Контур 49" d="M226.148-65.686c-.3,1.989-1.821,1.989-3.29,1.989h-.836l.586-3.713a.461.461,0,0,1,.456-.389h.384c1,0,1.944,0,2.431.569a1.852,1.852,0,0,1,.269,1.544m-.639-5.189h-5.54a.771.771,0,0,0-.761.65l-2.239,14.205a.462.462,0,0,0,.105.372.462.462,0,0,0,.351.162h2.843a.539.539,0,0,0,.532-.454l.636-4.029a.77.77,0,0,1,.76-.65h1.753c3.65,0,5.756-1.765,6.306-5.266a4.266,4.266,0,0,0-.706-3.575,5.139,5.139,0,0,0-4.038-1.416" transform="translate(365.829 3175.883)" fill="#fff"/>
    <path id="Контур_50" data-name="Контур 50" d="M111.262-65.686c-.3,1.989-1.821,1.989-3.291,1.989h-.836l.586-3.713a.461.461,0,0,1,.456-.389h.384c1,0,1.944,0,2.431.569a1.849,1.849,0,0,1,.269,1.544m-.639-5.189h-5.54a.771.771,0,0,0-.761.65l-2.239,14.205a.461.461,0,0,0,.1.372.461.461,0,0,0,.351.162h2.646a.77.77,0,0,0,.76-.65l.605-3.832a.769.769,0,0,1,.76-.65h1.753c3.65,0,5.756-1.766,6.306-5.266a4.266,4.266,0,0,0-.706-3.575,5.139,5.139,0,0,0-4.038-1.416m12.862,10.289a2.959,2.959,0,0,1-2.994,2.534,2.24,2.24,0,0,1-1.781-.716,2.252,2.252,0,0,1-.416-1.863,2.968,2.968,0,0,1,2.973-2.553,2.236,2.236,0,0,1,1.769.723,2.284,2.284,0,0,1,.45,1.876m3.7-5.164h-2.653a.462.462,0,0,0-.457.391l-.116.741-.186-.269C123.2-65.72,121.915-66,120.637-66a6.1,6.1,0,0,0-5.922,5.336,5.008,5.008,0,0,0,.988,4.076,4.151,4.151,0,0,0,3.341,1.349,5.08,5.08,0,0,0,3.673-1.517l-.119.737a.461.461,0,0,0,.105.372.461.461,0,0,0,.351.161h2.389a.77.77,0,0,0,.761-.65l1.434-9.081a.462.462,0,0,0-.106-.372.462.462,0,0,0-.351-.161" transform="translate(441.2 3175.883)" fill="#fff"/>
    <path id="Контур_51" data-name="Контур 51" d="M262.326-51.286a2.958,2.958,0,0,1-2.994,2.534,2.24,2.24,0,0,1-1.781-.716,2.252,2.252,0,0,1-.416-1.863,2.968,2.968,0,0,1,2.973-2.553,2.236,2.236,0,0,1,1.769.723,2.284,2.284,0,0,1,.45,1.876m3.7-5.164h-2.653a.462.462,0,0,0-.457.391l-.116.741-.186-.269c-.574-.834-1.855-1.113-3.134-1.113a6.1,6.1,0,0,0-5.922,5.336,5.008,5.008,0,0,0,.989,4.076,4.151,4.151,0,0,0,3.341,1.349,5.08,5.08,0,0,0,3.674-1.517l-.119.737a.46.46,0,0,0,.1.372.46.46,0,0,0,.351.162h2.388a.771.771,0,0,0,.761-.65l1.434-9.081a.462.462,0,0,0-.106-.372.462.462,0,0,0-.352-.161" transform="translate(341.873 3166.583)" fill="#fff"/>
    <path id="Контур_52" data-name="Контур 52" d="M192.57-55.974H189.9a.767.767,0,0,0-.636.338l-3.679,5.417-1.559-5.206a.771.771,0,0,0-.738-.55h-2.621a.462.462,0,0,0-.376.193.462.462,0,0,0-.061.418l2.936,8.619-2.761,3.9a.462.462,0,0,0-.033.479.462.462,0,0,0,.41.25h2.664a.771.771,0,0,0,.632-.331l8.867-12.8a.461.461,0,0,0,.03-.477.461.461,0,0,0-.409-.248" transform="translate(389.941 3166.108)" fill="#fff"/>
    <path id="Контур_53" data-name="Контур 53" d="M294.7-70.483l-2.274,14.465a.462.462,0,0,0,.105.372.462.462,0,0,0,.351.162h2.286a.771.771,0,0,0,.761-.65l2.242-14.206a.461.461,0,0,0-.105-.372.461.461,0,0,0-.351-.161h-2.559a.461.461,0,0,0-.456.39" transform="translate(316.328 3175.882)" fill="#fff"/>
    <path id="Контур_54" data-name="Контур 54" d="M31.788-88.823c-1.2-1.363-3.357-1.947-6.122-1.947H17.641a1.149,1.149,0,0,0-1.136.969l-3.34,21.194a.689.689,0,0,0,.157.555.689.689,0,0,0,.524.241H18.8L20.044-75.7l-.039.247a1.146,1.146,0,0,1,1.131-.969h2.354c4.625,0,8.247-1.879,9.3-7.313q.047-.241.082-.47a5.132,5.132,0,0,0-1.089-4.614" transform="translate(499.536 3188.936)" fill="#003087"/>
    <path id="Контур_55" data-name="Контур 55" d="M21.379-84.181a1.006,1.006,0,0,1,.992-.848h6.292a13.227,13.227,0,0,1,2.075.15,8.718,8.718,0,0,1,1.029.23,5.684,5.684,0,0,1,1.108.441,5.129,5.129,0,0,0-1.088-4.614c-1.2-1.362-3.357-1.946-6.122-1.946H17.639A1.149,1.149,0,0,0,16.5-89.8L13.163-68.608a.689.689,0,0,0,.156.555.689.689,0,0,0,.524.241H18.8L20.042-75.7Z" transform="translate(499.537 3188.934)" fill="#fff"/>
    <path id="Контур_56" data-name="Контур 56" d="M42.972-71.7q-.037.236-.082.47c-1.058,5.434-4.679,7.313-9.3,7.313H31.23a1.144,1.144,0,0,0-1.13.969L28.894-55.3l-.343,2.169a.6.6,0,0,0,.137.486.6.6,0,0,0,.459.211h4.176a1,1,0,0,0,.992-.848l.041-.213.787-4.989.05-.276a1,1,0,0,1,.993-.848h.625c4.046,0,7.214-1.643,8.139-6.4.386-1.986.186-3.645-.836-4.81a3.989,3.989,0,0,0-1.144-.882" transform="translate(489.441 3176.421)" fill="#b5c2dc"/>
    <path id="Контур_57" data-name="Контур 57" d="M44.832-73.7q-.242-.072-.5-.129c-.171-.038-.349-.071-.53-.1a12.972,12.972,0,0,0-2.076-.152H35.436a1,1,0,0,0-.992.849l-1.337,8.479-.039.246a1.144,1.144,0,0,1,1.13-.969h2.355c4.625,0,8.247-1.879,9.3-7.313.031-.161.058-.316.082-.47a5.713,5.713,0,0,0-.87-.367c-.078-.026-.157-.05-.238-.074" transform="translate(486.473 3177.988)" fill="#e9edf4"/>
  </g>
</svg>
