<svg id="SSL_Encyption" data-name="SSL Encyption" xmlns="http://www.w3.org/2000/svg" xmlns:xlink="http://www.w3.org/1999/xlink" width="118.5" height="39.634" viewBox="0 0 118.5 39.634">
  <defs>
    <clipPath id="clip-path">
      <path id="Контур_59" data-name="Контур 59" d="M138.9,95.509V92.761a12.423,12.423,0,1,0-24.838-.439v3.186h-.528a1.111,1.111,0,0,0-1.111,1.111v8.86a14.057,14.057,0,0,0,14.057,14.058h0A14.058,14.058,0,0,0,140.54,105.48v-8.86a1.111,1.111,0,0,0-1.111-1.111Zm-20.574-3.186a8.155,8.155,0,1,1,16.31,0v3.186h-16.31Z" transform="translate(-112.425 -79.903)" fill="none"/>
    </clipPath>
  </defs>
  <g id="Сгруппировать_63" data-name="Сгруппировать 63">
    <g id="Сгруппировать_61" data-name="Сгруппировать 61">
      <g id="Сгруппировать_60" data-name="Сгруппировать 60">
        <path id="Контур_58" data-name="Контур 58" d="M140.985,95.575h-4.264V92.323a8.155,8.155,0,1,0-16.31,0v3.253h-4.264V92.323a12.419,12.419,0,1,1,24.838,0Z" transform="translate(-114.508 -79.904)" fill="#d5d5d9"/>
        <path id="Прямоугольник_201" data-name="Прямоугольник 201" d="M1.459,0h25.2a1.459,1.459,0,0,1,1.459,1.459V9.971A14.058,14.058,0,0,1,14.057,24.028h0A14.057,14.057,0,0,1,0,9.971V1.459A1.459,1.459,0,0,1,1.459,0Z" transform="translate(0 15.605)" fill="#8ebd00"/>
        <g id="Сгруппировать_59" data-name="Сгруппировать 59" transform="translate(0)">
          <g id="Сгруппировать_58" data-name="Сгруппировать 58" clip-path="url(#clip-path)">
            <rect id="Прямоугольник_202" data-name="Прямоугольник 202" width="14.057" height="24.028" transform="translate(14.057 15.605)" fill="#134200" opacity="0.1" style="mix-blend-mode: multiply;isolation: isolate"/>
          </g>
        </g>
      </g>
    </g>
    <g id="Сгруппировать_62" data-name="Сгруппировать 62" transform="translate(6.205 19.984)">
      <path id="Контур_60" data-name="Контур 60" d="M133.123,137.713l-6.6-6.188,2.816-2.64,3.785,3.549,7.608-7.132,2.816,2.64Z" transform="translate(-126.522 -125.302)" fill="#fff"/>
    </g>
  </g>
  <g id="Сгруппировать_64" data-name="Сгруппировать 64" transform="translate(35.551 6.456)">
    <path id="Контур_61" data-name="Контур 61" d="M197.188,104.163a10.359,10.359,0,0,1-1.471-.687,4.361,4.361,0,0,1-1.109-.892,3.7,3.7,0,0,1-.711-1.241,5.913,5.913,0,0,1,.169-3.9,4.312,4.312,0,0,1,1.193-1.579,5.229,5.229,0,0,1,1.856-.964,8.444,8.444,0,0,1,2.435-.326,11.588,11.588,0,0,1,2.3.217,17.477,17.477,0,0,1,2.254.627,8.6,8.6,0,0,1-.771,2.748q-.362-.145-.735-.289a5.787,5.787,0,0,0-.8-.241,8.953,8.953,0,0,0-.952-.157,10.921,10.921,0,0,0-1.205-.06,4.889,4.889,0,0,0-.832.073,2.291,2.291,0,0,0-.759.265,1.5,1.5,0,0,0-.554.567,1.93,1.93,0,0,0-.217.976,1.738,1.738,0,0,0,.169.807,1.686,1.686,0,0,0,.458.554,2.874,2.874,0,0,0,.651.386q.361.156.723.3l1.446.554q.916.362,1.663.747a4.487,4.487,0,0,1,1.266.952,4.009,4.009,0,0,1,.807,1.374,5.942,5.942,0,0,1,.29,1.988,5.506,5.506,0,0,1-.446,2.242,4.821,4.821,0,0,1-1.289,1.736,6.11,6.11,0,0,1-2.085,1.133,9.115,9.115,0,0,1-2.856.41q-.8,0-1.422-.048a10.649,10.649,0,0,1-1.193-.157,10.789,10.789,0,0,1-1.121-.277q-.555-.168-1.157-.41a10.109,10.109,0,0,1,.265-1.458q.192-.759.458-1.531a12.622,12.622,0,0,0,1.9.615,8.491,8.491,0,0,0,1.9.205,4.332,4.332,0,0,0,2.386-.567,1.917,1.917,0,0,0,.868-1.723,2.044,2.044,0,0,0-.2-.964,2.109,2.109,0,0,0-.53-.651,3.226,3.226,0,0,0-.736-.446q-.41-.181-.843-.35Z" transform="translate(-193.187 -94.57)" fill="#262626"/>
    <path id="Контур_62" data-name="Контур 62" d="M225.219,95.227h9.834a7.479,7.479,0,0,1,.145,1.47,7.729,7.729,0,0,1-.145,1.519h-6.315v3.76h5.013a8.111,8.111,0,0,1,.145,1.494,7.97,7.97,0,0,1-.145,1.519h-5.013v4.58h6.484a7.447,7.447,0,0,1,.145,1.47,7.7,7.7,0,0,1-.145,1.519h-10Z" transform="translate(-211.119 -94.938)" fill="#262626"/>
    <path id="Контур_63" data-name="Контур 63" d="M265.193,108.912a9.669,9.669,0,0,1,.518,1.386,9.872,9.872,0,0,1,.3,1.434,11.437,11.437,0,0,1-2.253.6,15.113,15.113,0,0,1-2.158.145,9.041,9.041,0,0,1-3.591-.663,7.148,7.148,0,0,1-2.591-1.856,7.912,7.912,0,0,1-1.579-2.832,11.517,11.517,0,0,1-.53-3.567,11.165,11.165,0,0,1,.554-3.58,8.342,8.342,0,0,1,1.6-2.856,7.232,7.232,0,0,1,2.579-1.88,8.552,8.552,0,0,1,3.483-.675,14.663,14.663,0,0,1,2.133.144,9.366,9.366,0,0,1,2.109.6,5.337,5.337,0,0,1-.289,1.41q-.241.687-.53,1.386a10.687,10.687,0,0,0-1.494-.41,8.569,8.569,0,0,0-1.543-.121,4.344,4.344,0,0,0-3.555,1.506,6.9,6.9,0,0,0-1.241,4.472q0,5.881,4.99,5.881a8.984,8.984,0,0,0,1.566-.12A10.427,10.427,0,0,0,265.193,108.912Z" transform="translate(-226.844 -94.57)" fill="#262626"/>
    <path id="Контур_64" data-name="Контур 64" d="M287.916,95.074q.457-.072.891-.1c.29-.016.586-.024.892-.024q.409,0,.843.024t.892.1v8.991a25.01,25.01,0,0,0,.108,2.519,5.359,5.359,0,0,0,.434,1.735,2.17,2.17,0,0,0,.916,1.012,3.155,3.155,0,0,0,1.531.325,3.083,3.083,0,0,0,1.518-.325,2.19,2.19,0,0,0,.9-1.012,5.36,5.36,0,0,0,.434-1.735,24.852,24.852,0,0,0,.109-2.519V95.074q.482-.072.916-.1t.844-.024c.289,0,.582.008.88.024a8.984,8.984,0,0,1,.9.1v9.738a16.539,16.539,0,0,1-.289,3.218,6.3,6.3,0,0,1-1.036,2.5,4.893,4.893,0,0,1-2,1.6,9.217,9.217,0,0,1-6.363,0,4.885,4.885,0,0,1-2-1.6,6.3,6.3,0,0,1-1.037-2.5,16.575,16.575,0,0,1-.289-3.218Z" transform="translate(-246.216 -94.785)" fill="#262626"/>
    <path id="Контур_65" data-name="Контур 65" d="M325.259,94.859q1.06-.12,1.988-.2t2.061-.085a14.2,14.2,0,0,1,2.615.241,7.078,7.078,0,0,1,2.326.855,4.82,4.82,0,0,1,1.675,1.664,5.05,5.05,0,0,1,.639,2.664,5.47,5.47,0,0,1-.241,1.7,5.188,5.188,0,0,1-.615,1.289,5.3,5.3,0,0,1-.807.952,5.7,5.7,0,0,1-.819.639l-.41.265,4.218,7.328q-.482.048-1.012.1t-1.085.048a11.281,11.281,0,0,1-1.808-.145l-4.531-8.051.579-.289q.337-.168.819-.434a5.061,5.061,0,0,0,.928-.663,3.639,3.639,0,0,0,.759-.964,3.19,3.19,0,0,0-.555-3.567,3.423,3.423,0,0,0-2.241-.711,5.914,5.914,0,0,0-.964.072V112.19q-.434.048-.868.084t-.843.037c-.273,0-.563-.009-.868-.024s-.618-.048-.94-.1Z" transform="translate(-267.121 -94.57)" fill="#262626"/>
    <path id="Контур_66" data-name="Контур 66" d="M358.332,95.227h9.834a7.481,7.481,0,0,1,.145,1.47,7.73,7.73,0,0,1-.145,1.519h-6.316v3.76h5.014a8.111,8.111,0,0,1,.145,1.494,7.97,7.97,0,0,1-.145,1.519h-5.014v4.58h6.485a7.515,7.515,0,0,1,.144,1.47,7.772,7.772,0,0,1-.144,1.519h-10Z" transform="translate(-285.635 -94.938)" fill="#262626"/>
  </g>
  <g id="Сгруппировать_65" data-name="Сгруппировать 65" transform="translate(35.42 28.597)">
    <path id="Контур_67" data-name="Контур 67" d="M194.717,149.254a4.834,4.834,0,0,1-.672-.314,1.994,1.994,0,0,1-.507-.408,1.7,1.7,0,0,1-.325-.568,2.7,2.7,0,0,1,.077-1.785,1.971,1.971,0,0,1,.545-.722,2.389,2.389,0,0,1,.849-.441,3.877,3.877,0,0,1,1.113-.149,5.319,5.319,0,0,1,1.053.1,7.951,7.951,0,0,1,1.031.287,3.93,3.93,0,0,1-.353,1.257l-.336-.133a2.66,2.66,0,0,0-.364-.11,3.987,3.987,0,0,0-.435-.072,5.007,5.007,0,0,0-.551-.028,2.3,2.3,0,0,0-.38.033,1.065,1.065,0,0,0-.347.121.687.687,0,0,0-.254.259.884.884,0,0,0-.1.446.8.8,0,0,0,.077.369.776.776,0,0,0,.21.254,1.311,1.311,0,0,0,.3.176c.11.048.221.094.331.138l.662.254q.419.166.761.342a2.053,2.053,0,0,1,.578.436,1.831,1.831,0,0,1,.369.628,2.709,2.709,0,0,1,.132.909,2.516,2.516,0,0,1-.2,1.025,2.2,2.2,0,0,1-.59.794,2.788,2.788,0,0,1-.953.518,4.162,4.162,0,0,1-1.306.187q-.364,0-.65-.022a4.872,4.872,0,0,1-.546-.072,4.944,4.944,0,0,1-.512-.126q-.254-.077-.529-.188a4.635,4.635,0,0,1,.121-.667q.088-.347.21-.7a5.724,5.724,0,0,0,.871.281,3.88,3.88,0,0,0,.871.094,1.983,1.983,0,0,0,1.091-.259.877.877,0,0,0,.4-.788.931.931,0,0,0-.094-.441.967.967,0,0,0-.243-.3,1.488,1.488,0,0,0-.336-.2q-.188-.083-.386-.16Z" transform="translate(-192.888 -144.867)" fill="#bababd"/>
    <path id="Контур_68" data-name="Контур 68" d="M207.864,149.254a4.787,4.787,0,0,1-.672-.314,1.994,1.994,0,0,1-.507-.408,1.681,1.681,0,0,1-.325-.568,2.7,2.7,0,0,1,.077-1.785,1.971,1.971,0,0,1,.545-.722,2.4,2.4,0,0,1,.849-.441,3.875,3.875,0,0,1,1.113-.149,5.322,5.322,0,0,1,1.053.1,7.972,7.972,0,0,1,1.031.287,3.93,3.93,0,0,1-.353,1.257l-.336-.133a2.668,2.668,0,0,0-.364-.11,4,4,0,0,0-.435-.072,5.015,5.015,0,0,0-.552-.028,2.3,2.3,0,0,0-.38.033,1.063,1.063,0,0,0-.347.121.684.684,0,0,0-.254.259.879.879,0,0,0-.1.446.8.8,0,0,0,.077.369.781.781,0,0,0,.21.254,1.315,1.315,0,0,0,.3.176q.165.072.331.138l.661.254q.419.166.761.342a2.055,2.055,0,0,1,.579.436,1.837,1.837,0,0,1,.369.628,2.709,2.709,0,0,1,.132.909,2.522,2.522,0,0,1-.2,1.025,2.206,2.206,0,0,1-.59.794,2.792,2.792,0,0,1-.953.518,4.164,4.164,0,0,1-1.306.187q-.364,0-.651-.022a4.872,4.872,0,0,1-.546-.072,4.945,4.945,0,0,1-.512-.126q-.254-.077-.529-.188a4.634,4.634,0,0,1,.121-.667q.088-.347.21-.7a5.71,5.71,0,0,0,.871.281,3.876,3.876,0,0,0,.871.094,1.983,1.983,0,0,0,1.091-.259.878.878,0,0,0,.4-.788.937.937,0,0,0-.094-.441.967.967,0,0,0-.243-.3,1.492,1.492,0,0,0-.336-.2q-.187-.083-.386-.16Z" transform="translate(-200.247 -144.867)" fill="#bababd"/>
    <path id="Контур_69" data-name="Контур 69" d="M220.683,145.083a4.894,4.894,0,0,1,.783-.066,5.172,5.172,0,0,1,.8.066v6.537h2.745a3.215,3.215,0,0,1,.044.358q.011.17.011.325c0,.118,0,.234-.011.347a3.214,3.214,0,0,1-.044.358h-4.332Z" transform="translate(-208.448 -144.951)" fill="#bababd"/>
    <path id="Контур_70" data-name="Контур 70" d="M238.537,145.167h4.5a3.427,3.427,0,0,1,.066.673,3.538,3.538,0,0,1-.066.694h-2.888v1.72h2.293a3.708,3.708,0,0,1,.066.683,3.649,3.649,0,0,1-.066.695h-2.293v2.094h2.965a3.422,3.422,0,0,1,.066.672,3.542,3.542,0,0,1-.066.695h-4.575Z" transform="translate(-218.442 -145.035)" fill="#bababd"/>
    <path id="Контур_71" data-name="Контур 71" d="M251.834,145.083a3.431,3.431,0,0,1,.65-.066,3.712,3.712,0,0,1,.684.066l3.064,5.049v-5.049a4.645,4.645,0,0,1,.761-.066,3.266,3.266,0,0,1,.661.066v7.926a3.51,3.51,0,0,1-.64.066,3.783,3.783,0,0,1-.672-.066l-3.087-5.038v5.038a3.886,3.886,0,0,1-.717.066,3.712,3.712,0,0,1-.705-.066Z" transform="translate(-225.886 -144.951)" fill="#bababd"/>
    <path id="Контур_72" data-name="Контур 72" d="M273.545,151.426a4.413,4.413,0,0,1,.237.634,4.6,4.6,0,0,1,.138.656,5.24,5.24,0,0,1-1.031.276,6.917,6.917,0,0,1-.987.066,4.131,4.131,0,0,1-1.642-.3,3.266,3.266,0,0,1-1.185-.849,3.607,3.607,0,0,1-.722-1.3,5.262,5.262,0,0,1-.243-1.631,5.127,5.127,0,0,1,.254-1.637,3.819,3.819,0,0,1,.733-1.306,3.3,3.3,0,0,1,1.179-.86,3.916,3.916,0,0,1,1.593-.309,6.693,6.693,0,0,1,.976.066,4.276,4.276,0,0,1,.965.276,2.455,2.455,0,0,1-.133.645q-.11.314-.243.634a4.915,4.915,0,0,0-.684-.188,3.947,3.947,0,0,0-.705-.055,1.989,1.989,0,0,0-1.627.689,3.158,3.158,0,0,0-.567,2.045q0,2.69,2.282,2.69a4.1,4.1,0,0,0,.717-.055A4.734,4.734,0,0,0,273.545,151.426Z" transform="translate(-234.997 -144.867)" fill="#bababd"/>
    <path id="Контур_73" data-name="Контур 73" d="M284.212,145q.485-.055.909-.094t.942-.038a6.5,6.5,0,0,1,1.2.11,3.231,3.231,0,0,1,1.064.391,2.2,2.2,0,0,1,.766.761,2.31,2.31,0,0,1,.292,1.218,2.493,2.493,0,0,1-.11.777,2.364,2.364,0,0,1-.281.59,2.4,2.4,0,0,1-.369.435,2.6,2.6,0,0,1-.374.292l-.188.121,1.929,3.351-.463.044q-.242.022-.5.022a5.16,5.16,0,0,1-.827-.066l-2.072-3.682.265-.132q.154-.077.375-.2a2.326,2.326,0,0,0,.424-.3,1.642,1.642,0,0,0,.347-.441,1.457,1.457,0,0,0-.253-1.631,1.567,1.567,0,0,0-1.025-.325,2.7,2.7,0,0,0-.441.033v6.691q-.2.022-.4.038c-.133.011-.261.017-.386.017s-.258,0-.4-.011-.283-.022-.43-.044Z" transform="translate(-244.011 -144.867)" fill="#bababd"/>
    <path id="Контур_74" data-name="Контур 74" d="M299.8,150.176l-2.469-5.093a6.545,6.545,0,0,1,.926-.066,5.376,5.376,0,0,1,.838.066l1.565,3.594,1.543-3.594a5.239,5.239,0,0,1,.838-.066,5.882,5.882,0,0,1,.849.066l-2.469,5.093v2.844q-.221.033-.419.044t-.4.011q-.187,0-.391-.011a4.109,4.109,0,0,1-.414-.044Z" transform="translate(-251.357 -144.951)" fill="#bababd"/>
    <path id="Контур_75" data-name="Контур 75" d="M314.237,144.966q.507-.044,1.025-.072t1.047-.027a5.853,5.853,0,0,1,1.118.11,2.8,2.8,0,0,1,1.025.413,2.26,2.26,0,0,1,.744.843,2.986,2.986,0,0,1,.287,1.4,2.953,2.953,0,0,1-.287,1.395,2.33,2.33,0,0,1-.739.843,2.693,2.693,0,0,1-1.008.419,5.64,5.64,0,0,1-1.1.11c-.1,0-.186,0-.27-.006s-.164-.009-.237-.017v2.547c-.14.022-.276.037-.408.044s-.261.011-.386.011-.246,0-.386-.011-.283-.022-.43-.044Zm1.61,4.078a1.477,1.477,0,0,0,.248.022h.281a2.044,2.044,0,0,0,.54-.071,1.259,1.259,0,0,0,.469-.237,1.16,1.16,0,0,0,.325-.435,1.624,1.624,0,0,0,.121-.667,1.736,1.736,0,0,0-.121-.689,1.2,1.2,0,0,0-.325-.452,1.219,1.219,0,0,0-.469-.242,2.045,2.045,0,0,0-.54-.072c-.081,0-.157,0-.226.006s-.171.013-.3.028Z" transform="translate(-260.819 -144.867)" fill="#bababd"/>
    <path id="Контур_76" data-name="Контур 76" d="M329.748,146.534h-1.973a3.539,3.539,0,0,1-.066-.694,3.428,3.428,0,0,1,.066-.673h5.567a3.425,3.425,0,0,1,.066.673,3.537,3.537,0,0,1-.066.694h-1.973v6.559c-.132.015-.264.027-.4.038s-.261.017-.386.017-.259,0-.4-.011-.288-.022-.435-.044Z" transform="translate(-268.361 -145.035)" fill="#bababd"/>
    <path id="Контур_77" data-name="Контур 77" d="M343.034,145.083a5.024,5.024,0,0,1,.8-.066,5.232,5.232,0,0,1,.816.066v7.926a5.164,5.164,0,0,1-.8.066,5.093,5.093,0,0,1-.816-.066Z" transform="translate(-276.94 -144.951)" fill="#bababd"/>
    <path id="Контур_78" data-name="Контур 78" d="M353.184,153.057a3.573,3.573,0,0,1-1.543-.309,2.876,2.876,0,0,1-1.069-.854,3.7,3.7,0,0,1-.623-1.29,6.133,6.133,0,0,1-.2-1.626,6.26,6.26,0,0,1,.2-1.637,3.746,3.746,0,0,1,.623-1.306,2.851,2.851,0,0,1,1.069-.86,4.013,4.013,0,0,1,3.086,0,2.851,2.851,0,0,1,1.069.86,3.739,3.739,0,0,1,.623,1.306,6.261,6.261,0,0,1,.2,1.637,6.134,6.134,0,0,1-.2,1.626,3.692,3.692,0,0,1-.623,1.29,2.876,2.876,0,0,1-1.069.854A3.571,3.571,0,0,1,353.184,153.057Zm0-1.345q1.708,0,1.708-2.734a4.039,4.039,0,0,0-.413-2.05,1.4,1.4,0,0,0-1.284-.683q-1.731,0-1.731,2.734T353.184,151.712Z" transform="translate(-280.697 -144.867)" fill="#bababd"/>
    <path id="Контур_79" data-name="Контур 79" d="M368.4,145.083a3.432,3.432,0,0,1,.651-.066,3.719,3.719,0,0,1,.684.066l3.064,5.049v-5.049a4.636,4.636,0,0,1,.761-.066,3.26,3.26,0,0,1,.661.066v7.926a3.506,3.506,0,0,1-.639.066,3.775,3.775,0,0,1-.672-.066l-3.087-5.038v5.038a3.887,3.887,0,0,1-.717.066,3.713,3.713,0,0,1-.706-.066Z" transform="translate(-291.14 -144.951)" fill="#bababd"/>
  </g>
</svg>
