<svg id="Trustpilot_logo" data-name="Trustpilot logo" xmlns="http://www.w3.org/2000/svg" width="142.565" height="35" viewBox="0 0 142.565 35">
  <path id="Контур_44" data-name="Контур 44" d="M178.124,300.7h14.423v2.685h-5.679v15.136h-3.113V303.385H178.1Zm13.805,4.919h2.661v2.495h.048a3.137,3.137,0,0,1,.5-1.022,3.949,3.949,0,0,1,.879-.9,3.889,3.889,0,0,1,1.14-.665,3.32,3.32,0,0,1,1.259-.261c.333,0,.57.024.689.024a2.077,2.077,0,0,0,.38.048v2.732a4.811,4.811,0,0,0-.618-.1,5.4,5.4,0,0,0-.618-.048,3.3,3.3,0,0,0-1.354.285,3.434,3.434,0,0,0-1.117.832,9.026,9.026,0,0,0-.76,1.378,10.791,10.791,0,0,0-.285,1.9v6.13h-2.851Zm20.624,12.9h-2.8v-1.806H209.7a3.982,3.982,0,0,1-1.568,1.568,4.14,4.14,0,0,1-2.115.594,4.705,4.705,0,0,1-3.683-1.259,5.509,5.509,0,0,1-1.14-3.8v-8.2h2.851v7.912a3.372,3.372,0,0,0,.665,2.4,2.346,2.346,0,0,0,1.83.713,3.5,3.5,0,0,0,1.5-.285,2.581,2.581,0,0,0,.974-.737,2.891,2.891,0,0,0,.546-1.117,5.276,5.276,0,0,0,.166-1.4v-7.485h2.851v12.9Zm4.847-4.134a2.243,2.243,0,0,0,.95,1.758,3.742,3.742,0,0,0,1.972.5,6.528,6.528,0,0,0,.9-.071,3.978,3.978,0,0,0,.95-.238,1.672,1.672,0,0,0,.737-.523,1.216,1.216,0,0,0,.261-.879,1.278,1.278,0,0,0-.4-.9,3.365,3.365,0,0,0-.95-.57,8.233,8.233,0,0,0-1.331-.356c-.5-.1-1-.214-1.521-.333s-1.045-.261-1.544-.428a4.429,4.429,0,0,1-1.331-.689,2.964,2.964,0,0,1-.927-1.093,3.416,3.416,0,0,1-.356-1.64,2.81,2.81,0,0,1,.523-1.758,3.79,3.79,0,0,1,1.307-1.141,5.934,5.934,0,0,1,1.758-.618,10.064,10.064,0,0,1,1.83-.166,8.174,8.174,0,0,1,1.9.214,4.805,4.805,0,0,1,1.639.689,3.764,3.764,0,0,1,1.212,1.236,4.281,4.281,0,0,1,.618,1.83h-2.97a1.829,1.829,0,0,0-.927-1.378,3.827,3.827,0,0,0-1.687-.356c-.19,0-.451.024-.713.048a4.2,4.2,0,0,0-.784.19,1.858,1.858,0,0,0-.618.4.951.951,0,0,0-.261.689,1.045,1.045,0,0,0,.356.832,3.231,3.231,0,0,0,.95.547,8.239,8.239,0,0,0,1.331.356c.5.1,1.022.214,1.544.333s1.022.261,1.521.428a4.16,4.16,0,0,1,1.331.689,3.427,3.427,0,0,1,.95,1.069,3.284,3.284,0,0,1,.356,1.592,3.463,3.463,0,0,1-.523,1.948A4.443,4.443,0,0,1,224.1,317.9a6.718,6.718,0,0,1-1.853.737,9.949,9.949,0,0,1-2.02.238,8.506,8.506,0,0,1-2.257-.285,5.746,5.746,0,0,1-1.806-.832,3.987,3.987,0,0,1-1.188-1.4,4.578,4.578,0,0,1-.475-2h2.875v.024Zm9.386-8.768h2.162v-3.9H231.8v3.873h2.566v2.115H231.8V314.6a7.314,7.314,0,0,0,.048.784,1.647,1.647,0,0,0,.166.547.929.929,0,0,0,.4.333,2.118,2.118,0,0,0,.76.119,4.957,4.957,0,0,0,.594-.024,5.126,5.126,0,0,0,.594-.1v2.21c-.309.048-.618.071-.927.1a5.908,5.908,0,0,1-.927.047,6.143,6.143,0,0,1-1.806-.214,2.594,2.594,0,0,1-1.069-.618,2.209,2.209,0,0,1-.523-1.022,8.1,8.1,0,0,1-.166-1.426v-7.6h-2.162v-2.115Zm9.576,0h2.685v1.758h.048a3.529,3.529,0,0,1,1.663-1.616,5.387,5.387,0,0,1,2.329-.5,5.856,5.856,0,0,1,2.661.546,4.993,4.993,0,0,1,1.877,1.473,6.145,6.145,0,0,1,1.117,2.186,9.6,9.6,0,0,1,.048,5.18,6.991,6.991,0,0,1-1.022,2.162,5.056,5.056,0,0,1-1.735,1.5,5.129,5.129,0,0,1-2.471.57,7.257,7.257,0,0,1-1.236-.119,5.259,5.259,0,0,1-1.188-.356,4.264,4.264,0,0,1-1.046-.642,3.619,3.619,0,0,1-.808-.9h-.048V323.3h-2.851V305.619Zm9.956,6.463a5.791,5.791,0,0,0-.238-1.687,4.3,4.3,0,0,0-.689-1.449,3.8,3.8,0,0,0-1.117-1.022,3.04,3.04,0,0,0-1.544-.38,3.156,3.156,0,0,0-2.709,1.236,5.628,5.628,0,0,0-.9,3.327,6.155,6.155,0,0,0,.238,1.806,4.024,4.024,0,0,0,.713,1.426,3.394,3.394,0,0,0,1.141.95,3.221,3.221,0,0,0,1.544.357,3.161,3.161,0,0,0,1.639-.4,3.83,3.83,0,0,0,1.117-1.022,4.182,4.182,0,0,0,.618-1.449A8.164,8.164,0,0,0,246.318,312.082Zm5.014-11.382h2.851v2.685h-2.851Zm0,4.919h2.851v12.9h-2.851Zm5.394-4.919h2.851v17.821h-2.851Zm11.548,18.177a6.789,6.789,0,0,1-2.756-.523,6.256,6.256,0,0,1-2.043-1.4,6.1,6.1,0,0,1-1.259-2.162,8.447,8.447,0,0,1-.451-2.732,7.717,7.717,0,0,1,.451-2.709,6.319,6.319,0,0,1,1.259-2.162,5.7,5.7,0,0,1,2.043-1.4,7.213,7.213,0,0,1,2.756-.523,6.79,6.79,0,0,1,2.756.523,5.915,5.915,0,0,1,2.043,1.4,6.1,6.1,0,0,1,1.259,2.162,8.3,8.3,0,0,1,.451,2.709,7.759,7.759,0,0,1-.451,2.732,6.724,6.724,0,0,1-1.259,2.162,5.7,5.7,0,0,1-2.043,1.4A7.124,7.124,0,0,1,268.273,318.877Zm0-2.257a3.286,3.286,0,0,0,1.639-.4,3.439,3.439,0,0,0,1.141-1.046,4.477,4.477,0,0,0,.665-1.449,6.481,6.481,0,0,0,0-3.3,4.259,4.259,0,0,0-.665-1.449,3.61,3.61,0,0,0-1.141-1.022,3.352,3.352,0,0,0-1.639-.4,3.286,3.286,0,0,0-1.64.4,3.64,3.64,0,0,0-1.141,1.022,4.259,4.259,0,0,0-.665,1.449,6.484,6.484,0,0,0,0,3.3,4.26,4.26,0,0,0,.665,1.449,3.686,3.686,0,0,0,1.141,1.046A3.112,3.112,0,0,0,268.273,316.62Zm7.366-11H277.8v-3.9h2.851v3.873h2.566v2.115h-2.566V314.6a7.3,7.3,0,0,0,.048.784,1.645,1.645,0,0,0,.166.547.928.928,0,0,0,.4.333,2.117,2.117,0,0,0,.76.119,4.958,4.958,0,0,0,.594-.024,5.124,5.124,0,0,0,.594-.1v2.21c-.309.048-.618.071-.927.1a5.908,5.908,0,0,1-.927.047,6.143,6.143,0,0,1-1.806-.214,2.594,2.594,0,0,1-1.069-.618,2.209,2.209,0,0,1-.523-1.022,8.115,8.115,0,0,1-.166-1.426v-7.6h-2.162v-2.115Z" transform="translate(-140.653 -288.297)"/>
  <path id="Контур_45" data-name="Контур 45" d="M54.644,260.9H41.6l-4.016-12.4-4.039,12.4L20.5,260.88l10.55,7.675-4.039,12.4,10.55-7.675,10.55,7.675-4.016-12.4Z" transform="translate(-20.5 -248.5)" fill="#00b67a"/>
  <path id="Контур_46" data-name="Контур 46" d="M99.813,335.7l-.9-2.8-6.51,4.728Z" transform="translate(-75.316 -312.846)" fill="#005128"/>
</svg>
